<?xml version="1.0" encoding="utf-8"?>
<!-- Generator: Adobe Illustrator 18.1.0, SVG Export Plug-In . SVG Version: 6.00 Build 0)  -->
<svg version="1.1" id="Layer_1" xmlns="http://www.w3.org/2000/svg" xmlns:xlink="http://www.w3.org/1999/xlink" x="0px" y="0px"
	 viewBox="0 0 200 200" enable-background="new 0 0 200 200" xml:space="preserve">
<g>
	<path fill="#FFFFFF" d="M117.6,105.1H82.7c-8.1,0-14.6-6.6-14.6-14.6V55.6c0-8,6.6-14.6,14.6-14.6h34.9c8.1,0,14.6,6.5,14.6,14.6
		v29.7c0,0.9-0.5,1.7-1.2,2.1c-0.8,0.4-1.7,0.3-2.4-0.1L92.4,63v26h-2V62.9c0-0.8,0.4-1.4,1.1-1.7s1.4-0.2,2,0.2l36.2,24.3
		c0.1,0.1,0.3,0.1,0.4,0s0.2-0.2,0.2-0.3V55.7c0-7-5.7-12.6-12.6-12.6h-35c-6.9,0-12.6,5.7-12.6,12.6v34.8c0,6.9,5.7,12.6,12.6,12.6
		h34.9c5.6,0,10.5-3.7,12.1-9.1l1.9,0.6C129.8,100.8,124.1,105.1,117.6,105.1z"/>
</g>
<g>
	<path fill="#FFFFFF" d="M11.3,139.2v-15.5h1.4l9.1,12.9H22v-12.9h1.5v15.5H22l-9.1-12.9h-0.1v12.9L11.3,139.2L11.3,139.2z"/>
	<path fill="#FFFFFF" d="M35.6,139.2h-9.3v-15.5h9.3v1.3h-7.9v5.6h7.5v1.3h-7.5v5.9h7.9C35.6,137.9,35.6,139.2,35.6,139.2z"/>
	<path fill="#FFFFFF" d="M42.2,139.2V125H37v-1.3h11.9v1.3h-5.2v14.1L42.2,139.2L42.2,139.2z"/>
	<path fill="#FFFFFF" d="M63.2,131.4c0,4.9-2.7,8-7,8s-7-3.1-7-8s2.7-8,7-8S63.2,126.6,63.2,131.4z M50.6,131.4
		c0,4.1,2.2,6.6,5.5,6.6c3.4,0,5.5-2.6,5.5-6.6c0-4.1-2.2-6.7-5.5-6.7S50.6,127.3,50.6,131.4z"/>
	<path fill="#FFFFFF" d="M71,123.7c2.9,0,4.9,1.9,4.9,4.8c0,2.9-2.1,4.9-5,4.9h-4.1v5.9h-1.4v-15.5L71,123.7L71,123.7z M66.9,132.1
		h3.7c2.4,0,3.8-1.3,3.8-3.5s-1.4-3.5-3.8-3.5h-3.7V132.1z"/>
	<path fill="#FFFFFF" d="M85.2,134.4h-6.5l-1.7,4.8h-1.6l5.8-15.5h1.4l5.8,15.5H87L85.2,134.4z M79.2,133.1h5.7l-2.8-7.7H82
		L79.2,133.1z"/>
	<path fill="#FFFFFF" d="M92.6,139.2v-6.7l-5.6-8.8h1.7l4.6,7.4h0.1l4.6-7.3h1.7l-5.6,8.8v6.7L92.6,139.2L92.6,139.2z"/>
	<path fill="#FFFFFF" d="M106.2,139.2v-15.5h9.2v1.3h-7.8v5.8h7.1v1.3h-7.1v7.1L106.2,139.2L106.2,139.2z"/>
	<path fill="#FFFFFF" d="M117.6,139.2v-15.5h1.4v15.5H117.6z"/>
	<path fill="#FFFFFF" d="M121.9,139.2v-15.5h1.4l9.1,12.9h0.1v-12.9h1.4v15.5h-1.4l-9.1-12.9h-0.1v12.9L121.9,139.2L121.9,139.2z"/>
	<path fill="#FFFFFF" d="M145.4,134.4h-6.5l-1.7,4.8h-1.6l5.8-15.5h1.4l5.8,15.5H147L145.4,134.4z M139.4,133.1h5.6l-2.8-7.7h-0.1
		L139.4,133.1z"/>
	<path fill="#FFFFFF" d="M150.4,139.2v-15.5h1.4l9.1,12.9h0.1v-12.9h1.4v15.5H161l-9.1-12.9h-0.1v12.9L150.4,139.2L150.4,139.2z"/>
	<path fill="#FFFFFF" d="M164.8,131.4c0-4.8,2.7-7.9,6.9-7.9c3.3,0,5.9,2.2,6.3,5.1h-1.4c-0.4-2.2-2.4-3.8-4.8-3.8
		c-3.3,0-5.4,2.6-5.4,6.6c0,4.1,2.1,6.6,5.4,6.6c2.4,0,4.4-1.3,4.8-3.4h1.4c-0.6,3-2.9,4.9-6.3,4.9
		C167.4,139.4,164.8,136.3,164.8,131.4z"/>
	<path fill="#FFFFFF" d="M189.4,139.2H180v-15.5h9.4v1.3h-7.9v5.6h7.5v1.3h-7.5v5.9h7.9V139.2z"/>
</g>
<text transform="matrix(1 0 0 1 208.6499 153.181)" font-family="'SFUIDisplay-Medium'" font-size="9">REGIONALES Finanz-Ökosystem </text>
<g enable-background="new    ">
	<path fill="#FFFFFF" d="M29.9,153.3h-1V147h2.5c1.3,0,2.1,0.8,2.1,1.9c0,0.9-0.5,1.6-1.2,1.8l1.4,2.6h-1.1l-1.3-2.4h-1.4V153.3z
		 M29.9,150.1h1.4c0.8,0,1.2-0.4,1.2-1.1c0-0.7-0.5-1.1-1.2-1.1h-1.4V150.1z"/>
	<path fill="#FFFFFF" d="M38.5,153.3h-4V147h4v0.8h-3v1.9h2.9v0.8h-2.9v2h3V153.3z"/>
	<path fill="#FFFFFF" d="M42.2,153.4c-1.8,0-3-1.3-3-3.3c0-2,1.1-3.2,2.9-3.2c1.4,0,2.5,0.8,2.7,2.1h-1c-0.2-0.8-0.9-1.2-1.7-1.2
		c-1.2,0-1.9,0.9-1.9,2.4c0,1.5,0.8,2.5,2,2.5c1,0,1.7-0.7,1.8-1.6v-0.1h-1.6V150h2.6v0.6C44.9,152.4,43.9,153.4,42.2,153.4z"/>
	<path fill="#FFFFFF" d="M45.9,153.3V147h1v6.3H45.9z"/>
	<path fill="#FFFFFF" d="M53.8,150.1c0,2-1.1,3.3-3,3.3c-1.8,0-3-1.3-3-3.3c0-2,1.1-3.3,3-3.3C52.6,146.9,53.8,148.1,53.8,150.1z
		 M48.8,150.1c0,1.5,0.8,2.4,2,2.4s2-0.9,2-2.4c0-1.5-0.8-2.4-2-2.4S48.8,148.7,48.8,150.1z"/>
	<path fill="#FFFFFF" d="M54.7,153.3V147h0.9l3.3,4.7h0V147h1v6.3H59l-3.3-4.7h0v4.7H54.7z"/>
	<path fill="#FFFFFF" d="M64.6,151.6h-2.4l-0.6,1.7h-1l2.3-6.3h1.1l2.3,6.3h-1L64.6,151.6z M62.4,150.8h1.9l-0.9-2.8h0L62.4,150.8z"
		/>
	<path fill="#FFFFFF" d="M70.9,153.3h-3.9V147h1v5.5h3V153.3z"/>
	<path fill="#FFFFFF" d="M75.7,153.3h-4V147h4v0.8h-3v1.9h2.9v0.8h-2.9v2h3V153.3z"/>
	<path fill="#FFFFFF" d="M77.4,151.5c0.1,0.6,0.7,1,1.5,1c0.8,0,1.4-0.4,1.4-1c0-0.5-0.3-0.8-1.2-1l-0.8-0.2
		c-1.2-0.3-1.7-0.8-1.7-1.7c0-1.1,1-1.8,2.3-1.8c1.3,0,2.3,0.8,2.3,1.8h-1c-0.1-0.6-0.6-1-1.3-1s-1.3,0.4-1.3,0.9
		c0,0.4,0.3,0.7,1.2,0.9l0.7,0.2c1.3,0.3,1.8,0.8,1.8,1.8c0,1.2-0.9,1.9-2.4,1.9c-1.4,0-2.4-0.7-2.4-1.9H77.4z"/>
	<path fill="#FFFFFF" d="M84.3,153.3V147h4v0.8h-3v2H88v0.8h-2.7v2.7H84.3z"/>
	<path fill="#FFFFFF" d="M89.1,153.3V147h1v6.3H89.1z"/>
	<path fill="#FFFFFF" d="M91.2,153.3V147h0.9l3.3,4.7h0V147h1v6.3h-0.9l-3.3-4.7h0v4.7H91.2z"/>
	<path fill="#FFFFFF" d="M101.1,151.6h-2.4l-0.6,1.7h-1l2.3-6.3h1.1l2.3,6.3h-1L101.1,151.6z M99,150.8h1.9l-0.9-2.8h0L99,150.8z"/>
	<path fill="#FFFFFF" d="M103.5,153.3V147h0.9l3.3,4.7h0V147h1v6.3h-0.9l-3.3-4.7h0v4.7H103.5z"/>
	<path fill="#FFFFFF" d="M109.6,152.6l3.5-4.8v0h-3.4V147h4.6v0.7l-3.5,4.8v0h3.5v0.9h-4.8V152.6z"/>
	<path fill="#FFFFFF" d="M115,150.7v-0.9h2.9v0.9H115z"/>
	<path fill="#FFFFFF" d="M124.7,150.1c0,2-1.1,3.3-3,3.3c-1.8,0-3-1.3-3-3.3c0-2,1.1-3.3,3-3.3C123.6,146.9,124.7,148.1,124.7,150.1
		z M119.8,150.1c0,1.5,0.8,2.4,2,2.4s2-0.9,2-2.4c0-1.5-0.8-2.4-2-2.4S119.8,148.7,119.8,150.1z M120.3,145.9c0-0.3,0.2-0.5,0.5-0.5
		c0.3,0,0.5,0.2,0.5,0.5c0,0.3-0.2,0.5-0.5,0.5C120.6,146.4,120.3,146.1,120.3,145.9z M122.1,145.9c0-0.3,0.2-0.5,0.5-0.5
		c0.3,0,0.5,0.2,0.5,0.5c0,0.3-0.2,0.5-0.5,0.5C122.3,146.4,122.1,146.1,122.1,145.9z"/>
	<path fill="#FFFFFF" d="M125.6,153.3V147h1v3h0l2.6-3h1.2l-2.5,2.8l2.7,3.5h-1.2l-2.2-2.9l-0.7,0.7v2.1H125.6z"/>
	<path fill="#FFFFFF" d="M136.8,150.1c0,2-1.1,3.3-3,3.3c-1.8,0-3-1.3-3-3.3c0-2,1.1-3.3,3-3.3C135.6,146.9,136.8,148.1,136.8,150.1
		z M131.8,150.1c0,1.5,0.8,2.4,2,2.4c1.2,0,2-0.9,2-2.4c0-1.5-0.8-2.4-2-2.4C132.6,147.7,131.8,148.7,131.8,150.1z"/>
	<path fill="#FFFFFF" d="M138.4,151.5c0.1,0.6,0.7,1,1.5,1c0.8,0,1.4-0.4,1.4-1c0-0.5-0.3-0.8-1.2-1l-0.8-0.2
		c-1.2-0.3-1.7-0.8-1.7-1.7c0-1.1,1-1.8,2.3-1.8c1.3,0,2.3,0.8,2.3,1.8h-1c-0.1-0.6-0.6-1-1.3-1c-0.8,0-1.3,0.4-1.3,0.9
		c0,0.4,0.3,0.7,1.2,0.9l0.7,0.2c1.3,0.3,1.8,0.8,1.8,1.8c0,1.2-0.9,1.9-2.4,1.9c-1.4,0-2.4-0.7-2.4-1.9H138.4z"/>
	<path fill="#FFFFFF" d="M144.9,153.3v-2.6l-2.2-3.7h1.1l1.6,2.8h0l1.6-2.8h1.1l-2.2,3.7v2.6H144.9z"/>
	<path fill="#FFFFFF" d="M149.4,151.5c0.1,0.6,0.7,1,1.5,1c0.8,0,1.4-0.4,1.4-1c0-0.5-0.3-0.8-1.2-1l-0.8-0.2
		c-1.2-0.3-1.7-0.8-1.7-1.7c0-1.1,1-1.8,2.3-1.8c1.3,0,2.3,0.8,2.3,1.8h-1c-0.1-0.6-0.6-1-1.3-1c-0.8,0-1.3,0.4-1.3,0.9
		c0,0.4,0.3,0.7,1.2,0.9l0.7,0.2c1.3,0.3,1.8,0.8,1.8,1.8c0,1.2-0.9,1.9-2.4,1.9c-1.4,0-2.4-0.7-2.4-1.9H149.4z"/>
	<path fill="#FFFFFF" d="M155.8,153.3v-5.5h-2V147h4.9v0.8h-2v5.5H155.8z"/>
	<path fill="#FFFFFF" d="M163.6,153.3h-4V147h4v0.8h-3v1.9h2.9v0.8h-2.9v2h3V153.3z"/>
	<path fill="#FFFFFF" d="M171,153.3h-0.9v-4.7h0l-1.9,4.6h-0.7l-1.9-4.6h0v4.7h-0.9V147h1.1l2.1,5h0l2-5h1.1V153.3z"/>
</g>
</svg>
