<?xml version="1.0" encoding="utf-8"?>
<!-- Generator: Adobe Illustrator 18.1.0, SVG Export Plug-In . SVG Version: 6.00 Build 0)  -->
<svg version="1.1" id="Layer_1" xmlns="http://www.w3.org/2000/svg" xmlns:xlink="http://www.w3.org/1999/xlink" x="0px" y="0px"
	 viewBox="0 0 200 200" enable-background="new 0 0 200 200" xml:space="preserve">
<g>
	<g>
		<rect x="-301.3" y="-138.7" fill="#FFDC00" width="21" height="27.9"/>
	</g>
	<g>
		<rect x="-193.8" y="-138.7" fill="#FFDC00" width="21" height="27.9"/>
	</g>
	<path fill="#FFDC00" d="M-195.4-143.5c-5.5-0.8-20.3-2.2-41.7-2.2c-21.4,0-36.2,1.4-41.7,2.2v32.7h83.4V-143.5z"/>
	<path fill="#FFDC00" d="M-237-147.4c14.6,0,26.2,0.6,33.9,1.3v-1v-19.1l-9.7-2.1v-9.6l-3.2-3.2v-6.9c0-5-5.5-14.2-14.4-17.3v-10.9
		c0-1.1-2.9-2.8-5.2-3.3v-8c0-0.8-0.7-1.5-1.5-1.5c-0.8,0-1.5,0.7-1.5,1.5v8c-2.3,0.6-5,2.2-5,3.3v10.9
		c-8.9,3.2-14.4,12.3-14.4,17.3v6.9l-3.2,3.2v9.6l-9.7,2.1v19.1v1C-263.3-146.7-251.7-147.4-237-147.4z"/>
</g>
<g>
	<g>
		<rect x="32.6" y="53.9" fill="#FFFFFF" width="10.1" height="100.9"/>
		<rect x="45.3" y="80.3" fill="#FFFFFF" width="10.1" height="74.5"/>
		<rect x="58" y="108.3" fill="#FFFFFF" width="10.1" height="46.5"/>
		<rect x="83.4" y="113.6" fill="#FFFFFF" width="10.1" height="41.2"/>
		<rect x="96.1" y="66.8" fill="#FFFFFF" width="10.1" height="88"/>
		<rect x="108.8" y="133.6" fill="#FFFFFF" width="10.1" height="21.2"/>
		<rect x="146.8" y="85.5" fill="#FFFFFF" width="10.1" height="69.3"/>
		<rect x="159.5" y="46" fill="#FFFFFF" width="10.1" height="108.8"/>
		<rect x="172.2" y="108.3" fill="#FFFFFF" width="10.1" height="46.5"/>
	</g>
	<path fill="#FFFFFF" d="M24.2,153.6v-5.1c1-0.4,1.7-1.4,1.7-2.6s-0.7-2.1-1.7-2.6V139c1-0.4,1.7-1.4,1.7-2.6s-0.7-2.1-1.7-2.6v-4.3
		c1-0.4,1.7-1.4,1.7-2.6c0-1.2-0.7-2.1-1.7-2.6v-4.3c1-0.4,1.7-1.4,1.7-2.6s-0.7-2.1-1.7-2.6v-4.3c1-0.4,1.7-1.4,1.7-2.6
		s-0.7-2.1-1.7-2.6v-4.3c1-0.4,1.7-1.4,1.7-2.6c0-1.2-0.7-2.1-1.7-2.6v-4.3c1-0.4,1.7-1.4,1.7-2.6s-0.7-2.1-1.7-2.6v-4.3
		c1-0.4,1.7-1.4,1.7-2.6c0-1.2-0.7-2.1-1.7-2.6v-4.3c1-0.4,1.7-1.4,1.7-2.6s-0.7-2.1-1.7-2.6v-4.3c1-0.4,1.7-1.4,1.7-2.6
		c0-1.2-0.7-2.1-1.7-2.6v-4.3c1-0.4,1.7-1.4,1.7-2.6c0-1.2-0.7-2.1-1.7-2.6v-4.3c1-0.4,1.7-1.4,1.7-2.6c0-1.2-0.7-2.1-1.7-2.6v-3.5
		h-2.3v3.5c-1,0.4-1.7,1.4-1.7,2.6s0.7,2.1,1.7,2.6v4.3c-1,0.4-1.7,1.4-1.7,2.6s0.7,2.1,1.7,2.6v4.3c-1,0.4-1.7,1.4-1.7,2.6
		s0.7,2.1,1.7,2.6v4.3c-1,0.4-1.7,1.4-1.7,2.6s0.7,2.1,1.7,2.6V77c-1,0.4-1.7,1.4-1.7,2.6c0,1.2,0.7,2.1,1.7,2.6v4.3
		c-1,0.4-1.7,1.4-1.7,2.6c0,1.2,0.7,2.1,1.7,2.6V96c-1,0.4-1.7,1.4-1.7,2.6c0,1.2,0.7,2.1,1.7,2.6v4.3c-1,0.4-1.7,1.4-1.7,2.6
		c0,1.2,0.7,2.1,1.7,2.6v4.3c-1,0.4-1.7,1.4-1.7,2.6c0,1.2,0.7,2.1,1.7,2.6v4.3c-1,0.4-1.7,1.4-1.7,2.6s0.7,2.1,1.7,2.6v4.3
		c-1,0.4-1.7,1.4-1.7,2.6s0.7,2.1,1.7,2.6v4.3c-1,0.4-1.7,1.4-1.7,2.6s0.7,2.1,1.7,2.6v7.4h160.4v-2.3H24.2z"/>
</g>
</svg>
