<svg version="1.1" id="Layer_1" xmlns="http://www.w3.org/2000/svg" xmlns:xlink="http://www.w3.org/1999/xlink" x="0px" y="0px"
	 viewBox="0 0 400 400" enable-background="new 0 0 400 400" xml:space="preserve">
<g>
	<g>
		<path fill="#666666" d="M200,396.7C91.6,396.7,3.3,308.4,3.3,200S91.6,3.3,200,3.3S396.7,91.6,396.7,200S308.4,396.7,200,396.7z
			 M200,10.3C95.4,10.3,10.3,95.4,10.3,200c0,104.6,85.1,189.7,189.7,189.7c104.6,0,189.7-85.1,189.7-189.7
			C389.7,95.4,304.6,10.3,200,10.3z"/>
	</g>
	<polygon fill="#666666" points="279.5,125.5 274.5,120.5 200.2,194.8 125.9,120.5 120.9,125.5 195.3,199.8 120.9,274.1 
		125.9,279.1 200.2,204.7 274.5,279.1 279.5,274.1 205.2,199.8 	"/>
</g>
</svg>