
<svg version="1.1" id="Layer_1" xmlns="http://www.w3.org/2000/svg" xmlns:xlink="http://www.w3.org/1999/xlink" x="0px" y="0px"
	 viewBox="0 0 300 300" enable-background="new 0 0 300 300" xml:space="preserve">
<circle fill="#FFFFFF" cx="149.7" cy="149" r="131.7"/>
<path fill="#0071BC" d="M149.7,26.7C81,26.7,25.3,82,25.3,151c0,68,55.7,124.3,124.3,124.3S274,219,274,151
	C274,82,218.3,26.7,149.7,26.7z"/>
<polygon fill="#FBCB4C" points="149.7,43.6 153.7,56 166.7,56 156.2,63.6 160.2,75.9 149.7,68.2 139.1,75.9 143.1,63.6 132.6,56 
	145.6,56 "/>
<polygon fill="#FBCB4C" points="195.7,57.6 199.7,70 212.7,70 202.2,77.6 206.2,89.9 195.7,82.2 185.1,89.9 189.1,77.6 178.6,70 
	191.6,70 "/>
<polygon fill="#FBCB4C" points="226.7,89.6 230.7,102 243.7,102 233.2,109.6 237.2,121.9 226.7,114.2 216.1,121.9 220.1,109.6 
	209.6,102 222.6,102 "/>
<polygon fill="#FBCB4C" points="241.7,135.6 245.7,148 258.7,148 248.2,155.6 252.2,167.9 241.7,160.2 231.1,167.9 235.1,155.6 
	224.6,148 237.6,148 "/>
<polygon fill="#FBCB4C" points="226.7,180.6 230.7,193 243.7,193 233.2,200.6 237.2,212.9 226.7,205.2 216.1,212.9 220.1,200.6 
	209.6,193 222.6,193 "/>
<polygon fill="#FBCB4C" points="149.7,226.6 153.7,239 166.7,239 156.2,246.6 160.2,258.9 149.7,251.2 139.1,258.9 143.1,246.6 
	132.6,239 145.6,239 "/>
<polygon fill="#FBCB4C" points="103.7,211.6 107.7,224 120.7,224 110.2,231.6 114.2,243.9 103.7,236.2 93.1,243.9 97.1,231.6 
	86.6,224 99.6,224 "/>
<polygon fill="#FBCB4C" points="72.7,178.6 76.7,191 89.7,191 79.2,198.6 83.2,210.9 72.7,203.2 62.1,210.9 66.1,198.6 55.6,191 
	68.6,191 "/>
<polygon fill="#FBCB4C" points="58.7,135.6 62.7,148 75.7,148 65.2,155.6 69.2,167.9 58.7,160.2 48.1,167.9 52.1,155.6 41.6,148 
	54.6,148 "/>
<polygon fill="#FBCB4C" points="72.7,87.6 76.7,100 89.7,100 79.2,107.6 83.2,119.9 72.7,112.2 62.1,119.9 66.1,107.6 55.6,100 
	68.6,100 "/>
<polygon fill="#FBCB4C" points="103.7,57.6 107.7,70 120.7,70 110.2,77.6 114.2,89.9 103.7,82.2 93.1,89.9 97.1,77.6 86.6,70 
	99.6,70 "/>
<polygon fill="#FBCB4C" points="195.7,211.6 199.7,224 212.7,224 202.2,231.6 206.2,243.9 195.7,236.2 185.1,243.9 189.1,231.6 
	178.6,224 191.6,224 "/>
</svg>
