<?xml version="1.0" encoding="utf-8"?>
<!-- Generator: Adobe Illustrator 18.1.0, SVG Export Plug-In . SVG Version: 6.00 Build 0)  -->
<svg version="1.1" id="Layer_1" xmlns="http://www.w3.org/2000/svg" xmlns:xlink="http://www.w3.org/1999/xlink" x="0px" y="0px"
	 viewBox="0 0 200 200" enable-background="new 0 0 200 200" xml:space="preserve">
<path fill="none" stroke="#FFFFFF" stroke-width="6" stroke-miterlimit="10" d="M102.3,140.7L102.3,140.7
	c-20.7,0-37.5-16.8-37.5-37.5V50.4c0-20.7,16.8-37.5,37.5-37.5h0c20.7,0,37.5,16.8,37.5,37.5v52.8
	C139.8,123.9,123.1,140.7,102.3,140.7z"/>
<path fill="#FFFFFF" d="M102.3,57.6L102.3,57.6c-3.2,0-5.7-2.6-5.7-5.7V36.4c0-3.2,2.6-5.7,5.7-5.7h0c3.2,0,5.7,2.6,5.7,5.7v15.4
	C108.1,55,105.5,57.6,102.3,57.6z"/>
</svg>
