<?xml version="1.0" encoding="utf-8"?>
<!-- Generator: Adobe Illustrator 18.1.0, SVG Export Plug-In . SVG Version: 6.00 Build 0)  -->
<svg version="1.1" id="Layer_1" xmlns="http://www.w3.org/2000/svg" xmlns:xlink="http://www.w3.org/1999/xlink" x="0px" y="0px"
	 viewBox="0 0 840 840" enable-background="new 0 0 840 840" xml:space="preserve">
<path fill="#FF1D25" d="M832.7,420C832.7,192.2,647.8,7.3,420,7.3S7.3,192.2,7.3,420S192.2,832.7,420,832.7
	c83.8,0,161.7-24.9,226.8-67.9l62.8,62.8l121.7-121.7l-63.6-63.6C808.9,578.2,832.7,501.8,832.7,420z M179.4,420
	c0-132.8,107.7-240.6,240.6-240.6S660.6,287.2,660.6,420c0,64.4-25.3,122.6-66.3,165.8l-8.4,8.4c-43.2,41-101.4,66.3-165.8,66.3
	C287.2,660.6,179.4,552.8,179.4,420z"/>
</svg>
