<?xml version="1.0" encoding="utf-8"?>
<!-- Generator: Adobe Illustrator 18.1.0, SVG Export Plug-In . SVG Version: 6.00 Build 0)  -->
<svg version="1.1" id="Layer_1" xmlns="http://www.w3.org/2000/svg" xmlns:xlink="http://www.w3.org/1999/xlink" x="0px" y="0px"
	 viewBox="0 0 200 200" enable-background="new 0 0 200 200" xml:space="preserve">
<g>
	<path fill="#FFFFFF" d="M117.6,105.1H82.7c-8.1,0-14.6-6.6-14.6-14.6V55.6c0-8,6.6-14.6,14.6-14.6h34.9c8.1,0,14.6,6.5,14.6,14.6
		v29.7c0,0.9-0.5,1.7-1.2,2.1c-0.8,0.4-1.7,0.3-2.4-0.1L92.4,63v26h-2V62.9c0-0.8,0.4-1.4,1.1-1.7c0.7-0.3,1.4-0.2,2,0.2l36.2,24.3
		c0.1,0.1,0.3,0.1,0.4,0s0.2-0.2,0.2-0.3V55.7c0-7-5.7-12.6-12.6-12.6H82.7c-6.9,0-12.6,5.7-12.6,12.6v34.8
		c0,6.9,5.7,12.6,12.6,12.6h34.9c5.6,0,10.5-3.7,12.1-9.1l1.9,0.6C129.8,100.8,124.1,105.1,117.6,105.1z"/>
</g>
<g>
	<path fill="#FFFFFF" d="M11.3,139.2v-15.5h1.4l9.1,12.9H22v-12.9h1.5v15.5H22l-9.1-12.9h-0.1v12.9H11.3z"/>
	<path fill="#FFFFFF" d="M35.6,139.2h-9.3v-15.5h9.3v1.3h-7.9v5.6h7.5v1.3h-7.5v5.9h7.9C35.6,137.9,35.6,139.2,35.6,139.2z"/>
	<path fill="#FFFFFF" d="M42.2,139.2V125H37v-1.3h11.9v1.3h-5.2v14.1L42.2,139.2L42.2,139.2z"/>
	<path fill="#FFFFFF" d="M63.2,131.4c0,4.9-2.7,8-7,8c-4.3,0-7-3.1-7-8s2.7-8,7-8S63.2,126.6,63.2,131.4z M50.6,131.4
		c0,4.1,2.2,6.6,5.5,6.6c3.4,0,5.5-2.6,5.5-6.6c0-4.1-2.2-6.7-5.5-6.7S50.6,127.3,50.6,131.4z"/>
	<path fill="#FFFFFF" d="M71,123.7c2.9,0,4.9,1.9,4.9,4.8s-2.1,4.9-5,4.9h-4.1v5.9h-1.4v-15.5L71,123.7L71,123.7z M66.9,132.1h3.7
		c2.4,0,3.8-1.3,3.8-3.5s-1.4-3.5-3.8-3.5h-3.7V132.1z"/>
	<path fill="#FFFFFF" d="M85.2,134.4h-6.5l-1.7,4.8h-1.6l5.8-15.5h1.4l5.8,15.5H87L85.2,134.4z M79.2,133.1h5.7l-2.8-7.7H82
		L79.2,133.1z"/>
	<path fill="#FFFFFF" d="M92.6,139.2v-6.7l-5.6-8.8h1.7l4.6,7.4h0.1l4.6-7.3h1.7l-5.6,8.8v6.7H92.6z"/>
	<path fill="#FFFFFF" d="M106.2,139.2v-15.5h9.2v1.3h-7.8v5.8h7.1v1.3h-7.1v7.1H106.2z"/>
	<path fill="#FFFFFF" d="M117.6,139.2v-15.5h1.4v15.5H117.6z"/>
	<path fill="#FFFFFF" d="M121.9,139.2v-15.5h1.4l9.1,12.9h0.1v-12.9h1.4v15.5h-1.4l-9.1-12.9h-0.1v12.9H121.9z"/>
	<path fill="#FFFFFF" d="M145.4,134.4h-6.5l-1.7,4.8h-1.6l5.8-15.5h1.4l5.8,15.5h-1.6L145.4,134.4z M139.4,133.1h5.6l-2.8-7.7h-0.1
		L139.4,133.1z"/>
	<path fill="#FFFFFF" d="M150.4,139.2v-15.5h1.4l9.1,12.9h0.1v-12.9h1.4v15.5h-1.4l-9.1-12.9h-0.1v12.9H150.4z"/>
	<path fill="#FFFFFF" d="M164.8,131.4c0-4.8,2.7-7.9,6.9-7.9c3.3,0,5.9,2.2,6.3,5.1h-1.4c-0.4-2.2-2.4-3.8-4.8-3.8
		c-3.3,0-5.4,2.6-5.4,6.6c0,4.1,2.1,6.6,5.4,6.6c2.4,0,4.4-1.3,4.8-3.4h1.4c-0.6,3-2.9,4.9-6.3,4.9
		C167.4,139.4,164.8,136.3,164.8,131.4z"/>
	<path fill="#FFFFFF" d="M189.4,139.2h-9.4v-15.5h9.4v1.3h-7.9v5.6h7.5v1.3h-7.5v5.9h7.9V139.2z"/>
</g>
<g>
	<path fill="#FFFFFF" d="M14.4,146.8c1.2,0,2.1,0.8,2.1,2.1c0,1.2-0.9,2.1-2.1,2.1h-1.6v2.3H12v-6.5H14.4z M12.8,150.2h1.4
		c0.9,0,1.4-0.5,1.4-1.4c0-0.9-0.5-1.4-1.4-1.4h-1.4V150.2z"/>
	<path fill="#FFFFFF" d="M21.5,153.3h-4v-6.5h4v0.7h-3.2v2.1h3v0.7h-3v2.2h3.2V153.3z"/>
	<path fill="#FFFFFF" d="M22.6,153.3v-6.5h3.8v0.7h-3v5.7H22.6z"/>
	<path fill="#FFFFFF" d="M27.4,153.3v-6.5h0.8v6.5H27.4z"/>
	<path fill="#FFFFFF" d="M35.3,150c0,2-1.1,3.3-3,3.3s-3-1.3-3-3.3s1.1-3.3,3-3.3S35.3,148,35.3,150z M30.2,150
		c0,1.6,0.8,2.6,2.1,2.6s2.1-1,2.1-2.6c0-1.6-0.8-2.6-2.1-2.6S30.2,148.4,30.2,150z"/>
	<path fill="#FFFFFF" d="M40.7,153.3v-2.9h-3.5v2.9h-0.8v-6.5h0.8v2.8h3.5v-2.8h0.8v6.5H40.7z"/>
	<path fill="#FFFFFF" d="M46.4,151.4h-2.6l-0.6,1.8h-0.8l2.4-6.5h0.8l2.4,6.5h-0.8L46.4,151.4z M44.1,150.7h2.1l-1-2.9h0L44.1,150.7
		z"/>
	<path fill="#FFFFFF" d="M52.8,153.3v-5.7h-2.4l-0.2,3.3c-0.1,1.7-0.6,2.5-1.6,2.5c-0.1,0-0.2,0-0.3,0v-0.7c0,0,0.2,0,0.2,0
		c0.6,0,0.9-0.5,1-1.7l0.2-4h3.9v6.5H52.8z"/>
	<path fill="#FFFFFF" d="M55,146.8h0.8v2.4h1.6c1.2,0,2.1,0.8,2.1,2c0,1.2-0.8,2-2.1,2H55V146.8z M57.2,152.5c0.9,0,1.4-0.5,1.4-1.3
		c0-0.8-0.5-1.3-1.4-1.3h-1.4v2.6H57.2z"/>
	<path fill="#FFFFFF" d="M64.8,153.3v-2.9h-3.5v2.9h-0.8v-6.5h0.8v2.8h3.5v-2.8h0.8v6.5H64.8z"/>
	<path fill="#FFFFFF" d="M70.5,151.4h-2.6l-0.6,1.8h-0.8l2.4-6.5h0.8l2.4,6.5h-0.8L70.5,151.4z M68.2,150.7h2.1l-1-2.9h0L68.2,150.7
		z"/>
	<path fill="#FFFFFF" d="M74.7,150c0-1.6,1.1-2.6,2.9-2.7v-0.6h0.8v0.6c1.7,0,2.8,1.1,2.8,2.7c0,1.6-1.1,2.6-2.8,2.7v0.7h-0.8v-0.7
		C75.8,152.6,74.7,151.6,74.7,150z M77.6,148.1c-1.3,0-2,0.8-2,1.9c0,1.2,0.8,1.9,2,1.9V148.1z M78.4,148.1v3.9c1.3,0,2-0.8,2-1.9
		C80.4,148.9,79.6,148.1,78.4,148.1z"/>
	<path fill="#FFFFFF" d="M82.3,153.3v-6.5h0.8v6.5H82.3z"/>
	<path fill="#FFFFFF" d="M88.8,153.3v-2.9h-3.5v2.9h-0.8v-6.5h0.8v2.8h3.5v-2.8h0.8v6.5H88.8z"/>
	<path fill="#FFFFFF" d="M94.5,151.4h-2.6l-0.6,1.8h-0.8l2.4-6.5h0.8l2.4,6.5h-0.8L94.5,151.4z M92.2,150.7h2.1l-1-2.9h0L92.2,150.7
		z"/>
	<path fill="#FFFFFF" d="M101.2,153.3v-2.9h-3.5v2.9h-0.8v-6.5h0.8v2.8h3.5v-2.8h0.8v6.5H101.2z"/>
	<path fill="#FFFFFF" d="M103.1,150c0-2,1.1-3.3,2.9-3.3c1.4,0,2.4,0.8,2.7,2.1h-0.8c-0.2-0.8-1-1.3-1.8-1.3c-1.3,0-2.1,1-2.1,2.6
		c0,1.6,0.8,2.6,2.1,2.6c0.9,0,1.6-0.4,1.8-1.2h0.8c-0.3,1.2-1.3,1.9-2.7,1.9C104.2,153.4,103.1,152.1,103.1,150z"/>
	<path fill="#FFFFFF" d="M115.4,150c0,2-1.1,3.3-3,3.3c-1.8,0-3-1.3-3-3.3s1.1-3.3,3-3.3C114.2,146.7,115.4,148,115.4,150z
		 M110.2,150c0,1.6,0.8,2.6,2.1,2.6c1.3,0,2.1-1,2.1-2.6c0-1.6-0.8-2.6-2.1-2.6C111.1,147.4,110.2,148.4,110.2,150z"/>
	<path fill="#FFFFFF" d="M116.5,153.3v-6.5h2.5c1.1,0,1.9,0.6,1.9,1.6c0,0.7-0.5,1.3-1.1,1.4v0c0.9,0.1,1.4,0.7,1.4,1.6
		c0,1.1-0.8,1.8-2.2,1.8H116.5z M117.3,149.6h1.3c1,0,1.5-0.4,1.5-1.1c0-0.6-0.4-1-1.2-1h-1.5V149.6z M118.9,152.5
		c1,0,1.5-0.4,1.5-1.1c0-0.7-0.5-1.1-1.6-1.1h-1.5v2.3H118.9z"/>
	<path fill="#FFFFFF" d="M125.7,151.4h-2.6l-0.6,1.8h-0.8l2.4-6.5h0.8l2.4,6.5h-0.8L125.7,151.4z M123.4,150.7h2.1l-1-2.9h0
		L123.4,150.7z"/>
	<path fill="#FFFFFF" d="M134.2,153.3h-4v-6.5h4v0.7h-3.2v2.1h3v0.7h-3v2.2h3.2V153.3z"/>
	<path fill="#FFFFFF" d="M140.3,153.3h-1.1l-3-3.1h0v3.1h-0.8v-6.5h0.8v3h0l2.8-3h1l-2.9,3.1L140.3,153.3z"/>
	<path fill="#FFFFFF" d="M146.5,150c0,2-1.1,3.3-3,3.3c-1.8,0-3-1.3-3-3.3s1.1-3.3,3-3.3C145.4,146.7,146.5,148,146.5,150z
		 M141.4,150c0,1.6,0.8,2.6,2.1,2.6c1.3,0,2.1-1,2.1-2.6c0-1.6-0.8-2.6-2.1-2.6C142.3,147.4,141.4,148.4,141.4,150z"/>
	<path fill="#FFFFFF" d="M147.4,150c0-2,1.1-3.3,2.9-3.3c1.4,0,2.4,0.8,2.7,2.1h-0.8c-0.2-0.8-1-1.3-1.8-1.3c-1.3,0-2.1,1-2.1,2.6
		c0,1.6,0.8,2.6,2.1,2.6c0.9,0,1.6-0.4,1.8-1.2h0.8c-0.3,1.2-1.3,1.9-2.7,1.9C148.5,153.4,147.4,152.1,147.4,150z"/>
	<path fill="#FFFFFF" d="M158.4,148.1L158.4,148.1l-3.6,5.1H154v-6.5h0.8v5.2h0.1l3.5-5.2h0.8v6.5h-0.8V148.1z"/>
	<path fill="#FFFFFF" d="M160.3,150c0-2,1.1-3.3,2.9-3.3c1.4,0,2.4,0.8,2.7,2.1H165c-0.2-0.8-1-1.3-1.8-1.3c-1.3,0-2.1,1-2.1,2.6
		c0,1.6,0.8,2.6,2.1,2.6c0.9,0,1.6-0.4,1.8-1.2h0.8c-0.3,1.2-1.3,1.9-2.7,1.9C161.4,153.4,160.3,152.1,160.3,150z"/>
	<path fill="#FFFFFF" d="M168.2,153.3v-5.7h-2.1v-0.7h5v0.7H169v5.7H168.2z"/>
	<path fill="#FFFFFF" d="M176,153.3h-4v-6.5h4v0.7h-3.2v2.1h3v0.7h-3v2.2h3.2V153.3z"/>
	<path fill="#FFFFFF" d="M183.5,153.3h-0.8v-5h0l-2.1,4.9H180l-2.1-4.9h0v5h-0.8v-6.5h0.9l2.2,5.4h0l2.2-5.4h0.9V153.3z"/>
	<path fill="#FFFFFF" d="M188.4,151.4h-2.6l-0.6,1.8h-0.8l2.4-6.5h0.8l2.4,6.5h-0.8L188.4,151.4z M186.1,150.7h2.1l-1-2.9h0
		L186.1,150.7z"/>
</g>
</svg>
