<?xml version="1.0" encoding="utf-8"?>
<!-- Generator: Adobe Illustrator 18.1.0, SVG Export Plug-In . SVG Version: 6.00 Build 0)  -->
<svg version="1.1" id="Layer_1" xmlns="http://www.w3.org/2000/svg" xmlns:xlink="http://www.w3.org/1999/xlink" x="0px" y="0px"
	 viewBox="0 0 200 200" enable-background="new 0 0 200 200" xml:space="preserve">
<g>
	<path fill="#FFFFFF" d="M117.6,105.1H82.7c-8.1,0-14.6-6.6-14.6-14.6V55.6c0-8,6.6-14.6,14.6-14.6h34.9c8.1,0,14.6,6.5,14.6,14.6
		v29.7c0,0.9-0.5,1.7-1.2,2.1c-0.8,0.4-1.7,0.3-2.4-0.1L92.4,63v26h-2V62.9c0-0.8,0.4-1.4,1.1-1.7s1.4-0.2,2,0.2l36.2,24.3
		c0.1,0.1,0.3,0.1,0.4,0s0.2-0.2,0.2-0.3V55.7c0-7-5.7-12.6-12.6-12.6h-35c-6.9,0-12.6,5.7-12.6,12.6v34.8c0,6.9,5.7,12.6,12.6,12.6
		h34.9c5.6,0,10.5-3.7,12.1-9.1l1.9,0.6C129.8,100.8,124.1,105.1,117.6,105.1z"/>
</g>
<g>
	<path fill="#FFFFFF" d="M11.3,139.2v-15.5h1.4l9.1,12.9H22v-12.9h1.5v15.5H22l-9.1-12.9h-0.1v12.9L11.3,139.2L11.3,139.2z"/>
	<path fill="#FFFFFF" d="M35.6,139.2h-9.3v-15.5h9.3v1.3h-7.9v5.6h7.5v1.3h-7.5v5.9h7.9C35.6,137.9,35.6,139.2,35.6,139.2z"/>
	<path fill="#FFFFFF" d="M42.2,139.2V125H37v-1.3h11.9v1.3h-5.2v14.1L42.2,139.2L42.2,139.2z"/>
	<path fill="#FFFFFF" d="M63.2,131.4c0,4.9-2.7,8-7,8s-7-3.1-7-8s2.7-8,7-8S63.2,126.6,63.2,131.4z M50.6,131.4
		c0,4.1,2.2,6.6,5.5,6.6c3.4,0,5.5-2.6,5.5-6.6c0-4.1-2.2-6.7-5.5-6.7S50.6,127.3,50.6,131.4z"/>
	<path fill="#FFFFFF" d="M71,123.7c2.9,0,4.9,1.9,4.9,4.8c0,2.9-2.1,4.9-5,4.9h-4.1v5.9h-1.4v-15.5L71,123.7L71,123.7z M66.9,132.1
		h3.7c2.4,0,3.8-1.3,3.8-3.5s-1.4-3.5-3.8-3.5h-3.7V132.1z"/>
	<path fill="#FFFFFF" d="M85.2,134.4h-6.5l-1.7,4.8h-1.6l5.8-15.5h1.4l5.8,15.5H87L85.2,134.4z M79.2,133.1h5.7l-2.8-7.7H82
		L79.2,133.1z"/>
	<path fill="#FFFFFF" d="M92.6,139.2v-6.7l-5.6-8.8h1.7l4.6,7.4h0.1l4.6-7.3h1.7l-5.6,8.8v6.7L92.6,139.2L92.6,139.2z"/>
	<path fill="#FFFFFF" d="M106.2,139.2v-15.5h9.2v1.3h-7.8v5.8h7.1v1.3h-7.1v7.1L106.2,139.2L106.2,139.2z"/>
	<path fill="#FFFFFF" d="M117.6,139.2v-15.5h1.4v15.5H117.6z"/>
	<path fill="#FFFFFF" d="M121.9,139.2v-15.5h1.4l9.1,12.9h0.1v-12.9h1.4v15.5h-1.4l-9.1-12.9h-0.1v12.9L121.9,139.2L121.9,139.2z"/>
	<path fill="#FFFFFF" d="M145.4,134.4h-6.5l-1.7,4.8h-1.6l5.8-15.5h1.4l5.8,15.5H147L145.4,134.4z M139.4,133.1h5.6l-2.8-7.7h-0.1
		L139.4,133.1z"/>
	<path fill="#FFFFFF" d="M150.4,139.2v-15.5h1.4l9.1,12.9h0.1v-12.9h1.4v15.5H161l-9.1-12.9h-0.1v12.9L150.4,139.2L150.4,139.2z"/>
	<path fill="#FFFFFF" d="M164.8,131.4c0-4.8,2.7-7.9,6.9-7.9c3.3,0,5.9,2.2,6.3,5.1h-1.4c-0.4-2.2-2.4-3.8-4.8-3.8
		c-3.3,0-5.4,2.6-5.4,6.6c0,4.1,2.1,6.6,5.4,6.6c2.4,0,4.4-1.3,4.8-3.4h1.4c-0.6,3-2.9,4.9-6.3,4.9
		C167.4,139.4,164.8,136.3,164.8,131.4z"/>
	<path fill="#FFFFFF" d="M189.4,139.2H180v-15.5h9.4v1.3h-7.9v5.6h7.5v1.3h-7.5v5.9h7.9V139.2z"/>
</g>
<text transform="matrix(1 0 0 1 208.6499 153.181)" font-family="'SFUIDisplay-Medium'" font-size="9">РЕГІОНАЛЬНА ФІНАНСОВА ЕКОСИСТЕМА</text>
<g>
	<path fill="#FFFFFF" d="M14.1,147.5c1.1,0,1.9,0.8,1.9,1.9c0,1.1-0.8,1.9-1.9,1.9h-1.3v1.9h-0.9v-5.6H14.1z M12.7,150.5h1.1
		c0.8,0,1.2-0.4,1.2-1.1s-0.4-1.1-1.2-1.1h-1.1V150.5z"/>
	<path fill="#FFFFFF" d="M20.4,153.2h-3.6v-5.6h3.6v0.8h-2.7v1.6h2.6v0.7h-2.6v1.8h2.7V153.2z"/>
	<path fill="#FFFFFF" d="M21.4,153.2v-5.6h3.4v0.8h-2.6v4.9H21.4z"/>
	<path fill="#FFFFFF" d="M29.4,148.9L29.4,148.9l-2.9,4.2h-0.9v-5.6h0.9v4.3h0.1l2.9-4.3h0.9v5.6h-0.9V148.9z"/>
	<path fill="#FFFFFF" d="M36.5,150.4c0,1.8-1,2.9-2.6,2.9c-1.6,0-2.6-1.1-2.6-2.9s1-2.9,2.6-2.9C35.5,147.5,36.5,148.6,36.5,150.4z
		 M32.1,150.4c0,1.3,0.7,2.1,1.7,2.1s1.7-0.8,1.7-2.1c0-1.3-0.7-2.1-1.7-2.1S32.1,149,32.1,150.4z"/>
	<path fill="#FFFFFF" d="M41.2,153.2v-2.5h-2.9v2.5h-0.9v-5.6h0.9v2.4h2.9v-2.4h0.9v5.6H41.2z"/>
	<path fill="#FFFFFF" d="M46.4,151.7h-2.1l-0.5,1.5h-0.9l2-5.6h0.9l2,5.6h-0.9L46.4,151.7z M44.4,151h1.7l-0.8-2.5h0L44.4,151z"/>
	<path fill="#FFFFFF" d="M52.1,153.2v-4.9h-1.9L50,151c-0.1,1.5-0.5,2.2-1.5,2.2c-0.1,0-0.3,0-0.3,0v-0.8c0,0,0.2,0,0.2,0
		c0.5,0,0.7-0.4,0.8-1.4l0.2-3.4h3.6v5.6H52.1z"/>
	<path fill="#FFFFFF" d="M54.1,147.5H55v2h1.3c1.1,0,1.9,0.7,1.9,1.8s-0.8,1.8-1.9,1.8h-2.2V147.5z M56,152.4c0.8,0,1.2-0.4,1.2-1.1
		c0-0.7-0.4-1.1-1.2-1.1H55v2.1H56z"/>
	<path fill="#FFFFFF" d="M62.7,153.2v-2.5h-2.9v2.5H59v-5.6h0.9v2.4h2.9v-2.4h0.9v5.6H62.7z"/>
	<path fill="#FFFFFF" d="M67.9,151.7h-2.1l-0.5,1.5h-0.9l2-5.6h0.9l2,5.6h-0.9L67.9,151.7z M66,151h1.7l-0.8-2.5h0L66,151z"/>
	<path fill="#FFFFFF" d="M70.7,153.2h-1l1.6-2.2c-0.8-0.2-1.3-0.8-1.3-1.6c0-1,0.8-1.8,1.9-1.8h2.2v5.6h-0.9v-2.1h-1L70.7,153.2z
		 M73.2,148.3h-1.1c-0.7,0-1.2,0.4-1.2,1c0,0.7,0.4,1,1.2,1h1.1V148.3z"/>
	<path fill="#FFFFFF" d="M76.8,150.3c0-1.4,1-2.3,2.5-2.3v-0.6h0.9v0.6c1.5,0,2.5,0.9,2.5,2.3c0,1.4-1,2.3-2.5,2.3v0.6h-0.9v-0.6
		C77.8,152.6,76.8,151.8,76.8,150.3z M79.3,148.8c-1,0-1.7,0.6-1.7,1.6c0,1,0.6,1.6,1.7,1.6V148.8z M80.2,148.8v3.2
		c1,0,1.7-0.6,1.7-1.6C81.8,149.4,81.2,148.8,80.2,148.8z"/>
	<path fill="#FFFFFF" d="M87.4,148.9L87.4,148.9l-2.9,4.2h-0.9v-5.6h0.9v4.3h0.1l2.9-4.3h0.9v5.6h-0.9V148.9z"/>
	<path fill="#FFFFFF" d="M93.2,153.2v-2.5h-2.9v2.5h-0.9v-5.6h0.9v2.4h2.9v-2.4h0.9v5.6H93.2z"/>
	<path fill="#FFFFFF" d="M98.4,151.7h-2.1l-0.5,1.5h-0.9l2-5.6h0.9l2,5.6h-0.9L98.4,151.7z M96.4,151h1.7l-0.8-2.5h0L96.4,151z"/>
	<path fill="#FFFFFF" d="M104.3,153.2v-2.5h-2.9v2.5h-0.9v-5.6h0.9v2.4h2.9v-2.4h0.9v5.6H104.3z"/>
	<path fill="#FFFFFF" d="M106.1,150.4c0-1.8,1-2.9,2.6-2.9c1.2,0,2.2,0.8,2.4,1.9h-0.9c-0.2-0.7-0.8-1.1-1.5-1.1
		c-1,0-1.7,0.8-1.7,2.1c0,1.3,0.7,2.1,1.7,2.1c0.8,0,1.3-0.4,1.5-1h0.9c-0.2,1.1-1.1,1.8-2.4,1.8
		C107.1,153.3,106.1,152.2,106.1,150.4z"/>
	<path fill="#FFFFFF" d="M117,150.4c0,1.8-1,2.9-2.6,2.9c-1.6,0-2.6-1.1-2.6-2.9s1-2.9,2.6-2.9C116,147.5,117,148.6,117,150.4z
		 M112.6,150.4c0,1.3,0.7,2.1,1.7,2.1s1.7-0.8,1.7-2.1c0-1.3-0.7-2.1-1.7-2.1S112.6,149,112.6,150.4z"/>
	<path fill="#FFFFFF" d="M117.9,153.2v-5.6h2.3c1,0,1.7,0.6,1.7,1.4c0,0.6-0.4,1.1-1,1.2v0c0.8,0.1,1.3,0.6,1.3,1.4
		c0,1-0.7,1.6-1.9,1.6H117.9z M118.8,149.9h1c0.8,0,1.2-0.3,1.2-0.9c0-0.5-0.4-0.8-1-0.8h-1.2V149.9z M120.1,152.5
		c0.8,0,1.2-0.3,1.2-0.9s-0.4-0.9-1.3-0.9h-1.2v1.9H120.1z"/>
	<path fill="#FFFFFF" d="M126.1,151.7H124l-0.5,1.5h-0.9l2-5.6h0.9l2,5.6h-0.9L126.1,151.7z M124.2,151h1.7l-0.8-2.5h0L124.2,151z"
		/>
	<path fill="#FFFFFF" d="M128.9,153.2h-1l1.6-2.2c-0.8-0.2-1.3-0.8-1.3-1.6c0-1,0.8-1.8,1.9-1.8h2.2v5.6h-0.9v-2.1h-1L128.9,153.2z
		 M131.4,148.3h-1.1c-0.7,0-1.2,0.4-1.2,1c0,0.7,0.4,1,1.2,1h1.1V148.3z"/>
	<path fill="#FFFFFF" d="M135,151.5h0.9c0.2,0.6,0.8,1,1.5,1c0.9,0,1.6-0.7,1.7-1.8h-2.4v-0.7h2.4c-0.1-1.1-0.7-1.7-1.6-1.7
		c-0.7,0-1.3,0.4-1.5,1.1H135c0.2-1.1,1.2-1.9,2.4-1.9c1.6,0,2.6,1.1,2.6,2.9c0,1.8-1,2.9-2.6,2.9
		C136.2,153.3,135.3,152.6,135,151.5z"/>
	<path fill="#FFFFFF" d="M145.4,153.2h-1.1l-2.4-2.6h0v2.6h-0.9v-5.6h0.9v2.5h0l2.3-2.5h1l-2.5,2.7L145.4,153.2z"/>
	<path fill="#FFFFFF" d="M150.9,150.4c0,1.8-1,2.9-2.6,2.9c-1.6,0-2.6-1.1-2.6-2.9s1-2.9,2.6-2.9
		C149.9,147.5,150.9,148.6,150.9,150.4z M146.5,150.4c0,1.3,0.7,2.1,1.7,2.1s1.7-0.8,1.7-2.1c0-1.3-0.7-2.1-1.7-2.1
		S146.5,149,146.5,150.4z"/>
	<path fill="#FFFFFF" d="M151.6,150.4c0-1.8,1-2.9,2.6-2.9c1.2,0,2.2,0.8,2.4,1.9h-0.9c-0.2-0.7-0.8-1.1-1.5-1.1
		c-1,0-1.7,0.8-1.7,2.1c0,1.3,0.7,2.1,1.7,2.1c0.8,0,1.3-0.4,1.5-1h0.9c-0.2,1.1-1.1,1.8-2.4,1.8
		C152.6,153.3,151.6,152.2,151.6,150.4z"/>
	<path fill="#FFFFFF" d="M161.3,148.9L161.3,148.9l-2.9,4.2h-0.9v-5.6h0.9v4.3h0.1l2.9-4.3h0.9v5.6h-0.9V148.9z"/>
	<path fill="#FFFFFF" d="M163.1,150.4c0-1.8,1-2.9,2.6-2.9c1.2,0,2.2,0.8,2.4,1.9h-0.9c-0.2-0.7-0.8-1.1-1.5-1.1
		c-1,0-1.7,0.8-1.7,2.1c0,1.3,0.7,2.1,1.7,2.1c0.8,0,1.3-0.4,1.5-1h0.9c-0.2,1.1-1.1,1.8-2.4,1.8
		C164.1,153.3,163.1,152.2,163.1,150.4z"/>
	<path fill="#FFFFFF" d="M170.1,153.2v-4.9h-1.8v-0.8h4.4v0.8h-1.8v4.9H170.1z"/>
	<path fill="#FFFFFF" d="M177.1,153.2h-3.6v-5.6h3.6v0.8h-2.7v1.6h2.6v0.7h-2.6v1.8h2.7V153.2z"/>
	<path fill="#FFFFFF" d="M183.8,153.2H183V149h0l-1.7,4.1h-0.6l-1.7-4.1h0v4.1h-0.8v-5.6h1l1.8,4.4h0l1.8-4.4h1V153.2z"/>
	<path fill="#FFFFFF" d="M188.1,151.7h-2.1l-0.5,1.5h-0.9l2-5.6h0.9l2,5.6h-0.9L188.1,151.7z M186.2,151h1.7l-0.8-2.5h0L186.2,151z"
		/>
</g>
</svg>
