<?xml version="1.0" encoding="utf-8"?>
<!-- Generator: Adobe Illustrator 18.1.0, SVG Export Plug-In . SVG Version: 6.00 Build 0)  -->
<svg version="1.1" id="Layer_1" xmlns="http://www.w3.org/2000/svg" xmlns:xlink="http://www.w3.org/1999/xlink" x="0px" y="0px"
	 viewBox="0 0 400 400" enable-background="new 0 0 400 400" xml:space="preserve">
<circle fill="#FF5055" cx="199.5" cy="200.5" r="130"/>
<path opacity="0.27" fill="none" stroke="#F2F2F2" stroke-width="7" stroke-miterlimit="10" d="M636.9,180.5
	c-5.9,19.9-24.3,34.3-46,34.3H468c-26.5,0-48-21.5-48-48V43.9c0-26.5,21.5-48,48-48h122.9c26.5,0,48,21.5,48,48v104.6
	c0,3.8-4.3,6.1-7.5,4L503.9,66.9c-2.1-1.6-5.1,0-5.1,2.6v92.2"/>
<g>
	<g>
		<path fill="#3A0156" d="M481.3,433.5v-68.9h22c21.4,0,34.8,15.6,34.8,34.5c0,19.1-13.4,34.4-34.8,34.4H481.3z M531.9,399.1
			c0-16.1-10.3-29.1-28.6-29.1h-16.1v58.1h16.1C521.5,428.2,531.9,415.3,531.9,399.1z"/>
	</g>
	<g>
		<path fill="#3A0156" d="M548.7,434.5v-45.7h5.7v45.7H548.7z"/>
		<path fill="#3A0156" d="M563.2,411.6c0-14.2,10.5-23.7,23.5-23.7c8.1,0,13.7,3.6,17.8,8.6l-4.5,2.8c-2.9-3.7-7.7-6.3-13.2-6.3
			c-10,0-17.6,7.7-17.6,18.6c0,10.8,7.6,18.7,17.6,18.7c5.5,0,10-2.7,12.3-4.9V416h-15.7v-5.1h21.4v16.5c-4.3,4.7-10.5,7.9-18,7.9
			C573.7,435.3,563.2,425.8,563.2,411.6z"/>
		<path fill="#3A0156" d="M614,434.5v-45.7h5.7v45.7H614z"/>
		<path fill="#3A0156" d="M641.7,434.5v-40.7h-14.5v-5.1h34.7v5.1h-14.5v40.7H641.7z"/>
		<path fill="#3A0156" d="M697.5,434.5l-4-10.2h-22.8l-4,10.2h-6.5l18.4-45.7h7.1l18.4,45.7H697.5z M682.1,394.6l-9.7,24.6h19.4
			L682.1,394.6z"/>
		<path fill="#3A0156" d="M710,434.5v-45.7h5.7v40.7h21.3v5.1H710z"/>
	</g>
</g>
<g>
	<path fill="#FCBD06" d="M588.3,108.2c0-17.9,13-30,29.4-30c9.2,0,16.2,4.1,21.2,10.3l-4.2,2.7c-3.7-5.1-10-8.4-17-8.4
		c-13.7,0-24.2,10.4-24.2,25.5c0,15,10.5,25.5,24.2,25.5c7,0,13.3-3.4,17-8.4l4.2,2.6c-5.1,6.4-11.9,10.4-21.2,10.4
		C601.3,138.3,588.3,126.1,588.3,108.2z"/>
</g>
<g>
	<path fill="#FCBD06" d="M644.8,118c0-11.4,7.7-20,19.1-20c11.4,0,19.1,8.6,19.1,20c0,11.4-7.7,20-19.1,20
		C652.5,137.9,644.8,129.3,644.8,118z M678.1,118c0-9-5.6-15.7-14.2-15.7c-8.7,0-14.2,6.7-14.2,15.7c0,9,5.5,15.7,14.2,15.7
		C672.6,133.6,678.1,126.9,678.1,118z"/>
	<path fill="#FCBD06" d="M690.6,122.2V98.6h4.8v23.5c0,7.1,3.8,11.5,10.9,11.5c7.1,0,10.9-4.5,10.9-11.5V98.6h4.8v23.5
		c0,9.6-5.3,15.7-15.7,15.7C695.9,137.9,690.6,131.7,690.6,122.2z"/>
	<path fill="#FCBD06" d="M758.4,137.2l-22.5-30.8v30.8h-4.8V98.6h4.9l22.2,30.1V98.6h4.8v38.6H758.4z"/>
	<path fill="#FCBD06" d="M781.6,137.2v-34.3h-12.2v-4.3h29.3v4.3h-12.3v34.3H781.6z"/>
	<path fill="#FCBD06" d="M827.4,137.2l-9.8-15.3h-7.7v15.3H805V98.6h15.5c7.1,0,12.1,4.5,12.1,11.6c0,6.9-4.7,10.8-10,11.2
		l10.4,15.7H827.4z M827.7,110.3c0-4.3-3.1-7.3-7.7-7.3h-10.1v14.7H820C824.5,117.7,827.7,114.6,827.7,110.3z"/>
	<path fill="#FCBD06" d="M850.5,137.2v-16.3l-15.2-22.3h5.6l12,17.9l12-17.9h5.6l-15.2,22.3v16.3H850.5z"/>
</g>
<g>
	<g>
		<path fill="#FFFFFF" d="M126.3,200.4c0-12,8.7-20.2,19.7-20.2c6.2,0,10.9,2.7,14.2,6.9l-2.8,1.8c-2.5-3.4-6.7-5.7-11.4-5.7
			c-9.2,0-16.2,7-16.2,17.1c0,10,7.1,17.1,16.2,17.1c4.7,0,8.9-2.3,11.4-5.7l2.8,1.8c-3.4,4.3-8,7-14.2,7
			C135,220.6,126.3,212.4,126.3,200.4z"/>
	</g>
	<g>
		<path fill="#FFFFFF" d="M180.2,219.8l-6.6-10.3h-5.2v10.3h-3.2V194h10.4c4.7,0,8.1,3,8.1,7.8c0,4.7-3.2,7.2-6.7,7.5l7,10.6H180.2z
			 M180.4,201.8c0-2.9-2.1-4.9-5.2-4.9h-6.8v9.9h6.8C178.3,206.7,180.4,204.7,180.4,201.8z"/>
		<path fill="#FFFFFF" d="M188.8,219.8V194h17v2.9H192v8.3h13.5v2.9H192v8.9h13.7v2.9H188.8z"/>
		<path fill="#FFFFFF" d="M210.9,219.8V194h8.8c8,0,13.3,5.6,13.3,13c0,7.4-5.2,12.9-13.3,12.9H210.9z M229.7,206.9
			c0-5.6-3.5-10.1-9.9-10.1h-5.6V217h5.6C226,217,229.7,212.5,229.7,206.9z"/>
		<path fill="#FFFFFF" d="M238.1,219.8V194h3.2v25.9H238.1z"/>
		<path fill="#FFFFFF" d="M253.7,219.8v-23h-8.2V194h19.6v2.9H257v23H253.7z"/>
	</g>
</g>
<g>
	<path fill="#DD0056" d="M464.3,343.5v-65.8h5.6v60.7h31.9v5.1H464.3z"/>
</g>
<g>
	<g>
		<path fill="#DD0056" d="M506,321.6c0-12.9,8.7-22.6,21.7-22.6c12.9,0,21.7,9.7,21.7,22.6c0,12.9-8.8,22.6-21.7,22.6
			C514.7,344.2,506,334.5,506,321.6z M543.7,321.6c0-10.2-6.3-17.8-16.1-17.8c-9.8,0-16.1,7.5-16.1,17.8c0,10.2,6.2,17.8,16.1,17.8
			C537.4,339.4,543.7,331.8,543.7,321.6z"/>
		<path fill="#DD0056" d="M586.7,343.5l-3.9-9.7h-21.8l-3.9,9.7H551l17.6-43.7h6.8l17.6,43.7H586.7z M571.9,305.4l-9.3,23.5h18.6
			L571.9,305.4z"/>
		<path fill="#DD0056" d="M629.6,343.5l-25.5-34.9v34.9h-5.4v-43.7h5.6l25.2,34.2v-34.2h5.4v43.7H629.6z"/>
		<path fill="#DD0056" d="M642.4,337.3l3.2-4.1c2.9,3.2,7.6,6.2,13.8,6.2c7.8,0,10.3-4.2,10.3-7.5c0-11.3-25.9-5-25.9-20.6
			c0-7.2,6.4-12.1,15-12.1c6.7,0,11.9,2.2,15.5,6.1l-3.3,4c-3.3-3.6-7.9-5.2-12.7-5.2c-5.2,0-9,2.8-9,6.9c0,9.8,25.9,4.2,25.9,20.5
			c0,6.4-4.3,12.8-16.1,12.8C651.6,344.2,646,341.4,642.4,337.3z"/>
	</g>
</g>
<g>
	<path fill="#F6913C" d="M590.5-16.6v-58.1h36.8v4.5h-31.9v21.5h31.3v4.5h-31.3v23h31.9v4.5H590.5z"/>
</g>
<g>
	<path fill="#F6913C" d="M664.3-16.5L651.9-33l-12.3,16.4h-5.8l15-19.8l-14.2-18.8h5.8l11.5,15.4l11.4-15.4h5.8l-14.1,18.7l15,19.8
		H664.3z"/>
	<path fill="#F6913C" d="M675.3-16.5v-38.6h15.5c7.7,0,12.1,5.3,12.1,11.6c0,6.3-4.5,11.6-12.1,11.6h-10.7v15.3H675.3z M697.9-43.5
		c0-4.3-3.1-7.3-7.7-7.3h-10.1v14.7h10.1C694.8-36.1,697.9-39.1,697.9-43.5z"/>
	<path fill="#F6913C" d="M731.6-16.5l-9.8-15.3h-7.7v15.3h-4.8v-38.6h15.5c7.1,0,12.1,4.5,12.1,11.6c0,6.9-4.7,10.8-10,11.2
		l10.4,15.7H731.6z M731.9-43.5c0-4.3-3.1-7.3-7.7-7.3h-10.1v14.7h10.1C728.7-36.1,731.9-39.1,731.9-43.5z"/>
	<path fill="#F6913C" d="M744.4-16.5v-38.6h25.3v4.3h-20.5v12.4h20.1v4.3h-20.1v13.3h20.5v4.3H744.4z"/>
	<path fill="#F6913C" d="M775-22l2.8-3.6c2.5,2.8,6.7,5.5,12.1,5.5c6.9,0,9.1-3.7,9.1-6.7c0-9.9-22.8-4.5-22.8-18.2
		c0-6.4,5.7-10.7,13.2-10.7c5.9,0,10.5,2,13.7,5.4l-2.9,3.5c-2.9-3.2-6.9-4.6-11.2-4.6c-4.6,0-7.9,2.5-7.9,6.1
		c0,8.7,22.8,3.7,22.8,18.1c0,5.6-3.8,11.3-14.2,11.3C783.1-15.8,778.2-18.4,775-22z"/>
	<path fill="#F6913C" d="M808.9-22l2.8-3.6c2.5,2.8,6.7,5.5,12.1,5.5c6.9,0,9.1-3.7,9.1-6.7c0-9.9-22.8-4.5-22.8-18.2
		c0-6.4,5.7-10.7,13.2-10.7c5.9,0,10.5,2,13.7,5.4l-2.9,3.5c-2.9-3.2-6.9-4.6-11.2-4.6c-4.6,0-7.9,2.5-7.9,6.1
		c0,8.7,22.8,3.7,22.8,18.1c0,5.6-3.8,11.3-14.2,11.3C817-15.8,812.1-18.4,808.9-22z"/>
</g>
<g>
	<g>
		<path fill="#A5C14D" d="M586.2,537.1c0-17.9,13.1-30,29.4-30c9.6,0,16.5,3.8,21.9,9.9l-3.7,2.7c-4.1-4.9-10.7-8.1-18.1-8.1
			c-13.7,0-24.2,10.4-24.2,25.5c0,15,10.5,25.6,24.2,25.6c7.7,0,13.8-3.8,17.1-7.1v-13.9h-21.9v-4.4h26.9v20.3
			c-5.1,5.7-12.9,9.7-22,9.7C599.4,567.2,586.2,555,586.2,537.1z"/>
	</g>
	<g>
		<path fill="#A5C14D" d="M647.2,566v-38.6h4.8V566H647.2z"/>
		<path fill="#A5C14D" d="M661.1,566v-38.6h25.3v4.3h-20.5v12.4h20.1v4.3h-20.1V566H661.1z"/>
		<path fill="#A5C14D" d="M702.4,566v-34.3h-12.2v-4.3h29.3v4.3h-12.3V566H702.4z"/>
	</g>
</g>
<g>
	<path fill="#FF5055" d="M798,284.1l2.8-3.6c2.5,2.8,6.6,5.4,12,5.4c6.8,0,8.9-3.6,8.9-6.5c0-9.8-22.5-4.4-22.5-17.9
		c0-6.3,5.6-10.5,13-10.5c5.8,0,10.3,1.9,13.5,5.3l-2.8,3.5c-2.8-3.1-6.8-4.6-11-4.6c-4.6,0-7.8,2.4-7.8,6c0,8.5,22.5,3.6,22.5,17.8
		c0,5.5-3.8,11.2-14,11.2C805.9,290.2,801.1,287.7,798,284.1z"/>
</g>
<g>
	<g>
		<path fill="#00B050" d="M591,205.6v-57.1h36.2v4.5h-31.4v21.2h25.9l-0.3,4.4l-25.6,0v27.1H591z"/>
	</g>
	<g>
		<path fill="#00B050" d="M632.3,205.6v-38.7h4.8v38.7H632.3z"/>
		<path fill="#00B050" d="M673.6,205.6L651,174.8v30.9h-4.8v-38.7h4.9l22.3,30.2v-30.2h4.8v38.7H673.6z"/>
		<path fill="#00B050" d="M714.9,205.6l-3.4-8.6h-19.3l-3.4,8.6h-5.5l15.5-38.7h6l15.6,38.7H714.9z M701.8,171.9l-8.2,20.8H710
			L701.8,171.9z"/>
		<path fill="#00B050" d="M752.8,205.6l-22.6-30.9v30.9h-4.8v-38.7h4.9l22.3,30.2v-30.2h4.8v38.7H752.8z"/>
		<path fill="#00B050" d="M764.9,186.3c0-11.9,8.8-20,19.9-20c6.8,0,11.6,3.3,14.7,7.7l-4.1,2.3c-2.2-3.2-6.2-5.6-10.6-5.6
			c-8.5,0-14.9,6.5-14.9,15.7c0,9.2,6.4,15.7,14.9,15.7c4.4,0,8.4-2.3,10.6-5.6l4.1,2.3c-3.2,4.4-7.9,7.7-14.7,7.7
			C773.7,206.3,764.9,198.2,764.9,186.3z"/>
		<path fill="#00B050" d="M805.7,205.6v-38.7H831v4.3h-20.5v12.5h20.1v4.3h-20.1v13.3H831v4.3H805.7z"/>
	</g>
</g>
</svg>
