<?xml version="1.0" encoding="utf-8"?>
<!-- Generator: Adobe Illustrator 18.1.0, SVG Export Plug-In . SVG Version: 6.00 Build 0)  -->
<svg version="1.1" id="Layer_1" xmlns="http://www.w3.org/2000/svg" xmlns:xlink="http://www.w3.org/1999/xlink" x="0px" y="0px"
	 viewBox="0 0 300 60" enable-background="new 0 0 300 60" xml:space="preserve">
<path fill="#FFFFFF" d="M47.3,20.9c-1.2,0-1.9-0.7-1.9-2c0-1.2,0.7-2,1.9-2c0.9,0,1.6,0.5,1.7,1.3h-1c-0.1-0.3-0.4-0.5-0.8-0.5
	c-0.6,0-0.9,0.4-0.9,1.2c0,0.8,0.4,1.2,0.9,1.2c0.4,0,0.7-0.3,0.8-0.6l0-0.1h-0.7v-0.7h1.6v0.5C49.1,20.2,48.4,20.9,47.3,20.9z"/>
<path fill="#FFFFFF" d="M51.4,20h-1.3l-0.2,0.8h-1l1.3-3.8h1.2l1.3,3.8h-1L51.4,20z M50.4,19.3h0.9l-0.4-1.5h0L50.4,19.3z"/>
<path fill="#FFFFFF" d="M53.7,19.3c0,0.4,0.2,0.7,0.7,0.7c0.4,0,0.7-0.3,0.7-0.7V17h1v2.5c0,0.9-0.7,1.4-1.6,1.4
	c-1,0-1.6-0.6-1.6-1.4V17h1V19.3z"/>
<path fill="#FFFFFF" d="M57.1,19.7c0,0.3,0.3,0.4,0.7,0.4c0.4,0,0.6-0.2,0.6-0.4c0-0.2-0.2-0.3-0.6-0.4l-0.5-0.1
	c-0.7-0.1-1.1-0.5-1.1-1.1c0-0.7,0.6-1.2,1.5-1.2c1,0,1.5,0.5,1.5,1.2h-0.9c0-0.3-0.3-0.4-0.6-0.4c-0.3,0-0.6,0.2-0.6,0.4
	c0,0.2,0.2,0.3,0.6,0.4l0.5,0.1c0.8,0.1,1.1,0.5,1.1,1.1c0,0.8-0.6,1.2-1.6,1.2c-1,0-1.6-0.4-1.6-1.2H57.1z"/>
<path fill="#229FFF" d="M5,30C5,17.6,10.7,7.1,18.6,3c-11,3.4-19,14.2-19,27s8,23.6,19,27C10.7,52.9,5,42.3,5,30z"/>
<path fill="#229FFF" d="M48.5,15c-3.4-5-8.6-10-14.7-12c4.4,2.3,8,7,10.4,12H48.5z"/>
<path fill="#229FFF" d="M46.5,23c0.5,2,0.7,4.6,0.7,7.2c0,12.3-5.6,22.7-13.5,26.8C44.6,53.6,52.6,43,52.6,30.3
	c0-2.6-0.3-5.3-0.9-7.3H46.5z"/>
<g>
	<path fill="#229FFF" d="M120,49.9c-1,1.4-2.9,2.7-5.7,3.9c-2.8,1.2-6.3,1.8-10.4,1.8c-5.4,0-9.8-1.9-13.2-5.8
		c-3.4-3.9-5.1-8.9-5.1-15v-7.7c0-5.9,1.6-10.8,4.9-14.5C93.8,8.9,98,7,103.3,7c5,0,9,1.3,11.9,3.9c2.9,2.6,4.4,5.9,4.5,10l-0.1,0.2
		h-1.5c-0.2-3.7-1.5-6.6-4-8.9c-2.5-2.3-6.1-3.4-10.8-3.4c-4.8,0-8.6,1.7-11.6,5.1c-2.9,3.4-4.4,7.8-4.4,13.2v7.8
		c0,5.6,1.5,10.2,4.5,13.8c3,3.5,7,5.3,12,5.3c3.5,0,6.5-0.5,9.1-1.5c2.6-1,4.4-2.1,5.2-3.3V35.3h-14.5v-1.8H120V49.9z"/>
	<path fill="#229FFF" d="M157.2,40.9h-23.1L128.8,55h-1.9l17.7-47.3h2.1L164.5,55h-1.9L157.2,40.9z M134.8,39.1h21.8l-9.9-26.6
		l-0.9-2.7h-0.2l-0.9,2.7L134.8,39.1z"/>
	<path fill="#229FFF" d="M203.3,7.7v32.1c0,5.2-1.5,9.1-4.5,11.8s-6.9,4.1-11.7,4.1c-4.8,0-8.7-1.4-11.7-4.1
		c-3-2.7-4.5-6.7-4.5-11.8V7.7h1.8v32.1c0,4.4,1.3,7.9,4,10.4s6.2,3.8,10.4,3.8c4.2,0,7.7-1.3,10.4-3.8c2.7-2.5,4-6,4-10.4V7.7
		H203.3z"/>
	<path fill="#229FFF" d="M244.3,43.7c0-3-1.1-5.3-3.3-7.1c-2.2-1.8-6-3.4-11.3-4.9c-5.4-1.5-9.3-3.1-11.8-5s-3.8-4.6-3.8-8.1
		c0-3.5,1.5-6.3,4.4-8.4c2.9-2.1,6.7-3.2,11.3-3.2c4.6,0,8.4,1.3,11.3,3.9c2.9,2.6,4.3,5.9,4.3,9.9l-0.1,0.2h-1.5
		c0-3.5-1.3-6.5-3.9-8.8c-2.6-2.3-6-3.5-10.1-3.5c-4.3,0-7.7,1-10.2,2.9s-3.8,4.2-3.8,6.9c0,2.7,1,4.9,3.1,6.7
		c2.1,1.8,5.8,3.4,11.2,4.7c5.2,1.4,9.2,3.1,11.9,5.1c2.7,2,4,4.8,4,8.5c0,3.7-1.5,6.7-4.6,8.9c-3.1,2.2-6.9,3.2-11.5,3.2
		c-4.7,0-8.8-1.1-12.2-3.3c-3.4-2.2-5.1-5.7-5-10.5l0.1-0.2h1.5c0,4.3,1.6,7.4,4.7,9.3c3.2,1.9,6.8,2.9,10.9,2.9
		c4.2,0,7.6-1,10.3-2.9C242.9,49.2,244.3,46.7,244.3,43.7z"/>
</g>
<g>
	<path fill="#229FFF" d="M26,43.5c-6.8,0-11.3-5.3-11.3-13.2c0-8.1,4.6-13.5,11.4-13.5c7.3,0,10.9,6.3,10.9,12.4v1H15.7
		c0,6.3,3,12.6,10.3,12.6c5.5,0,9.1-4.2,9.6-8.8h1C35.9,39.2,32,43.5,26,43.5z M26,17.6c-6.5,0-10.1,5.5-10.3,11.5h20.2
		C35.9,23.4,32.8,17.6,26,17.6z"/>
</g>
</svg>
