<?xml version="1.0" encoding="utf-8"?>
<!-- Generator: Adobe Illustrator 18.1.0, SVG Export Plug-In . SVG Version: 6.00 Build 0)  -->
<svg version="1.1" id="Layer_1" xmlns="http://www.w3.org/2000/svg" xmlns:xlink="http://www.w3.org/1999/xlink" x="0px" y="0px"
	 viewBox="0 0 310 180" enable-background="new 0 0 310 180" xml:space="preserve">
<g>
	<g>
		<path fill="#FFFFFF" d="M129.5,105.1l-18.6-25.4v25.4h-2.5V75.5h2.6l18.5,25.1V75.5h2.5v29.6H129.5z"/>
	</g>
	<g>
		<path fill="#FFFFFF" d="M137.4,105.1V85.4h12.9v2.2h-10.4v6.3h10.2v2.2h-10.2v6.8h10.4v2.2H137.4z"/>
		<path fill="#FFFFFF" d="M159,105.1V87.6h-6.2v-2.2h14.9v2.2h-6.3v17.5H159z"/>
		<path fill="#FFFFFF" d="M169.4,95.2c0-5.8,3.9-10.2,9.8-10.2c5.8,0,9.8,4.4,9.8,10.2c0,5.8-4,10.2-9.8,10.2
			C173.3,105.4,169.4,101,169.4,95.2z M186.4,95.2c0-4.6-2.8-8-7.2-8c-4.4,0-7.2,3.4-7.2,8c0,4.6,2.8,8,7.2,8
			C183.5,103.2,186.4,99.8,186.4,95.2z"/>
		<path fill="#FFFFFF" d="M192.8,105.1V85.4h7.9c4,0,6.2,2.7,6.2,5.9c0,3.2-2.3,5.9-6.2,5.9h-5.5v7.8H192.8z M204.3,91.3
			c0-2.2-1.6-3.7-3.9-3.7h-5.2v7.5h5.2C202.7,95.1,204.3,93.5,204.3,91.3z"/>
		<path fill="#FFFFFF" d="M221.8,105.1l-1.7-4.4h-9.8l-1.7,4.4h-2.8l7.9-19.7h3l7.9,19.7H221.8z M215.2,87.9L211,98.5h8.4
			L215.2,87.9z"/>
		<path fill="#FFFFFF" d="M231.1,105.1v-8.3l-7.8-11.4h2.9l6.1,9.1l6.1-9.1h2.9l-7.7,11.4v8.3H231.1z"/>
	</g>
</g>
<path fill="none" stroke="#FFFFFF" stroke-width="2" stroke-miterlimit="10" d="M98.1,99.6c-0.7,2.5-3,4.3-5.8,4.3H76.9
	c-3.3,0-6-2.7-6-6V82.5c0-3.3,2.7-6,6-6h15.4c3.3,0,6,2.7,6,6v13.1c0,0.5-0.5,0.8-0.9,0.5l-16-10.7c-0.3-0.2-0.6,0-0.6,0.3v11.5"/>
<g>
	<g>
		<path fill="#0059B9" d="M107.2,216.6v-30h9.6c9.3,0,15.2,6.8,15.2,15c0,8.3-5.9,15-15.2,15H107.2z M129.3,201.6
			c0-7-4.5-12.7-12.5-12.7h-7v25.3h7C124.7,214.3,129.3,208.6,129.3,201.6z"/>
	</g>
	<g>
		<path fill="#0059B9" d="M136.6,217v-19.9h2.5V217H136.6z"/>
		<path fill="#0059B9" d="M142.9,207c0-6.2,4.6-10.3,10.3-10.3c3.5,0,6,1.6,7.7,3.7l-2,1.2c-1.3-1.6-3.4-2.8-5.8-2.8
			c-4.4,0-7.7,3.3-7.7,8.1c0,4.7,3.3,8.1,7.7,8.1c2.4,0,4.4-1.2,5.4-2.2V209h-6.8v-2.2h9.3v7.2c-1.9,2.1-4.6,3.4-7.8,3.4
			C147.5,217.4,142.9,213.2,142.9,207z"/>
		<path fill="#0059B9" d="M165,217v-19.9h2.5V217H165z"/>
		<path fill="#0059B9" d="M177.1,217v-17.7h-6.3v-2.2h15.1v2.2h-6.3V217H177.1z"/>
		<path fill="#0059B9" d="M201.4,217l-1.8-4.4h-9.9L188,217h-2.8l8-19.9h3.1l8,19.9H201.4z M194.7,199.6l-4.2,10.7h8.5L194.7,199.6z
			"/>
		<path fill="#0059B9" d="M206.9,217v-19.9h2.5v17.7h9.3v2.2H206.9z"/>
	</g>
</g>
</svg>
