<?xml version="1.0" encoding="utf-8"?>
<!-- Generator: Adobe Illustrator 18.1.0, SVG Export Plug-In . SVG Version: 6.00 Build 0)  -->
<svg version="1.1" id="Layer_1" xmlns="http://www.w3.org/2000/svg" xmlns:xlink="http://www.w3.org/1999/xlink" x="0px" y="0px"
	 viewBox="0 0 300 60" enable-background="new 0 0 300 60" xml:space="preserve">
<g>
	<path fill="#229FFF" d="M113.4,44c-0.8,1-2.2,2-4.3,3c-2.1,0.9-4.7,1.4-7.8,1.4c-4.1,0-7.4-1.5-9.9-4.4c-2.5-2.9-3.8-6.7-3.8-11.3
		v-5.8c0-4.5,1.2-8.1,3.7-10.9c2.5-2.8,5.7-4.2,9.6-4.2c3.8,0,6.8,1,9,2.9c2.2,2,3.3,4.5,3.4,7.6l0,0.1H112c-0.1-2.8-1.1-5-3-6.7
		c-1.9-1.7-4.6-2.6-8.2-2.6c-3.6,0-6.5,1.3-8.7,3.9c-2.2,2.6-3.3,5.9-3.3,9.9v5.9c0,4.2,1.1,7.7,3.4,10.4c2.3,2.7,5.3,4,9,4
		c2.6,0,4.9-0.4,6.9-1.2c2-0.8,3.3-1.6,4-2.5V33h-10.9v-1.3h12.2V44z"/>
	<path fill="#229FFF" d="M141.4,37.2H124l-4,10.6h-1.4l13.3-35.6h1.6l13.3,35.6h-1.4L141.4,37.2z M124.5,35.9h16.5l-7.5-20.1l-0.7-2
		h-0.1l-0.7,2L124.5,35.9z"/>
	<path fill="#229FFF" d="M176.2,12.2v24.2c0,3.9-1.1,6.9-3.4,8.9c-2.3,2.1-5.2,3.1-8.8,3.1c-3.6,0-6.6-1-8.8-3.1
		c-2.2-2.1-3.4-5-3.4-8.9V12.2h1.3v24.2c0,3.3,1,6,3,7.8s4.6,2.8,7.8,2.8c3.2,0,5.8-0.9,7.8-2.8c2-1.9,3-4.5,3-7.8V12.2H176.2z"/>
	<path fill="#229FFF" d="M207,39.3c0-2.2-0.8-4-2.5-5.4c-1.6-1.3-4.5-2.6-8.5-3.7c-4.1-1.1-7-2.3-8.9-3.7c-1.9-1.4-2.8-3.4-2.8-6.1
		c0-2.7,1.1-4.8,3.3-6.4c2.2-1.6,5.1-2.4,8.5-2.4c3.5,0,6.3,1,8.5,2.9c2.2,1.9,3.3,4.4,3.2,7.5l0,0.1h-1.1c0-2.7-1-4.9-2.9-6.6
		c-2-1.7-4.5-2.6-7.6-2.6c-3.2,0-5.8,0.7-7.7,2.2c-1.9,1.4-2.8,3.2-2.8,5.2c0,2,0.8,3.7,2.3,5c1.6,1.3,4.4,2.5,8.5,3.6
		c3.9,1,6.9,2.3,8.9,3.8c2,1.5,3,3.7,3,6.4c0,2.8-1.2,5-3.5,6.7c-2.3,1.6-5.2,2.4-8.6,2.4c-3.6,0-6.7-0.8-9.2-2.5
		c-2.6-1.7-3.8-4.3-3.7-7.9l0-0.1h1.1c0,3.2,1.2,5.6,3.6,7c2.4,1.5,5.1,2.2,8.2,2.2c3.1,0,5.7-0.7,7.7-2.2
		C206,43.4,207,41.6,207,39.3z"/>
</g>
</svg>
