<svg version="1.1" id="Layer_1" xmlns="http://www.w3.org/2000/svg" xmlns:xlink="http://www.w3.org/1999/xlink" x="0px" y="0px"
	 viewBox="0 0 300 60" enable-background="new 0 0 300 60" xml:space="preserve">
<g>
	<path fill="#FF2250" d="M37.2,50.8V11.2h3.7l23.3,33.1h0.2V11.2h3.7v39.7h-3.6L41.1,17.7h-0.2v33.2H37.2z"/>
	<path fill="#FF2250" d="M99.5,50.8h-24V11.2h24v3.4H79.3v14.3h19.2v3.4H79.3v15.2h20.2V50.8z"/>
	<path fill="#FF2250" d="M116.5,50.8V14.6h-13.3v-3.4h30.3v3.4h-13.3v36.3H116.5z"/>
	<path fill="#FF2250" d="M170.2,31c0,12.6-7,20.5-18,20.5c-11.1,0-18-7.9-18-20.5c0-12.6,7-20.5,18-20.5
		C163.2,10.5,170.2,18.4,170.2,31z M138,31c0,10.4,5.5,17,14.2,17c8.7,0,14.2-6.6,14.2-17c0-10.4-5.5-17-14.2-17
		C143.4,14,138,20.6,138,31z"/>
	<path fill="#FF2250" d="M190.1,11.2c7.6,0,12.7,5,12.7,12.4s-5.2,12.4-12.8,12.4h-10.3v15H176V11.2H190.1z M179.8,32.5h9.5
		c6.1,0,9.8-3.4,9.8-9s-3.6-9-9.8-9h-9.5V32.5z"/>
	<path fill="#FF2250" d="M226.7,38.7H210l-4.4,12.2h-4l14.9-39.7h3.7L235,50.8h-4L226.7,38.7z M211.1,35.4h14.4l-7.1-19.6h-0.2
		L211.1,35.4z"/>
	<path fill="#FF2250" d="M245.3,50.8V33.7l-14.2-22.5h4.3L247.1,30h0.1L259,11.2h4.3l-14.2,22.5v17.2H245.3z"/>
</g>
</svg>
