<?xml version="1.0" encoding="utf-8"?>
<!-- Generator: Adobe Illustrator 18.1.0, SVG Export Plug-In . SVG Version: 6.00 Build 0)  -->
<svg version="1.1" id="Layer_1" xmlns="http://www.w3.org/2000/svg" xmlns:xlink="http://www.w3.org/1999/xlink" x="0px" y="0px"
	 viewBox="0 0 850 180" enable-background="new 0 0 850 180" xml:space="preserve">
<g>
	<g>
		<path fill="#FFFFFF" d="M338,64.1c-4.9,36.6-10.3,72.4-15.2,108.6c-10.7,0-20.6,0-30.8,0c-12.1-25.5-24.1-50.9-36.2-76.9
			c-0.4,0-0.9,0-1.3,0c-4.5,25.5-7.1,50.9-11.2,76.9c-7.6,0-14.7,0-23.2,0c4.9-35.7,9.8-71.5,15.2-108.1c10.3,0,21,0,32.2,0
			c11.6,24.6,23.7,49.6,35.3,75.1c0.4,0,0.9,0,1.3,0c3.6-25,7.1-50,10.7-75.1C322.3,64.1,329.9,64.1,338,64.1z"/>
		<path fill="#FFFFFF" d="M470.7,63.7c10.3,0,20.1,0,30.8,0c-18.8,17-37.1,33.5-55.4,50.5c14.7,19.2,29,38.4,44.2,58.1
			c-11.2,0-21.9,0-33.1,0c-11.6-16.5-24.1-33.5-36.2-50c-0.4,0-0.9,0-1.3,0c-3.1,16.5-4.9,33.1-7.1,50c-8,0-15.6,0-23.2,0
			c4.9-36.2,9.8-72.4,15.2-108.1c8.5,0,15.6,0,23.2,0c-2.2,14.7-4,29-5.8,43.3c0.4,0.4,0.9,0.4,1.3,0.9
			C439,93.2,454.6,78.4,470.7,63.7z"/>
		<path fill="#FFFFFF" d="M754.5,84.3c-4,29.5-8,58.5-12.5,88c-7.6,0-14.7,0-23.2,0c4-29,8-58.1,12.1-87.6c-10.3,0-20.1,0-30.4,0
			c-1.3-7.1,2.2-13.9,1.3-21c28.6,0,56.8,0,85.8,0c0.9,6.7-2.2,13.4-1.8,20.6C775.5,84.3,765.6,84.3,754.5,84.3z"/>
		<path fill="#FFFFFF" d="M359.4,145.9c7.1,0,12.5,4.9,12.5,11.6c0,8.5-7.6,15.6-16.1,15.6c-7.1,0-11.6-4.5-11.6-11.6
			C344.2,152.6,350.5,145.9,359.4,145.9z"/>
		<path fill="#FFFFFF" d="M565,126.3c11.2-3.1,19.2-9.8,23.2-21c1.8-5.4,2.7-11.2,2.2-17c-0.4-8.9-4.5-15.6-12.5-19.7
			c-6.7-3.6-13.9-4.5-21-4.9c-13.4-0.4-27.3,0-40.7,0c-1.3,0-3.1-0.4-4,0.4c-4.9,36.2-10.3,72.4-15.2,108.1c8,0,15.6,0,23.2,0
			c2.2-14.7,4-29,6.3-43.3c4.5,0,7.1,0,12.1,0c5.4,14.3,11.6,29,17,43.8c9.4,0,18.3,0,28.2,0c-7.1-15.2-14.3-30.4-21-45.1
			C562.7,127.1,564.1,126.3,565,126.3z M559.6,106.6c-3.1,2.2-6.7,1.8-10.3,2.2c-6.3,0.9-13,0.4-20.1,0.4c0.9-8.9,1.8-17,4-25.9
			c9.4,0,17.9-1.3,26.4,1.8c3.6,1.3,6.7,4,6.7,8.5C566.8,99.4,564.1,103.5,559.6,106.6z"/>
		<path fill="#FFFFFF" d="M668.7,63.7c-6.7,0-12.5,0-19.2,0c-20.6,35.7-41.1,71.9-62.1,108.6c9.4,0,17.4,0,25.9,0
			c4-7.6,8-15.2,12.1-22.8c14.7,0,29,0,43.3,0c2.2,8,4,15.2,6.3,22.3c8.9,0,17.4,0,26.4,0C689.7,135.6,679.4,99.9,668.7,63.7z
			 M662,129.8c-8.5,0-17,0-26.8,0c6.3-11.6,11.6-22.3,17.4-33.1C655.3,98.6,662.4,124.9,662,129.8z"/>
	</g>
	<g>
		<path fill="#FFFFFF" d="M121.2,2c0.9-0.4,1.3,0.9,1.8,1.3c14.3,27.3,28.6,55,38.4,84.5c0.9,2.2,1.3,4.5,2.2,7.1
			c3.1,9.4,1.8,18.3-3.1,26.4c-15.6,25.9-35.7,45.6-65.2,55c-3.1,0.9-6.3,1.8-9.8,1.3C124.4,124.9,128.4,64.6,121.2,2z"/>
		<path fill="#FFFFFF" d="M111,111.1C99.8,84.7,81.5,63.7,62.7,43.1c1.3-0.4,2.7-0.4,4,0.4c15.6,6.7,31.3,13.9,46.5,21
			c2.7,1.3,4.5,3.1,4.5,6.3C117.7,84.3,116.3,97.7,111,111.1z"/>
		<path fill="#FFFFFF" d="M170.4,96.8c-3.6-8.9-6.7-17-9.8-25c-0.9-2.2,0.4-2.7,1.8-4c6.7-5.8,14.3-7.1,22.8-4.9
			c4.9,1.3,8.9,3.1,13.4,6.7C183.4,72.6,174.9,82,170.4,96.8z"/>
	</g>
</g>
</svg>
