<?xml version="1.0" encoding="utf-8"?>
<!-- Generator: Adobe Illustrator 18.1.0, SVG Export Plug-In . SVG Version: 6.00 Build 0)  -->
<svg version="1.1" id="Layer_1" xmlns="http://www.w3.org/2000/svg" xmlns:xlink="http://www.w3.org/1999/xlink" x="0px" y="0px"
	 viewBox="0 0 200 200" enable-background="new 0 0 200 200" xml:space="preserve">
<g>
	<g>
		<rect x="-880.8" y="102.6" fill="#FFFFFF" width="46.9" height="5.3"/>
	</g>
	<g>
		<rect x="-880.8" y="112.6" fill="#FFFFFF" width="46.9" height="5.3"/>
	</g>
	<g>
		<rect x="-880.8" y="122.5" fill="#FFFFFF" width="22.1" height="5.3"/>
	</g>
	<path fill="#FFFFFF" d="M-835,151.5l-9.7-9.7c-0.1-0.1-0.1-0.4,0-0.5l36.5-36.5c0.1-0.1,0.4-0.1,0.5,0l9.7,9.7
		c0.1,0.1,0.1,0.4,0,0.5l-36.5,36.5C-834.7,151.6-834.9,151.6-835,151.5z"/>
	<path fill="#FFFFFF" d="M-822.6,147l0,13.4h-15.2c-3.1,0-5.6,2.5-5.6,5.6v16.7l-49.3,0.1l-0.1-86.8l70.2-0.1l0,15.8l5.3-5.3V95.8
		c0-2.9-2.3-5.2-5.2-5.2h-70.4c-2.9,0-5.2,2.3-5.2,5.2v87c0,2.9,2.3,5.2,5.2,5.2h51.9c1.4,0,2.7-0.5,3.7-1.5l18.5-18.5
		c1-1,1.5-2.3,1.5-3.7v-22.6L-822.6,147z M-838,179.7l0.2-13.9h13.8L-838,179.7z"/>
	<path fill="#FFFFFF" d="M-835,151.5l-9.7-9.7c-0.1-0.1-0.1-0.4,0-0.5l36.5-36.5c0.1-0.1,0.4-0.1,0.5,0l9.7,9.7
		c0.1,0.1,0.1,0.4,0,0.5l-36.5,36.5C-834.7,151.6-834.9,151.6-835,151.5z"/>
	<path fill="#FFFFFF" d="M-835,151.5l-9.7-9.7c-0.1-0.1-0.1-0.4,0-0.5l36.5-36.5c0.1-0.1,0.4-0.1,0.5,0l9.7,9.7
		c0.1,0.1,0.1,0.4,0,0.5l-36.5,36.5C-834.7,151.6-834.9,151.6-835,151.5z"/>
	<path fill="#FFFFFF" d="M-846.7,144.4l-1.9,10c-0.1,0.6,0.4,1,0.9,0.9l10-1.9c0.6-0.1,0.9-0.9,0.4-1.4l-8-8
		C-845.8,143.5-846.5,143.7-846.7,144.4z"/>
	<path fill="#FFFFFF" d="M-806.2,65.3c-1.7,0-3.3,0.3-5,0.5c-8.9-20.1-29-34.2-52.4-34.2c-30.1,0-54.5,23.2-57,52.7
		c-17.3,1.1-31,15.3-31,32.9c0,18.3,14.8,33.1,33.1,33.1h17.8V93.5c0-3,2.5-5.5,5.5-5.5h75c3,0,5.5,2.5,5.5,5.5v13.9l3.5-3.5
		c0.9-0.9,2-1.3,3.2-1.3s2.3,0.5,3.2,1.3l7.6,7.6c0.9,0.9,1.3,2,1.3,3.2c0,1.2-0.5,2.3-1.3,3.2l-17.4,17.4v15h8.4
		c23.5,0,42.5-19,42.5-42.5C-763.7,84.3-782.8,65.3-806.2,65.3z"/>
</g>
<g>
	<g>
		<path fill="#FFFFFF" d="M-598.2,81.1H-629c-2.1,0-3.9,1.7-3.9,3.9v71.1c0,2.1,1.7,3.9,3.9,3.9h30.8c2.1,0,3.9-1.7,3.9-3.9V85
			C-594.3,82.9-596.1,81.1-598.2,81.1z M-599.9,109.4H-628v-5.3h28.1V109.4z M-599.9,100.6H-628v-5.3h28.1V100.6z M-599.9,91.9H-628
			v-5.3h28.1V91.9z"/>
		<path fill="#FFFFFF" d="M-553.9,81.1h-30.8c-2.1,0-3.9,1.7-3.9,3.9v71.1c0,2.1,1.7,3.9,3.9,3.9h30.8c2.1,0,3.9-1.7,3.9-3.9V85
			C-550,82.9-551.8,81.1-553.9,81.1z M-555.6,109.4h-28.1v-5.3h28.1V109.4z M-555.6,100.6h-28.1v-5.3h28.1V100.6z M-555.6,91.9
			h-28.1v-5.3h28.1V91.9z"/>
		<path fill="#FFFFFF" d="M-542.4,63.4c-1.7,0-3.3,0.3-5,0.5c-8.9-20.1-29-34.2-52.4-34.2c-30.1,0-54.5,23.2-57,52.7
			c-17.3,1.1-31,15.3-31,32.9c0,18.3,14.8,33.1,33.1,33.1h18.3V84.6c0-3.4,2.7-6.1,6.1-6.1h76.8c3.4,0,6.1,2.7,6.1,6.1v63.8h4.9
			c23.5,0,42.5-19,42.5-42.5C-499.9,82.4-518.9,63.4-542.4,63.4z"/>
	</g>
	<path fill="#FFFFFF" d="M-545,174.2h-20.3v-1.5c0-0.7-0.5-1.2-1.2-1.2h-1.8V160h-3.3v11.6h-1.8c-0.7,0-1.2,0.5-1.2,1.2v1.5h-34.3
		v-1.5c0-0.7-0.5-1.2-1.2-1.2h-1.7V160h-3.3v11.6h-1.9c-0.7,0-1.2,0.5-1.2,1.2v1.5h-21.5v4h21.5v1.5c0,0.7,0.5,1.2,1.2,1.2h6.9
		c0.7,0,1.2-0.5,1.2-1.2v-1.5h34.3v1.5c0,0.7,0.5,1.2,1.2,1.2h6.9c0.7,0,1.2-0.5,1.2-1.2v-1.5h20.3V174.2z"/>
</g>
<g>
	<polygon fill="#FFFFFF" points="-369.3,167.2 -393.2,167.2 -393.2,69 -411.4,77.5 -411.4,169.6 -393.2,172.7 -365.3,172.7 	"/>
	<g>
		<path fill="#FFFFFF" d="M-331.8,145.7c-3.2,0-5.9,2.6-5.9,5.9c0,3.2,2.6,5.9,5.9,5.9c3.2,0,5.9-2.6,5.9-5.9
			C-326,148.4-328.6,145.7-331.8,145.7z M-331.8,156.9c-2.9,0-5.3-2.4-5.3-5.3c0-2.9,2.4-5.3,5.3-5.3c2.9,0,5.3,2.4,5.3,5.3
			C-326.5,154.5-328.9,156.9-331.8,156.9z"/>
		<path fill="#FFFFFF" d="M-331.8,116.6c-18.8,0-34.1,15.3-34.1,34.1s15.3,34.1,34.1,34.1c18.8,0,34.1-15.3,34.1-34.1
			S-313,116.6-331.8,116.6z M-354.8,173.1c-5.1-5.5-8.2-12.8-8.2-20.9l16.6,0c0,3.5,1.3,6.7,3.4,9.1L-354.8,173.1z M-331.8,164
			c-6.9,0-12.4-5.6-12.4-12.4c0-6.9,5.6-12.4,12.4-12.4c6.9,0,12.4,5.6,12.4,12.4C-319.4,158.5-325,164-331.8,164z M-317.6,150.7
			c0-3.5-1.3-6.7-3.4-9.1l11.8-11.8c5.1,5.5,8.2,12.8,8.2,20.9H-317.6z"/>
	</g>
	<path fill="#FFFFFF" d="M-314.5,59.4c-1.7,0-3.3,0.3-5,0.5c-8.9-20.1-29-34.2-52.4-34.2c-30.1,0-54.5,23.2-57,52.7
		c-17.3,1.1-31,15.3-31,32.9c0,18.3,14.8,33.1,33.1,33.1h12.8V75.8l23.5-10.9l71.1,6.1v45.1c11,4,19.6,13.1,22.9,24.4
		c14.5-6.8,24.6-21.4,24.6-38.5C-272,78.5-291,59.4-314.5,59.4z"/>
</g>
<path fill="#FFFFFF" d="M-83.5,63c-1.7,0-3.3,0.3-5,0.5c-8.9-20.1-29-34.2-52.4-34.2c-30.1,0-54.5,23.2-57,52.7
	c-17.3,1.1-31,15.3-31,32.9c0,18.3,14.8,33.1,33.1,33.1h112.3c23.5,0,42.5-19,42.5-42.5C-41,82-60.1,63-83.5,63z M-135,130.5
	c-3.9,0-7.1-3.2-7.1-7.1c0-3.9,3.2-7.1,7.1-7.1c3.9,0,7.1,3.2,7.1,7.1C-127.9,127.3-131.1,130.5-135,130.5z M-123.5,111.9
	c-2.9-2.9-7-4.8-11.5-4.8c-4.5,0-8.5,1.8-11.5,4.8l-10-10c5.5-5.5,13.1-8.9,21.5-8.9c8.4,0,16,3.4,21.5,8.9L-123.5,111.9z
	 M-109.3,97.7C-115.9,91.1-125,87-135,87c-10,0-19.1,4.1-25.7,10.7l-10-10c9.2-9.2,21.8-14.8,35.7-14.8c13.9,0,26.6,5.7,35.7,14.8
	L-109.3,97.7z"/>
<g>
	<path fill="#FFFFFF" d="M152.1,59.4c-1.7,0-3.4,0.3-5,0.5c-9-20.2-29.1-34.3-52.7-34.3c-30.2,0-54.7,23.3-57.2,52.9
		C19.8,79.6,6,93.9,6,111.5c0,18.4,14.9,33.3,33.3,33.3h42.4v-34.9H60.3l40.1-43.9l40.1,43.9h-21.4v34.9h33
		c23.6,0,42.7-19.1,42.7-42.7C194.8,78.5,175.6,59.4,152.1,59.4z"/>
	<polygon fill="#FFFFFF" points="115.5,130.3 85.3,130.3 85.3,156.8 67.9,156.8 100.4,192.3 132.9,156.8 115.5,156.8 	"/>
</g>
</svg>
