<?xml version="1.0" encoding="utf-8"?>
<!-- Generator: Adobe Illustrator 18.1.0, SVG Export Plug-In . SVG Version: 6.00 Build 0)  -->
<svg version="1.1" id="Layer_1" xmlns="http://www.w3.org/2000/svg" xmlns:xlink="http://www.w3.org/1999/xlink" x="0px" y="0px"
	 viewBox="0 0 700 700" enable-background="new 0 0 700 700" xml:space="preserve">
<path fill="#E6E6E6" d="M28.8,556.7c3.6-4.3,5.7-8.5,12.1-9.2c0.7,0,2.1-3.6,2.1-5c0-20.6,0-41.2,0-61.8c0-36.2,0-72.5,0-108.7
	c0-11.4,4.3-15.6,15.6-15.6c40.5,0,81,0,120.8,0c5.7,0,7.1-1.4,7.1-7.1c-0.7-8.5,0-16.3,0-24.9c0-9.2,5-14.2,14.2-14.2
	c7.1,0,14.2,0,21.3,0c3.6,0,5-1.4,5.7-5c7.8-51.1,36.9-85.2,86-101.6c5.7-2.1,7.8-4.3,7.1-9.9c-0.7-4.3-0.7-8.5,0-12.8
	c1.4-12.1,7.1-21.3,19.2-26.3c3.6-1.4,3.6-4.3,3.6-7.1c0-26.3,0-52.6,0-78.9c0-6.4,2.8-9.2,8.5-7.1c2.1,0.7,4.3,4.3,6.4,7.1
	c4.3,0,9.9-0.7,15.6,0c9.2,1.4,18.5,3.6,27.7,6.4c12.1,2.8,24.9,4.3,37.6,0c0,1.4,0.7,2.1,0.7,2.8c0,13.5,0,27.7,0,41.2
	c0,3.6-1.4,5-4.3,5.7c-12.8,3.6-24.2,1.4-36.9-1.4c-9.2-2.1-18.5-4.3-27.7-5.7c-3.6-0.7-7.8,0-11.4,0c-2.8,0-4.3,2.1-4.3,5
	c0,8.5,0,17,0,25.6c0,1.4,1.4,4.3,3.6,5c12.8,5.7,19.2,14.9,19.2,29.1c0,5-1.4,12.1,1.4,15.6c2.1,3.6,8.5,4.3,13.5,5.7
	c44.8,18.5,71,51.9,78.9,99.5c0.7,3.6,1.4,5,5.7,5c7.1,0,13.5,0,20.6,0c9.9,0,14.9,5,15.6,14.9c0,7.8,0,15.6,0,22.7
	c0,7.8,0,7.8,7.8,7.8c39.8,0,79.6,0,119.3,0c12.8,0,16.3,3.6,16.3,16.3c0,56.1,0,111.5,0,167.6c0,4.3,0,7.1,5.7,8.5
	c3.6,0.7,5.7,5.7,8.5,9.2c0,7.8,0,16.3,0,24.2c-2.8,3.6-6.4,7.1-9.2,10.7c-208.1,0-416.3,0-624.4,0c-2.8-2.8-6.4-6.4-9.2-9.2
	C28.8,574.5,28.8,566,28.8,556.7z M201.4,465.1c0,25.6,0,51.1,0,76c0,2.1,0.7,5.7,1.4,5.7c3.6,0.7,7.8,0.7,11.4,0
	c0.7,0,2.1-4.3,2.1-6.4c0-49,0-97.3,0-146.3c0-7.8,2.8-12.8,9.2-16.3c38.4-22,76.7-44.8,115.8-66.8c6.4-3.6,12.1-3.6,18.5,0
	c38.4,22.7,77.4,44.8,115.8,67.5c6.4,3.6,9.2,8.5,9.2,15.6c0,49,0,98,0,147c0,5.7,2.1,7.1,7.1,7.1s7.8-0.7,7.8-6.4
	c0-49.7,0-100.2,0-149.9c0-9.9-4.3-17.8-12.8-22.7c-40.5-24.2-81-47.6-121.5-71.7c-8.5-5-17.8-5.7-26.3,0
	c-42.6,22.7-83.8,46.2-124.3,69.6c-9.2,5-13.5,12.8-13.5,23.4C201.4,415.4,201.4,440.2,201.4,465.1z M403.9,477.9
	c0,21.3,0,41.9,0,63.2c0,5,1.4,7.8,7.1,7.1c12.1-0.7,24.9-0.7,36.9,0c5.7,0,7.8-2.1,7.8-7.8c0-28.4,0-56.1,0-84.5
	c0-13.5,0-27.7,0-41.2c-0.7-18.5-13.5-29.8-30.5-27c-12.8,2.1-21.3,12.8-21.3,27.7C403.9,436.7,403.9,457.3,403.9,477.9z M244,478.6
	c0,20.6,0,41.9,0,62.5c0,5.7,1.4,7.8,7.1,7.1c12.1-0.7,24.9-0.7,36.9,0c5.7,0,7.8-2.1,7.8-7.8c0-28.4,0-56.1,0-84.5
	c0-13.5,0-27.7,0-41.2c-0.7-18.5-13.5-29.8-30.5-27c-12.8,2.1-21.3,12.8-21.3,27.7C244,436.7,244,457.3,244,478.6z M375.5,477.2
	c0-21.3,0-42.6,0-63.9c0-14.2-11.4-25.6-25.6-25.6s-25.6,11.4-25.6,26.3c0,43.3,0,86,0,129.3c0,4.3,1.4,5.7,5.7,5.7
	c12.8,0,26.3,0,39.1,0c5,0,6.4-1.4,6.4-6.4C375.5,519.8,375.5,498.5,375.5,477.2z M106.9,515.5c0-9.2,0-18.5,0-27.7c0-3.6-1.4-5-5-5
	c-7.8,0-15.6,0-23.4,0c-3.6,0-5,0.7-5,5c0,18.5,0,36.9,0,54.7c0,4.3,1.4,5.7,5.7,5c7.1,0,14.9,0,22,0c4.3,0,5.7-1.4,5.7-5.7
	C106.9,533.3,106.9,524.8,106.9,515.5z M106.9,419.6c0-9.2,0-17.8,0-27c0-3.6-1.4-5.7-5-5.7c-7.8,0-15.6,0-23.4,0c-3.6,0-5,1.4-5,5
	c0,18.5,0,36.9,0,55.4c0,3.6,1.4,4.3,5,4.3c7.8,0,16.3,0,24.2,0c3.6,0,5-1.4,5-5C106.9,438.1,106.9,428.9,106.9,419.6z M170.2,482.8
	c-9.9,0-19.9,0-29.1,0c-1.4,0-3.6,2.8-3.6,4.3c0,18.5,0,36.9,0,55.4c0,3.6,0.7,5,4.3,5c7.8,0,16.3,0,24.2,0c1.4,0,4.3-2.1,4.3-3.6
	C170.2,524,170.2,504.2,170.2,482.8z M529.6,482.8c0,21.3,0,41.2,0,61.1c0,1.4,2.8,3.6,4.3,3.6c7.8,0.7,16.3,0,24.2,0
	c2.8,0,4.3-1.4,4.3-4.3c0-19.2,0-37.6,0-56.8c0-1.4-2.1-3.6-3.6-3.6C549.5,482.8,540.3,482.8,529.6,482.8z M625.5,482.8
	c-10.7,0-19.9,0-29.8,0c-1.4,0-2.8,2.8-2.8,4.3c0,18.5,0,36.9,0,55.4c0,3.6,1.4,5,5,5c7.1,0,14.9,0,22,0c4.3,0,5.7-1.4,5.7-5.7
	c0-14.2,0-27.7,0-41.9C625.5,494.9,625.5,489.2,625.5,482.8z M170.2,451.6c0-20.6,0-41.2,0-61.1c0-1.4-2.1-3.6-3.6-3.6
	c-8.5,0-17,0-24.9,0c-1.4,0-4.3,2.8-4.3,4.3c0,19.2,0,37.6,0,56.8c0,1.4,2.1,3.6,3.6,3.6C150.3,451.6,159.5,451.6,170.2,451.6z
	 M529.6,451.6c9.9,0,19.9,0,29.1,0c1.4,0,3.6-2.8,3.6-4.3c0-18.5,0-36.9,0-55.4c0-2.8-1.4-5-4.3-5c-8.5,0-16.3,0-24.9,0
	c-1.4,0-3.6,2.1-3.6,3.6C529.6,410.4,529.6,431,529.6,451.6z M625.5,451.6c0-21.3,0-41.2,0-61.1c0-1.4-2.1-3.6-3.6-3.6
	c-8.5,0-16.3-0.7-24.9,0c-1.4,0-4.3,2.8-4.3,3.6c0,19.2,0,37.6,0,56.8c0,1.4,2.1,3.6,3.6,3.6C606.3,451.6,615.6,451.6,625.5,451.6z"
	/>
</svg>
