<?xml version="1.0" encoding="utf-8"?>
<!-- Generator: Adobe Illustrator 18.1.0, SVG Export Plug-In . SVG Version: 6.00 Build 0)  -->
<svg version="1.1" id="Layer_1" xmlns="http://www.w3.org/2000/svg" xmlns:xlink="http://www.w3.org/1999/xlink" x="0px" y="0px"
	 viewBox="0 0 600 600" enable-background="new 0 0 600 600" xml:space="preserve">
<g>
	<g>
		<defs>
			<path id="SVGID_1_" d="M462.4,144.8c1.1-4.8,1.7-9.8,1.7-14.9c0-37.6-30.5-68.1-68.1-68.1c-4.5,0-9,0.5-13.3,1.3
				c-22.1-23.2-53.3-37.7-88-37.7c-49.1,0-91.3,29-110.6,71c-45.6,2.4-81.8,39.9-81.8,86.1c0,47.6,38.7,86.3,86.3,86.3h240.3
				c36.8,0,66.6-29.8,66.6-66.6C495.3,177.8,482.1,156.4,462.4,144.8z"/>
		</defs>
		<clipPath id="SVGID_2_">
			<use xlink:href="#SVGID_1_"  overflow="visible"/>
		</clipPath>
		<g clip-path="url(#SVGID_2_)">
			<g>
				<g>
					<polygon fill="#59CAEA" points="361.2,96.5 389.6,204.7 412.7,61.3 					"/>
				</g>
				<g>
					<polygon fill="#01AAB5" points="298.7,139.3 389.6,204.7 361.2,96.5 					"/>
				</g>
				<g>
					<polygon fill="#F37326" points="227.4,117.1 179.7,147.1 298.7,139.3 					"/>
				</g>
				<g>
					<polygon fill="#F37029" points="188.6,201.2 193.7,232.8 389.6,204.7 298.7,139.3 					"/>
				</g>
				<g>
					<polygon fill="#B02C9F" points="443,14.7 434.2,28.1 434.2,28.1 452.4,16.3 					"/>
				</g>
				<g>
					<polygon fill="#F37029" points="132.3,232.8 193.7,232.8 188.6,201.2 					"/>
				</g>
				<g>
					<polygon fill="#F8931D" points="298.7,139.3 179.7,147.1 188.6,201.2 					"/>
				</g>
				<g>
					<polygon fill="#F7991E" points="179.7,147.1 121.8,222.4 132.3,232.8 188.6,201.2 					"/>
				</g>
				<g>
					<polygon fill="#068CA9" points="446.1,148.4 436.8,55 412.7,61.3 					"/>
				</g>
				<g>
					<polygon fill="#DA3420" points="196.3,107.3 179.7,147.1 227.4,117.1 					"/>
				</g>
				<g>
					<polygon fill="#B02C9F" points="434.2,28.1 495.4,24.3 452.4,16.3 					"/>
				</g>
				<g>
					<polygon fill="#01B7D4" points="446.1,148.4 389.6,204.7 474,221.2 446.1,148.4 					"/>
				</g>
				<g>
					<polygon fill="#A360B9" points="412.7,61.3 436.8,55 434.2,28.1 434.2,28.1 434.2,28.1 					"/>
				</g>
				<g>
					<polygon fill="#00A7B0" points="389.6,204.7 446.1,148.4 446.1,148.4 412.7,61.3 					"/>
				</g>
				<g>
					<polygon fill="#D61E41" points="446.1,148.4 446.1,148.4 446.1,148.4 					"/>
				</g>
				<g>
					<polygon fill="#C2349B" points="495.4,24.3 495.4,24.3 480.2,-1.6 452.4,16.3 					"/>
				</g>
				<g>
					<path fill="#D61E41" d="M446.1,148.4L446.1,148.4L446.1,148.4z"/>
				</g>
				<g>
					<polygon fill="#EF4136" points="79.2,108.6 53,153.5 179.7,147.1 					"/>
				</g>
				<g>
					<polygon fill="#F8931D" points="313,264.6 389.6,204.7 193.7,232.8 					"/>
				</g>
				<g>
					<path fill="#F36F26" d="M126,284.3c33.8-25.5,67.9-51.4,67.9-51.4h-61.4L126,284.3z"/>
				</g>
				<g>
					<path fill="#D61E41" d="M495.4,24.3L495.4,24.3L495.4,24.3z"/>
				</g>
				<g>
					<polygon fill="#D60EB1" points="494.8,-64.7 457.4,-40.2 467.5,-22.9 					"/>
				</g>
				<g>
					<polygon fill="#FCB315" points="53,153.5 121.8,222.4 179.7,147.1 					"/>
				</g>
				<g>
					<polygon fill="#00A8CB" points="361.2,96.5 412.7,61.3 346.9,41.8 					"/>
				</g>
				<g>
					<polygon fill="#08ACB7" points="412.7,61.3 434.2,28.1 344.8,33.7 346.9,41.8 					"/>
				</g>
				<g>
					<polygon fill="#008A9F" points="443,14.7 389.2,4.6 344.8,33.7 434.2,28.1 					"/>
				</g>
				<g>
					<polygon fill="#F7991E" points="227.4,117.1 298.7,139.3 281.6,82.9 					"/>
				</g>
				<g>
					<polygon fill="#FFC20E" points="389.6,204.7 313,264.6 408.1,289.8 469.1,289.8 					"/>
				</g>
				<g>
					<polygon fill="#2F7888" points="446.1,148.4 495.4,170.8 495.4,99.3 					"/>
				</g>
				<g>
					<path fill="#D61E41" d="M495.4,24.3L495.4,24.3L495.4,24.3z"/>
				</g>
				<g>
					<polygon fill="#00A8CB" points="446.1,148.4 446.1,148.4 495.4,99.3 495.4,39.9 436.8,55 					"/>
				</g>
				<g>
					<polygon fill="#FD9F13" points="389.6,204.7 469.1,289.8 495.4,289.8 495.4,277 474,221.2 					"/>
				</g>
				<g>
					<polygon fill="#59CAEA" points="495.4,277 495.4,225.4 474,221.2 					"/>
				</g>
				<g>
					<polygon fill="#08ACB7" points="474,221.2 495.4,225.4 495.4,170.8 446.1,148.4 					"/>
				</g>
				<g>
					<polygon fill="#8E1D83" points="495.4,24.3 495.4,24.3 495.4,-11.5 480.2,-1.6 					"/>
				</g>
				<g>
					<polygon fill="#8C1670" points="467.5,-22.9 480.2,-1.6 495.4,-11.5 495.4,-65.1 494.8,-64.7 					"/>
				</g>
				<g>
					<polygon fill="#D61E41" points="494.8,-64.7 495.4,-65.1 495.4,-65.6 					"/>
				</g>
				<g>
					<polygon fill="#C2349B" points="457.4,-40.2 494.8,-64.7 495.4,-65.6 495.4,-75.7 443.4,-64.1 					"/>
				</g>
				<g>
					<polygon fill="#B911D1" points="443,14.7 467.5,-22.9 457.4,-40.2 389.2,4.6 					"/>
				</g>
				<g>
					<polygon fill="#38C5ED" points="184.1,28.1 175.3,1.1 151.4,21.7 					"/>
				</g>
				<g>
					<polygon fill="#38C5ED" points="332.9,-17.1 333.7,-33.2 316.9,-27.1 					"/>
				</g>
				<g>
					<polygon fill="#38C5ED" points="254.8,-22.5 246.8,-12.7 260.9,-4.8 					"/>
				</g>
				<g>
					<polygon fill="#38C5ED" points="37.5,-69.7 26.2,-75.3 21.8,-60 					"/>
				</g>
				<g>
					<polygon fill="#38C5ED" points="112.5,-153.1 99.2,-158.9 97.8,-142.1 					"/>
				</g>
				<g>
					<polygon fill="#039BB1" points="195.5,20.5 193.6,10.2 188.7,18 					"/>
				</g>
				<g>
					<polygon fill="#B7059A" points="452.4,16.3 480.2,-1.6 467.5,-22.9 443,14.7 					"/>
				</g>
				<g>
					<path fill="#F5821F" d="M126,284.3l-0.7,5.5h75.5l-7-56.9C193.7,232.8,159.8,258.9,126,284.3z"/>
				</g>
				<g>
					<polygon fill="#F5821F" points="280.7,289.8 408.1,289.8 313,264.6 					"/>
				</g>
				<g>
					<path fill="#FAA21C" d="M132.3,232.8l-10.5-10.5L70,289.7h48.6c2.4-1.8,4.9-3.7,7.3-5.5L132.3,232.8z"/>
				</g>
				<g>
					<path fill="#F5821F" d="M118.6,289.8h6.7l0.7-5.5C123.5,286.1,121.1,288,118.6,289.8z"/>
				</g>
				<g>
					<polygon fill="#F9A01C" points="193.7,232.8 200.7,289.8 280.7,289.8 313,264.6 					"/>
				</g>
				<g>
					<polygon fill="#8E002F" points="-16.7,71.8 -16.7,156.5 61.6,101.8 					"/>
				</g>
				<g>
					<polygon fill="#EE1B39" points="79.2,108.6 61.6,101.8 -16.7,156.5 -16.7,230.8 53,153.5 					"/>
				</g>
				<g>
					<polygon fill="#F89B1D" points="121.8,222.4 53,153.5 70,289.8 					"/>
				</g>
				<g>
					<polygon fill="#EF474A" points="53,153.5 -16.7,230.8 -16.7,289.8 					"/>
				</g>
				<g>
					<polygon fill="#F58120" points="70,289.8 53,153.5 -16.7,289.8 					"/>
				</g>
				<g>
					<polygon fill="#A20994" points="474.9,-149.1 495.4,-160.8 495.4,-222.2 460.5,-161.2 					"/>
				</g>
				<g>
					<polygon fill="#DB3BBF" points="431.7,-185 425.4,-160.2 443.4,-131.3 460.5,-161.2 					"/>
				</g>
				<g>
					<polygon fill="#CF2BAD" points="474.9,-149.1 460.5,-161.2 443.4,-131.3 443.4,-131.3 					"/>
				</g>
				<g>
					<polygon fill="#771F80" points="441.2,-222.2 386.9,-222.2 431.7,-185 					"/>
				</g>
				<g>
					<polygon fill="#E26EC2" points="443.4,-131.3 425.4,-160.2 412.7,-131 					"/>
				</g>
				<g>
					<path fill="#D61E41" d="M443.4-131.3L443.4-131.3L443.4-131.3z"/>
				</g>
				<g>
					<polygon fill="#A20994" points="385.6,-193.1 332.1,-191.1 374.3,-148.1 					"/>
				</g>
				<g>
					<polygon fill="#D60EB1" points="428.4,-95.9 433.5,-86.5 446.9,-97 					"/>
				</g>
				<g>
					<polygon fill="#04769F" points="377.7,-113.4 382.8,-103.9 389.2,-112.8 					"/>
				</g>
				<g>
					<polygon fill="#0181B5" points="332.5,-76.4 275.7,-56.8 327.8,-51.3 					"/>
				</g>
				<g>
					<polygon fill="#911A92" points="495.4,-110.9 443.4,-64.1 495.4,-75.7 					"/>
				</g>
				<g>
					<polygon fill="#CA50B4" points="443.4,-131.3 443.4,-131.3 466.1,-114.5 495.4,-120.9 495.4,-123.7 					"/>
				</g>
				<g>
					<polygon fill="#920479" points="495.4,-132.1 495.4,-160.8 474.9,-149.1 					"/>
				</g>
				<g>
					<polygon fill="#A20994" points="443.4,-131.3 495.4,-123.7 495.4,-132.1 474.9,-149.1 					"/>
				</g>
				<g>
					<polygon fill="#B92E96" points="457.4,-40.2 443.4,-64.1 389.2,4.6 					"/>
				</g>
				<g>
					<polygon fill="#ED4456" points="32.6,19.9 98,76.5 111.7,7.9 					"/>
				</g>
				<g>
					<polygon fill="#EF4136" points="118.7,-13.5 78.5,-47.8 79.9,-12 					"/>
				</g>
				<g>
					<polygon fill="#EF4136" points="144.5,-13.7 155,-7.5 158.5,-17.3 					"/>
				</g>
				<g>
					<polygon fill="#D60EB1" points="393,-12.1 375,-38.3 370.2,-17.2 					"/>
				</g>
				<g>
					<polygon fill="#38C5ED" points="288.6,-180.1 269.4,-195.3 262.2,-169.3 					"/>
				</g>
				<g>
					<polygon fill="#38C5ED" points="255,-141.4 257.6,-131.5 269.3,-137 					"/>
				</g>
				<g>
					<polygon fill="#0181B5" points="255.9,-189.5 233.8,-173.1 257.2,-178 					"/>
				</g>
				<g>
					<polygon fill="#D60EB1" points="302.2,-221.6 276.6,-222.2 288.1,-209.1 					"/>
				</g>
				<g>
					<polygon fill="#D61E42" points="111.7,7.9 98,76.5 153,41.1 					"/>
				</g>
				<g>
					<polygon fill="#D61E42" points="61.6,101.8 79.2,108.6 98,76.5 					"/>
				</g>
				<g>
					<polygon fill="#EE1C36" points="79.2,108.6 179.7,147.1 98,76.5 					"/>
				</g>
				<g>
					<polygon fill="#EE1748" points="32.6,19.9 22,10.7 22,10.7 -13.1,41.6 98,76.5 					"/>
				</g>
				<g>
					<polygon fill="#D61E42" points="22,10.7 22,10.7 -16.7,-22.8 -16.7,40.4 -13.1,41.6 					"/>
				</g>
				<g>
					<polygon fill="#EE5A2F" points="179.7,147.1 196.3,107.3 98,76.5 					"/>
				</g>
				<g>
					<polygon fill="#D61E42" points="-16.7,40.4 -16.7,44.8 -13.1,41.6 					"/>
				</g>
				<g>
					<polygon fill="#E91B3B" points="-13.1,41.6 -16.7,44.8 -16.7,71.8 61.6,101.8 98,76.5 					"/>
				</g>
				<g>
					<polygon fill="#D61E42" points="50.3,-27.9 15,-26.9 25.6,-17.7 					"/>
				</g>
				<g>
					<polygon fill="#D61E42" points="22.1,10.7 32.7,19.9 32.7,19.9 					"/>
				</g>
				<g>
					<polygon fill="#C40F3F" points="-16.7,-22.8 22,10.7 22,10.7 					"/>
				</g>
				<g>
					<polygon fill="#00A8CB" points="344.8,33.7 261.3,16 281.6,82.9 346.9,41.8 					"/>
				</g>
				<g>
					<polygon fill="#039BB1" points="218.6,49.4 196.3,107.3 261.3,16 					"/>
				</g>
				<g>
					<polygon fill="#01B7D4" points="344.8,33.7 389.2,4.6 261.3,16 					"/>
				</g>
				<g>
					<polygon fill="#38C5ED" points="261.3,16 389.2,4.6 310.4,-10.1 					"/>
				</g>
				<g>
					<polygon fill="#058EA4" points="298.7,139.3 361.2,96.5 281.6,82.9 					"/>
				</g>
				<g>
					<polygon fill="#01B7D4" points="281.6,82.9 361.2,96.5 346.9,41.8 					"/>
				</g>
				<g>
					<polygon fill="#B02C9F" points="495.4,39.9 495.4,24.3 436.8,55 					"/>
				</g>
				<g>
					<polygon fill="#D950B5" points="434.2,28.1 436.8,55 495.4,24.3 					"/>
				</g>
				<g>
					<polygon fill="#6C0570" points="460.5,-161.2 495.4,-222.2 433,-184 					"/>
				</g>
				<g>
					<polygon fill="#43075E" points="431.7,-185 433,-184 495.4,-222.2 441.2,-222.2 					"/>
				</g>
				<g>
					<polygon fill="#EF4136" points="48.2,-130.3 94.8,-130.3 94.8,-66.4 					"/>
				</g>
				<g>
					<polygon fill="#FCB315" points="48.2,-130.3 9.2,-100.9 74.5,-94.3 					"/>
				</g>
				<g>
					<polygon fill="#ED1A43" points="98,76.5 196.3,107.3 153,41.1 					"/>
				</g>
				<g>
					<polygon fill="#08ACB7" points="153,41.1 196.3,107.3 218.6,49.4 					"/>
				</g>
				<g>
					<polygon fill="#01B7D4" points="261.3,16 196.3,107.3 281.6,82.9 					"/>
				</g>
				<g>
					<polygon fill="#01AAB5" points="196.3,107.3 227.4,117.1 281.6,82.9 					"/>
				</g>
				<g>
					<polygon fill="#E26EC2" points="107.6,-143.1 109.2,-137.8 103,-139.6 					"/>
				</g>
			</g>
			<g>
				<path fill="#43075E" d="M113.2-106c-1,0.4-2.7,0.8-4.8,0.8c-2.4,0-4.3-0.6-5.8-2c-1.3-1.3-2.1-3.3-2.1-5.8
					c0-4.6,3.2-8.1,8.5-8.1c1.8,0,3.2,0.4,3.9,0.7l-0.5,1.7c-0.8-0.4-1.9-0.7-3.5-0.7c-3.8,0-6.3,2.4-6.3,6.3c0,3.9,2.4,6.3,6,6.3
					c1.3,0,2.3-0.2,2.6-0.4v-4.6H108v-1.7h5.1v7.5H113.2z"/>
				<path fill="#43075E" d="M124.9-112.6h-6.1v5.6h6.8v1.7h-8.8v-15.6h8.5v1.7h-6.4v4.9h6.1C124.9-114.4,124.9-112.6,124.9-112.6z"
					/>
				<path fill="#43075E" d="M141.9-113.3c0,5.4-3.2,8.2-7.3,8.2c-4.2,0-7-3.2-7-7.9c0-5,3.1-8.2,7.3-8.2
					C139.2-121.2,141.9-118,141.9-113.3z M129.9-113.1c0,3.3,1.8,6.3,5,6.3c3.2,0,5-3,5-6.4c0-3.1-1.7-6.3-5-6.3
					C131.6-119.5,129.9-116.5,129.9-113.1z"/>
				<path fill="#43075E" d="M158.1-112.2c-0.1-2.1-0.2-4.8-0.2-6.7h-0.1c-0.5,1.8-1.2,3.8-2,6l-2.7,7.5h-1.5l-2.5-7.4
					c-0.7-2.1-1.3-4.2-1.8-6.1l0,0c0,1.9-0.1,4.5-0.4,6.9l-0.4,6.7h-1.9l1.1-15.6h2.6l2.6,7.5c0.6,1.9,1.2,3.6,1.5,5.2h0.1
					c0.4-1.5,1-3.3,1.7-5.2l2.7-7.5h2.6l1,15.6h-2L158.1-112.2z"/>
				<path fill="#43075E" d="M172-112.6H166v5.6h6.8v1.7H164v-15.6h8.5v1.7H166v4.9h6.1L172-112.6L172-112.6z"/>
				<path fill="#43075E" d="M179.2-119.3h-4.8v-1.7H186v1.7h-4.8v13.9h-2V-119.3z"/>
				<path fill="#43075E" d="M188.1-120.7c1.1-0.2,2.5-0.4,3.8-0.4c2.1,0,3.6,0.4,4.5,1.3c0.8,0.7,1.2,1.8,1.2,3c0,2-1.3,3.5-3,3.9
					v0.1c1.2,0.5,1.9,1.5,2.3,3.1c0.5,2.1,0.8,3.7,1.2,4.3h-2c-0.2-0.5-0.6-1.8-1.1-3.7c-0.5-2.1-1.3-3-3.1-3H190v6.8h-2v-15.5
					H188.1z M190.1-113.7h2c2.1,0,3.6-1.2,3.6-3c0-2-1.4-2.9-3.6-2.9c-1,0-1.7,0.1-2,0.2V-113.7z"/>
				<path fill="#43075E" d="M203-120.9v15.6h-1.9v-15.6H203z"/>
				<path fill="#43075E" d="M217.9-105.8c-0.7,0.4-2.3,0.7-4.2,0.7c-4.4,0-7.7-2.7-7.7-7.9c0-4.9,3.3-8.2,8.1-8.2
					c1.9,0,3.2,0.4,3.7,0.7l-0.5,1.7c-0.7-0.4-1.9-0.6-3.1-0.6c-3.7,0-6.1,2.4-6.1,6.4c0,3.8,2.1,6.3,6,6.3c1.2,0,2.5-0.2,3.3-0.6
					L217.9-105.8z"/>
				<path fill="#43075E" d="M101.4-97.7c0.8-0.2,2.3-0.4,3.7-0.4c2,0,3.3,0.4,4.3,1.2c0.8,0.6,1.3,1.5,1.3,2.7c0,1.5-1,2.9-2.6,3.5
					l0,0c1.4,0.4,3.2,1.5,3.2,3.9c0,1.3-0.5,2.4-1.3,3.1c-1.1,1-2.9,1.4-5.4,1.4c-1.4,0-2.5-0.1-3.1-0.2v-15.2H101.4z M103.5-91.3
					h1.8c2.1,0,3.3-1.1,3.3-2.6c0-1.8-1.4-2.5-3.5-2.5c-1,0-1.4,0.1-1.8,0.1v5H103.5z M103.5-83.8c0.4,0.1,1,0.1,1.7,0.1
					c2,0,4-0.7,4-3c0-2.1-1.8-3-4-3h-1.7V-83.8z"/>
				<path fill="#43075E" d="M116.9-87.2l-1.7,4.9h-2l5.2-15.6h2.4l5.4,15.6h-2.1l-1.7-4.9H116.9z M122-88.8l-1.5-4.5
					c-0.4-1.1-0.6-1.9-0.8-2.9l0,0c-0.2,1-0.5,1.9-0.8,2.9l-1.5,4.5H122z"/>
				<path fill="#43075E" d="M139.5-82.8c-0.7,0.4-2.3,0.7-4.2,0.7c-4.4,0-7.7-2.7-7.7-7.9c0-4.9,3.3-8.2,8.1-8.2
					c1.9,0,3.2,0.4,3.7,0.7l-0.5,1.7c-0.7-0.4-1.9-0.6-3.1-0.6c-3.7,0-6.1,2.4-6.1,6.4c0,3.8,2.1,6.3,6,6.3c1.2,0,2.5-0.2,3.3-0.6
					L139.5-82.8z"/>
				<path fill="#43075E" d="M142.5-97.8h2v7.5h0.1c0.5-0.6,0.8-1.2,1.2-1.7l4.8-5.8h2.5l-5.6,6.5l6.1,8.9h-2.4l-5.1-7.6l-1.4,1.7v6
					h-2v-15.5H142.5z"/>
				<path fill="#43075E" d="M166.9-82.9c-1,0.4-2.7,0.8-4.8,0.8c-2.4,0-4.3-0.6-5.8-2c-1.3-1.3-2.1-3.3-2.1-5.8
					c0-4.6,3.2-8.1,8.5-8.1c1.8,0,3.2,0.4,3.9,0.7l-0.5,1.7c-0.8-0.4-1.9-0.7-3.5-0.7c-3.8,0-6.3,2.4-6.3,6.3c0,3.9,2.4,6.3,6,6.3
					c1.3,0,2.3-0.2,2.6-0.4v-4.6h-3.1v-1.7h5.1V-82.9z"/>
				<path fill="#43075E" d="M170.5-97.7c1.1-0.2,2.5-0.4,3.8-0.4c2.1,0,3.6,0.4,4.5,1.3c0.8,0.7,1.2,1.8,1.2,3c0,2-1.3,3.5-3,3.9
					v0.1c1.2,0.5,1.9,1.5,2.3,3.1c0.5,2.1,0.8,3.7,1.2,4.3h-2c-0.2-0.5-0.6-1.8-1.1-3.7c-0.5-2.1-1.3-3-3.1-3h-1.8v6.8h-2V-97.7z
					 M172.5-90.6h2c2.1,0,3.6-1.2,3.6-3c0-2-1.4-2.9-3.6-2.9c-1,0-1.7,0.1-2,0.2V-90.6z"/>
				<path fill="#43075E" d="M196.7-90.2c0,5.4-3.2,8.2-7.3,8.2c-4.2,0-7-3.2-7-7.9c0-5,3.1-8.2,7.3-8.2
					C194-98.2,196.7-94.9,196.7-90.2z M184.7-90c0,3.3,1.8,6.3,5,6.3s5-3,5-6.4c0-3.1-1.7-6.3-5-6.3C186.3-96.5,184.7-93.4,184.7-90
					z"/>
				<path fill="#43075E" d="M201.8-97.8v9.2c0,3.5,1.5,5,3.6,5c2.3,0,3.8-1.5,3.8-5v-9.2h2v9c0,4.8-2.5,6.8-5.8,6.8
					c-3.2,0-5.6-1.8-5.6-6.7v-9.2H201.8z"/>
				<path fill="#43075E" d="M215.1-82.4V-98h2.1l5,7.9c1.2,1.8,2,3.5,2.7,5.1l0,0c-0.2-2-0.2-3.9-0.2-6.4V-98h1.9v15.6h-1.8l-5-7.9
					c-1.1-1.8-2.1-3.6-2.9-5.2h-0.1c0.1,1.9,0.1,3.8,0.1,6.4v6.7H215.1z"/>
				<path fill="#43075E" d="M230.9-97.7c1.2-0.2,2.7-0.4,4.3-0.4c2.9,0,5,0.7,6.3,1.9c1.4,1.3,2.1,3.1,2.1,5.6s-0.8,4.6-2.3,6.1
					c-1.4,1.4-3.8,2.3-6.9,2.3c-1.4,0-2.6-0.1-3.7-0.2v-15.2H230.9z M232.9-83.9c0.5,0.1,1.2,0.1,2,0.1c4.3,0,6.7-2.4,6.7-6.7
					c0-3.7-2-6-6.3-6c-1.1,0-1.8,0.1-2.4,0.2V-83.9z"/>
			</g>
		</g>
	</g>
</g>
<g>
	<path fill="#FFFFFF" d="M111.3,390.2v-4c-12.3-1.2-19.5-6.5-19.5-15.8c0-9.3,7.3-14.6,19.5-15.8v-4.2h10.4v4.2
		c12.3,1.2,19.5,6.5,19.5,15.8c0,9.4-7.3,14.6-19.5,15.8v4H111.3z M111.3,377.1v-13.3c-6.1,0.8-9,3.1-9,6.7S105.3,376.2,111.3,377.1
		z M121.7,363.6V377c6.1-0.8,9-3,9-6.7C130.7,366.7,127.6,364.5,121.7,363.6z"/>
	<path fill="#FFFFFF" d="M152.6,390.2v-39.9h10.2v39.9H152.6z"/>
	<path fill="#FFFFFF" d="M174.3,370.3c0-12.3,9.3-20.6,21.5-20.6c9.6,0,14.8,5.5,17.4,10.7l-8.8,4.2c-1.3-3.2-4.8-5.8-8.6-5.8
		c-6.5,0-11.1,5-11.1,11.5c0,6.5,4.6,11.5,11.1,11.5c3.8,0,7.3-2.6,8.6-5.8l8.8,4.2c-2.6,5.1-7.7,10.7-17.4,10.7
		C183.6,390.9,174.3,382.6,174.3,370.3z"/>
	<path fill="#FFFFFF" d="M247.4,390.2l-10.5-15l-2.7,3.3v11.7H224v-39.9h10.2v16.3l12.3-16.3h12.6l-15.5,18.6l16.3,21.2h-12.5V390.2
		z"/>
	<path fill="#FFFFFF" d="M296.3,390.2l-2-5.7h-15.7l-2,5.7h-11.7l15-39.9h12.9l15,39.9H296.3z M286.5,360.5l-5.1,15h10.1
		L286.5,360.5z"/>
	<path fill="#FFFFFF" d="M314.9,381.8c3.7,0,6.1-2.3,7.3-11.3l2.4-20.2h29.6v39.9H344v-30.8h-10.1l-1.4,12
		c-1.9,16.1-8.7,19.6-17.4,19.6v-9.2H314.9z"/>
	<path fill="#FFFFFF" d="M378,350.4v13.3h9.6c8.9,0,13.8,6.1,13.8,13.2c0,7.3-4.9,13.2-13.8,13.2h-20v-39.9H378V350.4z M378,372.7
		v8.6h8.3c2.7,0,4.8-1.5,4.8-4.3c0-2.7-2-4.3-4.8-4.3H378z"/>
	<path fill="#FFFFFF" d="M439.2,390.2v-16h-16.5v16h-10.2v-39.9h10.2v14.9h16.5v-14.9h10.2v39.9H439.2z"/>
	<path fill="#FFFFFF" d="M489.9,390.2l-2-5.7h-15.7l-2,5.7h-11.7l15-39.9h12.9l15,39.9H489.9z M480,360.5l-5.1,15H485L480,360.5z"/>
	<path fill="#FFFFFF" d="M22,461.9v-39.8h20c8.9,0,13.8,6.1,13.8,13.2c0,7.1-4.9,13.2-13.8,13.2h-9.6v13.3L22,461.9L22,461.9z
		 M45.4,435.3c0-2.7-2-4.3-4.8-4.3h-8.3v8.6h8.3C43.3,439.6,45.4,438,45.4,435.3z"/>
	<path fill="#FFFFFF" d="M64.7,442c0-12.1,9.2-20.6,21.3-20.6s21.3,8.5,21.3,20.6c0,12.1-9,20.6-21.3,20.6
		C73.8,462.6,64.7,454.1,64.7,442z M96.8,442c0-6.5-4.3-11.5-10.8-11.5c-6.7,0-10.8,5-10.8,11.5c0,6.4,4.3,11.5,10.8,11.5
		C92.5,453.5,96.8,448.4,96.8,442z"/>
	<path fill="#FFFFFF" d="M116.1,456.4l5.2-7c2.9,2.9,8.1,4.2,11.5,4.2c4.8,0,7.3-1.7,7.3-3.9s-2-3.3-7.7-3.3h-8.1v-9h8.1
		c4.3,0,7-1.1,7-3.1c0-2.5-3.2-3.7-7.3-3.7c-3.7,0-7.7,1.3-10.6,3.8l-5-6.4c3.3-3.8,9.3-6.4,16.5-6.4c10.1,0,16.4,4.4,16.4,11
		c0,4.6-4,8.2-8.7,8.9c4.3,0.5,9.4,3.7,9.4,9.4c0,7-7.3,11.8-17.1,11.8C125.6,462.6,119.2,459.9,116.1,456.4z"/>
	<path fill="#FFFFFF" d="M162.3,461.9v-39.8h20c8.9,0,13.8,6.1,13.8,13.2c0,7.1-4.9,13.2-13.8,13.2h-9.8v13.3L162.3,461.9
		L162.3,461.9z M185.6,435.3c0-2.7-2-4.3-4.8-4.3h-8.3v8.6h8.3C183.6,439.6,185.6,438,185.6,435.3z"/>
	<path fill="#FFFFFF" d="M229.7,461.9l-2-5.7h-15.7l-2,5.7h-11.7l15-39.9h12.9l15,39.9H229.7z M219.8,432.2l-5.1,15h10.1
		L219.8,432.2z"/>
	<path fill="#FFFFFF" d="M275.7,461.9l-8.7-13.3l-8.7,13.3h-12l13.9-20.5l-13.1-19.3h12.1l7.9,12.5l7.7-12.5h12.1l-13,19.4
		l13.8,20.5h-12.1V461.9z"/>
	<path fill="#FFFFFF" d="M293.2,459.6l4-8c1.4,1.1,3.2,2,5.1,2c2.6,0,3.7-1,4.9-3l-14.4-28.6h11.5l8.6,18.6l8.7-18.6h11.5l-16.2,32
		c-2.5,4.9-6.5,8.6-13.8,8.6C299.6,462.6,295.6,461.5,293.2,459.6z"/>
	<path fill="#FFFFFF" d="M369.3,461.9v-16h-16.5v16h-10.2v-39.8h10.2V437h16.5v-14.9h10.2V462h-10.2V461.9z"/>
	<path fill="#FFFFFF" d="M416.5,461.9l-10.5-15l-2.7,3.3v11.7H393v-39.8h10.2v16.3l12.3-16.3h12.6l-15.5,18.6l16.3,21.2H416.5z"/>
	<path fill="#FFFFFF" d="M433.7,442c0-12.1,9.2-20.6,21.3-20.6s21.3,8.5,21.3,20.6c0,12.1-9,20.6-21.3,20.6
		C442.9,462.6,433.7,454.1,433.7,442z M465.9,442c0-6.5-4.3-11.5-10.8-11.5c-6.7,0-10.8,5-10.8,11.5c0,6.4,4.3,11.5,10.8,11.5
		C461.6,453.5,465.9,448.4,465.9,442z"/>
	<path fill="#FFFFFF" d="M487.8,461.9v-39.8h22.6c7.9,0,11.7,5.1,11.7,10.1s-3.1,8.3-6.8,9.2c4.3,0.7,7.6,4.8,7.6,9.8
		c0,5.8-3.9,10.8-11.7,10.8h-23.5V461.9z M511.6,434c0-1.9-1.4-3.3-3.6-3.3h-10v6.7h10C510.2,437.3,511.6,436,511.6,434z
		 M512.3,449.7c0-2-1.4-3.6-3.9-3.6H498v7.1h10.4C510.9,453.3,512.3,451.9,512.3,449.7z"/>
	<path fill="#FFFFFF" d="M561.7,461.9l-2-5.7H544l-2,5.7h-11.7l15-39.9h12.9l15,39.9H561.7z M551.8,432.2l-5.1,15h10.1L551.8,432.2z
		"/>
	<path fill="#FFFFFF" d="M132.8,513.6c0-12.3,9.3-20.6,21.5-20.6c9.6,0,14.8,5.5,17.4,10.7l-8.8,4.2c-1.3-3.2-4.8-5.8-8.6-5.8
		c-6.5,0-11.1,5-11.1,11.5c0,6.5,4.6,11.5,11.1,11.5c3.8,0,7.3-2.6,8.6-5.8l8.8,4.2c-2.6,5.1-7.7,10.7-17.4,10.7
		C142,534.2,132.8,525.9,132.8,513.6z"/>
	<path fill="#FFFFFF" d="M182.4,533.5v-39.9h10.2v23.5l16.1-23.5h10.6v39.9H209V509l-16.8,24.6h-9.8V533.5z"/>
	<path fill="#FFFFFF" d="M230.7,513.6c0-12.3,9.3-20.6,21.5-20.6c9.6,0,14.8,5.5,17.4,10.7l-8.8,4.2c-1.3-3.2-4.8-5.8-8.6-5.8
		c-6.5,0-11.1,5-11.1,11.5c0,6.5,4.6,11.5,11.1,11.5c3.8,0,7.3-2.6,8.6-5.8l8.8,4.2c-2.6,5.1-7.7,10.7-17.4,10.7
		C240.1,534.2,230.7,525.9,230.7,513.6z"/>
	<path fill="#FFFFFF" d="M289.3,533.5v-30.8h-11.2v-8.9h32.5v8.9h-11.1v30.8H289.3z"/>
	<path fill="#FFFFFF" d="M321.8,533.5v-39.9h29.3v8.9h-18.9v6.2h18.5v8.9h-18.5v6.8h18.9v8.9h-29.3V533.5z"/>
	<path fill="#FFFFFF" d="M398.3,533.5v-26l-10.1,26h-4.5l-10-26v26h-10.2v-39.9h14.3l8.3,21.7l8.3-21.7h14.3v39.9H398.3z"/>
	<path fill="#FFFFFF" d="M449,533.5l-2-5.7h-15.7l-2,5.7h-11.7l15-39.9h12.9l15,39.9H449z M439.2,503.9l-5.1,15h10.1L439.2,503.9z"
		/>
</g>
</svg>
