<?xml version="1.0" encoding="utf-8"?>
<!-- Generator: Adobe Illustrator 18.1.0, SVG Export Plug-In . SVG Version: 6.00 Build 0)  -->
<svg version="1.1" id="Layer_1" xmlns="http://www.w3.org/2000/svg" xmlns:xlink="http://www.w3.org/1999/xlink" x="0px" y="0px"
	 viewBox="0 0 150 150" enable-background="new 0 0 150 150" xml:space="preserve">
<circle fill="none" stroke="#FFFFFF" stroke-width="3" stroke-miterlimit="10" cx="75" cy="75" r="71"/>
<path fill="#FFFFFF" d="M29.8,102.3c0.5-0.6,0.8-1.2,1.7-1.3c0.1,0,0.3-0.5,0.3-0.7c0-2.9,0-5.8,0-8.7c0-5.1,0-10.2,0-15.3
	c0-1.6,0.6-2.2,2.2-2.2c5.7,0,11.4,0,17,0c0.8,0,1-0.2,1-1c-0.1-1.2,0-2.3,0-3.5c0-1.3,0.7-2,2-2c1,0,2,0,3,0c0.5,0,0.7-0.2,0.8-0.7
	c1.1-7.2,5.2-12,12.1-14.3c0.8-0.3,1.1-0.6,1-1.4c-0.1-0.6-0.1-1.2,0-1.8c0.2-1.7,1-3,2.7-3.7c0.5-0.2,0.5-0.6,0.5-1
	c0-3.7,0-7.4,0-11.1c0-0.9,0.4-1.3,1.2-1c0.3,0.1,0.6,0.6,0.9,1c0.6,0,1.4-0.1,2.2,0c1.3,0.2,2.6,0.5,3.9,0.9c1.7,0.4,3.5,0.6,5.3,0
	c0,0.2,0.1,0.3,0.1,0.4c0,1.9,0,3.9,0,5.8c0,0.5-0.2,0.7-0.6,0.8c-1.8,0.5-3.4,0.2-5.2-0.2c-1.3-0.3-2.6-0.6-3.9-0.8
	c-0.5-0.1-1.1,0-1.6,0c-0.4,0-0.6,0.3-0.6,0.7c0,1.2,0,2.4,0,3.6c0,0.2,0.2,0.6,0.5,0.7c1.8,0.8,2.7,2.1,2.7,4.1
	c0,0.7-0.2,1.7,0.2,2.2c0.3,0.5,1.2,0.6,1.9,0.8c6.3,2.6,10,7.3,11.1,14c0.1,0.5,0.2,0.7,0.8,0.7c1,0,1.9,0,2.9,0
	c1.4,0,2.1,0.7,2.2,2.1c0,1.1,0,2.2,0,3.2c0,1.1,0,1.1,1.1,1.1c5.6,0,11.2,0,16.8,0c1.8,0,2.3,0.5,2.3,2.3c0,7.9,0,15.7,0,23.6
	c0,0.6,0,1,0.8,1.2c0.5,0.1,0.8,0.8,1.2,1.3c0,1.1,0,2.3,0,3.4c-0.4,0.5-0.9,1-1.3,1.5c-29.3,0-58.6,0-87.9,0
	c-0.4-0.4-0.9-0.9-1.3-1.3C29.8,104.8,29.8,103.6,29.8,102.3z M54.1,89.4c0,3.6,0,7.2,0,10.7c0,0.3,0.1,0.8,0.2,0.8
	c0.5,0.1,1.1,0.1,1.6,0c0.1,0,0.3-0.6,0.3-0.9c0-6.9,0-13.7,0-20.6c0-1.1,0.4-1.8,1.3-2.3c5.4-3.1,10.8-6.3,16.3-9.4
	c0.9-0.5,1.7-0.5,2.6,0c5.4,3.2,10.9,6.3,16.3,9.5c0.9,0.5,1.3,1.2,1.3,2.2c0,6.9,0,13.8,0,20.7c0,0.8,0.3,1,1,1
	c0.7,0,1.1-0.1,1.1-0.9c0-7,0-14.1,0-21.1c0-1.4-0.6-2.5-1.8-3.2c-5.7-3.4-11.4-6.7-17.1-10.1c-1.2-0.7-2.5-0.8-3.7,0
	C67.5,69,61.7,72.3,56,75.6c-1.3,0.7-1.9,1.8-1.9,3.3C54.1,82.4,54.1,85.9,54.1,89.4z M82.6,91.2c0,3,0,5.9,0,8.9c0,0.7,0.2,1.1,1,1
	c1.7-0.1,3.5-0.1,5.2,0c0.8,0,1.1-0.3,1.1-1.1c0-4,0-7.9,0-11.9c0-1.9,0-3.9,0-5.8c-0.1-2.6-1.9-4.2-4.3-3.8c-1.8,0.3-3,1.8-3,3.9
	C82.6,85.4,82.6,88.3,82.6,91.2z M60.1,91.3c0,2.9,0,5.9,0,8.8c0,0.8,0.2,1.1,1,1c1.7-0.1,3.5-0.1,5.2,0c0.8,0,1.1-0.3,1.1-1.1
	c0-4,0-7.9,0-11.9c0-1.9,0-3.9,0-5.8c-0.1-2.6-1.9-4.2-4.3-3.8c-1.8,0.3-3,1.8-3,3.9C60.1,85.4,60.1,88.3,60.1,91.3z M78.6,91.1
	c0-3,0-6,0-9c0-2-1.6-3.6-3.6-3.6c-2,0-3.6,1.6-3.6,3.7c0,6.1,0,12.1,0,18.2c0,0.6,0.2,0.8,0.8,0.8c1.8,0,3.7,0,5.5,0
	c0.7,0,0.9-0.2,0.9-0.9C78.6,97.1,78.6,94.1,78.6,91.1z M40.8,96.5c0-1.3,0-2.6,0-3.9c0-0.5-0.2-0.7-0.7-0.7c-1.1,0-2.2,0-3.3,0
	c-0.5,0-0.7,0.1-0.7,0.7c0,2.6,0,5.2,0,7.7c0,0.6,0.2,0.8,0.8,0.7c1,0,2.1,0,3.1,0c0.6,0,0.8-0.2,0.8-0.8
	C40.8,99,40.8,97.8,40.8,96.5z M40.8,83c0-1.3,0-2.5,0-3.8c0-0.5-0.2-0.8-0.7-0.8c-1.1,0-2.2,0-3.3,0c-0.5,0-0.7,0.2-0.7,0.7
	c0,2.6,0,5.2,0,7.8c0,0.5,0.2,0.6,0.7,0.6c1.1,0,2.3,0,3.4,0c0.5,0,0.7-0.2,0.7-0.7C40.8,85.6,40.8,84.3,40.8,83z M49.7,91.9
	c-1.4,0-2.8,0-4.1,0c-0.2,0-0.5,0.4-0.5,0.6c0,2.6,0,5.2,0,7.8c0,0.5,0.1,0.7,0.6,0.7c1.1,0,2.3,0,3.4,0c0.2,0,0.6-0.3,0.6-0.5
	C49.7,97.7,49.7,94.9,49.7,91.9z M100.3,91.9c0,3,0,5.8,0,8.6c0,0.2,0.4,0.5,0.6,0.5c1.1,0.1,2.3,0,3.4,0c0.4,0,0.6-0.2,0.6-0.6
	c0-2.7,0-5.3,0-8c0-0.2-0.3-0.5-0.5-0.5C103.1,91.9,101.8,91.9,100.3,91.9z M113.8,91.9c-1.5,0-2.8,0-4.2,0c-0.2,0-0.4,0.4-0.4,0.6
	c0,2.6,0,5.2,0,7.8c0,0.5,0.2,0.7,0.7,0.7c1,0,2.1,0,3.1,0c0.6,0,0.8-0.2,0.8-0.8c0-2,0-3.9,0-5.9C113.8,93.6,113.8,92.8,113.8,91.9
	z M49.7,87.5c0-2.9,0-5.8,0-8.6c0-0.2-0.3-0.5-0.5-0.5c-1.2,0-2.4,0-3.5,0c-0.2,0-0.6,0.4-0.6,0.6c0,2.7,0,5.3,0,8
	c0,0.2,0.3,0.5,0.5,0.5C46.9,87.5,48.2,87.5,49.7,87.5z M100.3,87.5c1.4,0,2.8,0,4.1,0c0.2,0,0.5-0.4,0.5-0.6c0-2.6,0-5.2,0-7.8
	c0-0.4-0.2-0.7-0.6-0.7c-1.2,0-2.3,0-3.5,0c-0.2,0-0.5,0.3-0.5,0.5C100.3,81.7,100.3,84.6,100.3,87.5z M113.8,87.5c0-3,0-5.8,0-8.6
	c0-0.2-0.3-0.5-0.5-0.5c-1.2,0-2.3-0.1-3.5,0c-0.2,0-0.6,0.4-0.6,0.5c0,2.7,0,5.3,0,8c0,0.2,0.3,0.5,0.5,0.5
	C111.1,87.5,112.4,87.5,113.8,87.5z"/>
</svg>
