<?xml version="1.0" encoding="utf-8"?>
<!-- Generator: Adobe Illustrator 18.1.0, SVG Export Plug-In . SVG Version: 6.00 Build 0)  -->
<svg version="1.1" id="Layer_1" xmlns="http://www.w3.org/2000/svg" xmlns:xlink="http://www.w3.org/1999/xlink" x="0px" y="0px"
	 viewBox="0 0 80 45" enable-background="new 0 0 80 45" xml:space="preserve">
<g>
	<g>
		<defs>
			<path id="SVGID_1_" d="M67,22.1c0.2-0.9,0.3-1.8,0.3-2.7c0-6.9-5.6-12.5-12.5-12.5c-0.8,0-1.7,0.1-2.5,0.2
				c-4.1-4.3-9.8-6.9-16.2-6.9c-9,0-16.8,5.4-20.4,13.1C7.3,13.6,0.6,20.5,0.6,29c0,8.8,7.1,15.9,15.9,15.9h44.2
				c6.8,0,12.3-5.5,12.3-12.3C73,28.1,70.6,24.2,67,22.1z"/>
		</defs>
		<clipPath id="SVGID_2_">
			<use xlink:href="#SVGID_1_"  overflow="visible"/>
		</clipPath>
		<g clip-path="url(#SVGID_2_)">
			<g>
				<g>
					<polygon fill="#59CAEA" points="48.3,13.2 53.6,33.1 57.8,6.7 					"/>
				</g>
				<g>
					<polygon fill="#01AAB5" points="36.8,21.1 53.6,33.1 48.3,13.2 					"/>
				</g>
				<g>
					<polygon fill="#F37326" points="23.7,17 14.9,22.5 36.8,21.1 					"/>
				</g>
				<g>
					<polygon fill="#F37029" points="16.5,32.5 17.5,38.3 53.6,33.1 36.8,21.1 					"/>
				</g>
				<g>
					<polygon fill="#B02C9F" points="63.4,-1.9 61.8,0.6 61.8,0.6 65.1,-1.6 					"/>
				</g>
				<g>
					<polygon fill="#F37029" points="6.2,38.3 17.5,38.3 16.5,32.5 					"/>
				</g>
				<g>
					<polygon fill="#F8931D" points="36.8,21.1 14.9,22.5 16.5,32.5 					"/>
				</g>
				<g>
					<polygon fill="#F7991E" points="14.9,22.5 4.2,36.4 6.2,38.3 16.5,32.5 					"/>
				</g>
				<g>
					<polygon fill="#068CA9" points="64,22.7 62.3,5.6 57.8,6.7 					"/>
				</g>
				<g>
					<polygon fill="#DA3420" points="18,15.2 14.9,22.5 23.7,17 					"/>
				</g>
				<g>
					<polygon fill="#B02C9F" points="61.8,0.6 73,-0.1 65.1,-1.6 					"/>
				</g>
				<g>
					<polygon fill="#01B7D4" points="64,22.7 53.6,33.1 69.1,36.2 64,22.7 64,22.7 					"/>
				</g>
				<g>
					<polygon fill="#A360B9" points="57.8,6.7 62.3,5.6 61.8,0.6 61.8,0.6 61.8,0.6 					"/>
				</g>
				<g>
					<polygon fill="#00A7B0" points="53.6,33.1 64,22.7 64,22.7 57.8,6.7 					"/>
				</g>
				<g>
					<rect x="64" y="22.7" fill="#D61E41" width="0" height="0"/>
				</g>
				<g>
					<polygon fill="#C2349B" points="73,-0.1 73,-0.1 70.2,-4.9 65.1,-1.6 					"/>
				</g>
				<g>
					<polygon fill="#D61E41" points="64,22.7 64,22.7 64,22.7 					"/>
				</g>
				<g>
					<polygon fill="#EF4136" points="-3.6,15.4 -8.5,23.7 14.9,22.5 					"/>
				</g>
				<g>
					<polygon fill="#F8931D" points="39.5,44.1 53.6,33.1 17.5,38.3 					"/>
				</g>
				<g>
					<path fill="#F36F26" d="M5,47.8c6.2-4.7,12.5-9.5,12.5-9.5H6.2L5,47.8z"/>
				</g>
				<g>
					<polygon fill="#D61E41" points="73,-0.1 73,-0.1 73,-0.1 					"/>
				</g>
				<g>
					<polygon fill="#D60EB1" points="72.9,-16.5 66.1,-12 67.9,-8.8 					"/>
				</g>
				<g>
					<polygon fill="#FCB315" points="-8.5,23.7 4.2,36.4 14.9,22.5 					"/>
				</g>
				<g>
					<polygon fill="#00A8CB" points="48.3,13.2 57.8,6.7 45.7,3.1 					"/>
				</g>
				<g>
					<polygon fill="#08ACB7" points="57.8,6.7 61.8,0.6 45.3,1.6 45.7,3.1 					"/>
				</g>
				<g>
					<polygon fill="#008A9F" points="63.4,-1.9 53.5,-3.7 45.3,1.6 61.8,0.6 					"/>
				</g>
				<g>
					<polygon fill="#F7991E" points="23.7,17 36.8,21.1 33.7,10.7 					"/>
				</g>
				<g>
					<polygon fill="#FFC20E" points="53.6,33.1 39.5,44.1 57,48.8 68.2,48.8 					"/>
				</g>
				<g>
					<polygon fill="#2F7888" points="64,22.7 73,26.9 73,13.7 64,22.7 					"/>
				</g>
				<g>
					<polygon fill="#D61E41" points="73,-0.1 73,-0.1 73,-0.1 					"/>
				</g>
				<g>
					<polygon fill="#00A8CB" points="64,22.7 64,22.7 73,13.7 73,2.8 62.3,5.6 					"/>
				</g>
				<g>
					<polygon fill="#FD9F13" points="53.6,33.1 68.2,48.8 73,48.8 73,46.4 69.1,36.2 					"/>
				</g>
				<g>
					<polygon fill="#59CAEA" points="73,46.4 73,36.9 69.1,36.2 					"/>
				</g>
				<g>
					<polygon fill="#08ACB7" points="69.1,36.2 73,36.9 73,26.9 64,22.7 					"/>
				</g>
				<g>
					<polygon fill="#8E1D83" points="73,-0.1 73,-0.1 73,-6.7 70.2,-4.9 					"/>
				</g>
				<g>
					<polygon fill="#8C1670" points="67.9,-8.8 70.2,-4.9 73,-6.7 73,-16.6 72.9,-16.5 					"/>
				</g>
				<g>
					<polygon fill="#D61E41" points="72.9,-16.5 73,-16.6 73,-16.7 					"/>
				</g>
				<g>
					<polygon fill="#C2349B" points="66.1,-12 72.9,-16.5 73,-16.7 73,-18.5 63.5,-16.4 					"/>
				</g>
				<g>
					<polygon fill="#B911D1" points="63.4,-1.9 67.9,-8.8 66.1,-12 53.5,-3.7 					"/>
				</g>
				<g>
					<polygon fill="#38C5ED" points="15.7,0.6 14.1,-4.4 9.7,-0.6 					"/>
				</g>
				<g>
					<polygon fill="#38C5ED" points="43.1,-7.7 43.3,-10.7 40.2,-9.6 					"/>
				</g>
				<g>
					<polygon fill="#38C5ED" points="28.7,-8.7 27.3,-6.9 29.8,-5.5 					"/>
				</g>
				<g>
					<polygon fill="#38C5ED" points="-11.3,-17.4 -13.4,-18.5 -14.2,-15.6 					"/>
				</g>
				<g>
					<polygon fill="#38C5ED" points="2.5,-32.8 0.1,-33.8 -0.2,-30.8 					"/>
				</g>
				<g>
					<polygon fill="#039BB1" points="17.8,-0.8 17.5,-2.7 16.6,-1.3 					"/>
				</g>
				<g>
					<polygon fill="#B7059A" points="65.1,-1.6 70.2,-4.9 67.9,-8.8 63.4,-1.9 					"/>
				</g>
				<g>
					<path fill="#F5821F" d="M5,47.8l-0.1,1h13.9l-1.3-10.5C17.5,38.3,11.2,43.1,5,47.8z"/>
				</g>
				<g>
					<polygon fill="#F5821F" points="33.5,48.8 57,48.8 39.5,44.1 					"/>
				</g>
				<g>
					<path fill="#FAA21C" d="M6.2,38.3l-1.9-1.9l-9.5,12.4h8.9c0.4-0.3,0.9-0.7,1.3-1L6.2,38.3z"/>
				</g>
				<g>
					<path fill="#F5821F" d="M3.6,48.8h1.2l0.1-1C4.5,48.1,4.1,48.5,3.6,48.8z"/>
				</g>
				<g>
					<polygon fill="#F9A01C" points="17.5,38.3 18.8,48.8 33.5,48.8 39.5,44.1 					"/>
				</g>
				<g>
					<polygon fill="#8E002F" points="-21.3,8.6 -21.3,24.2 -6.9,14.2 					"/>
				</g>
				<g>
					<polygon fill="#EE1B39" points="-3.6,15.4 -6.9,14.2 -21.3,24.2 -21.3,37.9 -8.5,23.7 					"/>
				</g>
				<g>
					<polygon fill="#F89B1D" points="4.2,36.4 -8.5,23.7 -5.3,48.8 					"/>
				</g>
				<g>
					<polygon fill="#EF474A" points="-8.5,23.7 -21.3,37.9 -21.3,48.8 					"/>
				</g>
				<g>
					<polygon fill="#F58120" points="-5.3,48.8 -8.5,23.7 -21.3,48.8 					"/>
				</g>
				<g>
					<polygon fill="#A20994" points="69.3,-32.1 73,-34.2 73,-45.5 66.6,-34.3 					"/>
				</g>
				<g>
					<polygon fill="#DB3BBF" points="61.3,-38.7 60.2,-34.1 63.5,-28.8 66.6,-34.3 					"/>
				</g>
				<g>
					<polygon fill="#CF2BAD" points="69.3,-32.1 66.6,-34.3 63.5,-28.8 63.5,-28.8 					"/>
				</g>
				<g>
					<polygon fill="#771F80" points="63.1,-45.5 53.1,-45.5 61.3,-38.7 					"/>
				</g>
				<g>
					<polygon fill="#E26EC2" points="63.5,-28.8 60.2,-34.1 57.8,-28.7 63.5,-28.8 					"/>
				</g>
				<g>
					<polygon fill="#D61E41" points="63.5,-28.8 63.5,-28.8 63.5,-28.8 					"/>
				</g>
				<g>
					<polygon fill="#A20994" points="52.8,-40.2 43,-39.8 50.7,-31.9 					"/>
				</g>
				<g>
					<polygon fill="#D60EB1" points="60.7,-22.3 61.7,-20.5 64.1,-22.5 					"/>
				</g>
				<g>
					<polygon fill="#04769F" points="51.4,-25.5 52.3,-23.7 53.5,-25.4 					"/>
				</g>
				<g>
					<polygon fill="#0181B5" points="43.1,-18.7 32.6,-15 42.2,-14 					"/>
				</g>
				<g>
					<polygon fill="#911A92" points="73,-25 63.5,-16.4 73,-18.5 					"/>
				</g>
				<g>
					<polygon fill="#CA50B4" points="63.5,-28.8 63.5,-28.8 67.7,-25.7 73,-26.9 73,-27.4 					"/>
				</g>
				<g>
					<polygon fill="#920479" points="73,-28.9 73,-34.2 69.3,-32.1 					"/>
				</g>
				<g>
					<polygon fill="#A20994" points="63.5,-28.8 73,-27.4 73,-28.9 69.3,-32.1 					"/>
				</g>
				<g>
					<polygon fill="#B92E96" points="66.1,-12 63.5,-16.4 53.5,-3.7 					"/>
				</g>
				<g>
					<polygon fill="#ED4456" points="-12.2,-0.9 -0.1,9.5 2.4,-3.1 					"/>
				</g>
				<g>
					<polygon fill="#EF4136" points="3.7,-7.1 -3.7,-13.4 -3.5,-6.8 					"/>
				</g>
				<g>
					<polygon fill="#EF4136" points="8.4,-7.1 10.4,-6 11,-7.8 					"/>
				</g>
				<g>
					<polygon fill="#D60EB1" points="54.2,-6.8 50.9,-11.6 50,-7.8 					"/>
				</g>
				<g>
					<polygon fill="#38C5ED" points="35,-37.8 31.4,-40.6 30.1,-35.8 					"/>
				</g>
				<g>
					<polygon fill="#38C5ED" points="28.8,-30.6 29.2,-28.8 31.4,-29.8 					"/>
				</g>
				<g>
					<polygon fill="#0181B5" points="28.9,-39.5 24.9,-36.5 29.2,-37.4 					"/>
				</g>
				<g>
					<polygon fill="#D60EB1" points="37.5,-45.4 32.7,-45.5 34.9,-43.1 					"/>
				</g>
				<g>
					<polygon fill="#D61E42" points="2.4,-3.1 -0.1,9.5 10,3 					"/>
				</g>
				<g>
					<polygon fill="#D61E42" points="-6.9,14.2 -3.6,15.4 -0.1,9.5 					"/>
				</g>
				<g>
					<polygon fill="#EE1C36" points="-3.6,15.4 14.9,22.5 -0.1,9.5 					"/>
				</g>
				<g>
					<polygon fill="#EE1748" points="-12.2,-0.9 -14.1,-2.6 -14.1,-2.6 -20.6,3.1 -0.1,9.5 -12.2,-0.9 					"/>
				</g>
				<g>
					<polygon fill="#D61E42" points="-14.1,-2.6 -14.1,-2.6 -21.3,-8.8 -21.3,2.9 -20.6,3.1 					"/>
				</g>
				<g>
					<polygon fill="#EE5A2F" points="14.9,22.5 18,15.2 -0.1,9.5 					"/>
				</g>
				<g>
					<polygon fill="#D61E42" points="-21.3,2.9 -21.3,3.7 -20.6,3.1 					"/>
				</g>
				<g>
					<polygon fill="#E91B3B" points="-20.6,3.1 -21.3,3.7 -21.3,8.6 -6.9,14.2 -0.1,9.5 					"/>
				</g>
				<g>
					<polygon fill="#D61E42" points="-8.9,-9.7 -15.4,-9.5 -13.5,-7.8 					"/>
				</g>
				<g>
					
						<rect x="-14.5" y="-1.8" transform="matrix(0.7562 0.6543 -0.6543 0.7562 -4.3674 8.1799)" fill="#D61E42" width="2.6" height="0"/>
				</g>
				<g>
					
						<rect x="-22.4" y="-5.7" transform="matrix(0.7562 0.6543 -0.6543 0.7562 -8.0474 10.1948)" fill="#C40F3F" width="9.4" height="0"/>
				</g>
				<g>
					<polygon fill="#00A8CB" points="45.3,1.6 29.9,-1.6 33.7,10.7 45.7,3.1 					"/>
				</g>
				<g>
					<polygon fill="#039BB1" points="22.1,4.5 18,15.2 29.9,-1.6 					"/>
				</g>
				<g>
					<polygon fill="#01B7D4" points="45.3,1.6 53.5,-3.7 29.9,-1.6 					"/>
				</g>
				<g>
					<polygon fill="#38C5ED" points="29.9,-1.6 53.5,-3.7 39,-6.4 					"/>
				</g>
				<g>
					<polygon fill="#058EA4" points="36.8,21.1 48.3,13.2 33.7,10.7 					"/>
				</g>
				<g>
					<polygon fill="#01B7D4" points="33.7,10.7 48.3,13.2 45.7,3.1 					"/>
				</g>
				<g>
					<polygon fill="#B02C9F" points="73,2.8 73,-0.1 62.3,5.6 					"/>
				</g>
				<g>
					<polygon fill="#D950B5" points="61.8,0.6 62.3,5.6 73,-0.1 61.8,0.6 					"/>
				</g>
				<g>
					<polygon fill="#6C0570" points="66.6,-34.3 73,-45.5 61.6,-38.5 					"/>
				</g>
				<g>
					<polygon fill="#43075E" points="61.3,-38.7 61.6,-38.5 73,-45.5 63.1,-45.5 					"/>
				</g>
				<g>
					<polygon fill="#EF4136" points="-9.3,-28.6 -0.8,-28.6 -0.8,-16.8 					"/>
				</g>
				<g>
					<polygon fill="#FCB315" points="-9.3,-28.6 -16.5,-23.2 -4.5,-21.9 					"/>
				</g>
				<g>
					<polygon fill="#ED1A43" points="-0.1,9.5 18,15.2 10,3 					"/>
				</g>
				<g>
					<polygon fill="#08ACB7" points="10,3 18,15.2 22.1,4.5 					"/>
				</g>
				<g>
					<polygon fill="#01B7D4" points="29.9,-1.6 18,15.2 33.7,10.7 					"/>
				</g>
				<g>
					<polygon fill="#01AAB5" points="18,15.2 23.7,17 33.7,10.7 					"/>
				</g>
				<g>
					<polygon fill="#E26EC2" points="1.6,-30.9 1.9,-30 0.8,-30.3 					"/>
				</g>
			</g>
			<g>
				<path fill="#43075E" d="M2.7-24.1C2.5-24.1,2.2-24,1.8-24c-0.4,0-0.8-0.1-1.1-0.4c-0.2-0.2-0.4-0.6-0.4-1.1
					c0-0.9,0.6-1.5,1.6-1.5c0.3,0,0.6,0.1,0.7,0.1l-0.1,0.3c-0.2-0.1-0.3-0.1-0.6-0.1c-0.7,0-1.2,0.4-1.2,1.2c0,0.7,0.4,1.2,1.1,1.2
					c0.2,0,0.4,0,0.5-0.1v-0.9H1.7v-0.3h0.9V-24.1z"/>
				<path fill="#43075E" d="M4.8-25.3H3.7v1h1.2v0.3H3.3v-2.9h1.5v0.3H3.7v0.9h1.1V-25.3z"/>
				<path fill="#43075E" d="M7.9-25.5c0,1-0.6,1.5-1.3,1.5c-0.8,0-1.3-0.6-1.3-1.5c0-0.9,0.6-1.5,1.3-1.5
					C7.4-26.9,7.9-26.3,7.9-25.5z M5.7-25.4c0,0.6,0.3,1.2,0.9,1.2c0.6,0,0.9-0.5,0.9-1.2c0-0.6-0.3-1.2-0.9-1.2
					C6-26.6,5.7-26,5.7-25.4z"/>
				<path fill="#43075E" d="M10.9-25.3c0-0.4,0-0.9,0-1.2h0c-0.1,0.3-0.2,0.7-0.4,1.1L10-24H9.7l-0.5-1.4c-0.1-0.4-0.3-0.8-0.3-1.1
					h0c0,0.4,0,0.8-0.1,1.3L8.8-24H8.4l0.2-2.9h0.5l0.5,1.4c0.1,0.4,0.2,0.7,0.3,1h0c0.1-0.3,0.2-0.6,0.3-1l0.5-1.4h0.5l0.2,2.9H11
					L10.9-25.3z"/>
				<path fill="#43075E" d="M13.5-25.3h-1.1v1h1.2v0.3H12v-2.9h1.5v0.3h-1.2v0.9h1.1V-25.3z"/>
				<path fill="#43075E" d="M14.8-26.5h-0.9v-0.3h2.1v0.3h-0.9v2.6h-0.4V-26.5z"/>
				<path fill="#43075E" d="M16.5-26.8c0.2,0,0.5-0.1,0.7-0.1c0.4,0,0.7,0.1,0.8,0.2c0.1,0.1,0.2,0.3,0.2,0.5c0,0.4-0.2,0.6-0.5,0.7
					v0c0.2,0.1,0.4,0.3,0.4,0.6c0.1,0.4,0.2,0.7,0.2,0.8h-0.4c0-0.1-0.1-0.3-0.2-0.7c-0.1-0.4-0.2-0.5-0.6-0.6h-0.3v1.2h-0.4V-26.8z
					 M16.8-25.5h0.4c0.4,0,0.6-0.2,0.6-0.5c0-0.4-0.3-0.5-0.7-0.5c-0.2,0-0.3,0-0.4,0V-25.5z"/>
				<path fill="#43075E" d="M19.2-26.9v2.9h-0.4v-2.9H19.2z"/>
				<path fill="#43075E" d="M21.9-24.1C21.8-24,21.5-24,21.2-24c-0.8,0-1.4-0.5-1.4-1.5c0-0.9,0.6-1.5,1.5-1.5
					c0.4,0,0.6,0.1,0.7,0.1l-0.1,0.3c-0.1-0.1-0.3-0.1-0.6-0.1c-0.7,0-1.1,0.4-1.1,1.2c0,0.7,0.4,1.2,1.1,1.2c0.2,0,0.5,0,0.6-0.1
					L21.9-24.1z"/>
				<path fill="#43075E" d="M0.5-22.6c0.2,0,0.4-0.1,0.7-0.1c0.4,0,0.6,0.1,0.8,0.2c0.1,0.1,0.2,0.3,0.2,0.5c0,0.3-0.2,0.5-0.5,0.6
					v0C2-21.2,2.3-21,2.3-20.6c0,0.2-0.1,0.4-0.2,0.6c-0.2,0.2-0.5,0.3-1,0.3c-0.3,0-0.5,0-0.6,0V-22.6z M0.9-21.4h0.3
					c0.4,0,0.6-0.2,0.6-0.5c0-0.3-0.3-0.5-0.6-0.5c-0.2,0-0.3,0-0.3,0V-21.4z M0.9-20c0.1,0,0.2,0,0.3,0c0.4,0,0.7-0.1,0.7-0.6
					c0-0.4-0.3-0.6-0.7-0.6H0.9V-20z"/>
				<path fill="#43075E" d="M3.3-20.7L3-19.7H2.7l1-2.9h0.4l1,2.9H4.7l-0.3-0.9H3.3z M4.3-20.9L4-21.8c-0.1-0.2-0.1-0.4-0.1-0.5h0
					c0,0.2-0.1,0.3-0.1,0.5l-0.3,0.8H4.3z"/>
				<path fill="#43075E" d="M7.5-19.8c-0.1,0.1-0.4,0.1-0.8,0.1c-0.8,0-1.4-0.5-1.4-1.5c0-0.9,0.6-1.5,1.5-1.5
					c0.4,0,0.6,0.1,0.7,0.1l-0.1,0.3c-0.1-0.1-0.3-0.1-0.6-0.1c-0.7,0-1.1,0.4-1.1,1.2c0,0.7,0.4,1.2,1.1,1.2c0.2,0,0.5,0,0.6-0.1
					L7.5-19.8z"/>
				<path fill="#43075E" d="M8-22.6h0.4v1.4h0c0.1-0.1,0.2-0.2,0.2-0.3l0.9-1.1H10l-1,1.2l1.1,1.7H9.6l-0.9-1.4l-0.3,0.3v1.1H8
					V-22.6z"/>
				<path fill="#43075E" d="M12.5-19.9c-0.2,0.1-0.5,0.2-0.9,0.2c-0.4,0-0.8-0.1-1.1-0.4c-0.2-0.2-0.4-0.6-0.4-1.1
					c0-0.9,0.6-1.5,1.6-1.5c0.3,0,0.6,0.1,0.7,0.1l-0.1,0.3c-0.2-0.1-0.3-0.1-0.6-0.1c-0.7,0-1.2,0.4-1.2,1.2c0,0.7,0.4,1.2,1.1,1.2
					c0.2,0,0.4,0,0.5-0.1V-21h-0.6v-0.3h0.9V-19.9z"/>
				<path fill="#43075E" d="M13.2-22.6c0.2,0,0.5-0.1,0.7-0.1c0.4,0,0.7,0.1,0.8,0.2c0.1,0.1,0.2,0.3,0.2,0.5c0,0.4-0.2,0.6-0.5,0.7
					v0c0.2,0.1,0.4,0.3,0.4,0.6c0.1,0.4,0.2,0.7,0.2,0.8h-0.4c0-0.1-0.1-0.3-0.2-0.7c-0.1-0.4-0.2-0.5-0.6-0.6h-0.3v1.2h-0.4V-22.6z
					 M13.6-21.3h0.4c0.4,0,0.6-0.2,0.6-0.5c0-0.4-0.3-0.5-0.7-0.5c-0.2,0-0.3,0-0.4,0V-21.3z"/>
				<path fill="#43075E" d="M18-21.2c0,1-0.6,1.5-1.3,1.5c-0.8,0-1.3-0.6-1.3-1.5c0-0.9,0.6-1.5,1.3-1.5C17.5-22.7,18-22.1,18-21.2z
					 M15.8-21.2c0,0.6,0.3,1.2,0.9,1.2c0.6,0,0.9-0.5,0.9-1.2c0-0.6-0.3-1.2-0.9-1.2C16.1-22.4,15.8-21.8,15.8-21.2z"/>
				<path fill="#43075E" d="M19-22.6v1.7c0,0.6,0.3,0.9,0.7,0.9c0.4,0,0.7-0.3,0.7-0.9v-1.7h0.4v1.7c0,0.9-0.5,1.2-1.1,1.2
					c-0.6,0-1-0.3-1-1.2v-1.7H19z"/>
				<path fill="#43075E" d="M21.4-19.7v-2.9h0.4l0.9,1.5c0.2,0.3,0.4,0.6,0.5,0.9l0,0c0-0.4,0-0.7,0-1.2v-1.2h0.3v2.9h-0.4l-0.9-1.5
					c-0.2-0.3-0.4-0.6-0.5-1l0,0c0,0.4,0,0.7,0,1.2v1.2H21.4z"/>
				<path fill="#43075E" d="M24.3-22.6c0.2,0,0.5-0.1,0.8-0.1c0.5,0,0.9,0.1,1.2,0.4c0.3,0.2,0.4,0.6,0.4,1c0,0.5-0.1,0.9-0.4,1.1
					c-0.3,0.3-0.7,0.4-1.3,0.4c-0.3,0-0.5,0-0.7,0V-22.6z M24.7-20c0.1,0,0.2,0,0.4,0c0.8,0,1.2-0.4,1.2-1.2c0-0.7-0.4-1.1-1.2-1.1
					c-0.2,0-0.3,0-0.4,0V-20z"/>
			</g>
		</g>
	</g>
	<g>
		<path fill="#FFFFFF" d="M23.2,32.3V31c-3.8,0-6.1-2.3-6.1-5.4c0-3.1,2.3-5.3,6.1-5.3v-1.1h2.7v1.1c3.7,0,6.1,2.3,6.1,5.3
			S29.6,31,25.8,31v1.3H23.2z M23.2,22.6c-2,0-3.3,1.2-3.3,3c0,1.8,1.3,3,3.3,3V22.6z M25.8,28.6c2,0,3.3-1.2,3.3-3
			c0-1.8-1.3-3-3.3-3V28.6z"/>
		<path fill="#FFFFFF" d="M34.1,19.6h5c2.9,0,4.7,1.7,4.7,4.3c0,2.8-2.2,4.3-4.9,4.3h-2v3.7h-2.7V19.6z M38.9,25.7
			c1.3,0,2.1-0.8,2.1-1.9c0-1.2-0.8-1.9-2.2-1.9h-2.1v3.7H38.9z"/>
		<path fill="#FFFFFF" d="M45.3,25.7c0-3.5,2.6-6.3,6.4-6.3c2.3,0,3.6,0.9,4.7,2l-1.6,1.9c-0.9-0.9-1.7-1.4-3.1-1.4
			c-2.1,0-3.5,1.7-3.5,3.8c0,2.1,1.5,3.8,3.5,3.8c1.4,0,2.3-0.6,3.2-1.4l1.7,1.8c-1.3,1.3-2.7,2.1-5,2.1
			C47.9,32,45.3,29.2,45.3,25.7z"/>
	</g>
</g>
</svg>
