<?xml version="1.0" encoding="utf-8"?>
<!-- Generator: Adobe Illustrator 18.1.0, SVG Export Plug-In . SVG Version: 6.00 Build 0)  -->
<svg version="1.1" id="Layer_1" xmlns="http://www.w3.org/2000/svg" xmlns:xlink="http://www.w3.org/1999/xlink" x="0px" y="0px"
	 viewBox="0 0 300 300" enable-background="new 0 0 300 300" xml:space="preserve">
<circle fill="none" stroke="#C9C9C9" stroke-width="8" stroke-miterlimit="10" cx="150.2" cy="150" r="135.9"/>
<circle fill="none" stroke="#C9C9C9" stroke-width="7" stroke-miterlimit="10" cx="150.7" cy="150.5" r="10.1"/>
<g>
	<path fill="none" stroke="#C9C9C9" stroke-width="8" stroke-miterlimit="10" d="M175.6,125.2c6.6,6.4,10.8,15.5,10.8,25.6
		s-4.2,19.2-10.8,25.6"/>
	<path fill="none" stroke="#C9C9C9" stroke-width="8" stroke-miterlimit="10" d="M193,108.2c10.8,10.8,17.5,25.8,17.5,42.3
		c0,16.7-6.9,32-17.9,42.8"/>
	<path fill="none" stroke="#C9C9C9" stroke-width="8" stroke-miterlimit="10" d="M211.4,87.8c16.5,16,26.5,38.1,26.5,62.7
		c0,24.1-9.6,45.7-25.3,61.5"/>
</g>
<g>
	<path fill="none" stroke="#C9C9C9" stroke-width="8" stroke-miterlimit="10" d="M125.2,125.2c-6.6,6.4-10.8,15.5-10.8,25.6
		s4.2,19.2,10.8,25.6"/>
	<path fill="none" stroke="#C9C9C9" stroke-width="8" stroke-miterlimit="10" d="M107.5,108.2C96.6,119,90,134,90,150.5
		c0,16.7,6.9,32,17.9,42.8"/>
	<path fill="none" stroke="#C9C9C9" stroke-width="8" stroke-miterlimit="10" d="M89.3,87.8c-16.5,16-26.5,38.1-26.5,62.7
		c0,24.1,9.6,45.7,25.3,61.5"/>
</g>
</svg>
