<?xml version="1.0" encoding="utf-8"?>
<!-- Generator: Adobe Illustrator 18.1.0, SVG Export Plug-In . SVG Version: 6.00 Build 0)  -->
<svg version="1.1" id="Layer_1" xmlns="http://www.w3.org/2000/svg" xmlns:xlink="http://www.w3.org/1999/xlink" x="0px" y="0px"
	 viewBox="0 0 200 50" enable-background="new 0 0 200 50" xml:space="preserve">
<g>
	<g>
		<g>
			<path fill="#FFFFFF" d="M168.1,11.6c8.5,0,15.3,6.9,15.3,15.4c0,1.6-0.2,3.1-0.7,4.6c0.8-1.9,1.3-3.9,1.3-6.1
				c0-8.5-6.9-15.4-15.3-15.4c-6.9,0-12.7,4.6-14.6,10.8C156.4,15.5,161.8,11.6,168.1,11.6z"/>
			<path fill="#FFFFFF" d="M180.1,14.1c6,6,6,15.7-0.1,21.7c-1.1,1.1-2.4,2-3.7,2.8c1.9-0.8,3.7-1.9,5.2-3.4c6-6,6-15.7,0.1-21.7
				c-4.9-4.9-12.2-5.8-18-2.7C169.1,8.6,175.6,9.7,180.1,14.1z"/>
			<path fill="#FFFFFF" d="M186.8,24.4c0,8.5-6.9,15.3-15.4,15.3c-1.6,0-3.1-0.2-4.6-0.7c1.9,0.8,3.9,1.3,6.1,1.3
				c8.5,0,15.4-6.9,15.4-15.3c0-6.9-4.6-12.7-10.8-14.6C182.9,12.6,186.8,18.1,186.8,24.4z"/>
			<path fill="#FFFFFF" d="M184.3,36.3c-6,6-15.7,6-21.7-0.1c-1.1-1.1-2-2.4-2.8-3.7c0.8,1.9,1.9,3.7,3.4,5.2c6,6,15.7,6,21.7,0.1
				c4.9-4.9,5.8-12.2,2.7-18C189.9,25.3,188.7,31.9,184.3,36.3z"/>
			<path fill="#FFFFFF" d="M174.1,43c-8.5,0-15.3-6.9-15.3-15.4c0-1.6,0.2-3.1,0.7-4.6c-0.8,1.9-1.3,3.9-1.3,6.1
				c0,8.5,6.9,15.4,15.3,15.4c6.9,0,12.7-4.6,14.6-10.8C185.8,39.2,180.4,43,174.1,43z"/>
			<path fill="#FFFFFF" d="M162.1,40.5c-6-6-6-15.7,0.1-21.7c1.1-1.1,2.4-2,3.7-2.8c-1.9,0.8-3.7,1.9-5.2,3.4c-6,6-6,15.7-0.1,21.7
				c4.9,4.9,12.2,5.8,18,2.7C173.1,46.1,166.6,45,162.1,40.5z"/>
		</g>
		<path fill="#FFFFFF" d="M164.5,1.9c14.2-3.2,28.3,5.7,31.5,19.8c1.4,6.3,0.5,12.6-2.3,17.9c3.3-5.6,4.5-12.3,3-19.1
			c-3.2-14.2-17.3-23-31.5-19.8c-7.9,1.8-14.1,6.9-17.5,13.6C151.2,8.2,157.1,3.6,164.5,1.9z"/>
	</g>
	<polygon fill="#FFFFFF" points="181.2,24.9 181.2,23.5 178.2,23.5 177.9,23.5 176,23.5 176,30.6 178.2,30.6 178.2,27.7 180.5,27.7 
		180.5,26.4 178.2,26.4 178.2,24.9 	"/>
	<path fill="#FFFFFF" d="M166.5,27.8c0.9,0,1.9-1,1.9-2.2c0-1.2-1-2.1-2.3-2.1H164H164h-2.2v7.2h2.2v-5.8h0.9c0.6,0,1.2,0.5,1.2,1.2
		c0,0.6-0.5,1.2-1.2,1.2h-0.8l1.8,3.5h2.5L166.5,27.8z"/>
	<path fill="#FFFFFF" d="M173.6,27.8c0.9,0,1.9-1,1.9-2.2c0-1.2-1-2.1-2.3-2.1h-2.1h-0.1h-2.2v7.2h2.2v-5.8h0.9
		c0.6,0,1.2,0.5,1.2,1.2c0,0.6-0.5,1.2-1.2,1.2h-0.8l1.8,3.5h2.5L173.6,27.8z"/>
</g>
<g>
	<path fill="#FFFFFF" d="M13.9,5c0.2-0.1,0.2,0.2,0.3,0.3c2.9,5.5,5.8,11.1,7.8,17.1c0.2,0.5,0.3,0.9,0.4,1.4
		c0.6,1.9,0.4,3.7-0.6,5.4c-3.1,5.2-7.2,9.3-13.2,11.2c-0.6,0.2-1.3,0.3-2,0.3C14.5,29.9,15.3,17.7,13.9,5z"/>
	<path fill="#FFFFFF" d="M11.8,27.2c-2.3-5.4-6-9.6-9.8-13.8c0.3-0.1,0.5,0,0.8,0.1c3.2,1.4,6.3,2.8,9.4,4.3
		c0.6,0.3,0.9,0.6,0.9,1.3C13.2,21.7,12.8,24.4,11.8,27.2z"/>
	<path fill="#FFFFFF" d="M23.8,24.2c-0.7-1.8-1.4-3.5-2-5.1c-0.2-0.4,0.1-0.6,0.4-0.8c1.3-1.2,2.9-1.4,4.6-1c1,0.2,1.8,0.7,2.7,1.3
		C26.4,19.3,24.7,21.2,23.8,24.2z"/>
</g>
<g>
	<path fill="#FFFFFF" d="M50.5,21.7c-0.7,5.1-1.4,10.1-2.1,15.1c-1.5,0-2.9,0-4.3,0c-1.7-3.6-3.4-7.1-5.1-10.7c-0.1,0-0.1,0-0.2,0
		c-0.6,3.5-1,7.1-1.5,10.7c-1,0-2.1,0-3.2,0c0.7-5,1.4-10,2.1-15.1c1.4,0,2.9,0,4.5,0c1.6,3.4,3.3,6.9,4.9,10.4c0.1,0,0.1,0,0.2,0
		c0.5-3.5,1-7,1.5-10.5C48.3,21.7,49.3,21.7,50.5,21.7z"/>
	<path fill="#FFFFFF" d="M68.9,21.7c1.4,0,2.8,0,4.3,0c-2.6,2.4-5.1,4.7-7.7,7c2.1,2.7,4.1,5.4,6.2,8.1c-1.6,0-3,0-4.6,0
		c-1.6-2.3-3.3-4.6-5-7c-0.1,0-0.1,0-0.2,0c-0.4,2.3-0.7,4.6-1,7c-1.1,0-2.2,0-3.3,0c0.7-5,1.4-10.1,2.1-15.1c1.2,0,2.2,0,3.2,0
		c-0.3,2-0.6,4-0.8,6c0.1,0,0.1,0.1,0.2,0.1C64.5,25.8,66.7,23.7,68.9,21.7z"/>
	<path fill="#FFFFFF" d="M108.4,24.6c-0.6,4.1-1.1,8.2-1.7,12.3c-1.1,0-2.1,0-3.2,0c0.6-4,1.1-8.1,1.7-12.2c-1.4,0-2.8,0-4.2,0
		c-0.2-1,0.3-1.9,0.2-2.9c4,0,7.9,0,11.9,0c0.1,1-0.3,1.8-0.2,2.8C111.3,24.6,109.9,24.6,108.4,24.6z"/>
	<path fill="#FFFFFF" d="M53.4,33.1c1,0,1.7,0.7,1.7,1.6c0,1.2-1,2.2-2.2,2.2c-1,0-1.6-0.6-1.6-1.6C51.3,34,52.2,33.1,53.4,33.1z"/>
	<path fill="#FFFFFF" d="M82,30.4c1.6-0.4,2.7-1.4,3.3-2.9c0.3-0.8,0.4-1.5,0.3-2.3c-0.1-1.2-0.6-2.2-1.7-2.7
		c-0.9-0.5-1.9-0.6-3-0.7c-1.9-0.1-3.8,0-5.7,0c-0.2,0-0.4-0.1-0.6,0.1c-0.7,5-1.4,10.1-2.1,15c1.1,0,2.2,0,3.2,0
		c0.3-2.1,0.6-4,0.8-6c0.6,0,1,0,1.7,0c0.8,2,1.6,4,2.4,6.1c1.3,0,2.6,0,3.9,0c-1-2.1-2-4.3-2.9-6.3C81.8,30.5,81.9,30.4,82,30.4z
		 M81.3,27.6c-0.4,0.3-0.9,0.3-1.4,0.3c-0.9,0.1-1.8,0.1-2.8,0c0.1-1.2,0.2-2.4,0.5-3.6c1.3,0,2.5-0.2,3.7,0.3
		c0.5,0.2,0.9,0.6,0.9,1.2C82.3,26.6,81.9,27.2,81.3,27.6z"/>
	<path fill="#FFFFFF" d="M96.5,21.7c-0.9,0-1.8,0-2.7,0c-2.9,5-5.7,10-8.6,15.1c1.3,0,2.5,0,3.6,0c0.6-1.1,1.1-2.1,1.7-3.1
		c2,0,4,0,6,0c0.3,1.1,0.6,2.1,0.9,3.1c1.2,0,2.4,0,3.7,0C99.4,31.7,97.9,26.7,96.5,21.7z M95.5,30.9c-1.2,0-2.4,0-3.7,0
		c0.8-1.6,1.6-3.1,2.4-4.6C94.6,26.5,95.6,30.2,95.5,30.9z"/>
</g>
<g>
	<path fill="#FFFFFF" d="M54.9,8c0.5-0.1,1.2-0.2,2-0.2c1,0,1.8,0.2,2.3,0.7c0.4,0.4,0.7,1,0.7,1.7c0,0.7-0.2,1.3-0.6,1.7
		c-0.6,0.6-1.5,0.9-2.5,0.9c-0.3,0-0.6,0-0.8-0.1V16h-1V8z M56,11.9c0.2,0.1,0.5,0.1,0.9,0.1c1.3,0,2-0.6,2-1.7
		c0-1.1-0.8-1.6-1.9-1.6c-0.5,0-0.8,0-1,0.1V11.9z"/>
	<path fill="#FFFFFF" d="M66.2,13c0,2.1-1.5,3.1-2.9,3.1c-1.6,0-2.8-1.2-2.8-3c0-1.9,1.3-3.1,2.9-3.1C65.1,10.1,66.2,11.3,66.2,13z
		 M61.6,13.1c0,1.3,0.7,2.2,1.8,2.2c1,0,1.8-0.9,1.8-2.3c0-1-0.5-2.2-1.7-2.2C62.1,10.9,61.6,12,61.6,13.1z"/>
	<path fill="#FFFFFF" d="M67.9,10.2l0.8,3c0.2,0.6,0.3,1.2,0.4,1.8h0c0.1-0.6,0.3-1.2,0.5-1.8l0.9-3h0.9l0.9,2.9
		c0.2,0.7,0.4,1.3,0.5,1.9h0c0.1-0.6,0.3-1.2,0.4-1.9l0.8-2.9h1L73.4,16h-1l-0.9-2.8c-0.2-0.6-0.4-1.2-0.5-1.9h0
		c-0.1,0.7-0.3,1.3-0.5,1.9L69.5,16h-1l-1.8-5.8H67.9z"/>
	<path fill="#FFFFFF" d="M76.8,13.3c0,1.4,0.9,2,2,2c0.8,0,1.2-0.1,1.6-0.3l0.2,0.8c-0.4,0.2-1,0.4-1.9,0.4c-1.8,0-2.9-1.2-2.9-2.9
		s1-3.1,2.7-3.1c1.9,0,2.4,1.7,2.4,2.7c0,0.2,0,0.4,0,0.5H76.8z M79.9,12.5c0-0.7-0.3-1.7-1.5-1.7c-1.1,0-1.5,1-1.6,1.7H79.9z"/>
	<path fill="#FFFFFF" d="M82.2,12c0-0.7,0-1.3,0-1.8h0.9l0,1.1h0c0.3-0.8,0.9-1.3,1.6-1.3c0.1,0,0.2,0,0.3,0v1c-0.1,0-0.2,0-0.4,0
		c-0.7,0-1.3,0.6-1.4,1.4c0,0.1,0,0.3,0,0.5V16h-1V12z"/>
	<path fill="#FFFFFF" d="M86.6,13.3c0,1.4,0.9,2,2,2c0.8,0,1.2-0.1,1.6-0.3l0.2,0.8c-0.4,0.2-1,0.4-1.9,0.4c-1.8,0-2.9-1.2-2.9-2.9
		s1-3.1,2.7-3.1c1.9,0,2.4,1.7,2.4,2.7c0,0.2,0,0.4,0,0.5H86.6z M89.7,12.5c0-0.7-0.3-1.7-1.5-1.7c-1.1,0-1.5,1-1.6,1.7H89.7z"/>
	<path fill="#FFFFFF" d="M97,7.5v7c0,0.5,0,1.1,0,1.5h-0.9l0-1h0c-0.3,0.6-1,1.1-2,1.1c-1.4,0-2.5-1.2-2.5-3c0-1.9,1.2-3.1,2.6-3.1
		c0.9,0,1.5,0.4,1.8,0.9h0V7.5H97z M96,12.6c0-0.1,0-0.3,0-0.4c-0.2-0.7-0.7-1.2-1.5-1.2c-1.1,0-1.7,1-1.7,2.2
		c0,1.2,0.6,2.1,1.7,2.1c0.7,0,1.4-0.5,1.5-1.3c0-0.1,0-0.3,0-0.5V12.6z"/>
	<path fill="#FFFFFF" d="M101.3,16c0-0.4,0-1,0-1.5v-7h1v3.6h0c0.4-0.6,1-1.1,2-1.1c1.4,0,2.5,1.2,2.4,3c0,2.1-1.3,3.1-2.6,3.1
		c-0.8,0-1.5-0.3-1.9-1.1h0l0,1H101.3z M102.4,13.7c0,0.1,0,0.3,0,0.4c0.2,0.7,0.8,1.2,1.6,1.2c1.1,0,1.8-0.9,1.8-2.2
		c0-1.2-0.6-2.2-1.7-2.2c-0.7,0-1.4,0.5-1.6,1.3c0,0.1-0.1,0.3-0.1,0.4V13.7z"/>
	<path fill="#FFFFFF" d="M108.4,10.2l1.3,3.4c0.1,0.4,0.3,0.8,0.4,1.2h0c0.1-0.3,0.2-0.8,0.4-1.2l1.2-3.4h1.1l-1.6,4.1
		c-0.8,2-1.3,3-2,3.6c-0.5,0.5-1,0.6-1.3,0.7l-0.3-0.9c0.3-0.1,0.6-0.3,0.9-0.5c0.3-0.2,0.6-0.6,0.9-1.2c0-0.1,0.1-0.2,0.1-0.3
		c0-0.1,0-0.1-0.1-0.3l-2.1-5.3H108.4z"/>
</g>
</svg>
