<?xml version="1.0" encoding="utf-8"?>
<!-- Generator: Adobe Illustrator 18.1.0, SVG Export Plug-In . SVG Version: 6.00 Build 0)  -->
<svg version="1.1" id="Layer_1" xmlns="http://www.w3.org/2000/svg" xmlns:xlink="http://www.w3.org/1999/xlink" x="0px" y="0px"
	 viewBox="0 0 200 200" enable-background="new 0 0 200 200" xml:space="preserve">
<circle fill="none" stroke="#C0F173" stroke-width="3" stroke-miterlimit="10" cx="100" cy="100" r="94.7"/>
<g>
	<path fill="#C0F173" d="M112.7,141.3c-8,0-15.7,0-23.6,0c0-9.7,0-19.5,0-29.2c-5.2-1.6-6-2.7-6-7.9c0-6,0-12,0-18.1
		c0-4.7,2.1-6.8,6.8-6.8c7.2,0,14.5,0,21.7,0c4.8,0,6.9,2.1,6.9,6.8c0,6.1,0,12.1,0,18.3c0,4.9-1.1,6.3-5.9,7.5
		C112.7,121.7,112.7,131.3,112.7,141.3z"/>
	<path fill="#C0F173" d="M65.5,112c-4.9-1.3-6-2.7-6-7.6c0-6.1,0-12.1,0-18.3c0-4.8,2.1-6.8,6.9-6.9c3.7,0,7.5,0,10.8,0
		c0,10.5,0,20.9,0,31.3c0,4.7,1.2,6.1,5.9,7.2c0,7.7,0,15.5,0,23.5c-5.9,0-11.6,0-17.6,0C65.5,131.5,65.5,121.7,65.5,112z"/>
	<path fill="#C0F173" d="M136.3,112c0,9.9,0,19.5,0,29.3c-5.9,0-11.6,0-17.6,0c0-7.7,0-15.6,0-23.5c0.3-0.1,0.7-0.1,1.1-0.3
		c3.1-0.8,4.5-2.5,4.7-5.6c0.1-9.9,0-19.9,0-29.7c0-0.9-0.3-1.7-0.5-2.8c4.7,0,9.2-0.1,13.7,0.1c2.7,0.1,4.4,2.5,4.5,5.5
		c0.1,7.1,0.1,14,0,21.1C142.1,109.5,140.5,110.9,136.3,112z"/>
	<path fill="#C0F173" d="M100.8,76.4c-4.8,0-8.8-4-8.9-8.8c0-4.9,4-8.9,8.9-8.9c4.8,0,8.8,4,8.8,8.9
		C109.7,72.4,105.7,76.4,100.8,76.4z"/>
	<path fill="#C0F173" d="M77.2,58.7c4.8,0,8.8,4,8.8,8.8c0,4.9-4.1,8.9-8.9,8.9c-4.8,0-8.8-4.1-8.8-8.9
		C68.4,62.7,72.4,58.7,77.2,58.7z"/>
	<path fill="#C0F173" d="M133.3,67.5c0,4.8-4,8.9-8.7,8.9c-4.9,0-8.9-4-8.9-8.9c0-4.8,4-8.8,8.8-8.8
		C129.2,58.7,133.3,62.7,133.3,67.5z"/>
</g>
</svg>
