<?xml version="1.0" encoding="utf-8"?>
<!-- Generator: Adobe Illustrator 18.1.0, SVG Export Plug-In . SVG Version: 6.00 Build 0)  -->
<svg version="1.1" id="Layer_1" xmlns="http://www.w3.org/2000/svg" xmlns:xlink="http://www.w3.org/1999/xlink" x="0px" y="0px"
	 viewBox="0 0 200 200" enable-background="new 0 0 200 200" xml:space="preserve">
<g id="Layer_2">
	<circle fill="#FFFFFF" cx="100.5" cy="100.6" r="97.9"/>
</g>
<g id="Layer_1_1_">
	<circle fill="#59C8E0" stroke="#59C8E0" stroke-width="4" stroke-miterlimit="10" cx="100.1" cy="100" r="90.6"/>
</g>
<g id="Layer_3">
	<g enable-background="new    ">
		<path fill="#FFFFFF" d="M128.8,141.3H77.5V136l27.1-30.6c5-5.6,8.5-10.4,10.6-14.2c2.1-3.8,3.1-7.4,3.1-10.9
			c0-5.1-1.4-9.3-4.3-12.4c-2.9-3.1-7-4.7-12.3-4.7c-6.3,0-11,1.7-14.3,5.2c-3.3,3.5-4.9,8.1-4.9,14h-6.3l-0.1-0.3
			c-0.2-6.9,2-12.7,6.7-17.5s11-7.2,18.9-7.2c7.1,0,12.8,2,17.1,6.1c4.3,4.1,6.4,9.6,6.4,16.5c0,4.5-1.4,9.1-4.3,13.8
			c-2.9,4.7-6.8,9.9-11.9,15.6l-22.8,25.7l0.1,0.3h42.6V141.3z"/>
	</g>
</g>
</svg>
