<?xml version="1.0" encoding="utf-8"?>
<!-- Generator: Adobe Illustrator 18.1.0, SVG Export Plug-In . SVG Version: 6.00 Build 0)  -->
<svg version="1.1" id="Layer_1" xmlns="http://www.w3.org/2000/svg" xmlns:xlink="http://www.w3.org/1999/xlink" x="0px" y="0px"
	 viewBox="0 0 200 200" enable-background="new 0 0 200 200" xml:space="preserve">
<g id="Layer_2">
	<circle fill="#FFFFFF" cx="100.5" cy="100.6" r="97.9"/>
</g>
<g id="Layer_1_1_">
	<circle fill="#FFCA00" stroke="#FFCA00" stroke-width="5" stroke-miterlimit="10" cx="100.1" cy="100" r="90.6"/>
</g>
<g id="Layer_3">
	<g enable-background="new    ">
		<path fill="#FFFFFF" d="M92.6,96.3h7.9c6,0,10.6-1.5,13.7-4.5c3.1-3,4.7-6.9,4.7-11.6c0-5.1-1.5-9.3-4.4-12.3
			c-2.9-3.1-7.2-4.6-13-4.6c-5.3,0-9.6,1.6-13,4.7c-3.4,3.1-5.1,7.2-5.1,12.3H77l-0.1-0.3c-0.2-6.4,2.1-11.8,6.8-16.1
			c4.7-4.3,10.6-6.4,17.8-6.4c7.4,0,13.3,2,17.6,6.1c4.4,4,6.6,9.7,6.6,16.9c0,3.9-1.2,7.6-3.6,11c-2.4,3.4-5.8,6-10.2,7.6
			c5.1,1.5,9,4,11.5,7.5c2.6,3.5,3.8,7.6,3.8,12.4c0,7.3-2.4,13.1-7.1,17.3c-4.7,4.2-10.8,6.3-18.3,6.3c-7.2,0-13.4-2.1-18.6-6.2
			c-5.2-4.1-7.7-9.8-7.5-17.1l0.1-0.3h6.4c0,5.2,1.8,9.5,5.5,12.8c3.7,3.3,8.4,5,14.2,5c5.9,0,10.4-1.5,13.7-4.6
			c3.3-3,4.9-7.4,4.9-13.1c0-5.8-1.7-10.1-5.2-12.8c-3.4-2.8-8.4-4.2-14.8-4.2h-7.9V96.3z"/>
	</g>
</g>
</svg>
