<?xml version="1.0" encoding="utf-8"?>
<!-- Generator: Adobe Illustrator 18.1.0, SVG Export Plug-In . SVG Version: 6.00 Build 0)  -->
<svg version="1.1" xmlns="http://www.w3.org/2000/svg" xmlns:xlink="http://www.w3.org/1999/xlink" x="0px" y="0px"
	 viewBox="0 0 1920 1080" enable-background="new 0 0 1920 1080" xml:space="preserve">
<g id="Layer_2">
</g>
<g id="Layer_1">
	<polygon fill="#59CAEA" points="1580.3,937.1 1465.1,967.3 1617.9,991.9 	"/>
	<polygon fill="#01AAB5" points="1534.7,870.5 1465.1,967.3 1580.3,937.1 	"/>
	<polygon fill="#B02C9F" points="1667.6,1024.3 1653.2,1014.9 1653.2,1014.9 1665.7,1034.2 	"/>
	<polygon fill="#068CA9" points="1525.1,1027.5 1624.5,1017.7 1617.9,991.9 	"/>
	<polygon fill="#B02C9F" points="1653.2,1014.9 1657.2,1080 1665.7,1034.2 	"/>
	<polygon fill="#01B7D4" points="1525.1,1027.5 1465.1,967.3 1447.4,1057.3 1525.1,1027.5 1525.1,1027.5 	"/>
	<polygon fill="#A360B9" points="1617.9,991.9 1624.5,1017.7 1653.2,1014.9 1653.2,1014.9 1653.2,1014.9 	"/>
	<polygon fill="#00A7B0" points="1465.1,967.3 1525.1,1027.5 1525.1,1027.5 1617.9,991.9 	"/>
	<rect x="1525.1" y="1027.5" fill="#D61E41" width="0" height="0"/>
	<polygon fill="#C2349B" points="1657.2,1080 1657.2,1080 1684.9,1063.7 1665.7,1034.2 	"/>
	<polygon fill="#D61E41" points="1525.1,1027.5 1525.1,1027.5 1525.1,1027.5 	"/>
	<polygon fill="#D61E41" points="1657.2,1080 1657.2,1080 1657.2,1080 	"/>
	<polygon fill="#D60EB1" points="1752.1,1079.4 1726,1039.6 1707.7,1050.4 	"/>
	<polygon fill="#00A8CB" points="1580.3,937.1 1617.9,991.9 1638.6,921.8 	"/>
	<polygon fill="#08ACB7" points="1617.9,991.9 1653.2,1014.9 1647.2,919.6 1638.6,921.8 	"/>
	<polygon fill="#008A9F" points="1667.6,1024.3 1678.3,966.9 1647.2,919.6 1653.2,1014.9 	"/>
	<polygon fill="#2F7888" points="1525.1,1027.5 1501.2,1080 1577.4,1080 1525.1,1027.5 	"/>
	<polygon fill="#D61E41" points="1657.2,1080 1657.2,1080 1657.2,1080 	"/>
	<polygon fill="#00A8CB" points="1525.1,1027.5 1525.1,1027.5 1577.4,1080 1640.6,1080 1624.5,1017.7 	"/>
	<polygon fill="#59CAEA" points="1388.2,1080 1443,1080 1447.4,1057.3 	"/>
	<polygon fill="#08ACB7" points="1447.4,1057.3 1443,1080 1501.2,1080 1525.1,1027.5 	"/>
	<polygon fill="#8E1D83" points="1657.2,1080 1657.2,1080 1695.5,1080 1684.9,1063.7 	"/>
	<polygon fill="#8C1670" points="1707.7,1050.4 1684.9,1063.7 1695.5,1080 1752.5,1080 1752.1,1079.4 	"/>
	<polygon fill="#D61E41" points="1752.1,1079.4 1752.5,1080 1753.1,1080 	"/>
	<polygon fill="#C2349B" points="1726,1039.6 1752.1,1079.4 1753.1,1080 1763.8,1080 1751.5,1024.6 	"/>
	<polygon fill="#B911D1" points="1667.6,1024.3 1707.7,1050.4 1726,1039.6 1678.3,966.9 	"/>
	<polygon fill="#38C5ED" points="1653.2,748.3 1682.1,739 1660.1,713.6 	"/>
	<polygon fill="#38C5ED" points="1701.4,906.9 1718.6,907.7 1712,889.9 	"/>
	<polygon fill="#38C5ED" points="1707.1,823.7 1696.7,815.2 1688.4,830.1 	"/>
	<polygon fill="#039BB1" points="1661.4,760.4 1672.4,758.5 1664,753.3 	"/>
	<polygon fill="#B7059A" points="1665.7,1034.2 1684.9,1063.7 1707.7,1050.4 1667.6,1024.3 	"/>
	<polygon fill="#A20994" points="1842.1,1058.2 1854.5,1080 1920,1080 1854.9,1042.8 	"/>
	<polygon fill="#DB3BBF" points="1880.3,1012.2 1853.9,1005.5 1823,1024.6 1854.9,1042.8 	"/>
	<polygon fill="#CF2BAD" points="1842.1,1058.2 1854.9,1042.8 1823,1024.6 1823,1024.6 	"/>
	<polygon fill="#771F80" points="1920,1022.3 1920,964.5 1880.3,1012.2 	"/>
	<polygon fill="#E26EC2" points="1823,1024.6 1853.9,1005.5 1822.8,991.9 1823,1024.6 	"/>
	<polygon fill="#D61E41" points="1823,1024.6 1823,1024.6 1823,1024.6 	"/>
	<polygon fill="#A20994" points="1888.9,963.1 1886.8,906.1 1840.9,951 	"/>
	<polygon fill="#D60EB1" points="1785.4,1008.7 1775.4,1014.1 1786.6,1028.5 	"/>
	<polygon fill="#04769F" points="1804,954.6 1793.9,960.1 1803.4,966.9 	"/>
	<polygon fill="#0181B5" points="1764.6,906.5 1743.7,846 1737.8,901.4 	"/>
	<polygon fill="#911A92" points="1801.3,1080 1751.5,1024.6 1763.8,1080 	"/>
	<polygon fill="#CA50B4" points="1823,1024.6 1823,1024.6 1805.1,1048.8 1812.1,1080 1815,1080 	"/>
	<polygon fill="#920479" points="1824,1080 1854.5,1080 1842.1,1058.2 	"/>
	<polygon fill="#A20994" points="1823,1024.6 1815,1080 1824,1080 1842.1,1058.2 	"/>
	<polygon fill="#B92E96" points="1726,1039.6 1751.5,1024.6 1678.3,966.9 	"/>
	<polygon fill="#D60EB1" points="1696.1,970.9 1724,951.8 1701.6,946.7 	"/>
	<polygon fill="#38C5ED" points="1875.1,859.8 1891.4,839.3 1863.5,831.5 	"/>
	<polygon fill="#38C5ED" points="1833.8,823.9 1823.3,826.7 1829.2,839.2 	"/>
	<polygon fill="#0181B5" points="1885.1,824.8 1867.7,801.4 1872.8,826.3 	"/>
	<polygon fill="#D60EB1" points="1919.4,874.2 1920,846.9 1906.1,859.1 	"/>
	<polygon fill="#00A8CB" points="1647.2,919.6 1666.2,830.7 1594.8,852.3 1638.6,921.8 	"/>
	<polygon fill="#039BB1" points="1630.5,785.1 1568.9,761.4 1666.2,830.7 	"/>
	<polygon fill="#01B7D4" points="1647.2,919.6 1678.3,966.9 1666.2,830.7 	"/>
	<polygon fill="#38C5ED" points="1666.2,830.7 1678.3,966.9 1693.9,882.9 	"/>
	<polygon fill="#058EA4" points="1534.7,870.5 1580.3,937.1 1594.8,852.3 	"/>
	<polygon fill="#01B7D4" points="1594.8,852.3 1580.3,937.1 1638.6,921.8 	"/>
	<polygon fill="#B02C9F" points="1640.6,1080 1657.2,1080 1624.5,1017.7 	"/>
	<polygon fill="#D950B5" points="1653.2,1014.9 1624.5,1017.7 1657.2,1080 1653.2,1014.9 	"/>
	<polygon fill="#6C0570" points="1854.9,1042.8 1920,1080 1879.2,1013.6 	"/>
	<polygon fill="#43075E" points="1880.3,1012.2 1879.2,1013.6 1920,1080 1920,1022.3 	"/>
	<polygon fill="#08ACB7" points="1639.4,715.2 1568.9,761.4 1630.5,785.1 	"/>
	<polygon fill="#01B7D4" points="1666.2,830.7 1568.9,761.4 1594.8,852.3 	"/>
	<polygon fill="#01AAB5" points="1568.9,761.4 1558.5,794.5 1594.8,852.3 	"/>
</g>
</svg>
