<?xml version="1.0" encoding="utf-8"?>
<!-- Generator: Adobe Illustrator 18.1.0, SVG Export Plug-In . SVG Version: 6.00 Build 0)  -->
<svg version="1.1" xmlns="http://www.w3.org/2000/svg" xmlns:xlink="http://www.w3.org/1999/xlink" x="0px" y="0px"
	 viewBox="0 0 1920 1080" enable-background="new 0 0 1920 1080" xml:space="preserve">
<g id="Layer_2">
	<rect x="0.9" y="0.1" fill="#0B1924" width="1919.1" height="1079.9"/>
</g>
<g id="Layer_1">
	<g>
		<path fill="#FFFFFF" d="M766.7,972.8l-131.9-25.9l-142-102l-26.7-88.2l-84.7,53.2l-48.6-15.3l-153.6-48.2l85.9-55.2l-64.5-51.8
			L77.1,658.1l-16.6-14.3L0,591.4v0v98.8v6.7v42.4v132.2v116l108.8-120.8l0,0l-0.2,0.3L0,987.8v92.1l0,0h0v0.1l0.1-0.1h135.4
			l80.9-105.4l-80.9,105.4h75.9h10.3h118h124.9h199.1h95.1H800v-20.2L766.7,972.8z M149.8,796.7l157,60.1l0,0L149.8,796.7z
			 M328.8,990.9l-8.1-49.4l0,0L328.8,990.9L328.8,990.9z"/>
		<polygon fill="#FFFFFF" points="265.1,691.3 108.8,777 332.8,794.7 		"/>
	</g>
	<g>
		<path fill="#FFFFFF" d="M1839.8,246L1839.8,246l-84.6,107.4L1632,330.5l-76.6,40.7v0l-101.6,142.6l48.6,15.3l84.7-53.2l26.7,88.2
			v0l142,102l131.9,25.9l33.3,86.9v-80.4V613V501.4v-92.7v-24.4v-56.1v-83.7v-0.8V228v-55L1839.8,246L1839.8,246z M1825.5,390.3
			l4.1,42v0L1825.5,390.3L1825.5,390.3z"/>
		<polygon fill="#FFFFFF" points="1751.6,-1 1821.6,57.2 1836.3,-1 		"/>
		<polygon fill="#FFFFFF" points="1555.4,371.2 1488.6,423.5 1386.1,410.4 1453.8,513.8 1453.8,513.8 1453.8,513.8 1453.8,513.8 
			1453.8,513.8 		"/>
		<polygon fill="#FFFFFF" points="1836.3,-1 1821.6,57.2 1822.4,57.9 1821.6,57.2 1811.8,96 1791.8,141.5 1839.8,141.2 
			1875.3,167.4 1921,157.3 1921,153 1921,139.8 1921,95 1921,-1 		"/>
	</g>
	<polygon fill="#59CAEA" points="1711.5,497 1755.8,666 1791.8,442 	"/>
	<polygon fill="#01AAB5" points="1613.8,564 1755.8,666 1711.5,497 	"/>
	<polygon fill="#B02C9F" points="1839.3,369.1 1825.5,390.3 1825.5,390.3 1853.9,371.8 	"/>
	<polygon fill="#068CA9" points="1844,578.1 1829.6,432.2 1791.8,442 	"/>
	<polygon fill="#B02C9F" points="1825.5,390.3 1921,384.3 1853.9,371.8 	"/>
	<polygon fill="#01B7D4" points="1844,578.1 1755.8,666 1887.7,691.9 1844,578.1 1844,578.1 	"/>
	<polygon fill="#A360B9" points="1791.8,442 1829.6,432.2 1825.5,390.3 1825.5,390.3 1825.5,390.3 	"/>
	<polygon fill="#00A7B0" points="1755.8,666 1844,578.1 1844,578.1 1791.8,442 	"/>
	<rect x="1844" y="578.1" fill="#D61E41" width="0" height="0"/>
	<polygon fill="#C2349B" points="1921,384.3 1921,384.3 1897.2,343.7 1853.9,371.8 	"/>
	<polygon fill="#D61E41" points="1844,578.1 1844,578.1 1844,578.1 	"/>
	<polygon fill="#D61E41" points="1921,384.3 1921,384.3 1921,384.3 	"/>
	<polygon fill="#D60EB1" points="1920.1,245.1 1861.8,283.4 1877.6,310.3 	"/>
	<polygon fill="#00A8CB" points="1711.5,497 1791.8,442 1689.1,411.7 	"/>
	<polygon fill="#08ACB7" points="1791.8,442 1825.5,390.3 1685.8,399 1689.1,411.7 	"/>
	<polygon fill="#008A9F" points="1839.3,369.1 1755.2,353.4 1685.8,399 1825.5,390.3 	"/>
	<polygon fill="#2F7888" points="1844,578.1 1921,613 1921,501.4 1844,578.1 	"/>
	<polygon fill="#D61E41" points="1921,384.3 1921,384.3 1921,384.3 	"/>
	<polygon fill="#00A8CB" points="1844,578.1 1844,578.1 1921,501.4 1921,408.7 1829.6,432.2 	"/>
	<polygon fill="#59CAEA" points="1921,778.8 1921,698.5 1887.7,691.9 	"/>
	<polygon fill="#08ACB7" points="1887.7,691.9 1921,698.5 1921,613 1844,578.1 	"/>
	<polygon fill="#8E1D83" points="1921,384.3 1921,384.3 1921,328.2 1897.2,343.7 	"/>
	<polygon fill="#8C1670" points="1877.6,310.3 1897.2,343.7 1921,328.2 1921,244.5 1920.1,245.1 	"/>
	<polygon fill="#D61E41" points="1920.1,245.1 1921,244.5 1921,243.7 	"/>
	<polygon fill="#C2349B" points="1861.8,283.4 1920.1,245.1 1921,243.7 1921,228 1839.8,246 	"/>
	<polygon fill="#B911D1" points="1839.3,369.1 1877.6,310.3 1861.8,283.4 1755.2,353.4 	"/>
	<polygon fill="#38C5ED" points="1434.7,390.3 1421,347.9 1383.7,380.1 	"/>
	<polygon fill="#38C5ED" points="1667.2,319.5 1668.4,294.3 1642.2,303.9 	"/>
	<polygon fill="#38C5ED" points="1545.2,311.2 1532.7,326.4 1554.6,338.6 	"/>
	<polygon fill="#38C5ED" points="84.7,518.2 67.1,509.4 60.1,533.5 	"/>
	<polygon fill="#38C5ED" points="201.8,387.9 181,378.9 178.8,405 	"/>
	<polygon fill="#039BB1" points="1452.4,378.2 1449.6,362.1 1441.9,374.3 	"/>
	<polygon fill="#B7059A" points="1853.9,371.8 1897.2,343.7 1877.6,310.3 1839.3,369.1 	"/>
	<polygon fill="#A20994" points="1889,113.2 1921,95 1921,-1 1866.5,94.5 	"/>
	<polygon fill="#DB3BBF" points="1821.6,57.2 1811.8,96 1839.8,141.2 1866.5,94.5 	"/>
	<polygon fill="#CF2BAD" points="1889,113.2 1866.5,94.5 1839.8,141.2 1839.8,141.2 	"/>
	<polygon fill="#771F80" points="1836.3,-1 1751.6,-1 1821.6,57.2 	"/>
	<polygon fill="#E26EC2" points="1839.8,141.2 1811.8,96 1791.8,141.5 1839.8,141.2 	"/>
	<polygon fill="#D61E41" points="1839.8,141.2 1839.8,141.2 1839.8,141.2 	"/>
	<polygon fill="#A20994" points="1749.7,44.6 1665.9,47.7 1731.8,115 	"/>
	<polygon fill="#D60EB1" points="1816.4,196.3 1824.4,211.1 1845.4,194.6 	"/>
	<polygon fill="#04769F" points="1737.1,169.1 1745.2,183.9 1755.2,170 	"/>
	<polygon fill="#0181B5" points="1666.7,226.9 1577.8,257.5 1659.1,266.1 	"/>
	<polygon fill="#911A92" points="1921,173 1839.8,246 1921,228 	"/>
	<polygon fill="#CA50B4" points="1839.8,141.2 1839.8,141.2 1875.3,167.4 1921,157.3 1921,153 	"/>
	<polygon fill="#920479" points="1921,139.8 1921,95 1889,113.2 	"/>
	<polygon fill="#A20994" points="1839.8,141.2 1921,153 1921,139.8 1889,113.2 	"/>
	<polygon fill="#B92E96" points="1861.8,283.4 1839.8,246 1755.2,353.4 	"/>
	<polygon fill="#EF4136" points="211.6,605.9 148.7,552.3 150.9,608.4 	"/>
	<polygon fill="#EF4136" points="251.9,605.7 268.4,615.4 273.8,600 	"/>
	<polygon fill="#D60EB1" points="1761,327.4 1733,286.4 1725.5,319.3 	"/>
	<polygon fill="#38C5ED" points="1598.1,64.8 1568,41 1556.7,81.8 	"/>
	<polygon fill="#38C5ED" points="1545.5,125.4 1549.5,140.8 1567.9,132.2 	"/>
	<polygon fill="#0181B5" points="1546.8,50.1 1512.5,75.8 1548.9,68.2 	"/>
	<polygon fill="#D60EB1" points="1619.2,-0.1 1579.1,-1 1597.1,19.4 	"/>
	<polygon fill="#D61E42" points="104.6,583.4 49.6,585.1 66.1,599.5 	"/>
	<polygon fill="#00A8CB" points="1685.8,399 1555.4,371.2 1587.1,475.8 1689.1,411.7 	"/>
	<polygon fill="#039BB1" points="1488.6,423.5 1453.8,513.8 1555.4,371.2 	"/>
	<polygon fill="#01B7D4" points="1685.8,399 1755.2,353.4 1555.4,371.2 	"/>
	<polygon fill="#38C5ED" points="1555.4,371.2 1755.2,353.4 1632,330.5 	"/>
	<polygon fill="#058EA4" points="1613.8,564 1711.5,497 1587.1,475.8 	"/>
	<polygon fill="#01B7D4" points="1587.1,475.8 1711.5,497 1689.1,411.7 	"/>
	<polygon fill="#B02C9F" points="1921,408.7 1921,384.3 1829.6,432.2 	"/>
	<polygon fill="#D950B5" points="1825.5,390.3 1829.6,432.2 1921,384.3 1825.5,390.3 	"/>
	<polygon fill="#6C0570" points="1866.5,94.5 1921,-1 1823.6,58.8 	"/>
	<polygon fill="#43075E" points="1821.6,57.2 1823.6,58.8 1921,-1 1836.3,-1 	"/>
	<polygon fill="#EF4136" points="101.5,423.5 174.1,423.5 174.1,523.3 	"/>
	<polygon fill="#FCB315" points="101.5,423.5 40.4,469.4 142.5,479.9 	"/>
	<g>
		<polygon fill="#F37326" points="381.4,809.9 306.8,856.9 492.8,844.9 		"/>
		<polygon fill="#F37029" points="320.7,941.5 328.8,990.9 634.8,946.9 492.8,844.9 		"/>
		<polygon fill="#F37029" points="232.8,990.9 328.8,990.9 320.7,941.5 		"/>
		<polygon fill="#F8931D" points="492.8,844.9 306.8,856.9 320.7,941.5 		"/>
		<polygon fill="#F7991E" points="306.8,856.9 216.4,974.5 232.8,990.9 320.7,941.5 		"/>
		<polygon fill="#DA3420" points="332.8,794.7 306.8,856.9 381.4,809.9 		"/>
		<polygon fill="#EF4136" points="149.8,796.7 108.8,866.9 306.8,856.9 		"/>
		<polygon fill="#F8931D" points="515.1,1040.4 634.8,946.9 328.8,990.9 		"/>
		<path fill="#F36F26" d="M222.8,1071.3c52.8-39.8,106-80.4,106-80.4h-96L222.8,1071.3z"/>
		<polygon fill="#FCB315" points="108.8,866.9 216.4,974.5 306.8,856.9 		"/>
		<polygon fill="#F7991E" points="381.4,809.9 492.8,844.9 466.1,756.7 		"/>
		<polygon fill="#FFC20E" points="634.8,946.9 515.1,1040.4 663.8,1079.9 758.9,1079.9 		"/>
		<polygon fill="#FD9F13" points="634.8,946.9 758.9,1079.9 800,1079.9 800,1059.7 766.7,972.8 		"/>
		<path fill="#F5821F" d="M222.8,1071.3l-1.1,8.6h118l-11-89C328.8,990.9,275.7,1031.5,222.8,1071.3z"/>
		<polygon fill="#F5821F" points="464.6,1079.9 663.8,1079.9 515.1,1040.4 		"/>
		<path fill="#FAA21C" d="M232.8,990.9l-16.3-16.4l-80.9,105.4h75.9c3.8-2.8,7.6-5.7,11.4-8.6L232.8,990.9z"/>
		<path fill="#F5821F" d="M211.4,1079.9h10.3l1.1-8.6C219,1074.1,215.2,1077,211.4,1079.9z"/>
		<polygon fill="#F9A01C" points="328.8,990.9 339.8,1079.9 464.6,1079.9 515.1,1040.4 		"/>
		<polygon fill="#8E002F" points="0,739.3 0,871.6 122.3,786.2 		"/>
		<polygon fill="#EE1B39" points="149.8,796.7 122.3,786.2 0,871.6 0,987.6 108.8,866.9 		"/>
		<polygon fill="#F89B1D" points="216.4,974.5 108.8,866.9 135.5,1079.9 		"/>
		<polygon fill="#EF474A" points="108.8,867 0,987.8 0,1080 		"/>
		<polygon fill="#F58120" points="135.5,1079.9 108.8,866.9 0,1079.9 		"/>
		<polygon fill="#ED4456" points="77.1,658.1 179.2,746.5 200.6,639.4 		"/>
		<polygon fill="#D61E42" points="200.6,639.4 179.2,746.5 265.1,691.3 		"/>
		<polygon fill="#D61E42" points="122.3,786.2 149.8,796.7 179.2,746.5 		"/>
		<polygon fill="#EE1C36" points="149.8,796.7 306.8,856.9 179.2,746.5 		"/>
		<polygon fill="#EE1748" points="77.1,658.1 60.5,643.8 60.5,643.8 5.6,692 179.2,746.5 77.1,658.1 		"/>
		<polygon fill="#D61E42" points="60.5,643.8 60.5,643.8 0,591.4 0,690.3 5.6,692 		"/>
		<polygon fill="#EE5A2F" points="306.8,856.9 332.8,794.7 179.2,746.5 		"/>
		<polygon fill="#D61E42" points="0,690.3 0,697 5.6,692 		"/>
		<polygon fill="#E91B3B" points="5.6,692 0,697 0,739.3 122.3,786.2 179.2,746.5 		"/>
		
			<rect x="57.9" y="651" transform="matrix(0.7562 0.6543 -0.6543 0.7562 442.6943 113.6503)" fill="#D61E42" width="21.9" height="0"/>
		
			<rect x="-9.8" y="617.6" transform="matrix(0.7562 0.6543 -0.6543 0.7562 411.4787 130.7411)" fill="#C40F3F" width="80.1" height="0"/>
		<polygon fill="#ED1A43" points="179.2,746.5 332.8,794.7 265.1,691.3 		"/>
	</g>
	<polygon fill="#08ACB7" points="1386.1,410.4 1453.8,513.8 1488.6,423.5 	"/>
	<polygon fill="#01B7D4" points="1555.4,371.2 1453.8,513.8 1587.1,475.8 	"/>
	<polygon fill="#01AAB5" points="1453.8,513.8 1502.4,529.1 1587.1,475.8 	"/>
	<polygon fill="#E26EC2" points="194.3,403.5 196.7,411.7 187,408.9 	"/>
</g>
</svg>
