<?xml version="1.0" encoding="utf-8"?>
<!-- Generator: Adobe Illustrator 18.1.0, SVG Export Plug-In . SVG Version: 6.00 Build 0)  -->
<svg version="1.1" id="Layer_2" xmlns="http://www.w3.org/2000/svg" xmlns:xlink="http://www.w3.org/1999/xlink" x="0px" y="0px"
	 viewBox="0 0 430 250" enable-background="new 0 0 430 250" xml:space="preserve">
<g>
	<path fill="#2860AB" d="M13.3,193.4l1.6-14.8h13.5v3.2H17.9l-0.9,7.6c0.6-0.4,1.2-0.8,1.9-1c0.7-0.3,1.5-0.4,2.4-0.5
		c2.5,0,4.4,0.8,5.9,2.4c1.4,1.6,2.1,3.8,2.1,6.6c0,2.7-0.7,4.9-2.2,6.5c-1.4,1.6-3.6,2.5-6.3,2.5c-2.3,0-4.2-0.6-5.7-1.9
		c-1.5-1.2-2.2-3.1-2.2-5.5l0-0.1h3.3c0,1.5,0.4,2.6,1.3,3.4c0.8,0.8,1.9,1.2,3.3,1.2c1.5,0,2.7-0.5,3.6-1.6
		c0.9-1.1,1.3-2.6,1.3-4.4c0-1.7-0.4-3.1-1.3-4.2c-0.9-1.1-2.1-1.7-3.6-1.7c-1.4,0-2.5,0.2-3.1,0.6c-0.6,0.4-1.1,1.1-1.4,2
		L13.3,193.4z"/>
	<path fill="#2860AB" d="M50.6,195.3c0,3.4-0.8,6.1-2.3,7.9c-1.5,1.8-3.6,2.7-6.3,2.7c-2.7,0-4.7-0.9-6.3-2.8
		c-1.5-1.8-2.3-4.5-2.3-7.9v-6.4c0-3.4,0.8-6.1,2.3-7.9c1.5-1.8,3.6-2.8,6.3-2.8c2.7,0,4.7,0.9,6.3,2.8c1.5,1.8,2.3,4.5,2.3,7.9
		V195.3z M46.9,188.2c0-2.3-0.4-4.1-1.3-5.3c-0.8-1.2-2.1-1.8-3.7-1.8c-1.6,0-2.8,0.6-3.7,1.8c-0.8,1.2-1.3,2.9-1.3,5.3v7.9
		c0,2.3,0.4,4.1,1.3,5.3c0.9,1.2,2.1,1.8,3.7,1.8s2.8-0.6,3.7-1.8c0.8-1.2,1.2-2.9,1.2-5.3V188.2z"/>
	<path fill="#2860AB" d="M71.9,195.3c0,3.4-0.8,6.1-2.3,7.9c-1.5,1.8-3.6,2.7-6.3,2.7s-4.7-0.9-6.3-2.8c-1.5-1.8-2.3-4.5-2.3-7.9
		v-6.4c0-3.4,0.8-6.1,2.3-7.9c1.5-1.8,3.6-2.8,6.3-2.8c2.7,0,4.7,0.9,6.3,2.8c1.5,1.8,2.3,4.5,2.3,7.9V195.3z M68.3,188.2
		c0-2.3-0.4-4.1-1.3-5.3c-0.8-1.2-2.1-1.8-3.7-1.8c-1.6,0-2.8,0.6-3.7,1.8c-0.8,1.2-1.3,2.9-1.3,5.3v7.9c0,2.3,0.4,4.1,1.3,5.3
		c0.9,1.2,2.1,1.8,3.7,1.8s2.8-0.6,3.7-1.8c0.8-1.2,1.2-2.9,1.2-5.3V188.2z"/>
</g>
</svg>
