<svg version="1.1" id="Layer_1" xmlns="http://www.w3.org/2000/svg" xmlns:xlink="http://www.w3.org/1999/xlink" x="0px" y="0px"
	 viewBox="0 0 77 77" style="enable-background:new 0 0 77 77;" xml:space="preserve">
<g>
	<path style="fill:#FFFFFF;" d="M38.5,14.8c-0.1,0-0.1,0-0.2,0c0,0-0.1,0-0.1,0v0c-13,0.2-23.5,10.8-23.5,23.8s10.5,23.7,23.5,23.8
		v0c0,0,0.1,0,0.1,0c0.1,0,0.1,0,0.2,0c13.1,0,23.8-10.7,23.8-23.8S51.6,14.8,38.5,14.8z M16.7,39.6h8.5c0.1,3.3,0.5,6.3,1.2,9.1
		h-7.2C17.7,46,16.8,42.9,16.7,39.6z M39.5,26.5V17c3.4,0.7,6.3,4.4,8.1,9.6H39.5z M48.2,28.5c0.8,2.7,1.2,5.8,1.3,9.1h-10v-9.1
		H48.2z M37.5,16.9v9.6h-8.4C30.9,21.2,34,17.5,37.5,16.9z M37.5,28.5v9.1H27.2c0.1-3.3,0.5-6.4,1.3-9.1H37.5z M25.2,37.6h-8.5
		c0.1-3.3,1-6.4,2.5-9.1h7.2C25.7,31.3,25.2,34.4,25.2,37.6z M27.2,39.6h10.3v9.1h-9C27.7,46,27.2,42.9,27.2,39.6z M37.5,50.8v9.6
		c-3.5-0.6-6.6-4.3-8.4-9.6H37.5z M39.5,60.3v-9.6h8.1C45.8,55.9,42.9,59.6,39.5,60.3z M39.5,48.8v-9.1h10c-0.1,3.3-0.5,6.4-1.3,9.1
		H39.5z M51.5,39.6h8.8c-0.1,3.3-1,6.4-2.5,9.1h-7.5C51,46,51.5,42.9,51.5,39.6z M51.5,37.6c-0.1-3.3-0.5-6.3-1.2-9.1h7.5
		c1.4,2.7,2.3,5.8,2.5,9.1H51.5z M56.6,26.5h-6.9c-1.2-3.7-3-6.8-5.1-8.8C49.6,19.2,53.8,22.3,56.6,26.5z M31.9,17.8
		c-2.1,2.1-3.8,5-4.9,8.7h-6.6C23.1,22.4,27.1,19.3,31.9,17.8z M20.4,50.8H27c1.2,3.6,2.9,6.6,4.9,8.7
		C27.1,57.9,23.1,54.8,20.4,50.8z M44.7,59.6c2.1-2.1,3.9-5.1,5.1-8.8h6.9C53.8,54.9,49.6,58.1,44.7,59.6z"/>
	<g>
		<path style="fill:#FFFFFF;" d="M38.5,77C17.3,77,0.1,59.8,0.1,38.6S17.3,0.3,38.5,0.3c21.2,0,38.4,17.2,38.4,38.4S59.7,77,38.5,77
			z M38.5,2.3C18.4,2.3,2.1,18.6,2.1,38.6S18.4,75,38.5,75s36.4-16.3,36.4-36.4S58.6,2.3,38.5,2.3z"/>
	</g>
</g>
</svg>