<svg version="1.1" id="Layer_1" xmlns="http://www.w3.org/2000/svg" xmlns:xlink="http://www.w3.org/1999/xlink" x="0px" y="0px"
	 viewBox="0 0 77 77" style="enable-background:new 0 0 77 77;" xml:space="preserve">
<g>
	<g>
		<path style="fill:#FFFFFF;" d="M38.7,76.9c-21.2,0-38.4-17.2-38.4-38.4c0-21.2,17.2-38.4,38.4-38.4c21.2,0,38.4,17.2,38.4,38.4
			C77.1,59.7,59.9,76.9,38.7,76.9z M38.7,2.2C18.7,2.2,2.4,18.5,2.4,38.5s16.3,36.4,36.4,36.4s36.4-16.3,36.4-36.4
			S58.8,2.2,38.7,2.2z"/>
	</g>
	<g>
		<path style="fill:#FFFFFF;" d="M55.2,59.6H22.5V18.8h32.7V59.6z M24.5,57.6h28.7V20.8H24.5V57.6z"/>
	</g>
	<g>
		<rect x="29.2" y="28" style="fill:#FFFFFF;" width="9.7" height="2"/>
	</g>
	<g>
		<rect x="29.2" y="33.6" style="fill:#FFFFFF;" width="19.2" height="2"/>
	</g>
	<g>
		<rect x="29.3" y="39.5" style="fill:#FFFFFF;" width="19.2" height="2"/>
	</g>
	<g>
		<rect x="42.4" y="50.6" style="fill:#FFFFFF;" width="6" height="2"/>
	</g>
</g>
</svg>