<?xml version="1.0" encoding="utf-8"?>
<!-- Generator: Adobe Illustrator 18.1.0, SVG Export Plug-In . SVG Version: 6.00 Build 0)  -->
<svg version="1.1" id="Layer_1" xmlns="http://www.w3.org/2000/svg" xmlns:xlink="http://www.w3.org/1999/xlink" x="0px" y="0px"
	 viewBox="0 0 540 115" enable-background="new 0 0 540 115" xml:space="preserve">
<g>
	<g>
		<path fill="#B3B3B3" d="M250.1,5.5h3.1l10.7,13.8V5.5h3.4v19.9h-3.1l-11-14.1v14.1h-3.1V5.5z"/>
		<path fill="#B3B3B3" d="M272.4,5.5h14.7v3.1h-11.3v5.2h9.8v3.1h-9.8v5.2h11.3v3.1h-14.7V5.5z"/>
		<path fill="#B3B3B3" d="M296.3,8.6h-6.4V5.5h16.2v3.4h-6.4v16.5h-3.4L296.3,8.6L296.3,8.6z"/>
		<path fill="#B3B3B3" d="M307.7,15.3c0-5.5,4.3-10.1,10.4-10.1s10.4,4.6,10.4,10.1s-4.3,10.1-10.4,10.1
			C312,25.4,307.7,20.8,307.7,15.3z M324.8,15.3c0-4-2.8-7-6.7-7c-4,0-6.7,3.1-6.7,7s2.8,7,6.7,7S324.8,19.3,324.8,15.3z"/>
		<path fill="#B3B3B3" d="M332.8,5.5h8c4.6,0,7.7,2.8,7.7,6.7c0,4.6-3.7,6.7-8,6.7h-4v6.4h-3.7V5.5z M340.2,15.6
			c2.8,0,4.3-1.5,4.3-3.7c0-2.5-1.5-3.7-4.3-3.7h-4v7h4V15.6z"/>
		<path fill="#B3B3B3" d="M356.7,5.2h3.4l8.6,19.9H365l-2.1-4.9h-9.5l-2.1,4.9h-3.7L356.7,5.2z M361.6,17.5l-3.4-8l-3.4,8
			C354.9,17.5,361.6,17.5,361.6,17.5z"/>
		<path fill="#B3B3B3" d="M374.8,17.5l-8-12h4l5.5,8.9l5.5-8.9h4l-8,12v8h-3.4v-8H374.8z"/>
	</g>
	<path fill="none" stroke="#B3B3B3" stroke-width="9" stroke-miterlimit="10" d="M112.8,92.2c-2.8,9.2-11.3,15.9-21.5,15.9h-57
		c-12.3,0-22.4-9.8-22.4-22.4V29.1c0-12.3,9.8-22.4,22.4-22.4h57c12.3,0,22.4,9.8,22.4,22.4v48.4c0,1.8-1.8,2.8-3.4,1.8L51.2,39.8
		c-0.9-0.6-2.5,0-2.5,1.2v42.6"/>
	<g>
		<path fill="#FF4F55" d="M141.6,58.2c0-32.8,23.9-55.5,54.2-55.5c16.9,0,29.7,7.7,38.9,19l-7.7,4.9c-6.7-9.2-18.4-15.6-31.3-15.6
			c-25.1,0-44.7,19-44.7,46.9c0,27.6,19.3,46.9,44.7,46.9c12.9,0,24.5-6.1,31.3-15.6l7.7,4.9c-9.5,11.6-22.1,19-38.9,19
			C165.5,113.7,141.6,91,141.6,58.2z"/>
	</g>
	<g>
		<path fill="#FF4F55" d="M289.6,111.6l-18.1-28.2h-14.1v28.2h-8.9V40.5H277c12.9,0,22.4,8.3,22.4,21.5c0,12.9-8.9,19.9-18.4,20.5
			l19.3,29.1H289.6z M290.2,61.9c0-8-5.8-13.5-14.1-13.5h-18.7v27.3h18.7C284.4,75.7,290.2,69.9,290.2,61.9z"/>
		<path fill="#FF4F55" d="M313.2,111.6V40.5h46.6v8h-37.7v23h37.1v8h-37.1v24.5h37.7v8h-46.6V111.6z"/>
		<path fill="#FF4F55" d="M373.9,111.6V40.5h24.2c22.1,0,36.5,15.3,36.5,35.5s-14.4,35.5-36.5,35.5H373.9z M425.6,76
			c0-15.3-9.8-27.6-27.3-27.6h-15.3v55.2h15.3C415.5,103.6,425.6,91.3,425.6,76z"/>
		<path fill="#FF4F55" d="M448.6,111.6V40.5h8.9v71.1H448.6z"/>
		<path fill="#FF4F55" d="M491.5,111.6V48.4h-22.4v-8h53.9v8h-22.7v63.1H491.5z"/>
	</g>
</g>
</svg>
