<?xml version="1.0" encoding="utf-8"?>
<!-- Generator: Adobe Illustrator 18.1.0, SVG Export Plug-In . SVG Version: 6.00 Build 0)  -->
<svg version="1.1" id="Layer_1" xmlns="http://www.w3.org/2000/svg" xmlns:xlink="http://www.w3.org/1999/xlink" x="0px" y="0px"
	 viewBox="0 0 600 600" enable-background="new 0 0 600 600" xml:space="preserve">
<polygon fill="#006699" points="0,36.6 50.7,20.3 50.7,106.2 0,106.2 "/>
<g>
	<rect x="3.1" y="86.2" fill="#FFFFFF" width="9.6" height="9.6"/>
	<rect x="14.9" y="86.2" fill="#FFFFFF" width="9.6" height="9.6"/>
	<rect x="26.8" y="86.2" fill="#FFFFFF" width="9.6" height="9.6"/>
	<rect x="38.6" y="86.2" fill="#FFFFFF" width="9.6" height="9.6"/>
	<rect x="3.1" y="74.5" fill="#FFFFFF" width="9.6" height="9.6"/>
	<rect x="14.9" y="74.5" fill="#FFFFFF" width="9.6" height="9.6"/>
	<rect x="26.8" y="74.5" fill="#FFFFFF" width="9.6" height="9.6"/>
	<rect x="38.6" y="74.5" fill="#FFFFFF" width="9.6" height="9.6"/>
	<rect x="3.1" y="62.8" fill="#FFFFFF" width="9.6" height="9.6"/>
	<rect x="14.9" y="62.8" fill="#FFFFFF" width="9.6" height="9.6"/>
	<rect x="26.8" y="62.8" fill="#FFFFFF" width="9.6" height="9.6"/>
	<rect x="38.6" y="62.8" fill="#FFFFFF" width="9.6" height="9.6"/>
	<rect x="3.1" y="51.1" fill="#FFFFFF" width="9.6" height="9.6"/>
	<rect x="14.9" y="51.1" fill="#FFFFFF" width="9.6" height="9.6"/>
	<rect x="26.8" y="51.1" fill="#FFFFFF" width="9.6" height="9.6"/>
	<rect x="38.6" y="51.1" fill="#FFFFFF" width="9.6" height="9.6"/>
	<rect x="3.1" y="39.3" fill="#FFFFFF" width="9.6" height="9.6"/>
	<rect x="14.9" y="39.3" fill="#FFFFFF" width="9.6" height="9.6"/>
	<rect x="26.8" y="39.3" fill="#FFFFFF" width="9.6" height="9.6"/>
	<rect x="38.6" y="39.3" fill="#FFFFFF" width="9.6" height="9.6"/>
	<rect x="38.6" y="27.6" fill="#FFFFFF" width="9.6" height="9.6"/>
</g>
<rect x="40.9" y="42.9" fill="#0099FF" width="48.8" height="63.3"/>
<rect x="47.4" y="82.4" fill="#FFFFFF" width="35.8" height="5.6"/>
<rect x="47.4" y="71.7" fill="#FFFFFF" width="35.8" height="5.6"/>
<rect x="47.4" y="61.1" fill="#FFFFFF" width="35.8" height="5.6"/>
<rect x="47.4" y="50.4" fill="#FFFFFF" width="35.8" height="5.6"/>
<rect x="59.6" y="92.4" fill="#FFFFFF" width="11.3" height="12.8"/>
<polygon fill="#00CC66" points="470.6,36.6 521.3,20.3 521.3,106.2 470.6,106.2 "/>
<g>
	<rect x="473.6" y="86.2" fill="#FFFFFF" width="9.6" height="9.6"/>
	<rect x="485.5" y="86.2" fill="#FFFFFF" width="9.6" height="9.6"/>
	<rect x="497.3" y="86.2" fill="#FFFFFF" width="9.6" height="9.6"/>
	<rect x="509.2" y="86.2" fill="#FFFFFF" width="9.6" height="9.6"/>
	<rect x="473.6" y="74.5" fill="#FFFFFF" width="9.6" height="9.6"/>
	<rect x="485.5" y="74.5" fill="#FFFFFF" width="9.6" height="9.6"/>
	<rect x="497.3" y="74.5" fill="#FFFFFF" width="9.6" height="9.6"/>
	<rect x="509.2" y="74.5" fill="#FFFFFF" width="9.6" height="9.6"/>
	<rect x="473.6" y="62.8" fill="#FFFFFF" width="9.6" height="9.6"/>
	<rect x="485.5" y="62.8" fill="#FFFFFF" width="9.6" height="9.6"/>
	<rect x="497.3" y="62.8" fill="#FFFFFF" width="9.6" height="9.6"/>
	<rect x="509.2" y="62.8" fill="#FFFFFF" width="9.6" height="9.6"/>
	<rect x="473.6" y="51.1" fill="#FFFFFF" width="9.6" height="9.6"/>
	<rect x="485.5" y="51.1" fill="#FFFFFF" width="9.6" height="9.6"/>
	<rect x="497.3" y="51.1" fill="#FFFFFF" width="9.6" height="9.6"/>
	<rect x="509.2" y="51.1" fill="#FFFFFF" width="9.6" height="9.6"/>
	<rect x="473.6" y="39.3" fill="#FFFFFF" width="9.6" height="9.6"/>
	<rect x="485.5" y="39.3" fill="#FFFFFF" width="9.6" height="9.6"/>
	<rect x="497.3" y="39.3" fill="#FFFFFF" width="9.6" height="9.6"/>
	<rect x="509.2" y="39.3" fill="#FFFFFF" width="9.6" height="9.6"/>
	<rect x="509.2" y="27.6" fill="#FFFFFF" width="9.6" height="9.6"/>
</g>
<rect x="511.4" y="42.9" fill="#00CC99" width="48.8" height="63.3"/>
<rect x="518" y="82.4" fill="#FFFFFF" width="35.8" height="5.6"/>
<rect x="518" y="71.7" fill="#FFFFFF" width="35.8" height="5.6"/>
<rect x="518" y="61.1" fill="#FFFFFF" width="35.8" height="5.6"/>
<rect x="518" y="50.4" fill="#FFFFFF" width="35.8" height="5.6"/>
<rect x="530.2" y="92.4" fill="#FFFFFF" width="11.3" height="12.8"/>
<text transform="matrix(1 0 0 1 23.1738 124.3901)"><tspan x="0" y="0" fill="#666666" font-family="'Roboto-Regular'" font-size="11.4797">Биржа</tspan><tspan x="-15" y="13.8" fill="#666666" font-family="'Roboto-Regular'" font-size="11.4797">Кредиторов</tspan></text>
<g>
	<text transform="matrix(1 0 0 1 262.8984 326.6025)"><tspan x="0" y="0" fill="#979695" font-family="'Roboto-Regular'" font-size="11.4797">Банк</tspan><tspan x="-10.5" y="13.8" fill="#979695" font-family="'Roboto-Regular'" font-size="11.4797">Эмитент</tspan></text>
</g>
<text transform="matrix(1 0 0 1 493.7441 124.3906)"><tspan x="0" y="0" fill="#666666" font-family="'Roboto-Regular'" font-size="11.4797">Биржа</tspan><tspan x="-14.3" y="13.8" fill="#666666" font-family="'Roboto-Regular'" font-size="11.4797">Заемщиков</tspan></text>
<g>
	<path fill="none" stroke="#979695" stroke-miterlimit="10" d="M295.9,305.6H256c-3.8,0-6.8-3.1-6.8-6.8v-39.9
		c0-3.8,3.1-6.8,6.8-6.8h39.9c3.8,0,6.8,3.1,6.8,6.8v39.9C302.8,302.5,299.7,305.6,295.9,305.6z"/>
	<path fill="none" stroke="#979695" stroke-miterlimit="10" d="M294.3,300.9h-36.7c-2.1,0-3.8-1.7-3.8-3.8v-36.7
		c0-2.1,1.7-3.8,3.8-3.8h36.7c2.1,0,3.8,1.7,3.8,3.8v36.7C298.1,299.2,296.4,300.9,294.3,300.9z"/>
	<circle fill="none" stroke="#979695" stroke-width="5" stroke-miterlimit="10" cx="267.9" cy="278.7" r="5.9"/>
	<path fill="#FFFFFF" stroke="#979695" stroke-miterlimit="10" d="M298.2,271.7L298.2,271.7c-0.9,0-1.6-0.7-1.6-1.6v-5.7
		c0-0.9,0.7-1.6,1.6-1.6l0,0c0.9,0,1.6,0.7,1.6,1.6v5.7C299.8,271,299,271.7,298.2,271.7z"/>
	<path fill="#FFFFFF" stroke="#979695" stroke-miterlimit="10" d="M298.2,294L298.2,294c-0.9,0-1.6-0.7-1.6-1.6v-5.7
		c0-0.9,0.7-1.6,1.6-1.6l0,0c0.9,0,1.6,0.7,1.6,1.6v5.7C299.8,293.3,299,294,298.2,294z"/>
</g>
<g>
	<text transform="matrix(1 0 0 1 497.0859 326.6025)"><tspan x="0" y="0" fill="#979695" font-family="'Roboto-Regular'" font-size="11.4797">Банки</tspan><tspan x="-16.4" y="13.8" fill="#979695" font-family="'Roboto-Regular'" font-size="11.4797">Кредиторов</tspan></text>
</g>
<g>
	<path fill="none" stroke="#979695" stroke-miterlimit="10" d="M533.4,305.6h-39.9c-3.8,0-6.8-3.1-6.8-6.8v-39.9
		c0-3.8,3.1-6.8,6.8-6.8h39.9c3.8,0,6.8,3.1,6.8,6.8v39.9C540.2,302.5,537.2,305.6,533.4,305.6z"/>
	<path fill="none" stroke="#979695" stroke-miterlimit="10" d="M531.8,300.9h-36.7c-2.1,0-3.8-1.7-3.8-3.8v-36.7
		c0-2.1,1.7-3.8,3.8-3.8h36.7c2.1,0,3.8,1.7,3.8,3.8v36.7C535.6,299.2,533.9,300.9,531.8,300.9z"/>
	<circle fill="none" stroke="#979695" stroke-width="5" stroke-miterlimit="10" cx="505.4" cy="278.7" r="5.9"/>
	<path fill="#FFFFFF" stroke="#979695" stroke-miterlimit="10" d="M535.6,271.7L535.6,271.7c-0.9,0-1.6-0.7-1.6-1.6v-5.7
		c0-0.9,0.7-1.6,1.6-1.6l0,0c0.9,0,1.6,0.7,1.6,1.6v5.7C537.2,271,536.5,271.7,535.6,271.7z"/>
	<path fill="#FFFFFF" stroke="#979695" stroke-miterlimit="10" d="M535.6,294L535.6,294c-0.9,0-1.6-0.7-1.6-1.6v-5.7
		c0-0.9,0.7-1.6,1.6-1.6l0,0c0.9,0,1.6,0.7,1.6,1.6v5.7C537.2,293.3,536.5,294,535.6,294z"/>
</g>
<g>
	<text transform="matrix(1 0 0 1 22.5346 326.6025)"><tspan x="0" y="0" fill="#979695" font-family="'Roboto-Regular'" font-size="11.4797">Банки</tspan><tspan x="-15.7" y="13.8" fill="#979695" font-family="'Roboto-Regular'" font-size="11.4797">Заемщиков</tspan></text>
</g>
<g>
	<path fill="none" stroke="#979695" stroke-miterlimit="10" d="M58.8,305.6H18.9c-3.8,0-6.8-3.1-6.8-6.8v-39.9
		c0-3.8,3.1-6.8,6.8-6.8h39.9c3.8,0,6.8,3.1,6.8,6.8v39.9C65.7,302.5,62.6,305.6,58.8,305.6z"/>
	<path fill="none" stroke="#979695" stroke-miterlimit="10" d="M57.2,300.9H20.5c-2.1,0-3.8-1.7-3.8-3.8v-36.7
		c0-2.1,1.7-3.8,3.8-3.8h36.7c2.1,0,3.8,1.7,3.8,3.8v36.7C61,299.2,59.3,300.9,57.2,300.9z"/>
	<circle fill="none" stroke="#979695" stroke-width="5" stroke-miterlimit="10" cx="30.8" cy="278.7" r="5.9"/>
	<path fill="#FFFFFF" stroke="#979695" stroke-miterlimit="10" d="M61.1,271.7L61.1,271.7c-0.9,0-1.6-0.7-1.6-1.6v-5.7
		c0-0.9,0.7-1.6,1.6-1.6h0c0.9,0,1.6,0.7,1.6,1.6v5.7C62.6,271,61.9,271.7,61.1,271.7z"/>
	<path fill="#FFFFFF" stroke="#979695" stroke-miterlimit="10" d="M61.1,294L61.1,294c-0.9,0-1.6-0.7-1.6-1.6v-5.7
		c0-0.9,0.7-1.6,1.6-1.6h0c0.9,0,1.6,0.7,1.6,1.6v5.7C62.6,293.3,61.9,294,61.1,294z"/>
</g>
<g>
	<g>
		<line fill="none" stroke="#00CC99" stroke-width="2" stroke-miterlimit="10" x1="461.3" y1="72.1" x2="367.7" y2="72.1"/>
		<g>
			<polygon fill="#00CC99" points="369.6,69.3 359,72.1 369.6,75 			"/>
		</g>
	</g>
</g>
<g>
	<rect x="389.4" y="66.5" fill="#FFFFFF" width="43.8" height="10.7"/>
	<g>
		<text transform="matrix(1 0 0 1 391.4629 76.1196)" fill="#00CC99" font-family="'Roboto-Medium'" font-size="11.4797">Заявки</text>
	</g>
</g>
<g>
	<g>
		<line fill="none" stroke="#0099FF" stroke-width="2" stroke-miterlimit="10" x1="95.2" y1="72.5" x2="185.7" y2="72.5"/>
		<g>
			<polygon fill="#0099FF" points="183.7,75.4 194.4,72.5 183.7,69.7 			"/>
		</g>
	</g>
</g>
<g>
	<rect x="104.2" y="65" fill="#FFFFFF" width="72" height="15.4"/>
	<g>
		<text transform="matrix(1 0 0 1 105.5078 76.5127)" fill="#0099FF" font-family="'Roboto-Medium'" font-size="11.4797">Предлжения</text>
	</g>
</g>
<g>
	<g>
		<line fill="none" stroke="#B3B3B3" stroke-miterlimit="10" stroke-dasharray="5,5" x1="38.6" y1="157.9" x2="38.6" y2="232"/>
		<g>
			<polygon fill="#B3B3B3" points="36.6,159.2 38.6,151.7 40.7,159.2 			"/>
		</g>
		<g>
			<polygon fill="#B3B3B3" points="36.6,230.6 38.6,238.2 40.7,230.6 			"/>
		</g>
	</g>
</g>
<rect x="16.5" y="188.5" fill="#FFFFFF" width="44.3" height="12.9"/>
<g>
	<text transform="matrix(1 0 0 1 18.1929 198.915)" fill="#CCCCCC" font-family="'Roboto-Regular'" font-size="11.9384">Деньги</text>
</g>
<g>
	<g>
		<line fill="none" stroke="#FF0036" stroke-miterlimit="10" stroke-dasharray="5,5" x1="276" y1="157.9" x2="276" y2="232"/>
		<g>
			<polygon fill="#FF0036" points="273.9,159.2 276,151.7 278,159.2 			"/>
		</g>
		<g>
			<polygon fill="#FF0036" points="273.9,230.6 276,238.2 278,230.6 			"/>
		</g>
	</g>
</g>
<g>
	<rect x="253.8" y="188.5" fill="#FFFFFF" width="44.3" height="12.9"/>
	<text transform="matrix(1 0 0 1 256.0039 198.915)" fill="#FF0036" font-family="'Roboto-Regular'" font-size="11.9384">QUANT</text>
</g>
<g>
	<g>
		<line fill="none" stroke="#B3B3B3" stroke-miterlimit="10" stroke-dasharray="5,5" x1="513.3" y1="157.9" x2="513.3" y2="232"/>
		<g>
			<polygon fill="#B3B3B3" points="511.3,159.2 513.3,151.7 515.4,159.2 			"/>
		</g>
		<g>
			<polygon fill="#B3B3B3" points="511.3,230.6 513.3,238.2 515.4,230.6 			"/>
		</g>
	</g>
</g>
<rect x="491.2" y="188.5" fill="#FFFFFF" width="44.3" height="12.9"/>
<g>
	<text transform="matrix(1 0 0 1 492.916 198.915)" fill="#CCCCCC" font-family="'Roboto-Regular'" font-size="11.9384">Деньги</text>
</g>
<g>
	<g>
		<line fill="none" stroke="#B3B3B3" stroke-miterlimit="10" stroke-dasharray="5,5" x1="322.4" y1="278.7" x2="462.2" y2="278.7"/>
		<g>
			<polygon fill="#B3B3B3" points="323.7,280.8 316.1,278.7 323.7,276.7 			"/>
		</g>
		<g>
			<polygon fill="#B3B3B3" points="460.8,280.8 468.4,278.7 460.8,276.7 			"/>
		</g>
	</g>
</g>
<rect x="368.2" y="272.3" fill="#FFFFFF" width="44.3" height="12.9"/>
<g>
	<text transform="matrix(1 0 0 1 369.8906 282.7246)" fill="#CCCCCC" font-family="'Roboto-Regular'" font-size="11.9384">Деньги</text>
</g>
<g>
	<g>
		<line fill="none" stroke="#B3B3B3" stroke-miterlimit="10" stroke-dasharray="5,5" x1="86.4" y1="278.7" x2="226.2" y2="278.7"/>
		<g>
			<polygon fill="#B3B3B3" points="87.8,280.8 80.2,278.7 87.8,276.7 			"/>
		</g>
		<g>
			<polygon fill="#B3B3B3" points="224.8,280.8 232.4,278.7 224.8,276.7 			"/>
		</g>
	</g>
</g>
<rect x="132.2" y="272.3" fill="#FFFFFF" width="44.3" height="12.9"/>
<g>
	<text transform="matrix(1 0 0 1 133.9277 282.7246)" fill="#CCCCCC" font-family="'Roboto-Regular'" font-size="11.9384">Деньги</text>
</g>
<circle fill="#FF0033" cx="276" cy="72.7" r="71.7"/>
<circle opacity="0.17" fill="#CC0000" cx="276" cy="72.7" r="65.4"/>
<path fill="none" stroke="#FFFFFF" stroke-width="2" stroke-miterlimit="10" d="M297.8,88c-1.2,4-4.9,7-9.3,7h-24.9
	c-5.4,0-9.7-4.4-9.7-9.7V60.3c0-5.4,4.4-9.7,9.7-9.7h24.9c5.4,0,9.7,4.4,9.7,9.7v21.2c0,0.8-0.9,1.2-1.5,0.8L270.8,65
	c-0.4-0.3-1,0-1,0.5v18.7"/>
</svg>
