<?xml version="1.0" encoding="utf-8"?>
<!-- Generator: Adobe Illustrator 18.1.0, SVG Export Plug-In . SVG Version: 6.00 Build 0)  -->
<svg version="1.1" id="Layer_1" xmlns="http://www.w3.org/2000/svg" xmlns:xlink="http://www.w3.org/1999/xlink" x="0px" y="0px"
	 viewBox="0 0 690 420" enable-background="new 0 0 690 420" xml:space="preserve">
<polygon fill="#006699" points="25.6,43.8 83,25.4 83,122.6 25.6,122.6 "/>
<g>
	<rect x="29.1" y="99.9" fill="#FFFFFF" width="10.8" height="10.8"/>
	<rect x="42.5" y="99.9" fill="#FFFFFF" width="10.8" height="10.8"/>
	<rect x="55.9" y="99.9" fill="#FFFFFF" width="10.8" height="10.8"/>
	<rect x="69.3" y="99.9" fill="#FFFFFF" width="10.8" height="10.8"/>
	<rect x="29.1" y="86.7" fill="#FFFFFF" width="10.8" height="10.8"/>
	<rect x="42.5" y="86.7" fill="#FFFFFF" width="10.8" height="10.8"/>
	<rect x="55.9" y="86.7" fill="#FFFFFF" width="10.8" height="10.8"/>
	<rect x="69.3" y="86.7" fill="#FFFFFF" width="10.8" height="10.8"/>
	<rect x="29.1" y="73.5" fill="#FFFFFF" width="10.8" height="10.8"/>
	<rect x="42.5" y="73.5" fill="#FFFFFF" width="10.8" height="10.8"/>
	<rect x="55.9" y="73.5" fill="#FFFFFF" width="10.8" height="10.8"/>
	<rect x="69.3" y="73.5" fill="#FFFFFF" width="10.8" height="10.8"/>
	<rect x="29.1" y="60.2" fill="#FFFFFF" width="10.8" height="10.8"/>
	<rect x="42.5" y="60.2" fill="#FFFFFF" width="10.8" height="10.8"/>
	<rect x="55.9" y="60.2" fill="#FFFFFF" width="10.8" height="10.8"/>
	<rect x="69.3" y="60.2" fill="#FFFFFF" width="10.8" height="10.8"/>
	<rect x="29.1" y="46.9" fill="#FFFFFF" width="10.8" height="10.8"/>
	<rect x="42.5" y="46.9" fill="#FFFFFF" width="10.8" height="10.8"/>
	<rect x="55.9" y="46.9" fill="#FFFFFF" width="10.8" height="10.8"/>
	<rect x="69.3" y="46.9" fill="#FFFFFF" width="10.8" height="10.8"/>
	<rect x="69.3" y="33.6" fill="#FFFFFF" width="10.8" height="10.8"/>
</g>
<rect x="71.9" y="50.9" fill="#00B6FF" width="55.2" height="71.6"/>
<rect x="79.3" y="95.6" fill="#FFFFFF" width="40.5" height="6.3"/>
<rect x="79.3" y="83.6" fill="#FFFFFF" width="40.5" height="6.3"/>
<rect x="79.3" y="71.5" fill="#FFFFFF" width="40.5" height="6.3"/>
<rect x="79.3" y="59.5" fill="#FFFFFF" width="40.5" height="6.3"/>
<rect x="93.1" y="106.8" fill="#FFFFFF" width="12.8" height="14.4"/>
<polygon fill="#00CC66" points="557.9,43.8 615.3,25.4 615.3,122.6 557.9,122.6 "/>
<g>
	<rect x="561.4" y="99.9" fill="#FFFFFF" width="10.8" height="10.8"/>
	<rect x="574.8" y="99.9" fill="#FFFFFF" width="10.8" height="10.8"/>
	<rect x="588.2" y="99.9" fill="#FFFFFF" width="10.8" height="10.8"/>
	<rect x="601.6" y="99.9" fill="#FFFFFF" width="10.8" height="10.8"/>
	<rect x="561.4" y="86.7" fill="#FFFFFF" width="10.8" height="10.8"/>
	<rect x="574.8" y="86.7" fill="#FFFFFF" width="10.8" height="10.8"/>
	<rect x="588.2" y="86.7" fill="#FFFFFF" width="10.8" height="10.8"/>
	<rect x="601.6" y="86.7" fill="#FFFFFF" width="10.8" height="10.8"/>
	<rect x="561.4" y="73.5" fill="#FFFFFF" width="10.8" height="10.8"/>
	<rect x="574.8" y="73.5" fill="#FFFFFF" width="10.8" height="10.8"/>
	<rect x="588.2" y="73.5" fill="#FFFFFF" width="10.8" height="10.8"/>
	<rect x="601.6" y="73.5" fill="#FFFFFF" width="10.8" height="10.8"/>
	<rect x="561.4" y="60.2" fill="#FFFFFF" width="10.8" height="10.8"/>
	<rect x="574.8" y="60.2" fill="#FFFFFF" width="10.8" height="10.8"/>
	<rect x="588.2" y="60.2" fill="#FFFFFF" width="10.8" height="10.8"/>
	<rect x="601.6" y="60.2" fill="#FFFFFF" width="10.8" height="10.8"/>
	<rect x="561.4" y="46.9" fill="#FFFFFF" width="10.8" height="10.8"/>
	<rect x="574.8" y="46.9" fill="#FFFFFF" width="10.8" height="10.8"/>
	<rect x="588.2" y="46.9" fill="#FFFFFF" width="10.8" height="10.8"/>
	<rect x="601.6" y="46.9" fill="#FFFFFF" width="10.8" height="10.8"/>
	<rect x="601.6" y="33.6" fill="#FFFFFF" width="10.8" height="10.8"/>
</g>
<rect x="604.1" y="50.9" fill="#FFC500" width="55.2" height="71.6"/>
<rect x="611.6" y="95.6" fill="#FFFFFF" width="40.5" height="6.3"/>
<rect x="611.6" y="83.6" fill="#FFFFFF" width="40.5" height="6.3"/>
<rect x="611.6" y="71.5" fill="#FFFFFF" width="40.5" height="6.3"/>
<rect x="611.6" y="59.5" fill="#FFFFFF" width="40.5" height="6.3"/>
<rect x="625.4" y="106.8" fill="#FFFFFF" width="12.8" height="14.4"/>
<g>
	<path fill="none" stroke="#808080" stroke-miterlimit="10" d="M361.1,348.1h-46.6c-3.9,0-7-3.2-7-7v-46.6c0-3.9,3.2-7,7-7h46.6
		c3.9,0,7,3.2,7,7V341C368.1,344.9,365,348.1,361.1,348.1z"/>
	<path fill="none" stroke="#808080" stroke-miterlimit="10" d="M358.9,342.8h-42.2c-2.2,0-3.9-1.8-3.9-3.9v-42.2
		c0-2.2,1.8-3.9,3.9-3.9h42.2c2.2,0,3.9,1.8,3.9,3.9v42.2C362.8,341,361.1,342.8,358.9,342.8z"/>
	<circle fill="none" stroke="#808080" stroke-width="5" stroke-miterlimit="10" cx="328.6" cy="317.7" r="6.6"/>
	<path fill="#FFFFFF" stroke="#808080" stroke-miterlimit="10" d="M363,309.7h-0.3c-0.9,0-1.6-0.7-1.6-1.6v-6.7
		c0-0.9,0.7-1.6,1.6-1.6h0.3c0.9,0,1.6,0.7,1.6,1.6v6.7C364.7,308.9,364,309.7,363,309.7z"/>
	<path fill="#FFFFFF" stroke="#808080" stroke-miterlimit="10" d="M363,335h-0.3c-0.9,0-1.6-0.7-1.6-1.6v-6.7c0-0.9,0.7-1.6,1.6-1.6
		h0.3c0.9,0,1.6,0.7,1.6,1.6v6.7C364.7,334.2,364,335,363,335z"/>
</g>
<g>
	<path fill="none" stroke="#808080" stroke-miterlimit="10" d="M629.7,348.1h-46.6c-3.9,0-7-3.2-7-7v-46.6c0-3.9,3.2-7,7-7h46.6
		c3.9,0,7,3.2,7,7V341C636.7,344.9,633.5,348.1,629.7,348.1z"/>
	<path fill="none" stroke="#808080" stroke-miterlimit="10" d="M627.5,342.8h-42.2c-2.2,0-3.9-1.8-3.9-3.9v-42.2
		c0-2.2,1.8-3.9,3.9-3.9h42.2c2.2,0,3.9,1.8,3.9,3.9v42.2C631.4,341,629.7,342.8,627.5,342.8z"/>
	<circle fill="none" stroke="#808080" stroke-width="5" stroke-miterlimit="10" cx="597.2" cy="317.7" r="6.6"/>
	<path fill="#FFFFFF" stroke="#808080" stroke-miterlimit="10" d="M631.6,309.7h-0.3c-0.9,0-1.6-0.7-1.6-1.6v-6.7
		c0-0.9,0.7-1.6,1.6-1.6h0.3c0.9,0,1.6,0.7,1.6,1.6v6.7C633.3,308.9,632.6,309.7,631.6,309.7z"/>
	<path fill="#FFFFFF" stroke="#808080" stroke-miterlimit="10" d="M631.6,335h-0.3c-0.9,0-1.6-0.7-1.6-1.6v-6.7
		c0-0.9,0.7-1.6,1.6-1.6h0.3c0.9,0,1.6,0.7,1.6,1.6v6.7C633.3,334.2,632.6,335,631.6,335z"/>
</g>
<g>
	<path fill="none" stroke="#808080" stroke-miterlimit="10" d="M92.9,348.1H46.3c-3.9,0-7-3.2-7-7v-46.6c0-3.9,3.2-7,7-7h46.6
		c3.9,0,7,3.2,7,7V341C99.9,344.9,96.8,348.1,92.9,348.1z"/>
	<path fill="none" stroke="#808080" stroke-miterlimit="10" d="M90.7,342.8H48.5c-2.2,0-3.9-1.8-3.9-3.9v-42.2
		c0-2.2,1.8-3.9,3.9-3.9h42.2c2.2,0,3.9,1.8,3.9,3.9v42.2C94.6,341,92.9,342.8,90.7,342.8z"/>
	<circle fill="none" stroke="#808080" stroke-width="5" stroke-miterlimit="10" cx="60.4" cy="317.7" r="6.6"/>
	<path fill="#FFFFFF" stroke="#808080" stroke-miterlimit="10" d="M94.8,309.7h-0.3c-0.9,0-1.6-0.7-1.6-1.6v-6.7
		c0-0.9,0.7-1.6,1.6-1.6h0.3c0.9,0,1.6,0.7,1.6,1.6v6.7C96.5,308.9,95.8,309.7,94.8,309.7z"/>
	<path fill="#FFFFFF" stroke="#808080" stroke-miterlimit="10" d="M94.8,335h-0.3c-0.9,0-1.6-0.7-1.6-1.6v-6.7
		c0-0.9,0.7-1.6,1.6-1.6h0.3c0.9,0,1.6,0.7,1.6,1.6v6.7C96.5,334.2,95.8,335,94.8,335z"/>
</g>
<g>
	<g>
		<line fill="none" stroke="#00CC66" stroke-width="2" stroke-miterlimit="10" x1="547.4" y1="84" x2="440.7" y2="84"/>
		<g>
			<polygon fill="#00CC66" points="442.6,81.1 431.7,84 442.6,87 			"/>
		</g>
	</g>
</g>
<g>
	<rect x="466" y="77.6" fill="#FFFFFF" width="49.5" height="12.1"/>
</g>
<g>
	<g>
		<line fill="none" stroke="#0099FF" stroke-width="2" stroke-miterlimit="10" x1="133.3" y1="84.5" x2="236.5" y2="84.5"/>
		<g>
			<polygon fill="#0099FF" points="234.5,87.4 245.5,84.5 234.5,81.5 			"/>
		</g>
	</g>
</g>
<g>
	<rect x="144" y="75.9" fill="#FFFFFF" width="78.2" height="17.5"/>
</g>
<g>
	<g>
		<line fill="none" stroke="#B3B3B3" stroke-miterlimit="10" stroke-dasharray="5,5" x1="69.3" y1="180.4" x2="69.3" y2="265.4"/>
		<g>
			<polygon fill="#B3B3B3" points="67.2,181.7 69.3,174 71.3,181.7 			"/>
		</g>
		<g>
			<polygon fill="#B3B3B3" points="67.2,264 69.3,271.8 71.3,264 			"/>
		</g>
	</g>
</g>
<rect x="44.3" y="215.6" fill="#FFFFFF" width="50.1" height="14.6"/>
<g>
	<g>
		<line fill="none" stroke="#FF0036" stroke-miterlimit="10" stroke-dasharray="5,5" x1="337.8" y1="180.4" x2="337.8" y2="265.4"/>
		<g>
			<polygon fill="#FF0036" points="335.7,181.7 337.8,174 339.9,181.7 			"/>
		</g>
		<g>
			<polygon fill="#FF0036" points="335.7,264 337.8,271.8 339.9,264 			"/>
		</g>
	</g>
</g>
<g>
	<rect x="312.8" y="218.7" fill="#FFFFFF" width="50.1" height="14.6"/>
	<g>
		<path fill="#FF0036" d="M323.8,226.5c0,0.6-0.1,1.2-0.3,1.8s-0.5,1-0.9,1.3l1.6,1.5l-0.9,0.8l-1.9-1.6c-0.2,0.1-0.5,0.2-0.7,0.2
			c-0.3,0-0.5,0.1-0.8,0.1c-1.1,0-2.1-0.4-2.8-1.1c-0.7-0.8-1-1.8-1-2.9v-1.8c0-1.1,0.3-2.2,1-2.9c0.7-0.8,1.6-1.1,2.8-1.1
			c1.1,0,2.1,0.4,2.8,1.1c0.7,0.8,1.1,1.8,1.1,2.9L323.8,226.5L323.8,226.5z M322.5,224.9c0-0.9-0.2-1.6-0.7-2.2
			c-0.5-0.5-1.1-0.8-2-0.8c-0.7,0-1.3,0.3-1.9,0.8c-0.4,0.5-0.7,1.2-0.7,2.2v1.8c0,0.9,0.2,1.6,0.7,2.2c0.4,0.5,1,0.8,1.9,0.8
			s1.4-0.3,2-0.8c0.5-0.5,0.7-1.2,0.7-2.2V224.9z"/>
		<path fill="#FF0036" d="M332.7,220.9v6.5c0,1-0.3,1.9-1,2.4s-1.5,0.8-2.7,0.8c-1,0-2-0.3-2.6-0.8c-0.6-0.5-1-1.3-1-2.4v-6.5h1.3
			v6.5c0,0.7,0.2,1.2,0.6,1.6c0.4,0.4,0.9,0.5,1.6,0.5c0.7,0,1.2-0.2,1.8-0.5c0.4-0.4,0.6-0.9,0.6-1.6v-6.5H332.7z"/>
		<path fill="#FF0036" d="M340,228.1h-4l-0.9,2.5h-1.3l3.7-9.6h1.1l3.6,9.6h-1.3L340,228.1z M336.3,226.9h3.2l-1.5-4.3l0,0
			L336.3,226.9z"/>
		<path fill="#FF0036" d="M350.8,230.5h-1.3l-4.6-7.4l0,0v7.4h-1.3v-9.7h1.3l4.6,7.4l0,0v-7.4h1.3V230.5z"/>
		<path fill="#FF0036" d="M359.4,221.9h-3.1v8.5H355v-8.5h-3.1v-1h7.4v1H359.4z"/>
	</g>
</g>
<g>
	<g>
		<line fill="none" stroke="#B3B3B3" stroke-miterlimit="10" stroke-dasharray="5,5" x1="606.3" y1="180.4" x2="606.3" y2="265.4"/>
		<g>
			<polygon fill="#B3B3B3" points="604.1,181.7 606.3,174 608.4,181.7 			"/>
		</g>
		<g>
			<polygon fill="#B3B3B3" points="604.1,264 606.3,271.8 608.4,264 			"/>
		</g>
	</g>
</g>
<rect x="581.3" y="215.6" fill="#FFFFFF" width="50.1" height="14.6"/>
<g>
	<g>
		<line fill="none" stroke="#B3B3B3" stroke-miterlimit="10" stroke-dasharray="5,5" x1="392.7" y1="317.7" x2="552.1" y2="317.7"/>
		<g>
			<polygon fill="#B3B3B3" points="394.1,319.8 386.3,317.7 394.1,315.6 			"/>
		</g>
		<g>
			<polygon fill="#B3B3B3" points="550.7,319.8 558.5,317.7 550.7,315.6 			"/>
		</g>
	</g>
</g>
<rect x="447.8" y="310.4" fill="#FFFFFF" width="40.9" height="14.6"/>
<g>
	<g>
		<line fill="none" stroke="#B3B3B3" stroke-miterlimit="10" stroke-dasharray="5,5" x1="122.7" y1="317.7" x2="282.1" y2="317.7"/>
		<g>
			<polygon fill="#B3B3B3" points="124.2,319.8 116.4,317.7 124.2,315.6 			"/>
		</g>
		<g>
			<polygon fill="#B3B3B3" points="280.7,319.8 288.5,317.7 280.7,315.6 			"/>
		</g>
	</g>
</g>
<rect x="180.6" y="310.4" fill="#FFFFFF" width="39.2" height="14.6"/>
<circle fill="#FF2250" cx="337.8" cy="84.7" r="81.2"/>
<circle fill="none" stroke="#FF0043" stroke-width="3" stroke-miterlimit="10" cx="337.8" cy="84.7" r="67.2"/>
<path fill="none" stroke="#FFFFFF" stroke-width="2" stroke-miterlimit="10" d="M363.4,96.8c-1.3,4.5-5.6,7.9-10.6,7.9h-28.2
	c-6.1,0-11-4.9-11-11V65.4c0-6.1,4.9-11,11-11h28.2c6.1,0,11,4.9,11,11v24c0,0.9-1,1.4-1.8,0.9l-29.3-19.7c-0.5-0.3-1.1,0-1.1,0.6
	v21.1"/>
<g enable-background="new    ">
	<path fill="#FFFFFF" d="M316.9,125.6h-1.6l-4.2-6.9l0,0v6.9h-1.6v-9.5h1.6l4.2,6.9l0,0v-6.9h1.6V125.6z"/>
	<path fill="#FFFFFF" d="M324.8,121.3h-4.2v3h4.8v1.3H319v-9.5h6.4v1.3h-4.8v2.7h4.2V121.3z"/>
	<path fill="#FFFFFF" d="M333.4,117.4h-2.9v8.2H329v-8.2h-2.9v-1.3h7.3V117.4z"/>
	<path fill="#FFFFFF" d="M341.9,121.7c0,1.2-0.4,2.1-1.1,2.9c-0.7,0.8-1.7,1.1-2.8,1.1c-1.1,0-2.1-0.4-2.8-1.1
		c-0.7-0.8-1.1-1.7-1.1-2.9V120c0-1.2,0.4-2.1,1.1-2.9c0.7-0.8,1.6-1.2,2.8-1.2c1.2,0,2.1,0.4,2.8,1.2c0.7,0.8,1.1,1.7,1.1,2.9
		V121.7z M340.3,120c0-0.8-0.2-1.4-0.6-2c-0.4-0.5-1-0.8-1.7-0.8c-0.7,0-1.2,0.3-1.7,0.8c-0.4,0.5-0.6,1.2-0.6,2v1.7
		c0,0.8,0.2,1.5,0.6,2c0.4,0.5,1,0.8,1.7,0.8c0.7,0,1.3-0.3,1.7-0.8c0.4-0.5,0.6-1.2,0.6-2V120z"/>
	<path fill="#FFFFFF" d="M345.2,122v3.6h-1.6v-9.5h3.7c1,0,1.9,0.3,2.5,0.8c0.6,0.5,0.9,1.3,0.9,2.1c0,0.9-0.3,1.6-0.9,2.1
		c-0.6,0.5-1.4,0.8-2.5,0.8H345.2z M345.2,120.7h2.1c0.6,0,1-0.2,1.3-0.5c0.3-0.3,0.4-0.7,0.4-1.2s-0.1-0.9-0.4-1.2
		c-0.3-0.3-0.7-0.5-1.3-0.5h-2.1V120.7z"/>
	<path fill="#FFFFFF" d="M356.3,123.4h-3.7l-0.8,2.2h-1.6l3.5-9.5h1.5l3.5,9.5H357L356.3,123.4z M353,122.1h2.8l-1.4-4.1h0
		L353,122.1z"/>
	<path fill="#FFFFFF" d="M362.9,120.7l2.3-4.6h1.8l-3.3,6.2v3.3h-1.6v-3.4l-3.2-6.1h1.8L362.9,120.7z"/>
</g>
<g>
	<path fill="#0099FF" d="M158.3,88.2h-1.3v-8.3h-4.5v8.3h-1.3v-9.2h7V88.2z"/>
	<path fill="#0099FF" d="M166.2,85c0,1-0.2,1.8-0.7,2.4c-0.5,0.6-1.1,0.9-2,0.9c-0.4,0-0.8-0.1-1.1-0.2c-0.3-0.1-0.6-0.4-0.8-0.6
		v3.4h-1.3v-9.5h1l0.2,0.9c0.2-0.3,0.5-0.6,0.8-0.8s0.7-0.3,1.2-0.3c0.9,0,1.5,0.3,2,1c0.5,0.7,0.7,1.6,0.7,2.7V85z M165,84.8
		c0-0.8-0.2-1.4-0.5-1.9c-0.3-0.5-0.8-0.8-1.4-0.8c-0.4,0-0.7,0.1-0.9,0.2s-0.5,0.4-0.6,0.7v3.3c0.2,0.3,0.4,0.5,0.6,0.7
		c0.3,0.2,0.6,0.2,0.9,0.2c0.6,0,1-0.2,1.3-0.6s0.5-1,0.5-1.7V84.8z"/>
	<path fill="#0099FF" d="M167.5,84.7c0-1,0.3-1.9,0.8-2.5c0.6-0.7,1.3-1,2.2-1c1,0,1.7,0.3,2.3,1c0.6,0.7,0.8,1.5,0.8,2.5v0.1
		c0,1-0.3,1.9-0.8,2.5s-1.3,1-2.2,1s-1.7-0.3-2.2-1c-0.6-0.7-0.8-1.5-0.8-2.5V84.7z M168.7,84.8c0,0.7,0.2,1.3,0.5,1.8
		c0.3,0.5,0.8,0.7,1.4,0.7c0.6,0,1-0.2,1.4-0.7s0.5-1.1,0.5-1.8v-0.1c0-0.7-0.2-1.3-0.5-1.8c-0.3-0.5-0.8-0.7-1.4-0.7
		c-0.6,0-1,0.2-1.4,0.7c-0.3,0.5-0.5,1.1-0.5,1.8V84.8z"/>
	<path fill="#0099FF" d="M180.7,88.2h-1.3v-5.9h-3.1v5.9h-1.3v-6.9h5.6V88.2z"/>
	<path fill="#0099FF" d="M182.3,84.7c0-1,0.3-1.9,0.8-2.5c0.6-0.7,1.3-1,2.2-1c1,0,1.7,0.3,2.3,1c0.6,0.7,0.8,1.5,0.8,2.5v0.1
		c0,1-0.3,1.9-0.8,2.5s-1.3,1-2.2,1s-1.7-0.3-2.2-1c-0.6-0.7-0.8-1.5-0.8-2.5V84.7z M183.5,84.8c0,0.7,0.2,1.3,0.5,1.8
		c0.3,0.5,0.8,0.7,1.4,0.7c0.6,0,1-0.2,1.4-0.7s0.5-1.1,0.5-1.8v-0.1c0-0.7-0.2-1.3-0.5-1.8c-0.3-0.5-0.8-0.7-1.4-0.7
		c-0.6,0-1,0.2-1.4,0.7c-0.3,0.5-0.5,1.1-0.5,1.8V84.8z"/>
	<path fill="#0099FF" d="M192.4,84.1c0.4,0,0.8-0.1,0.9-0.3c0.2-0.2,0.3-0.4,0.3-0.7c0-0.3-0.1-0.5-0.3-0.7c-0.2-0.2-0.5-0.3-1-0.3
		c-0.4,0-0.7,0.1-1,0.3s-0.4,0.5-0.4,0.8h-1.2l0,0c0-0.6,0.2-1.1,0.7-1.4c0.5-0.4,1.1-0.6,1.9-0.6c0.8,0,1.4,0.2,1.9,0.5
		c0.5,0.3,0.7,0.8,0.7,1.5c0,0.3-0.1,0.6-0.3,0.8c-0.2,0.3-0.4,0.5-0.8,0.6c0.4,0.1,0.7,0.3,0.9,0.6s0.3,0.6,0.3,1
		c0,0.6-0.2,1.1-0.7,1.5c-0.5,0.4-1.1,0.5-2,0.5c-0.7,0-1.4-0.2-1.9-0.5c-0.5-0.4-0.8-0.9-0.8-1.6l0,0h1.2c0,0.3,0.1,0.6,0.4,0.8
		s0.6,0.4,1.1,0.4c0.5,0,0.8-0.1,1.1-0.3c0.3-0.2,0.4-0.5,0.4-0.8c0-0.4-0.1-0.6-0.3-0.8c-0.2-0.2-0.6-0.3-1-0.3h-1.2v-1H192.4z"/>
	<path fill="#0099FF" d="M200.9,81.3h1.3v6.9h-1.3v-4.9l0,0l-3,4.9h-1.2v-6.9h1.2v4.9l0,0L200.9,81.3z"/>
	<path fill="#0099FF" d="M203.9,81.3h1.3v5.9h3.1v-5.9h1.3v5.9h0.8v3.2h-1.3v-2.2h-5.2V81.3z"/>
	<path fill="#0099FF" d="M213,79.5h-1.3v-1.3h1.3V79.5z M213,88.2h-1.3v-6.9h1.3V88.2z"/>
	<path fill="#0099FF" d="M214.8,80.1h-1.4v-1.3h1.4V80.1z M216.2,88.2H215v-6.9h1.3V88.2z M217.8,80.1h-1.4v-1.3h1.4V80.1z"/>
</g>
<g>
	<path fill="#00CC66" d="M477.2,81.6c0,0.4-0.1,0.8-0.4,1.1c-0.3,0.3-0.6,0.6-1.1,0.8c0.5,0.2,0.9,0.4,1.2,0.8
		c0.3,0.3,0.4,0.8,0.4,1.2c0,0.8-0.3,1.4-0.9,1.8c-0.6,0.4-1.4,0.7-2.4,0.7c-0.9,0-1.6-0.2-2.3-0.6s-0.9-1-0.9-1.8l0,0h1.1
		c0,0.4,0.2,0.8,0.6,1.1s0.9,0.5,1.5,0.5c0.7,0,1.2-0.1,1.6-0.4s0.6-0.7,0.6-1.1c0-0.5-0.2-0.9-0.5-1.2s-0.9-0.4-1.6-0.4H473V83h1.1
		c0.7,0,1.2-0.1,1.5-0.4s0.5-0.6,0.5-1.1c0-0.4-0.2-0.8-0.5-1.1s-0.9-0.4-1.6-0.4c-0.6,0-1,0.1-1.4,0.4s-0.6,0.6-0.6,1h-1.1l0,0
		c0-0.7,0.3-1.2,0.9-1.7s1.3-0.6,2.2-0.6c1,0,1.8,0.2,2.4,0.6C476.9,80.2,477.2,80.8,477.2,81.6z"/>
	<path fill="#00CC66" d="M482.9,87.8c0-0.2-0.1-0.4-0.1-0.5s0-0.3,0-0.4c-0.2,0.3-0.5,0.6-0.8,0.8s-0.7,0.3-1.1,0.3
		c-0.7,0-1.2-0.2-1.5-0.5s-0.5-0.8-0.5-1.4c0-0.6,0.2-1.1,0.7-1.4s1.2-0.5,2-0.5h1.3v-0.6c0-0.4-0.1-0.7-0.3-0.9s-0.5-0.3-1-0.3
		c-0.4,0-0.7,0.1-0.9,0.3s-0.3,0.4-0.3,0.7h-1.1l0,0c0-0.5,0.2-0.9,0.7-1.3s1.1-0.6,1.8-0.6c0.7,0,1.3,0.2,1.7,0.5s0.7,0.9,0.7,1.6
		v3.1c0,0.2,0,0.4,0,0.7s0.1,0.4,0.1,0.6H482.9z M481,87c0.4,0,0.8-0.1,1.1-0.3s0.6-0.5,0.7-0.7v-1h-1.3c-0.5,0-0.8,0.1-1.1,0.4
		s-0.4,0.5-0.4,0.8c0,0.3,0.1,0.5,0.3,0.7C480.4,86.9,480.6,87,481,87z"/>
	<path fill="#00CC66" d="M490.7,81.5v6.3h-1.2v-2.5h-1.6l-1.5,2.5h-1.2l1.6-2.6c-0.4-0.1-0.7-0.4-0.9-0.7s-0.3-0.7-0.3-1.1
		c0-0.6,0.2-1,0.6-1.4s1-0.5,1.8-0.5H490.7z M486.7,83.4c0,0.3,0.1,0.5,0.3,0.7c0.2,0.2,0.5,0.3,0.9,0.3h1.6v-2.1H488
		c-0.4,0-0.7,0.1-0.9,0.3C486.8,82.9,486.7,83.1,486.7,83.4z"/>
	<path fill="#00CC66" d="M492.4,87.8v-6.3h2.5c0.8,0,1.5,0.1,1.9,0.4s0.7,0.7,0.7,1.3c0,0.3-0.1,0.6-0.3,0.8s-0.4,0.4-0.8,0.5
		c0.4,0.1,0.7,0.3,0.9,0.5s0.3,0.6,0.3,0.9c0,0.6-0.2,1-0.6,1.3s-1,0.5-1.8,0.5H492.4z M493.5,84.1h1.4c0.5,0,0.9-0.1,1.1-0.2
		s0.4-0.4,0.4-0.7c0-0.3-0.1-0.5-0.4-0.7s-0.6-0.2-1.1-0.2h-1.3V84.1z M493.5,85v1.9h1.8c0.4,0,0.7-0.1,1-0.2s0.3-0.4,0.3-0.7
		c0-0.3-0.1-0.5-0.3-0.7s-0.5-0.2-1-0.2H493.5z"/>
	<path fill="#00CC66" d="M501.2,85.1h-0.8v2.7h-1.2v-6.3h1.2v2.7h0.7l2.1-2.7h1.4l0,0l-2.5,3l2.7,3.3l0,0h-1.4L501.2,85.1z"/>
	<path fill="#00CC66" d="M509.6,81.5h1.2v6.3h-1.2v-4.5l0,0l-2.8,4.5h-1.1v-6.3h1.1V86l0,0L509.6,81.5z"/>
</g>
<g>
	<path fill="#666666" d="M58.1,134.8h-4.4v2.7h2.3c1,0,1.8,0.3,2.3,0.8c0.5,0.5,0.8,1.2,0.8,2c0,0.8-0.3,1.5-0.8,2s-1.3,0.8-2.3,0.8
		h-3.5v-9.2h5.7V134.8z M53.6,138.5v3.6h2.3c0.6,0,1.1-0.2,1.4-0.5c0.3-0.4,0.5-0.8,0.5-1.3c0-0.5-0.2-0.9-0.5-1.3
		c-0.3-0.3-0.8-0.5-1.4-0.5H53.6z"/>
	<path fill="#666666" d="M61.8,134.5h-1.3v-1.3h1.3V134.5z M61.8,143.1h-1.3v-6.9h1.3V143.1z"/>
	<path fill="#666666" d="M69.6,139.9c0,1-0.2,1.8-0.7,2.4c-0.5,0.6-1.1,0.9-2,0.9c-0.4,0-0.8-0.1-1.1-0.2c-0.3-0.1-0.6-0.4-0.8-0.6
		v3.4h-1.3v-9.5h1l0.2,0.9c0.2-0.3,0.5-0.6,0.8-0.8s0.7-0.3,1.2-0.3c0.9,0,1.5,0.3,2,1c0.5,0.7,0.7,1.6,0.7,2.7V139.9z M68.3,139.8
		c0-0.8-0.2-1.4-0.5-1.9c-0.3-0.5-0.8-0.8-1.4-0.8c-0.4,0-0.7,0.1-0.9,0.2s-0.5,0.4-0.6,0.7v3.3c0.2,0.3,0.4,0.5,0.6,0.7
		c0.3,0.2,0.6,0.2,0.9,0.2c0.6,0,1-0.2,1.3-0.6s0.5-1,0.5-1.7V139.8z"/>
	<path fill="#666666" d="M76.5,140.1h-0.8v3h-1.3v-3h-0.8l-1.8,3h-1.6l2.5-3.6l-2.2-3.2H72l1.7,2.8h0.8v-2.8h1.3v2.8h0.8l1.7-2.8
		h1.5l-2.2,3.2l2.5,3.6h-1.6L76.5,140.1z"/>
	<path fill="#666666" d="M85.2,143.1c0-0.2-0.1-0.4-0.1-0.5c0-0.2,0-0.3,0-0.5c-0.2,0.3-0.5,0.6-0.9,0.8c-0.4,0.2-0.8,0.3-1.2,0.3
		c-0.7,0-1.3-0.2-1.6-0.5c-0.4-0.4-0.6-0.9-0.6-1.5c0-0.7,0.3-1.2,0.8-1.5c0.5-0.4,1.3-0.6,2.2-0.6h1.4v-0.7c0-0.4-0.1-0.7-0.4-1
		c-0.2-0.2-0.6-0.4-1-0.4c-0.4,0-0.7,0.1-1,0.3c-0.3,0.2-0.4,0.5-0.4,0.7h-1.2l0,0c0-0.5,0.2-1,0.7-1.4c0.5-0.4,1.1-0.6,1.9-0.6
		c0.8,0,1.4,0.2,1.9,0.6c0.5,0.4,0.7,1,0.7,1.7v3.3c0,0.2,0,0.5,0,0.7s0.1,0.5,0.1,0.7H85.2z M83.1,142.2c0.5,0,0.9-0.1,1.2-0.3
		s0.6-0.5,0.7-0.8v-1.1h-1.4c-0.5,0-0.9,0.1-1.2,0.4c-0.3,0.3-0.5,0.6-0.5,0.9c0,0.3,0.1,0.5,0.3,0.7S82.8,142.2,83.1,142.2z"/>
	<path fill="#666666" d="M37.8,154.5h-1.1v4.2h-1.3v-9.2h1.3v4.1h1l3.3-4.1h1.4l0,0l-3.6,4.4l3.8,4.7l0,0h-1.5L37.8,154.5z"/>
	<path fill="#666666" d="M49.5,155.5c0,1-0.2,1.8-0.7,2.4c-0.5,0.6-1.1,0.9-2,0.9c-0.4,0-0.8-0.1-1.1-0.2c-0.3-0.1-0.6-0.4-0.8-0.6
		v3.4h-1.3v-9.5h1l0.2,0.9c0.2-0.3,0.5-0.6,0.8-0.8s0.7-0.3,1.2-0.3c0.9,0,1.5,0.3,2,1c0.5,0.7,0.7,1.6,0.7,2.7V155.5z M48.2,155.4
		c0-0.8-0.2-1.4-0.5-1.9c-0.3-0.5-0.8-0.8-1.4-0.8c-0.4,0-0.7,0.1-0.9,0.2s-0.5,0.4-0.6,0.7v3.3c0.2,0.3,0.4,0.5,0.6,0.7
		c0.3,0.2,0.6,0.2,0.9,0.2c0.6,0,1-0.2,1.3-0.6s0.5-1,0.5-1.7V155.4z"/>
	<path fill="#666666" d="M53.9,158.8c-1,0-1.7-0.3-2.3-1c-0.6-0.6-0.8-1.5-0.8-2.5v-0.3c0-1,0.3-1.8,0.9-2.4c0.6-0.6,1.3-1,2.1-1
		c0.9,0,1.6,0.3,2.1,0.8s0.7,1.3,0.7,2.2v0.8H52l0,0c0,0.7,0.2,1.2,0.5,1.6c0.3,0.4,0.8,0.6,1.4,0.6c0.4,0,0.8-0.1,1.1-0.2
		c0.3-0.1,0.6-0.3,0.8-0.5l0.5,0.8c-0.2,0.2-0.6,0.4-1,0.6C54.9,158.7,54.4,158.8,53.9,158.8z M53.7,152.7c-0.4,0-0.8,0.2-1.1,0.5
		s-0.5,0.8-0.5,1.3l0,0h3.2v-0.2c0-0.5-0.1-0.9-0.4-1.2C54.6,152.8,54.2,152.7,53.7,152.7z"/>
	<path fill="#666666" d="M57.8,157.7c0.4-0.4,0.6-0.8,0.8-1.3c0.2-0.4,0.3-1.1,0.4-2l0.1-2.6h4.5v5.9h0.9l-0.1,3h-1.1v-2h-4.7v2
		h-1.1l-0.1-3H57.8z M60.2,154.4c0,0.8-0.2,1.4-0.3,1.9c-0.2,0.5-0.4,1-0.7,1.4h3.1v-4.8h-2L60.2,154.4z"/>
	<path fill="#666666" d="M70.1,151.8h1.3v6.9h-1.3v-4.9l0,0l-3,4.9h-1.2v-6.9H67v4.9l0,0L70.1,151.8z"/>
	<path fill="#666666" d="M78.5,152.8h-2.3v5.9H75v-5.9h-2.2v-1h5.8V152.8z"/>
	<path fill="#666666" d="M79.4,155.2c0-1,0.3-1.9,0.8-2.5c0.6-0.7,1.3-1,2.2-1c1,0,1.7,0.3,2.3,1c0.6,0.7,0.8,1.5,0.8,2.5v0.1
		c0,1-0.3,1.9-0.8,2.5s-1.3,1-2.2,1s-1.7-0.3-2.2-1c-0.6-0.7-0.8-1.5-0.8-2.5V155.2z M80.7,155.3c0,0.7,0.2,1.3,0.5,1.8
		c0.3,0.5,0.8,0.7,1.4,0.7c0.6,0,1-0.2,1.4-0.7s0.5-1.1,0.5-1.8v-0.1c0-0.7-0.2-1.3-0.5-1.8c-0.3-0.5-0.8-0.7-1.4-0.7
		c-0.6,0-1,0.2-1.4,0.7c-0.3,0.5-0.5,1.1-0.5,1.8V155.3z"/>
	<path fill="#666666" d="M92.9,155.5c0,1-0.2,1.8-0.7,2.4c-0.5,0.6-1.1,0.9-2,0.9c-0.4,0-0.8-0.1-1.1-0.2c-0.3-0.1-0.6-0.4-0.8-0.6
		v3.4h-1.3v-9.5h1l0.2,0.9c0.2-0.3,0.5-0.6,0.8-0.8s0.7-0.3,1.2-0.3c0.9,0,1.5,0.3,2,1c0.5,0.7,0.7,1.6,0.7,2.7V155.5z M91.7,155.4
		c0-0.8-0.2-1.4-0.5-1.9c-0.3-0.5-0.8-0.8-1.4-0.8c-0.4,0-0.7,0.1-0.9,0.2s-0.5,0.4-0.6,0.7v3.3c0.2,0.3,0.4,0.5,0.6,0.7
		c0.3,0.2,0.6,0.2,0.9,0.2c0.6,0,1-0.2,1.3-0.6s0.5-1,0.5-1.7V155.4z"/>
	<path fill="#666666" d="M95.8,150.1h-1.3v-1.3h1.3V150.1z M95.8,158.7h-1.3v-6.9h1.3V158.7z"/>
	<path fill="#666666" d="M97.8,158.7v-6.9h2.7c0.9,0,1.6,0.2,2.1,0.5c0.5,0.3,0.7,0.8,0.7,1.4c0,0.3-0.1,0.6-0.3,0.9
		c-0.2,0.3-0.5,0.4-0.8,0.6c0.4,0.1,0.8,0.3,1,0.6c0.2,0.3,0.4,0.6,0.4,1c0,0.6-0.2,1.1-0.7,1.5c-0.5,0.3-1.1,0.5-2,0.5H97.8z
		 M99,154.7h1.5c0.5,0,0.9-0.1,1.2-0.2c0.3-0.2,0.4-0.4,0.4-0.7c0-0.3-0.1-0.6-0.4-0.7s-0.7-0.2-1.2-0.2H99V154.7z M99,155.7v2h1.9
		c0.5,0,0.8-0.1,1-0.3c0.2-0.2,0.4-0.4,0.4-0.8c0-0.3-0.1-0.6-0.4-0.8s-0.6-0.3-1-0.3H99z"/>
</g>
<g>
	<path fill="#666666" d="M595,134.8h-4.4v2.7h2.3c1,0,1.8,0.3,2.3,0.8c0.5,0.5,0.8,1.2,0.8,2c0,0.8-0.3,1.5-0.8,2
		c-0.5,0.5-1.3,0.8-2.3,0.8h-3.5v-9.2h5.7V134.8z M590.6,138.5v3.6h2.3c0.6,0,1.1-0.2,1.4-0.5c0.3-0.4,0.5-0.8,0.5-1.3
		c0-0.5-0.2-0.9-0.5-1.3c-0.3-0.3-0.8-0.5-1.4-0.5H590.6z"/>
	<path fill="#666666" d="M598.8,134.5h-1.2v-1.3h1.2V134.5z M598.8,143.1h-1.2v-6.9h1.2V143.1z"/>
	<path fill="#666666" d="M606.5,139.9c0,1-0.2,1.8-0.7,2.4c-0.5,0.6-1.1,0.9-2,0.9c-0.4,0-0.8-0.1-1.1-0.2c-0.3-0.1-0.6-0.4-0.8-0.6
		v3.4h-1.2v-9.5h1l0.2,0.9c0.2-0.3,0.5-0.6,0.8-0.8c0.3-0.2,0.7-0.3,1.2-0.3c0.9,0,1.5,0.3,2,1c0.5,0.7,0.7,1.6,0.7,2.7V139.9z
		 M605.3,139.8c0-0.8-0.2-1.4-0.5-1.9c-0.3-0.5-0.8-0.8-1.4-0.8c-0.4,0-0.7,0.1-0.9,0.2s-0.5,0.4-0.6,0.7v3.3
		c0.2,0.3,0.4,0.5,0.6,0.7c0.3,0.2,0.6,0.2,0.9,0.2c0.6,0,1-0.2,1.3-0.6s0.5-1,0.5-1.7V139.8z"/>
	<path fill="#666666" d="M613.5,140.1h-0.8v3h-1.3v-3h-0.8l-1.8,3h-1.6l2.5-3.6l-2.2-3.2h1.5l1.7,2.8h0.8v-2.8h1.3v2.8h0.8l1.7-2.8
		h1.5l-2.2,3.2l2.5,3.6h-1.6L613.5,140.1z"/>
	<path fill="#666666" d="M622.2,143.1c0-0.2-0.1-0.4-0.1-0.5c0-0.2,0-0.3,0-0.5c-0.2,0.3-0.5,0.6-0.9,0.8c-0.4,0.2-0.8,0.3-1.2,0.3
		c-0.7,0-1.3-0.2-1.6-0.5c-0.4-0.4-0.6-0.9-0.6-1.5c0-0.7,0.3-1.2,0.8-1.5c0.5-0.4,1.3-0.6,2.2-0.6h1.4v-0.7c0-0.4-0.1-0.7-0.4-1
		c-0.2-0.2-0.6-0.4-1-0.4c-0.4,0-0.7,0.1-1,0.3c-0.3,0.2-0.4,0.5-0.4,0.7h-1.2l0,0c0-0.5,0.2-1,0.7-1.4s1.1-0.6,1.9-0.6
		c0.8,0,1.4,0.2,1.9,0.6c0.5,0.4,0.7,1,0.7,1.7v3.3c0,0.2,0,0.5,0,0.7s0.1,0.5,0.1,0.7H622.2z M620.1,142.2c0.5,0,0.9-0.1,1.2-0.3
		s0.6-0.5,0.7-0.8v-1.1h-1.4c-0.5,0-0.9,0.1-1.2,0.4c-0.3,0.3-0.5,0.6-0.5,0.9c0,0.3,0.1,0.5,0.3,0.7S619.7,142.2,620.1,142.2z"/>
	<path fill="#666666" d="M568.6,158.7h-1.3v-8.3h-4.5v8.3h-1.2v-9.2h7V158.7z"/>
	<path fill="#666666" d="M570.4,155.2c0-1,0.3-1.9,0.8-2.5c0.5-0.7,1.3-1,2.2-1c1,0,1.7,0.3,2.3,1c0.6,0.7,0.8,1.5,0.8,2.5v0.1
		c0,1-0.3,1.9-0.8,2.5s-1.3,1-2.2,1s-1.7-0.3-2.2-1c-0.6-0.7-0.8-1.5-0.8-2.5V155.2z M571.6,155.3c0,0.7,0.2,1.3,0.5,1.8
		s0.8,0.7,1.4,0.7c0.6,0,1-0.2,1.4-0.7s0.5-1.1,0.5-1.8v-0.1c0-0.7-0.2-1.3-0.5-1.8c-0.3-0.5-0.8-0.7-1.4-0.7c-0.6,0-1,0.2-1.4,0.7
		s-0.5,1.1-0.5,1.8V155.3z"/>
	<path fill="#666666" d="M580.5,154.7c0.4,0,0.8-0.1,0.9-0.3c0.2-0.2,0.3-0.4,0.3-0.7c0-0.3-0.1-0.5-0.3-0.7s-0.5-0.3-1-0.3
		c-0.4,0-0.7,0.1-1,0.3s-0.4,0.5-0.4,0.8h-1.2l0,0c0-0.6,0.2-1.1,0.7-1.4c0.5-0.4,1.1-0.6,1.9-0.6c0.8,0,1.4,0.2,1.9,0.5
		c0.5,0.3,0.7,0.8,0.7,1.5c0,0.3-0.1,0.6-0.3,0.8c-0.2,0.3-0.4,0.5-0.8,0.6c0.4,0.1,0.7,0.3,0.9,0.6s0.3,0.6,0.3,1
		c0,0.6-0.2,1.1-0.7,1.5s-1.1,0.5-2,0.5c-0.7,0-1.4-0.2-1.9-0.5c-0.5-0.4-0.8-0.9-0.8-1.6l0,0h1.2c0,0.3,0.1,0.6,0.4,0.8
		s0.6,0.4,1.1,0.4c0.5,0,0.8-0.1,1.1-0.3c0.3-0.2,0.4-0.5,0.4-0.8c0-0.4-0.1-0.6-0.3-0.8s-0.6-0.3-1-0.3h-1.2v-1H580.5z"/>
	<path fill="#666666" d="M589,151.8h1.2v6.9H589v-4.9l0,0l-3,4.9h-1.2v-6.9h1.2v4.9l0,0L589,151.8z"/>
	<path fill="#666666" d="M597.4,158.7h-1.2v-2.5c-0.2,0.1-0.5,0.1-0.7,0.1c-0.3,0-0.5,0-0.8,0c-0.8,0-1.5-0.2-2-0.7
		s-0.7-1.1-0.7-1.9v-2h1.2v2c0,0.6,0.1,1,0.4,1.2s0.6,0.4,1.1,0.4c0.3,0,0.5,0,0.8,0c0.3,0,0.5-0.1,0.8-0.1v-3.4h1.2V158.7z"/>
	<path fill="#666666" d="M603.4,158.7c0-0.2-0.1-0.4-0.1-0.5c0-0.2,0-0.3,0-0.5c-0.2,0.3-0.5,0.6-0.9,0.8c-0.4,0.2-0.8,0.3-1.2,0.3
		c-0.7,0-1.3-0.2-1.6-0.5c-0.4-0.4-0.6-0.9-0.6-1.5c0-0.7,0.3-1.2,0.8-1.5c0.5-0.4,1.3-0.6,2.2-0.6h1.4V154c0-0.4-0.1-0.7-0.4-1
		c-0.2-0.2-0.6-0.4-1-0.4c-0.4,0-0.7,0.1-1,0.3c-0.3,0.2-0.4,0.5-0.4,0.7h-1.2l0,0c0-0.5,0.2-1,0.7-1.4s1.1-0.6,1.9-0.6
		c0.8,0,1.4,0.2,1.9,0.6c0.5,0.4,0.7,1,0.7,1.7v3.3c0,0.2,0,0.5,0,0.7s0.1,0.5,0.1,0.7H603.4z M601.4,157.8c0.5,0,0.9-0.1,1.2-0.3
		s0.6-0.5,0.7-0.8v-1.1h-1.4c-0.5,0-0.9,0.1-1.2,0.4c-0.3,0.3-0.5,0.6-0.5,0.9c0,0.3,0.1,0.5,0.3,0.7S601,157.8,601.4,157.8z"/>
	<path fill="#666666" d="M611.9,151.8v6.9h-1.2v-5.9h-2.3v1.9c0,1.4-0.2,2.4-0.5,3s-1,1-1.8,1h-0.4l0-1.1l0.3,0
		c0.4,0,0.8-0.2,0.9-0.7c0.2-0.4,0.3-1.2,0.3-2.2v-2.9H611.9z"/>
	<path fill="#666666" d="M614.9,154.4h1.7c0.8,0,1.4,0.2,1.9,0.6c0.5,0.4,0.7,0.9,0.7,1.5c0,0.6-0.2,1.1-0.7,1.5
		c-0.5,0.4-1.1,0.6-1.9,0.6h-3v-6.9h1.3V154.4z M614.9,155.4v2.3h1.7c0.4,0,0.8-0.1,1-0.3c0.2-0.2,0.3-0.5,0.3-0.8
		c0-0.3-0.1-0.6-0.3-0.8c-0.2-0.2-0.5-0.3-1-0.3H614.9z"/>
	<path fill="#666666" d="M626.2,158.7h-1.3v-2.9h-3.1v2.9h-1.2v-6.9h1.2v3h3.1v-3h1.3V158.7z"/>
	<path fill="#666666" d="M632.3,151.8h1.2v6.9h-1.2v-4.9l0,0l-3,4.9H628v-6.9h1.2v4.9l0,0L632.3,151.8z"/>
	<path fill="#666666" d="M637.5,155.8h-0.8v2.9h-1.3v-6.9h1.3v2.9h0.7l2.3-2.9h1.5l0,0l-2.7,3.3l2.9,3.5l0,0h-1.5L637.5,155.8z"/>
	<path fill="#666666" d="M643.6,150.1h-1.2v-1.3h1.2V150.1z M643.6,158.7h-1.2v-6.9h1.2V158.7z"/>
	<path fill="#666666" d="M645.6,158.7v-6.9h2.7c0.9,0,1.6,0.2,2.1,0.5c0.5,0.3,0.7,0.8,0.7,1.4c0,0.3-0.1,0.6-0.3,0.9
		c-0.2,0.3-0.5,0.4-0.8,0.6c0.4,0.1,0.8,0.3,1,0.6c0.2,0.3,0.4,0.6,0.4,1c0,0.6-0.2,1.1-0.7,1.5s-1.1,0.5-2,0.5H645.6z M646.8,154.7
		h1.5c0.5,0,0.9-0.1,1.2-0.2c0.3-0.2,0.4-0.4,0.4-0.7c0-0.3-0.1-0.6-0.4-0.7s-0.7-0.2-1.2-0.2h-1.5V154.7z M646.8,155.7v2h1.9
		c0.5,0,0.8-0.1,1-0.3c0.2-0.2,0.4-0.4,0.4-0.8c0-0.3-0.1-0.6-0.4-0.8c-0.2-0.2-0.6-0.3-1-0.3H646.8z"/>
</g>
<g>
	<path fill="#979695" d="M58.4,366.6h-4.1v2.5h2.1c0.9,0,1.6,0.2,2.1,0.7s0.8,1.1,0.8,1.9c0,0.8-0.3,1.4-0.8,1.9s-1.2,0.7-2.1,0.7
		h-3.3v-8.5h5.2V366.6z M54.3,369.9v3.3h2.1c0.6,0,1-0.2,1.3-0.5s0.4-0.7,0.4-1.2c0-0.5-0.1-0.9-0.4-1.2c-0.3-0.3-0.7-0.5-1.3-0.5
		H54.3z"/>
	<path fill="#979695" d="M64.5,374.2c0-0.2-0.1-0.4-0.1-0.5s0-0.3,0-0.4c-0.2,0.3-0.5,0.6-0.8,0.8s-0.7,0.3-1.1,0.3
		c-0.7,0-1.2-0.2-1.5-0.5s-0.5-0.8-0.5-1.4c0-0.6,0.2-1.1,0.7-1.4s1.2-0.5,2-0.5h1.3v-0.6c0-0.4-0.1-0.7-0.3-0.9s-0.5-0.3-1-0.3
		c-0.4,0-0.7,0.1-0.9,0.3s-0.3,0.4-0.3,0.7h-1.1l0,0c0-0.5,0.2-0.9,0.7-1.3s1.1-0.6,1.8-0.6c0.7,0,1.3,0.2,1.7,0.5s0.7,0.9,0.7,1.6
		v3.1c0,0.2,0,0.4,0,0.7s0.1,0.4,0.1,0.6H64.5z M62.6,373.3c0.4,0,0.8-0.1,1.1-0.3s0.6-0.5,0.7-0.7v-1h-1.3c-0.5,0-0.8,0.1-1.1,0.4
		s-0.4,0.5-0.4,0.8c0,0.3,0.1,0.5,0.3,0.7C62,373.3,62.2,373.3,62.6,373.3z"/>
	<path fill="#979695" d="M72.3,374.2h-1.2v-2.7h-2.8v2.7h-1.2v-6.3h1.2v2.7h2.8v-2.7h1.2V374.2z"/>
	<path fill="#979695" d="M76,371.5h-0.8v2.7h-1.2v-6.3h1.2v2.7h0.7l2.1-2.7h1.4l0,0l-2.5,3l2.7,3.3l0,0h-1.4L76,371.5z"/>
	<path fill="#979695" d="M84.4,367.8h1.2v6.3h-1.2v-4.5l0,0l-2.8,4.5h-1.1v-6.3h1.1v4.5l0,0L84.4,367.8z"/>
	<path fill="#979695" d="M40.2,384.7h-1v3.8h-1.2v-8.5h1.2v3.8h0.9l3.1-3.8h1.3l0,0l-3.3,4.1l3.6,4.4l0,0h-1.4L40.2,384.7z"/>
	<path fill="#979695" d="M51,385.7c0,0.9-0.2,1.7-0.7,2.2s-1,0.8-1.8,0.8c-0.4,0-0.7-0.1-1-0.2s-0.5-0.3-0.8-0.6v3.1h-1.2v-8.8h0.9
		l0.2,0.8c0.2-0.3,0.5-0.5,0.8-0.7s0.7-0.2,1.1-0.2c0.8,0,1.4,0.3,1.8,0.9s0.7,1.4,0.7,2.5V385.7z M49.8,385.5
		c0-0.7-0.1-1.3-0.4-1.8c-0.3-0.5-0.7-0.7-1.3-0.7c-0.3,0-0.6,0.1-0.8,0.2s-0.4,0.4-0.6,0.6v3.1c0.1,0.3,0.3,0.5,0.6,0.6
		s0.5,0.2,0.9,0.2c0.5,0,1-0.2,1.2-0.6c0.3-0.4,0.4-0.9,0.4-1.5V385.5z"/>
	<path fill="#979695" d="M55,388.7c-0.9,0-1.6-0.3-2.1-0.9s-0.8-1.4-0.8-2.3v-0.3c0-0.9,0.3-1.7,0.8-2.3s1.2-0.9,1.9-0.9
		c0.9,0,1.5,0.3,1.9,0.8s0.7,1.2,0.7,2.1v0.7h-4.1l0,0c0,0.6,0.2,1.1,0.5,1.5s0.7,0.6,1.2,0.6c0.4,0,0.7-0.1,1-0.2s0.5-0.3,0.8-0.5
		l0.5,0.8c-0.2,0.2-0.5,0.4-0.9,0.6C56,388.6,55.6,388.7,55,388.7z M54.9,383c-0.4,0-0.7,0.2-1,0.5s-0.4,0.7-0.5,1.2l0,0h2.9v-0.2
		c0-0.5-0.1-0.8-0.4-1.1C55.7,383.2,55.3,383,54.9,383z"/>
	<path fill="#979695" d="M58.7,387.7c0.3-0.4,0.6-0.8,0.7-1.2c0.2-0.4,0.3-1,0.3-1.9l0.1-2.4H64v5.4h0.8l-0.1,2.8h-1v-1.9h-4.4v1.9
		h-1l-0.1-2.8H58.7z M60.9,384.6c0,0.7-0.1,1.3-0.3,1.8c-0.2,0.5-0.4,0.9-0.6,1.3h2.8v-4.4H61L60.9,384.6z"/>
	<path fill="#979695" d="M70,382.2h1.2v6.3H70v-4.5l0,0l-2.8,4.5h-1.1v-6.3h1.1v4.5l0,0L70,382.2z"/>
	<path fill="#979695" d="M77.8,383.2h-2.1v5.4h-1.2v-5.4h-2.1v-0.9h5.3V383.2z"/>
	<path fill="#979695" d="M78.6,385.4c0-0.9,0.3-1.7,0.8-2.3s1.2-0.9,2.1-0.9c0.9,0,1.6,0.3,2.1,0.9s0.8,1.4,0.8,2.3v0.1
		c0,0.9-0.3,1.7-0.8,2.3s-1.2,0.9-2.1,0.9s-1.6-0.3-2.1-0.9s-0.8-1.4-0.8-2.3V385.4z M79.8,385.5c0,0.7,0.1,1.2,0.4,1.7
		c0.3,0.4,0.7,0.7,1.3,0.7c0.6,0,1-0.2,1.3-0.7c0.3-0.4,0.4-1,0.4-1.7v-0.1c0-0.7-0.1-1.2-0.4-1.7c-0.3-0.4-0.7-0.7-1.3-0.7
		c-0.6,0-1,0.2-1.3,0.7c-0.3,0.4-0.4,1-0.4,1.7V385.5z"/>
	<path fill="#979695" d="M91.1,385.7c0,0.9-0.2,1.7-0.7,2.2s-1,0.8-1.8,0.8c-0.4,0-0.7-0.1-1-0.2s-0.5-0.3-0.8-0.6v3.1h-1.2v-8.8
		h0.9l0.2,0.8c0.2-0.3,0.5-0.5,0.8-0.7s0.7-0.2,1.1-0.2c0.8,0,1.4,0.3,1.8,0.9s0.7,1.4,0.7,2.5V385.7z M90,385.5
		c0-0.7-0.1-1.3-0.4-1.8c-0.3-0.5-0.7-0.7-1.3-0.7c-0.3,0-0.6,0.1-0.8,0.2s-0.4,0.4-0.6,0.6v3.1c0.1,0.3,0.3,0.5,0.6,0.6
		s0.5,0.2,0.9,0.2c0.5,0,1-0.2,1.2-0.6c0.3-0.4,0.4-0.9,0.4-1.5V385.5z"/>
	<path fill="#979695" d="M93.8,380.6h-1.2v-1.2h1.2V380.6z M93.8,388.6h-1.2v-6.3h1.2V388.6z"/>
	<path fill="#979695" d="M95.6,388.6v-6.3h2.5c0.8,0,1.5,0.1,1.9,0.4s0.7,0.7,0.7,1.3c0,0.3-0.1,0.6-0.3,0.8s-0.4,0.4-0.8,0.5
		c0.4,0.1,0.7,0.3,0.9,0.5s0.3,0.6,0.3,0.9c0,0.6-0.2,1-0.6,1.3s-1,0.5-1.8,0.5H95.6z M96.7,384.9h1.4c0.5,0,0.9-0.1,1.1-0.2
		c0.2-0.1,0.4-0.4,0.4-0.7c0-0.3-0.1-0.5-0.4-0.7c-0.2-0.2-0.6-0.2-1.1-0.2h-1.3V384.9z M96.7,385.8v1.9h1.8c0.4,0,0.7-0.1,1-0.2
		s0.3-0.4,0.3-0.7c0-0.3-0.1-0.5-0.3-0.7s-0.5-0.2-1-0.2H96.7z"/>
</g>
<g>
	<path fill="#979695" d="M595.3,366.6h-4.1v2.5h2.1c0.9,0,1.6,0.2,2.1,0.7s0.8,1.1,0.8,1.9c0,0.8-0.3,1.4-0.8,1.9s-1.2,0.7-2.1,0.7
		h-3.3v-8.5h5.2V366.6z M591.3,369.9v3.3h2.1c0.6,0,1-0.2,1.3-0.5s0.4-0.7,0.4-1.2c0-0.5-0.1-0.9-0.4-1.2c-0.3-0.3-0.7-0.5-1.3-0.5
		H591.3z"/>
	<path fill="#979695" d="M601.5,374.2c0-0.2-0.1-0.4-0.1-0.5s0-0.3,0-0.4c-0.2,0.3-0.5,0.6-0.8,0.8s-0.7,0.3-1.1,0.3
		c-0.7,0-1.2-0.2-1.5-0.5s-0.5-0.8-0.5-1.4c0-0.6,0.2-1.1,0.7-1.4s1.2-0.5,2-0.5h1.3v-0.6c0-0.4-0.1-0.7-0.3-0.9s-0.5-0.3-1-0.3
		c-0.4,0-0.7,0.1-0.9,0.3s-0.3,0.4-0.3,0.7h-1.1l0,0c0-0.5,0.2-0.9,0.7-1.3s1.1-0.6,1.8-0.6c0.7,0,1.3,0.2,1.7,0.5s0.7,0.9,0.7,1.6
		v3.1c0,0.2,0,0.4,0,0.7s0.1,0.4,0.1,0.6H601.5z M599.5,373.3c0.4,0,0.8-0.1,1.1-0.3s0.6-0.5,0.7-0.7v-1H600c-0.5,0-0.8,0.1-1.1,0.4
		s-0.4,0.5-0.4,0.8c0,0.3,0.1,0.5,0.3,0.7C598.9,373.3,599.2,373.3,599.5,373.3z"/>
	<path fill="#979695" d="M609.3,374.2h-1.2v-2.7h-2.8v2.7h-1.2v-6.3h1.2v2.7h2.8v-2.7h1.2V374.2z"/>
	<path fill="#979695" d="M613,371.5h-0.8v2.7H611v-6.3h1.2v2.7h0.7l2.1-2.7h1.4l0,0l-2.5,3l2.7,3.3l0,0h-1.4L613,371.5z"/>
	<path fill="#979695" d="M621.3,367.8h1.2v6.3h-1.2v-4.5l0,0l-2.8,4.5h-1.1v-6.3h1.1v4.5l0,0L621.3,367.8z"/>
	<path fill="#979695" d="M571.5,388.6h-1.2V381h-4.1v7.6H565v-8.5h6.5V388.6z"/>
	<path fill="#979695" d="M573.1,385.4c0-0.9,0.3-1.7,0.8-2.3s1.2-0.9,2.1-0.9c0.9,0,1.6,0.3,2.1,0.9s0.8,1.4,0.8,2.3v0.1
		c0,0.9-0.3,1.7-0.8,2.3s-1.2,0.9-2.1,0.9s-1.6-0.3-2.1-0.9s-0.8-1.4-0.8-2.3V385.4z M574.3,385.5c0,0.7,0.1,1.2,0.4,1.7
		c0.3,0.4,0.7,0.7,1.3,0.7c0.6,0,1-0.2,1.3-0.7c0.3-0.4,0.4-1,0.4-1.7v-0.1c0-0.7-0.1-1.2-0.4-1.7c-0.3-0.4-0.7-0.7-1.3-0.7
		c-0.6,0-1,0.2-1.3,0.7c-0.3,0.4-0.4,1-0.4,1.7V385.5z"/>
	<path fill="#979695" d="M582.5,384.9c0.4,0,0.7-0.1,0.9-0.2s0.3-0.4,0.3-0.7c0-0.3-0.1-0.5-0.3-0.7s-0.5-0.3-0.9-0.3
		c-0.4,0-0.7,0.1-0.9,0.3s-0.4,0.4-0.4,0.7H580l0,0c0-0.5,0.2-1,0.7-1.3s1-0.5,1.7-0.5c0.7,0,1.3,0.2,1.7,0.5s0.6,0.8,0.6,1.4
		c0,0.3-0.1,0.5-0.3,0.8s-0.4,0.4-0.7,0.6c0.4,0.1,0.6,0.3,0.8,0.6s0.3,0.6,0.3,0.9c0,0.6-0.2,1.1-0.7,1.4s-1.1,0.5-1.8,0.5
		c-0.7,0-1.3-0.2-1.8-0.5s-0.7-0.8-0.7-1.5l0,0h1.1c0,0.3,0.1,0.6,0.4,0.8s0.6,0.3,1,0.3c0.4,0,0.7-0.1,1-0.3s0.3-0.4,0.3-0.7
		c0-0.3-0.1-0.6-0.3-0.7s-0.5-0.2-0.9-0.2h-1.1v-0.9H582.5z"/>
	<path fill="#979695" d="M590.3,382.2h1.2v6.3h-1.2v-4.5l0,0l-2.8,4.5h-1.1v-6.3h1.1v4.5l0,0L590.3,382.2z"/>
	<path fill="#979695" d="M598.1,388.6h-1.2v-2.3c-0.2,0.1-0.5,0.1-0.7,0.1s-0.5,0-0.8,0c-0.8,0-1.4-0.2-1.8-0.6
		c-0.4-0.4-0.7-1-0.7-1.8v-1.9h1.2v1.9c0,0.5,0.1,0.9,0.3,1.1s0.5,0.4,1,0.4c0.3,0,0.5,0,0.7,0s0.5-0.1,0.7-0.1v-3.2h1.2V388.6z"/>
	<path fill="#979695" d="M603.6,388.6c0-0.2-0.1-0.4-0.1-0.5s0-0.3,0-0.4c-0.2,0.3-0.5,0.6-0.8,0.8s-0.7,0.3-1.1,0.3
		c-0.7,0-1.2-0.2-1.5-0.5s-0.5-0.8-0.5-1.4c0-0.6,0.2-1.1,0.7-1.4s1.2-0.5,2-0.5h1.3v-0.6c0-0.4-0.1-0.7-0.3-0.9s-0.5-0.3-1-0.3
		c-0.4,0-0.7,0.1-0.9,0.3s-0.3,0.4-0.3,0.7h-1.1l0,0c0-0.5,0.2-0.9,0.7-1.3s1.1-0.6,1.8-0.6c0.7,0,1.3,0.2,1.7,0.5s0.7,0.9,0.7,1.6
		v3.1c0,0.2,0,0.4,0,0.7s0.1,0.4,0.1,0.6H603.6z M601.7,387.7c0.4,0,0.8-0.1,1.1-0.3s0.6-0.5,0.7-0.7v-1h-1.3
		c-0.5,0-0.8,0.1-1.1,0.4s-0.4,0.5-0.4,0.8c0,0.3,0.1,0.5,0.3,0.7C601.1,387.7,601.4,387.7,601.7,387.7z"/>
	<path fill="#979695" d="M611.5,382.2v6.3h-1.2v-5.4h-2.1v1.8c0,1.3-0.2,2.2-0.5,2.8s-0.9,0.9-1.7,0.9h-0.3l0-1l0.2,0
		c0.4,0,0.7-0.2,0.9-0.6s0.2-1.1,0.2-2v-2.7H611.5z"/>
	<path fill="#979695" d="M614.2,384.7h1.6c0.8,0,1.3,0.2,1.7,0.5s0.6,0.8,0.6,1.4c0,0.6-0.2,1.1-0.6,1.4s-1,0.6-1.7,0.6H613v-6.3
		h1.2V384.7z M614.2,385.6v2.1h1.6c0.4,0,0.7-0.1,0.9-0.3s0.3-0.4,0.3-0.7c0-0.3-0.1-0.5-0.3-0.8s-0.5-0.3-0.9-0.3H614.2z"/>
	<path fill="#979695" d="M624.6,388.6h-1.2v-2.7h-2.8v2.7h-1.2v-6.3h1.2v2.7h2.8v-2.7h1.2V388.6z"/>
	<path fill="#979695" d="M630.3,382.2h1.2v6.3h-1.2v-4.5l0,0l-2.8,4.5h-1.1v-6.3h1.1v4.5l0,0L630.3,382.2z"/>
	<path fill="#979695" d="M635.1,385.9h-0.8v2.7h-1.2v-6.3h1.2v2.7h0.7l2.1-2.7h1.4l0,0l-2.5,3l2.7,3.3l0,0h-1.4L635.1,385.9z"/>
	<path fill="#979695" d="M640.8,380.6h-1.2v-1.2h1.2V380.6z M640.8,388.6h-1.2v-6.3h1.2V388.6z"/>
	<path fill="#979695" d="M642.5,388.6v-6.3h2.5c0.8,0,1.5,0.1,1.9,0.4s0.7,0.7,0.7,1.3c0,0.3-0.1,0.6-0.3,0.8s-0.4,0.4-0.8,0.5
		c0.4,0.1,0.7,0.3,0.9,0.5s0.3,0.6,0.3,0.9c0,0.6-0.2,1-0.6,1.3s-1,0.5-1.8,0.5H642.5z M643.7,384.9h1.4c0.5,0,0.9-0.1,1.1-0.2
		c0.2-0.1,0.4-0.4,0.4-0.7c0-0.3-0.1-0.5-0.4-0.7c-0.2-0.2-0.6-0.2-1.1-0.2h-1.3V384.9z M643.7,385.8v1.9h1.8c0.4,0,0.7-0.1,1-0.2
		s0.3-0.4,0.3-0.7c0-0.3-0.1-0.5-0.3-0.7s-0.5-0.2-1-0.2H643.7z"/>
</g>
<g>
	<path fill="#CCCCCC" d="M596.5,219.2h-4.1v7.6h-1.2v-8.5h5.2V219.2z"/>
	<path fill="#CCCCCC" d="M602.2,223.9c0,0.9-0.2,1.7-0.7,2.2s-1,0.8-1.8,0.8c-0.4,0-0.7-0.1-1-0.2s-0.5-0.3-0.8-0.6v3.1h-1.2v-8.8
		h0.9l0.2,0.8c0.2-0.3,0.5-0.5,0.8-0.7s0.7-0.2,1.1-0.2c0.8,0,1.4,0.3,1.8,0.9s0.7,1.4,0.7,2.5V223.9z M601,223.8
		c0-0.7-0.1-1.3-0.4-1.8c-0.3-0.5-0.7-0.7-1.3-0.7c-0.3,0-0.6,0.1-0.8,0.2s-0.4,0.4-0.6,0.6v3.1c0.1,0.3,0.3,0.5,0.6,0.6
		s0.5,0.2,0.9,0.2c0.5,0,1-0.2,1.2-0.6c0.3-0.4,0.4-0.9,0.4-1.5V223.8z"/>
	<path fill="#CCCCCC" d="M603.3,223.6c0-0.9,0.3-1.7,0.8-2.3s1.2-0.9,2.1-0.9c0.9,0,1.6,0.3,2.1,0.9s0.8,1.4,0.8,2.3v0.1
		c0,0.9-0.3,1.7-0.8,2.3s-1.2,0.9-2.1,0.9s-1.6-0.3-2.1-0.9s-0.8-1.4-0.8-2.3V223.6z M604.5,223.7c0,0.7,0.1,1.2,0.4,1.7
		c0.3,0.4,0.7,0.7,1.3,0.7c0.6,0,1-0.2,1.3-0.7c0.3-0.4,0.4-1,0.4-1.7v-0.1c0-0.7-0.1-1.2-0.4-1.7c-0.3-0.4-0.7-0.7-1.3-0.7
		c-0.6,0-1,0.2-1.3,0.7c-0.3,0.4-0.4,1-0.4,1.7V223.7z"/>
	<path fill="#CCCCCC" d="M611.6,220.5v5.4h2.2v-5.4h1.2v5.4h2.2v-5.4h1.2v6.3h-7.9v-6.3H611.6z"/>
	<path fill="#CCCCCC" d="M621.3,218.9h-1.2v-1.2h1.2V218.9z M621.3,226.8h-1.2v-6.3h1.2V226.8z"/>
</g>
<g>
	<path fill="#CCCCCC" d="M461.8,313.5h-4.1v7.6h-1.2v-8.5h5.2V313.5z"/>
	<path fill="#CCCCCC" d="M467.4,318.2c0,0.9-0.2,1.7-0.7,2.2s-1,0.8-1.8,0.8c-0.4,0-0.7-0.1-1-0.2s-0.5-0.3-0.8-0.6v3.1H462v-8.8
		h0.9l0.2,0.8c0.2-0.3,0.5-0.5,0.8-0.7s0.7-0.2,1.1-0.2c0.8,0,1.4,0.3,1.8,0.9s0.7,1.4,0.7,2.5V318.2z M466.3,318.1
		c0-0.7-0.1-1.3-0.4-1.8c-0.3-0.5-0.7-0.7-1.3-0.7c-0.3,0-0.6,0.1-0.8,0.2s-0.4,0.4-0.6,0.6v3.1c0.1,0.3,0.3,0.5,0.6,0.6
		s0.5,0.2,0.9,0.2c0.5,0,1-0.2,1.2-0.6c0.3-0.4,0.4-0.9,0.4-1.5V318.1z"/>
	<path fill="#CCCCCC" d="M468.6,317.9c0-0.9,0.3-1.7,0.8-2.3s1.2-0.9,2.1-0.9c0.9,0,1.6,0.3,2.1,0.9s0.8,1.4,0.8,2.3v0.1
		c0,0.9-0.3,1.7-0.8,2.3s-1.2,0.9-2.1,0.9s-1.6-0.3-2.1-0.9s-0.8-1.4-0.8-2.3V317.9z M469.7,318.1c0,0.7,0.1,1.2,0.4,1.7
		c0.3,0.4,0.7,0.7,1.3,0.7c0.6,0,1-0.2,1.3-0.7c0.3-0.4,0.4-1,0.4-1.7v-0.1c0-0.7-0.1-1.2-0.4-1.7c-0.3-0.4-0.7-0.7-1.3-0.7
		c-0.6,0-1,0.2-1.3,0.7c-0.3,0.4-0.4,1-0.4,1.7V318.1z"/>
	<path fill="#CCCCCC" d="M476.8,314.8v5.4h2.2v-5.4h1.2v5.4h2.2v-5.4h1.2v6.3h-7.9v-6.3H476.8z"/>
	<path fill="#CCCCCC" d="M486.6,313.2h-1.2V312h1.2V313.2z M486.6,321.2h-1.2v-6.3h1.2V321.2z"/>
</g>
<g>
	<path fill="#CCCCCC" d="M190.4,313.5h-4.1v7.6h-1.2v-8.5h5.2V313.5z"/>
	<path fill="#CCCCCC" d="M196,318.2c0,0.9-0.2,1.7-0.7,2.2s-1,0.8-1.8,0.8c-0.4,0-0.7-0.1-1-0.2s-0.5-0.3-0.8-0.6v3.1h-1.2v-8.8h0.9
		l0.2,0.8c0.2-0.3,0.5-0.5,0.8-0.7s0.7-0.2,1.1-0.2c0.8,0,1.4,0.3,1.8,0.9s0.7,1.4,0.7,2.5V318.2z M194.9,318.1
		c0-0.7-0.1-1.3-0.4-1.8c-0.3-0.5-0.7-0.7-1.3-0.7c-0.3,0-0.6,0.1-0.8,0.2s-0.4,0.4-0.6,0.6v3.1c0.1,0.3,0.3,0.5,0.6,0.6
		s0.5,0.2,0.9,0.2c0.5,0,1-0.2,1.2-0.6c0.3-0.4,0.4-0.9,0.4-1.5V318.1z"/>
	<path fill="#CCCCCC" d="M197.2,317.9c0-0.9,0.3-1.7,0.8-2.3s1.2-0.9,2.1-0.9c0.9,0,1.6,0.3,2.1,0.9s0.8,1.4,0.8,2.3v0.1
		c0,0.9-0.3,1.7-0.8,2.3s-1.2,0.9-2.1,0.9s-1.6-0.3-2.1-0.9s-0.8-1.4-0.8-2.3V317.9z M198.3,318.1c0,0.7,0.1,1.2,0.4,1.7
		c0.3,0.4,0.7,0.7,1.3,0.7c0.6,0,1-0.2,1.3-0.7c0.3-0.4,0.4-1,0.4-1.7v-0.1c0-0.7-0.1-1.2-0.4-1.7c-0.3-0.4-0.7-0.7-1.3-0.7
		c-0.6,0-1,0.2-1.3,0.7c-0.3,0.4-0.4,1-0.4,1.7V318.1z"/>
	<path fill="#CCCCCC" d="M205.4,314.8v5.4h2.2v-5.4h1.2v5.4h2.2v-5.4h1.2v6.3h-7.9v-6.3H205.4z"/>
	<path fill="#CCCCCC" d="M215.2,313.2H214V312h1.2V313.2z M215.2,321.2H214v-6.3h1.2V321.2z"/>
</g>
<g>
	<path fill="#CCCCCC" d="M59.5,219.2h-4.1v7.6h-1.2v-8.5h5.2V219.2z"/>
	<path fill="#CCCCCC" d="M65.2,223.9c0,0.9-0.2,1.7-0.7,2.2s-1,0.8-1.8,0.8c-0.4,0-0.7-0.1-1-0.2s-0.5-0.3-0.8-0.6v3.1h-1.2v-8.8
		h0.9l0.2,0.8c0.2-0.3,0.5-0.5,0.8-0.7s0.7-0.2,1.1-0.2c0.8,0,1.4,0.3,1.8,0.9s0.7,1.4,0.7,2.5V223.9z M64,223.8
		c0-0.7-0.1-1.3-0.4-1.8c-0.3-0.5-0.7-0.7-1.3-0.7c-0.3,0-0.6,0.1-0.8,0.2s-0.4,0.4-0.6,0.6v3.1c0.1,0.3,0.3,0.5,0.6,0.6
		s0.5,0.2,0.9,0.2c0.5,0,1-0.2,1.2-0.6c0.3-0.4,0.4-0.9,0.4-1.5V223.8z"/>
	<path fill="#CCCCCC" d="M66.3,223.6c0-0.9,0.3-1.7,0.8-2.3s1.2-0.9,2.1-0.9c0.9,0,1.6,0.3,2.1,0.9s0.8,1.4,0.8,2.3v0.1
		c0,0.9-0.3,1.7-0.8,2.3s-1.2,0.9-2.1,0.9s-1.6-0.3-2.1-0.9s-0.8-1.4-0.8-2.3V223.6z M67.5,223.7c0,0.7,0.1,1.2,0.4,1.7
		c0.3,0.4,0.7,0.7,1.3,0.7c0.6,0,1-0.2,1.3-0.7c0.3-0.4,0.4-1,0.4-1.7v-0.1c0-0.7-0.1-1.2-0.4-1.7c-0.3-0.4-0.7-0.7-1.3-0.7
		c-0.6,0-1,0.2-1.3,0.7c-0.3,0.4-0.4,1-0.4,1.7V223.7z"/>
	<path fill="#CCCCCC" d="M74.5,220.5v5.4h2.2v-5.4h1.2v5.4h2.2v-5.4h1.2v6.3h-7.9v-6.3H74.5z"/>
	<path fill="#CCCCCC" d="M84.3,218.9h-1.2v-1.2h1.2V218.9z M84.3,226.8h-1.2v-6.3h1.2V226.8z"/>
</g>
<g>
	<path fill="#979695" d="M330.4,366.6h-4.1v2.5h2.1c0.9,0,1.6,0.2,2.1,0.7s0.8,1.1,0.8,1.9c0,0.8-0.3,1.4-0.8,1.9s-1.2,0.7-2.1,0.7
		h-3.3v-8.5h5.2V366.6z M326.3,369.9v3.3h2.1c0.6,0,1-0.2,1.3-0.5s0.4-0.7,0.4-1.2c0-0.5-0.1-0.9-0.4-1.2c-0.3-0.3-0.7-0.5-1.3-0.5
		H326.3z"/>
	<path fill="#979695" d="M336.5,374.2c0-0.2-0.1-0.4-0.1-0.5s0-0.3,0-0.4c-0.2,0.3-0.5,0.6-0.8,0.8s-0.7,0.3-1.1,0.3
		c-0.7,0-1.2-0.2-1.5-0.5s-0.5-0.8-0.5-1.4c0-0.6,0.2-1.1,0.7-1.4s1.2-0.5,2-0.5h1.3v-0.6c0-0.4-0.1-0.7-0.3-0.9s-0.5-0.3-1-0.3
		c-0.4,0-0.7,0.1-0.9,0.3s-0.3,0.4-0.3,0.7h-1.1l0,0c0-0.5,0.2-0.9,0.7-1.3s1.1-0.6,1.8-0.6c0.7,0,1.3,0.2,1.7,0.5s0.7,0.9,0.7,1.6
		v3.1c0,0.2,0,0.4,0,0.7s0.1,0.4,0.1,0.6H336.5z M334.6,373.3c0.4,0,0.8-0.1,1.1-0.3s0.6-0.5,0.7-0.7v-1h-1.3
		c-0.5,0-0.8,0.1-1.1,0.4s-0.4,0.5-0.4,0.8c0,0.3,0.1,0.5,0.3,0.7C334,373.3,334.3,373.3,334.6,373.3z"/>
	<path fill="#979695" d="M344.4,374.2h-1.2v-2.7h-2.8v2.7h-1.2v-6.3h1.2v2.7h2.8v-2.7h1.2V374.2z"/>
	<path fill="#979695" d="M348,371.5h-0.8v2.7h-1.2v-6.3h1.2v2.7h0.7l2.1-2.7h1.4l0,0l-2.5,3l2.7,3.3l0,0h-1.4L348,371.5z"/>
	<path fill="#979695" d="M321.8,384.6h-3.9v3h4.5v0.9h-5.7v-8.5h5.6v0.9h-4.4v2.8h3.9V384.6z"/>
	<path fill="#979695" d="M327.2,387.1L327.2,387.1l2.1-4.8h1.4v6.3h-1.2v-4.4l0,0l-1.9,4.4h-0.8l-2-4.5l0,0v4.5h-1.2v-6.3h1.5
		L327.2,387.1z"/>
	<path fill="#979695" d="M333.8,380.6h-1.2v-1.2h1.2V380.6z M333.8,388.6h-1.2v-6.3h1.2V388.6z"/>
	<path fill="#979695" d="M340.4,383.2h-2.1v5.4h-1.2v-5.4h-2.1v-0.9h5.3V383.2z"/>
	<path fill="#979695" d="M344.2,388.7c-0.9,0-1.6-0.3-2.1-0.9s-0.8-1.4-0.8-2.3v-0.3c0-0.9,0.3-1.7,0.8-2.3s1.2-0.9,1.9-0.9
		c0.9,0,1.5,0.3,1.9,0.8c0.4,0.5,0.7,1.2,0.7,2.1v0.7h-4.1l0,0c0,0.6,0.2,1.1,0.5,1.5s0.7,0.6,1.2,0.6c0.4,0,0.7-0.1,1-0.2
		s0.5-0.3,0.8-0.5l0.5,0.8c-0.2,0.2-0.5,0.4-0.9,0.6C345.2,388.6,344.7,388.7,344.2,388.7z M344,383c-0.4,0-0.7,0.2-1,0.5
		s-0.4,0.7-0.5,1.2l0,0h2.9v-0.2c0-0.5-0.1-0.8-0.4-1.1C344.9,383.2,344.5,383,344,383z"/>
	<path fill="#979695" d="M353.1,388.6h-1.2v-2.7h-2.8v2.7h-1.2v-6.3h1.2v2.7h2.8v-2.7h1.2V388.6z"/>
	<path fill="#979695" d="M359.6,383.2h-2.1v5.4h-1.2v-5.4h-2.1v-0.9h5.3V383.2z"/>
</g>
</svg>
