<?xml version="1.0" encoding="utf-8"?>
<!-- Generator: Adobe Illustrator 18.1.0, SVG Export Plug-In . SVG Version: 6.00 Build 0)  -->
<svg version="1.1" id="Layer_1" xmlns="http://www.w3.org/2000/svg" xmlns:xlink="http://www.w3.org/1999/xlink" x="0px" y="0px"
	 viewBox="0 0 1000 1000" enable-background="new 0 0 1000 1000" xml:space="preserve">
<g>
	<polygon fill="#FEEFDD" points="785.5,156.6 869.5,129.7 869.5,271.7 785.5,271.7 	"/>
	<rect x="790.6" y="238.7" fill="#215773" width="15.8" height="15.8"/>
	<rect x="810.2" y="238.7" fill="#EA606E" width="15.8" height="15.8"/>
	<rect x="829.8" y="238.7" fill="#215773" width="15.8" height="15.8"/>
	<rect x="849.4" y="238.7" fill="#EA606E" width="15.8" height="15.8"/>
	<rect x="790.6" y="219.3" fill="#EA606E" width="15.8" height="15.8"/>
	<rect x="810.2" y="219.3" fill="#215773" width="15.8" height="15.8"/>
	<rect x="829.8" y="219.3" fill="#EA606E" width="15.8" height="15.8"/>
	<rect x="849.4" y="219.3" fill="#215773" width="15.8" height="15.8"/>
	<rect x="790.6" y="199.9" fill="#EA606E" width="15.8" height="15.8"/>
	<rect x="810.2" y="199.9" fill="#215773" width="15.8" height="15.8"/>
	<rect x="829.8" y="199.9" fill="#215773" width="15.8" height="15.8"/>
	<rect x="849.4" y="199.9" fill="#EA606E" width="15.8" height="15.8"/>
	<rect x="790.6" y="180.5" fill="#215773" width="15.8" height="15.8"/>
	<rect x="810.2" y="180.5" fill="#EA606E" width="15.8" height="15.8"/>
	<rect x="829.8" y="180.5" fill="#215773" width="15.8" height="15.8"/>
	<rect x="849.4" y="180.5" fill="#215773" width="15.8" height="15.8"/>
	<rect x="790.6" y="161.1" fill="#EA606E" width="15.8" height="15.8"/>
	<rect x="810.2" y="161.1" fill="#215773" width="15.8" height="15.8"/>
	<rect x="829.8" y="161.1" fill="#215773" width="15.8" height="15.8"/>
	<rect x="849.4" y="161.1" fill="#EA606E" width="15.8" height="15.8"/>
	<rect x="849.4" y="141.7" fill="#EA606E" width="15.8" height="15.8"/>
	<polygon opacity="5.000000e-02" points="827.5,143.1 827.5,271.7 869.5,271.7 869.5,129.7 	"/>
</g>
<g>
	<rect x="853.1" y="167" fill="#C6D5C7" width="80.8" height="104.6"/>
	<rect x="863.9" y="232.3" fill="#1D576A" width="59.2" height="9.2"/>
	<rect x="863.9" y="214.6" fill="#1D576A" width="59.2" height="9.2"/>
	<rect x="863.9" y="197" fill="#1D576A" width="59.2" height="9.2"/>
	<rect x="863.9" y="179.4" fill="#1D576A" width="59.2" height="9.2"/>
	<rect x="884.1" y="250.4" fill="#FEEFDD" width="18.7" height="21.2"/>
	<rect x="893.5" y="167" opacity="5.000000e-02" fill="#201600" width="40.4" height="104.6"/>
</g>
<path fill="#D5584D" d="M506.2,331.3h-68.9c-46.7,0-84.5-37.8-84.5-84.5v-68.9c0-46.7,37.8-84.5,84.5-84.5h68.9
	c46.7,0,84.5,37.8,84.5,84.5v68.9C590.8,293.5,552.9,331.3,506.2,331.3z"/>
<text transform="matrix(1 0 0 1 643.7128 223.8907)" font-family="'MyriadPro-Regular'" font-size="22.1505">Заявки</text>
<text transform="matrix(1 0 0 1 383.0282 254.4644)" font-family="'MyriadPro-Regular'" font-size="26.7422">Netopay Credits</text>
<g>
	<g>
		<polygon fill="#FEEFDD" points="16.1,156.6 100.1,129.7 100.1,271.7 16.1,271.7 		"/>
		<rect x="21.2" y="238.7" fill="#215773" width="15.8" height="15.8"/>
		<rect x="40.8" y="238.7" fill="#EA606E" width="15.8" height="15.8"/>
		<rect x="60.4" y="238.7" fill="#215773" width="15.8" height="15.8"/>
		<rect x="80" y="238.7" fill="#EA606E" width="15.8" height="15.8"/>
		<rect x="21.2" y="219.3" fill="#EA606E" width="15.8" height="15.8"/>
		<rect x="40.8" y="219.3" fill="#215773" width="15.8" height="15.8"/>
		<rect x="60.4" y="219.3" fill="#EA606E" width="15.8" height="15.8"/>
		<rect x="80" y="219.3" fill="#215773" width="15.8" height="15.8"/>
		<rect x="21.2" y="199.9" fill="#EA606E" width="15.8" height="15.8"/>
		<rect x="40.8" y="199.9" fill="#215773" width="15.8" height="15.8"/>
		<rect x="60.4" y="199.9" fill="#215773" width="15.8" height="15.8"/>
		<rect x="80" y="199.9" fill="#EA606E" width="15.8" height="15.8"/>
		<rect x="21.2" y="180.5" fill="#215773" width="15.8" height="15.8"/>
		<rect x="40.8" y="180.5" fill="#EA606E" width="15.8" height="15.8"/>
		<rect x="60.4" y="180.5" fill="#215773" width="15.8" height="15.8"/>
		<rect x="80" y="180.5" fill="#215773" width="15.8" height="15.8"/>
		<rect x="21.2" y="161.1" fill="#EA606E" width="15.8" height="15.8"/>
		<rect x="40.8" y="161.1" fill="#215773" width="15.8" height="15.8"/>
		<rect x="60.4" y="161.1" fill="#215773" width="15.8" height="15.8"/>
		<rect x="80" y="161.1" fill="#EA606E" width="15.8" height="15.8"/>
		<rect x="80" y="141.7" fill="#EA606E" width="15.8" height="15.8"/>
		<polygon opacity="5.000000e-02" points="58.1,143.1 58.1,271.7 100.1,271.7 100.1,129.7 		"/>
	</g>
	<g>
		<rect x="83.7" y="167" fill="#C6D5C7" width="80.8" height="104.6"/>
		<rect x="94.5" y="232.3" fill="#1D576A" width="59.2" height="9.2"/>
		<rect x="94.5" y="214.6" fill="#1D576A" width="59.2" height="9.2"/>
		<rect x="94.5" y="197" fill="#1D576A" width="59.2" height="9.2"/>
		<rect x="94.5" y="179.4" fill="#1D576A" width="59.2" height="9.2"/>
		<rect x="114.8" y="250.4" fill="#FEEFDD" width="18.7" height="21.2"/>
		<rect x="124.1" y="167" opacity="5.000000e-02" fill="#201600" width="40.4" height="104.6"/>
	</g>
</g>
<text transform="matrix(1 0 0 1 205.0013 223.8907)" font-family="'MyriadPro-Regular'" font-size="22.1505">Предлжения</text>
<text transform="matrix(1 0 0 1 53.2552 87.8536)"><tspan x="0" y="0" font-family="'MyriadPro-Regular'" font-size="18.9862">Биржа</tspan><tspan x="-23.3" y="22.8" font-family="'MyriadPro-Regular'" font-size="18.9862">Кредиторов</tspan></text>
<text transform="matrix(1 0 0 1 59.9926 568.837)"><tspan x="0" y="0" font-family="'MyriadPro-Regular'" font-size="18.9862">Банки</tspan><tspan x="-25.3" y="22.8" font-family="'MyriadPro-Regular'" font-size="18.9862">Кредиторов</tspan></text>
<text transform="matrix(1 0 0 1 458.3778 569.4536)"><tspan x="0" y="0" font-family="'MyriadPro-Regular'" font-size="18.9862">Банк</tspan><tspan x="-15" y="22.8" font-family="'MyriadPro-Regular'" font-size="18.9862">Эмитент</tspan></text>
<text transform="matrix(1 0 0 1 830.4198 568.837)"><tspan x="0" y="0" font-family="'MyriadPro-Regular'" font-size="18.9862">Банки</tspan><tspan x="-25.3" y="22.8" font-family="'MyriadPro-Regular'" font-size="18.9862">Кредиторов</tspan></text>
<text transform="matrix(1 0 0 1 837.1747 87.8536)"><tspan x="0" y="0" font-family="'MyriadPro-Regular'" font-size="18.9862">Биржа</tspan><tspan x="-20.2" y="22.8" font-family="'MyriadPro-Regular'" font-size="18.9862">Заемщиков</tspan></text>
<path fill="none" stroke="#FFFFFF" stroke-width="3" stroke-miterlimit="10" d="M495.5,205c-1.3,4.4-5.4,7.6-10.2,7.6h-27.2
	c-5.9,0-10.6-4.7-10.6-10.6v-27.2c0-5.9,4.7-10.6,10.6-10.6h27.2c5.9,0,10.6,4.7,10.6,10.6v23.1c0,0.9-0.9,1.4-1.7,0.9l-28.2-18.9
	c-0.5-0.3-1.1,0-1.1,0.6v20.4"/>
<path fill="none" stroke="#000000" stroke-miterlimit="10" d="M122.2,534h-75c-3.8,0-6.8-3.1-6.8-6.8v-75c0-3.8,3.1-6.8,6.8-6.8h75
	c3.8,0,6.8,3.1,6.8,6.8v75C129.1,531,126,534,122.2,534z"/>
<path fill="none" stroke="#000000" stroke-miterlimit="10" d="M117.6,526.4H51.9c-2.1,0-3.8-1.7-3.8-3.8v-65.7
	c0-2.1,1.7-3.8,3.8-3.8h65.7c2.1,0,3.8,1.7,3.8,3.8v65.7C121.4,524.6,119.7,526.4,117.6,526.4z"/>
<circle fill="none" stroke="#000000" stroke-width="5" stroke-miterlimit="10" cx="71.4" cy="489.7" r="9.7"/>
<path fill="#FFFFFF" stroke="#000000" stroke-miterlimit="10" d="M122.4,478.6h-1.9c-0.9,0-1.6-0.7-1.6-1.6v-11.3
	c0-0.9,0.7-1.6,1.6-1.6h1.9c0.9,0,1.6,0.7,1.6,1.6V477C124.1,477.9,123.3,478.6,122.4,478.6z"/>
<path fill="#FFFFFF" stroke="#000000" stroke-miterlimit="10" d="M122.4,515h-1.9c-0.9,0-1.6-0.7-1.6-1.6v-11.3
	c0-0.9,0.7-1.6,1.6-1.6h1.9c0.9,0,1.6,0.7,1.6,1.6v11.3C124.1,514.2,123.3,515,122.4,515z"/>
<path fill="none" stroke="#000000" stroke-miterlimit="10" d="M515.4,534.7h-75c-3.8,0-6.8-3.1-6.8-6.8v-75c0-3.8,3.1-6.8,6.8-6.8
	h75c3.8,0,6.8,3.1,6.8,6.8v75C522.2,531.6,519.1,534.7,515.4,534.7z"/>
<path fill="none" stroke="#000000" stroke-miterlimit="10" d="M510.7,527H445c-2.1,0-3.8-1.7-3.8-3.8v-65.7c0-2.1,1.7-3.8,3.8-3.8
	h65.7c2.1,0,3.8,1.7,3.8,3.8v65.7C514.5,525.3,512.8,527,510.7,527z"/>
<circle fill="none" stroke="#000000" stroke-width="5" stroke-miterlimit="10" cx="464.5" cy="490.3" r="9.7"/>
<path fill="#FFFFFF" stroke="#000000" stroke-miterlimit="10" d="M515.5,478.6h-1.9c-0.9,0-1.6-0.7-1.6-1.6v-11.3
	c0-0.9,0.7-1.6,1.6-1.6h1.9c0.9,0,1.6,0.7,1.6,1.6V477C517.2,477.9,516.4,478.6,515.5,478.6z"/>
<path fill="#FFFFFF" stroke="#000000" stroke-miterlimit="10" d="M515.5,515.6h-1.9c-0.9,0-1.6-0.7-1.6-1.6v-11.3
	c0-0.9,0.7-1.6,1.6-1.6h1.9c0.9,0,1.6,0.7,1.6,1.6V514C517.2,514.9,516.4,515.6,515.5,515.6z"/>
<path fill="none" stroke="#000000" stroke-miterlimit="10" d="M894.3,534h-75c-3.8,0-6.8-3.1-6.8-6.8v-75c0-3.8,3.1-6.8,6.8-6.8h75
	c3.8,0,6.8,3.1,6.8,6.8v75C901.1,531,898.1,534,894.3,534z"/>
<path fill="none" stroke="#000000" stroke-miterlimit="10" d="M889.6,526.4H824c-2.1,0-3.8-1.7-3.8-3.8v-65.7c0-2.1,1.7-3.8,3.8-3.8
	h65.7c2.1,0,3.8,1.7,3.8,3.8v65.7C893.5,524.6,891.7,526.4,889.6,526.4z"/>
<circle fill="none" stroke="#000000" stroke-width="5" stroke-miterlimit="10" cx="843.4" cy="489.7" r="9.7"/>
<line fill="none" stroke="#4AB900" stroke-miterlimit="10" stroke-dasharray="12" x1="83.7" y1="271.6" x2="83.7" y2="445.3"/>
<line fill="none" stroke="#4AB900" stroke-miterlimit="10" stroke-dasharray="12" x1="853.1" y1="271.6" x2="853.1" y2="445.3"/>
<line fill="none" stroke="#4AB900" stroke-miterlimit="10" stroke-dasharray="12" x1="129.1" y1="489.7" x2="433.5" y2="489.7"/>
<line fill="none" stroke="#4AB900" stroke-miterlimit="10" stroke-dasharray="12" x1="523.9" y1="489.7" x2="812.4" y2="489.7"/>
<line fill="none" stroke="#4AB900" stroke-miterlimit="10" stroke-dasharray="12" x1="471.8" y1="306.2" x2="471.8" y2="446"/>
</svg>
