<?xml version="1.0" encoding="utf-8"?>
<!-- Generator: Adobe Illustrator 18.1.0, SVG Export Plug-In . SVG Version: 6.00 Build 0)  -->
<svg version="1.1" id="Layer_1" xmlns="http://www.w3.org/2000/svg" xmlns:xlink="http://www.w3.org/1999/xlink" x="0px" y="0px"
	 viewBox="0 0 680 430" enable-background="new 0 0 680 430" xml:space="preserve">
<polygon fill="#006699" points="0,39.1 55.7,21.2 55.7,115.6 0,115.6 "/>
<g>
	<rect x="3.4" y="93.6" fill="#FFFFFF" width="10.5" height="10.5"/>
	<rect x="16.4" y="93.6" fill="#FFFFFF" width="10.5" height="10.5"/>
	<rect x="29.4" y="93.6" fill="#FFFFFF" width="10.5" height="10.5"/>
	<rect x="42.4" y="93.6" fill="#FFFFFF" width="10.5" height="10.5"/>
	<rect x="3.4" y="80.7" fill="#FFFFFF" width="10.5" height="10.5"/>
	<rect x="16.4" y="80.7" fill="#FFFFFF" width="10.5" height="10.5"/>
	<rect x="29.4" y="80.7" fill="#FFFFFF" width="10.5" height="10.5"/>
	<rect x="42.4" y="80.7" fill="#FFFFFF" width="10.5" height="10.5"/>
	<rect x="3.4" y="67.9" fill="#FFFFFF" width="10.5" height="10.5"/>
	<rect x="16.4" y="67.9" fill="#FFFFFF" width="10.5" height="10.5"/>
	<rect x="29.4" y="67.9" fill="#FFFFFF" width="10.5" height="10.5"/>
	<rect x="42.4" y="67.9" fill="#FFFFFF" width="10.5" height="10.5"/>
	<rect x="3.4" y="55" fill="#FFFFFF" width="10.5" height="10.5"/>
	<rect x="16.4" y="55" fill="#FFFFFF" width="10.5" height="10.5"/>
	<rect x="29.4" y="55" fill="#FFFFFF" width="10.5" height="10.5"/>
	<rect x="42.4" y="55" fill="#FFFFFF" width="10.5" height="10.5"/>
	<rect x="3.4" y="42.1" fill="#FFFFFF" width="10.5" height="10.5"/>
	<rect x="16.4" y="42.1" fill="#FFFFFF" width="10.5" height="10.5"/>
	<rect x="29.4" y="42.1" fill="#FFFFFF" width="10.5" height="10.5"/>
	<rect x="42.4" y="42.1" fill="#FFFFFF" width="10.5" height="10.5"/>
	<rect x="42.4" y="29.2" fill="#FFFFFF" width="10.5" height="10.5"/>
</g>
<rect x="44.9" y="46" fill="#0099FF" width="53.6" height="69.5"/>
<rect x="52.1" y="89.4" fill="#FFFFFF" width="39.3" height="6.1"/>
<rect x="52.1" y="77.7" fill="#FFFFFF" width="39.3" height="6.1"/>
<rect x="52.1" y="66" fill="#FFFFFF" width="39.3" height="6.1"/>
<rect x="52.1" y="54.3" fill="#FFFFFF" width="39.3" height="6.1"/>
<rect x="65.5" y="100.3" fill="#FFFFFF" width="12.4" height="14"/>
<polygon fill="#00CC66" points="516.8,39.1 572.5,21.2 572.5,115.6 516.8,115.6 "/>
<g>
	<rect x="520.2" y="93.6" fill="#FFFFFF" width="10.5" height="10.5"/>
	<rect x="533.2" y="93.6" fill="#FFFFFF" width="10.5" height="10.5"/>
	<rect x="546.2" y="93.6" fill="#FFFFFF" width="10.5" height="10.5"/>
	<rect x="559.2" y="93.6" fill="#FFFFFF" width="10.5" height="10.5"/>
	<rect x="520.2" y="80.7" fill="#FFFFFF" width="10.5" height="10.5"/>
	<rect x="533.2" y="80.7" fill="#FFFFFF" width="10.5" height="10.5"/>
	<rect x="546.2" y="80.7" fill="#FFFFFF" width="10.5" height="10.5"/>
	<rect x="559.2" y="80.7" fill="#FFFFFF" width="10.5" height="10.5"/>
	<rect x="520.2" y="67.9" fill="#FFFFFF" width="10.5" height="10.5"/>
	<rect x="533.2" y="67.9" fill="#FFFFFF" width="10.5" height="10.5"/>
	<rect x="546.2" y="67.9" fill="#FFFFFF" width="10.5" height="10.5"/>
	<rect x="559.2" y="67.9" fill="#FFFFFF" width="10.5" height="10.5"/>
	<rect x="520.2" y="55" fill="#FFFFFF" width="10.5" height="10.5"/>
	<rect x="533.2" y="55" fill="#FFFFFF" width="10.5" height="10.5"/>
	<rect x="546.2" y="55" fill="#FFFFFF" width="10.5" height="10.5"/>
	<rect x="559.2" y="55" fill="#FFFFFF" width="10.5" height="10.5"/>
	<rect x="520.2" y="42.1" fill="#FFFFFF" width="10.5" height="10.5"/>
	<rect x="533.2" y="42.1" fill="#FFFFFF" width="10.5" height="10.5"/>
	<rect x="546.2" y="42.1" fill="#FFFFFF" width="10.5" height="10.5"/>
	<rect x="559.2" y="42.1" fill="#FFFFFF" width="10.5" height="10.5"/>
	<rect x="559.2" y="29.2" fill="#FFFFFF" width="10.5" height="10.5"/>
</g>
<rect x="561.7" y="46" fill="#00CC99" width="53.6" height="69.5"/>
<rect x="568.8" y="89.4" fill="#FFFFFF" width="39.3" height="6.1"/>
<rect x="568.8" y="77.7" fill="#FFFFFF" width="39.3" height="6.1"/>
<rect x="568.8" y="66" fill="#FFFFFF" width="39.3" height="6.1"/>
<rect x="568.8" y="54.3" fill="#FFFFFF" width="39.3" height="6.1"/>
<rect x="582.3" y="100.3" fill="#FFFFFF" width="12.4" height="14"/>
<text transform="matrix(1 0 0 1 25.4487 135.5083)"><tspan x="0" y="0" fill="#666666" font-family="'Roboto-Regular'" font-size="12.6072">Биржа</tspan><tspan x="-16.5" y="15.1" fill="#666666" font-family="'Roboto-Regular'" font-size="12.6072">Кредиторов</tspan></text>
<g>
	<text transform="matrix(1 0 0 1 288.7183 357.5811)"><tspan x="0" y="0" fill="#979695" font-family="'Roboto-Regular'" font-size="12.6072">Банк</tspan><tspan x="-11.5" y="15.1" fill="#979695" font-family="'Roboto-Regular'" font-size="12.6072">Эмитент</tspan></text>
</g>
<text transform="matrix(1 0 0 1 542.2363 135.5083)"><tspan x="0" y="0" fill="#666666" font-family="'Roboto-Regular'" font-size="12.6072">Биржа</tspan><tspan x="-15.8" y="15.1" fill="#666666" font-family="'Roboto-Regular'" font-size="12.6072">Заемщиков</tspan></text>
<g>
	<path fill="none" stroke="#979695" stroke-miterlimit="10" d="M325.7,334.5h-45.2c-3.8,0-6.8-3.1-6.8-6.8v-45.2
		c0-3.8,3.1-6.8,6.8-6.8h45.2c3.8,0,6.8,3.1,6.8,6.8v45.2C332.5,331.4,329.5,334.5,325.7,334.5z"/>
	<path fill="none" stroke="#979695" stroke-miterlimit="10" d="M323.6,329.4h-41c-2.1,0-3.8-1.7-3.8-3.8v-41c0-2.1,1.7-3.8,3.8-3.8
		h41c2.1,0,3.8,1.7,3.8,3.8v41C327.4,327.7,325.7,329.4,323.6,329.4z"/>
	<circle fill="none" stroke="#979695" stroke-width="5" stroke-miterlimit="10" cx="294.2" cy="305" r="6.4"/>
	<path fill="#FFFFFF" stroke="#979695" stroke-miterlimit="10" d="M327.6,297.3h-0.3c-0.9,0-1.6-0.7-1.6-1.6v-6.5
		c0-0.9,0.7-1.6,1.6-1.6h0.3c0.9,0,1.6,0.7,1.6,1.6v6.5C329.2,296.5,328.5,297.3,327.6,297.3z"/>
	<path fill="#FFFFFF" stroke="#979695" stroke-miterlimit="10" d="M327.6,321.8h-0.3c-0.9,0-1.6-0.7-1.6-1.6v-6.5
		c0-0.9,0.7-1.6,1.6-1.6h0.3c0.9,0,1.6,0.7,1.6,1.6v6.5C329.2,321.1,328.5,321.8,327.6,321.8z"/>
</g>
<g>
	<text transform="matrix(1 0 0 1 545.9053 357.5811)"><tspan x="0" y="0" fill="#979695" font-family="'Roboto-Regular'" font-size="12.6072">Банки</tspan><tspan x="-18" y="15.1" fill="#979695" font-family="'Roboto-Regular'" font-size="12.6072">Кредиторов</tspan></text>
</g>
<g>
	<path fill="none" stroke="#979695" stroke-miterlimit="10" d="M586.5,334.5h-45.2c-3.8,0-6.8-3.1-6.8-6.8v-45.2
		c0-3.8,3.1-6.8,6.8-6.8h45.2c3.8,0,6.8,3.1,6.8,6.8v45.2C593.3,331.4,590.2,334.5,586.5,334.5z"/>
	<path fill="none" stroke="#979695" stroke-miterlimit="10" d="M584.4,329.4h-41c-2.1,0-3.8-1.7-3.8-3.8v-41c0-2.1,1.7-3.8,3.8-3.8
		h41c2.1,0,3.8,1.7,3.8,3.8v41C588.2,327.7,586.5,329.4,584.4,329.4z"/>
	<circle fill="none" stroke="#979695" stroke-width="5" stroke-miterlimit="10" cx="555" cy="305" r="6.4"/>
	<path fill="#FFFFFF" stroke="#979695" stroke-miterlimit="10" d="M588.4,297.3h-0.3c-0.9,0-1.6-0.7-1.6-1.6v-6.5
		c0-0.9,0.7-1.6,1.6-1.6h0.3c0.9,0,1.6,0.7,1.6,1.6v6.5C590,296.5,589.3,297.3,588.4,297.3z"/>
	<path fill="#FFFFFF" stroke="#979695" stroke-miterlimit="10" d="M588.4,321.8h-0.3c-0.9,0-1.6-0.7-1.6-1.6v-6.5
		c0-0.9,0.7-1.6,1.6-1.6h0.3c0.9,0,1.6,0.7,1.6,1.6v6.5C590,321.1,589.3,321.8,588.4,321.8z"/>
</g>
<g>
	<text transform="matrix(1 0 0 1 24.7476 357.5811)"><tspan x="0" y="0" fill="#979695" font-family="'Roboto-Regular'" font-size="12.6072">Банки</tspan><tspan x="-17.2" y="15.1" fill="#979695" font-family="'Roboto-Regular'" font-size="12.6072">Заемщиков</tspan></text>
</g>
<g>
	<path fill="none" stroke="#979695" stroke-miterlimit="10" d="M65.3,334.5H20.1c-3.8,0-6.8-3.1-6.8-6.8v-45.2
		c0-3.8,3.1-6.8,6.8-6.8h45.2c3.8,0,6.8,3.1,6.8,6.8v45.2C72.1,331.4,69.1,334.5,65.3,334.5z"/>
	<path fill="none" stroke="#979695" stroke-miterlimit="10" d="M63.2,329.4h-41c-2.1,0-3.8-1.7-3.8-3.8v-41c0-2.1,1.7-3.8,3.8-3.8
		h41c2.1,0,3.8,1.7,3.8,3.8v41C67,327.7,65.3,329.4,63.2,329.4z"/>
	<circle fill="none" stroke="#979695" stroke-width="5" stroke-miterlimit="10" cx="33.8" cy="305" r="6.4"/>
	<path fill="#FFFFFF" stroke="#979695" stroke-miterlimit="10" d="M67.2,297.3h-0.3c-0.9,0-1.6-0.7-1.6-1.6v-6.5
		c0-0.9,0.7-1.6,1.6-1.6h0.3c0.9,0,1.6,0.7,1.6,1.6v6.5C68.8,296.5,68.1,297.3,67.2,297.3z"/>
	<path fill="#FFFFFF" stroke="#979695" stroke-miterlimit="10" d="M67.2,321.8h-0.3c-0.9,0-1.6-0.7-1.6-1.6v-6.5
		c0-0.9,0.7-1.6,1.6-1.6h0.3c0.9,0,1.6,0.7,1.6,1.6v6.5C68.8,321.1,68.1,321.8,67.2,321.8z"/>
</g>
<g>
	<g>
		<line fill="none" stroke="#00CC66" stroke-width="2" stroke-miterlimit="10" x1="506.6" y1="78.1" x2="403" y2="78.1"/>
		<g>
			<polygon fill="#00CC66" points="404.9,75.3 394.3,78.1 404.9,81 			"/>
		</g>
	</g>
</g>
<g>
	<rect x="427.6" y="71.9" fill="#FFFFFF" width="48.1" height="11.7"/>
	<g>
		<text transform="matrix(1 0 0 1 429.9092 82.4966)" fill="#00CC66" font-family="'Roboto-Medium'" font-size="12.6072">Заявки</text>
	</g>
</g>
<g>
	<g>
		<line fill="none" stroke="#0099FF" stroke-width="2" stroke-miterlimit="10" x1="104.6" y1="78.6" x2="204.8" y2="78.6"/>
		<g>
			<polygon fill="#0099FF" points="202.8,81.4 213.5,78.6 202.8,75.7 			"/>
		</g>
	</g>
</g>
<g>
	<rect x="114.4" y="70.3" fill="#FFFFFF" width="79" height="17"/>
	<g>
		<text transform="matrix(1 0 0 1 115.8696 82.9282)" fill="#0099FF" font-family="'Roboto-Medium'" font-size="12.6072">Предлжения</text>
	</g>
</g>
<g>
	<g>
		<line fill="none" stroke="#B3B3B3" stroke-miterlimit="10" stroke-dasharray="5,5" x1="42.4" y1="171.7" x2="42.4" y2="254.3"/>
		<g>
			<polygon fill="#B3B3B3" points="40.4,173 42.4,165.5 44.4,173 			"/>
		</g>
		<g>
			<polygon fill="#B3B3B3" points="40.4,252.9 42.4,260.5 44.4,252.9 			"/>
		</g>
	</g>
</g>
<rect x="18.1" y="205.9" fill="#FFFFFF" width="48.6" height="14.2"/>
<g>
	<text transform="matrix(1 0 0 1 19.98 217.3525)" fill="#CCCCCC" font-family="'Roboto-Regular'" font-size="13.1109">Деньги</text>
</g>
<g>
	<g>
		<line fill="none" stroke="#FF0036" stroke-miterlimit="10" stroke-dasharray="5,5" x1="303.1" y1="171.7" x2="303.1" y2="254.3"/>
		<g>
			<polygon fill="#FF0036" points="301.1,173 303.1,165.5 305.1,173 			"/>
		</g>
		<g>
			<polygon fill="#FF0036" points="301.1,252.9 303.1,260.5 305.1,252.9 			"/>
		</g>
	</g>
</g>
<g>
	<rect x="278.8" y="205.9" fill="#FFFFFF" width="48.6" height="14.2"/>
	<text transform="matrix(1 0 0 1 281.1455 217.3525)" fill="#FF0036" font-family="'Roboto-Regular'" font-size="13.1109">QUANT</text>
</g>
<g>
	<g>
		<line fill="none" stroke="#B3B3B3" stroke-miterlimit="10" stroke-dasharray="5,5" x1="563.8" y1="171.7" x2="563.8" y2="254.3"/>
		<g>
			<polygon fill="#B3B3B3" points="561.7,173 563.8,165.5 565.8,173 			"/>
		</g>
		<g>
			<polygon fill="#B3B3B3" points="561.7,252.9 563.8,260.5 565.8,252.9 			"/>
		</g>
	</g>
</g>
<rect x="539.4" y="205.9" fill="#FFFFFF" width="48.6" height="14.2"/>
<g>
	<text transform="matrix(1 0 0 1 541.3252 217.3525)" fill="#CCCCCC" font-family="'Roboto-Regular'" font-size="13.1109">Деньги</text>
</g>
<g>
	<g>
		<line fill="none" stroke="#B3B3B3" stroke-miterlimit="10" stroke-dasharray="5,5" x1="353.4" y1="305" x2="508.2" y2="305"/>
		<g>
			<polygon fill="#B3B3B3" points="354.8,307.1 347.2,305 354.8,303 			"/>
		</g>
		<g>
			<polygon fill="#B3B3B3" points="506.8,307.1 514.4,305 506.8,303 			"/>
		</g>
	</g>
</g>
<rect x="404.3" y="297.9" fill="#FFFFFF" width="48.6" height="14.2"/>
<g>
	<text transform="matrix(1 0 0 1 406.2178 309.3936)" fill="#CCCCCC" font-family="'Roboto-Regular'" font-size="13.1109">Деньги</text>
</g>
<g>
	<g>
		<line fill="none" stroke="#B3B3B3" stroke-miterlimit="10" stroke-dasharray="5,5" x1="94.3" y1="305" x2="249" y2="305"/>
		<g>
			<polygon fill="#B3B3B3" points="95.7,307.1 88.1,305 95.7,303 			"/>
		</g>
		<g>
			<polygon fill="#B3B3B3" points="247.7,307.1 255.2,305 247.7,303 			"/>
		</g>
	</g>
</g>
<rect x="145.2" y="297.9" fill="#FFFFFF" width="48.6" height="14.2"/>
<g>
	<text transform="matrix(1 0 0 1 147.0806 309.3936)" fill="#CCCCCC" font-family="'Roboto-Regular'" font-size="13.1109">Деньги</text>
</g>
<circle fill="#FF0033" cx="303.1" cy="78.8" r="78.8"/>
<circle opacity="0.17" fill="#CC0000" cx="303.1" cy="78.8" r="71.8"/>
<path fill="none" stroke="#FFFFFF" stroke-width="2" stroke-miterlimit="10" d="M327,95.6c-1.3,4.4-5.4,7.7-10.3,7.7h-27.4
	c-5.9,0-10.7-4.8-10.7-10.7V65.1c0-5.9,4.8-10.7,10.7-10.7h27.4c5.9,0,10.7,4.8,10.7,10.7v23.3c0,0.9-1,1.4-1.7,0.9l-28.4-19.1
	c-0.5-0.3-1.1,0-1.1,0.6v20.5"/>
</svg>
