<?xml version="1.0" encoding="utf-8"?>
<!-- Generator: Adobe Illustrator 18.1.0, SVG Export Plug-In . SVG Version: 6.00 Build 0)  -->
<svg version="1.1" id="Layer_1" xmlns="http://www.w3.org/2000/svg" xmlns:xlink="http://www.w3.org/1999/xlink" x="0px" y="0px"
	 viewBox="0 0 500 500" enable-background="new 0 0 500 500" xml:space="preserve">
<g>
	<path fill="#FFFFFF" d="M61.8,231.7v-35.4h3.4L86,226h0.3v-29.7h3.4v35.4h-3.1L65.7,202h-0.3v29.7H61.8z"/>
	<path fill="#FFFFFF" d="M117.5,231.7H96.2v-35.4h21.3v3.1h-18v12.5h17.2v3.1H99.5v13.5h18V231.7z"/>
	<path fill="#FFFFFF" d="M132.6,231.7v-32.5h-12v-2.9h27.1v3.1h-12V232h-3.1V231.7z"/>
	<path fill="#FFFFFF" d="M180.5,214c0,11.2-6.2,18.2-16.1,18.2s-16.1-7-16.1-18.2s6.2-18.2,16.1-18.2
		C174.5,195.5,180.5,202.8,180.5,214z M151.8,214c0,9.4,4.9,15.1,12.7,15.1c7.8,0,12.7-6,12.7-15.1c0-9.4-4.9-15.1-12.7-15.1
		C156.8,198.7,151.8,204.6,151.8,214z"/>
	<path fill="#FFFFFF" d="M198.4,196.3c6.8,0,11.4,4.4,11.4,10.9s-4.7,10.9-11.4,10.9h-9.1v13.3h-3.4v-35.1H198.4z M189,215.3h8.3
		c5.5,0,8.8-3.1,8.8-8.1c0-4.9-3.1-8.1-8.8-8.1H189V215.3z"/>
	<path fill="#FFFFFF" d="M230.9,220.8h-14.8l-3.9,10.9h-3.6l13.3-35.4h3.4l13.3,35.4h-3.6L230.9,220.8z M217.1,217.9h12.7l-6.2-17.4
		h-0.3L217.1,217.9z"/>
	<path fill="#FFFFFF" d="M247.6,231.7v-15.4l-12.7-20h3.9l10.4,16.9l0,0l10.4-16.9h3.9l-12.7,20v15.4H247.6z"/>
	<path fill="#FFFFFF" d="M277.2,213.7c0-11.2,6.2-18.2,15.9-18.2c7.5,0,13.5,4.9,14.3,11.7H304c-1-5.2-5.5-8.6-10.9-8.6
		c-7.5,0-12.2,6-12.2,15.1c0,9.4,4.9,15.4,12.5,15.4c5.7,0,9.9-3.1,10.9-7.8h3.4c-1.3,7-6.8,10.9-14.3,10.9
		C283.5,232.2,277.2,224.9,277.2,213.7z"/>
	<path fill="#FFFFFF" d="M315.7,231.7h-3.4v-35.4h12.7c7,0,11.4,4.2,11.4,10.4c0,4.9-2.9,8.8-7.5,10.1l8.6,15.1h-3.9l-8.1-14.6
		c-0.3,0-0.3,0-0.5,0H316v14.3H315.7z M315.7,214.3h9.1c5.2,0,8.1-2.9,8.1-7.5s-3.1-7.5-8.3-7.5h-8.8
		C315.7,199.2,315.7,214.3,315.7,214.3z"/>
	<path fill="#FFFFFF" d="M363.4,231.7H342v-35.4h21.3v3.1h-18v12.5h17.2v3.1h-17.2v13.5h18V231.7z"/>
	<path fill="#FFFFFF" d="M380.8,196.3c10.7,0,16.9,6.5,16.9,17.7s-6.2,17.7-16.9,17.7h-11.7v-35.4H380.8z M372.5,228.6h8.1
		c8.8,0,13.5-5.2,13.5-14.6s-4.9-14.6-13.5-14.6h-8.1V228.6z"/>
	<path fill="#FFFFFF" d="M402.7,231.7v-35.4h3.4v35.4H402.7z"/>
	<path fill="#FFFFFF" d="M422.2,231.7v-32.5h-12v-2.9h27.1v3.1h-11.7V232h-3.4V231.7z"/>
</g>
<g>
	<path fill="#FFFFFF" d="M62.6,286.8c0-6,3.3-9.9,8.6-9.9c4,0,7.2,2.5,7.8,6.2h-1.9c-0.6-2.6-3-4.5-5.9-4.5c-4.1,0-6.7,3.2-6.7,8.2
		c0,5.1,2.6,8.3,6.7,8.3c3,0,5.3-1.6,5.9-4.1h1.9c-0.7,3.6-3.7,5.8-7.8,5.8C65.9,296.8,62.6,292.9,62.6,286.8z"/>
	<path fill="#FFFFFF" d="M93.5,292.4c-0.4,2.5-2.8,4.2-5.9,4.2c-4,0-6.5-2.8-6.5-7.3c0-4.5,2.5-7.4,6.4-7.4c3.8,0,6.2,2.7,6.2,7v0.8
		H82.9v0.1c0,3.3,1.9,5.2,4.7,5.2c2.2,0,3.7-1.1,4.1-2.7H93.5z M82.9,288.3h8.9c0-2.9-1.8-4.8-4.4-4.8
		C84.9,283.5,83.1,285.4,82.9,288.3z"/>
	<path fill="#FFFFFF" d="M109.2,289.3c0,4.4-2.5,7.3-6.1,7.3c-2.3,0-4.1-1.3-4.9-3.1h0v7.7h-1.8v-19.1h1.7v3h0
		c0.8-1.8,2.7-3.1,5-3.1C106.7,281.9,109.2,284.9,109.2,289.3z M107.4,289.3c0-3.5-1.9-5.8-4.6-5.8c-2.7,0-4.6,2.4-4.6,5.8
		c0,3.4,1.9,5.8,4.6,5.8C105.5,295,107.4,292.7,107.4,289.3z"/>
	<path fill="#FFFFFF" d="M111.9,282.1h5.8c2.7,0,4.3,1.4,4.3,3.6c0,1.6-1.1,2.9-2.5,3.2v0.1c1.8,0.2,3.2,1.5,3.2,3.4
		c0,2.6-1.9,4.1-5,4.1h-5.8V282.1z M113.6,283.6v4.7h3.6c2,0,3.1-0.9,3.1-2.4c0-1.5-1-2.3-2.8-2.3H113.6z M113.6,289.8v5.2h4.1
		c2.1,0,3.3-0.9,3.3-2.6c0-1.7-1.3-2.6-3.6-2.6H113.6z"/>
	<path fill="#FFFFFF" d="M125.3,278.1c0-0.7,0.5-1.2,1.2-1.2c0.7,0,1.2,0.5,1.2,1.2c0,0.6-0.5,1.2-1.2,1.2
		C125.9,279.3,125.3,278.7,125.3,278.1z M125.6,282.1h1.8v14.4h-1.8V282.1z"/>
	<path fill="#FFFFFF" d="M140.8,286.3c-0.4-1.6-1.9-2.8-4.1-2.8c-2.8,0-4.7,2.3-4.7,5.8c0,3.6,1.9,5.8,4.7,5.8c2.1,0,3.6-1,4.1-2.7
		h1.8c-0.5,2.5-2.8,4.3-5.8,4.3c-3.9,0-6.5-2.8-6.5-7.3c0-4.4,2.6-7.3,6.4-7.3c3.2,0,5.4,2,5.8,4.4H140.8z"/>
	<path fill="#FFFFFF" d="M151.2,296.4v-14.4h2.1l5.7,12h0.1l5.7-12h2v14.4H165v-11.2h-0.1l-5.3,10.9h-1.4l-5.3-10.9h-0.1v11.2H151.2
		z"/>
	<path fill="#FFFFFF" d="M170,278.1c0-0.7,0.5-1.2,1.2-1.2c0.7,0,1.2,0.5,1.2,1.2c0,0.6-0.5,1.2-1.2,1.2
		C170.6,279.3,170,278.7,170,278.1z M170.3,282.1h1.8v14.4h-1.8V282.1z"/>
	<path fill="#FFFFFF" d="M193.7,296.4h-2.3l-6.4-7h-0.1v7h-1.7v-7H183l-6.4,7h-2.3l6.9-7.5l-6.7-6.9h2.2l6.3,6.5h0.1v-6.5h1.7v6.5
		h0.1l6.3-6.5h2.2l-6.7,6.8L193.7,296.4z"/>
	<path fill="#FFFFFF" d="M205.6,289.7h-8v6.7h-1.7v-14.4h1.7v6.2h8v-6.2h1.7v14.4h-1.7V289.7z"/>
	<path fill="#FFFFFF" d="M210.2,292.4c0-2.5,1.8-3.9,5.3-4.1l4.4-0.3v-1.2c0-2.1-1.3-3.3-3.6-3.3c-2,0-3.4,1-3.7,2.7h-1.7
		c0.1-2.5,2.4-4.3,5.4-4.3c3.3,0,5.4,1.8,5.4,4.7v9.8h-1.7v-2.7h0c-0.8,1.7-2.7,2.9-4.9,2.9C212.1,296.6,210.2,294.9,210.2,292.4z
		 M219.8,291.1v-1.6l-4.2,0.3c-2.4,0.2-3.7,1.1-3.7,2.7c0,1.5,1.4,2.6,3.4,2.6C217.9,295.1,219.8,293.3,219.8,291.1z"/>
	<path fill="#FFFFFF" d="M237.7,289.3c0,4.4-2.5,7.3-6.1,7.3c-2.3,0-4.1-1.3-4.9-3.1h0v7.7h-1.8v-19.1h1.7v3h0
		c0.8-1.8,2.7-3.1,5-3.1C235.2,281.9,237.7,284.9,237.7,289.3z M235.9,289.3c0-3.5-1.9-5.8-4.6-5.8c-2.7,0-4.6,2.4-4.6,5.8
		c0,3.4,1.9,5.8,4.6,5.8C234,295,235.9,292.7,235.9,289.3z"/>
	<path fill="#FFFFFF" d="M239.7,289.3c0-4.5,2.6-7.3,6.5-7.3c3.9,0,6.5,2.9,6.5,7.3s-2.6,7.3-6.5,7.3
		C242.2,296.6,239.7,293.7,239.7,289.3z M250.9,289.3c0-3.6-1.8-5.8-4.7-5.8c-2.9,0-4.7,2.2-4.7,5.8c0,3.6,1.8,5.8,4.7,5.8
		C249.1,295,250.9,292.8,250.9,289.3z"/>
	<path fill="#FFFFFF" d="M253.9,300.2V295h1.2c1.1-0.7,1.6-2.6,1.7-4.8c0.1-0.8,0.5-7.3,0.6-8.1h9.6V295h2.3v5.3h-1.7v-3.8h-12v3.8
		H253.9z M265.2,283.6H259c0,0.7-0.4,5.9-0.5,6.7c-0.2,1.9-0.5,3.7-1.3,4.6v0.1h8V283.6z"/>
	<path fill="#FFFFFF" d="M281.2,289.7h-8v6.7h-1.7v-14.4h1.7v6.2h8v-6.2h1.7v14.4h-1.7V289.7z"/>
	<path fill="#FFFFFF" d="M285.7,289.3c0-4.5,2.6-7.3,6.5-7.3c3.9,0,6.5,2.9,6.5,7.3s-2.6,7.3-6.5,7.3
		C288.3,296.6,285.7,293.7,285.7,289.3z M297,289.3c0-3.6-1.8-5.8-4.7-5.8c-2.9,0-4.7,2.2-4.7,5.8c0,3.6,1.8,5.8,4.7,5.8
		C295.1,295,297,292.8,297,289.3z"/>
	<path fill="#FFFFFF" d="M298.9,278.4c0-0.7,0.6-1.2,1.2-1.2c0.7,0,1.2,0.6,1.2,1.2c0,0.7-0.6,1.2-1.2,1.2
		C299.4,279.7,298.9,279.1,298.9,278.4z M301.6,282.1h1.8v14.4h-1.8V282.1z M303.6,278.4c0-0.7,0.6-1.2,1.2-1.2
		c0.7,0,1.2,0.6,1.2,1.2c0,0.7-0.6,1.2-1.2,1.2C304.2,279.7,303.6,279.1,303.6,278.4z"/>
	<path fill="#FFFFFF" d="M313,282.1h5.8c2.7,0,4.3,1.4,4.3,3.6c0,1.6-1.1,2.9-2.5,3.2v0.1c1.8,0.2,3.2,1.5,3.2,3.4
		c0,2.6-1.9,4.1-5,4.1H313V282.1z M314.7,283.6v4.7h3.6c2,0,3.1-0.9,3.1-2.4c0-1.5-1-2.3-2.8-2.3H314.7z M314.7,289.8v5.2h4.1
		c2.1,0,3.3-0.9,3.3-2.6c0-1.7-1.3-2.6-3.6-2.6H314.7z"/>
	<path fill="#FFFFFF" d="M325.6,292.8h1.8c0.3,1.4,1.7,2.4,3.8,2.4c2.3,0,3.6-1.1,3.6-2.8c0-1.8-1.3-2.7-3.7-2.7h-2.2v-1.5h2.2
		c2.1,0,3.2-0.9,3.2-2.5c0-1.4-1.1-2.4-3.1-2.4c-2,0-3.3,1-3.6,2.4h-1.7c0.3-2.3,2.3-3.9,5.3-3.9c3.1,0,4.8,1.5,4.8,3.8
		c0,1.6-1.1,2.9-2.6,3.2v0.1c1.9,0.3,3.1,1.5,3.1,3.4c0,2.7-2.2,4.4-5.4,4.4C328.1,296.7,326,295.1,325.6,292.8z"/>
	<path fill="#FFFFFF" d="M338.8,292.4c0-2.5,1.8-3.9,5.3-4.1l4.4-0.3v-1.2c0-2.1-1.3-3.3-3.6-3.3c-2,0-3.4,1-3.7,2.7h-1.7
		c0.1-2.5,2.4-4.3,5.4-4.3c3.3,0,5.4,1.8,5.4,4.7v9.8h-1.7v-2.7h0c-0.8,1.7-2.7,2.9-4.9,2.9C340.7,296.6,338.8,294.9,338.8,292.4z
		 M348.5,291.1v-1.6l-4.2,0.3c-2.4,0.2-3.7,1.1-3.7,2.7c0,1.5,1.4,2.6,3.4,2.6C346.5,295.1,348.5,293.3,348.5,291.1z"/>
	<path fill="#FFFFFF" d="M365.1,292.3c-0.5,2.5-2.8,4.3-5.8,4.3c-3.9,0-6.5-2.8-6.5-7.3c0-4.4,2.6-7.3,6.5-7.3c3.2,0,5.4,2,5.8,4.4
		h-1.8c-0.4-1.6-1.9-2.8-4.1-2.8c-2.5,0-4.3,1.8-4.6,4.7h7v1.5h-7c0.1,3.3,2,5.3,4.7,5.3c2.1,0,3.6-1,4.1-2.7H365.1z"/>
	<path fill="#FFFFFF" d="M367.8,296.4v-14.4h2.1l5.7,12h0.1l5.7-12h2v14.4h-1.8v-11.2h-0.1l-5.2,10.9h-1.4l-5.3-10.9h-0.1v11.2
		H367.8z"/>
	<path fill="#FFFFFF" d="M386,289.3c0-4.5,2.6-7.3,6.5-7.3c3.9,0,6.5,2.9,6.5,7.3s-2.6,7.3-6.5,7.3C388.6,296.6,386,293.7,386,289.3
		z M397.2,289.3c0-3.6-1.8-5.8-4.7-5.8c-2.9,0-4.7,2.2-4.7,5.8c0,3.6,1.8,5.8,4.7,5.8C395.4,295,397.2,292.8,397.2,289.3z"/>
	<path fill="#FFFFFF" d="M400.3,300.2V295h1.2c1.1-0.7,1.6-2.6,1.7-4.8c0.1-0.8,0.5-7.3,0.6-8.1h9.6V295h2.3v5.3H414v-3.8h-12v3.8
		H400.3z M411.6,283.6h-6.2c0,0.7-0.4,5.9-0.5,6.7c-0.2,1.9-0.5,3.7-1.3,4.6v0.1h8V283.6z"/>
	<path fill="#FFFFFF" d="M417.7,278.1c0-0.7,0.5-1.2,1.2-1.2c0.7,0,1.2,0.5,1.2,1.2c0,0.6-0.5,1.2-1.2,1.2
		C418.2,279.3,417.7,278.7,417.7,278.1z M418,282.1h1.8v14.4H418V282.1z"/>
	<path fill="#FFFFFF" d="M420.8,278.4c0-0.7,0.6-1.2,1.2-1.2c0.7,0,1.2,0.6,1.2,1.2c0,0.7-0.6,1.2-1.2,1.2
		C421.3,279.7,420.8,279.1,420.8,278.4z M423.5,282.1h1.8v14.4h-1.8V282.1z M425.5,278.4c0-0.7,0.6-1.2,1.2-1.2
		c0.7,0,1.2,0.6,1.2,1.2c0,0.7-0.6,1.2-1.2,1.2C426.1,279.7,425.5,279.1,425.5,278.4z"/>
	<path fill="#FFFFFF" d="M94.6,321c0-8.3,2-11.6,7.5-11.7c0.3,0,1.3,0,1.5-0.1c1.2-0.1,2.4-0.3,3.1-0.7v1.5
		c-0.4,0.3-1.7,0.6-3.1,0.7c-0.2,0-1.2,0.1-1.5,0.1c-4.2,0.1-5.5,2.1-6.1,7.2h0.1c0.9-2,2.8-3,5.2-3c3.9,0,6.3,2.8,6.3,7.1
		c0,4.5-2.5,7.3-6.6,7.3C96.9,329.4,94.6,326.5,94.6,321z M105.9,322.1c0-3.5-1.8-5.5-4.8-5.5c-3,0-4.8,2.1-4.8,5.5
		c0,3.6,1.8,5.8,4.8,5.8C104.1,327.9,105.9,325.7,105.9,322.1z"/>
	<path fill="#FFFFFF" d="M110.3,310.8c0-0.7,0.5-1.2,1.2-1.2c0.7,0,1.2,0.5,1.2,1.2c0,0.6-0.5,1.2-1.2,1.2
		C110.8,312,110.3,311.5,110.3,310.8z M110.6,314.8h1.8v14.4h-1.8V314.8z"/>
	<path fill="#FFFFFF" d="M128.8,322c0,4.4-2.5,7.3-6.1,7.3c-2.3,0-4.1-1.3-4.9-3.1h0v7.7H116v-19.1h1.7v3h0c0.8-1.8,2.7-3.1,5-3.1
		C126.3,314.7,128.8,317.6,128.8,322z M127,322c0-3.5-1.9-5.8-4.6-5.8c-2.7,0-4.6,2.4-4.6,5.8c0,3.4,1.9,5.8,4.6,5.8
		C125.1,327.8,127,325.5,127,322z"/>
	<path fill="#FFFFFF" d="M149.1,329.2h-2.3l-6.4-7h-0.1v7h-1.7v-7h-0.1l-6.4,7h-2.3l6.9-7.5l-6.7-6.9h2.2l6.3,6.5h0.1v-6.5h1.7v6.5
		h0.1l6.3-6.5h2.2l-6.7,6.8L149.1,329.2z"/>
	<path fill="#FFFFFF" d="M157.2,329.2v-14.4h2.1l5.7,12h0.1l5.7-12h2v14.4H171V318h-0.1l-5.3,10.9h-1.4L159,318h-0.1v11.2H157.2z"/>
	<path fill="#FFFFFF" d="M176,310.8c0-0.7,0.5-1.2,1.2-1.2c0.7,0,1.2,0.5,1.2,1.2c0,0.6-0.5,1.2-1.2,1.2
		C176.6,312,176,311.5,176,310.8z M176.3,314.8h1.8v14.4h-1.8V314.8z"/>
	<path fill="#FFFFFF" d="M192.9,329.2h-2.3l-7-7h-0.1v7h-1.7v-14.4h1.7v6.5h0.1l6.9-6.5h2.2l-7.3,6.8L192.9,329.2z"/>
	<path fill="#FFFFFF" d="M207.7,322c0,4.4-2.5,7.3-6.1,7.3c-2.3,0-4.1-1.3-4.9-3.1h0v7.7H195v-19.1h1.7v3h0c0.8-1.8,2.7-3.1,5-3.1
		C205.3,314.7,207.7,317.6,207.7,322z M205.9,322c0-3.5-1.9-5.8-4.6-5.8c-2.7,0-4.6,2.4-4.6,5.8c0,3.4,1.9,5.8,4.6,5.8
		C204.1,327.8,205.9,325.5,205.9,322z"/>
	<path fill="#FFFFFF" d="M209.7,322c0-4.5,2.6-7.3,6.5-7.3c3.9,0,6.5,2.9,6.5,7.3s-2.6,7.3-6.5,7.3
		C212.3,329.3,209.7,326.5,209.7,322z M221,322c0-3.6-1.8-5.8-4.7-5.8c-2.9,0-4.7,2.2-4.7,5.8c0,3.6,1.8,5.8,4.7,5.8
		C219.2,327.8,221,325.6,221,322z"/>
	<path fill="#FFFFFF" d="M236.7,329.2h-2.3l-7-7h-0.1v7h-1.7v-14.4h1.7v6.5h0.1l6.9-6.5h2.2l-7.3,6.8L236.7,329.2z"/>
	<path fill="#FFFFFF" d="M251.5,322c0,4.4-2.5,7.3-6.1,7.3c-2.3,0-4.1-1.3-4.9-3.1h0v7.7h-1.8v-19.1h1.7v3h0c0.8-1.8,2.7-3.1,5-3.1
		C249,314.7,251.5,317.6,251.5,322z M249.7,322c0-3.5-1.9-5.8-4.6-5.8c-2.7,0-4.6,2.4-4.6,5.8c0,3.4,1.9,5.8,4.6,5.8
		C247.9,327.8,249.7,325.5,249.7,322z"/>
	<path fill="#FFFFFF" d="M265.9,325.1c-0.4,2.5-2.8,4.2-5.9,4.2c-4,0-6.5-2.8-6.5-7.3c0-4.5,2.5-7.4,6.4-7.4c3.8,0,6.2,2.7,6.2,7
		v0.8h-10.8v0.1c0,3.3,1.9,5.2,4.7,5.2c2.2,0,3.7-1.1,4.1-2.7H265.9z M255.4,321h8.9c0-2.9-1.8-4.8-4.4-4.8
		C257.3,316.2,255.5,318.2,255.4,321z"/>
	<path fill="#FFFFFF" d="M267.3,333v-5.3h1.2c1.1-0.7,1.6-2.6,1.7-4.8c0.1-0.8,0.5-7.3,0.6-8.1h9.6v12.9h2.3v5.3H281v-3.8h-12v3.8
		H267.3z M278.6,316.3h-6.2c0,0.7-0.4,5.9-0.5,6.7c-0.2,1.9-0.5,3.7-1.3,4.6v0.1h8V316.3z"/>
	<path fill="#FFFFFF" d="M284.8,329.2v-14.4h1.7v11.6h0.1l8.2-11.6h1.7v14.4h-1.7v-11.6h-0.1l-8.1,11.6H284.8z"/>
	<path fill="#FFFFFF" d="M310.4,316.3h-4.9v12.9h-1.7v-12.9h-4.9v-1.5h11.6V316.3z"/>
	<path fill="#FFFFFF" d="M312.8,334.1v-1.5c0.2,0.1,0.6,0.1,0.9,0.1c1.3,0,2-0.7,2.7-2.5l0.3-0.9l-5.4-14.4h1.9l4.4,12.6h0l4.4-12.6
		h1.9l-5.6,15c-1.3,3.4-2.3,4.3-4.6,4.3C313.4,334.2,313,334.1,312.8,334.1z"/>
	<path fill="#FFFFFF" d="M326,314.8h5.8c2.7,0,4.3,1.4,4.3,3.6c0,1.6-1.1,2.9-2.5,3.2v0.1c1.8,0.2,3.2,1.5,3.2,3.4
		c0,2.6-1.9,4.1-5,4.1H326V314.8z M327.7,316.3v4.7h3.6c2,0,3.1-0.9,3.1-2.4c0-1.5-1-2.3-2.8-2.3H327.7z M327.7,322.5v5.2h4.1
		c2.1,0,3.3-0.9,3.3-2.6c0-1.7-1.3-2.6-3.6-2.6H327.7z"/>
	<path fill="#FFFFFF" d="M339,325.2c0-2.5,1.8-3.9,5.3-4.1l4.4-0.3v-1.2c0-2.1-1.3-3.3-3.6-3.3c-2,0-3.4,1-3.7,2.7h-1.7
		c0.1-2.5,2.4-4.3,5.4-4.3c3.3,0,5.4,1.8,5.4,4.7v9.8h-1.7v-2.7h0c-0.8,1.7-2.7,2.9-4.9,2.9C340.9,329.3,339,327.7,339,325.2z
		 M348.7,323.8v-1.6l-4.2,0.3c-2.4,0.2-3.7,1.1-3.7,2.7c0,1.5,1.4,2.6,3.4,2.6C346.7,327.8,348.7,326.1,348.7,323.8z"/>
	<path fill="#FFFFFF" d="M363.5,322.5h-8v6.7h-1.7v-14.4h1.7v6.2h8v-6.2h1.7v14.4h-1.7V322.5z"/>
	<path fill="#FFFFFF" d="M378.5,322.5h-8v6.7h-1.7v-14.4h1.7v6.2h8v-6.2h1.7v14.4h-1.7V322.5z"/>
	<path fill="#FFFFFF" d="M391.7,323.8h-3.1l-3.9,5.4h-2.1l4.2-5.7c-2.2-0.5-3.6-2-3.6-4.1c0-2.8,2-4.6,5.2-4.6h5v14.4h-1.7V323.8z
		 M391.7,322.3v-6h-3.2c-2.1,0-3.5,1.2-3.5,3.1c0,1.7,1.4,2.9,3.5,2.9H391.7z"/>
</g>
</svg>
