<?xml version="1.0" encoding="utf-8"?>
<!-- Generator: Adobe Illustrator 18.1.0, SVG Export Plug-In . SVG Version: 6.00 Build 0)  -->
<svg version="1.1" id="Layer_1" xmlns="http://www.w3.org/2000/svg" xmlns:xlink="http://www.w3.org/1999/xlink" x="0px" y="0px"
	 viewBox="0 0 200 200" enable-background="new 0 0 200 200" xml:space="preserve">
<g>
	<path fill="#FFFFFF" d="M45.2,157.6c-2.1,0.3-3.7-2.1-2.5-3.8c0.4-0.5,0.9-1.1,1.5-1.5c2.2-1.6,4.2-3.8,6.3-6.8
		c7.7-10.8,10.6-22.1,8.6-34.5c-0.7-4.3-1.4-8.7-1-13.3c0.4-5.8,2-11.3,4.7-16.5c2-3.9,4.8-7.4,8.5-11c6.9-6.5,15.4-10.2,25.3-10.9
		c7.8-0.6,15.2,1,22,4.7c9.8,5.2,16.4,13,19.8,23c2.8,8.2,3.5,16.8,3.9,24.9c0.2,3.1,0.1,6.1,0.1,9.1c0,0.5,0,1,0,1.5
		c0,1.4-1.1,2.5-2.5,2.4l0,0c-1.4,0-2.5-1.2-2.5-2.6c0-0.5,0-1,0-1.5c0.1-2.9,0.1-5.8,0-8.7c-0.5-8.1-1.1-16-3.7-23.6
		c-3-8.8-8.8-15.6-17.4-20.2c-6-3.2-12.4-4.6-19.3-4.1c-8.7,0.6-16.2,3.9-22.2,9.6c-3.3,3.1-5.8,6.3-7.5,9.7
		c-2.4,4.6-3.8,9.4-4.2,14.6c-0.3,4,0.3,8,1,12.2c2.1,13.6-1,26.4-9.5,38.2c-2.5,3.5-4.8,6-7.4,7.9c-0.2,0.1-0.3,0.2-0.3,0.3
		C46.5,157.1,45.9,157.5,45.2,157.6L45.2,157.6z"/>
</g>
<g>
	<g>
		<g>
			<path fill="#FFFFFF" d="M179.7,102.4c0,1.6-1.1,2.9-2.5,2.9s-2.5-1.3-2.5-2.9s-0.2-4.7-0.4-6.8c0,0-1.1-12.1-4.2-20.7
				c-3.1-8.6-7.8-16.6-14.1-23.8c-6.9-7.9-15.1-14-24.9-18.7c-5.2-2.5-10.8-4.3-16.8-5.6c-3.3-0.7-7-1.1-11.9-1.4
				c-7-0.3-14.2,0.5-22,2.4c-8.7,2.2-21.6,9.7-21.6,9.7c-1.9,1.1-4.1,1.1-4.9,0s0.1-2.9,2-4.1c0,0,13.9-8.1,23.2-10.5
				c8.3-2.1,16-2.9,23.5-2.6c5.1,0.2,9.1,0.7,12.7,1.5c6.4,1.4,12.4,3.4,17.9,6c10.3,4.9,19.3,11.6,26.5,19.9
				c6.6,7.6,11.7,16.1,15,25.4c3.3,9.1,4.5,22.4,4.5,22.4C179.6,97.7,179.7,100.8,179.7,102.4z"/>
		</g>
	</g>
</g>
<g>
	<path fill="#FFFFFF" d="M101.9,178.2L101.9,178.2c-1.1-0.8-1.4-2.3-0.7-3.4c6.6-10,11.5-21.5,14.4-34c2.1-8.9,2.9-18.4,2.4-28.4
		c-0.3-5.5-0.8-11.4-2.4-16.9c-1.6-5.2-5.1-8.8-10.5-10.9c-4.5-1.7-9.4-1.3-13.7,1c-4.3,2.4-7.5,6.5-8.5,11.1
		c-0.4,1.9-0.5,3.8-0.3,5.9c0.1,1.3-0.7,2.5-2,2.7l0,0c-1.4,0.3-2.8-0.7-2.9-2.2c-0.3-2.6-0.1-5.1,0.4-7.5c1.3-6.1,5.3-11.3,11-14.4
		c5.6-3,12.1-3.5,17.9-1.3c6.8,2.6,11.5,7.5,13.5,14.1c1.8,6,2.3,12.2,2.6,18.1c0.5,10.4-0.3,20.5-2.5,29.8
		c-3.1,13.1-8.1,25-15.1,35.6C104.7,178.7,103.1,179,101.9,178.2z"/>
</g>
<g>
	<path fill="#FFFFFF" d="M157.1,156.6l-5-0.3l0-0.3c0-0.5,0-1.1,0.2-1.8c2.5-9.4,4.1-19.3,4.6-30.4c0.3-5.8,0.2-11.4-0.3-16.6
		c-0.6-5.9-1.3-11.1-2.2-15.8c-1.5-7.7-4.1-14.5-8-20.7c-5.7-9-15.4-19.3-25.9-22.5c-1.3-0.4-2-1.6-1.8-2.9v0
		c0.3-1.4,1.7-2.3,3.1-1.9c14.9,4.5,25.7,19.8,28.7,24.7c4.3,6.7,7.1,14.1,8.7,22.5c0.9,4.9,1.7,10.2,2.2,16.3
		c0.5,5.5,0.6,11.3,0.3,17.4c-0.6,11.4-2.2,21.7-4.8,31.5c0,0.1,0,0.4,0,0.7C157.1,156.3,157.1,156.4,157.1,156.6z"/>
</g>
<g>
	<path fill="#FFFFFF" d="M42.6,88.1L42.6,88.1c-1.4-0.3-2.3-1.7-2-3.1c0.5-2.1,1.2-4.2,2-6.2C49.4,62,61.2,50.2,77.8,43.7
		c6.5-2.5,13.1-3.8,19.9-3.8c3.2,0,6.4,0.1,9.7,0.4c1.4,0.1,2.4,1.4,2.3,2.8v0c-0.2,1.3-1.3,2.3-2.7,2.2c-3.1-0.3-6.2-0.4-9.3-0.4
		c-6.1,0-12.2,1.2-18.1,3.5c-15.3,6-26.1,16.9-32.3,32.3c-0.7,1.9-1.4,3.7-1.8,5.6C45.2,87.5,43.9,88.3,42.6,88.1z"/>
</g>
<g>
	<path fill="#FFFFFF" d="M78.4,173.2c-0.1,0.1-0.2,0.1-0.2,0.2c0.6-0.9,1.3-1.8,2-2.6c0.5-0.6,1-1.2,1.4-1.8
		c10.7-14.4,16.5-30.9,17.2-49c0.2-5.2-0.2-10.6-1.3-16.5c-0.2-1.3,0.7-2.6,2-2.9h0c1.4-0.3,2.7,0.6,3,2c1.1,6.3,1.5,12,1.3,17.5
		c-0.7,19.1-6.8,36.6-18.1,51.8c-0.5,0.7-1.1,1.4-1.6,2c-0.6,0.8-1.2,1.5-1.7,2.2"/>
</g>
<g>
	<path fill="#FFFFFF" d="M26.4,121h-5c0-0.3,0-0.6,0-0.9c0-0.3,0-0.7,0-0.9c-0.8-3.7-1.5-7.6-1.9-11.9c-0.6-6.2-0.4-12.6,0.6-19.4
		c0.7-4.4,1.9-9.1,3.8-14.4c3.7-10.3,9.3-19.5,16.8-27.5c1-1,2.6-1.1,3.6-0.1h0c0.9,0.9,1,2.5,0.1,3.5c-7,7.5-12.3,16.2-15.8,25.9
		c-1.8,5-2.9,9.4-3.6,13.5c-1,6.4-1.2,12.4-0.6,18.2c0.4,4.1,1,7.8,1.8,11.3c0.2,0.8,0.1,1.6,0.1,2.2
		C26.4,120.6,26.4,120.8,26.4,121z"/>
</g>
<g>
	<path fill="#FFFFFF" d="M58.6,170.3c-0.4,0-0.7,0-1.1-0.1l0.5-3.3c0.1-0.8,0.6-1.4,1.2-1.8c0.2-0.1,0.4-0.3,0.7-0.6
		c3.2-3.6,6.6-7.5,9.2-11.8c4.4-7.2,7.3-14.6,8.9-22.7c0.7-3.7,1-7.5,1.1-10.7c0-1.4,1.2-2.4,2.5-2.4h0c1.4,0,2.5,1.2,2.5,2.6
		c-0.1,3.4-0.4,7.4-1.2,11.5c-1.6,8.6-4.8,16.8-9.5,24.4c-2.9,4.6-6.4,8.7-9.7,12.5C62.2,169.5,60.5,170.3,58.6,170.3z"/>
</g>
<g>
	<path fill="#FFFFFF" d="M127.3,173.1L127.3,173.1c-1.2-0.6-1.7-2.1-1.1-3.3c1.5-3.2,3-6.8,4.5-11.1c2.7-7.6,4.6-15.3,5.6-23
		c0.2-1.4,1.4-2.3,2.8-2.2l0,0c1.4,0.2,2.4,1.4,2.2,2.8c-1.1,8-3.1,16.1-5.9,24c-1.6,4.5-3.1,8.2-4.7,11.6
		C130.1,173.3,128.5,173.8,127.3,173.1z"/>
</g>
<g>
	<path fill="#FFFFFF" d="M31.7,142.8c-0.2,0-0.3,0-0.5,0l0.2-4.9c-0.1,0.1-0.2,0.1-0.2,0.2c0.4-0.6,0.9-1,1.4-1.4
		c0.3-0.3,0.6-0.5,0.8-0.8c5.6-6.4,7.8-13.9,6.6-22.3l0-0.3c-0.6-3.9-1.2-8-1.4-12.1c0-0.7,0-1.4,0.1-1.9c0.1-0.6,0.1-1.2,0-1.6
		l4.9-1.1c0.3,1.2,0.2,2.3,0.1,3.2c0,0.4-0.1,0.9-0.1,1.2c0.2,3.8,0.7,7.6,1.3,11.6l0,0.3c1.5,10-1.1,18.8-7.7,26.4
		c-0.4,0.4-0.8,0.8-1.1,1.1c-0.3,0.3-0.7,0.6-0.9,0.9C34,142.6,32.6,142.8,31.7,142.8z"/>
</g>
</svg>
