<?xml version="1.0" encoding="utf-8"?>
<!-- Generator: Adobe Illustrator 18.1.0, SVG Export Plug-In . SVG Version: 6.00 Build 0)  -->
<svg version="1.1" id="Layer_1" xmlns="http://www.w3.org/2000/svg" xmlns:xlink="http://www.w3.org/1999/xlink" x="0px" y="0px"
	 viewBox="0 0 200 50" enable-background="new 0 0 200 50" xml:space="preserve">
<path fill="#B3B3B3" d="M70,8.8H71l3.5,4.5V8.8h1.1v6.5h-1l-3.6-4.6v4.6H70V8.8z"/>
<path fill="#B3B3B3" d="M77.3,8.8h4.8v1h-3.7v1.7h3.2v1h-3.2v1.7h3.7v1h-4.8V8.8z"/>
<path fill="#B3B3B3" d="M85,9.8H83V8.8h5.3v1.1h-2.1v5.4H85V9.8z"/>
<path fill="#B3B3B3" d="M88.8,12c0-1.8,1.4-3.3,3.4-3.3c2,0,3.4,1.5,3.4,3.3c0,1.8-1.4,3.3-3.4,3.3C90.2,15.3,88.8,13.8,88.8,12z
	 M94.4,12c0-1.3-0.9-2.3-2.2-2.3c-1.3,0-2.2,1-2.2,2.3c0,1.3,0.9,2.3,2.2,2.3C93.5,14.3,94.4,13.3,94.4,12z"/>
<path fill="#B3B3B3" d="M97,8.8h2.6c1.5,0,2.5,0.9,2.5,2.2c0,1.5-1.2,2.2-2.6,2.2h-1.3v2.1H97V8.8z M99.4,12.1
	c0.9,0,1.4-0.5,1.4-1.2c0-0.8-0.5-1.2-1.4-1.2h-1.3v2.3H99.4z"/>
<path fill="#B3B3B3" d="M104.8,8.7h1.1l2.8,6.5h-1.2l-0.7-1.6h-3.1l-0.7,1.6h-1.2L104.8,8.7z M106.4,12.7l-1.1-2.6l-1.1,2.6H106.4z"
	/>
<path fill="#B3B3B3" d="M110.7,12.7l-2.6-3.9h1.3l1.8,2.9l1.8-2.9h1.3l-2.6,3.9v2.6h-1.1V12.7z"/>
<g>
	<g>
		<path fill="#6BC62A" d="M44.8,43.5V8.7h22.1v2.7H47.8v12.9h15.8l-0.2,2.7l-15.6,0v16.5H44.8z"/>
	</g>
	<path fill="#6BC62A" d="M70,43.4V19.9h2.9v23.6H70z"/>
	<path fill="#6BC62A" d="M95.1,43.4L81.3,24.6v18.8h-2.9V19.9h3L95,38.3V19.9h2.9v23.6H95.1z"/>
	<path fill="#6BC62A" d="M120.2,43.4l-2.1-5.2h-11.7l-2.1,5.2H101l9.5-23.6h3.6l9.5,23.6H120.2z M112.3,22.9l-5,12.7h10L112.3,22.9z
		"/>
	<path fill="#6BC62A" d="M143.3,43.4l-13.7-18.8v18.8h-2.9V19.9h3l13.6,18.4V19.9h2.9v23.6H143.3z"/>
	<path fill="#6BC62A" d="M150.7,31.7c0-7.2,5.3-12.2,12.1-12.2c4.2,0,7.1,2,8.9,4.7l-2.5,1.4c-1.3-2-3.8-3.4-6.5-3.4
		c-5.2,0-9.1,4-9.1,9.6c0,5.6,3.9,9.6,9.1,9.6c2.7,0,5.1-1.4,6.5-3.4l2.5,1.4c-2,2.7-4.8,4.7-9,4.7C156,43.9,150.7,38.9,150.7,31.7z
		"/>
	<path fill="#6BC62A" d="M175.5,43.4V19.9H191v2.6h-12.5v7.6h12.3v2.6h-12.3v8.1H191v2.6H175.5z"/>
</g>
<path fill="none" stroke="#B3B3B3" stroke-width="3" stroke-miterlimit="10" d="M35.2,37.1c-0.9,3-3.7,5.2-7,5.2H9.6
	c-4,0-7.3-3.2-7.3-7.3V16.5c0-4,3.2-7.3,7.3-7.3h18.6c4,0,7.3,3.2,7.3,7.3v15.8c0,0.6-0.6,0.9-1.1,0.6L15.1,20
	c-0.3-0.2-0.8,0-0.8,0.4v13.9"/>
</svg>
