<?xml version="1.0" encoding="utf-8"?>
<!-- Generator: Adobe Illustrator 18.1.0, SVG Export Plug-In . SVG Version: 6.00 Build 0)  -->
<svg version="1.1" id="Layer_1" xmlns="http://www.w3.org/2000/svg" xmlns:xlink="http://www.w3.org/1999/xlink" x="0px" y="0px"
	 viewBox="0 0 500 500" enable-background="new 0 0 500 500" xml:space="preserve">
<g>
	<path fill="#FFFFFF" d="M294,262.8h-87.2c-20.2,0-36.5-16.5-36.5-36.5V139c0-20,16.5-36.5,36.5-36.5H294
		c20.2,0,36.5,16.2,36.5,36.5v74.2c0,2.3-1.2,4.2-3,5.2c-2,1-4.2,0.8-6-0.2L231,157.5v65h-5v-65.2c0-2,1-3.5,2.8-4.2s3.5-0.5,5,0.5
		l90.5,60.8c0.2,0.2,0.8,0.2,1,0c0.2-0.2,0.5-0.5,0.5-0.8v-74.2c0-17.5-14.2-31.5-31.5-31.5h-87.5c-17.2,0-31.5,14.2-31.5,31.5v87
		c0,17.2,14.2,31.5,31.5,31.5H294c14,0,26.2-9.2,30.3-22.8l4.7,1.5C324.5,252,310.2,262.8,294,262.8z"/>
</g>
<g>
	<path fill="#FFFFFF" d="M28.2,348v-38.8h3.5l22.8,32.2H55v-32.2h3.8V348H55l-22.8-32.2H32V348L28.2,348L28.2,348z"/>
	<path fill="#FFFFFF" d="M89,348H65.8v-38.8H89v3.2H69.2v14H88v3.3H69.2v14.7H89C89,344.8,89,348,89,348z"/>
	<path fill="#FFFFFF" d="M105.5,348v-35.5h-13v-3.2h29.8v3.2h-13v35.2L105.5,348L105.5,348z"/>
	<path fill="#FFFFFF" d="M158,328.5c0,12.2-6.8,20-17.5,20s-17.5-7.8-17.5-20c0-12.2,6.8-20,17.5-20S158,316.5,158,328.5z
		 M126.5,328.5c0,10.2,5.5,16.5,13.8,16.5c8.5,0,13.8-6.5,13.8-16.5c0-10.2-5.5-16.8-13.8-16.8S126.5,318.2,126.5,328.5z"/>
	<path fill="#FFFFFF" d="M177.5,309.2c7.2,0,12.2,4.8,12.2,12s-5.2,12.2-12.5,12.2H167v14.7h-3.5v-38.8L177.5,309.2L177.5,309.2z
		 M167.2,330.2h9.2c6,0,9.5-3.2,9.5-8.8c0-5.5-3.5-8.8-9.5-8.8h-9.2V330.2z"/>
	<path fill="#FFFFFF" d="M213,336h-16.2l-4.2,12h-4l14.5-38.8h3.5L221,348h-3.5L213,336z M198,332.8h14.2l-7-19.2H205L198,332.8z"/>
	<path fill="#FFFFFF" d="M231.5,348v-16.8l-14-22h4.2l11.5,18.5h0.2l11.5-18.2h4.2l-14,22v16.8L231.5,348L231.5,348z"/>
	<path fill="#FFFFFF" d="M265.5,348v-38.8h23v3.2H269V327h17.8v3.2H269V348L265.5,348L265.5,348z"/>
	<path fill="#FFFFFF" d="M294,348v-38.8h3.5V348H294z"/>
	<path fill="#FFFFFF" d="M304.8,348v-38.8h3.5l22.8,32.2h0.2v-32.2h3.5V348h-3.5l-22.8-32.2h-0.2V348L304.8,348L304.8,348z"/>
	<path fill="#FFFFFF" d="M363.5,336h-16.2l-4.2,12h-4l14.5-38.8h3.5l14.5,38.8h-4L363.5,336z M348.5,332.8h14l-7-19.2h-0.3
		L348.5,332.8z"/>
	<path fill="#FFFFFF" d="M376,348v-38.8h3.5l22.8,32.2h0.2v-32.2h3.5V348h-3.5l-22.8-32.2h-0.3V348L376,348L376,348z"/>
	<path fill="#FFFFFF" d="M412,328.5c0-12,6.8-19.8,17.2-19.8c8.2,0,14.7,5.5,15.8,12.8h-3.5c-1-5.5-6-9.5-12-9.5
		c-8.2,0-13.5,6.5-13.5,16.5c0,10.2,5.2,16.5,13.5,16.5c6,0,11-3.2,12-8.5h3.5c-1.5,7.5-7.2,12.2-15.8,12.2
		C418.5,348.5,412,340.8,412,328.5z"/>
	<path fill="#FFFFFF" d="M473.5,348H450v-38.8h23.5v3.2h-19.8v14h18.8v3.3h-18.8v14.7h19.8V348z"/>
</g>
<text transform="matrix(1 0 0 1 521.6255 382.9519)" font-family="'SFUIDisplay-Medium'" font-size="22.5">REGIONAL FINANCIAL ECOSYSTEM</text>
<g enable-background="new    ">
	<path fill="#FFFFFF" d="M72.7,383h-2.5v-15.9h6.2c3.3,0,5.3,1.9,5.3,4.8c0,2.1-1.1,3.9-3.1,4.5l3.6,6.5h-2.8l-3.2-6.1h-3.5V383z
		 M72.7,374.9h3.5c1.9,0,3-1,3-2.9c0-1.8-1.2-2.8-3.1-2.8h-3.5V374.9z"/>
	<path fill="#FFFFFF" d="M94.2,383H84.1v-15.9h10.1v2.1h-7.6v4.6h7.2v2h-7.2v4.9h7.6V383z"/>
	<path fill="#FFFFFF" d="M103.5,383.2c-4.5,0-7.4-3.2-7.4-8.3c0-5,2.8-8.1,7.4-8.1c3.5,0,6.2,2.1,6.7,5.3h-2.5
		c-0.6-2-2.1-3.1-4.2-3.1c-3,0-4.9,2.2-4.9,5.9c0,3.8,1.9,6.1,4.9,6.1c2.6,0,4.4-1.6,4.4-4.1v-0.3h-4.1v-2h6.5v1.6
		C110.4,380.7,107.8,383.2,103.5,383.2z"/>
	<path fill="#FFFFFF" d="M112.8,383v-15.9h2.5V383H112.8z"/>
	<path fill="#FFFFFF" d="M132.4,375c0,5-2.9,8.2-7.4,8.2c-4.6,0-7.4-3.1-7.4-8.2s2.9-8.2,7.4-8.2C129.6,366.8,132.4,370,132.4,375z
		 M120.1,375c0,3.7,1.9,6,4.9,6c3,0,4.9-2.3,4.9-6c0-3.7-1.9-6-4.9-6C122,369,120.1,371.3,120.1,375z"/>
	<path fill="#FFFFFF" d="M134.8,383v-15.9h2.2l8.2,11.7h0.1v-11.7h2.4V383h-2.2l-8.2-11.7h-0.1V383H134.8z"/>
	<path fill="#FFFFFF" d="M159.5,378.7h-6L152,383h-2.6l5.7-15.9h2.7l5.7,15.9h-2.6L159.5,378.7z M154.1,376.7h4.8l-2.4-7h-0.1
		L154.1,376.7z"/>
	<path fill="#FFFFFF" d="M175.1,383h-9.8v-15.9h2.5v13.7h7.4V383z"/>
	<path fill="#FFFFFF" d="M182.4,383v-15.9h9.9v2.1h-7.4v5h6.8v2.1h-6.8v6.6H182.4z"/>
	<path fill="#FFFFFF" d="M194.5,383v-15.9h2.5V383H194.5z"/>
	<path fill="#FFFFFF" d="M199.9,383v-15.9h2.2l8.2,11.7h0.1v-11.7h2.4V383h-2.2l-8.2-11.7h-0.1V383H199.9z"/>
	<path fill="#FFFFFF" d="M224.6,378.7h-6l-1.5,4.3h-2.6l5.7-15.9h2.7l5.7,15.9H226L224.6,378.7z M219.2,376.7h4.8l-2.4-7h-0.1
		L219.2,376.7z"/>
	<path fill="#FFFFFF" d="M230.4,383v-15.9h2.2l8.2,11.7h0.1v-11.7h2.4V383h-2.2l-8.2-11.7h-0.1V383H230.4z"/>
	<path fill="#FFFFFF" d="M245.7,375c0-5,2.8-8.2,7.3-8.2c3.6,0,6.3,2.2,6.7,5.5h-2.4c-0.4-2-2.1-3.4-4.3-3.4c-2.9,0-4.7,2.4-4.7,6
		c0,3.7,1.8,6,4.8,6c2.2,0,3.8-1.1,4.3-3h2.5c-0.6,3.3-3.1,5.2-6.7,5.2C248.5,383.2,245.7,380.1,245.7,375z"/>
	<path fill="#FFFFFF" d="M261.9,383v-15.9h2.5V383H261.9z"/>
	<path fill="#FFFFFF" d="M276.2,378.7h-6l-1.5,4.3h-2.6l5.7-15.9h2.7l5.7,15.9h-2.6L276.2,378.7z M270.7,376.7h4.8l-2.4-7h-0.1
		L270.7,376.7z"/>
	<path fill="#FFFFFF" d="M291.8,383H282v-15.9h2.5v13.7h7.4V383z"/>
	<path fill="#FFFFFF" d="M309.2,383h-10.1v-15.9h10.1v2.1h-7.6v4.6h7.2v2h-7.2v4.9h7.6V383z"/>
	<path fill="#FFFFFF" d="M311.1,375c0-5,2.8-8.2,7.3-8.2c3.6,0,6.3,2.2,6.7,5.5h-2.4c-0.4-2-2.1-3.4-4.3-3.4c-2.9,0-4.7,2.4-4.7,6
		c0,3.7,1.8,6,4.8,6c2.2,0,3.8-1.1,4.3-3h2.5c-0.6,3.3-3.1,5.2-6.7,5.2C313.9,383.2,311.1,380.1,311.1,375z"/>
	<path fill="#FFFFFF" d="M341.6,375c0,5-2.9,8.2-7.4,8.2c-4.6,0-7.4-3.1-7.4-8.2s2.9-8.2,7.4-8.2C338.7,366.8,341.6,370,341.6,375z
		 M329.3,375c0,3.7,1.9,6,4.9,6c3,0,4.9-2.3,4.9-6c0-3.7-1.9-6-4.9-6C331.2,369,329.3,371.3,329.3,375z"/>
	<path fill="#FFFFFF" d="M345.7,378.5c0.2,1.6,1.7,2.6,3.8,2.6c2,0,3.4-1,3.4-2.4c0-1.2-0.9-2-2.9-2.5l-2.1-0.5
		c-2.9-0.7-4.3-2.1-4.3-4.3c0-2.7,2.4-4.6,5.8-4.6c3.4,0,5.6,1.9,5.7,4.6h-2.4c-0.1-1.6-1.5-2.5-3.4-2.5c-1.9,0-3.2,1-3.2,2.4
		c0,1.1,0.8,1.8,2.9,2.3l1.7,0.4c3.3,0.8,4.6,2.1,4.6,4.4c0,3-2.4,4.8-6.1,4.8c-3.5,0-5.9-1.8-6-4.7H345.7z"/>
	<path fill="#FFFFFF" d="M361.9,383v-6.5l-5.6-9.4h2.7l4,7h0.1l4-7h2.7l-5.6,9.4v6.5H361.9z"/>
	<path fill="#FFFFFF" d="M373.2,378.5c0.2,1.6,1.7,2.6,3.8,2.6c2,0,3.4-1,3.4-2.4c0-1.2-0.9-2-2.9-2.5l-2.1-0.5
		c-2.9-0.7-4.3-2.1-4.3-4.3c0-2.7,2.4-4.6,5.8-4.6c3.4,0,5.6,1.9,5.7,4.6h-2.4c-0.1-1.6-1.5-2.5-3.4-2.5c-1.9,0-3.2,1-3.2,2.4
		c0,1.1,0.8,1.8,2.9,2.3l1.7,0.4c3.3,0.8,4.6,2.1,4.6,4.4c0,3-2.4,4.8-6.1,4.8c-3.5,0-5.9-1.8-6-4.7H373.2z"/>
	<path fill="#FFFFFF" d="M389.2,383v-13.7h-4.9v-2.1h12.3v2.1h-4.9V383H389.2z"/>
	<path fill="#FFFFFF" d="M408.7,383h-10.1v-15.9h10.1v2.1h-7.6v4.6h7.2v2h-7.2v4.9h7.6V383z"/>
	<path fill="#FFFFFF" d="M427.2,383H425v-11.7h-0.1l-4.8,11.5h-1.8l-4.8-11.5h-0.1V383h-2.2v-15.9h2.8l5.1,12.5h0.1l5.1-12.5h2.9
		V383z"/>
</g>
</svg>
