<?xml version="1.0" encoding="utf-8"?>
<!-- Generator: Adobe Illustrator 18.1.0, SVG Export Plug-In . SVG Version: 6.00 Build 0)  -->
<svg version="1.1" id="Layer_1" xmlns="http://www.w3.org/2000/svg" xmlns:xlink="http://www.w3.org/1999/xlink" x="0px" y="0px"
	 viewBox="0 0 200 200" enable-background="new 0 0 200 200" xml:space="preserve">
<g>
	<g>
		<rect x="-301.3" y="-138.7" fill="#FFDC00" width="21" height="27.9"/>
	</g>
	<g>
		<rect x="-193.8" y="-138.7" fill="#FFDC00" width="21" height="27.9"/>
	</g>
	<path fill="#FFDC00" d="M-195.4-143.5c-5.5-0.8-20.3-2.2-41.7-2.2c-21.4,0-36.2,1.4-41.7,2.2v32.7h83.4V-143.5z"/>
	<path fill="#FFDC00" d="M-237-147.4c14.6,0,26.2,0.6,33.9,1.3v-1v-19.1l-9.7-2.1v-9.6l-3.2-3.2v-6.9c0-5-5.5-14.2-14.4-17.3v-10.9
		c0-1.1-2.9-2.8-5.2-3.3v-8c0-0.8-0.7-1.5-1.5-1.5c-0.8,0-1.5,0.7-1.5,1.5v8c-2.3,0.6-5,2.2-5,3.3v10.9
		c-8.9,3.2-14.4,12.3-14.4,17.3v6.9l-3.2,3.2v9.6l-9.7,2.1v19.1v1C-263.3-146.7-251.7-147.4-237-147.4z"/>
</g>
<g>
	<g>
		<rect x="-124.4" y="-112.4" fill="#00CFFF" width="7.9" height="79.1"/>
		<rect x="-114.4" y="-91.7" fill="#00CFFF" width="7.9" height="58.4"/>
		<rect x="-104.5" y="-69.8" fill="#00CFFF" width="7.9" height="36.5"/>
		<rect x="-84.6" y="-65.6" fill="#00CFFF" width="7.9" height="32.3"/>
		<rect x="-74.6" y="-102.3" fill="#00CFFF" width="7.9" height="69"/>
		<rect x="-64.7" y="-49.9" fill="#00CFFF" width="7.9" height="16.6"/>
		<rect x="-34.8" y="-87.6" fill="#00CFFF" width="7.9" height="54.3"/>
		<rect x="-24.9" y="-118.6" fill="#00CFFF" width="7.9" height="85.3"/>
		<rect x="-14.9" y="-69.8" fill="#00CFFF" width="7.9" height="36.5"/>
	</g>
	<path fill="#00CFFF" d="M-131-34.2v-4c0.8-0.3,1.3-1.1,1.3-2c0-0.9-0.5-1.7-1.3-2v-3.4c0.8-0.3,1.3-1.1,1.3-2c0-0.9-0.5-1.7-1.3-2
		v-3.4c0.8-0.3,1.3-1.1,1.3-2s-0.5-1.7-1.3-2v-3.4c0.8-0.3,1.3-1.1,1.3-2c0-0.9-0.5-1.7-1.3-2v-3.4c0.8-0.3,1.3-1.1,1.3-2
		c0-0.9-0.5-1.7-1.3-2v-3.4c0.8-0.3,1.3-1.1,1.3-2s-0.5-1.7-1.3-2v-3.4c0.8-0.3,1.3-1.1,1.3-2s-0.5-1.7-1.3-2v-3.4
		c0.8-0.3,1.3-1.1,1.3-2c0-0.9-0.5-1.7-1.3-2v-3.4c0.8-0.3,1.3-1.1,1.3-2s-0.5-1.7-1.3-2v-3.4c0.8-0.3,1.3-1.1,1.3-2
		c0-0.9-0.5-1.7-1.3-2v-3.4c0.8-0.3,1.3-1.1,1.3-2s-0.5-1.7-1.3-2v-3.4c0.8-0.3,1.3-1.1,1.3-2s-0.5-1.7-1.3-2v-2.7h-1.8v2.7
		c-0.8,0.3-1.3,1.1-1.3,2s0.5,1.7,1.3,2v3.4c-0.8,0.3-1.3,1.1-1.3,2s0.5,1.7,1.3,2v3.4c-0.8,0.3-1.3,1.1-1.3,2c0,0.9,0.5,1.7,1.3,2
		v3.4c-0.8,0.3-1.3,1.1-1.3,2s0.5,1.7,1.3,2v3.4c-0.8,0.3-1.3,1.1-1.3,2s0.5,1.7,1.3,2v3.4c-0.8,0.3-1.3,1.1-1.3,2s0.5,1.7,1.3,2
		v3.4c-0.8,0.3-1.3,1.1-1.3,2s0.5,1.7,1.3,2v3.4c-0.8,0.3-1.3,1.1-1.3,2c0,0.9,0.5,1.7,1.3,2v3.4c-0.8,0.3-1.3,1.1-1.3,2
		s0.5,1.7,1.3,2v3.4c-0.8,0.3-1.3,1.1-1.3,2s0.5,1.7,1.3,2v3.4c-0.8,0.3-1.3,1.1-1.3,2s0.5,1.7,1.3,2v3.4c-0.8,0.3-1.3,1.1-1.3,2
		c0,0.9,0.5,1.7,1.3,2v5.8H-7v-1.8H-131z"/>
</g>
<path fill="#FFFFFF" d="M137.6,58.7c-7,0-12.8,5.7-12.8,12.7c0,7,5.7,12.7,12.8,12.7s12.7-5.7,12.7-12.7S144.6,58.7,137.6,58.7z
	 M125.5,83.4c-3.5,0.7-6.2,3.8-6.2,7.6v19.6c0,3.8,2.6,6.9,6.2,7.6h0.4v24.5c0,2.3,1.8,4.1,4.1,4.1h15.3c2.3,0,4.1-1.8,4.1-4.1
	v-24.5h0.3c0,0,0.1,0,0.1,0c3.5-0.7,6.2-3.9,6.2-7.6V91c0-3.8-2.6-6.9-6.2-7.6c-2.8,3.6-7.2,5.9-12.1,5.9c-4.9,0-9.2-2.3-12-5.9
	C125.6,83.4,125.6,83.5,125.5,83.4L125.5,83.4z"/>
<path fill="#FFFFFF" d="M145.3,147.2H130c-2.5,0-4.6-2.1-4.6-4.6v-24c-3.8-0.8-6.5-4.2-6.5-8.1V91c0-4,2.7-7.3,6.6-8.1l0.3-0.1
	l0.1,0.1c0.1,0,0.1,0.1,0.2,0.1l0.1,0.1c2.9,3.6,7.1,5.7,11.6,5.7c4.6,0,8.8-2.1,11.7-5.7l0.2-0.2l0.3,0.1c3.9,0.8,6.6,4.1,6.6,8.1
	v19.6c0,3.9-2.7,7.3-6.5,8.1v24C149.9,145.2,147.8,147.2,145.3,147.2z M125.6,117.7h0.8v25c0,2,1.6,3.6,3.6,3.6h15.3
	c2,0,3.6-1.6,3.6-3.6v-25l0.9,0c3.3-0.7,5.7-3.7,5.7-7.1V91c0-3.4-2.2-6.2-5.5-7c-3,3.7-7.5,5.9-12.3,5.9c-4.7,0-9.1-2.1-12.2-5.9
	c-3.3,0.8-5.6,3.6-5.6,7v19.6C119.9,114,122.3,117,125.6,117.7z M137.6,84.6c-7.3,0-13.3-5.9-13.3-13.2s5.9-13.2,13.3-13.2
	c7.3,0,13.2,5.9,13.2,13.2S144.9,84.6,137.6,84.6z M137.6,59.2c-6.8,0-12.3,5.5-12.3,12.2c0,6.7,5.5,12.2,12.3,12.2
	c6.7,0,12.2-5.5,12.2-12.2C149.8,64.7,144.3,59.2,137.6,59.2z"/>
<g>
	<path fill="#FFFFFF" d="M64.9,58.7c-7,0-12.8,5.7-12.8,12.7c0,7,5.7,12.7,12.8,12.7s12.7-5.7,12.7-12.7S71.9,58.7,64.9,58.7z
		 M52.9,83.4c-3.5,0.7-6.2,3.8-6.2,7.6v19.6c0,3.8,2.6,6.9,6.2,7.6h0.4v24.5c0,2.3,1.8,4.1,4.1,4.1h15.3c2.3,0,4.1-1.8,4.1-4.1
		v-24.5H77c0,0,0.1,0,0.1,0c3.5-0.7,6.2-3.9,6.2-7.6V91c0-3.8-2.6-6.9-6.2-7.6c-2.8,3.6-7.2,5.9-12.1,5.9c-4.9,0-9.2-2.3-12-5.9
		C53,83.4,52.9,83.5,52.9,83.4L52.9,83.4z"/>
	<path fill="#FFFFFF" d="M72.6,147.2H57.3c-2.5,0-4.6-2.1-4.6-4.6v-24c-3.8-0.8-6.5-4.2-6.5-8.1V91c0-4,2.7-7.3,6.6-8.1l0.3-0.1
		l0.1,0.1c0.1,0,0.1,0.1,0.2,0.1l0.1,0.1c2.9,3.6,7.1,5.7,11.6,5.7c4.6,0,8.8-2.1,11.7-5.7l0.2-0.2l0.3,0.1c3.9,0.8,6.6,4.1,6.6,8.1
		v19.6c0,3.9-2.7,7.3-6.5,8.1v24C77.2,145.2,75.1,147.2,72.6,147.2z M52.9,117.7h0.8v25c0,2,1.6,3.6,3.6,3.6h15.3
		c2,0,3.6-1.6,3.6-3.6v-25l0.9,0c3.3-0.7,5.7-3.7,5.7-7.1V91c0-3.4-2.2-6.2-5.5-7c-3,3.7-7.5,5.9-12.3,5.9c-4.7,0-9.1-2.1-12.2-5.9
		c-3.3,0.8-5.6,3.6-5.6,7v19.6C47.2,114,49.6,117,52.9,117.7z M64.9,84.6c-7.3,0-13.3-5.9-13.3-13.2s5.9-13.2,13.3-13.2
		c7.3,0,13.2,5.9,13.2,13.2S72.2,84.6,64.9,84.6z M64.9,59.2c-6.8,0-12.3,5.5-12.3,12.2c0,6.7,5.5,12.2,12.3,12.2
		c6.7,0,12.2-5.5,12.2-12.2C77.1,64.7,71.6,59.2,64.9,59.2z"/>
</g>
<g>
	<path fill="#FFFFFF" d="M101.4,48.7c-8.2,0-14.9,6.6-14.9,14.8s6.7,14.8,14.9,14.8s14.8-6.6,14.8-14.8S109.6,48.7,101.4,48.7z
		 M87.4,77.5c-4.1,0.8-7.2,4.4-7.2,8.8v22.8c0,4.4,3,8,7.2,8.9h0.4v28.6c0,2.6,2.1,4.8,4.8,4.8h17.9c2.6,0,4.8-2.1,4.8-4.8V118h0.3
		c0,0,0.1,0,0.1,0c4.1-0.8,7.2-4.5,7.2-8.9V86.3c0-4.4-3-8-7.2-8.8c-3.3,4.2-8.4,6.9-14.1,6.9c-5.7,0-10.7-2.7-14-6.9
		C87.5,77.5,87.4,77.5,87.4,77.5L87.4,77.5z"/>
	<path fill="#FFFFFF" d="M110.4,151.8H92.6c-2.9,0-5.3-2.4-5.3-5.3l0-28.1c-4.4-0.9-7.6-4.8-7.6-9.4V86.3c0-4.6,3.1-8.4,7.6-9.3
		l0.3-0.1l0.1,0l0.2,0.1c3.4,4.3,8.4,6.8,13.6,6.8c5.4,0,10.4-2.4,13.7-6.7l0.2-0.2l0.3,0.1c4.5,0.9,7.6,4.7,7.6,9.3v22.8
		c0,4.5-3.2,8.5-7.6,9.4l0,0v28.1C115.7,149.5,113.3,151.8,110.4,151.8z M87.4,117.5h0.9v29.1c0,2.3,1.9,4.3,4.3,4.3h17.9
		c2.3,0,4.3-1.9,4.3-4.3v-29.1l0.9,0c3.9-0.8,6.7-4.3,6.7-8.4V86.3c0-4-2.6-7.4-6.5-8.3c-3.5,4.3-8.7,6.8-14.3,6.8
		c-5.5,0-10.7-2.5-14.2-6.9c-3.9,0.9-6.6,4.3-6.6,8.3v22.8C80.7,113.2,83.5,116.7,87.4,117.5z M101.4,78.8
		c-8.5,0-15.4-6.9-15.4-15.3s6.9-15.3,15.4-15.3c8.5,0,15.3,6.9,15.3,15.3S109.8,78.8,101.4,78.8z M101.4,49.2
		c-7.9,0-14.4,6.4-14.4,14.3c0,7.9,6.4,14.3,14.4,14.3c7.9,0,14.3-6.4,14.3-14.3C115.7,55.6,109.3,49.2,101.4,49.2z"/>
</g>
</svg>
