<?xml version="1.0" encoding="utf-8"?>
<!-- Generator: Adobe Illustrator 18.1.0, SVG Export Plug-In . SVG Version: 6.00 Build 0)  -->
<svg version="1.1" id="Layer_1" xmlns="http://www.w3.org/2000/svg" xmlns:xlink="http://www.w3.org/1999/xlink" x="0px" y="0px"
	 viewBox="0 0 400 400" enable-background="new 0 0 400 400" xml:space="preserve">
<path opacity="0.27" fill="none" stroke="#F2F2F2" stroke-width="7" stroke-miterlimit="10" d="M307.6,276.6
	c-5.9,19.9-24.3,34.3-46,34.3H138.7c-26.5,0-48-21.5-48-48V140c0-26.5,21.5-48,48-48h122.9c26.5,0,48,21.5,48,48v104.6
	c0,3.8-4.3,6.1-7.5,4L174.6,163c-2.1-1.6-5.1,0-5.1,2.6v92.2"/>
<g>
	<g>
		<path fill="#3A0156" d="M72.7,234.1v-68.9h22c21.4,0,34.8,15.6,34.8,34.5c0,19.1-13.4,34.4-34.8,34.4H72.7z M123.3,199.7
			c0-16.1-10.3-29.1-28.6-29.1H78.6v58.1h16.1C112.9,228.7,123.3,215.8,123.3,199.7z"/>
	</g>
	<g>
		<path fill="#3A0156" d="M140.1,235v-45.7h5.7V235H140.1z"/>
		<path fill="#3A0156" d="M154.6,212.1c0-14.2,10.5-23.7,23.5-23.7c8.1,0,13.7,3.6,17.8,8.6l-4.5,2.8c-2.9-3.7-7.7-6.3-13.2-6.3
			c-10,0-17.6,7.7-17.6,18.6c0,10.8,7.6,18.7,17.6,18.7c5.5,0,10-2.7,12.3-4.9v-9.3h-15.7v-5.1h21.4V228c-4.3,4.7-10.5,7.9-18,7.9
			C165.1,235.9,154.6,226.3,154.6,212.1z"/>
		<path fill="#3A0156" d="M205.4,235v-45.7h5.7V235H205.4z"/>
		<path fill="#3A0156" d="M233.1,235v-40.7h-14.5v-5.1h34.7v5.1h-14.5V235H233.1z"/>
		<path fill="#3A0156" d="M288.9,235l-4-10.2h-22.8l-4,10.2h-6.5l18.4-45.7h7.1l18.4,45.7H288.9z M273.5,195.1l-9.7,24.6h19.4
			L273.5,195.1z"/>
		<path fill="#3A0156" d="M301.4,235v-45.7h5.7v40.7h21.3v5.1H301.4z"/>
	</g>
</g>
</svg>
