<?xml version="1.0" encoding="utf-8"?>
<!-- Generator: Adobe Illustrator 18.1.0, SVG Export Plug-In . SVG Version: 6.00 Build 0)  -->
<svg version="1.1" id="Layer_1" xmlns="http://www.w3.org/2000/svg" xmlns:xlink="http://www.w3.org/1999/xlink" x="0px" y="0px"
	 viewBox="0 0 430 250" enable-background="new 0 0 430 250" xml:space="preserve">
<line fill="none" stroke="#D1D1D1" stroke-miterlimit="10" x1="30.3" y1="248" x2="426" y2="248"/>
<line fill="none" stroke="#EDEDED" stroke-miterlimit="10" x1="30.3" y1="221.7" x2="426" y2="221.7"/>
<line fill="none" stroke="#EDEDED" stroke-miterlimit="10" x1="30.3" y1="194.1" x2="426" y2="194.1"/>
<line fill="none" stroke="#EDEDED" stroke-miterlimit="10" x1="30.3" y1="167.9" x2="426" y2="167.9"/>
<line fill="none" stroke="#EDEDED" stroke-miterlimit="10" x1="30.3" y1="140.3" x2="426" y2="140.3"/>
<line fill="none" stroke="#EDEDED" stroke-miterlimit="10" x1="30.3" y1="112.8" x2="426" y2="112.8"/>
<line fill="none" stroke="#EDEDED" stroke-miterlimit="10" x1="30.3" y1="86.5" x2="426" y2="86.5"/>
<line fill="none" stroke="#EDEDED" stroke-miterlimit="10" x1="30.3" y1="60.2" x2="426" y2="60.2"/>
<line fill="none" stroke="#EDEDED" stroke-miterlimit="10" x1="30.3" y1="32.6" x2="426" y2="32.6"/>
<line fill="none" stroke="#EDEDED" stroke-miterlimit="10" x1="30.3" y1="6.3" x2="426" y2="6.3"/>


<rect class="animated bounceMouse" id="rect_1" x="78.1" y="167.2" fill="#FBB73F" width="47.6" height="80.4"/>
<rect id="rect_1_1_" x="165.2" y="113.6" fill="#063E58" width="47.6" height="133.9"/>
<rect id="rect_1_2_" x="252.2" y="87" fill="#48A9D6" width="47.6" height="160.7"/>
<rect id="rect_1_3_" x="339.2" y="6.6" fill="#F76449" width="47.6" height="241"/>



<text transform="matrix(1 0 0 1 4.7021 225.6641)" fill="#B3B3B3" font-family="'Roboto-Thin'" font-size="13.8591">01</text>
<text transform="matrix(1 0 0 1 4.7021 199.2139)" fill="#B3B3B3" font-family="'Roboto-Thin'" font-size="13.8591">02</text>
<text transform="matrix(1 0 0 1 4.7021 172.7646)" fill="#B3B3B3" font-family="'Roboto-Thin'" font-size="13.8591">03</text>
<text transform="matrix(1 0 0 1 4.7021 145.3257)" fill="#B3B3B3" font-family="'Roboto-Thin'" font-size="13.8591">04</text>
<text transform="matrix(1 0 0 1 4.7021 118.3794)" fill="#B3B3B3" font-family="'Roboto-Thin'" font-size="13.8591">05</text>
<text transform="matrix(1 0 0 1 4.7021 91.4346)" fill="#B3B3B3" font-family="'Roboto-Thin'" font-size="13.8591">06</text>
<text transform="matrix(1 0 0 1 4.7021 64.9849)" fill="#B3B3B3" font-family="'Roboto-Thin'" font-size="13.8591">07</text>
<text transform="matrix(1 0 0 1 4.7021 38.0405)" fill="#B3B3B3" font-family="'Roboto-Thin'" font-size="13.8591">08</text>
<text transform="matrix(1 0 0 1 4.7021 13.0781)" fill="#B3B3B3" font-family="'Roboto-Thin'" font-size="13.8591">09</text>
</svg>
