
<svg version="1.1" id="Layer_1" xmlns="http://www.w3.org/2000/svg" xmlns:xlink="http://www.w3.org/1999/xlink" x="0px" y="0px"
	 viewBox="0 0 77 77" style="enable-background:new 0 0 77 77;" xml:space="preserve">
<g>
	<g>
		<path style="fill:#FFFFFF;" d="M38.7,77C17.6,77,0.4,59.8,0.4,38.6c0-21.2,17.2-38.4,38.4-38.4c21.2,0,38.4,17.2,38.4,38.4
			C77.1,59.8,59.9,77,38.7,77z M38.7,2.3C18.7,2.3,2.4,18.6,2.4,38.6S18.7,75,38.7,75s36.4-16.3,36.4-36.4S58.8,2.3,38.7,2.3z"/>
	</g>
	<g>
		<path style="fill:#FFFFFF;" d="M39.8,44.3c0-0.9-0.7-1.6-1.6-1.6c-0.9,0-1.6,0.7-1.6,1.6c0,0.5,0.2,0.9,0.6,1.2v2.6h2v-2.6
			C39.6,45.3,39.8,44.8,39.8,44.3z"/>
		<path style="fill:#FFFFFF;" d="M48.9,32.4H30.4v-7.2c0-3,3.6-5.4,8.1-5.4s8.1,2.4,8.1,5.4v2.7h2v-2.7c0-4.1-4.5-7.4-10.1-7.4
			s-10.1,3.3-10.1,7.4v7.2h-0.8c-3.1,0-5.6,2.5-5.6,5.6v14.3c0,3.1,2.5,5.6,5.6,5.6h21.3c3.1,0,5.6-2.5,5.6-5.6V38.1
			C54.5,35,52,32.4,48.9,32.4z M52.5,52.4c0,2-1.6,3.6-3.6,3.6H27.6c-2,0-3.6-1.6-3.6-3.6V38.1c0-2,1.6-3.6,3.6-3.6h21.3
			c2,0,3.6,1.6,3.6,3.6V52.4z"/>
	</g>
</g>
</svg>
