<?xml version="1.0" encoding="utf-8"?>
<!-- Generator: Adobe Illustrator 18.1.0, SVG Export Plug-In . SVG Version: 6.00 Build 0)  -->
<svg version="1.1" id="Layer_1" xmlns="http://www.w3.org/2000/svg" xmlns:xlink="http://www.w3.org/1999/xlink" x="0px" y="0px"
	 viewBox="0 0 200 200" enable-background="new 0 0 200 200" xml:space="preserve">
<g>
	<path fill="#FFFFFF" d="M27.2,93.6V80h1.3l8,11.4h0.1V80h1.3v13.6h-1.2l-8-11.4h-0.1v11.4H27.2z"/>
	<path fill="#FFFFFF" d="M48.6,93.6h-8.2V80h8.2v1.2h-6.9V86h6.6v1.2h-6.6v5.2h6.9V93.6z"/>
	<path fill="#FFFFFF" d="M54.4,93.6V81.1h-4.6V80h10.4v1.2h-4.6v12.5H54.4z"/>
	<path fill="#FFFFFF" d="M72.8,86.8c0,4.3-2.4,7-6.2,7c-3.8,0-6.2-2.7-6.2-7c0-4.3,2.4-7,6.2-7C70.5,79.7,72.8,82.5,72.8,86.8z
		 M61.8,86.8c0,3.6,1.9,5.8,4.9,5.8c3,0,4.9-2.3,4.9-5.8c0-3.6-1.9-5.8-4.9-5.8C63.7,80.9,61.8,83.2,61.8,86.8z"/>
	<path fill="#FFFFFF" d="M79.7,80c2.6,0,4.4,1.7,4.4,4.2c0,2.5-1.8,4.2-4.4,4.2h-3.5v5.1h-1.3V80H79.7z M76.1,87.3h3.2
		c2.1,0,3.4-1.2,3.4-3.1c0-1.9-1.2-3.1-3.4-3.1h-3.2V87.3z"/>
	<path fill="#FFFFFF" d="M92.2,89.4h-5.7L85,93.6h-1.4L88.7,80H90l5.1,13.6h-1.4L92.2,89.4z M86.9,88.3h4.9l-2.4-6.7h-0.1L86.9,88.3
		z"/>
	<path fill="#FFFFFF" d="M98.6,93.6v-5.9L93.7,80h1.5l4,6.5h0l4-6.5h1.5l-4.9,7.7v5.9H98.6z"/>
	<path fill="#FFFFFF" d="M110,86.7c0-4.3,2.4-7,6.1-7c2.9,0,5.2,1.9,5.5,4.5h-1.3c-0.4-2-2.1-3.3-4.2-3.3c-2.9,0-4.7,2.3-4.7,5.8
		c0,3.6,1.9,5.9,4.8,5.9c2.2,0,3.8-1.2,4.2-3h1.3c-0.5,2.7-2.6,4.2-5.5,4.2C112.4,93.8,110,91,110,86.7z"/>
	<path fill="#FFFFFF" d="M124.8,93.6h-1.3V80h4.9c2.7,0,4.4,1.6,4.4,4c0,1.9-1.1,3.4-2.9,3.9l3.3,5.8h-1.5l-3.1-5.6
		c-0.1,0-0.1,0-0.2,0h-3.5V93.6z M124.8,86.9h3.5c2,0,3.1-1.1,3.1-2.9c0-1.8-1.2-2.9-3.2-2.9h-3.4V86.9z"/>
	<path fill="#FFFFFF" d="M143.1,93.6h-8.2V80h8.2v1.2h-6.9V86h6.6v1.2h-6.6v5.2h6.9V93.6z"/>
	<path fill="#FFFFFF" d="M149.8,80c4.1,0,6.5,2.5,6.5,6.8c0,4.3-2.4,6.8-6.5,6.8h-4.5V80H149.8z M146.6,92.4h3.1
		c3.4,0,5.2-2,5.2-5.6c0-3.6-1.9-5.6-5.2-5.6h-3.1V92.4z"/>
	<path fill="#FFFFFF" d="M158.2,93.6V80h1.3v13.6H158.2z"/>
	<path fill="#FFFFFF" d="M165.7,93.6V81.1h-4.6V80h10.4v1.2H167v12.5H165.7z"/>
</g>
<g>
	<path fill="#FFFFFF" d="M1.6,115.5c0-2.3,1.3-3.7,3.2-3.7c1.5,0,2.7,1,2.9,2.3H7.1c-0.2-1-1.1-1.7-2.2-1.7c-1.5,0-2.5,1.2-2.5,3.1
		c0,1.9,1,3.1,2.5,3.1c1.1,0,2-0.6,2.2-1.5h0.7c-0.3,1.4-1.4,2.2-2.9,2.2C2.9,119.3,1.6,117.8,1.6,115.5z"/>
	<path fill="#FFFFFF" d="M13.2,117.6c-0.2,0.9-1,1.6-2.2,1.6c-1.5,0-2.4-1-2.4-2.8c0-1.7,1-2.8,2.4-2.8c1.4,0,2.3,1,2.3,2.6v0.3H9.3
		v0c0,1.2,0.7,2,1.8,2c0.8,0,1.4-0.4,1.6-1H13.2z M9.3,116.1h3.4c0-1.1-0.7-1.8-1.7-1.8C10,114.3,9.3,115,9.3,116.1z"/>
	<path fill="#FFFFFF" d="M19.2,116.5c0,1.7-0.9,2.8-2.3,2.8c-0.9,0-1.5-0.5-1.8-1.2h0v2.9h-0.7v-7.2H15v1.1h0c0.3-0.7,1-1.2,1.9-1.2
		C18.2,113.7,19.2,114.8,19.2,116.5z M18.5,116.5c0-1.3-0.7-2.2-1.7-2.2c-1,0-1.7,0.9-1.7,2.2c0,1.3,0.7,2.2,1.7,2.2
		C17.8,118.6,18.5,117.8,18.5,116.5z"/>
	<path fill="#FFFFFF" d="M20.2,113.8h2.2c1,0,1.6,0.5,1.6,1.4c0,0.6-0.4,1.1-0.9,1.2v0c0.7,0.1,1.2,0.6,1.2,1.3c0,1-0.7,1.5-1.9,1.5
		h-2.2V113.8z M20.8,114.3v1.8h1.4c0.7,0,1.1-0.3,1.1-0.9c0-0.5-0.4-0.9-1-0.9H20.8z M20.8,116.7v2h1.5c0.8,0,1.2-0.3,1.2-1
		c0-0.7-0.5-1-1.4-1H20.8z"/>
	<path fill="#FFFFFF" d="M25.3,119.2v-5.4h0.7v4.4h0l3.1-4.4h0.7v5.4H29v-4.4h0l-3.1,4.4H25.3z"/>
	<path fill="#FFFFFF" d="M34.7,115.4c-0.2-0.6-0.7-1.1-1.5-1.1c-1.1,0-1.8,0.9-1.8,2.2c0,1.3,0.7,2.2,1.8,2.2c0.8,0,1.3-0.4,1.5-1
		h0.7c-0.2,1-1,1.6-2.2,1.6c-1.5,0-2.4-1.1-2.4-2.8c0-1.7,1-2.8,2.4-2.8c1.2,0,2,0.7,2.2,1.7H34.7z"/>
	<path fill="#FFFFFF" d="M38.6,119.2v-5.4h0.8l2.1,4.5h0l2.1-4.5h0.8v5.4h-0.7V115h0l-2,4.1h-0.5l-2-4.1h0v4.2H38.6z"/>
	<path fill="#FFFFFF" d="M50.1,117.6c-0.2,0.9-1,1.6-2.2,1.6c-1.5,0-2.4-1-2.4-2.8c0-1.7,1-2.8,2.4-2.8c1.4,0,2.3,1,2.3,2.6v0.3
		h-4.1v0c0,1.2,0.7,2,1.8,2c0.8,0,1.4-0.4,1.6-1H50.1z M46.1,116.1h3.4c0-1.1-0.7-1.8-1.7-1.8C46.9,114.3,46.2,115,46.1,116.1z"/>
	<path fill="#FFFFFF" d="M57.9,119.2h-0.9l-2.4-2.6h0v2.6H54v-2.6h0l-2.4,2.6h-0.9l2.6-2.8l-2.5-2.6h0.8l2.4,2.4h0v-2.4h0.7v2.4h0
		l2.4-2.4h0.8l-2.5,2.6L57.9,119.2z"/>
	<path fill="#FFFFFF" d="M58.2,120.6v-2h0.4c0.4-0.3,0.6-1,0.7-1.8c0-0.3,0.2-2.8,0.2-3.1h3.6v4.8H64v2h-0.6v-1.4h-4.5v1.4H58.2z
		 M62.4,114.3h-2.3c0,0.3-0.2,2.2-0.2,2.5c-0.1,0.7-0.2,1.4-0.5,1.7v0h3V114.3z"/>
	<path fill="#FFFFFF" d="M64.9,121v-0.6c0.1,0,0.2,0,0.3,0c0.5,0,0.8-0.3,1-0.9l0.1-0.3l-2-5.4H65l1.7,4.7h0l1.7-4.7H69l-2.1,5.7
		c-0.5,1.3-0.8,1.6-1.7,1.6C65.1,121.1,64.9,121,64.9,121z"/>
	<path fill="#FFFFFF" d="M73.5,116.6h-3v2.5h-0.7v-5.4h0.7v2.3h3v-2.3h0.7v5.4h-0.7V116.6z"/>
	<path fill="#FFFFFF" d="M75.2,117.7c0-0.9,0.7-1.5,2-1.6l1.7-0.1v-0.5c0-0.8-0.5-1.2-1.4-1.2c-0.8,0-1.3,0.4-1.4,1h-0.6
		c0.1-0.9,0.9-1.6,2-1.6c1.2,0,2,0.7,2,1.8v3.7h-0.6v-1h0c-0.3,0.7-1,1.1-1.9,1.1C76,119.2,75.2,118.6,75.2,117.7z M78.9,117.1v-0.6
		l-1.6,0.1c-0.9,0.1-1.4,0.4-1.4,1c0,0.6,0.5,1,1.3,1C78.2,118.7,78.9,118,78.9,117.1z"/>
	<path fill="#FFFFFF" d="M85.6,116.5c0,1.7-0.9,2.8-2.3,2.8c-0.9,0-1.5-0.5-1.8-1.2h0v2.9h-0.7v-7.2h0.6v1.1h0
		c0.3-0.7,1-1.2,1.9-1.2C84.7,113.7,85.6,114.8,85.6,116.5z M84.9,116.5c0-1.3-0.7-2.2-1.7-2.2c-1,0-1.7,0.9-1.7,2.2
		c0,1.3,0.7,2.2,1.7,2.2C84.2,118.6,84.9,117.8,84.9,116.5z"/>
	<path fill="#FFFFFF" d="M86.4,116.5c0-1.7,1-2.8,2.5-2.8c1.5,0,2.5,1.1,2.5,2.8s-1,2.8-2.5,2.8C87.3,119.2,86.4,118.2,86.4,116.5z
		 M90.6,116.5c0-1.4-0.7-2.2-1.8-2.2c-1.1,0-1.8,0.8-1.8,2.2c0,1.4,0.7,2.2,1.8,2.2C89.9,118.6,90.6,117.8,90.6,116.5z"/>
	<path fill="#FFFFFF" d="M91.7,120.6v-2h0.4c0.4-0.3,0.6-1,0.7-1.8c0-0.3,0.2-2.8,0.2-3.1h3.6v4.8h0.9v2h-0.6v-1.4h-4.5v1.4H91.7z
		 M96,114.3h-2.3c0,0.3-0.2,2.2-0.2,2.5c-0.1,0.7-0.2,1.4-0.5,1.7v0h3V114.3z"/>
	<path fill="#FFFFFF" d="M102,116.6h-3v2.5h-0.7v-5.4H99v2.3h3v-2.3h0.7v5.4H102V116.6z"/>
	<path fill="#FFFFFF" d="M103.7,116.5c0-1.7,1-2.8,2.5-2.8c1.5,0,2.5,1.1,2.5,2.8s-1,2.8-2.5,2.8
		C104.7,119.2,103.7,118.2,103.7,116.5z M107.9,116.5c0-1.4-0.7-2.2-1.8-2.2c-1.1,0-1.8,0.8-1.8,2.2c0,1.4,0.7,2.2,1.8,2.2
		C107.3,118.6,107.9,117.8,107.9,116.5z"/>
	<path fill="#FFFFFF" d="M110.3,114.3v4.8h-0.7v-5.4h3.4v0.6H110.3z"/>
	<path fill="#FFFFFF" d="M113.5,116.5c0-1.7,1-2.8,2.5-2.8c1.5,0,2.5,1.1,2.5,2.8s-1,2.8-2.5,2.8
		C114.5,119.2,113.5,118.2,113.5,116.5z M117.7,116.5c0-1.4-0.7-2.2-1.8-2.2c-1.1,0-1.8,0.8-1.8,2.2c0,1.4,0.7,2.2,1.8,2.2
		C117.1,118.6,117.7,117.8,117.7,116.5z"/>
	<path fill="#FFFFFF" d="M121.7,113.8h2.2c1,0,1.6,0.5,1.6,1.4c0,0.6-0.4,1.1-0.9,1.2v0c0.7,0.1,1.2,0.6,1.2,1.3
		c0,1-0.7,1.5-1.9,1.5h-2.2V113.8z M122.4,114.3v1.8h1.3c0.7,0,1.2-0.3,1.2-0.9c0-0.5-0.4-0.9-1-0.9H122.4z M122.4,116.7v2h1.5
		c0.8,0,1.2-0.3,1.2-1c0-0.7-0.5-1-1.4-1H122.4z"/>
	<path fill="#FFFFFF" d="M126.5,117.8h0.7c0.1,0.5,0.6,0.9,1.4,0.9c0.9,0,1.4-0.4,1.4-1c0-0.7-0.5-1-1.4-1h-0.8v-0.6h0.8
		c0.8,0,1.2-0.3,1.2-0.9c0-0.5-0.4-0.9-1.2-0.9c-0.8,0-1.3,0.4-1.4,0.9h-0.6c0.1-0.9,0.9-1.5,2-1.5c1.2,0,1.8,0.6,1.8,1.4
		c0,0.6-0.4,1.1-1,1.2v0c0.7,0.1,1.2,0.6,1.2,1.3c0,1-0.8,1.6-2,1.6C127.4,119.3,126.6,118.7,126.5,117.8z"/>
	<path fill="#FFFFFF" d="M131.4,117.7c0-0.9,0.7-1.5,2-1.6l1.7-0.1v-0.5c0-0.8-0.5-1.2-1.4-1.2c-0.8,0-1.3,0.4-1.4,1h-0.6
		c0.1-0.9,0.9-1.6,2-1.6c1.2,0,2,0.7,2,1.8v3.7h-0.6v-1h0c-0.3,0.7-1,1.1-1.9,1.1C132.2,119.2,131.4,118.6,131.4,117.7z
		 M135.1,117.1v-0.6l-1.6,0.1c-0.9,0.1-1.4,0.4-1.4,1c0,0.6,0.5,1,1.3,1C134.3,118.7,135.1,118,135.1,117.1z"/>
	<path fill="#FFFFFF" d="M137,119.2v-5.4h0.7v4.4h0l3.1-4.4h0.7v5.4h-0.7v-4.4h0l-3.1,4.4H137z"/>
	<path fill="#FFFFFF" d="M142.7,119.2v-5.4h0.8l2.1,4.5h0l2.1-4.5h0.8v5.4h-0.7V115h0l-2,4.1h-0.5l-2-4.1h0v4.2H142.7z"/>
	<path fill="#FFFFFF" d="M149.5,116.5c0-1.7,1-2.8,2.5-2.8c1.5,0,2.5,1.1,2.5,2.8s-1,2.8-2.5,2.8
		C150.5,119.2,149.5,118.2,149.5,116.5z M153.8,116.5c0-1.4-0.7-2.2-1.8-2.2c-1.1,0-1.8,0.8-1.8,2.2c0,1.4,0.7,2.2,1.8,2.2
		C153.1,118.6,153.8,117.8,153.8,116.5z"/>
	<path fill="#FFFFFF" d="M154.9,120.6v-2h0.4c0.4-0.3,0.6-1,0.7-1.8c0-0.3,0.2-2.8,0.2-3.1h3.6v4.8h0.9v2h-0.6v-1.4h-4.5v1.4H154.9z
		 M159.2,114.3h-2.3c0,0.3-0.2,2.2-0.2,2.5c-0.1,0.7-0.2,1.4-0.5,1.7v0h3V114.3z"/>
	<path fill="#FFFFFF" d="M165.9,117.6c-0.2,0.9-1,1.6-2.2,1.6c-1.5,0-2.4-1-2.4-2.8c0-1.7,1-2.8,2.4-2.8c1.4,0,2.3,1,2.3,2.6v0.3
		h-4.1v0c0,1.2,0.7,2,1.8,2c0.8,0,1.4-0.4,1.6-1H165.9z M161.9,116.1h3.4c0-1.1-0.7-1.8-1.7-1.8C162.7,114.3,162,115,161.9,116.1z"
		/>
	<path fill="#FFFFFF" d="M167,119.2v-5.4h0.7v4.4h0l3.1-4.4h0.7v5.4h-0.7v-4.4h0l-3.1,4.4H167z M168.3,111.5c0,0.6,0.4,1,1,1
		c0.6,0,1-0.4,1-1h0.5c0,0.9-0.6,1.4-1.5,1.4c-0.9,0-1.5-0.6-1.5-1.4H168.3z"/>
	<path fill="#FFFFFF" d="M176.4,115.4c-0.2-0.6-0.7-1.1-1.5-1.1c-1.1,0-1.8,0.9-1.8,2.2c0,1.3,0.7,2.2,1.8,2.2c0.8,0,1.3-0.4,1.5-1
		h0.7c-0.2,1-1,1.6-2.2,1.6c-1.5,0-2.4-1.1-2.4-2.8c0-1.7,1-2.8,2.4-2.8c1.2,0,2,0.7,2.2,1.7H176.4z"/>
	<path fill="#FFFFFF" d="M181.8,114.3H180v4.8h-0.7v-4.8h-1.8v-0.6h4.4V114.3z"/>
	<path fill="#FFFFFF" d="M182.7,113.8h2.2c1,0,1.6,0.5,1.6,1.4c0,0.6-0.4,1.1-0.9,1.2v0c0.7,0.1,1.2,0.6,1.2,1.3
		c0,1-0.7,1.5-1.9,1.5h-2.2V113.8z M183.3,114.3v1.8h1.3c0.7,0,1.2-0.3,1.2-0.9c0-0.5-0.4-0.9-1-0.9H183.3z M183.3,116.7v2h1.5
		c0.8,0,1.2-0.3,1.2-1c0-0.7-0.5-1-1.4-1H183.3z"/>
	<path fill="#FFFFFF" d="M187.8,119.2v-5.4h0.7v4.4h0l3.1-4.4h0.7v5.4h-0.7v-4.4h0l-3.1,4.4H187.8z"/>
	<path fill="#FFFFFF" d="M196.5,117.1h-1.1l-1.5,2h-0.8l1.6-2.2c-0.8-0.2-1.4-0.7-1.4-1.5c0-1.1,0.8-1.7,2-1.7h1.9v5.4h-0.7V117.1z
		 M196.5,116.6v-2.2h-1.2c-0.8,0-1.3,0.4-1.3,1.1c0,0.7,0.5,1.1,1.3,1.1H196.5z"/>
	<path fill="#FFFFFF" d="M39.2,128.4c0-3.1,0.7-4.4,2.8-4.4c0.1,0,0.5,0,0.6,0c0.4,0,0.9-0.1,1.2-0.2v0.6c-0.2,0.1-0.6,0.2-1.1,0.3
		c-0.1,0-0.5,0-0.6,0c-1.6,0-2.1,0.8-2.3,2.7h0c0.3-0.7,1.1-1.1,2-1.1c1.5,0,2.4,1,2.4,2.7c0,1.7-1,2.8-2.5,2.8
		C40.1,131.6,39.2,130.5,39.2,128.4z M43.5,128.8c0-1.3-0.7-2.1-1.8-2.1s-1.8,0.8-1.8,2.1c0,1.4,0.7,2.2,1.8,2.2
		S43.5,130.2,43.5,128.8z"/>
	<path fill="#FFFFFF" d="M45.2,131.5v-5.4h0.7v4.4h0l3.1-4.4h0.7v5.4H49v-4.4h0l-3.1,4.4H45.2z"/>
	<path fill="#FFFFFF" d="M55.7,128.8c0,1.7-0.9,2.8-2.3,2.8c-0.9,0-1.5-0.5-1.8-1.2h0v2.9h-0.7v-7.2h0.6v1.1h0
		c0.3-0.7,1-1.2,1.9-1.2C54.8,126,55.7,127.2,55.7,128.8z M55,128.8c0-1.3-0.7-2.2-1.7-2.2c-1,0-1.7,0.9-1.7,2.2
		c0,1.3,0.7,2.2,1.7,2.2C54.4,131,55,130.1,55,128.8z"/>
	<path fill="#FFFFFF" d="M63.4,131.5h-0.9l-2.4-2.6h0v2.6h-0.7v-2.6h0l-2.4,2.6h-0.9l2.6-2.8l-2.5-2.6H57l2.4,2.4h0v-2.4H60v2.4h0
		l2.4-2.4h0.8l-2.5,2.6L63.4,131.5z"/>
	<path fill="#FFFFFF" d="M66.4,131.5v-5.4h0.8l2.1,4.5h0l2.1-4.5h0.8v5.4h-0.7v-4.2h0l-2,4.1h-0.5l-2-4.1h0v4.2H66.4z"/>
	<path fill="#FFFFFF" d="M73.6,131.5v-5.4h0.7v4.4h0l3.1-4.4H78v5.4h-0.7v-4.4h0l-3.1,4.4H73.6z"/>
	<path fill="#FFFFFF" d="M83.5,131.5h-0.9l-2.7-2.6h0v2.6h-0.7v-5.4h0.7v2.4h0l2.6-2.4h0.8l-2.8,2.6L83.5,131.5z"/>
	<path fill="#FFFFFF" d="M89.1,128.8c0,1.7-0.9,2.8-2.3,2.8c-0.9,0-1.5-0.5-1.8-1.2h0v2.9h-0.7v-7.2h0.6v1.1h0
		c0.3-0.7,1-1.2,1.9-1.2C88.1,126,89.1,127.2,89.1,128.8z M88.4,128.8c0-1.3-0.7-2.2-1.7-2.2c-1,0-1.7,0.9-1.7,2.2
		c0,1.3,0.7,2.2,1.7,2.2C87.7,131,88.4,130.1,88.4,128.8z"/>
	<path fill="#FFFFFF" d="M89.8,128.8c0-1.7,1-2.8,2.5-2.8c1.5,0,2.5,1.1,2.5,2.8s-1,2.8-2.5,2.8C90.8,131.6,89.8,130.5,89.8,128.8z
		 M94.1,128.8c0-1.4-0.7-2.2-1.8-2.2c-1.1,0-1.8,0.8-1.8,2.2c0,1.4,0.7,2.2,1.8,2.2C93.4,131,94.1,130.2,94.1,128.8z"/>
	<path fill="#FFFFFF" d="M100,131.5h-0.9l-2.7-2.6h0v2.6h-0.7v-5.4h0.7v2.4h0l2.6-2.4h0.8l-2.8,2.6L100,131.5z"/>
	<path fill="#FFFFFF" d="M105.6,128.8c0,1.7-0.9,2.8-2.3,2.8c-0.9,0-1.5-0.5-1.8-1.2h0v2.9h-0.7v-7.2h0.6v1.1h0
		c0.3-0.7,1-1.2,1.9-1.2C104.6,126,105.6,127.2,105.6,128.8z M104.9,128.8c0-1.3-0.7-2.2-1.7-2.2c-1,0-1.7,0.9-1.7,2.2
		c0,1.3,0.7,2.2,1.7,2.2C104.2,131,104.9,130.1,104.9,128.8z"/>
	<path fill="#FFFFFF" d="M111,130c-0.2,0.9-1,1.6-2.2,1.6c-1.5,0-2.4-1-2.4-2.8c0-1.7,1-2.8,2.4-2.8c1.4,0,2.3,1,2.3,2.6v0.3H107v0
		c0,1.2,0.7,2,1.8,2c0.8,0,1.4-0.4,1.6-1H111z M107,128.4h3.4c0-1.1-0.7-1.8-1.7-1.8C107.7,126.6,107.1,127.4,107,128.4z"/>
	<path fill="#FFFFFF" d="M111.5,132.9v-2h0.4c0.4-0.3,0.6-1,0.7-1.8c0-0.3,0.2-2.8,0.2-3.1h3.6v4.8h0.9v2h-0.6v-1.4h-4.5v1.4H111.5z
		 M115.8,126.7h-2.3c0,0.3-0.2,2.2-0.2,2.5c-0.1,0.7-0.2,1.4-0.5,1.7v0h3V126.7z"/>
	<path fill="#FFFFFF" d="M118.1,131.5v-5.4h0.7v4.4h0l3.1-4.4h0.7v5.4h-0.7v-4.4h0l-3.1,4.4H118.1z"/>
	<path fill="#FFFFFF" d="M127.7,126.7h-1.8v4.8h-0.7v-4.8h-1.8v-0.6h4.4V126.7z"/>
	<path fill="#FFFFFF" d="M128.1,128.8c0-1.7,1-2.8,2.5-2.8c1.5,0,2.5,1.1,2.5,2.8s-1,2.8-2.5,2.8
		C129.1,131.6,128.1,130.5,128.1,128.8z M132.4,128.8c0-1.4-0.7-2.2-1.8-2.2c-1.1,0-1.8,0.8-1.8,2.2c0,1.4,0.7,2.2,1.8,2.2
		C131.7,131,132.4,130.2,132.4,128.8z"/>
	<path fill="#FFFFFF" d="M134.1,126.1h2.2c1,0,1.6,0.5,1.6,1.4c0,0.6-0.4,1.1-0.9,1.2v0c0.7,0.1,1.2,0.6,1.2,1.3
		c0,1-0.7,1.5-1.9,1.5h-2.2V126.1z M134.7,126.7v1.8h1.3c0.7,0,1.2-0.3,1.2-0.9c0-0.5-0.4-0.9-1-0.9H134.7z M134.7,129v2h1.5
		c0.8,0,1.2-0.3,1.2-1c0-0.7-0.5-1-1.4-1H134.7z"/>
	<path fill="#FFFFFF" d="M139,130c0-0.9,0.7-1.5,2-1.6l1.7-0.1v-0.5c0-0.8-0.5-1.2-1.4-1.2c-0.8,0-1.3,0.4-1.4,1h-0.6
		c0.1-0.9,0.9-1.6,2-1.6c1.2,0,2,0.7,2,1.8v3.7h-0.6v-1h0c-0.3,0.7-1,1.1-1.9,1.1C139.7,131.6,139,130.9,139,130z M142.6,129.5v-0.6
		L141,129c-0.9,0.1-1.4,0.4-1.4,1c0,0.6,0.5,1,1.3,1C141.9,131,142.6,130.3,142.6,129.5z"/>
	<path fill="#FFFFFF" d="M148.2,129h-3v2.5h-0.7v-5.4h0.7v2.3h3v-2.3h0.7v5.4h-0.7V129z"/>
	<path fill="#FFFFFF" d="M150.1,131.5v-5.4h0.7v4.4h0l3.1-4.4h0.7v5.4h-0.7v-4.4h0l-3.1,4.4H150.1z"/>
	<path fill="#FFFFFF" d="M158.9,129.5h-1.1l-1.5,2h-0.8l1.6-2.2c-0.8-0.2-1.4-0.7-1.4-1.5c0-1.1,0.8-1.7,2-1.7h1.9v5.4h-0.7V129.5z
		 M158.9,128.9v-2.2h-1.2c-0.8,0-1.3,0.4-1.3,1.1c0,0.7,0.5,1.1,1.3,1.1H158.9z"/>
</g>
</svg>
