<?xml version="1.0" encoding="utf-8"?>
<!-- Generator: Adobe Illustrator 18.1.0, SVG Export Plug-In . SVG Version: 6.00 Build 0)  -->
<svg version="1.1" id="Layer_1" xmlns="http://www.w3.org/2000/svg" xmlns:xlink="http://www.w3.org/1999/xlink" x="0px" y="0px"
	 viewBox="0 0 850 180" enable-background="new 0 0 850 180" xml:space="preserve">
<g>
	<path fill="#B3B3B3" d="M126,170.1H42.3C20.6,170.1,3,152.4,3,130.7V47.5C3,25.8,20.6,8.2,42.3,8.2H126c21.7,0,39.3,17.6,39.3,39.3
		v71.1c0,3.6-1.8,6.8-4.9,8.5c-3,1.7-6.9,1.6-9.9-0.2l-0.3-0.2L70,73v54.6H57V65.1c0-3.2,1.8-6.1,4.6-7.6c2.9-1.6,6.4-1.4,9.1,0.4
		l81.7,54.6V47.5c0-14.5-11.8-26.3-26.3-26.3H42.3C27.8,21.2,16,33,16,47.5v83.2c0,14.5,11.8,26.3,26.3,26.3H126
		c11.6,0,22-7.7,25.3-18.8l12.5,3.7C158.8,158.6,143.3,170.1,126,170.1z"/>
</g>
<g>
	<path fill="#B3B3B3" d="M330.7,10.3h4.9l16.2,20.9V10.3h5.2v30.2h-4.4L335.9,19v21.5h-5.2V10.3z"/>
	<path fill="#B3B3B3" d="M364.7,10.3h22.4V15H370v7.8h15.1v4.7H370v8.1h17.3v4.7h-22.6V10.3z"/>
	<path fill="#B3B3B3" d="M401,15.2h-9.6v-4.9h24.5v4.9h-9.6v25.2H401V15.2z"/>
	<path fill="#B3B3B3" d="M418.5,25.3c0-8.5,6.5-15.6,15.8-15.6s15.7,7,15.7,15.6c0,8.5-6.5,15.6-15.8,15.6
		C425,40.9,418.5,33.9,418.5,25.3z M444.5,25.3c0-5.9-4.3-10.7-10.3-10.7c-6,0-10.2,4.8-10.2,10.7c0,5.9,4.3,10.7,10.3,10.7
		C440.3,36.1,444.5,31.3,444.5,25.3z"/>
	<path fill="#B3B3B3" d="M456.5,10.3h11.9c7,0,11.5,4,11.5,10.2c0,6.8-5.4,10.3-12.1,10.3h-6v9.7h-5.3V10.3z M467.9,25.9
		c4,0,6.5-2.2,6.5-5.5c0-3.5-2.5-5.4-6.5-5.4h-6.2v10.9H467.9z"/>
	<path fill="#B3B3B3" d="M492.9,10h4.9l13.3,30.4h-5.6l-3.1-7.3h-14.3l-3.1,7.3h-5.4L492.9,10z M500.5,28.4l-5.2-12.1l-5.2,12.1
		H500.5z"/>
	<path fill="#B3B3B3" d="M520.4,28.5l-12-18.3h6.2l8.4,13.4l8.5-13.4h6.1l-12,18.1v12h-5.3V28.5z"/>
</g>
<g>
	<path fill="#1892D9" d="M239.3,169.8V22.4h-52.3V9.9h118.5v12.5h-52.3v147.5H239.3z"/>
</g>
<g>
	<path fill="#1892D9" d="M366.1,169.8L339,127.5h-21.2v42.2h-13.2V63.5h42.7c19.4,0,33.3,12.4,33.3,32c0,19.1-13.1,29.6-27.6,30.9
		l28.7,43.3H366.1z M366.9,95.5c0-11.9-8.6-20.2-21.2-20.2h-27.9v40.6h27.9C358.3,115.9,366.9,107.5,366.9,95.5z"/>
	<path fill="#1892D9" d="M477.3,169.8l-9.4-23.6H415l-9.4,23.6h-15.1l42.7-106.2h16.4l42.8,106.2H477.3z M441.4,77.2l-22.6,57.2
		h45.1L441.4,77.2z"/>
	<path fill="#1892D9" d="M506.2,169.8V63.5h36.3c33,0,54.5,23.1,54.5,53.2c0,30.3-21.5,53-54.5,53H506.2z M583.3,116.7
		c0-22.9-14.5-41.4-40.8-41.4h-23.1V158h23.1C568.4,158,583.3,139.5,583.3,116.7z"/>
	<path fill="#1892D9" d="M617.7,169.8V63.5h69.6v11.8H631v34.2h55.3v11.8H631V158h56.4v11.8H617.7z"/>
</g>
</svg>
