<?xml version="1.0" encoding="utf-8"?>
<!-- Generator: Adobe Illustrator 18.1.0, SVG Export Plug-In . SVG Version: 6.00 Build 0)  -->
<svg version="1.1" id="Layer_1" xmlns="http://www.w3.org/2000/svg" xmlns:xlink="http://www.w3.org/1999/xlink" x="0px" y="0px"
	 viewBox="0 0 500 500" enable-background="new 0 0 500 500" xml:space="preserve">
<g>
	<path fill="#FFFFFF" d="M25.7,254.7v-43h5.2l23.5,33.7h0.3v-33.7H60v43h-5.2l-23.5-33.6H31v33.6H25.7z"/>
	<path fill="#FFFFFF" d="M95,254.7H68.4v-43H95v4.8H73.7v13.8h20.2v4.8H73.7v14.8H95V254.7z"/>
	<path fill="#FFFFFF" d="M113.2,254.7v-38.2H99.4v-4.8h33.1v4.8h-13.9v38.2H113.2z"/>
	<path fill="#FFFFFF" d="M173.4,233.3c0,13.6-7.6,22.2-19.8,22.2s-19.8-8.5-19.8-22.2c0-13.6,7.6-22.2,19.8-22.2
		S173.4,219.6,173.4,233.3z M139.2,233.3c0,10.6,5.5,17.2,14.3,17.2s14.3-6.7,14.3-17.2c0-10.6-5.5-17.3-14.3-17.3
		S139.2,222.7,139.2,233.3z"/>
	<path fill="#FFFFFF" d="M196.3,211.8c8.1,0,13.8,5.7,13.8,13.8c0,8.2-5.7,13.9-13.8,13.9h-10.8v15.3H180v-43H196.3z M185.4,234.6
		h9.5c6.1,0,9.7-3.4,9.7-9.1c0-5.7-3.5-9-9.7-9h-9.5V234.6z"/>
	<path fill="#FFFFFF" d="M236.5,242.4h-17.1l-4.3,12.3h-5.6l15.8-43h5.3l15.8,43h-5.6L236.5,242.4z M221,237.9h13.9l-6.9-19.6h-0.2
		L221,237.9z"/>
	<path fill="#FFFFFF" d="M257.8,254.7v-18.5l-15.2-24.5h6.1l11.7,19.3h0.2l11.7-19.3h6.1l-15.2,24.5v18.5H257.8z"/>
	<path fill="#FFFFFF" d="M309.1,254.7v-38.2h-13.9v-4.8h33.1v4.8h-13.8v38.2H309.1z"/>
	<path fill="#FFFFFF" d="M339.3,254.7H334v-43h16.4c8.3,0,13.7,5.1,13.7,12.8c0,6-3.2,10.6-8.6,12.3l9.9,17.8h-6.3l-9.2-17h-10.6
		V254.7z M339.3,233h10.6c5.5,0,8.6-3,8.6-8.3c0-5.2-3.3-8.2-8.9-8.2h-10.3V233z"/>
	<path fill="#FFFFFF" d="M394.4,242.4h-17.1l-4.3,12.3h-5.6l15.8-43h5.3l15.8,43h-5.6L394.4,242.4z M378.9,237.9h13.9l-6.9-19.6
		h-0.2L378.9,237.9z"/>
	<path fill="#FFFFFF" d="M424.1,211.8c12.7,0,20.3,8,20.3,21.5c0,13.6-7.5,21.5-20.3,21.5h-14.7v-43H424.1z M414.7,249.9h9
		c9.7,0,15.2-6,15.2-16.6c0-10.8-5.4-16.7-15.2-16.7h-9V249.9z"/>
	<path fill="#FFFFFF" d="M477.6,254.7H451v-43h26.6v4.8h-21.3v13.8h20.2v4.8h-20.2v14.8h21.3V254.7z"/>
</g>
<g>
	<path fill="#FFFFFF" d="M63.1,293.8c0-4.3,2.5-7,6.3-7s6.3,2.7,6.3,7c0,4.2-2.5,7-6.3,7S63.1,298,63.1,293.8z M73.5,293.8
		c0-3.1-1.5-5-4.1-5s-4.1,1.9-4.1,5s1.5,5,4.1,5C72,298.8,73.5,296.9,73.5,293.8z"/>
	<path fill="#FFFFFF" d="M87.3,288.8h-6.8v11.9h-2.2v-13.7h11.2v13.7h-2.2V288.8z"/>
	<path fill="#FFFFFF" d="M102.7,288.8h-4.4v11.9h-2.2v-11.9h-4.4v-1.8h11.1V288.8z"/>
	<path fill="#FFFFFF" d="M104.8,300.6v-13.7h2.2v10.3h0.1l7-10.3h2.2v13.7h-2.2v-10.3h-0.1l-7,10.3H104.8z"/>
	<path fill="#FFFFFF" d="M119.6,300.6v-13.7h2.7l5,10.8h0.1l5-10.8h2.6v13.7h-2.2v-9.7h-0.1l-4.5,9.4h-1.7l-4.5-9.4h-0.1v9.7H119.6z
		"/>
	<path fill="#FFFFFF" d="M137.9,283.3c0-0.8,0.6-1.4,1.4-1.4c0.8,0,1.4,0.6,1.4,1.4c0,0.8-0.6,1.4-1.4,1.4
		C138.5,284.7,137.9,284.1,137.9,283.3z M138.2,286.9h2.2v13.7h-2.2V286.9z"/>
	<path fill="#FFFFFF" d="M142.9,297.1h2.2c0.3,1.2,1.4,1.9,3.1,1.9c2,0,3.1-1,3.1-2.3c0-1.6-1-2.3-3.1-2.3h-2.1v-1.8h2.1
		c1.8,0,2.7-0.7,2.7-2c0-1.2-0.8-2-2.6-2c-1.6,0-2.8,0.7-3,1.8h-2.2c0.3-2.2,2.3-3.7,5.1-3.7c3.1,0,4.8,1.5,4.8,3.7
		c0,1.4-0.9,2.6-2.3,3v0.1c1.8,0.4,2.8,1.5,2.8,3.1c0,2.5-2.1,4.3-5.3,4.3C145.3,300.8,143.2,299.4,142.9,297.1z"/>
	<path fill="#FFFFFF" d="M155.6,296.7c0-2.3,1.8-3.7,5.1-3.9l3.8-0.2v-1.1c0-1.7-1.1-2.6-3.1-2.6c-1.6,0-2.8,0.8-3,2.1h-2.1
		c0.1-2.3,2.3-4.1,5.2-4.1c3.2,0,5.3,1.7,5.3,4.4v9.4h-2.1v-2.4h-0.1c-0.8,1.5-2.5,2.5-4.4,2.5C157.5,300.7,155.6,299.1,155.6,296.7
		z M164.6,295.4v-1.1l-3.6,0.2c-2.1,0.1-3.1,0.9-3.1,2.2c0,1.3,1.1,2.1,2.8,2.1C162.9,298.8,164.6,297.4,164.6,295.4z"/>
	<path fill="#FFFFFF" d="M181.1,304.2v-3.6h-11.2v-13.7h2.2v11.9h6.7v-11.9h2.2v11.9h2.2v5.4H181.1z"/>
	<path fill="#FFFFFF" d="M185.1,283.3c0-0.8,0.6-1.4,1.4-1.4c0.8,0,1.4,0.6,1.4,1.4c0,0.8-0.6,1.4-1.4,1.4
		C185.7,284.7,185.1,284.1,185.1,283.3z M185.3,286.9h2.2v13.7h-2.2V286.9z"/>
	<path fill="#FFFFFF" d="M198.5,295.7H196l-3.5,4.9h-2.5l3.8-5.3c-1.9-0.5-3.1-2-3.1-3.8c0-2.8,2-4.5,5.1-4.5h4.8v13.7h-2.2V295.7z
		 M198.5,293.9v-5.1h-2.6c-1.8,0-3,1-3,2.7c0,1.4,1.2,2.5,3,2.5H198.5z"/>
	<path fill="#FFFFFF" d="M210.1,286.9h5.9c2.5,0,4.1,1.3,4.1,3.5c0,1.4-1,2.7-2.2,2.9v0.1c1.7,0.2,2.8,1.5,2.8,3.2
		c0,2.4-1.8,3.9-4.7,3.9h-5.9V286.9z M212.3,288.8v3.9h3c1.7,0,2.6-0.6,2.6-2c0-1.2-0.8-1.9-2.2-1.9H212.3z M212.3,294.4v4.3h3.7
		c1.7,0,2.6-0.7,2.6-2.1c0-1.5-1-2.2-3-2.2H212.3z"/>
	<path fill="#FFFFFF" d="M222.5,297.1h2.2c0.3,1.2,1.4,1.9,3.1,1.9c2,0,3.1-1,3.1-2.3c0-1.6-1-2.3-3.1-2.3h-2.1v-1.8h2.1
		c1.8,0,2.7-0.7,2.7-2c0-1.2-0.8-2-2.6-2c-1.6,0-2.8,0.7-3,1.8h-2.2c0.3-2.2,2.3-3.7,5.1-3.7c3.1,0,4.8,1.5,4.8,3.7
		c0,1.4-0.9,2.6-2.3,3v0.1c1.8,0.4,2.8,1.5,2.8,3.1c0,2.5-2.1,4.3-5.3,4.3C224.9,300.8,222.7,299.4,222.5,297.1z"/>
	<path fill="#FFFFFF" d="M235.2,296.7c0-2.3,1.8-3.7,5.1-3.9l3.8-0.2v-1.1c0-1.7-1.1-2.6-3.1-2.6c-1.6,0-2.8,0.8-3,2.1h-2.1
		c0.1-2.3,2.3-4.1,5.2-4.1c3.2,0,5.3,1.7,5.3,4.4v9.4h-2.1v-2.4h-0.1c-0.8,1.5-2.5,2.5-4.4,2.5C237,300.7,235.2,299.1,235.2,296.7z
		 M244.1,295.4v-1.1l-3.6,0.2c-2.1,0.1-3.1,0.9-3.1,2.2c0,1.3,1.1,2.1,2.8,2.1C242.5,298.8,244.1,297.4,244.1,295.4z"/>
	<path fill="#FFFFFF" d="M260.7,296.5c-0.5,2.5-2.7,4.3-5.7,4.3c-3.8,0-6.3-2.7-6.3-7c0-4.2,2.5-7,6.2-7c3.3,0,5.3,2,5.7,4.3h-2.2
		c-0.4-1.3-1.6-2.3-3.5-2.3c-2.1,0-3.6,1.5-3.9,3.8h6.2v1.8H251c0.2,2.7,1.8,4.4,4,4.4c1.8,0,3-0.8,3.5-2.3H260.7z"/>
	<path fill="#FFFFFF" d="M263.1,300.6v-13.7h2.7l5,10.8h0.1l5-10.8h2.6v13.7h-2.2v-9.7H276l-4.5,9.4h-1.7l-4.5-9.4h-0.1v9.7H263.1z"
		/>
	<path fill="#FFFFFF" d="M280.9,293.8c0-4.3,2.5-7,6.3-7c3.8,0,6.3,2.7,6.3,7c0,4.2-2.5,7-6.3,7C283.4,300.7,280.9,298,280.9,293.8z
		 M291.3,293.8c0-3.1-1.5-5-4.1-5c-2.6,0-4.1,1.9-4.1,5s1.5,5,4.1,5C289.8,298.8,291.3,296.9,291.3,293.8z"/>
	<path fill="#FFFFFF" d="M308.6,293.8c0,4.2-2.4,7-5.8,7c-1.9,0-3.5-0.9-4.4-2.3h-0.1v6.8h-2.2v-18.3h2.1v2.2h0.1
		c0.8-1.4,2.5-2.3,4.4-2.3C306.2,286.8,308.6,289.6,308.6,293.8z M306.3,293.8c0-3-1.6-5-4-5c-2.4,0-4,2-4,5c0,3,1.6,5,4,5
		C304.7,298.8,306.3,296.8,306.3,293.8z"/>
	<path fill="#FFFFFF" d="M310.5,293.8c0-4.3,2.5-7,6.3-7c3.8,0,6.3,2.7,6.3,7c0,4.2-2.5,7-6.3,7C312.9,300.7,310.5,298,310.5,293.8z
		 M320.8,293.8c0-3.1-1.5-5-4.1-5c-2.6,0-4.1,1.9-4.1,5s1.5,5,4.1,5C319.3,298.8,320.8,296.9,320.8,293.8z"/>
	<path fill="#FFFFFF" d="M324.8,297.1h2.2c0.3,1.2,1.4,1.9,3.1,1.9c2,0,3.1-1,3.1-2.3c0-1.6-1-2.3-3.1-2.3h-2.1v-1.8h2.1
		c1.8,0,2.7-0.7,2.7-2c0-1.2-0.8-2-2.6-2c-1.6,0-2.8,0.7-3,1.8h-2.2c0.3-2.2,2.3-3.7,5.1-3.7c3.1,0,4.8,1.5,4.8,3.7
		c0,1.4-0.9,2.6-2.3,3v0.1c1.8,0.4,2.8,1.5,2.8,3.1c0,2.5-2.1,4.3-5.3,4.3C327.2,300.8,325,299.4,324.8,297.1z"/>
	<path fill="#FFFFFF" d="M350.6,293.8c0,4.2-2.4,7-5.8,7c-1.9,0-3.5-0.9-4.4-2.3h-0.1v6.8h-2.2v-18.3h2.1v2.2h0.1
		c0.8-1.4,2.5-2.3,4.4-2.3C348.2,286.8,350.6,289.6,350.6,293.8z M348.3,293.8c0-3-1.6-5-4-5c-2.4,0-4,2-4,5c0,3,1.6,5,4,5
		C346.7,298.8,348.3,296.8,348.3,293.8z"/>
	<path fill="#FFFFFF" d="M352.5,296.7c0-2.3,1.8-3.7,5.1-3.9l3.8-0.2v-1.1c0-1.7-1.1-2.6-3.1-2.6c-1.6,0-2.8,0.8-3,2.1h-2.1
		c0.1-2.3,2.3-4.1,5.2-4.1c3.2,0,5.3,1.7,5.3,4.4v9.4h-2.1v-2.4h-0.1c-0.8,1.5-2.5,2.5-4.4,2.5C354.3,300.7,352.5,299.1,352.5,296.7
		z M361.5,295.4v-1.1l-3.6,0.2c-2.1,0.1-3.1,0.9-3.1,2.2c0,1.3,1.1,2.1,2.8,2.1C359.8,298.8,361.5,297.4,361.5,295.4z"/>
	<path fill="#FFFFFF" d="M371.5,295.4l-3.3,5.2h-2.5l4.7-6.8l-4.6-6.8h2.5l3.3,5.2h0.1l3.3-5.2h2.5l-4.6,6.8l4.6,6.9h-2.5
		L371.5,295.4L371.5,295.4z"/>
	<path fill="#FFFFFF" d="M379.8,305.5v-1.9c0.3,0.1,0.6,0.1,0.9,0.1c1.3,0,2-0.6,2.5-2.3l0.3-0.8l-5.1-13.7h2.3l3.8,11.4h0.1
		l3.8-11.4h2.3l-5.4,14.5c-1.2,3.2-2.3,4.1-4.7,4.1C380.5,305.6,380.1,305.5,379.8,305.5z"/>
	<path fill="#FFFFFF" d="M402,294.4h-7v6.2h-2.2v-13.7h2.2v5.7h7v-5.7h2.2v13.7H402V294.4z"/>
	<path fill="#FFFFFF" d="M418.6,300.6h-2.9l-6-6.6h-0.1v6.6h-2.2v-13.7h2.2v6.1h0.1l5.9-6.1h2.7l-6.4,6.5L418.6,300.6z"/>
	<path fill="#FFFFFF" d="M420.4,283.3c0-0.8,0.6-1.4,1.4-1.4c0.8,0,1.4,0.6,1.4,1.4c0,0.8-0.6,1.4-1.4,1.4
		C421,284.7,420.4,284.1,420.4,283.3z M420.7,286.9h2.2v13.7h-2.2V286.9z"/>
	<path fill="#FFFFFF" d="M426.3,286.9h5.9c2.5,0,4.1,1.3,4.1,3.5c0,1.4-1,2.7-2.2,2.9v0.1c1.7,0.2,2.8,1.5,2.8,3.2
		c0,2.4-1.8,3.9-4.7,3.9h-5.9V286.9z M428.4,288.8v3.9h3c1.7,0,2.6-0.6,2.6-2c0-1.2-0.8-1.9-2.2-1.9H428.4z M428.4,294.4v4.3h3.7
		c1.7,0,2.6-0.7,2.6-2.1c0-1.5-1-2.2-3-2.2H428.4z"/>
	<path fill="#FFFFFF" d="M181.5,335.4V330h1.1c1-0.7,1.5-2.4,1.6-4.2l0.5-7.6h9.3V330h2.2v5.4h-2.1v-3.6h-10.7v3.6H181.5z M192,320
		h-5.2l-0.4,5.9c-0.1,1.7-0.5,3.2-1.1,4.1v0.1h6.8V320z"/>
	<path fill="#FFFFFF" d="M198,331.9c-0.4,0-0.6-0.1-0.8-0.1v-2c0.1,0,0.4,0.1,0.7,0.1c1.4,0,1.9-1.6,2.1-4.1l0.5-7.6h9v13.7h-2.2
		V320h-4.8l-0.4,5.9C201.7,329.6,200.8,331.9,198,331.9z"/>
	<path fill="#FFFFFF" d="M220.2,326.9h-2.5l-3.5,4.9h-2.5l3.8-5.3c-1.9-0.5-3.1-2-3.1-3.8c0-2.8,2-4.5,5.1-4.5h4.8v13.7h-2.2V326.9z
		 M220.2,325.1V320h-2.6c-1.8,0-3,1-3,2.7c0,1.4,1.2,2.5,3,2.5H220.2z"/>
	<path fill="#FFFFFF" d="M231.3,323.8c0-7.6,2-10.8,7.3-11l1,0c1.3-0.1,2.8-0.3,3.6-0.7v1.9c-0.4,0.4-1.9,0.7-3.5,0.8l-1,0
		c-3.8,0.2-4.9,1.9-5.5,6.1h0.1c0.9-1.6,2.6-2.5,4.7-2.5c3.7,0,6,2.6,6,6.7c0,4.3-2.4,7-6.4,7C233.5,332.1,231.3,329.2,231.3,323.8z
		 M241.8,325.1c0-3-1.5-4.7-4.1-4.7s-4.1,1.7-4.1,4.7c0,3.2,1.5,5,4.1,5S241.8,328.3,241.8,325.1z"/>
	<path fill="#FFFFFF" d="M246.4,314.5c0-0.8,0.6-1.4,1.4-1.4c0.8,0,1.4,0.6,1.4,1.4c0,0.8-0.6,1.4-1.4,1.4
		C247.1,315.9,246.4,315.3,246.4,314.5z M246.7,318.1h2.2v13.7h-2.2V318.1z"/>
	<path fill="#FFFFFF" d="M251.5,328.3h2.2c0.3,1.2,1.4,1.9,3.1,1.9c2,0,3.1-1,3.1-2.3c0-1.6-1-2.3-3.1-2.3h-2.1v-1.8h2.1
		c1.8,0,2.7-0.7,2.7-2c0-1.2-0.8-2-2.6-2c-1.6,0-2.8,0.7-3,1.8h-2.2c0.3-2.2,2.3-3.7,5.1-3.7c3.1,0,4.8,1.5,4.8,3.7
		c0,1.4-0.9,2.6-2.3,3v0.1c1.8,0.4,2.8,1.5,2.8,3.1c0,2.5-2.1,4.3-5.3,4.3C253.9,332,251.7,330.6,251.5,328.3z"/>
	<path fill="#FFFFFF" d="M273.9,325.6h-7v6.2h-2.2v-13.7h2.2v5.7h7v-5.7h2.2v13.7h-2.2V325.6z"/>
	<path fill="#FFFFFF" d="M290.6,327.9c-0.4,2.3-2.8,4-5.7,4c-3.8,0-6.3-2.7-6.3-6.9s2.4-7,6.2-7c3.7,0,5.9,2.6,5.9,6.7v0.9H281v0.1
		c0,2.6,1.6,4.3,4,4.3c1.7,0,3-0.8,3.4-2.1H290.6z M281,323.8h7.5c-0.1-2.3-1.5-3.9-3.7-3.9C282.7,319.9,281.1,321.5,281,323.8z"/>
	<path fill="#FFFFFF" d="M302.4,322.3c-0.4-1.3-1.6-2.3-3.5-2.3c-2.4,0-4,2-4,5c0,3.1,1.7,5,4,5c1.8,0,3-0.8,3.5-2.3h2.2
		c-0.5,2.5-2.7,4.3-5.7,4.3c-3.8,0-6.3-2.7-6.3-7c0-4.2,2.5-7,6.2-7c3.3,0,5.3,2,5.7,4.3H302.4z"/>
	<path fill="#FFFFFF" d="M307.3,336.7v-1.9c0.3,0.1,0.6,0.1,0.9,0.1c1.3,0,2-0.6,2.5-2.3l0.3-0.8l-5.1-13.7h2.3l3.8,11.4h0.1
		l3.8-11.4h2.3l-5.4,14.5c-1.2,3.2-2.3,4.1-4.7,4.1C307.9,336.8,307.5,336.7,307.3,336.7z"/>
</g>
</svg>
