<?xml version="1.0" encoding="utf-8"?>
<!-- Generator: Adobe Illustrator 18.1.0, SVG Export Plug-In . SVG Version: 6.00 Build 0)  -->
<svg version="1.1" id="Layer_1" xmlns="http://www.w3.org/2000/svg" xmlns:xlink="http://www.w3.org/1999/xlink" x="0px" y="0px"
	 viewBox="0 0 430 250" enable-background="new 0 0 430 250" xml:space="preserve">
<line fill="none" stroke="#D1D1D1" stroke-miterlimit="10" x1="30.3" y1="248" x2="426" y2="248"/>
<line fill="none" stroke="#EDEDED" stroke-miterlimit="10" x1="30.3" y1="221.7" x2="426" y2="221.7"/>
<line fill="none" stroke="#EDEDED" stroke-miterlimit="10" x1="30.3" y1="194.1" x2="426" y2="194.1"/>
<line fill="none" stroke="#EDEDED" stroke-miterlimit="10" x1="30.3" y1="167.9" x2="426" y2="167.9"/>
<line fill="none" stroke="#EDEDED" stroke-miterlimit="10" x1="30.3" y1="140.3" x2="426" y2="140.3"/>
<line fill="none" stroke="#EDEDED" stroke-miterlimit="10" x1="30.3" y1="112.8" x2="426" y2="112.8"/>
<line fill="none" stroke="#EDEDED" stroke-miterlimit="10" x1="30.3" y1="86.5" x2="426" y2="86.5"/>
<line fill="none" stroke="#EDEDED" stroke-miterlimit="10" x1="30.3" y1="60.2" x2="426" y2="60.2"/>
<line fill="none" stroke="#EDEDED" stroke-miterlimit="10" x1="30.3" y1="32.6" x2="426" y2="32.6"/>
<line fill="none" stroke="#EDEDED" stroke-miterlimit="10" x1="30.3" y1="6.3" x2="426" y2="6.3"/>
<g enable-background="new    ">
	<path fill="#B3B3B3" d="M11.9,221.8c0,1.3-0.3,2.3-0.8,2.9s-1.3,1-2.3,1c-1,0-1.7-0.3-2.3-1c-0.6-0.7-0.8-1.7-0.8-2.9v-2.2
		c0-1.3,0.3-2.2,0.8-2.9c0.6-0.7,1.3-1,2.3-1s1.7,0.3,2.3,1c0.6,0.7,0.8,1.7,0.8,2.9V221.8z M11.1,219.5c0-1-0.2-1.8-0.6-2.3
		c-0.4-0.5-1-0.8-1.7-0.8s-1.3,0.3-1.7,0.8c-0.4,0.5-0.6,1.3-0.6,2.3v2.5c0,1,0.2,1.8,0.6,2.3c0.4,0.6,1,0.8,1.7,0.8
		c0.7,0,1.3-0.3,1.7-0.8c0.4-0.5,0.6-1.3,0.6-2.3V219.5z"/>
	<path fill="#B3B3B3" d="M17.4,225.7h-0.8v-9.1l-2.5,0.3v-0.6l3.3-0.6V225.7z"/>
</g>
<g enable-background="new    ">
	<path fill="#B3B3B3" d="M11.9,195.4c0,1.3-0.3,2.3-0.8,2.9s-1.3,1-2.3,1c-1,0-1.7-0.3-2.3-1c-0.6-0.7-0.8-1.7-0.8-2.9v-2.2
		c0-1.3,0.3-2.2,0.8-2.9c0.6-0.7,1.3-1,2.3-1s1.7,0.3,2.3,1c0.6,0.7,0.8,1.7,0.8,2.9V195.4z M11.1,193.1c0-1-0.2-1.8-0.6-2.3
		c-0.4-0.5-1-0.8-1.7-0.8s-1.3,0.3-1.7,0.8c-0.4,0.5-0.6,1.3-0.6,2.3v2.5c0,1,0.2,1.8,0.6,2.3c0.4,0.6,1,0.8,1.7,0.8
		c0.7,0,1.3-0.3,1.7-0.8c0.4-0.5,0.6-1.3,0.6-2.3V193.1z"/>
	<path fill="#B3B3B3" d="M19.8,199.2h-6.1v-0.6l3.2-3.7c0.6-0.7,1-1.2,1.3-1.7c0.2-0.5,0.4-0.9,0.4-1.3c0-0.6-0.2-1.1-0.5-1.5
		c-0.3-0.4-0.8-0.6-1.5-0.6c-0.7,0-1.3,0.2-1.7,0.6c-0.4,0.4-0.6,1-0.6,1.7h-0.8l0,0c0-0.8,0.2-1.5,0.8-2.1c0.6-0.6,1.3-0.9,2.3-0.9
		c0.8,0,1.5,0.2,2,0.7c0.5,0.5,0.8,1.1,0.8,2c0,0.5-0.2,1.1-0.5,1.6c-0.3,0.6-0.8,1.2-1.4,1.9l-2.7,3.1l0,0h5.1V199.2z"/>
</g>
<g enable-background="new    ">
	<path fill="#B3B3B3" d="M11.9,168.9c0,1.3-0.3,2.3-0.8,2.9c-0.6,0.7-1.3,1-2.3,1c-1,0-1.7-0.3-2.3-1c-0.6-0.7-0.8-1.7-0.8-2.9v-2.2
		c0-1.3,0.3-2.2,0.8-2.9c0.6-0.7,1.3-1,2.3-1s1.7,0.3,2.3,1c0.6,0.7,0.8,1.7,0.8,2.9V168.9z M11.1,166.6c0-1-0.2-1.8-0.6-2.3
		c-0.4-0.5-1-0.8-1.7-0.8s-1.3,0.3-1.7,0.8c-0.4,0.5-0.6,1.3-0.6,2.3v2.5c0,1,0.2,1.8,0.6,2.3c0.4,0.6,1,0.8,1.7,0.8
		c0.7,0,1.3-0.3,1.7-0.8c0.4-0.5,0.6-1.3,0.6-2.3V166.6z"/>
	<path fill="#B3B3B3" d="M15.5,167.4h0.9c0.7,0,1.3-0.2,1.6-0.5c0.4-0.4,0.6-0.8,0.6-1.4c0-0.6-0.2-1.1-0.5-1.5
		c-0.3-0.4-0.9-0.5-1.5-0.5c-0.6,0-1.1,0.2-1.6,0.6c-0.4,0.4-0.6,0.9-0.6,1.5h-0.8l0,0c0-0.8,0.2-1.4,0.8-1.9
		c0.6-0.5,1.3-0.8,2.1-0.8c0.9,0,1.6,0.2,2.1,0.7c0.5,0.5,0.8,1.2,0.8,2c0,0.5-0.1,0.9-0.4,1.3s-0.7,0.7-1.2,0.9
		c0.6,0.2,1.1,0.5,1.4,0.9c0.3,0.4,0.5,0.9,0.5,1.5c0,0.9-0.3,1.6-0.8,2.1c-0.6,0.5-1.3,0.8-2.2,0.8c-0.9,0-1.6-0.2-2.2-0.7
		c-0.6-0.5-0.9-1.2-0.9-2l0,0h0.8c0,0.6,0.2,1.1,0.7,1.5c0.4,0.4,1,0.6,1.7,0.6c0.7,0,1.2-0.2,1.6-0.5c0.4-0.4,0.6-0.9,0.6-1.6
		c0-0.7-0.2-1.2-0.6-1.5s-1-0.5-1.8-0.5h-0.9V167.4z"/>
</g>
<g enable-background="new    ">
	<path fill="#B3B3B3" d="M11.9,141.5c0,1.3-0.3,2.3-0.8,2.9s-1.3,1-2.3,1c-1,0-1.7-0.3-2.3-1c-0.6-0.7-0.8-1.7-0.8-2.9v-2.2
		c0-1.3,0.3-2.2,0.8-2.9c0.6-0.7,1.3-1,2.3-1s1.7,0.3,2.3,1c0.6,0.7,0.8,1.7,0.8,2.9V141.5z M11.1,139.2c0-1-0.2-1.8-0.6-2.3
		s-1-0.8-1.7-0.8s-1.3,0.3-1.7,0.8s-0.6,1.3-0.6,2.3v2.5c0,1,0.2,1.8,0.6,2.3c0.4,0.6,1,0.8,1.7,0.8c0.7,0,1.3-0.3,1.7-0.8
		c0.4-0.6,0.6-1.3,0.6-2.3V139.2z"/>
	<path fill="#B3B3B3" d="M18.7,142.2h1.5v0.7h-1.5v2.5h-0.8v-2.5h-4.6v-0.5l4.5-6.9h0.9V142.2z M14.2,142.2h3.7v-5.6l0,0l-0.3,0.7
		L14.2,142.2z"/>
</g>
<g enable-background="new    ">
	<path fill="#B3B3B3" d="M11.9,114.6c0,1.3-0.3,2.3-0.8,2.9c-0.6,0.7-1.3,1-2.3,1c-1,0-1.7-0.3-2.3-1c-0.6-0.7-0.8-1.7-0.8-2.9v-2.2
		c0-1.3,0.3-2.2,0.8-2.9c0.6-0.7,1.3-1,2.3-1s1.7,0.3,2.3,1c0.6,0.7,0.8,1.7,0.8,2.9V114.6z M11.1,112.2c0-1-0.2-1.8-0.6-2.3
		c-0.4-0.5-1-0.8-1.7-0.8s-1.3,0.3-1.7,0.8c-0.4,0.5-0.6,1.3-0.6,2.3v2.5c0,1,0.2,1.8,0.6,2.3c0.4,0.6,1,0.8,1.7,0.8
		c0.7,0,1.3-0.3,1.7-0.8c0.4-0.5,0.6-1.3,0.6-2.3V112.2z"/>
	<path fill="#B3B3B3" d="M14.1,113.9l0.5-5.4h4.8v0.8h-4.1l-0.4,3.5c0.2-0.2,0.5-0.4,0.8-0.5c0.3-0.1,0.7-0.2,1.2-0.2
		c0.8,0,1.5,0.3,2,0.8c0.5,0.6,0.8,1.4,0.8,2.3c0,1-0.2,1.8-0.7,2.4c-0.5,0.6-1.2,0.9-2.2,0.9c-0.8,0-1.5-0.2-2-0.7
		c-0.5-0.5-0.8-1.1-0.8-2l0,0h0.7c0,0.7,0.2,1.2,0.6,1.5c0.4,0.4,0.9,0.5,1.5,0.5c0.7,0,1.3-0.2,1.6-0.7s0.5-1.1,0.5-1.9
		c0-0.7-0.2-1.3-0.5-1.8s-0.9-0.7-1.5-0.7c-0.6,0-1.1,0.1-1.4,0.3s-0.6,0.5-0.7,0.9L14.1,113.9z"/>
</g>
<g enable-background="new    ">
	<path fill="#B3B3B3" d="M11.9,87.6c0,1.3-0.3,2.3-0.8,2.9c-0.6,0.7-1.3,1-2.3,1c-1,0-1.7-0.3-2.3-1c-0.6-0.7-0.8-1.7-0.8-2.9v-2.2
		c0-1.3,0.3-2.2,0.8-2.9c0.6-0.7,1.3-1,2.3-1s1.7,0.3,2.3,1c0.6,0.7,0.8,1.7,0.8,2.9V87.6z M11.1,85.3c0-1-0.2-1.8-0.6-2.3
		c-0.4-0.5-1-0.8-1.7-0.8S7.4,82.4,7,82.9c-0.4,0.5-0.6,1.3-0.6,2.3v2.5c0,1,0.2,1.8,0.6,2.3c0.4,0.6,1,0.8,1.7,0.8
		c0.7,0,1.3-0.3,1.7-0.8c0.4-0.5,0.6-1.3,0.6-2.3V85.3z"/>
	<path fill="#B3B3B3" d="M17.2,81.4c0.3,0,0.7,0,1,0.1c0.3,0.1,0.6,0.2,0.9,0.3l-0.2,0.7c-0.3-0.1-0.5-0.3-0.8-0.3
		c-0.3-0.1-0.6-0.1-0.9-0.1c-0.7,0-1.3,0.3-1.8,0.9s-0.7,1.3-0.7,2.2v0.9c0.3-0.4,0.6-0.6,1-0.8s0.9-0.3,1.4-0.3
		c0.9,0,1.6,0.3,2.1,0.9c0.5,0.6,0.8,1.4,0.8,2.4c0,1-0.3,1.8-0.8,2.4c-0.6,0.6-1.3,0.9-2.2,0.9c-0.9,0-1.7-0.3-2.2-1
		s-0.9-1.6-0.9-2.8v-2.5c0-1.1,0.3-2.1,1-2.8C15.4,81.8,16.2,81.4,17.2,81.4z M16.9,85.6c-0.5,0-1,0.1-1.4,0.4
		c-0.4,0.3-0.7,0.6-0.8,1.1v0.7c0,0.9,0.2,1.7,0.6,2.2c0.4,0.5,1,0.8,1.7,0.8c0.7,0,1.2-0.3,1.6-0.8c0.4-0.5,0.6-1.1,0.6-1.9
		c0-0.8-0.2-1.4-0.6-1.9C18.2,85.8,17.6,85.6,16.9,85.6z"/>
</g>
<g enable-background="new    ">
	<path fill="#B3B3B3" d="M11.9,61.2c0,1.3-0.3,2.3-0.8,2.9c-0.6,0.7-1.3,1-2.3,1c-1,0-1.7-0.3-2.3-1c-0.6-0.7-0.8-1.7-0.8-2.9V59
		c0-1.3,0.3-2.2,0.8-2.9c0.6-0.7,1.3-1,2.3-1s1.7,0.3,2.3,1c0.6,0.7,0.8,1.7,0.8,2.9V61.2z M11.1,58.8c0-1-0.2-1.8-0.6-2.3
		c-0.4-0.5-1-0.8-1.7-0.8S7.4,56,7,56.5c-0.4,0.5-0.6,1.3-0.6,2.3v2.5c0,1,0.2,1.8,0.6,2.3c0.4,0.6,1,0.8,1.7,0.8
		c0.7,0,1.3-0.3,1.7-0.8c0.4-0.5,0.6-1.3,0.6-2.3V58.8z"/>
	<path fill="#B3B3B3" d="M19.8,55.8c-1.1,1.3-1.9,2.5-2.4,3.8c-0.6,1.3-0.9,2.8-1.1,4.5L16.1,65h-0.8l0.1-0.8
		c0.2-1.7,0.6-3.2,1.2-4.5c0.6-1.4,1.4-2.6,2.4-3.8h-5.6v-0.7h6.5V55.8z"/>
</g>
<g enable-background="new    ">
	<path fill="#B3B3B3" d="M11.9,34.2c0,1.3-0.3,2.3-0.8,2.9c-0.6,0.7-1.3,1-2.3,1c-1,0-1.7-0.3-2.3-1c-0.6-0.7-0.8-1.7-0.8-2.9V32
		c0-1.3,0.3-2.2,0.8-2.9c0.6-0.7,1.3-1,2.3-1s1.7,0.3,2.3,1c0.6,0.7,0.8,1.7,0.8,2.9V34.2z M11.1,31.9c0-1-0.2-1.8-0.6-2.3
		c-0.4-0.5-1-0.8-1.7-0.8S7.4,29,7,29.6c-0.4,0.5-0.6,1.3-0.6,2.3v2.5c0,1,0.2,1.8,0.6,2.3c0.4,0.6,1,0.8,1.7,0.8
		c0.7,0,1.3-0.3,1.7-0.8c0.4-0.5,0.6-1.3,0.6-2.3V31.9z"/>
	<path fill="#B3B3B3" d="M19.5,30.7c0,0.5-0.2,1-0.5,1.4c-0.3,0.4-0.7,0.7-1.2,0.9c0.6,0.2,1.1,0.5,1.4,0.9s0.5,0.9,0.5,1.5
		c0,0.9-0.3,1.6-0.9,2c-0.6,0.5-1.4,0.7-2.3,0.7c-0.9,0-1.7-0.2-2.3-0.7c-0.6-0.5-0.9-1.2-0.9-2c0-0.6,0.2-1.1,0.5-1.5
		s0.8-0.7,1.4-0.9c-0.5-0.2-0.9-0.5-1.2-0.9c-0.3-0.4-0.5-0.9-0.5-1.4c0-0.8,0.3-1.5,0.8-2c0.5-0.5,1.2-0.7,2.1-0.7
		c0.8,0,1.5,0.2,2.1,0.7C19.3,29.2,19.5,29.9,19.5,30.7z M19,35.4c0-0.6-0.2-1.1-0.7-1.5s-1-0.6-1.7-0.6c-0.7,0-1.2,0.2-1.7,0.6
		c-0.4,0.4-0.7,0.9-0.7,1.5c0,0.6,0.2,1.1,0.7,1.5c0.4,0.4,1,0.5,1.7,0.5c0.7,0,1.2-0.2,1.7-0.6C18.8,36.6,19,36.1,19,35.4z
		 M18.7,30.7c0-0.6-0.2-1-0.6-1.4s-0.9-0.6-1.5-0.6c-0.6,0-1.1,0.2-1.5,0.5c-0.4,0.4-0.6,0.8-0.6,1.4c0,0.6,0.2,1,0.6,1.4
		s0.9,0.5,1.5,0.5c0.6,0,1.1-0.2,1.5-0.5S18.7,31.3,18.7,30.7z"/>
</g>
<g enable-background="new    ">
	<path fill="#B3B3B3" d="M11.9,9.3c0,1.3-0.3,2.3-0.8,2.9c-0.6,0.7-1.3,1-2.3,1c-1,0-1.7-0.3-2.3-1c-0.6-0.7-0.8-1.7-0.8-2.9V7.1
		c0-1.3,0.3-2.2,0.8-2.9c0.6-0.7,1.3-1,2.3-1s1.7,0.3,2.3,1c0.6,0.7,0.8,1.7,0.8,2.9V9.3z M11.1,6.9c0-1-0.2-1.8-0.6-2.3
		c-0.4-0.5-1-0.8-1.7-0.8S7.4,4,7,4.6C6.6,5.1,6.4,5.9,6.4,6.9v2.5c0,1,0.2,1.8,0.6,2.3c0.4,0.6,1,0.8,1.7,0.8
		c0.7,0,1.3-0.3,1.7-0.8c0.4-0.5,0.6-1.3,0.6-2.3V6.9z"/>
	<path fill="#B3B3B3" d="M16.2,12.5c0.7,0,1.3-0.2,1.8-0.7c0.4-0.5,0.7-1.2,0.7-2.1v-1c-0.2,0.4-0.6,0.7-1,1s-0.9,0.3-1.4,0.3
		c-0.9,0-1.6-0.3-2.2-0.9c-0.5-0.6-0.8-1.4-0.8-2.4c0-1,0.3-1.8,0.9-2.5c0.6-0.7,1.3-1,2.1-1c1,0,1.7,0.3,2.3,0.9
		c0.6,0.6,0.9,1.5,0.9,2.7v2.9c0,1.1-0.3,2-0.9,2.7s-1.4,0.9-2.4,0.9c-0.4,0-0.7,0-1.1-0.1s-0.7-0.2-1-0.3l0.1-0.7
		c0.3,0.1,0.6,0.2,0.9,0.3C15.5,12.5,15.9,12.5,16.2,12.5z M16.4,9.3c0.6,0,1.1-0.1,1.5-0.4c0.4-0.3,0.7-0.7,0.8-1.1v-1
		c0-0.9-0.2-1.6-0.6-2.1c-0.4-0.5-1-0.7-1.7-0.7c-0.6,0-1.2,0.3-1.6,0.8c-0.4,0.5-0.6,1.2-0.6,2c0,0.8,0.2,1.4,0.6,1.9
		C15.2,9,15.7,9.3,16.4,9.3z"/>
</g>
</svg>
