<?xml version="1.0" encoding="utf-8"?>
<!-- Generator: Adobe Illustrator 18.1.0, SVG Export Plug-In . SVG Version: 6.00 Build 0)  -->
<svg version="1.1" id="Layer_1" xmlns="http://www.w3.org/2000/svg" xmlns:xlink="http://www.w3.org/1999/xlink" x="0px" y="0px"
	 viewBox="0 0 200 200" enable-background="new 0 0 200 200" xml:space="preserve">
<g>
	<g>
		<rect x="-186.8" y="102.6" fill="#A20015" width="46.9" height="5.3"/>
	</g>
	<g>
		<rect x="-186.8" y="112.6" fill="#A20015" width="46.9" height="5.3"/>
	</g>
	<g>
		<rect x="-186.8" y="122.5" fill="#A20015" width="22.1" height="5.3"/>
	</g>
	<path fill="#A20015" d="M-141,151.5l-9.7-9.7c-0.1-0.1-0.1-0.4,0-0.5l36.5-36.5c0.1-0.1,0.4-0.1,0.5,0l9.7,9.7
		c0.1,0.1,0.1,0.4,0,0.5l-36.5,36.5C-140.7,151.6-140.9,151.6-141,151.5z"/>
	<path fill="#A20015" d="M-128.6,147l0,13.4h-15.2c-3.1,0-5.6,2.5-5.6,5.6v16.7l-49.3,0.1l-0.1-86.8l70.2-0.1l0,15.8l5.3-5.3V95.8
		c0-2.9-2.3-5.2-5.2-5.2h-70.4c-2.9,0-5.2,2.3-5.2,5.2v87c0,2.9,2.3,5.2,5.2,5.2h51.9c1.4,0,2.7-0.5,3.7-1.5l18.5-18.5
		c1-1,1.5-2.3,1.5-3.7v-22.6L-128.6,147z M-144,179.7l0.2-13.9h13.8L-144,179.7z"/>
	<path fill="#A20015" d="M-141,151.5l-9.7-9.7c-0.1-0.1-0.1-0.4,0-0.5l36.5-36.5c0.1-0.1,0.4-0.1,0.5,0l9.7,9.7
		c0.1,0.1,0.1,0.4,0,0.5l-36.5,36.5C-140.7,151.6-140.9,151.6-141,151.5z"/>
	<path fill="#A20015" d="M-141,151.5l-9.7-9.7c-0.1-0.1-0.1-0.4,0-0.5l36.5-36.5c0.1-0.1,0.4-0.1,0.5,0l9.7,9.7
		c0.1,0.1,0.1,0.4,0,0.5l-36.5,36.5C-140.7,151.6-140.9,151.6-141,151.5z"/>
	<path fill="#A20015" d="M-152.6,144.4l-1.9,10c-0.1,0.6,0.4,1,0.9,0.9l10-1.9c0.6-0.1,0.9-0.9,0.4-1.4l-8-8
		C-151.7,143.5-152.5,143.7-152.6,144.4z"/>
	<path fill="#A20015" d="M-112.2,65.3c-1.7,0-3.3,0.3-5,0.5c-8.9-20.1-29-34.2-52.4-34.2c-30.1,0-54.5,23.2-57,52.7
		c-17.3,1.1-31,15.3-31,32.9c0,18.3,14.8,33.1,33.1,33.1h17.8V93.5c0-3,2.5-5.5,5.5-5.5h75c3,0,5.5,2.5,5.5,5.5v13.9l3.5-3.5
		c0.9-0.9,2-1.3,3.2-1.3c1.2,0,2.3,0.5,3.2,1.3l7.6,7.6c0.9,0.9,1.3,2,1.3,3.2c0,1.2-0.5,2.3-1.3,3.2l-17.4,17.4v15h8.4
		c23.5,0,42.5-19,42.5-42.5C-69.7,84.3-88.7,65.3-112.2,65.3z"/>
</g>
<g>
	<g>
		<path fill="#FFFFFF" d="M95.8,81.1H65c-2.1,0-3.9,1.7-3.9,3.9v71.1c0,2.1,1.7,3.9,3.9,3.9h30.8c2.1,0,3.9-1.7,3.9-3.9V85
			C99.7,82.9,98,81.1,95.8,81.1z M94.2,109.4H66v-5.3h28.1V109.4z M94.2,100.6H66v-5.3h28.1V100.6z M94.2,91.9H66v-5.3h28.1V91.9z"
			/>
		<path fill="#FFFFFF" d="M140.1,81.1h-30.8c-2.1,0-3.9,1.7-3.9,3.9v71.1c0,2.1,1.7,3.9,3.9,3.9h30.8c2.1,0,3.9-1.7,3.9-3.9V85
			C144,82.9,142.3,81.1,140.1,81.1z M138.5,109.4h-28.1v-5.3h28.1V109.4z M138.5,100.6h-28.1v-5.3h28.1V100.6z M138.5,91.9h-28.1
			v-5.3h28.1V91.9z"/>
		<path fill="#FFFFFF" d="M151.6,63.4c-1.7,0-3.3,0.3-5,0.5c-8.9-20.1-29-34.2-52.4-34.2c-30.1,0-54.5,23.2-57,52.7
			c-17.3,1.1-31,15.3-31,32.9c0,18.3,14.8,33.1,33.1,33.1h18.3V84.6c0-3.4,2.7-6.1,6.1-6.1h76.8c3.4,0,6.1,2.7,6.1,6.1v63.8h4.9
			c23.5,0,42.5-19,42.5-42.5C194.1,82.4,175.1,63.4,151.6,63.4z"/>
	</g>
	<path fill="#FFFFFF" d="M149,174.2h-20.3v-1.5c0-0.7-0.5-1.2-1.2-1.2h-1.8V160h-3.3v11.6h-1.8c-0.7,0-1.2,0.5-1.2,1.2v1.5H85.1
		v-1.5c0-0.7-0.5-1.2-1.2-1.2h-1.7V160h-3.3v11.6H77c-0.7,0-1.2,0.5-1.2,1.2v1.5H54.3v4h21.5v1.5c0,0.7,0.5,1.2,1.2,1.2h6.9
		c0.7,0,1.2-0.5,1.2-1.2v-1.5h34.3v1.5c0,0.7,0.5,1.2,1.2,1.2h6.9c0.7,0,1.2-0.5,1.2-1.2v-1.5H149V174.2z"/>
</g>
<g>
	<polygon fill="#A20015" points="324.8,167.2 300.8,167.2 300.8,69 282.7,77.5 282.7,169.6 300.8,172.7 328.8,172.7 	"/>
	<g>
		<path fill="#A20015" d="M362.2,145.7c-3.2,0-5.9,2.6-5.9,5.9c0,3.2,2.6,5.9,5.9,5.9c3.2,0,5.9-2.6,5.9-5.9
			C368.1,148.4,365.4,145.7,362.2,145.7z M362.2,156.9c-2.9,0-5.3-2.4-5.3-5.3c0-2.9,2.4-5.3,5.3-5.3c2.9,0,5.3,2.4,5.3,5.3
			C367.5,154.5,365.1,156.9,362.2,156.9z"/>
		<path fill="#A20015" d="M362.2,116.6c-18.8,0-34.1,15.3-34.1,34.1s15.3,34.1,34.1,34.1c18.8,0,34.1-15.3,34.1-34.1
			S381,116.6,362.2,116.6z M339.3,173.1c-5.1-5.5-8.2-12.8-8.2-20.9l16.6,0c0,3.5,1.3,6.7,3.4,9.1L339.3,173.1z M362.2,164
			c-6.9,0-12.4-5.6-12.4-12.4c0-6.9,5.6-12.4,12.4-12.4c6.9,0,12.4,5.6,12.4,12.4C374.6,158.5,369.1,164,362.2,164z M376.4,150.7
			c0-3.5-1.3-6.7-3.4-9.1l11.8-11.8c5.1,5.5,8.2,12.8,8.2,20.9H376.4z"/>
	</g>
	<path fill="#A20015" d="M379.5,59.4c-1.7,0-3.3,0.3-5,0.5c-8.9-20.1-29-34.2-52.4-34.2c-30.1,0-54.5,23.2-57,52.7
		c-17.3,1.1-31,15.3-31,32.9c0,18.3,14.8,33.1,33.1,33.1H280V75.8l23.5-10.9l71.1,6.1v45.1c11,4,19.6,13.1,22.9,24.4
		c14.5-6.8,24.6-21.4,24.6-38.5C422.1,78.5,403,59.4,379.5,59.4z"/>
</g>
<path fill="#FF0028" d="M225.9-173.3c-1.7,0-3.3,0.3-5,0.5c-8.9-20.1-29-34.2-52.4-34.2c-30.1,0-54.5,23.2-57,52.7
	c-17.3,1.1-31,15.3-31,32.9c0,18.3,14.8,33.1,33.1,33.1h112.3c23.5,0,42.5-19,42.5-42.5C268.4-154.2,249.3-173.3,225.9-173.3z
	 M174.4-105.8c-3.9,0-7.1-3.2-7.1-7.1c0-3.9,3.2-7.1,7.1-7.1c3.9,0,7.1,3.2,7.1,7.1C181.5-108.9,178.3-105.8,174.4-105.8z
	 M185.9-124.4c-2.9-2.9-7-4.8-11.5-4.8s-8.5,1.8-11.5,4.8l-10-10c5.5-5.5,13.1-8.9,21.5-8.9s16,3.4,21.5,8.9L185.9-124.4z
	 M200.1-138.6c-6.6-6.6-15.7-10.7-25.7-10.7c-10,0-19.1,4.1-25.7,10.7l-10-10c9.2-9.2,21.8-14.8,35.7-14.8
	c13.9,0,26.6,5.7,35.7,14.8L200.1-138.6z"/>
</svg>
