<?xml version="1.0" encoding="utf-8"?>
<!-- Generator: Adobe Illustrator 18.1.0, SVG Export Plug-In . SVG Version: 6.00 Build 0)  -->
<svg version="1.1" id="Layer_1" xmlns="http://www.w3.org/2000/svg" xmlns:xlink="http://www.w3.org/1999/xlink" x="0px" y="0px"
	 viewBox="0 0 700 700" enable-background="new 0 0 700 700" xml:space="preserve">
<path fill="#FFFFFF" d="M15.4,566.3c3.7-4.5,5.9-8.9,12.6-9.6c0.7,0,2.2-3.7,2.2-5.2c0-21.5,0-42.9,0-64.4c0-37.7,0-75.5,0-113.2
	c0-11.9,4.5-16.2,16.2-16.2c42.2,0,84.4,0,125.8,0c5.9,0,7.4-1.5,7.4-7.4c-0.7-8.9,0-17,0-25.9c0-9.6,5.2-14.8,14.8-14.8
	c7.4,0,14.8,0,22.2,0c3.7,0,5.2-1.5,5.9-5.2c8.1-53.2,38.4-88.7,89.6-105.8c5.9-2.2,8.1-4.5,7.4-10.3c-0.7-4.5-0.7-8.9,0-13.3
	c1.5-12.6,7.4-22.2,20-27.4c3.7-1.5,3.7-4.5,3.7-7.4c0-27.4,0-54.8,0-82.2c0-6.7,2.9-9.6,8.9-7.4c2.2,0.7,4.5,4.5,6.7,7.4
	c4.5,0,10.3-0.7,16.2,0c9.6,1.5,19.3,3.7,28.9,6.7c12.6,2.9,25.9,4.5,39.2,0c0,1.5,0.7,2.2,0.7,2.9c0,14.1,0,28.9,0,42.9
	c0,3.7-1.5,5.2-4.5,5.9c-13.3,3.7-25.2,1.5-38.4-1.5c-9.6-2.2-19.3-4.5-28.9-5.9c-3.7-0.7-8.1,0-11.9,0c-2.9,0-4.5,2.2-4.5,5.2
	c0,8.9,0,17.7,0,26.7c0,1.5,1.5,4.5,3.7,5.2c13.3,5.9,20,15.5,20,30.3c0,5.2-1.5,12.6,1.5,16.2c2.2,3.7,8.9,4.5,14.1,5.9
	c46.7,19.3,74,54.1,82.2,103.6c0.7,3.7,1.5,5.2,5.9,5.2c7.4,0,14.1,0,21.5,0c10.3,0,15.5,5.2,16.2,15.5c0,8.1,0,16.2,0,23.6
	c0,8.1,0,8.1,8.1,8.1c41.5,0,82.9,0,124.3,0c13.3,0,17,3.7,17,17c0,58.4,0,116.1,0,174.6c0,4.5,0,7.4,5.9,8.9
	c3.7,0.7,5.9,5.9,8.9,9.6c0,8.1,0,17,0,25.2c-2.9,3.7-6.7,7.4-9.6,11.1c-216.8,0-433.6,0-650.4,0c-2.9-2.9-6.7-6.7-9.6-9.6
	C15.4,584.9,15.4,576,15.4,566.3z M195.2,470.9c0,26.7,0,53.2,0,79.2c0,2.2,0.7,5.9,1.5,5.9c3.7,0.7,8.1,0.7,11.9,0
	c0.7,0,2.2-4.5,2.2-6.7c0-51,0-101.3,0-152.4c0-8.1,2.9-13.3,9.6-17c40-22.9,79.9-46.7,120.6-69.6c6.7-3.7,12.6-3.7,19.3,0
	c40,23.6,80.6,46.7,120.6,70.3c6.7,3.7,9.6,8.9,9.6,16.2c0,51,0,102.1,0,153.1c0,5.9,2.2,7.4,7.4,7.4c5.2,0,8.1-0.7,8.1-6.7
	c0-51.8,0-104.4,0-156.1c0-10.3-4.5-18.5-13.3-23.6c-42.2-25.2-84.4-49.6-126.6-74.7c-8.9-5.2-18.5-5.9-27.4,0
	c-44.4,23.6-87.3,48.1-129.5,72.5c-9.6,5.2-14.1,13.3-14.1,24.4C195.2,419.1,195.2,445,195.2,470.9z M406.1,484.2
	c0,22.2,0,43.6,0,65.8c0,5.2,1.5,8.1,7.4,7.4c12.6-0.7,25.9-0.7,38.4,0c5.9,0,8.1-2.2,8.1-8.1c0-29.6,0-58.4,0-88
	c0-14.1,0-28.9,0-42.9c-0.7-19.3-14.1-31-31.8-28.1c-13.3,2.2-22.2,13.3-22.2,28.9C406.1,441.3,406.1,462.8,406.1,484.2z M239.6,485
	c0,21.5,0,43.6,0,65.1c0,5.9,1.5,8.1,7.4,7.4c12.6-0.7,25.9-0.7,38.4,0c5.9,0,8.1-2.2,8.1-8.1c0-29.6,0-58.4,0-88
	c0-14.1,0-28.9,0-42.9c-0.7-19.3-14.1-31-31.8-28.1c-13.3,2.2-22.2,13.3-22.2,28.9C239.6,441.3,239.6,462.8,239.6,485z M376.6,483.5
	c0-22.2,0-44.4,0-66.6c0-14.8-11.9-26.7-26.7-26.7s-26.7,11.9-26.7,27.4c0,45.1,0,89.6,0,134.7c0,4.5,1.5,5.9,5.9,5.9
	c13.3,0,27.4,0,40.7,0c5.2,0,6.7-1.5,6.7-6.7C376.6,527.9,376.6,505.7,376.6,483.5z M96.8,523.4c0-9.6,0-19.3,0-28.9
	c0-3.7-1.5-5.2-5.2-5.2c-8.1,0-16.2,0-24.4,0c-3.7,0-5.2,0.7-5.2,5.2c0,19.3,0,38.4,0,57c0,4.5,1.5,5.9,5.9,5.2c7.4,0,15.5,0,22.9,0
	c4.5,0,5.9-1.5,5.9-5.9C96.8,541.9,96.8,533.1,96.8,523.4z M96.8,423.5c0-9.6,0-18.5,0-28.1c0-3.7-1.5-5.9-5.2-5.9
	c-8.1,0-16.2,0-24.4,0c-3.7,0-5.2,1.5-5.2,5.2c0,19.3,0,38.4,0,57.7c0,3.7,1.5,4.5,5.2,4.5c8.1,0,17,0,25.2,0c3.7,0,5.2-1.5,5.2-5.2
	C96.8,442.8,96.8,433.2,96.8,423.5z M162.7,489.3c-10.3,0-20.7,0-30.3,0c-1.5,0-3.7,2.9-3.7,4.5c0,19.3,0,38.4,0,57.7
	c0,3.7,0.7,5.2,4.5,5.2c8.1,0,17,0,25.2,0c1.5,0,4.5-2.2,4.5-3.7C162.7,532.3,162.7,511.6,162.7,489.3z M537.1,489.3
	c0,22.2,0,42.9,0,63.6c0,1.5,2.9,3.7,4.5,3.7c8.1,0.7,17,0,25.2,0c2.9,0,4.5-1.5,4.5-4.5c0-20,0-39.2,0-59.2c0-1.5-2.2-3.7-3.7-3.7
	C557.8,489.3,548.2,489.3,537.1,489.3z M636.9,489.3c-11.1,0-20.7,0-31,0c-1.5,0-2.9,2.9-2.9,4.5c0,19.3,0,38.4,0,57.7
	c0,3.7,1.5,5.2,5.2,5.2c7.4,0,15.5,0,22.9,0c4.5,0,5.9-1.5,5.9-5.9c0-14.8,0-28.9,0-43.6C636.9,501.9,636.9,496,636.9,489.3z
	 M162.7,456.8c0-21.5,0-42.9,0-63.6c0-1.5-2.2-3.7-3.7-3.7c-8.9,0-17.7,0-25.9,0c-1.5,0-4.5,2.9-4.5,4.5c0,20,0,39.2,0,59.2
	c0,1.5,2.2,3.7,3.7,3.7C142,456.8,151.6,456.8,162.7,456.8z M537.1,456.8c10.3,0,20.7,0,30.3,0c1.5,0,3.7-2.9,3.7-4.5
	c0-19.3,0-38.4,0-57.7c0-2.9-1.5-5.2-4.5-5.2c-8.9,0-17,0-25.9,0c-1.5,0-3.7,2.2-3.7,3.7C537.1,413.9,537.1,435.4,537.1,456.8z
	 M636.9,456.8c0-22.2,0-42.9,0-63.6c0-1.5-2.2-3.7-3.7-3.7c-8.9,0-17-0.7-25.9,0c-1.5,0-4.5,2.9-4.5,3.7c0,20,0,39.2,0,59.2
	c0,1.5,2.2,3.7,3.7,3.7C616.9,456.8,626.6,456.8,636.9,456.8z"/>
</svg>
