<?xml version="1.0" encoding="utf-8"?>
<!-- Generator: Adobe Illustrator 18.1.0, SVG Export Plug-In . SVG Version: 6.00 Build 0)  -->
<svg version="1.1" id="Layer_1" xmlns="http://www.w3.org/2000/svg" xmlns:xlink="http://www.w3.org/1999/xlink" x="0px" y="0px"
	 viewBox="0 0 600 600" enable-background="new 0 0 600 600" xml:space="preserve">
<g>
	<g>
		<defs>
			<path id="SVGID_1_" d="M462.4,144.8c1.1-4.8,1.7-9.8,1.7-14.9c0-37.6-30.5-68.1-68.1-68.1c-4.5,0-9,0.5-13.3,1.3
				c-22.1-23.2-53.3-37.7-88-37.7c-49.1,0-91.3,29-110.6,71c-45.6,2.4-81.8,39.9-81.8,86.1c0,47.6,38.7,86.3,86.3,86.3h240.3
				c36.8,0,66.6-29.8,66.6-66.6C495.3,177.8,482.1,156.4,462.4,144.8z"/>
		</defs>
		<clipPath id="SVGID_2_">
			<use xlink:href="#SVGID_1_"  overflow="visible"/>
		</clipPath>
		<g clip-path="url(#SVGID_2_)">
			<g>
				<g>
					<polygon fill="#59CAEA" points="361.2,96.5 389.6,204.7 412.7,61.3 					"/>
				</g>
				<g>
					<polygon fill="#01AAB5" points="298.7,139.3 389.6,204.7 361.2,96.5 					"/>
				</g>
				<g>
					<polygon fill="#F37326" points="227.4,117.1 179.7,147.1 298.7,139.3 					"/>
				</g>
				<g>
					<polygon fill="#F37029" points="188.6,201.2 193.7,232.8 389.6,204.7 298.7,139.3 					"/>
				</g>
				<g>
					<polygon fill="#B02C9F" points="443,14.7 434.2,28.1 434.2,28.1 452.4,16.3 					"/>
				</g>
				<g>
					<polygon fill="#F37029" points="132.3,232.8 193.7,232.8 188.6,201.2 					"/>
				</g>
				<g>
					<polygon fill="#F8931D" points="298.7,139.3 179.7,147.1 188.6,201.2 					"/>
				</g>
				<g>
					<polygon fill="#F7991E" points="179.7,147.1 121.8,222.4 132.3,232.8 188.6,201.2 					"/>
				</g>
				<g>
					<polygon fill="#068CA9" points="446.1,148.4 436.8,55 412.7,61.3 					"/>
				</g>
				<g>
					<polygon fill="#DA3420" points="196.3,107.3 179.7,147.1 227.4,117.1 					"/>
				</g>
				<g>
					<polygon fill="#B02C9F" points="434.2,28.1 495.4,24.3 452.4,16.3 					"/>
				</g>
				<g>
					<polygon fill="#01B7D4" points="446.1,148.4 389.6,204.7 474,221.2 446.1,148.4 					"/>
				</g>
				<g>
					<polygon fill="#A360B9" points="412.7,61.3 436.8,55 434.2,28.1 434.2,28.1 434.2,28.1 					"/>
				</g>
				<g>
					<polygon fill="#00A7B0" points="389.6,204.7 446.1,148.4 446.1,148.4 412.7,61.3 					"/>
				</g>
				<g>
					<polygon fill="#D61E41" points="446.1,148.4 446.1,148.4 446.1,148.4 					"/>
				</g>
				<g>
					<polygon fill="#C2349B" points="495.4,24.3 495.4,24.3 480.2,-1.6 452.4,16.3 					"/>
				</g>
				<g>
					<path fill="#D61E41" d="M446.1,148.4L446.1,148.4L446.1,148.4z"/>
				</g>
				<g>
					<polygon fill="#EF4136" points="79.2,108.6 53,153.5 179.7,147.1 					"/>
				</g>
				<g>
					<polygon fill="#F8931D" points="313,264.6 389.6,204.7 193.7,232.8 					"/>
				</g>
				<g>
					<path fill="#F36F26" d="M126,284.3c33.8-25.5,67.9-51.4,67.9-51.4h-61.4L126,284.3z"/>
				</g>
				<g>
					<path fill="#D61E41" d="M495.4,24.3L495.4,24.3L495.4,24.3z"/>
				</g>
				<g>
					<polygon fill="#D60EB1" points="494.8,-64.7 457.4,-40.2 467.5,-22.9 					"/>
				</g>
				<g>
					<polygon fill="#FCB315" points="53,153.5 121.8,222.4 179.7,147.1 					"/>
				</g>
				<g>
					<polygon fill="#00A8CB" points="361.2,96.5 412.7,61.3 346.9,41.8 					"/>
				</g>
				<g>
					<polygon fill="#08ACB7" points="412.7,61.3 434.2,28.1 344.8,33.7 346.9,41.8 					"/>
				</g>
				<g>
					<polygon fill="#008A9F" points="443,14.7 389.2,4.6 344.8,33.7 434.2,28.1 					"/>
				</g>
				<g>
					<polygon fill="#F7991E" points="227.4,117.1 298.7,139.3 281.6,82.9 					"/>
				</g>
				<g>
					<polygon fill="#FFC20E" points="389.6,204.7 313,264.6 408.1,289.8 469.1,289.8 					"/>
				</g>
				<g>
					<polygon fill="#2F7888" points="446.1,148.4 495.4,170.8 495.4,99.3 					"/>
				</g>
				<g>
					<path fill="#D61E41" d="M495.4,24.3L495.4,24.3L495.4,24.3z"/>
				</g>
				<g>
					<polygon fill="#00A8CB" points="446.1,148.4 446.1,148.4 495.4,99.3 495.4,39.9 436.8,55 					"/>
				</g>
				<g>
					<polygon fill="#FD9F13" points="389.6,204.7 469.1,289.8 495.4,289.8 495.4,277 474,221.2 					"/>
				</g>
				<g>
					<polygon fill="#59CAEA" points="495.4,277 495.4,225.4 474,221.2 					"/>
				</g>
				<g>
					<polygon fill="#08ACB7" points="474,221.2 495.4,225.4 495.4,170.8 446.1,148.4 					"/>
				</g>
				<g>
					<polygon fill="#8E1D83" points="495.4,24.3 495.4,24.3 495.4,-11.5 480.2,-1.6 					"/>
				</g>
				<g>
					<polygon fill="#8C1670" points="467.5,-22.9 480.2,-1.6 495.4,-11.5 495.4,-65.1 494.8,-64.7 					"/>
				</g>
				<g>
					<polygon fill="#D61E41" points="494.8,-64.7 495.4,-65.1 495.4,-65.6 					"/>
				</g>
				<g>
					<polygon fill="#C2349B" points="457.4,-40.2 494.8,-64.7 495.4,-65.6 495.4,-75.7 443.4,-64.1 					"/>
				</g>
				<g>
					<polygon fill="#B911D1" points="443,14.7 467.5,-22.9 457.4,-40.2 389.2,4.6 					"/>
				</g>
				<g>
					<polygon fill="#38C5ED" points="184.1,28.1 175.3,1.1 151.4,21.7 					"/>
				</g>
				<g>
					<polygon fill="#38C5ED" points="332.9,-17.1 333.7,-33.2 316.9,-27.1 					"/>
				</g>
				<g>
					<polygon fill="#38C5ED" points="254.8,-22.5 246.8,-12.7 260.9,-4.8 					"/>
				</g>
				<g>
					<polygon fill="#38C5ED" points="37.5,-69.7 26.2,-75.3 21.8,-60 					"/>
				</g>
				<g>
					<polygon fill="#38C5ED" points="112.5,-153.1 99.2,-158.9 97.8,-142.1 					"/>
				</g>
				<g>
					<polygon fill="#039BB1" points="195.5,20.5 193.6,10.2 188.7,18 					"/>
				</g>
				<g>
					<polygon fill="#B7059A" points="452.4,16.3 480.2,-1.6 467.5,-22.9 443,14.7 					"/>
				</g>
				<g>
					<path fill="#F5821F" d="M126,284.3l-0.7,5.5h75.5l-7-56.9C193.7,232.8,159.8,258.9,126,284.3z"/>
				</g>
				<g>
					<polygon fill="#F5821F" points="280.7,289.8 408.1,289.8 313,264.6 					"/>
				</g>
				<g>
					<path fill="#FAA21C" d="M132.3,232.8l-10.5-10.5L70,289.7h48.6c2.4-1.8,4.9-3.7,7.3-5.5L132.3,232.8z"/>
				</g>
				<g>
					<path fill="#F5821F" d="M118.6,289.8h6.7l0.7-5.5C123.5,286.1,121.1,288,118.6,289.8z"/>
				</g>
				<g>
					<polygon fill="#F9A01C" points="193.7,232.8 200.7,289.8 280.7,289.8 313,264.6 					"/>
				</g>
				<g>
					<polygon fill="#8E002F" points="-16.7,71.8 -16.7,156.5 61.6,101.8 					"/>
				</g>
				<g>
					<polygon fill="#EE1B39" points="79.2,108.6 61.6,101.8 -16.7,156.5 -16.7,230.8 53,153.5 					"/>
				</g>
				<g>
					<polygon fill="#F89B1D" points="121.8,222.4 53,153.5 70,289.8 					"/>
				</g>
				<g>
					<polygon fill="#EF474A" points="53,153.5 -16.7,230.8 -16.7,289.8 					"/>
				</g>
				<g>
					<polygon fill="#F58120" points="70,289.8 53,153.5 -16.7,289.8 					"/>
				</g>
				<g>
					<polygon fill="#A20994" points="474.9,-149.1 495.4,-160.8 495.4,-222.2 460.5,-161.2 					"/>
				</g>
				<g>
					<polygon fill="#DB3BBF" points="431.7,-185 425.4,-160.2 443.4,-131.3 460.5,-161.2 					"/>
				</g>
				<g>
					<polygon fill="#CF2BAD" points="474.9,-149.1 460.5,-161.2 443.4,-131.3 443.4,-131.3 					"/>
				</g>
				<g>
					<polygon fill="#771F80" points="441.2,-222.2 386.9,-222.2 431.7,-185 					"/>
				</g>
				<g>
					<polygon fill="#E26EC2" points="443.4,-131.3 425.4,-160.2 412.7,-131 					"/>
				</g>
				<g>
					<path fill="#D61E41" d="M443.4-131.3L443.4-131.3L443.4-131.3z"/>
				</g>
				<g>
					<polygon fill="#A20994" points="385.6,-193.1 332.1,-191.1 374.3,-148.1 					"/>
				</g>
				<g>
					<polygon fill="#D60EB1" points="428.4,-95.9 433.5,-86.5 446.9,-97 					"/>
				</g>
				<g>
					<polygon fill="#04769F" points="377.7,-113.4 382.8,-103.9 389.2,-112.8 					"/>
				</g>
				<g>
					<polygon fill="#0181B5" points="332.5,-76.4 275.7,-56.8 327.8,-51.3 					"/>
				</g>
				<g>
					<polygon fill="#911A92" points="495.4,-110.9 443.4,-64.1 495.4,-75.7 					"/>
				</g>
				<g>
					<polygon fill="#CA50B4" points="443.4,-131.3 443.4,-131.3 466.1,-114.5 495.4,-120.9 495.4,-123.7 					"/>
				</g>
				<g>
					<polygon fill="#920479" points="495.4,-132.1 495.4,-160.8 474.9,-149.1 					"/>
				</g>
				<g>
					<polygon fill="#A20994" points="443.4,-131.3 495.4,-123.7 495.4,-132.1 474.9,-149.1 					"/>
				</g>
				<g>
					<polygon fill="#B92E96" points="457.4,-40.2 443.4,-64.1 389.2,4.6 					"/>
				</g>
				<g>
					<polygon fill="#ED4456" points="32.6,19.9 98,76.5 111.7,7.9 					"/>
				</g>
				<g>
					<polygon fill="#EF4136" points="118.7,-13.5 78.5,-47.8 79.9,-12 					"/>
				</g>
				<g>
					<polygon fill="#EF4136" points="144.5,-13.7 155,-7.5 158.5,-17.3 					"/>
				</g>
				<g>
					<polygon fill="#D60EB1" points="393,-12.1 375,-38.3 370.2,-17.2 					"/>
				</g>
				<g>
					<polygon fill="#38C5ED" points="288.6,-180.1 269.4,-195.3 262.2,-169.3 					"/>
				</g>
				<g>
					<polygon fill="#38C5ED" points="255,-141.4 257.6,-131.5 269.3,-137 					"/>
				</g>
				<g>
					<polygon fill="#0181B5" points="255.9,-189.5 233.8,-173.1 257.2,-178 					"/>
				</g>
				<g>
					<polygon fill="#D60EB1" points="302.2,-221.6 276.6,-222.2 288.1,-209.1 					"/>
				</g>
				<g>
					<polygon fill="#D61E42" points="111.7,7.9 98,76.5 153,41.1 					"/>
				</g>
				<g>
					<polygon fill="#D61E42" points="61.6,101.8 79.2,108.6 98,76.5 					"/>
				</g>
				<g>
					<polygon fill="#EE1C36" points="79.2,108.6 179.7,147.1 98,76.5 					"/>
				</g>
				<g>
					<polygon fill="#EE1748" points="32.6,19.9 22,10.7 22,10.7 -13.1,41.6 98,76.5 					"/>
				</g>
				<g>
					<polygon fill="#D61E42" points="22,10.7 22,10.7 -16.7,-22.8 -16.7,40.4 -13.1,41.6 					"/>
				</g>
				<g>
					<polygon fill="#EE5A2F" points="179.7,147.1 196.3,107.3 98,76.5 					"/>
				</g>
				<g>
					<polygon fill="#D61E42" points="-16.7,40.4 -16.7,44.8 -13.1,41.6 					"/>
				</g>
				<g>
					<polygon fill="#E91B3B" points="-13.1,41.6 -16.7,44.8 -16.7,71.8 61.6,101.8 98,76.5 					"/>
				</g>
				<g>
					<polygon fill="#D61E42" points="50.3,-27.9 15,-26.9 25.6,-17.7 					"/>
				</g>
				<g>
					<polygon fill="#D61E42" points="22.1,10.7 32.7,19.9 32.7,19.9 					"/>
				</g>
				<g>
					<polygon fill="#C40F3F" points="-16.7,-22.8 22,10.7 22,10.7 					"/>
				</g>
				<g>
					<polygon fill="#00A8CB" points="344.8,33.7 261.3,16 281.6,82.9 346.9,41.8 					"/>
				</g>
				<g>
					<polygon fill="#039BB1" points="218.6,49.4 196.3,107.3 261.3,16 					"/>
				</g>
				<g>
					<polygon fill="#01B7D4" points="344.8,33.7 389.2,4.6 261.3,16 					"/>
				</g>
				<g>
					<polygon fill="#38C5ED" points="261.3,16 389.2,4.6 310.4,-10.1 					"/>
				</g>
				<g>
					<polygon fill="#058EA4" points="298.7,139.3 361.2,96.5 281.6,82.9 					"/>
				</g>
				<g>
					<polygon fill="#01B7D4" points="281.6,82.9 361.2,96.5 346.9,41.8 					"/>
				</g>
				<g>
					<polygon fill="#B02C9F" points="495.4,39.9 495.4,24.3 436.8,55 					"/>
				</g>
				<g>
					<polygon fill="#D950B5" points="434.2,28.1 436.8,55 495.4,24.3 					"/>
				</g>
				<g>
					<polygon fill="#6C0570" points="460.5,-161.2 495.4,-222.2 433,-184 					"/>
				</g>
				<g>
					<polygon fill="#43075E" points="431.7,-185 433,-184 495.4,-222.2 441.2,-222.2 					"/>
				</g>
				<g>
					<polygon fill="#EF4136" points="48.2,-130.3 94.8,-130.3 94.8,-66.4 					"/>
				</g>
				<g>
					<polygon fill="#FCB315" points="48.2,-130.3 9.2,-100.9 74.5,-94.3 					"/>
				</g>
				<g>
					<polygon fill="#ED1A43" points="98,76.5 196.3,107.3 153,41.1 					"/>
				</g>
				<g>
					<polygon fill="#08ACB7" points="153,41.1 196.3,107.3 218.6,49.4 					"/>
				</g>
				<g>
					<polygon fill="#01B7D4" points="261.3,16 196.3,107.3 281.6,82.9 					"/>
				</g>
				<g>
					<polygon fill="#01AAB5" points="196.3,107.3 227.4,117.1 281.6,82.9 					"/>
				</g>
				<g>
					<polygon fill="#E26EC2" points="107.6,-143.1 109.2,-137.8 103,-139.6 					"/>
				</g>
			</g>
			<g>
				<path fill="#43075E" d="M113.2-106c-1,0.4-2.7,0.8-4.8,0.8c-2.4,0-4.3-0.6-5.8-2c-1.3-1.3-2.1-3.3-2.1-5.8
					c0-4.6,3.2-8.1,8.5-8.1c1.8,0,3.2,0.4,3.9,0.7l-0.5,1.7c-0.8-0.4-1.9-0.7-3.5-0.7c-3.8,0-6.3,2.4-6.3,6.3c0,3.9,2.4,6.3,6,6.3
					c1.3,0,2.3-0.2,2.6-0.4v-4.6H108v-1.7h5.1v7.5H113.2z"/>
				<path fill="#43075E" d="M124.9-112.6h-6.1v5.6h6.8v1.7h-8.8v-15.6h8.5v1.7h-6.4v4.9h6.1C124.9-114.4,124.9-112.6,124.9-112.6z"
					/>
				<path fill="#43075E" d="M141.9-113.3c0,5.4-3.2,8.2-7.3,8.2c-4.2,0-7-3.2-7-7.9c0-5,3.1-8.2,7.3-8.2
					C139.2-121.2,141.9-118,141.9-113.3z M129.9-113.1c0,3.3,1.8,6.3,5,6.3c3.2,0,5-3,5-6.4c0-3.1-1.7-6.3-5-6.3
					C131.6-119.5,129.9-116.5,129.9-113.1z"/>
				<path fill="#43075E" d="M158.1-112.2c-0.1-2.1-0.2-4.8-0.2-6.7h-0.1c-0.5,1.8-1.2,3.8-2,6l-2.7,7.5h-1.5l-2.5-7.4
					c-0.7-2.1-1.3-4.2-1.8-6.1l0,0c0,1.9-0.1,4.5-0.4,6.9l-0.4,6.7h-1.9l1.1-15.6h2.6l2.6,7.5c0.6,1.9,1.2,3.6,1.5,5.2h0.1
					c0.4-1.5,1-3.3,1.7-5.2l2.7-7.5h2.6l1,15.6h-2L158.1-112.2z"/>
				<path fill="#43075E" d="M172-112.6H166v5.6h6.8v1.7H164v-15.6h8.5v1.7H166v4.9h6.1L172-112.6L172-112.6z"/>
				<path fill="#43075E" d="M179.2-119.3h-4.8v-1.7H186v1.7h-4.8v13.9h-2V-119.3z"/>
				<path fill="#43075E" d="M188.1-120.7c1.1-0.2,2.5-0.4,3.8-0.4c2.1,0,3.6,0.4,4.5,1.3c0.8,0.7,1.2,1.8,1.2,3c0,2-1.3,3.5-3,3.9
					v0.1c1.2,0.5,1.9,1.5,2.3,3.1c0.5,2.1,0.8,3.7,1.2,4.3h-2c-0.2-0.5-0.6-1.8-1.1-3.7c-0.5-2.1-1.3-3-3.1-3H190v6.8h-2v-15.5
					H188.1z M190.1-113.7h2c2.1,0,3.6-1.2,3.6-3c0-2-1.4-2.9-3.6-2.9c-1,0-1.7,0.1-2,0.2V-113.7z"/>
				<path fill="#43075E" d="M203-120.9v15.6h-1.9v-15.6H203z"/>
				<path fill="#43075E" d="M217.9-105.8c-0.7,0.4-2.3,0.7-4.2,0.7c-4.4,0-7.7-2.7-7.7-7.9c0-4.9,3.3-8.2,8.1-8.2
					c1.9,0,3.2,0.4,3.7,0.7l-0.5,1.7c-0.7-0.4-1.9-0.6-3.1-0.6c-3.7,0-6.1,2.4-6.1,6.4c0,3.8,2.1,6.3,6,6.3c1.2,0,2.5-0.2,3.3-0.6
					L217.9-105.8z"/>
				<path fill="#43075E" d="M101.4-97.7c0.8-0.2,2.3-0.4,3.7-0.4c2,0,3.3,0.4,4.3,1.2c0.8,0.6,1.3,1.5,1.3,2.7c0,1.5-1,2.9-2.6,3.5
					l0,0c1.4,0.4,3.2,1.5,3.2,3.9c0,1.3-0.5,2.4-1.3,3.1c-1.1,1-2.9,1.4-5.4,1.4c-1.4,0-2.5-0.1-3.1-0.2v-15.2H101.4z M103.5-91.3
					h1.8c2.1,0,3.3-1.1,3.3-2.6c0-1.8-1.4-2.5-3.5-2.5c-1,0-1.4,0.1-1.8,0.1v5H103.5z M103.5-83.8c0.4,0.1,1,0.1,1.7,0.1
					c2,0,4-0.7,4-3c0-2.1-1.8-3-4-3h-1.7V-83.8z"/>
				<path fill="#43075E" d="M116.9-87.2l-1.7,4.9h-2l5.2-15.6h2.4l5.4,15.6h-2.1l-1.7-4.9H116.9z M122-88.8l-1.5-4.5
					c-0.4-1.1-0.6-1.9-0.8-2.9l0,0c-0.2,1-0.5,1.9-0.8,2.9l-1.5,4.5H122z"/>
				<path fill="#43075E" d="M139.5-82.8c-0.7,0.4-2.3,0.7-4.2,0.7c-4.4,0-7.7-2.7-7.7-7.9c0-4.9,3.3-8.2,8.1-8.2
					c1.9,0,3.2,0.4,3.7,0.7l-0.5,1.7c-0.7-0.4-1.9-0.6-3.1-0.6c-3.7,0-6.1,2.4-6.1,6.4c0,3.8,2.1,6.3,6,6.3c1.2,0,2.5-0.2,3.3-0.6
					L139.5-82.8z"/>
				<path fill="#43075E" d="M142.5-97.8h2v7.5h0.1c0.5-0.6,0.8-1.2,1.2-1.7l4.8-5.8h2.5l-5.6,6.5l6.1,8.9h-2.4l-5.1-7.6l-1.4,1.7v6
					h-2v-15.5H142.5z"/>
				<path fill="#43075E" d="M166.9-82.9c-1,0.4-2.7,0.8-4.8,0.8c-2.4,0-4.3-0.6-5.8-2c-1.3-1.3-2.1-3.3-2.1-5.8
					c0-4.6,3.2-8.1,8.5-8.1c1.8,0,3.2,0.4,3.9,0.7l-0.5,1.7c-0.8-0.4-1.9-0.7-3.5-0.7c-3.8,0-6.3,2.4-6.3,6.3c0,3.9,2.4,6.3,6,6.3
					c1.3,0,2.3-0.2,2.6-0.4v-4.6h-3.1v-1.7h5.1V-82.9z"/>
				<path fill="#43075E" d="M170.5-97.7c1.1-0.2,2.5-0.4,3.8-0.4c2.1,0,3.6,0.4,4.5,1.3c0.8,0.7,1.2,1.8,1.2,3c0,2-1.3,3.5-3,3.9
					v0.1c1.2,0.5,1.9,1.5,2.3,3.1c0.5,2.1,0.8,3.7,1.2,4.3h-2c-0.2-0.5-0.6-1.8-1.1-3.7c-0.5-2.1-1.3-3-3.1-3h-1.8v6.8h-2V-97.7z
					 M172.5-90.6h2c2.1,0,3.6-1.2,3.6-3c0-2-1.4-2.9-3.6-2.9c-1,0-1.7,0.1-2,0.2V-90.6z"/>
				<path fill="#43075E" d="M196.7-90.2c0,5.4-3.2,8.2-7.3,8.2c-4.2,0-7-3.2-7-7.9c0-5,3.1-8.2,7.3-8.2
					C194-98.2,196.7-94.9,196.7-90.2z M184.7-90c0,3.3,1.8,6.3,5,6.3s5-3,5-6.4c0-3.1-1.7-6.3-5-6.3C186.3-96.5,184.7-93.4,184.7-90
					z"/>
				<path fill="#43075E" d="M201.8-97.8v9.2c0,3.5,1.5,5,3.6,5c2.3,0,3.8-1.5,3.8-5v-9.2h2v9c0,4.8-2.5,6.8-5.8,6.8
					c-3.2,0-5.6-1.8-5.6-6.7v-9.2H201.8z"/>
				<path fill="#43075E" d="M215.1-82.4V-98h2.1l5,7.9c1.2,1.8,2,3.5,2.7,5.1l0,0c-0.2-2-0.2-3.9-0.2-6.4V-98h1.9v15.6h-1.8l-5-7.9
					c-1.1-1.8-2.1-3.6-2.9-5.2h-0.1c0.1,1.9,0.1,3.8,0.1,6.4v6.7H215.1z"/>
				<path fill="#43075E" d="M230.9-97.7c1.2-0.2,2.7-0.4,4.3-0.4c2.9,0,5,0.7,6.3,1.9c1.4,1.3,2.1,3.1,2.1,5.6s-0.8,4.6-2.3,6.1
					c-1.4,1.4-3.8,2.3-6.9,2.3c-1.4,0-2.6-0.1-3.7-0.2v-15.2H230.9z M232.9-83.9c0.5,0.1,1.2,0.1,2,0.1c4.3,0,6.7-2.4,6.7-6.7
					c0-3.7-2-6-6.3-6c-1.1,0-1.8,0.1-2.4,0.2V-83.9z"/>
			</g>
		</g>
	</g>
</g>
<g>
	<path fill="#FFFFFF" d="M91.4,391v-4.1c-12.7-1.2-20-6.4-20-15.9s7.3-14.6,20-15.8V351h12.1v4.2c12.6,1.2,20,6.4,20,15.8
		s-7.4,14.7-20,15.9v4.1H91.4z M91.4,376.2v-10.3c-5.2,0.7-7.7,2.3-7.7,5.2S86.3,375.6,91.4,376.2z M103.5,365.9v10.3
		c5.2-0.6,7.7-2.3,7.7-5.2S108.7,366.5,103.5,365.9z"/>
	<path fill="#FFFFFF" d="M129.3,391v-40h12.1v21.4l13.9-21.4h12.5v40h-12.1v-22.7L141,391H129.3z"/>
	<path fill="#FFFFFF" d="M173.7,371c0-12.4,9.5-20.7,22-20.7c10.5,0,15.8,6.1,18.2,11.6l-10.4,4.9c-1-3.1-4.1-5.8-7.7-5.8
		c-5.8,0-9.7,4.4-9.7,10c0,5.6,3.9,10,9.7,10c3.6,0,6.7-2.7,7.7-5.8l10.4,4.8c-2.3,5.3-7.7,11.7-18.2,11.7
		C183.2,391.7,173.7,383.3,173.7,371z"/>
	<path fill="#FFFFFF" d="M242.5,391l-9-14.1l-2.2,3V391h-12.1v-40h12.1v15l10.5-15h14.8l-15.1,18.6l15.8,21.4H242.5z"/>
	<path fill="#FFFFFF" d="M287.6,391l-1.4-4.7h-14.4l-1.4,4.7h-13.7l14.8-40h15.2l14.8,40H287.6z M279,362.9l-4,12.9h7.9L279,362.9z"
		/>
	<path fill="#FFFFFF" d="M303,381.1c3.4,0,5.9-2.3,6.9-9.9l2.5-20.2h31.3v40h-12.1v-29.5h-8.2l-1.3,10.5c-1.9,15.8-9.7,19.7-19,19.7
		V381.1z"/>
	<path fill="#FFFFFF" d="M363.7,351v12.6h9.2c9.4,0,14.4,6.2,14.4,13.7c0,7.5-5,13.7-14.4,13.7h-21.4v-40H363.7z M363.7,374.2v6.3
		h7.7c2,0,3.7-1,3.7-3.2c0-2.1-1.6-3.1-3.7-3.1H363.7z"/>
	<path fill="#FFFFFF" d="M419.3,391v-15.3h-14.3V391h-12.1v-40h12.1v14.2h14.3V351h12.1v40H419.3z"/>
	<path fill="#FFFFFF" d="M466.1,391l-1.4-4.7h-14.4l-1.4,4.7H435l14.8-40H465l14.8,40H466.1z M457.4,362.9l-4,12.9h7.9L457.4,362.9z
		"/>
	<path fill="#FFFFFF" d="M481.8,391l7.3-14.2c-3.2-1.6-7.2-5.2-7.2-12.1c0-7.5,5-13.7,14.4-13.7h21.4v40h-12.1v-12.6h-4.4l-5.5,12.6
		H481.8z M505.5,367.9v-6.3h-7.4c-2,0-4,1-4,3.1c0,2.2,1.9,3.2,4,3.2H505.5z"/>
	<path fill="#FFFFFF" d="M113.2,463v-40h21.4c9.4,0,14.4,6.2,14.4,13.7c0,7.4-5,13.7-14.4,13.7h-9.2V463H113.2z M136.7,436.7
		c0-2.2-1.6-3.2-3.7-3.2h-7.7v6.3h7.7C135.1,439.9,136.7,438.8,136.7,436.7z"/>
	<path fill="#FFFFFF" d="M177,463l-1.4-4.7h-14.4l-1.4,4.7h-13.7l14.8-40h15.2l14.8,40H177z M168.3,434.9l-4,12.9h7.9L168.3,434.9z"
		/>
	<path fill="#FFFFFF" d="M190.4,443c0-12.4,9.5-20.7,22-20.7c10.5,0,15.8,6.1,18.2,11.6l-10.4,4.9c-1-3.1-4.1-5.8-7.7-5.8
		c-5.8,0-9.7,4.4-9.7,10c0,5.6,3.9,10,9.7,10c3.6,0,6.7-2.7,7.7-5.8l10.4,4.8c-2.3,5.3-7.7,11.7-18.2,11.7
		C199.9,463.7,190.4,455.3,190.4,443z"/>
	<path fill="#FFFFFF" d="M247.4,435.7c0,3.9,2.3,4.9,5.5,4.9c2.3,0,4.2-0.3,5.8-0.9V423h12.1v40h-12.1v-12.8
		c-3.1,0.6-5.1,0.9-7.6,0.9c-11,0-16-6.2-16-15.5V423h12.3V435.7z"/>
	<path fill="#FFFFFF" d="M278.8,463v-40h30.4v10.6H291v4h17.8v10.6H291v4.4h18.2V463H278.8z"/>
	<path fill="#FFFFFF" d="M324.7,463v-29.5h-10.7V423h33.5v10.6h-10.7V463H324.7z"/>
	<path fill="#FFFFFF" d="M379.8,463v-15.3h-14.3V463h-12.1v-40h12.1v14.2h14.3V423h12.1v40H379.8z"/>
	<path fill="#FFFFFF" d="M426.6,463l-1.4-4.7h-14.4l-1.4,4.7h-13.7l14.8-40h15.2l14.8,40H426.6z M417.9,434.9l-4,12.9h7.9
		L417.9,434.9z"/>
	<path fill="#FFFFFF" d="M442.3,463l7.3-14.2c-3.2-1.6-7.2-5.2-7.2-12.1c0-7.5,5-13.7,14.4-13.7h21.4v40H466v-12.6h-4.4l-5.5,12.6
		H442.3z M466,439.9v-6.3h-7.4c-2,0-4,1-4,3.1c0,2.2,1.9,3.2,4,3.2H466z"/>
	<path fill="#FFFFFF" d="M144.3,515c0-12.4,9.5-20.7,22-20.7c10.5,0,15.8,6.1,18.2,11.6l-10.4,4.9c-1-3.1-4.1-5.8-7.7-5.8
		c-5.8,0-9.7,4.4-9.7,10c0,5.6,3.9,10,9.7,10c3.6,0,6.7-2.7,7.7-5.8l10.4,4.8c-2.3,5.3-7.7,11.7-18.2,11.7
		C153.8,535.7,144.3,527.3,144.3,515z"/>
	<path fill="#FFFFFF" d="M189.8,535v-40h12.1v21.4l13.9-21.4h12.5v40h-12.1v-22.7L201.4,535H189.8z"/>
	<path fill="#FFFFFF" d="M234.1,515c0-12.4,9.5-20.7,22-20.7c10.5,0,15.8,6.1,18.2,11.6l-10.4,4.9c-1-3.1-4.1-5.8-7.7-5.8
		c-5.8,0-9.7,4.4-9.7,10c0,5.6,3.9,10,9.7,10c3.6,0,6.7-2.7,7.7-5.8l10.4,4.8c-2.3,5.3-7.7,11.7-18.2,11.7
		C243.6,535.7,234.1,527.3,234.1,515z"/>
	<path fill="#FFFFFF" d="M288.2,535v-29.5h-10.7V495H311v10.6h-10.7V535H288.2z"/>
	<path fill="#FFFFFF" d="M316.8,535v-40h30.4v10.6h-18.2v4h17.8v10.6h-17.8v4.4h18.2V535H316.8z"/>
	<path fill="#FFFFFF" d="M389.5,535V511l-8.9,24.1h-5.4l-8.9-24.1V535h-12.1v-40h16.7l7,19.2l7-19.2h16.7v40H389.5z"/>
	<path fill="#FFFFFF" d="M436.3,535l-1.4-4.7h-14.4L419,535h-13.7l14.8-40h15.2l14.8,40H436.3z M427.6,506.9l-4,12.9h7.9
		L427.6,506.9z"/>
</g>
</svg>
