<?xml version="1.0" encoding="utf-8"?>
<!-- Generator: Adobe Illustrator 18.1.0, SVG Export Plug-In . SVG Version: 6.00 Build 0)  -->
<svg version="1.1" id="Layer_1" xmlns="http://www.w3.org/2000/svg" xmlns:xlink="http://www.w3.org/1999/xlink" x="0px" y="0px"
	 viewBox="0 0 300 300" enable-background="new 0 0 300 300" xml:space="preserve">
<circle fill="none" stroke="#C9C9C9" stroke-width="8" stroke-miterlimit="10" cx="150.5" cy="148.5" r="138.2"/>
<g>
	<ellipse fill="#FFFFFF" stroke="#C9C9C9" stroke-width="8" stroke-miterlimit="10" cx="150.4" cy="181.3" rx="60.1" ry="12.5"/>
	<path fill="#FFFFFF" stroke="#C9C9C9" stroke-width="8" stroke-miterlimit="10" d="M90.2,206.5c0,7,26.9,12.5,60.1,12.5
		s60.1-5.8,60.1-12.5v-25.2c0,7-26.9,12.5-60.1,12.5s-60.1-5.8-60.1-12.5V206.5z"/>
</g>
<g>
	<ellipse fill="#FFFFFF" stroke="#C9C9C9" stroke-width="8" stroke-miterlimit="10" cx="150.4" cy="140" rx="60.1" ry="12.5"/>
	<path fill="#FFFFFF" stroke="#C9C9C9" stroke-width="8" stroke-miterlimit="10" d="M90.2,165c0,7,26.9,12.5,60.1,12.5
		s60.1-5.8,60.1-12.5v-25c0,7-26.9,12.5-60.1,12.5s-60.1-5.8-60.1-12.5V165z"/>
</g>
<g>
	<ellipse fill="#FFFFFF" stroke="#C9C9C9" stroke-width="8" stroke-miterlimit="10" cx="150.4" cy="98.5" rx="60.1" ry="12.5"/>
	<path fill="#FFFFFF" stroke="#C9C9C9" stroke-width="8" stroke-miterlimit="10" d="M90.2,123.5c0,7,26.9,12.5,60.1,12.5
		s60.1-5.8,60.1-12.5v-25c0,7-26.9,12.5-60.1,12.5s-60.1-5.8-60.1-12.5V123.5z"/>
</g>
</svg>
