<?xml version="1.0" encoding="utf-8"?>
<!-- Generator: Adobe Illustrator 18.1.0, SVG Export Plug-In . SVG Version: 6.00 Build 0)  -->
<svg version="1.1" id="Layer_1" xmlns="http://www.w3.org/2000/svg" xmlns:xlink="http://www.w3.org/1999/xlink" x="0px" y="0px"
	 viewBox="0 0 190 45" enable-background="new 0 0 190 45" xml:space="preserve">
<g>
	<g>
		<defs>
			<path id="SVGID_1_" d="M66.5,22.2c0.2-0.9,0.3-1.8,0.3-2.7c0-6.9-5.6-12.5-12.5-12.5c-0.8,0-1.7,0.1-2.5,0.2
				c-4.1-4.3-9.8-6.9-16.2-6.9c-9,0-16.8,5.4-20.4,13.1C6.8,13.7,0.1,20.6,0.1,29.1C0.1,37.9,7.2,45,16,45h44.2
				c6.8,0,12.3-5.5,12.3-12.3C72.5,28.2,70.1,24.3,66.5,22.2z"/>
		</defs>
		<clipPath id="SVGID_2_">
			<use xlink:href="#SVGID_1_"  overflow="visible"/>
		</clipPath>
		<g clip-path="url(#SVGID_2_)">
			<g>
				<g>
					<polygon fill="#59CAEA" points="47.8,13.3 53.1,33.2 57.3,6.8 					"/>
				</g>
				<g>
					<polygon fill="#01AAB5" points="36.3,21.2 53.1,33.2 47.8,13.3 					"/>
				</g>
				<g>
					<polygon fill="#F37326" points="23.2,17.1 14.4,22.6 36.3,21.2 					"/>
				</g>
				<g>
					<polygon fill="#F37029" points="16,32.6 17,38.4 53.1,33.2 36.3,21.2 					"/>
				</g>
				<g>
					<polygon fill="#B02C9F" points="62.9,-1.8 61.3,0.7 61.3,0.7 64.6,-1.5 					"/>
				</g>
				<g>
					<polygon fill="#F37029" points="5.7,38.4 17,38.4 16,32.6 					"/>
				</g>
				<g>
					<polygon fill="#F8931D" points="36.3,21.2 14.4,22.6 16,32.6 					"/>
				</g>
				<g>
					<polygon fill="#F7991E" points="14.4,22.6 3.7,36.5 5.7,38.4 16,32.6 					"/>
				</g>
				<g>
					<polygon fill="#068CA9" points="63.5,22.8 61.8,5.6 57.3,6.8 					"/>
				</g>
				<g>
					<polygon fill="#DA3420" points="17.5,15.3 14.4,22.6 23.2,17.1 					"/>
				</g>
				<g>
					<polygon fill="#B02C9F" points="61.3,0.7 72.5,0 64.6,-1.5 					"/>
				</g>
				<g>
					<polygon fill="#01B7D4" points="63.5,22.8 53.1,33.2 68.6,36.3 63.5,22.8 63.5,22.8 					"/>
				</g>
				<g>
					<polygon fill="#A360B9" points="57.3,6.8 61.8,5.6 61.3,0.7 61.3,0.7 61.3,0.7 					"/>
				</g>
				<g>
					<polygon fill="#00A7B0" points="53.1,33.2 63.5,22.8 63.5,22.8 57.3,6.8 					"/>
				</g>
				<g>
					<rect x="63.5" y="22.8" fill="#D61E41" width="0" height="0"/>
				</g>
				<g>
					<polygon fill="#C2349B" points="72.5,0 72.5,0 69.7,-4.8 64.6,-1.5 					"/>
				</g>
				<g>
					<polygon fill="#D61E41" points="63.5,22.8 63.5,22.8 63.5,22.8 					"/>
				</g>
				<g>
					<polygon fill="#EF4136" points="-4.1,15.5 -9,23.8 14.4,22.6 					"/>
				</g>
				<g>
					<polygon fill="#F8931D" points="39,44.2 53.1,33.2 17,38.4 					"/>
				</g>
				<g>
					<path fill="#F36F26" d="M4.5,47.9c6.2-4.7,12.5-9.5,12.5-9.5H5.7L4.5,47.9z"/>
				</g>
				<g>
					<polygon fill="#D61E41" points="72.5,0 72.5,0 72.5,0 					"/>
				</g>
				<g>
					<polygon fill="#D60EB1" points="72.4,-16.4 65.6,-11.9 67.4,-8.7 					"/>
				</g>
				<g>
					<polygon fill="#FCB315" points="-9,23.8 3.7,36.5 14.4,22.6 					"/>
				</g>
				<g>
					<polygon fill="#00A8CB" points="47.8,13.3 57.3,6.8 45.2,3.2 					"/>
				</g>
				<g>
					<polygon fill="#08ACB7" points="57.3,6.8 61.3,0.7 44.8,1.7 45.2,3.2 					"/>
				</g>
				<g>
					<polygon fill="#008A9F" points="62.9,-1.8 53,-3.7 44.8,1.7 61.3,0.7 					"/>
				</g>
				<g>
					<polygon fill="#F7991E" points="23.2,17.1 36.3,21.2 33.2,10.8 					"/>
				</g>
				<g>
					<polygon fill="#FFC20E" points="53.1,33.2 39,44.2 56.5,48.9 67.7,48.9 					"/>
				</g>
				<g>
					<polygon fill="#2F7888" points="63.5,22.8 72.5,27 72.5,13.8 63.5,22.8 					"/>
				</g>
				<g>
					<polygon fill="#D61E41" points="72.5,0 72.5,0 72.5,0 					"/>
				</g>
				<g>
					<polygon fill="#00A8CB" points="63.5,22.8 63.5,22.8 72.5,13.8 72.5,2.9 61.8,5.6 					"/>
				</g>
				<g>
					<polygon fill="#FD9F13" points="53.1,33.2 67.7,48.9 72.5,48.9 72.5,46.5 68.6,36.3 					"/>
				</g>
				<g>
					<polygon fill="#59CAEA" points="72.5,46.5 72.5,37 68.6,36.3 					"/>
				</g>
				<g>
					<polygon fill="#08ACB7" points="68.6,36.3 72.5,37 72.5,27 63.5,22.8 					"/>
				</g>
				<g>
					<polygon fill="#8E1D83" points="72.5,0 72.5,0 72.5,-6.6 69.7,-4.8 					"/>
				</g>
				<g>
					<polygon fill="#8C1670" points="67.4,-8.7 69.7,-4.8 72.5,-6.6 72.5,-16.5 72.4,-16.4 					"/>
				</g>
				<g>
					<polygon fill="#D61E41" points="72.4,-16.4 72.5,-16.5 72.5,-16.6 					"/>
				</g>
				<g>
					<polygon fill="#C2349B" points="65.6,-11.9 72.4,-16.4 72.5,-16.6 72.5,-18.4 63,-16.3 					"/>
				</g>
				<g>
					<polygon fill="#B911D1" points="62.9,-1.8 67.4,-8.7 65.6,-11.9 53,-3.7 					"/>
				</g>
				<g>
					<polygon fill="#38C5ED" points="15.2,0.7 13.6,-4.3 9.2,-0.5 					"/>
				</g>
				<g>
					<polygon fill="#38C5ED" points="42.6,-7.7 42.8,-10.6 39.7,-9.5 					"/>
				</g>
				<g>
					<polygon fill="#38C5ED" points="28.2,-8.6 26.8,-6.8 29.3,-5.4 					"/>
				</g>
				<g>
					<polygon fill="#38C5ED" points="-11.8,-17.3 -13.9,-18.4 -14.7,-15.5 					"/>
				</g>
				<g>
					<polygon fill="#38C5ED" points="2,-32.7 -0.4,-33.8 -0.7,-30.7 					"/>
				</g>
				<g>
					<polygon fill="#039BB1" points="17.3,-0.7 17,-2.6 16.1,-1.2 					"/>
				</g>
				<g>
					<polygon fill="#B7059A" points="64.6,-1.5 69.7,-4.8 67.4,-8.7 62.9,-1.8 					"/>
				</g>
				<g>
					<path fill="#F5821F" d="M4.5,47.9l-0.1,1h13.9L17,38.4C17,38.4,10.7,43.2,4.5,47.9z"/>
				</g>
				<g>
					<polygon fill="#F5821F" points="33,48.9 56.5,48.9 39,44.2 					"/>
				</g>
				<g>
					<path fill="#FAA21C" d="M5.7,38.4l-1.9-1.9l-9.5,12.4h8.9c0.4-0.3,0.9-0.7,1.3-1L5.7,38.4z"/>
				</g>
				<g>
					<path fill="#F5821F" d="M3.1,48.9h1.2l0.1-1C4,48.2,3.6,48.5,3.1,48.9z"/>
				</g>
				<g>
					<polygon fill="#F9A01C" points="17,38.4 18.3,48.9 33,48.9 39,44.2 					"/>
				</g>
				<g>
					<polygon fill="#8E002F" points="-21.8,8.7 -21.8,24.3 -7.4,14.3 					"/>
				</g>
				<g>
					<polygon fill="#EE1B39" points="-4.1,15.5 -7.4,14.3 -21.8,24.3 -21.8,38 -9,23.8 					"/>
				</g>
				<g>
					<polygon fill="#F89B1D" points="3.7,36.5 -9,23.8 -5.8,48.9 					"/>
				</g>
				<g>
					<polygon fill="#EF474A" points="-9,23.8 -21.8,38 -21.8,48.9 					"/>
				</g>
				<g>
					<polygon fill="#F58120" points="-5.8,48.9 -9,23.8 -21.8,48.9 					"/>
				</g>
				<g>
					<polygon fill="#A20994" points="68.8,-32 72.5,-34.1 72.5,-45.4 66.1,-34.2 					"/>
				</g>
				<g>
					<polygon fill="#DB3BBF" points="60.8,-38.6 59.7,-34 63,-28.7 66.1,-34.2 					"/>
				</g>
				<g>
					<polygon fill="#CF2BAD" points="68.8,-32 66.1,-34.2 63,-28.7 63,-28.7 					"/>
				</g>
				<g>
					<polygon fill="#771F80" points="62.6,-45.4 52.6,-45.4 60.8,-38.6 					"/>
				</g>
				<g>
					<polygon fill="#E26EC2" points="63,-28.7 59.7,-34 57.3,-28.6 63,-28.7 					"/>
				</g>
				<g>
					<polygon fill="#D61E41" points="63,-28.7 63,-28.7 63,-28.7 					"/>
				</g>
				<g>
					<polygon fill="#A20994" points="52.3,-40.1 42.5,-39.7 50.2,-31.8 					"/>
				</g>
				<g>
					<polygon fill="#D60EB1" points="60.2,-22.2 61.2,-20.4 63.6,-22.4 					"/>
				</g>
				<g>
					<polygon fill="#04769F" points="50.9,-25.4 51.8,-23.6 53,-25.3 					"/>
				</g>
				<g>
					<polygon fill="#0181B5" points="42.6,-18.6 32.1,-15 41.7,-13.9 					"/>
				</g>
				<g>
					<polygon fill="#911A92" points="72.5,-24.9 63,-16.3 72.5,-18.4 					"/>
				</g>
				<g>
					<polygon fill="#CA50B4" points="63,-28.7 63,-28.7 67.2,-25.6 72.5,-26.8 72.5,-27.3 					"/>
				</g>
				<g>
					<polygon fill="#920479" points="72.5,-28.8 72.5,-34.1 68.8,-32 					"/>
				</g>
				<g>
					<polygon fill="#A20994" points="63,-28.7 72.5,-27.3 72.5,-28.8 68.8,-32 					"/>
				</g>
				<g>
					<polygon fill="#B92E96" points="65.6,-11.9 63,-16.3 53,-3.7 					"/>
				</g>
				<g>
					<polygon fill="#ED4456" points="-12.7,-0.8 -0.6,9.6 1.9,-3 					"/>
				</g>
				<g>
					<polygon fill="#EF4136" points="3.2,-7 -4.2,-13.3 -4,-6.7 					"/>
				</g>
				<g>
					<polygon fill="#EF4136" points="7.9,-7 9.9,-5.9 10.5,-7.7 					"/>
				</g>
				<g>
					<polygon fill="#D60EB1" points="53.7,-6.7 50.4,-11.5 49.5,-7.7 					"/>
				</g>
				<g>
					<polygon fill="#38C5ED" points="34.5,-37.7 30.9,-40.5 29.6,-35.7 					"/>
				</g>
				<g>
					<polygon fill="#38C5ED" points="28.3,-30.5 28.7,-28.7 30.9,-29.7 					"/>
				</g>
				<g>
					<polygon fill="#0181B5" points="28.4,-39.4 24.4,-36.4 28.7,-37.3 					"/>
				</g>
				<g>
					<polygon fill="#D60EB1" points="37,-45.3 32.2,-45.4 34.4,-43 					"/>
				</g>
				<g>
					<polygon fill="#D61E42" points="1.9,-3 -0.6,9.6 9.5,3.1 					"/>
				</g>
				<g>
					<polygon fill="#D61E42" points="-7.4,14.3 -4.1,15.5 -0.6,9.6 					"/>
				</g>
				<g>
					<polygon fill="#EE1C36" points="-4.1,15.5 14.4,22.6 -0.6,9.6 					"/>
				</g>
				<g>
					<polygon fill="#EE1748" points="-12.7,-0.8 -14.6,-2.5 -14.6,-2.5 -21.1,3.2 -0.6,9.6 -12.7,-0.8 					"/>
				</g>
				<g>
					<polygon fill="#D61E42" points="-14.6,-2.5 -14.6,-2.5 -21.8,-8.7 -21.8,2.9 -21.1,3.2 					"/>
				</g>
				<g>
					<polygon fill="#EE5A2F" points="14.4,22.6 17.5,15.3 -0.6,9.6 					"/>
				</g>
				<g>
					<polygon fill="#D61E42" points="-21.8,2.9 -21.8,3.7 -21.1,3.2 					"/>
				</g>
				<g>
					<polygon fill="#E91B3B" points="-21.1,3.2 -21.8,3.7 -21.8,8.7 -7.4,14.3 -0.6,9.6 					"/>
				</g>
				<g>
					<polygon fill="#D61E42" points="-9.4,-9.6 -15.9,-9.4 -14,-7.8 					"/>
				</g>
				<g>
					
						<rect x="-15" y="-1.7" transform="matrix(0.7562 0.6543 -0.6543 0.7562 -4.4311 8.5286)" fill="#D61E42" width="2.6" height="0"/>
				</g>
				<g>
					
						<rect x="-22.9" y="-5.6" transform="matrix(0.7562 0.6543 -0.6543 0.7562 -8.1111 10.5435)" fill="#C40F3F" width="9.4" height="0"/>
				</g>
				<g>
					<polygon fill="#00A8CB" points="44.8,1.7 29.4,-1.6 33.2,10.8 45.2,3.2 					"/>
				</g>
				<g>
					<polygon fill="#039BB1" points="21.6,4.6 17.5,15.3 29.4,-1.6 					"/>
				</g>
				<g>
					<polygon fill="#01B7D4" points="44.8,1.7 53,-3.7 29.4,-1.6 					"/>
				</g>
				<g>
					<polygon fill="#38C5ED" points="29.4,-1.6 53,-3.7 38.5,-6.4 					"/>
				</g>
				<g>
					<polygon fill="#058EA4" points="36.3,21.2 47.8,13.3 33.2,10.8 					"/>
				</g>
				<g>
					<polygon fill="#01B7D4" points="33.2,10.8 47.8,13.3 45.2,3.2 					"/>
				</g>
				<g>
					<polygon fill="#B02C9F" points="72.5,2.9 72.5,0 61.8,5.6 					"/>
				</g>
				<g>
					<polygon fill="#D950B5" points="61.3,0.7 61.8,5.6 72.5,0 61.3,0.7 					"/>
				</g>
				<g>
					<polygon fill="#6C0570" points="66.1,-34.2 72.5,-45.4 61.1,-38.4 					"/>
				</g>
				<g>
					<polygon fill="#43075E" points="60.8,-38.6 61.1,-38.4 72.5,-45.4 62.6,-45.4 					"/>
				</g>
				<g>
					<polygon fill="#EF4136" points="-9.8,-28.5 -1.3,-28.5 -1.3,-16.7 					"/>
				</g>
				<g>
					<polygon fill="#FCB315" points="-9.8,-28.5 -17,-23.1 -5,-21.9 					"/>
				</g>
				<g>
					<polygon fill="#ED1A43" points="-0.6,9.6 17.5,15.3 9.5,3.1 					"/>
				</g>
				<g>
					<polygon fill="#08ACB7" points="9.5,3.1 17.5,15.3 21.6,4.6 					"/>
				</g>
				<g>
					<polygon fill="#01B7D4" points="29.4,-1.6 17.5,15.3 33.2,10.8 					"/>
				</g>
				<g>
					<polygon fill="#01AAB5" points="17.5,15.3 23.2,17.1 33.2,10.8 					"/>
				</g>
				<g>
					<polygon fill="#E26EC2" points="1.1,-30.9 1.4,-29.9 0.3,-30.2 					"/>
				</g>
			</g>
			<g>
				<path fill="#43075E" d="M2.2-24C2-24,1.7-23.9,1.3-23.9c-0.4,0-0.8-0.1-1.1-0.4c-0.2-0.2-0.4-0.6-0.4-1.1c0-0.9,0.6-1.5,1.6-1.5
					c0.3,0,0.6,0.1,0.7,0.1L2-26.4c-0.2-0.1-0.3-0.1-0.6-0.1c-0.7,0-1.2,0.4-1.2,1.2c0,0.7,0.4,1.2,1.1,1.2c0.2,0,0.4,0,0.5-0.1
					v-0.9H1.2v-0.3h0.9V-24z"/>
				<path fill="#43075E" d="M4.3-25.2H3.2v1h1.2v0.3H2.8v-2.9h1.5v0.3H3.2v0.9h1.1V-25.2z"/>
				<path fill="#43075E" d="M7.4-25.4c0,1-0.6,1.5-1.3,1.5c-0.8,0-1.3-0.6-1.3-1.5c0-0.9,0.6-1.5,1.3-1.5
					C6.9-26.8,7.4-26.2,7.4-25.4z M5.2-25.3c0,0.6,0.3,1.2,0.9,1.2c0.6,0,0.9-0.5,0.9-1.2c0-0.6-0.3-1.2-0.9-1.2
					C5.5-26.5,5.2-26,5.2-25.3z"/>
				<path fill="#43075E" d="M10.4-25.2c0-0.4,0-0.9,0-1.2h0c-0.1,0.3-0.2,0.7-0.4,1.1l-0.5,1.4H9.2l-0.5-1.4
					c-0.1-0.4-0.3-0.8-0.3-1.1h0c0,0.4,0,0.8-0.1,1.3l-0.1,1.2H7.9l0.2-2.9h0.5l0.5,1.4c0.1,0.4,0.2,0.7,0.3,1h0
					c0.1-0.3,0.2-0.6,0.3-1l0.5-1.4h0.5l0.2,2.9h-0.4L10.4-25.2z"/>
				<path fill="#43075E" d="M13-25.2h-1.1v1h1.2v0.3h-1.6v-2.9h1.5v0.3h-1.2v0.9H13V-25.2z"/>
				<path fill="#43075E" d="M14.3-26.5h-0.9v-0.3h2.1v0.3h-0.9v2.6h-0.4V-26.5z"/>
				<path fill="#43075E" d="M16-26.7c0.2,0,0.5-0.1,0.7-0.1c0.4,0,0.7,0.1,0.8,0.2c0.1,0.1,0.2,0.3,0.2,0.5c0,0.4-0.2,0.6-0.5,0.7v0
					c0.2,0.1,0.4,0.3,0.4,0.6c0.1,0.4,0.2,0.7,0.2,0.8h-0.4c0-0.1-0.1-0.3-0.2-0.7c-0.1-0.4-0.2-0.5-0.6-0.6h-0.3v1.2H16V-26.7z
					 M16.3-25.4h0.4c0.4,0,0.6-0.2,0.6-0.5c0-0.4-0.3-0.5-0.7-0.5c-0.2,0-0.3,0-0.4,0V-25.4z"/>
				<path fill="#43075E" d="M18.7-26.8v2.9h-0.4v-2.9H18.7z"/>
				<path fill="#43075E" d="M21.4-24c-0.1,0.1-0.4,0.1-0.8,0.1c-0.8,0-1.4-0.5-1.4-1.5c0-0.9,0.6-1.5,1.5-1.5c0.4,0,0.6,0.1,0.7,0.1
					l-0.1,0.3c-0.1-0.1-0.3-0.1-0.6-0.1c-0.7,0-1.1,0.4-1.1,1.2c0,0.7,0.4,1.2,1.1,1.2c0.2,0,0.5,0,0.6-0.1L21.4-24z"/>
				<path fill="#43075E" d="M0-22.5c0.2,0,0.4-0.1,0.7-0.1c0.4,0,0.6,0.1,0.8,0.2c0.1,0.1,0.2,0.3,0.2,0.5c0,0.3-0.2,0.5-0.5,0.6v0
					c0.3,0.1,0.6,0.3,0.6,0.7c0,0.2-0.1,0.4-0.2,0.6c-0.2,0.2-0.5,0.3-1,0.3c-0.3,0-0.5,0-0.6,0V-22.5z M0.4-21.3h0.3
					c0.4,0,0.6-0.2,0.6-0.5c0-0.3-0.3-0.5-0.6-0.5c-0.2,0-0.3,0-0.3,0V-21.3z M0.4-19.9c0.1,0,0.2,0,0.3,0c0.4,0,0.7-0.1,0.7-0.6
					c0-0.4-0.3-0.6-0.7-0.6H0.4V-19.9z"/>
				<path fill="#43075E" d="M2.8-20.6l-0.3,0.9H2.2l1-2.9h0.4l1,2.9H4.2l-0.3-0.9H2.8z M3.8-20.9l-0.3-0.8c-0.1-0.2-0.1-0.4-0.1-0.5
					h0c0,0.2-0.1,0.3-0.1,0.5l-0.3,0.8H3.8z"/>
				<path fill="#43075E" d="M7-19.8c-0.1,0.1-0.4,0.1-0.8,0.1c-0.8,0-1.4-0.5-1.4-1.5c0-0.9,0.6-1.5,1.5-1.5c0.4,0,0.6,0.1,0.7,0.1
					l-0.1,0.3c-0.1-0.1-0.3-0.1-0.6-0.1c-0.7,0-1.1,0.4-1.1,1.2c0,0.7,0.4,1.2,1.1,1.2c0.2,0,0.5,0,0.6-0.1L7-19.8z"/>
				<path fill="#43075E" d="M7.5-22.5h0.4v1.4h0c0.1-0.1,0.2-0.2,0.2-0.3L9-22.5h0.5l-1,1.2l1.1,1.7H9.1l-0.9-1.4l-0.3,0.3v1.1H7.5
					V-22.5z"/>
				<path fill="#43075E" d="M12-19.8c-0.2,0.1-0.5,0.2-0.9,0.2c-0.4,0-0.8-0.1-1.1-0.4c-0.2-0.2-0.4-0.6-0.4-1.1
					c0-0.9,0.6-1.5,1.6-1.5c0.3,0,0.6,0.1,0.7,0.1l-0.1,0.3c-0.2-0.1-0.3-0.1-0.6-0.1c-0.7,0-1.2,0.4-1.2,1.2c0,0.7,0.4,1.2,1.1,1.2
					c0.2,0,0.4,0,0.5-0.1v-0.9h-0.6v-0.3H12V-19.8z"/>
				<path fill="#43075E" d="M12.7-22.5c0.2,0,0.5-0.1,0.7-0.1c0.4,0,0.7,0.1,0.8,0.2c0.1,0.1,0.2,0.3,0.2,0.5c0,0.4-0.2,0.6-0.5,0.7
					v0c0.2,0.1,0.4,0.3,0.4,0.6c0.1,0.4,0.2,0.7,0.2,0.8h-0.4c0-0.1-0.1-0.3-0.2-0.7c-0.1-0.4-0.2-0.5-0.6-0.6h-0.3v1.2h-0.4V-22.5z
					 M13.1-21.2h0.4c0.4,0,0.6-0.2,0.6-0.5c0-0.4-0.3-0.5-0.7-0.5c-0.2,0-0.3,0-0.4,0V-21.2z"/>
				<path fill="#43075E" d="M17.5-21.1c0,1-0.6,1.5-1.3,1.5c-0.8,0-1.3-0.6-1.3-1.5c0-0.9,0.6-1.5,1.3-1.5
					C17-22.6,17.5-22,17.5-21.1z M15.3-21.1c0,0.6,0.3,1.2,0.9,1.2c0.6,0,0.9-0.5,0.9-1.2c0-0.6-0.3-1.2-0.9-1.2
					C15.6-22.3,15.3-21.7,15.3-21.1z"/>
				<path fill="#43075E" d="M18.5-22.5v1.7c0,0.6,0.3,0.9,0.7,0.9c0.4,0,0.7-0.3,0.7-0.9v-1.7h0.4v1.7c0,0.9-0.5,1.2-1.1,1.2
					c-0.6,0-1-0.3-1-1.2v-1.7H18.5z"/>
				<path fill="#43075E" d="M20.9-19.7v-2.9h0.4l0.9,1.5c0.2,0.3,0.4,0.6,0.5,0.9l0,0c0-0.4,0-0.7,0-1.2v-1.2h0.3v2.9h-0.4l-0.9-1.5
					c-0.2-0.3-0.4-0.6-0.5-1l0,0c0,0.4,0,0.7,0,1.2v1.2H20.9z"/>
				<path fill="#43075E" d="M23.8-22.5c0.2,0,0.5-0.1,0.8-0.1c0.5,0,0.9,0.1,1.2,0.4c0.3,0.2,0.4,0.6,0.4,1c0,0.5-0.1,0.9-0.4,1.1
					c-0.3,0.3-0.7,0.4-1.3,0.4c-0.3,0-0.5,0-0.7,0V-22.5z M24.2-20c0.1,0,0.2,0,0.4,0c0.8,0,1.2-0.4,1.2-1.2c0-0.7-0.4-1.1-1.2-1.1
					c-0.2,0-0.3,0-0.4,0V-20z"/>
			</g>
		</g>
	</g>
	<g>
		<path fill="#FFFFFF" d="M22.7,32.4V31c-3.8,0-6.1-2.3-6.1-5.4c0-3.1,2.3-5.3,6.1-5.3v-1.1h2.7v1.1c3.7,0,6.1,2.3,6.1,5.3
			S29.1,31,25.3,31v1.3H22.7z M22.7,22.7c-2,0-3.3,1.2-3.3,3c0,1.8,1.3,3,3.3,3V22.7z M25.3,28.6c2,0,3.3-1.2,3.3-3
			c0-1.8-1.3-3-3.3-3V28.6z"/>
		<path fill="#FFFFFF" d="M33.6,19.6h5c2.9,0,4.7,1.7,4.7,4.3c0,2.8-2.2,4.3-4.9,4.3h-2v3.7h-2.7V19.6z M38.4,25.8
			c1.3,0,2.1-0.8,2.1-1.9c0-1.2-0.8-1.9-2.2-1.9h-2.1v3.7H38.4z"/>
		<path fill="#FFFFFF" d="M44.8,25.8c0-3.5,2.6-6.3,6.4-6.3c2.3,0,3.6,0.9,4.7,2l-1.6,1.9c-0.9-0.9-1.7-1.4-3.1-1.4
			c-2.1,0-3.5,1.7-3.5,3.8c0,2.1,1.5,3.8,3.5,3.8c1.4,0,2.3-0.6,3.2-1.4l1.7,1.8c-1.3,1.3-2.7,2.1-5,2.1
			C47.4,32.1,44.8,29.3,44.8,25.8z"/>
	</g>
</g>
<g>
	<path fill="#0B1943" d="M87.6,13.4v-0.7c-2.3-0.2-3.6-1.2-3.6-2.9c0-1.7,1.3-2.7,3.6-2.9V6.1h1.9v0.8c2.3,0.2,3.6,1.2,3.6,2.9
		c0,1.7-1.3,2.7-3.6,2.9v0.7H87.6z M87.6,11V8.5C86.5,8.7,86,9.1,86,9.8C86,10.4,86.5,10.8,87.6,11z M89.5,8.5V11
		c1.1-0.1,1.7-0.5,1.7-1.2C91.2,9.1,90.6,8.7,89.5,8.5z"/>
	<path fill="#0B1943" d="M95.1,13.4V6.1H97v4.3l3-4.3h2v7.3H100V8.9l-3.1,4.5H95.1z"/>
	<path fill="#0B1943" d="M103.8,9.8c0-2.3,1.7-3.8,4-3.8c1.8,0,2.7,1,3.2,2l-1.6,0.8c-0.2-0.6-0.9-1.1-1.6-1.1c-1.2,0-2,0.9-2,2.1
		s0.8,2.1,2,2.1c0.7,0,1.3-0.5,1.6-1.1l1.6,0.8c-0.5,0.9-1.4,2-3.2,2C105.5,13.6,103.8,12,103.8,9.8z"/>
	<path fill="#0B1943" d="M117.1,13.4l-1.9-2.8l-0.5,0.6v2.1h-1.9V6.1h1.9v3l2.3-3h2.3l-2.8,3.4l3,3.9H117.1z"/>
	<path fill="#0B1943" d="M126,13.4l-0.4-1.1h-2.9l-0.4,1.1h-2.1l2.8-7.3h2.4l2.8,7.3H126z M124.2,8l-0.9,2.8h1.9L124.2,8z"/>
	<path fill="#0B1943" d="M129.2,11.9c0.7,0,1.1-0.4,1.3-2.1l0.4-3.7h5.5v7.3h-1.9V7.7h-1.9l-0.3,2.2c-0.4,3-1.6,3.6-3.2,3.6V11.9z"
		/>
	<path fill="#0B1943" d="M140.7,6.1v2.5h1.8c1.7,0,2.6,1.1,2.6,2.4c0,1.3-0.9,2.4-2.6,2.4h-3.7V6.1H140.7z M140.7,10.2v1.6h1.5
		c0.5,0,0.9-0.3,0.9-0.8c0-0.5-0.4-0.8-0.9-0.8H140.7z"/>
	<path fill="#0B1943" d="M151.8,13.4v-2.9h-3v2.9h-1.9V6.1h1.9v2.7h3V6.1h1.9v7.3H151.8z"/>
	<path fill="#0B1943" d="M161,13.4l-0.4-1.1h-2.9l-0.4,1.1h-2.1l2.8-7.3h2.4l2.8,7.3H161z M159.2,8l-0.9,2.8h1.9L159.2,8z"/>
	<path fill="#0B1943" d="M164.3,13.4l1.5-2.7c-0.7-0.2-1.5-0.9-1.5-2.2c0-1.4,0.9-2.4,2.6-2.4h3.7v7.3h-1.9V11h-1l-1.2,2.5H164.3z
		 M168.7,9.3V7.7h-1.5c-0.5,0-0.9,0.3-0.9,0.8c0,0.5,0.4,0.8,0.9,0.8H168.7z"/>
	<path fill="#0B1943" d="M84.4,26.6v-7.3h3.7c1.6,0,2.6,1.1,2.6,2.4c0,1.3-0.9,2.4-2.6,2.4h-1.8v2.5H84.4z M88.7,21.7
		c0-0.5-0.4-0.8-0.9-0.8h-1.5v1.6h1.5C88.3,22.5,88.7,22.2,88.7,21.7z"/>
	<path fill="#0B1943" d="M96.7,26.6l-0.4-1.1h-2.9L93,26.6h-2.1l2.8-7.3H96l2.8,7.3H96.7z M94.8,21.2l-0.9,2.8h1.9L94.8,21.2z"/>
	<path fill="#0B1943" d="M99.6,23c0-2.3,1.7-3.8,4-3.8c1.8,0,2.7,1,3.2,2l-1.6,0.8c-0.2-0.6-0.9-1.1-1.6-1.1c-1.2,0-2,0.9-2,2.1
		c0,1.2,0.8,2.1,2,2.1c0.7,0,1.3-0.5,1.6-1.1l1.6,0.8c-0.5,0.9-1.4,2-3.2,2C101.3,26.8,99.6,25.2,99.6,23z"/>
	<path fill="#0B1943" d="M110.3,21.5c0,0.8,0.5,1.1,1.2,1.1c0.5,0,0.9-0.1,1.2-0.2v-3.1h1.9v7.3h-1.9V24c-0.5,0.1-1,0.2-1.5,0.2
		c-1.9,0-2.8-1.1-2.8-2.8v-2.2h1.9V21.5z"/>
	<path fill="#0B1943" d="M116.9,26.6v-7.3h5.4v1.7h-3.5v1.1h3.4v1.7h-3.4V25h3.5v1.7H116.9z"/>
	<path fill="#0B1943" d="M126,26.6v-5.7H124v-1.7h6v1.7h-2v5.7H126z"/>
	<path fill="#0B1943" d="M136.8,26.6v-2.9h-3v2.9h-1.9v-7.3h1.9V22h3v-2.7h1.9v7.3H136.8z"/>
	<path fill="#0B1943" d="M146,26.6l-0.4-1.1h-2.9l-0.4,1.1h-2.1l2.8-7.3h2.4l2.8,7.3H146z M144.2,21.2l-0.9,2.8h1.9L144.2,21.2z"/>
	<path fill="#0B1943" d="M149.4,26.6l1.5-2.7c-0.7-0.2-1.5-0.9-1.5-2.2c0-1.4,0.9-2.4,2.6-2.4h3.7v7.3h-1.9v-2.5h-1l-1.2,2.5H149.4z
		 M153.7,22.5v-1.6h-1.5c-0.5,0-0.9,0.3-0.9,0.8c0,0.5,0.4,0.8,0.9,0.8H153.7z"/>
	<path fill="#0B1943" d="M84,36.2c0-2.3,1.7-3.8,4-3.8c1.8,0,2.7,1,3.2,2l-1.6,0.8C89.3,34.5,88.7,34,88,34c-1.2,0-2,0.9-2,2.1
		s0.8,2.1,2,2.1c0.7,0,1.3-0.5,1.6-1.1l1.6,0.8c-0.5,0.9-1.4,2-3.2,2C85.7,40,84,38.4,84,36.2z"/>
	<path fill="#0B1943" d="M93,39.8v-7.3h1.9v4.3l3-4.3h2v7.3h-1.9v-4.5l-3.1,4.5H93z"/>
	<path fill="#0B1943" d="M101.8,36.2c0-2.3,1.7-3.8,4-3.8c1.8,0,2.7,1,3.2,2l-1.6,0.8c-0.2-0.6-0.9-1.1-1.6-1.1c-1.2,0-2,0.9-2,2.1
		s0.8,2.1,2,2.1c0.7,0,1.3-0.5,1.6-1.1l1.6,0.8c-0.5,0.9-1.4,2-3.2,2C103.5,40,101.8,38.4,101.8,36.2z"/>
	<path fill="#0B1943" d="M112.4,39.8v-5.7h-2.1v-1.7h6v1.7h-2v5.7H112.4z"/>
	<path fill="#0B1943" d="M118.2,39.8v-7.3h5.4v1.7h-3.5v1.1h3.4v1.7h-3.4v1.2h3.5v1.7H118.2z"/>
	<path fill="#0B1943" d="M132.1,39.8V35l-1.9,4.8h-0.8l-1.8-4.8v4.8h-1.9v-7.3h2.6l1.5,4l1.5-4h2.6v7.3H132.1z"/>
	<path fill="#0B1943" d="M141.3,39.8l-0.4-1.1H138l-0.4,1.1h-2.1l2.8-7.3h2.4l2.8,7.3H141.3z M139.5,34.4l-0.9,2.8h1.9L139.5,34.4z"
		/>
</g>
</svg>
