<?xml version="1.0" encoding="utf-8"?>
<!-- Generator: Adobe Illustrator 18.1.0, SVG Export Plug-In . SVG Version: 6.00 Build 0)  -->
<svg version="1.1" id="Layer_1" xmlns="http://www.w3.org/2000/svg" xmlns:xlink="http://www.w3.org/1999/xlink" x="0px" y="0px"
	 viewBox="0 0 150 150" enable-background="new 0 0 150 150" xml:space="preserve">
<path fill="#E6E6E6" d="M89.8,124.3c-9.5,0-18.7,0-28.1,0c0-11.7,0-23.3,0-34.8c-6.2-1.9-7.1-3.2-7.1-9.4c0-7.2,0-14.4,0-21.6
	c0-5.5,2.6-8,8.1-8.1c8.7,0,17.3,0,26,0c5.7,0,8.2,2.5,8.2,8.2c0,7.3,0,14.5,0,21.8c0,5.8-1.2,7.5-7,9
	C89.8,100.9,89.8,112.4,89.8,124.3z"/>
<path fill="#E6E6E6" d="M33.4,89.3c-5.8-1.5-7.1-3.2-7.1-9c0-7.3,0-14.5,0-21.8c0-5.7,2.5-8.2,8.2-8.2c4.5,0,8.9,0,12.9,0
	c0,12.5,0,24.9,0,37.3c0,5.5,1.5,7.3,6.9,8.6c0,9.2,0,18.5,0,27.9c-6.9,0-13.9,0-21,0C33.4,112.6,33.4,100.9,33.4,89.3z"/>
<path fill="#E6E6E6" d="M117.9,89.3c0,11.7,0,23.3,0,35c-7,0-13.9,0-20.9,0c0-9.3,0-18.5,0-28c0.4-0.1,0.9-0.2,1.3-0.3
	c3.7-1,5.5-3,5.5-6.7c0.1-11.8,0.1-23.6,0-35.4c0-1.1-0.4-2.1-0.6-3.3c5.5,0,11-0.2,16.4,0.1c3.2,0.2,5.3,3,5.3,6.5
	c0.1,8.4,0.1,16.7,0,25.1C124.9,86.3,123,88.1,117.9,89.3z"/>
<path fill="#E6E6E6" d="M75.6,46.8c-5.7,0-10.5-4.7-10.6-10.5c0-5.8,4.8-10.7,10.6-10.6c5.7,0.1,10.5,4.8,10.5,10.6
	C86.2,42,81.4,46.8,75.6,46.8z"/>
<path fill="#E6E6E6" d="M47.4,25.7c5.7,0,10.6,4.8,10.5,10.5c0,5.8-4.9,10.6-10.7,10.6c-5.7,0-10.5-4.9-10.4-10.6
	C36.9,30.4,41.7,25.7,47.4,25.7z"/>
<path fill="#E6E6E6" d="M114.4,36.2c0.1,5.7-4.7,10.6-10.4,10.6c-5.8,0-10.7-4.8-10.7-10.6c0-5.7,4.8-10.5,10.5-10.5
	C109.5,25.7,114.3,30.4,114.4,36.2z"/>
</svg>
