<?xml version="1.0" encoding="utf-8"?>
<!-- Generator: Adobe Illustrator 18.1.0, SVG Export Plug-In . SVG Version: 6.00 Build 0)  -->
<svg version="1.1" id="Layer_1" xmlns="http://www.w3.org/2000/svg" xmlns:xlink="http://www.w3.org/1999/xlink" x="0px" y="0px"
	 viewBox="0 0 150 150" enable-background="new 0 0 150 150" xml:space="preserve">
<circle fill="none" stroke="#FFFFFF" stroke-width="3" stroke-miterlimit="10" cx="75" cy="75" r="71"/>
<path fill="#FFFFFF" d="M84.5,106c-6,0-11.8,0-17.7,0c0-7.3,0-14.6,0-21.9c-3.9-1.2-4.5-2-4.5-5.9c0-4.5,0-9,0-13.6
	c0-3.5,1.6-5.1,5.1-5.1c5.4,0,10.9,0,16.3,0c3.6,0,5.2,1.6,5.2,5.1c0,4.6,0,9.1,0,13.7c0,3.7-0.8,4.7-4.4,5.6
	C84.5,91.3,84.5,98.5,84.5,106z"/>
<path fill="#FFFFFF" d="M49.1,84c-3.7-1-4.5-2-4.5-5.7c0-4.6,0-9.1,0-13.7c0-3.6,1.6-5.1,5.2-5.2c2.8,0,5.6,0,8.1,0
	c0,7.9,0,15.7,0,23.5c0,3.5,0.9,4.6,4.4,5.4c0,5.8,0,11.6,0,17.6c-4.4,0-8.7,0-13.2,0C49.1,98.6,49.1,91.3,49.1,84z"/>
<path fill="#FFFFFF" d="M102.2,84c0,7.4,0,14.6,0,22c-4.4,0-8.7,0-13.2,0c0-5.8,0-11.7,0-17.6c0.2-0.1,0.5-0.1,0.8-0.2
	c2.3-0.6,3.4-1.9,3.5-4.2c0.1-7.4,0-14.9,0-22.3c0-0.7-0.2-1.3-0.4-2.1c3.5,0,6.9-0.1,10.3,0.1c2,0.1,3.3,1.9,3.4,4.1
	c0.1,5.3,0.1,10.5,0,15.8C106.6,82.1,105.4,83.2,102.2,84z"/>
<path fill="#FFFFFF" d="M75.6,57.3c-3.6,0-6.6-3-6.7-6.6c0-3.7,3-6.7,6.7-6.7c3.6,0,6.6,3,6.6,6.7C82.3,54.3,79.3,57.3,75.6,57.3z"
	/>
<path fill="#FFFFFF" d="M57.9,44c3.6,0,6.6,3,6.6,6.6c0,3.7-3.1,6.7-6.7,6.7c-3.6,0-6.6-3.1-6.6-6.7C51.3,47,54.3,44,57.9,44z"/>
<path fill="#FFFFFF" d="M100,50.6c0,3.6-3,6.7-6.5,6.7c-3.7,0-6.7-3-6.7-6.7c0-3.6,3-6.6,6.6-6.6C96.9,44,100,47,100,50.6z"/>
</svg>
