<?xml version="1.0" encoding="utf-8"?>
<!-- Generator: Adobe Illustrator 18.1.0, SVG Export Plug-In . SVG Version: 6.00 Build 0)  -->
<svg version="1.1" id="Layer_1" xmlns="http://www.w3.org/2000/svg" xmlns:xlink="http://www.w3.org/1999/xlink" x="0px" y="0px"
	 viewBox="0 0 700 700" enable-background="new 0 0 700 700" xml:space="preserve">
<g>
	<path fill="#FFFFFF" d="M553.4,590.1c-14,0-28.1,0-42.1,0c0-62.5,0-124.9,0-188.3c-4.3-0.2-7.8-0.5-11.2-0.5
		c-24.2,0-48.5,0.3-72.7-0.2c-8.6-0.2-11.4,2.1-11.3,11.1c0.4,55.2,0.2,110.4,0.2,165.6c0,4.1-0.4,8.2-0.7,12.4
		c-83,0-165.9,0-248.9,0c-10.9-5.2-13.8-14-13.8-25.7c0.4-71.1,0.2-142.2,0.2-213.3c0-3.4,0-6.8,0-10.6c-1.8,0.4-2.8,0.3-3.5,0.8
		c-7.6,5.1-15.4,4.7-22.1-0.9c-7.3-6.1-7.2-13.8-4-22.5c8.3-22.4,16.5-44.8,23.6-67.6c3.4-10.7,5.1-22.2,5.9-33.4
		c1.1-15.4,6.9-22.4,22.3-22.4c123.4-0.1,246.8-0.1,370.2,0c14.8,0,20.6,7.1,21.9,21.9c1,11.9,2.9,23.9,6.4,35.3
		c7.4,23.7,16.6,46.8,23.9,70.5c1.6,5.2,0.5,13.9-3,17.2c-3.9,3.7-11.9,3.7-18.2,4.2c-2.7,0.2-5.6-2.1-9.3-3.7c0,4.4,0,7.9,0,11.3
		c0,71.1-0.2,142.2,0.2,213.3C567.3,576.1,564.3,584.9,553.4,590.1z M359.5,533.3c0-44.3,0-87.7,0-131.1c-50.5,0-100.3,0-150,0
		c0,44.1,0,87.3,0,131.1C259.7,533.3,309.2,533.3,359.5,533.3z M336.1,251.1c-1,24.9-2.2,49-2.9,73.1c-0.5,17.7,11.4,30.5,27.2,30.2
		c15.6-0.3,26.8-12.7,26.3-30.1c-0.5-21.6-1.5-43.2-2.4-64.8c-0.1-2.7-0.8-5.4-1.2-8.4C367.5,251.1,352.7,251.1,336.1,251.1z
		 M257.1,251.3c-4.1,24.1-8.5,47.5-11.8,71.1c-2.4,17,8,30.2,24,31.8c14.9,1.5,27.5-9.9,29.1-26.5c0.7-7.6,1.3-15.2,2-22.9
		c1.5-17.7,3-35.3,4.6-53.6C288.6,251.3,273.5,251.3,257.1,251.3z M415.3,251.3c2.2,25.2,4.2,49.5,6.4,73.9c0.2,2.9,0.5,5.7,1.1,8.5
		c3.1,13.3,16.2,22.4,29.3,20.4C466.7,351.9,477,340,475,325c-3.2-24.5-7.8-48.9-11.9-73.7C447.2,251.3,432,251.3,415.3,251.3z
		 M225.9,250.7c-13.9,0-26.9,0.3-39.9-0.1c-6.3-0.2-8.7,2.1-10.4,8.1c-5.7,20.5-12.2,40.8-18.1,61.3c-4.6,15.9,4.3,30.5,20.5,33.8
		c14.9,3.1,29.3-7.8,31.2-23.5c0.6-5,1.5-10.1,2.6-15C216.3,294.2,221,273.1,225.9,250.7z M494.7,250.8c0.3,2.4,0.4,3.7,0.6,4.9
		c5.3,26.2,10.4,52.4,15.9,78.5c2.8,13.3,17.3,22.3,30.7,19.5c14.8-3.1,24.9-16.9,21.2-31.1c-5.9-22.4-12.9-44.6-19.7-66.8
		c-0.6-2-3.1-4.8-4.7-4.8C524.2,250.7,509.6,250.8,494.7,250.8z"/>
	<path fill="#FFFFFF" d="M360.1,175c-60,0-119.9,0-179.9,0c-22.6,0-27.2-4.6-27.2-27.6c0-3.5-0.1-7,0.1-10.5
		c0.7-10.3,7.5-16.9,17.8-17.6c2.9-0.2,5.7-0.1,8.6-0.1c120.2,0,240.5,0,360.7,0c21.6,0,26.7,5,26.7,26.2c0,3.2,0.1,6.4,0,9.6
		c-0.4,13.2-6.9,19.9-20.3,20c-22.6,0.2-45.3,0.1-67.9,0.1C439.2,175,399.7,175,360.1,175z"/>
</g>
</svg>
