<?xml version="1.0" encoding="utf-8"?>
<!-- Generator: Adobe Illustrator 18.1.0, SVG Export Plug-In . SVG Version: 6.00 Build 0)  -->
<svg version="1.1" id="Layer_1" xmlns="http://www.w3.org/2000/svg" xmlns:xlink="http://www.w3.org/1999/xlink" x="0px" y="0px"
	 viewBox="0 0 850 180" enable-background="new 0 0 850 180" xml:space="preserve">
<g>
	<path fill="#B3B3B3" d="M127.5,170.1H42.8c-22,0-39.8-17.9-39.8-39.8V46C3,24,20.9,6.2,42.8,6.2h84.7c22,0,39.8,17.9,39.8,39.8v72
		c0,3.6-1.8,6.8-4.9,8.6c-3.1,1.7-6.9,1.7-10.1-0.2l-0.3-0.2L70.8,71.8v55.2H57.7V63.8c0-3.2,1.8-6.1,4.6-7.7c3-1.6,6.5-1.4,9.2,0.4
		l82.7,55.3V46c0-14.7-12-26.7-26.7-26.7H42.8c-14.7,0-26.7,12-26.7,26.7v84.3c0,14.7,12,26.7,26.7,26.7h84.7
		c11.7,0,22.2-7.8,25.6-19l12.6,3.8C160.7,158.4,145,170.1,127.5,170.1z"/>
</g>
<g>
	<g>
		<path fill="#3A0156" d="M220.6,171.4V6.9h52.5c51.1,0,83.1,37.2,83.1,82.4c0,45.6-32.1,82.1-83.1,82.1H220.6z M341.4,89.3
			c0-38.5-24.7-69.5-68.3-69.5h-38.5v138.9h38.5C316.5,158.6,341.4,127.7,341.4,89.3z"/>
	</g>
	<g>
		<path fill="#3A0156" d="M381.4,173.6V64.3H395v109.3H381.4z"/>
		<path fill="#3A0156" d="M416.1,119c0-33.9,25.1-56.5,56.2-56.5c19.3,0,32.8,8.5,42.4,20.5l-10.8,6.7c-6.9-8.8-18.5-15.1-31.6-15.1
			c-23.9,0-42.1,18.3-42.1,44.4c0,25.9,18.2,44.6,42.1,44.6c13.1,0,23.9-6.4,29.3-11.8v-22.3h-37.5v-12.1h51.1v39.5
			c-10.2,11.3-25.1,18.8-42.9,18.8C441.2,175.7,416.1,152.9,416.1,119z"/>
		<path fill="#3A0156" d="M537.4,173.6V64.3h13.6v109.3H537.4z"/>
		<path fill="#3A0156" d="M603.5,173.6V76.4H569V64.3h82.9v12.1h-34.7v97.1H603.5z"/>
		<path fill="#3A0156" d="M736.9,173.6l-9.7-24.2h-54.4l-9.7,24.2h-15.6l43.9-109.3h16.9l44.1,109.3H736.9z M700,78.4l-23.3,58.8
			h46.4L700,78.4z"/>
		<path fill="#3A0156" d="M766.7,173.6V64.3h13.6v97.1h50.8v12.1H766.7z"/>
	</g>
</g>
<g>
	<path fill="#B3B3B3" d="M382.7,5.3h4.9l16.2,20.9V5.3h5.2v30.2h-4.4L387.9,14v21.5h-5.2V5.3z"/>
	<path fill="#B3B3B3" d="M416.7,5.3h22.4V10H422v7.8h15.1v4.7H422v8.1h17.3v4.7h-22.6V5.3z"/>
	<path fill="#B3B3B3" d="M453,10.2h-9.6V5.3h24.5v4.9h-9.6v25.2H453V10.2z"/>
	<path fill="#B3B3B3" d="M470.5,20.3c0-8.5,6.5-15.6,15.8-15.6c9.3,0,15.7,7,15.7,15.6c0,8.5-6.5,15.6-15.8,15.6
		C477,35.9,470.5,28.9,470.5,20.3z M496.5,20.3c0-5.9-4.3-10.7-10.3-10.7c-6,0-10.2,4.8-10.2,10.7c0,5.9,4.3,10.7,10.3,10.7
		C492.3,31.1,496.5,26.3,496.5,20.3z"/>
	<path fill="#B3B3B3" d="M508.5,5.3h11.9c7,0,11.5,4,11.5,10.2c0,6.8-5.4,10.3-12.1,10.3h-6v9.7h-5.3V5.3z M519.9,20.9
		c4,0,6.5-2.2,6.5-5.5c0-3.5-2.5-5.4-6.5-5.4h-6.2v10.9H519.9z"/>
	<path fill="#B3B3B3" d="M544.9,5h4.9l13.3,30.4h-5.6l-3.1-7.3h-14.3l-3.1,7.3h-5.4L544.9,5z M552.5,23.4l-5.2-12.1l-5.2,12.1H552.5
		z"/>
	<path fill="#B3B3B3" d="M572.4,23.5l-12-18.3h6.2l8.4,13.4l8.5-13.4h6.1l-12,18.1v12h-5.3V23.5z"/>
</g>
</svg>
