<?xml version="1.0" encoding="utf-8"?>
<!-- Generator: Adobe Illustrator 18.1.0, SVG Export Plug-In . SVG Version: 6.00 Build 0)  -->
<svg version="1.1" id="Layer_1" xmlns="http://www.w3.org/2000/svg" xmlns:xlink="http://www.w3.org/1999/xlink" x="0px" y="0px"
	 viewBox="0 0 500 500" enable-background="new 0 0 500 500" xml:space="preserve">
<g>
	<path fill="#FFFFFF" d="M36.3,254.7V216H41l21.2,30.4h0.2V216h4.8v38.7h-4.7l-21.2-30.3H41v30.3H36.3z"/>
	<path fill="#FFFFFF" d="M98.7,254.7h-24V216h24v4.3H79.5v12.4h18.2v4.3H79.5v13.3h19.2V254.7z"/>
	<path fill="#FFFFFF" d="M115.1,254.7v-34.4h-12.5V216h29.8v4.3h-12.5v34.4H115.1z"/>
	<path fill="#FFFFFF" d="M169.3,235.4c0,12.3-6.9,20-17.8,20c-11,0-17.8-7.7-17.8-20s6.9-20,17.8-20
		C162.4,215.4,169.3,223.1,169.3,235.4z M138.6,235.4c0,9.5,5,15.5,12.9,15.5c7.9,0,12.9-6,12.9-15.5c0-9.6-5-15.6-12.9-15.6
		C143.5,219.8,138.6,225.8,138.6,235.4z"/>
	<path fill="#FFFFFF" d="M190,216c7.3,0,12.4,5.1,12.4,12.4c0,7.4-5.2,12.5-12.5,12.5h-9.7v13.8h-4.8V216H190z M180.2,236.6h8.5
		c5.5,0,8.7-3,8.7-8.2c0-5.1-3.1-8.1-8.7-8.1h-8.5V236.6z"/>
	<path fill="#FFFFFF" d="M226.2,243.6h-15.4l-3.9,11.1h-5.1l14.3-38.7h4.8l14.3,38.7h-5.1L226.2,243.6z M212.2,239.5h12.6l-6.2-17.7
		h-0.2L212.2,239.5z"/>
	<path fill="#FFFFFF" d="M245.4,254.7v-16.7L231.7,216h5.5l10.6,17.4h0.2l10.6-17.4h5.5l-13.7,22.1v16.7H245.4z"/>
	<path fill="#FFFFFF" d="M294.9,216c11.5,0,18.3,7.2,18.3,19.4c0,12.2-6.8,19.4-18.3,19.4h-13.3V216H294.9z M286.4,250.4h8.1
		c8.8,0,13.7-5.4,13.7-15c0-9.7-4.9-15.1-13.7-15.1h-8.1V250.4z"/>
	<path fill="#FFFFFF" d="M319.1,254.7V216h4.8v38.7H319.1z"/>
	<path fill="#FFFFFF" d="M347.7,255.4c-10.8,0-17.7-7.9-17.7-20.2c0-12.1,6.9-19.8,17.7-19.8c8.4,0,14.7,5,16.2,12.7h-5.1
		c-1.6-5.2-5.7-8.2-11.1-8.2c-8,0-12.8,5.7-12.8,15.3c0,9.7,4.9,15.8,12.8,15.8c6.9,0,11.6-4.5,11.6-11v-0.7h-10.9V235h15.8v3.7
		C364.2,249.2,358.1,255.4,347.7,255.4z"/>
	<path fill="#FFFFFF" d="M370.3,254.7V216h4.8v38.7H370.3z"/>
	<path fill="#FFFFFF" d="M392.7,254.7v-34.4h-12.5V216h29.8v4.3h-12.5v34.4H392.7z"/>
	<path fill="#FFFFFF" d="M431.1,243.6h-15.4l-3.9,11.1h-5.1L421,216h4.8l14.3,38.7H435L431.1,243.6z M417.1,239.5h12.6l-6.2-17.7
		h-0.2L417.1,239.5z"/>
	<path fill="#FFFFFF" d="M468,254.7h-23.5V216h4.8v34.4H468V254.7z"/>
</g>
<g>
	<path fill="#FFFFFF" d="M49.9,296.3c-0.3-1-1.2-1.8-2.7-1.8c-1.8,0-3.1,1.5-3.1,3.8c0,2.4,1.3,3.8,3.1,3.8c1.4,0,2.3-0.6,2.7-1.8
		h1.7c-0.4,2-2.1,3.3-4.4,3.3c-2.9,0-4.8-2.1-4.8-5.4c0-3.2,1.9-5.4,4.8-5.4c2.5,0,4.1,1.6,4.4,3.3H49.9z"/>
	<path fill="#FFFFFF" d="M62.1,300.6c-0.3,1.8-2.1,3.1-4.4,3.1c-3,0-4.8-2.1-4.8-5.3s1.9-5.4,4.7-5.4c2.8,0,4.6,2,4.6,5.2v0.7h-7.6
		v0.1c0,2,1.2,3.3,3.1,3.3c1.3,0,2.3-0.6,2.6-1.6H62.1z M54.7,297.5h5.8c0-1.8-1.2-3-2.8-3C56,294.5,54.8,295.7,54.7,297.5z"/>
	<path fill="#FFFFFF" d="M73.8,298.4c0,3.2-1.8,5.4-4.5,5.4c-1.5,0-2.7-0.7-3.4-1.8h0v5.2h-1.7v-14h1.6v1.7h0c0.6-1.1,2-1.8,3.4-1.8
		C72,293,73.8,295.1,73.8,298.4z M72,298.4c0-2.3-1.2-3.8-3.1-3.8c-1.8,0-3.1,1.6-3.1,3.8c0,2.3,1.2,3.8,3.1,3.8
		C70.8,302.2,72,300.7,72,298.4z"/>
	<path fill="#FFFFFF" d="M75.8,293.1h4.5c2,0,3.2,1,3.2,2.7c0,1.1-0.8,2.1-1.7,2.3v0.1c1.3,0.2,2.2,1.2,2.2,2.5c0,1.9-1.4,3-3.6,3
		h-4.5V293.1z M77.4,294.5v3h2.3c1.3,0,2-0.5,2-1.5c0-0.9-0.6-1.5-1.7-1.5H77.4z M77.4,298.9v3.3h2.8c1.3,0,2-0.6,2-1.7
		c0-1.1-0.7-1.7-2.3-1.7H77.4z"/>
	<path fill="#FFFFFF" d="M85.9,303.6v-10.5h1.7v7.9h0.1l5.4-7.9h1.7v10.5h-1.7v-7.9H93l-5.4,7.9H85.9z"/>
	<path fill="#FFFFFF" d="M104.3,296.3c-0.3-1-1.2-1.8-2.7-1.8c-1.8,0-3.1,1.5-3.1,3.8c0,2.4,1.3,3.8,3.1,3.8c1.4,0,2.3-0.6,2.7-1.8
		h1.7c-0.4,2-2.1,3.3-4.4,3.3c-2.9,0-4.8-2.1-4.8-5.4c0-3.2,1.9-5.4,4.8-5.4c2.5,0,4.1,1.6,4.4,3.3H104.3z"/>
	<path fill="#FFFFFF" d="M119.5,294.5h-5.3v9.1h-1.7v-10.5h8.6v10.5h-1.7V294.5z"/>
	<path fill="#FFFFFF" d="M123.2,298.4c0-3.3,1.9-5.4,4.9-5.4s4.9,2.1,4.9,5.4c0,3.3-1.9,5.4-4.9,5.4S123.2,301.6,123.2,298.4z
		 M131.2,298.4c0-2.4-1.2-3.8-3.1-3.8s-3.1,1.4-3.1,3.8s1.2,3.8,3.1,3.8C130,302.2,131.2,300.8,131.2,298.4z"/>
	<path fill="#FFFFFF" d="M141.9,296.3c-0.3-1-1.2-1.8-2.7-1.8c-1.8,0-3.1,1.5-3.1,3.8c0,2.4,1.3,3.8,3.1,3.8c1.4,0,2.3-0.6,2.7-1.8
		h1.7c-0.4,2-2.1,3.3-4.4,3.3c-2.9,0-4.8-2.1-4.8-5.4c0-3.2,1.9-5.4,4.8-5.4c2.5,0,4.1,1.6,4.4,3.3H141.9z"/>
	<path fill="#FFFFFF" d="M152.9,294.5h-3.4v9.1h-1.7v-9.1h-3.4v-1.4h8.5V294.5z"/>
	<path fill="#FFFFFF" d="M153.7,300.6c0-1.8,1.4-2.9,3.9-3l2.9-0.2v-0.9c0-1.3-0.9-2-2.4-2c-1.2,0-2.1,0.6-2.3,1.6h-1.6
		c0-1.8,1.8-3.1,4-3.1c2.5,0,4.1,1.3,4.1,3.4v7.2h-1.6v-1.8h0c-0.6,1.2-1.9,1.9-3.4,1.9C155.2,303.7,153.7,302.5,153.7,300.6z
		 M160.6,299.6v-0.8l-2.8,0.2c-1.6,0.1-2.4,0.7-2.4,1.7c0,1,0.8,1.6,2.2,1.6C159.4,302.2,160.6,301.1,160.6,299.6z"/>
	<path fill="#FFFFFF" d="M164.7,293.1h4.5c2,0,3.2,1,3.2,2.7c0,1.1-0.8,2.1-1.7,2.3v0.1c1.3,0.2,2.2,1.2,2.2,2.5c0,1.9-1.4,3-3.6,3
		h-4.5V293.1z M166.4,294.5v3h2.3c1.3,0,2-0.5,2-1.5c0-0.9-0.6-1.5-1.7-1.5H166.4z M166.4,298.9v3.3h2.8c1.3,0,2-0.6,2-1.7
		c0-1.1-0.7-1.7-2.3-1.7H166.4z"/>
	<path fill="#FFFFFF" d="M183.5,303.6h-2.2l-4.6-5.1h-0.1v5.1h-1.7v-10.5h1.7v4.7h0.1l4.6-4.7h2.1l-5,5L183.5,303.6z"/>
	<path fill="#FFFFFF" d="M184.9,303.6v-10.5h1.7v7.9h0.1l5.4-7.9h1.7v10.5h-1.7v-7.9H192l-5.4,7.9H184.9z"/>
	<path fill="#FFFFFF" d="M201.1,303.6v-10.5h1.7v7.9h0.1l5.4-7.9h1.7v10.5h-1.7v-7.9h-0.1l-5.4,7.9H201.1z"/>
	<path fill="#FFFFFF" d="M216.7,298.4c0-3.3,1.9-5.4,4.9-5.4s4.9,2.1,4.9,5.4c0,3.3-1.9,5.4-4.9,5.4S216.7,301.6,216.7,298.4z
		 M224.7,298.4c0-2.4-1.2-3.8-3.1-3.8s-3.1,1.4-3.1,3.8s1.2,3.8,3.1,3.8C223.5,302.2,224.7,300.8,224.7,298.4z"/>
	<path fill="#FFFFFF" d="M235.3,294.5h-5.3v9.1h-1.7v-10.5h8.6v10.5h-1.7V294.5z"/>
	<path fill="#FFFFFF" d="M239.2,303.7c-0.3,0-0.5-0.1-0.6-0.1v-1.5c0.1,0,0.3,0.1,0.5,0.1c1,0,1.4-1.2,1.6-3.2l0.4-5.9h6.9v10.5
		h-1.7v-9.1h-3.7l-0.3,4.5C242.1,301.9,241.4,303.7,239.2,303.7z"/>
	<path fill="#FFFFFF" d="M250,300.6c0-1.8,1.4-2.9,3.9-3l2.9-0.2v-0.9c0-1.3-0.9-2-2.4-2c-1.2,0-2.1,0.6-2.3,1.6h-1.6
		c0-1.8,1.8-3.1,4-3.1c2.5,0,4.1,1.3,4.1,3.4v7.2H257v-1.8h0c-0.6,1.2-1.9,1.9-3.4,1.9C251.4,303.7,250,302.5,250,300.6z
		 M256.9,299.6v-0.8l-2.8,0.2c-1.6,0.1-2.4,0.7-2.4,1.7c0,1,0.8,1.6,2.2,1.6C255.6,302.2,256.9,301.1,256.9,299.6z"/>
	<path fill="#FFFFFF" d="M268.4,294.5H265v9.1h-1.7v-9.1h-3.4v-1.4h8.5V294.5z"/>
	<path fill="#FFFFFF" d="M270.1,293.1h1.7v3.4h2c2.4,0,4,1.4,4,3.6s-1.5,3.6-4,3.6h-3.7V293.1z M271.8,297.9v4.3h2
		c1.4,0,2.3-0.9,2.3-2.2c0-1.3-0.9-2.2-2.3-2.2H271.8z M279,293.1h1.7v10.5H279V293.1z"/>
	<path fill="#FFFFFF" d="M296.6,306.4v-2.8H288v-10.5h1.7v9.1h5.2v-9.1h1.7v9.1h1.7v4.2H296.6z"/>
	<path fill="#FFFFFF" d="M299.8,303.6v-10.5h1.7v7.9h0.1l5.4-7.9h1.7v10.5h-1.7v-7.9h-0.1l-5.4,7.9H299.8z"/>
	<path fill="#FFFFFF" d="M310.6,298.4c0-3.3,2.2-5.3,5.4-5.4v-3.4h1.6v3.4c3.3,0.1,5.4,2.1,5.4,5.4c0,3.3-2.2,5.3-5.4,5.4v3.4H316
		v-3.4C312.8,303.7,310.6,301.6,310.6,298.4z M316,294.4c-2.3,0-3.7,1.5-3.7,3.9c0,2.4,1.4,3.9,3.7,3.9V294.4z M317.7,294.4v7.9
		c2.3,0,3.7-1.5,3.7-3.9C321.4,296,319.9,294.5,317.7,294.4z"/>
	<path fill="#FFFFFF" d="M334.7,298.4c0,3.2-1.8,5.4-4.5,5.4c-1.5,0-2.7-0.7-3.4-1.8h0v5.2h-1.7v-14h1.6v1.7h0
		c0.6-1.1,2-1.8,3.4-1.8C332.8,293,334.7,295.1,334.7,298.4z M332.9,298.4c0-2.3-1.2-3.8-3.1-3.8c-1.8,0-3.1,1.6-3.1,3.8
		c0,2.3,1.2,3.8,3.1,3.8C331.7,302.2,332.9,300.7,332.9,298.4z"/>
	<path fill="#FFFFFF" d="M336.1,298.4c0-3.3,1.9-5.4,4.9-5.4s4.9,2.1,4.9,5.4c0,3.3-1.9,5.4-4.9,5.4S336.1,301.6,336.1,298.4z
		 M344.1,298.4c0-2.4-1.2-3.8-3.1-3.8s-3.1,1.4-3.1,3.8s1.2,3.8,3.1,3.8C342.9,302.2,344.1,300.8,344.1,298.4z"/>
	<path fill="#FFFFFF" d="M347.8,293.1h4.5c2,0,3.2,1,3.2,2.7c0,1.1-0.8,2.1-1.7,2.3v0.1c1.3,0.2,2.2,1.2,2.2,2.5c0,1.9-1.4,3-3.6,3
		h-4.5V293.1z M349.5,294.5v3h2.3c1.3,0,2-0.5,2-1.5c0-0.9-0.6-1.5-1.7-1.5H349.5z M349.5,298.9v3.3h2.8c1.3,0,2-0.6,2-1.7
		c0-1.1-0.7-1.7-2.3-1.7H349.5z"/>
	<path fill="#FFFFFF" d="M358,293.1h1.7v3.4h2c2.4,0,4,1.4,4,3.6s-1.5,3.6-4,3.6H358V293.1z M359.7,297.9v4.3h2
		c1.4,0,2.3-0.9,2.3-2.2c0-1.3-0.9-2.2-2.3-2.2H359.7z M366.9,293.1h1.7v10.5h-1.7V293.1z"/>
	<path fill="#FFFFFF" d="M374.8,299.6l-2.6,4h-1.9l3.6-5.3l-3.5-5.3h1.9l2.6,4h0l2.5-4h1.9l-3.6,5.2l3.5,5.3h-1.9L374.8,299.6
		L374.8,299.6z"/>
	<path fill="#FFFFFF" d="M393.4,294.5H390v9.1h-1.7v-9.1h-3.4v-1.4h8.5V294.5z"/>
	<path fill="#FFFFFF" d="M394.3,298.4c0-3.3,1.9-5.4,4.9-5.4s4.9,2.1,4.9,5.4c0,3.3-1.9,5.4-4.9,5.4S394.3,301.6,394.3,298.4z
		 M402.3,298.4c0-2.4-1.2-3.8-3.1-3.8s-3.1,1.4-3.1,3.8s1.2,3.8,3.1,3.8C401.2,302.2,402.3,300.8,402.3,298.4z"/>
	<path fill="#FFFFFF" d="M406,293.1h4.5c2,0,3.2,1,3.2,2.7c0,1.1-0.8,2.1-1.7,2.3v0.1c1.3,0.2,2.2,1.2,2.2,2.5c0,1.9-1.4,3-3.6,3
		H406V293.1z M407.7,294.5v3h2.3c1.3,0,2-0.5,2-1.5c0-0.9-0.6-1.5-1.7-1.5H407.7z M407.7,298.9v3.3h2.8c1.3,0,2-0.6,2-1.7
		c0-1.1-0.7-1.7-2.3-1.7H407.7z"/>
	<path fill="#FFFFFF" d="M415.7,300.6c0-1.8,1.4-2.9,3.9-3l2.9-0.2v-0.9c0-1.3-0.9-2-2.4-2c-1.2,0-2.1,0.6-2.3,1.6h-1.6
		c0-1.8,1.8-3.1,4-3.1c2.5,0,4.1,1.3,4.1,3.4v7.2h-1.6v-1.8h0c-0.6,1.2-1.9,1.9-3.4,1.9C417.1,303.7,415.7,302.5,415.7,300.6z
		 M422.6,299.6v-0.8l-2.8,0.2c-1.6,0.1-2.4,0.7-2.4,1.7c0,1,0.8,1.6,2.2,1.6C421.4,302.2,422.6,301.1,422.6,299.6z"/>
	<path fill="#FFFFFF" d="M436.3,298.4c0,3.2-1.8,5.4-4.5,5.4c-1.5,0-2.7-0.7-3.4-1.8h0v5.2h-1.7v-14h1.6v1.7h0
		c0.6-1.1,2-1.8,3.4-1.8C434.4,293,436.3,295.1,436.3,298.4z M434.5,298.4c0-2.3-1.2-3.8-3.1-3.8c-1.8,0-3.1,1.6-3.1,3.8
		c0,2.3,1.2,3.8,3.1,3.8C433.3,302.2,434.5,300.7,434.5,298.4z"/>
	<path fill="#FFFFFF" d="M437.7,298.4c0-3.3,1.9-5.4,4.9-5.4s4.9,2.1,4.9,5.4c0,3.3-1.9,5.4-4.9,5.4S437.7,301.6,437.7,298.4z
		 M445.7,298.4c0-2.4-1.2-3.8-3.1-3.8s-3.1,1.4-3.1,3.8s1.2,3.8,3.1,3.8C444.6,302.2,445.7,300.8,445.7,298.4z"/>
	<path fill="#FFFFFF" d="M449.4,293.1h4.5c2,0,3.2,1,3.2,2.7c0,1.1-0.8,2.1-1.7,2.3v0.1c1.3,0.2,2.2,1.2,2.2,2.5c0,1.9-1.4,3-3.6,3
		h-4.5V293.1z M451.1,294.5v3h2.3c1.3,0,2-0.5,2-1.5c0-0.9-0.6-1.5-1.7-1.5H451.1z M451.1,298.9v3.3h2.8c1.3,0,2-0.6,2-1.7
		c0-1.1-0.7-1.7-2.3-1.7H451.1z"/>
</g>
</svg>
