<svg version="1.1" xmlns="http://www.w3.org/2000/svg" xmlns:xlink="http://www.w3.org/1999/xlink" x="0px" y="0px"
	 viewBox="0 0 500 500" enable-background="new 0 0 500 500" xml:space="preserve">
<g id="Layer_1" display="none">
	<path display="inline" fill="none" stroke="#E6004F" stroke-width="3" stroke-miterlimit="10" d="M248.1,422.7
		c-95.4,0-172.7-77.3-172.7-172.7S152.7,77.3,248.1,77.3S420.8,154.6,420.8,250S343.5,422.7,248.1,422.7"/>
</g>
<g id="Layer_2" display="none">
	
		<rect x="183.7" y="60.1" display="inline" fill="none" stroke="#E6004F" stroke-width="3" stroke-miterlimit="10" width="46.1" height="46.1"/>
	
		<rect x="229.6" y="31" display="inline" fill="none" stroke="#E6004F" stroke-width="3" stroke-miterlimit="10" width="29.1" height="29.1"/>
	
		<rect x="258.7" y="60.1" display="inline" fill="none" stroke="#E6004F" stroke-width="3" stroke-miterlimit="10" width="27.2" height="27.2"/>
	
		<rect x="285.9" y="39.2" display="inline" fill="none" stroke="#E6004F" stroke-width="3" stroke-miterlimit="10" width="20.8" height="20.8"/>
	
		<rect x="307.3" y="60.5" display="inline" fill="none" stroke="#E6004F" stroke-width="3" stroke-miterlimit="10" width="9" height="9"/>
</g>
<g id="Layer_3" display="none">
	<polygon display="inline" fill="none" stroke="#E6004F" stroke-width="3" stroke-miterlimit="10" points="251.9,73.3 264,96.7 
		279.5,75.5 287.8,100.5 306.5,82 310.7,107.9 332.1,92.6 332.2,118.9 355.7,107.1 351.8,133.1 376.8,125.1 368.8,150.1 
		394.8,146.2 383,169.6 409.3,169.8 394,191.1 419.9,195.4 401.4,214.1 426.4,222.4 405.2,237.9 428.5,250 405.2,262.1 426.4,277.6 
		401.4,285.9 419.9,304.6 394,308.9 409.3,330.2 383,330.4 394.8,353.8 368.8,349.9 376.8,374.9 351.8,366.9 355.7,392.9 
		332.2,381.1 332.1,407.4 310.7,392.1 306.5,418 287.8,399.5 279.5,424.5 264,403.3 251.9,426.7 239.8,403.3 224.3,424.5 216,399.5 
		197.3,418 193,392.1 171.7,407.4 171.5,381.1 148.1,392.9 152,366.9 127,374.9 135,349.9 109,353.8 120.8,330.4 94.5,330.2 
		109.8,308.9 83.9,304.6 102.4,285.9 77.4,277.6 98.6,262.1 75.2,250 98.6,237.9 77.4,222.4 102.4,214.1 83.9,195.4 109.8,191.1 
		94.5,169.8 120.8,169.6 109,146.2 135,150.1 127,125.1 152,133.1 148.1,107.1 171.5,118.9 171.7,92.6 193,107.9 197.3,82 
		216,100.5 224.3,75.5 239.8,96.7 	"/>
</g>
<g id="Layer_4" display="none">
	
		<rect x="75.3" y="77.3" display="inline" fill="none" stroke="#E6004F" stroke-width="3" stroke-miterlimit="10" width="345.5" height="345.5"/>
</g>
<g id="Layer_5">
	
		<rect x="240.3" y="40.7" transform="matrix(0.7071 -0.7071 0.7071 0.7071 37.5662 191.6018)" fill="none" stroke="#E6004F" stroke-width="3" stroke-miterlimit="10" width="19.5" height="19.5"/>
</g>
</svg>
