<svg version="1.1" xmlns="http://www.w3.org/2000/svg" xmlns:xlink="http://www.w3.org/1999/xlink" x="0px" y="0px"
	 viewBox="0 0 1000 200" enable-background="new 0 0 1000 200" xml:space="preserve">
<g id="Layer_1">
	<g>
		<line fill="none" stroke="#999999" stroke-miterlimit="10" x1="650.5" y1="72" x2="650.5" y2="127"/>
		<line fill="none" stroke="#999999" stroke-miterlimit="10" x1="679" y1="100.5" x2="624" y2="100.5"/>
		<line fill="none" stroke="#999999" stroke-miterlimit="10" x1="347.5" y1="72" x2="347.5" y2="127"/>
		<line fill="none" stroke="#999999" stroke-miterlimit="10" x1="376" y1="100.5" x2="321" y2="100.5"/>
	</g>
</g>
<g id="Layer_2">
	<path fill="none" stroke="#76CF46" stroke-miterlimit="10" d="M256.8,146H147.4c-4.9,0-8.9-4-8.9-8.9V62.9c0-4.9,4-8.9,8.9-8.9
		h109.4c4.9,0,8.9,4,8.9,8.9v74.2C265.7,142,261.7,146,256.8,146z"/>
	<line fill="none" stroke="#76CF46" stroke-miterlimit="10" x1="146.5" y1="54" x2="146.5" y2="146"/>
	<line fill="none" stroke="#76CF46" stroke-miterlimit="10" x1="257.5" y1="54" x2="257.5" y2="146"/>
	<g>
		<path fill="none" stroke="#F15D59" stroke-width="2" stroke-linecap="round" stroke-linejoin="round" stroke-miterlimit="10" d="
			M517,115.9c0.1-1.1,0.3-2.2,0.4-3.3c0.1-1.2,0.1-2.4,0.2-3.7c0.2-2.1,0-4.3-0.1-6.4c-0.1-2-0.4-4-0.8-5.9c-0.4-2.1-1-4.1-2.1-6
			c-2.7-4.6-6.7-7.4-11.9-8.3c-7.1-1.2-14,2-17.5,8.1c-1.4,2.5-2.2,5.1-2.3,8c-0.1,1.8,0.3,3.6,0.5,5.4c0.2,1.6,0.4,3.2,0.1,4.9
			c-0.1,0.4,0,0.9,0,1.3"/>
		<path fill="none" stroke="#F15D59" stroke-width="2" stroke-linecap="round" stroke-linejoin="round" stroke-miterlimit="10" d="
			M525.6,97.3c-0.5-3.5-1.3-6.9-3-10c-2.3-4.4-5.6-7.9-9.9-10.4c-3.1-1.8-6.4-2.9-9.9-3.3c-2-0.2-4-0.2-6.1,0.1
			c-3,0.4-5.8,1.3-8.5,2.6c-2.3,1.2-4.3,2.7-6.1,4.4c-3,2.9-5.1,6.4-6.4,10.3c-0.5,1.4-0.9,2.9-0.9,4.4"/>
		<path fill="none" stroke="#F15D59" stroke-width="2" stroke-linecap="round" stroke-linejoin="round" stroke-miterlimit="10" d="
			M496.2,132.4c2.5-3.3,4.5-6.8,5.9-10.7c1.1-3,1.9-6,2.3-9.2c0.4-2.7,0.5-5.5,0.4-8.2c-0.1-2.1-0.3-4.2-0.8-6.3
			c-0.5-2.1-2.2-3.4-4.3-3.3c-2.5,0.1-4,1.9-4.2,4.2c0,0.5,0.1,0.9,0.2,1.3c0.4,1.7,0.5,3.3,0.6,5c0.1,2.6-0.1,5.2-0.6,7.8"/>
		<path fill="none" stroke="#F15D59" stroke-width="2" stroke-linecap="round" stroke-linejoin="round" stroke-miterlimit="10" d="
			M504.2,69.5c-0.6,0.1-1.3-0.1-1.9-0.1c-2.1-0.2-4.1-0.1-6.2,0.2c-5.2,0.6-10,2.6-14.2,5.7c-4.5,3.4-7.8,7.8-9.9,13.1
			c-1,2.6-1.6,5.4-1.9,8.2c-0.1,1.3-0.1,2.6-0.1,3.9c0.1,1.3,0.2,2.5,0.5,3.8c0.6,2.9,0.2,5.6-1.8,7.9"/>
		<path fill="none" stroke="#F15D59" stroke-width="2" stroke-linecap="round" stroke-linejoin="round" stroke-miterlimit="10" d="
			M509.1,70.6c2.6,0.9,5,2,7.3,3.5c4.1,2.7,7.4,6.2,9.7,10.6c1.4,2.6,2.4,5.3,3,8.2c0.3,1.6,0.6,3.2,0.8,4.8
			c0.5,3.3,0.7,6.6,0.6,9.9c0,2.1-0.2,4.3-0.4,6.4c0,0.4-0.1,0.8-0.2,1.1"/>
		<path fill="none" stroke="#F15D59" stroke-width="2" stroke-linecap="round" stroke-linejoin="round" stroke-miterlimit="10" d="
			M506.4,88.1c2.8,1.7,4.7,4.1,5.6,7.2c0.4,1.4,0.6,2.9,0.9,4.4c0.4,2.6,0.5,5.3,0.5,8c-0.1,4.3-0.7,8.4-1.8,12.5
			c-1.2,4.2-2.8,8.3-5.1,12.1"/>
		<path fill="none" stroke="#F15D59" stroke-width="2" stroke-linecap="round" stroke-linejoin="round" stroke-miterlimit="10" d="
			M501.6,86.2c-0.7,0-1.4,0-2.1,0c-2.9,0-5.5,1-7.7,2.9c-2.6,2.2-4.1,4.9-4.5,8.3c-0.2,1.6,0,3.2,0.3,4.8c0.5,2.3,0.4,4.6,0.2,6.9
			c-0.2,2.1-0.7,4.1-1.4,6.1c-1,2.9-2.5,5.4-4.4,7.8c-0.7,0.8-1.5,1.5-2.2,2.3"/>
		<path fill="none" stroke="#F15D59" stroke-width="2" stroke-linecap="round" stroke-linejoin="round" stroke-miterlimit="10" d="
			M513.6,67.9c-2.8-1.3-5.7-2.1-8.8-2.6c-2.4-0.4-4.8-0.4-7.2-0.3c-5,0.3-9.6,1.7-14,4.1c-3.6,1.9-6.6,4.5-9.4,7.5
			c-0.6,0.7-1.1,1.5-1.7,2.2"/>
		<path fill="none" stroke="#F15D59" stroke-width="2" stroke-linecap="round" stroke-linejoin="round" stroke-miterlimit="10" d="
			M517.5,87c1.8,2.6,2.9,5.5,3.5,8.6c0.3,1.9,0.6,3.7,0.8,5.6c0.2,2.6,0.3,5.1,0.2,7.7c-0.1,1.9-0.3,3.8-0.5,5.6
			c-0.4,3-1,5.9-1.9,8.8c-0.4,1.4-0.8,2.7-1.3,4"/>
		<path fill="none" stroke="#F15D59" stroke-width="2" stroke-linecap="round" stroke-linejoin="round" stroke-miterlimit="10" d="
			M486.3,82.7c-2.5,2-4.4,4.5-5.7,7.4c-1.1,2.4-1.7,4.9-1.9,7.5c-0.2,2.3,0.2,4.4,0.6,6.6c0.5,2.9,0.1,5.7-1,8.4
			c-1,2.7-2.6,4.9-4.8,6.8"/>
		<path fill="none" stroke="#F15D59" stroke-width="2" stroke-linecap="round" stroke-linejoin="round" stroke-miterlimit="10" d="
			M499.9,98.2c-0.1,1.1,0.2,2.1,0.4,3.1c0.2,1.6,0.4,3.2,0.4,4.8c0.1,6.4-1.4,12.5-4.4,18.3c-1.4,2.8-3.2,5.3-5.2,7.6"/>
		<path fill="none" stroke="#F15D59" stroke-width="2" stroke-linecap="round" stroke-linejoin="round" stroke-miterlimit="10" d="
			M509.2,107c0-2.9-0.3-5.7-0.7-8.5c-0.3-1.9-0.8-3.6-2.1-5c-1.6-1.8-3.6-2.9-6.1-2.9c-4.4-0.1-7.4,2.2-8.7,6.5"/>
		<path fill="none" stroke="#F15D59" stroke-width="2" stroke-linecap="round" stroke-linejoin="round" stroke-miterlimit="10" d="
			M519.7,71.3c2.2,1.7,4.2,3.5,6,5.6c2,2.3,3.7,4.9,5,7.6c1.4,2.9,2.3,6,2.8,9.2c0.3,1.8,0.4,3.5,0.5,5.3c0,0.6,0,1.2-0.1,1.8"/>
		<path fill="none" stroke="#F15D59" stroke-width="2" stroke-linecap="round" stroke-linejoin="round" stroke-miterlimit="10" d="
			M491.9,102.8c0.1,1,0.2,2,0.2,3c0,1.3-0.1,2.6-0.2,3.9c-0.2,1.7-0.5,3.3-0.9,4.9c-0.7,2.8-1.9,5.4-3.4,7.8c-1.3,2.2-3,4.2-4.9,5.9
			"/>
		<path fill="none" stroke="#F15D59" stroke-width="2" stroke-linecap="round" stroke-linejoin="round" stroke-miterlimit="10" d="
			M469.2,84.2c-1.4,3-2.5,6.2-3,9.5c-0.4,2.5-0.5,5-0.4,7.5c0.1,1.9,0.4,3.8,0.9,5.7"/>
		<path fill="none" stroke="#F15D59" stroke-width="2" stroke-linecap="round" stroke-linejoin="round" stroke-miterlimit="10" d="
			M512.9,82.1c-2.9-2.1-6-3.5-9.5-4.1c-2.1-0.3-4.2-0.4-6.3-0.1c-2,0.3-3.9,0.8-5.8,1.6"/>
		<path fill="none" stroke="#F15D59" stroke-width="2" stroke-linecap="round" stroke-linejoin="round" stroke-miterlimit="10" d="
			M508.9,111.9c-0.5,4-1.4,8-3,11.8c-1.3,3.3-2.9,6.5-5,9.4"/>
		<path fill="none" stroke="#F15D59" stroke-width="2" stroke-linecap="round" stroke-linejoin="round" stroke-miterlimit="10" d="
			M526.1,102.2c0,1.6,0,3.1,0.1,4.7c0,2.4-0.1,4.7-0.4,7.1c-0.3,2.9-0.9,5.8-1.6,8.7"/>
		<path fill="none" stroke="#F15D59" stroke-width="2" stroke-linecap="round" stroke-linejoin="round" stroke-miterlimit="10" d="
			M474.3,99c0,1.9,0.3,3.8,0.6,5.7c0.3,2.1,0.1,4.2-0.6,6.3c-0.7,2-2,3.7-3.5,5.2"/>
		<path fill="none" stroke="#F15D59" stroke-width="2" stroke-linecap="round" stroke-linejoin="round" stroke-miterlimit="10" d="
			M494.1,118.7c-0.2,1.2-0.8,2.3-1.4,3.4c-1.2,2.4-2.7,4.6-4.4,6.6c-0.5,0.6-1,1.1-1.5,1.6"/>
		<path fill="none" stroke="#F15D59" stroke-width="2" stroke-linecap="round" stroke-linejoin="round" stroke-miterlimit="10" d="
			M515.8,120c-0.2,1.7-0.4,2.3-0.7,3.4c-0.8,2.5-1.7,4.9-2.9,7.2"/>
		<path fill="none" stroke="#F15D59" stroke-width="2" stroke-linecap="round" stroke-linejoin="round" stroke-miterlimit="10" d="
			M482,114.8c-1.3,3.2-3.3,5.8-5.9,8.1"/>
	</g>
	<path fill="none" stroke="#F15D59" stroke-linecap="round" stroke-linejoin="round" stroke-miterlimit="10" d="M499.5,39.8
		c-18-0.1-36.5,4.4-53.6,15.2l5,65c0,26.8,48.4,45,48.4,45s0.1,0,0.1-0.1c0,0.1,0.3,0.1,0.3,0.1s48.6-18.2,48.6-45l4.9-65
		C536.2,44.2,517.5,39.8,499.5,39.8z"/>
	<path fill="none" stroke="#20457D" stroke-miterlimit="10" d="M736.5,76.2c-4.2-2.9-5.3-6.7-3.1-10.8c1.6-2.9,4-3.7,7.4-2.4
		c-2.1,0.8-3.7,2-3.4,4.2c0.2,1.2,1,2.3,1.9,3.2c0.2,0.2,1.8-0.5,2.4-1.1c10.2-9.6,22.7-14.1,36.3-15.9c13.1-1.7,26.1-0.8,38.4,4.2
		c5,2.1,9.6,5.2,14.7,8c4.7-5,10.4-9.5,18.9-9.5c-3,3.9-3.9,8.1-4,12.6c0,0.8,0.6,1.9,1.3,2.3c7.8,4.1,13.7,10.1,17.8,17.9
		c0.8,1.5,1.7,2,3.3,1.9c2.7-0.1,5.4,0,8.3,0c0.7,7.8,0.7,14.9-6.4,20.5c-11.2,8.9-23.5,15.3-37.3,18.8c-1.9,0.5-3,1.1-2.9,3.2
		c0,2.8-0.1,5.7,0,8.5c0,1.3,0.2,2.6,0.4,4.4c-2.9,0-5.5,0-8.2,0c-2.9,0-5.9,0.1-8.8-0.1c-0.9-0.1-2.1-0.6-2.7-1.4
		c-1.8-2.3-3.3-4.8-4.8-7.3c-0.7-1.2-1.5-1.5-2.8-1.5c-8.8-0.1-17.7-0.2-26.5-0.6c-3.4-0.1-6.8-1-10.9-1.6c0.2,4.2,0.4,8.1,0.6,12.4
		c-2.6,0-5.2,0-7.7,0c-2.5,0-5.1-0.2-7.6,0.1c-3,0.4-4.4-1.1-5.7-3.4c-3.6-6.5-5-13.6-6.1-20.8c-0.5-3.5-1.2-6.7-3.6-9.7
		c-3.8-4.8-4.3-10.9-4.3-16.9C731.6,88.6,733,82.1,736.5,76.2z M769.3,64.4c13.5-4.6,26.7-4.5,40-0.2c0.3-0.6,0.6-1,0.7-1.5
		c0.2-0.5,0.3-1,0.5-1.6c-14.3-4.7-28.4-4.7-42.7,0.2C768.3,62.5,768.7,63.4,769.3,64.4z M852.7,87.2c0-2.6-2.1-4.7-4.6-4.7
		c-2.4,0-4.5,2.1-4.6,4.5c-0.1,2.6,1.9,4.7,4.5,4.8C850.6,91.8,852.7,89.7,852.7,87.2z"/>
	<circle fill="none" stroke="#20457D" stroke-width="2" stroke-miterlimit="10" cx="790.6" cy="29.6" r="11.8"/>
	<g>
		<path fill="none" stroke="#76CF46" d="M162.1,67.4l-4.6,1.7l4.6,1.7v1l-5.7-2.2v-0.9l5.7-2.2V67.4z"/>
		<path fill="none" stroke="#76CF46" d="M168.2,72.3c-0.3,0.2-0.5,0.3-0.8,0.3c-0.3,0.1-0.6,0.1-0.9,0.1c-0.9,0-1.7-0.3-2.2-0.8
			c-0.5-0.6-0.8-1.3-0.8-2.3s0.3-1.8,0.8-2.3c0.5-0.6,1.3-0.8,2.2-0.8c0.3,0,0.6,0,0.8,0.1s0.6,0.2,0.8,0.3v1
			c-0.3-0.2-0.5-0.4-0.8-0.5c-0.3-0.1-0.6-0.2-0.9-0.2c-0.6,0-1.1,0.2-1.4,0.6s-0.5,1-0.5,1.7c0,0.7,0.2,1.3,0.5,1.7
			c0.3,0.4,0.8,0.6,1.4,0.6c0.3,0,0.7-0.1,0.9-0.2c0.3-0.1,0.5-0.3,0.8-0.5V72.3z"/>
		<path fill="none" stroke="#76CF46" d="M172.5,66.4c0.8,0,1.5,0.3,1.9,0.8c0.4,0.5,0.7,1.3,0.7,2.3c0,1-0.2,1.8-0.7,2.4
			c-0.4,0.5-1.1,0.8-1.9,0.8c-0.8,0-1.5-0.3-1.9-0.8c-0.4-0.5-0.7-1.3-0.7-2.4c0-1,0.2-1.8,0.7-2.3S171.6,66.4,172.5,66.4z
			 M172.5,67.3c-0.5,0-0.9,0.2-1.1,0.6s-0.4,1-0.4,1.7c0,0.8,0.1,1.3,0.4,1.7c0.3,0.4,0.6,0.6,1.1,0.6c0.5,0,0.9-0.2,1.1-0.6
			c0.3-0.4,0.4-1,0.4-1.7c0-0.8-0.1-1.3-0.4-1.7S173,67.3,172.5,67.3z"/>
		<path fill="none" stroke="#76CF46" d="M180.4,67.3v-3.1h1v8.4h-1v-0.8c-0.2,0.3-0.4,0.5-0.7,0.7c-0.3,0.2-0.6,0.2-0.9,0.2
			c-0.7,0-1.3-0.3-1.7-0.8c-0.4-0.6-0.6-1.3-0.6-2.3c0-1,0.2-1.7,0.6-2.3c0.4-0.6,1-0.8,1.7-0.8c0.4,0,0.7,0.1,1,0.2
			C180,66.8,180.2,67,180.4,67.3z M177.5,69.6c0,0.8,0.1,1.3,0.4,1.7s0.6,0.6,1.1,0.6s0.8-0.2,1.1-0.6c0.2-0.4,0.4-1,0.4-1.7
			c0-0.8-0.1-1.3-0.4-1.7c-0.2-0.4-0.6-0.6-1.1-0.6s-0.8,0.2-1.1,0.6S177.5,68.8,177.5,69.6z"/>
		<path fill="none" stroke="#76CF46" d="M188.4,69.1v0.5h-4.3v0c0,0.8,0.1,1.4,0.5,1.8c0.3,0.4,0.8,0.5,1.4,0.5c0.3,0,0.6-0.1,1-0.2
			s0.7-0.3,1.1-0.5v1c-0.4,0.2-0.7,0.3-1.1,0.3c-0.3,0.1-0.7,0.1-1,0.1c-0.9,0-1.7-0.3-2.2-0.8c-0.5-0.6-0.8-1.3-0.8-2.3
			c0-1,0.3-1.7,0.8-2.3s1.2-0.9,2.1-0.9c0.8,0,1.4,0.3,1.8,0.8C188.2,67.7,188.4,68.4,188.4,69.1z M187.4,68.8
			c0-0.4-0.2-0.8-0.5-1.1c-0.3-0.3-0.6-0.5-1.1-0.5c-0.5,0-0.9,0.2-1.2,0.5s-0.5,0.7-0.5,1.1L187.4,68.8z"/>
		<path fill="none" stroke="#76CF46" d="M193.8,64.6h1l-4.2,9h-1L193.8,64.6z"/>
		<path fill="none" stroke="#76CF46" d="M196.1,67.4v-1l5.7,2.2v0.9l-5.7,2.2v-1l4.6-1.7L196.1,67.4z"/>
	</g>
	<line fill="none" stroke="#76CF46" stroke-width="2" x1="156" y1="85" x2="240" y2="85"/>
	<line fill="none" stroke="#76CF46" stroke-width="2" x1="156" y1="95" x2="206" y2="95"/>
	<line fill="none" stroke="#76CF46" stroke-width="2" x1="156" y1="105" x2="224" y2="105"/>
</g>
</svg>
