<?xml version="1.0" encoding="utf-8"?>
<!-- Generator: Adobe Illustrator 18.1.0, SVG Export Plug-In . SVG Version: 6.00 Build 0)  -->
<svg version="1.1" id="Layer_1" xmlns="http://www.w3.org/2000/svg" xmlns:xlink="http://www.w3.org/1999/xlink" x="0px" y="0px"
	 viewBox="0 0 865 525" enable-background="new 0 0 865 525" xml:space="preserve">
<g>
	<path fill="#BDBDBD" d="M423.3,468.1c-54.7-1-105.1-19.5-145.9-50.2l-33.2,44c50,37.7,111.9,60.3,179,61.3V468.1z"/>
	<path fill="#BDBDBD" d="M432.6,523.2c67.2-1,129.1-23.6,179-61.3l-33.2-44c-40.7,30.7-91.2,49.2-145.9,50.2V523.2z"/>
	
		<circle fill="#FAFAFA" stroke="#E6E6E6" stroke-width="2" stroke-miterlimit="10" stroke-dasharray="7,4" cx="427.8" cy="218.2" r="215.3"/>
	<circle fill="#229FFF" stroke="#FFFFFF" stroke-miterlimit="10" cx="426.4" cy="82" r="55.3"/>
	<g>
		<g>
			<g>
				<path fill="none" stroke="#C7C7C7" stroke-miterlimit="10" d="M493.2,322.5c-19.2,12.5-42.2,19.8-66.8,19.8
					c-24.2,0-46.8-7-65.9-19.2"/>
				<g>
					<polygon fill="#C7C7C7" points="490.5,321.4 499,318.5 493.1,325.2 					"/>
				</g>
				<g>
					<polygon fill="#C7C7C7" points="363.1,322 354.6,319.1 360.5,325.8 					"/>
				</g>
			</g>
		</g>
		<g>
			<g>
				<path fill="none" stroke="#C7C7C7" stroke-miterlimit="10" d="M482.1,109.6c39.9,20.4,67.2,61.9,67.2,109.6c0,1.6,0,3.2-0.1,4.8
					"/>
				<g>
					<polygon fill="#C7C7C7" points="482.5,112.4 475.7,106.6 484.6,108.2 					"/>
				</g>
				<g>
					<polygon fill="#C7C7C7" points="547,222.3 548.8,231.1 551.7,222.5 					"/>
				</g>
			</g>
		</g>
		<g>
			<g>
				<path fill="none" stroke="#C7C7C7" stroke-miterlimit="10" d="M303.5,224.9c-0.1-1.9-0.1-3.8-0.1-5.7
					c0-47.5,27.1-88.8,66.6-109.3"/>
				<g>
					<polygon fill="#C7C7C7" points="305.7,223.2 304,232 301.1,223.5 					"/>
				</g>
				<g>
					<polygon fill="#C7C7C7" points="369.5,112.8 376.3,106.9 367.5,108.6 					"/>
				</g>
			</g>
		</g>
		<g>
			<g>
				<line fill="none" stroke="#C7C7C7" stroke-miterlimit="10" x1="118.6" y1="272.8" x2="248" y2="272.8"/>
				<g>
					<polygon fill="#C7C7C7" points="120.2,275.2 111.5,272.8 120.2,270.5 					"/>
				</g>
				<g>
					<polygon fill="#C7C7C7" points="246.4,275.2 255.1,272.8 246.4,270.5 					"/>
				</g>
			</g>
		</g>
		<g>
			<g>
				<line fill="none" stroke="#C7C7C7" stroke-miterlimit="10" x1="608" y1="287" x2="735.8" y2="287"/>
				<g>
					<polygon fill="#C7C7C7" points="609.6,289.3 600.9,287 609.6,284.7 					"/>
				</g>
				<g>
					<polygon fill="#C7C7C7" points="734.2,289.3 742.9,287 734.2,284.7 					"/>
				</g>
			</g>
		</g>
		<g>
			<g>
				<line fill="none" stroke="#C7C7C7" stroke-miterlimit="10" x1="500.5" y1="449.1" x2="485.1" y2="410.5"/>
				<g>
					<polygon fill="#C7C7C7" points="502.1,446.7 503.2,455.6 497.8,448.4 					"/>
				</g>
				<g>
					<polygon fill="#C7C7C7" points="487.9,411.1 482.5,403.9 483.6,412.8 					"/>
				</g>
			</g>
		</g>
	</g>
	<g>
		<g>
			<g>
				<g>
					<path fill="none" stroke="#93DE5E" stroke-miterlimit="10" d="M515.2,341.8c-25.7,18.7-56.5,28.8-88.8,28.8
						c-32.3,0-63-10-88.6-28.6"/>
					<g>
						<polygon fill="#93DE5E" points="512.5,340.8 520.8,337.5 515.3,344.5 						"/>
					</g>
					<g>
						<polygon fill="#93DE5E" points="340.5,341 332.1,337.7 337.7,344.7 						"/>
					</g>
				</g>
			</g>
			<g>
				<g>
					<path fill="none" stroke="#93DE5E" stroke-miterlimit="10" d="M489,81.4c16.3,7.4,31.3,17.8,44.3,30.8
						c28.6,28.6,44.3,66.6,44.3,107c0,4.9-0.2,9.8-0.7,14.6"/>
					<g>
						<polygon fill="#93DE5E" points="489.5,84.2 482.5,78.6 491.4,79.9 						"/>
					</g>
					<g>
						<polygon fill="#93DE5E" points="574.8,232 576.2,240.8 579.4,232.4 						"/>
					</g>
				</g>
			</g>
			<g>
				<g>
					<path fill="none" stroke="#93DE5E" stroke-miterlimit="10" d="M275.7,233.7c-0.5-4.8-0.7-9.6-0.7-14.5
						c0-40.4,15.7-78.4,44.3-107c13-13,28-23.4,44.3-30.8"/>
					<g>
						<polygon fill="#93DE5E" points="277.9,231.9 276.5,240.7 273.3,232.4 						"/>
					</g>
					<g>
						<polygon fill="#93DE5E" points="363.1,84.2 370.1,78.6 361.3,79.9 						"/>
					</g>
				</g>
			</g>
		</g>
		<g>
			<g>
				<line fill="none" stroke="#93DE5E" stroke-miterlimit="10" x1="118.6" y1="301.1" x2="248.8" y2="301.1"/>
				<g>
					<polygon fill="#93DE5E" points="120.2,303.5 111.5,301.1 120.2,298.8 					"/>
				</g>
				<g>
					<polygon fill="#93DE5E" points="247.3,303.5 255.9,301.1 247.3,298.8 					"/>
				</g>
			</g>
		</g>
		<g>
			<g>
				<line fill="none" stroke="#93DE5E" stroke-miterlimit="10" x1="352.1" y1="449.1" x2="367.5" y2="410.5"/>
				<g>
					<polygon fill="#93DE5E" points="354.8,448.4 349.5,455.6 350.5,446.7 					"/>
				</g>
				<g>
					<polygon fill="#93DE5E" points="369.1,412.8 370.1,403.9 364.8,411.1 					"/>
				</g>
			</g>
		</g>
	</g>
	<g>
		
			<rect x="268.3" y="138.7" transform="matrix(0.5345 -0.8452 0.8452 0.5345 16.0164 317.1256)" fill="#FAFAFA" width="55.2" height="10.6"/>
		
			<rect x="287.8" y="153.2" transform="matrix(0.5345 -0.8452 0.8452 0.5345 16.4269 346.7582)" fill="#FAFAFA" width="70.4" height="10.6"/>
		
			<rect x="530" y="139.7" transform="matrix(0.5823 0.8129 -0.8129 0.5823 350.7111 -392.5641)" fill="#FAFAFA" width="54.8" height="10.6"/>
		
			<rect x="513.3" y="153.3" transform="matrix(0.5823 0.8129 -0.8129 0.5823 351.7456 -367.4564)" fill="#FAFAFA" width="40.3" height="10.6"/>
		
			<rect x="407" y="334.9" transform="matrix(0.9995 -3.080024e-02 3.080024e-02 0.9995 -10.2939 13.3102)" fill="#FAFAFA" width="39.7" height="11.7"/>
		
			<rect x="396.9" y="363.3" transform="matrix(0.9995 -3.080024e-02 3.080024e-02 0.9995 -11.1789 13.3373)" fill="#FAFAFA" width="60.8" height="12.5"/>
	</g>
	<path fill="#7D7D7D" d="M548.1,128.6c-0.3,0.3-0.7,0.4-1.1,0.5c-0.4,0.1-0.7,0.1-1.1,0.1l-0.2,1.5l-0.8-0.1l0.2-1.7
		c-0.2-0.1-0.3-0.2-0.4-0.3s-0.3-0.3-0.4-0.4c-0.5-0.6-0.6-1.2-0.5-1.9c0.1-0.7,0.5-1.3,1.1-1.7l0.9-0.7c0.6-0.5,1.3-0.7,2-0.6
		c0.7,0.1,1.3,0.4,1.7,1c0.5,0.6,0.6,1.3,0.5,2c-0.1,0.7-0.5,1.3-1.1,1.8L548.1,128.6z M548.5,127.2c0.5-0.4,0.8-0.8,0.9-1.3
		c0.1-0.5,0-0.9-0.3-1.4c-0.3-0.4-0.7-0.6-1.2-0.6c-0.5,0-1,0.2-1.4,0.5l-0.9,0.7c-0.5,0.4-0.8,0.8-0.9,1.2s0,0.9,0.3,1.3
		c0.3,0.4,0.7,0.7,1.2,0.7c0.5,0,1-0.1,1.4-0.5L548.5,127.2z"/>
	<path fill="#7D7D7D" d="M549,133.1c-0.3,0-0.6,0-0.8-0.1c-0.2-0.1-0.5-0.3-0.6-0.5c-0.3-0.4-0.4-0.8-0.3-1.3c0.1-0.4,0.4-0.8,1-1.3
		l2.3-1.6l0.5,0.7l-2.3,1.6c-0.4,0.3-0.7,0.6-0.7,0.8s0,0.5,0.2,0.7c0.2,0.3,0.4,0.4,0.6,0.5c0.2,0.1,0.4,0.1,0.7,0.1l2.8-2l0.5,0.7
		l-3.9,2.8l-0.5-0.6L549,133.1z"/>
	<path fill="#7D7D7D" d="M551.2,137.6c0.1-0.1,0.2-0.2,0.3-0.3c0.1-0.1,0.2-0.1,0.3-0.2c-0.3,0-0.6-0.1-0.8-0.2
		c-0.3-0.1-0.5-0.3-0.7-0.6c-0.3-0.4-0.4-0.8-0.3-1.2c0.1-0.4,0.3-0.7,0.7-0.9c0.4-0.3,0.8-0.3,1.2-0.1c0.4,0.2,0.8,0.5,1.2,1
		l0.5,0.8l0.4-0.3c0.2-0.2,0.4-0.3,0.4-0.6c0-0.2,0-0.5-0.2-0.7c-0.2-0.2-0.3-0.4-0.6-0.4c-0.2-0.1-0.4,0-0.6,0.1l-0.5-0.7l0,0
		c0.3-0.2,0.6-0.2,1.1-0.1c0.4,0.1,0.8,0.4,1.1,0.9c0.3,0.4,0.4,0.9,0.4,1.3c0,0.4-0.3,0.8-0.7,1.1l-1.9,1.3
		c-0.1,0.1-0.3,0.2-0.4,0.3c-0.1,0.1-0.2,0.2-0.3,0.3L551.2,137.6z M550.9,136.1c0.2,0.3,0.4,0.5,0.7,0.6c0.3,0.1,0.5,0.2,0.7,0.1
		l0.6-0.4l-0.5-0.8c-0.2-0.3-0.4-0.5-0.7-0.6c-0.3-0.1-0.5-0.1-0.7,0.1c-0.2,0.1-0.3,0.3-0.3,0.4
		C550.7,135.6,550.8,135.8,550.9,136.1z"/>
	<path fill="#7D7D7D" d="M556.7,137.4l-0.6,0.4c0.3,0,0.6,0.1,0.8,0.2c0.2,0.1,0.4,0.3,0.6,0.6c0.3,0.4,0.4,0.9,0.2,1.3
		c-0.1,0.4-0.4,0.8-1,1.1l-2.6,1.6l-0.5-0.7l2.5-1.6c0.4-0.2,0.6-0.4,0.6-0.7c0.1-0.2,0-0.5-0.2-0.8c-0.1-0.2-0.3-0.4-0.5-0.5
		c-0.2-0.1-0.4-0.1-0.7-0.1l-3,1.8l-0.5-0.7l4-2.5L556.7,137.4z"/>
	<path fill="#7D7D7D" d="M560.5,141.5l-1,0.6l0.5,0.8l-0.6,0.3l-0.5-0.8l-2.5,1.5c-0.2,0.1-0.3,0.2-0.3,0.4c0,0.1,0,0.3,0.1,0.4
		c0,0,0.1,0.1,0.1,0.1c0,0,0.1,0.1,0.1,0.1l-0.5,0.4c-0.1,0-0.2-0.1-0.3-0.2c-0.1-0.1-0.2-0.2-0.2-0.3c-0.2-0.3-0.2-0.6-0.1-0.9
		c0.1-0.3,0.3-0.5,0.7-0.8l2.5-1.5l-0.4-0.7l0.6-0.3l0.4,0.7l1-0.6L560.5,141.5z"/>
	<path fill="#7D7D7D" d="M556.8,147l-0.4-0.8l0.8-0.4l0.4,0.8L556.8,147z"/>
	<path fill="#7D7D7D" d="M287.1,160.8c0.4,0.2,0.7,0.4,1,0.6c0.3,0.3,0.5,0.6,0.6,0.9l1.4-0.6l0.3,0.8l-1.5,0.7c0,0.2,0,0.4-0.1,0.5
		c0,0.2-0.1,0.4-0.2,0.5c-0.3,0.7-0.7,1.2-1.4,1.4c-0.7,0.2-1.3,0.2-2.1-0.1l-1.1-0.4c-0.7-0.3-1.2-0.8-1.5-1.4s-0.3-1.3,0-2
		c0.3-0.7,0.8-1.2,1.4-1.5c0.7-0.3,1.4-0.2,2.1,0.1L287.1,160.8z M285.8,161.2c-0.5-0.2-1-0.3-1.5-0.1c-0.5,0.2-0.8,0.5-1,1
		c-0.2,0.5-0.2,0.9,0.1,1.3c0.2,0.4,0.6,0.7,1.2,1l1.1,0.4c0.5,0.2,1.1,0.3,1.5,0.1c0.5-0.1,0.8-0.4,1-0.9c0.2-0.5,0.2-1,0-1.4
		c-0.2-0.4-0.6-0.8-1.2-1L285.8,161.2z"/>
	<path fill="#7D7D7D" d="M290.6,157.8c0.2,0.2,0.3,0.5,0.3,0.8c0,0.3,0,0.5-0.1,0.8c-0.2,0.5-0.5,0.8-1,0.9c-0.4,0.1-1,0.1-1.6-0.2
		l-2.6-1.1l0.4-0.8l2.6,1.2c0.5,0.2,0.8,0.3,1,0.2c0.2-0.1,0.4-0.2,0.5-0.5c0.1-0.3,0.2-0.5,0.1-0.8c0-0.2-0.1-0.4-0.3-0.6l-3.1-1.4
		l0.4-0.8l4.3,1.9l-0.3,0.7L290.6,157.8z"/>
	<path fill="#7D7D7D" d="M293.3,153.7c-0.1,0-0.3-0.1-0.4-0.1c-0.1,0-0.2-0.1-0.3-0.1c0.1,0.2,0.2,0.5,0.2,0.8c0,0.3,0,0.6-0.2,0.9
		c-0.2,0.4-0.5,0.7-0.8,0.9s-0.7,0.1-1.1-0.1c-0.4-0.2-0.6-0.5-0.7-1s0-0.9,0.3-1.5l0.4-0.8l-0.4-0.2c-0.3-0.1-0.5-0.1-0.7-0.1
		c-0.2,0.1-0.4,0.3-0.5,0.5c-0.1,0.3-0.2,0.5-0.1,0.7c0.1,0.2,0.2,0.4,0.3,0.5l-0.4,0.7l0,0c-0.3-0.1-0.5-0.4-0.6-0.9s0-0.9,0.2-1.4
		c0.2-0.5,0.5-0.8,0.9-1s0.8-0.2,1.3,0.1l2.1,1c0.2,0.1,0.3,0.1,0.5,0.2c0.2,0.1,0.3,0.1,0.5,0.1L293.3,153.7z M292.1,154.7
		c0.1-0.3,0.2-0.6,0.2-0.9c0-0.3-0.1-0.5-0.3-0.7l-0.7-0.3l-0.4,0.9c-0.2,0.3-0.2,0.6-0.1,0.9c0.1,0.3,0.2,0.5,0.4,0.6
		c0.2,0.1,0.4,0.1,0.5,0C291.9,155.1,292,154.9,292.1,154.7z"/>
	<path fill="#7D7D7D" d="M290.4,149l0.7,0.3c-0.1-0.3-0.2-0.5-0.2-0.8c0-0.3,0.1-0.5,0.2-0.8c0.2-0.5,0.6-0.7,1-0.8
		c0.4-0.1,0.9,0,1.4,0.3l2.7,1.4l-0.4,0.8l-2.6-1.4c-0.4-0.2-0.7-0.3-0.9-0.2c-0.2,0.1-0.4,0.2-0.6,0.5c-0.1,0.2-0.2,0.4-0.1,0.7
		c0,0.2,0.1,0.4,0.2,0.6l3.1,1.6l-0.4,0.8l-4.2-2.2L290.4,149z"/>
	<path fill="#7D7D7D" d="M292,143.6l1,0.6l0.4-0.8l0.6,0.3l-0.4,0.8l2.5,1.4c0.2,0.1,0.4,0.1,0.5,0.1c0.1,0,0.2-0.1,0.3-0.3
		c0,0,0-0.1,0.1-0.2c0-0.1,0-0.1,0-0.2l0.6,0.2c0,0.1,0,0.2,0,0.3c0,0.1-0.1,0.2-0.1,0.4c-0.2,0.3-0.4,0.5-0.7,0.6
		c-0.3,0.1-0.6,0-1-0.2l-2.5-1.4l-0.4,0.7l-0.6-0.3l0.4-0.7l-1-0.6L292,143.6z"/>
	<path fill="#7D7D7D" d="M298.6,144l-0.4,0.7l-0.8-0.5l0.4-0.7L298.6,144z"/>
	<path fill="#7D7D7D" d="M406.9,369.5c-0.1,0.4-0.2,0.8-0.4,1.1c-0.2,0.3-0.4,0.6-0.7,0.8l0.9,1.2l-0.7,0.5l-1.1-1.3
		c-0.2,0-0.3,0.1-0.5,0.1c-0.2,0-0.4,0-0.5,0c-0.7-0.1-1.3-0.4-1.7-1c-0.4-0.6-0.5-1.3-0.4-2l0.2-1.1c0.1-0.8,0.4-1.4,1-1.8
		c0.5-0.5,1.2-0.6,1.9-0.5c0.8,0.1,1.4,0.4,1.8,1c0.4,0.6,0.6,1.3,0.5,2L406.9,369.5z M406.2,368.2c0.1-0.6,0-1.1-0.3-1.5
		c-0.3-0.4-0.7-0.7-1.2-0.7c-0.5-0.1-0.9,0.1-1.3,0.4c-0.3,0.3-0.6,0.8-0.6,1.4l-0.2,1.1c-0.1,0.6,0,1.1,0.3,1.5
		c0.2,0.4,0.6,0.7,1.1,0.7c0.5,0.1,1-0.1,1.3-0.4c0.4-0.3,0.6-0.8,0.7-1.4L406.2,368.2z"/>
	<path fill="#7D7D7D" d="M410.9,371.8c-0.2,0.2-0.4,0.4-0.6,0.5s-0.5,0.2-0.8,0.1c-0.5-0.1-0.9-0.3-1.2-0.6
		c-0.3-0.4-0.3-0.9-0.3-1.6l0.3-2.8l0.9,0.1l-0.3,2.8c-0.1,0.5,0,0.9,0.1,1.1c0.1,0.2,0.4,0.3,0.7,0.4c0.3,0,0.6,0,0.8-0.1
		c0.2-0.1,0.4-0.3,0.5-0.5l0.3-3.4l0.9,0.1l-0.5,4.7l-0.8-0.1L410.9,371.8z"/>
	<path fill="#7D7D7D" d="M415.9,372.9c0-0.1,0-0.3,0-0.4c0-0.1,0-0.2,0-0.3c-0.2,0.2-0.4,0.4-0.7,0.5c-0.3,0.1-0.6,0.2-0.9,0.2
		c-0.5,0-0.9-0.2-1.1-0.5c-0.2-0.3-0.3-0.6-0.3-1.1c0-0.5,0.2-0.8,0.6-1c0.4-0.2,0.9-0.3,1.5-0.3l0.9,0.1l0-0.5
		c0-0.3-0.1-0.5-0.2-0.7c-0.2-0.2-0.4-0.3-0.7-0.3c-0.3,0-0.5,0-0.7,0.2c-0.2,0.1-0.3,0.3-0.3,0.5l-0.8-0.1l0,0
		c0-0.3,0.2-0.7,0.6-0.9c0.4-0.3,0.8-0.4,1.4-0.3c0.5,0,1,0.2,1.3,0.5c0.3,0.3,0.4,0.7,0.4,1.2l-0.2,2.3c0,0.2,0,0.3,0,0.5
		c0,0.2,0,0.3,0.1,0.5L415.9,372.9z M414.5,372.2c0.3,0,0.6,0,0.9-0.2c0.3-0.1,0.4-0.3,0.5-0.5l0.1-0.8l-1-0.1c-0.3,0-0.6,0-0.9,0.2
		c-0.2,0.2-0.3,0.4-0.4,0.6c0,0.2,0,0.4,0.2,0.5C414.1,372.1,414.3,372.2,414.5,372.2z"/>
	<path fill="#7D7D7D" d="M419,368.3l0,0.7c0.2-0.2,0.4-0.4,0.6-0.6c0.2-0.1,0.5-0.2,0.8-0.2c0.5,0,0.9,0.2,1.2,0.5
		c0.3,0.3,0.4,0.8,0.4,1.4l-0.1,3l-0.9,0l0.1-3c0-0.4-0.1-0.7-0.2-0.9s-0.4-0.3-0.7-0.3c-0.2,0-0.5,0-0.7,0.2
		c-0.2,0.1-0.4,0.3-0.5,0.5l-0.1,3.5l-0.9,0l0.2-4.8L419,368.3z"/>
	<path fill="#7D7D7D" d="M424.4,367.3l0,1.1l0.9,0l0,0.6l-0.9,0l0,2.9c0,0.2,0,0.4,0.1,0.5c0.1,0.1,0.2,0.1,0.4,0.1c0,0,0.1,0,0.2,0
		c0.1,0,0.1,0,0.2,0l0.1,0.6c-0.1,0.1-0.2,0.1-0.3,0.1c-0.1,0-0.3,0-0.4,0c-0.4,0-0.6-0.1-0.8-0.3c-0.2-0.2-0.3-0.6-0.3-1l0-2.9
		l-0.8,0l0-0.6l0.8,0l0-1.1L424.4,367.3z"/>
	<path fill="#7D7D7D" d="M427.4,373.2l-0.9,0l0-0.9l0.9,0L427.4,373.2z"/>
	<path fill="none" stroke="#E70018" stroke-miterlimit="10" d="M499,318.5"/>
	<circle fill="#FF2250" stroke="#FFFFFF" stroke-miterlimit="10" cx="545" cy="287" r="55.3"/>
	<g>
		<g>
			<rect x="521.3" y="297" fill="#FFFFFF" width="8.5" height="11.3"/>
		</g>
		<g>
			<rect x="564.7" y="297" fill="#FFFFFF" width="8.5" height="11.3"/>
		</g>
		<path fill="#FFFFFF" d="M564.1,295c-2.2-0.3-8.2-0.9-16.8-0.9c-8.6,0-14.6,0.6-16.8,0.9v13.2h33.6V295z"/>
		<path fill="#FFFFFF" d="M547.3,293.5c5.9,0,10.6,0.3,13.7,0.5v-0.4v-7.7L557,285v-3.9l-1.3-1.3v-2.8c0-2-2.2-5.7-5.8-7v-4.4
			c0-0.4-1.2-1.1-2.1-1.3v-3.2c0-0.3-0.3-0.6-0.6-0.6s-0.6,0.3-0.6,0.6v3.2c-0.9,0.2-2,0.9-2,1.3v4.4c-3.6,1.3-5.8,5-5.8,7v2.8
			l-1.3,1.3v3.9l-3.9,0.8v7.7v0.4C536.7,293.7,541.4,293.5,547.3,293.5z"/>
	</g>
	<circle fill="#7844AB" stroke="#FFFFFF" stroke-miterlimit="10" cx="308.7" cy="287" r="55.3"/>
	<g>
		<g>
			<rect x="285.7" y="273" fill="#FFFFFF" width="3.4" height="33.7"/>
			<rect x="290" y="281.8" fill="#FFFFFF" width="3.4" height="24.9"/>
			<rect x="294.2" y="291.2" fill="#FFFFFF" width="3.4" height="15.5"/>
			<rect x="302.7" y="292.9" fill="#FFFFFF" width="3.4" height="13.8"/>
			<rect x="306.9" y="277.3" fill="#FFFFFF" width="3.4" height="29.4"/>
			<rect x="311.2" y="299.6" fill="#FFFFFF" width="3.4" height="7.1"/>
			<rect x="323.9" y="283.5" fill="#FFFFFF" width="3.4" height="23.1"/>
			<rect x="328.1" y="270.4" fill="#FFFFFF" width="3.4" height="36.3"/>
			<rect x="332.4" y="291.2" fill="#FFFFFF" width="3.4" height="15.5"/>
		</g>
		<path fill="#FFFFFF" d="M283,306.3v-1.7c0.3-0.1,0.6-0.5,0.6-0.9c0-0.4-0.2-0.7-0.6-0.9v-1.4c0.3-0.1,0.6-0.5,0.6-0.9
			s-0.2-0.7-0.6-0.9v-1.4c0.3-0.1,0.6-0.5,0.6-0.9s-0.2-0.7-0.6-0.9v-1.4c0.3-0.1,0.6-0.5,0.6-0.9s-0.2-0.7-0.6-0.9v-1.4
			c0.3-0.1,0.6-0.5,0.6-0.9c0-0.4-0.2-0.7-0.6-0.9v-1.4c0.3-0.1,0.6-0.5,0.6-0.9s-0.2-0.7-0.6-0.9v-1.4c0.3-0.1,0.6-0.5,0.6-0.9
			s-0.2-0.7-0.6-0.9v-1.4c0.3-0.1,0.6-0.5,0.6-0.9c0-0.4-0.2-0.7-0.6-0.9v-1.4c0.3-0.1,0.6-0.5,0.6-0.9c0-0.4-0.2-0.7-0.6-0.9v-1.4
			c0.3-0.1,0.6-0.5,0.6-0.9s-0.2-0.7-0.6-0.9V273c0.3-0.1,0.6-0.5,0.6-0.9c0-0.4-0.2-0.7-0.6-0.9v-1.4c0.3-0.1,0.6-0.5,0.6-0.9
			c0-0.4-0.2-0.7-0.6-0.9v-1.2h-0.8v1.2c-0.3,0.1-0.6,0.5-0.6,0.9s0.2,0.7,0.6,0.9v1.4c-0.3,0.1-0.6,0.5-0.6,0.9s0.2,0.7,0.6,0.9
			v1.4c-0.3,0.1-0.6,0.5-0.6,0.9s0.2,0.7,0.6,0.9v1.4c-0.3,0.1-0.6,0.5-0.6,0.9s0.2,0.7,0.6,0.9v1.4c-0.3,0.1-0.6,0.5-0.6,0.9
			s0.2,0.7,0.6,0.9v1.4c-0.3,0.1-0.6,0.5-0.6,0.9s0.2,0.7,0.6,0.9v1.4c-0.3,0.1-0.6,0.5-0.6,0.9s0.2,0.7,0.6,0.9v1.4
			c-0.3,0.1-0.6,0.5-0.6,0.9c0,0.4,0.2,0.7,0.6,0.9v1.4c-0.3,0.1-0.6,0.5-0.6,0.9s0.2,0.7,0.6,0.9v1.4c-0.3,0.1-0.6,0.5-0.6,0.9
			s0.2,0.7,0.6,0.9v1.4c-0.3,0.1-0.6,0.5-0.6,0.9s0.2,0.7,0.6,0.9v1.4c-0.3,0.1-0.6,0.5-0.6,0.9c0,0.4,0.2,0.7,0.6,0.9v2.5h53.6
			v-0.8H283z"/>
	</g>
	<g>
		<path fill="#FFFFFF" stroke="#229FFF" stroke-miterlimit="10" d="M441.8,64.5c-3,0-5.4,2.4-5.4,5.4c0,3,2.4,5.4,5.4,5.4
			c3,0,5.4-2.4,5.4-5.4C447.2,66.9,444.8,64.5,441.8,64.5z M436.7,75c-1.5,0.3-2.6,1.6-2.6,3.2v8.3c0,1.6,1.1,2.9,2.6,3.2h0.2v10.4
			c0,1,0.8,1.7,1.7,1.7h6.5c1,0,1.7-0.8,1.7-1.7V89.8h0.1c0,0,0,0,0,0c1.5-0.3,2.6-1.6,2.6-3.2v-8.3c0-1.6-1.1-2.9-2.6-3.2
			c-1.2,1.5-3.1,2.5-5.2,2.5C439.8,77.5,437.9,76.5,436.7,75C436.7,75,436.7,75,436.7,75L436.7,75z"/>
		<path fill="#FFFFFF" stroke="#229FFF" stroke-miterlimit="10" d="M410.8,64.5c-3,0-5.4,2.4-5.4,5.4c0,3,2.4,5.4,5.4,5.4
			c3,0,5.4-2.4,5.4-5.4C416.3,66.9,413.8,64.5,410.8,64.5z M405.7,75c-1.5,0.3-2.6,1.6-2.6,3.2v8.3c0,1.6,1.1,2.9,2.6,3.2h0.2v10.4
			c0,1,0.8,1.7,1.7,1.7h6.5c1,0,1.7-0.8,1.7-1.7V89.8h0.1c0,0,0,0,0,0c1.5-0.3,2.6-1.6,2.6-3.2v-8.3c0-1.6-1.1-2.9-2.6-3.2
			c-1.2,1.5-3.1,2.5-5.2,2.5S407,76.5,405.7,75C405.8,75,405.7,75,405.7,75L405.7,75z"/>
		<path fill="#FFFFFF" stroke="#229FFF" stroke-miterlimit="10" d="M426.4,60.2c-3.5,0-6.3,2.8-6.3,6.3c0,3.5,2.9,6.3,6.3,6.3
			s6.3-2.8,6.3-6.3S429.9,60.2,426.4,60.2z M420.4,72.5c-1.8,0.4-3.1,1.9-3.1,3.8v9.7c0,1.9,1.3,3.4,3.1,3.8h0.2v12.2
			c0,1.1,0.9,2,2,2h7.6c1.1,0,2-0.9,2-2V89.7h0.1c0,0,0,0,0,0c1.8-0.4,3.1-1.9,3.1-3.8v-9.7c0-1.9-1.3-3.4-3.1-3.8
			c-1.4,1.8-3.6,2.9-6,2.9C424,75.4,421.9,74.2,420.4,72.5C420.5,72.4,420.4,72.5,420.4,72.5L420.4,72.5z"/>
	</g>
	<path fill="none" stroke="#FFFFFF" stroke-width="4" stroke-miterlimit="10" d="M470.1,247.7c-2.3,7.8-9.5,13.5-18.1,13.5h-48.4
		c-10.4,0-18.9-8.5-18.9-18.9V194c0-10.4,8.5-18.9,18.9-18.9H452c10.4,0,18.9,8.5,18.9,18.9v41.1c0,1.5-1.7,2.4-2.9,1.6l-50.2-33.6
		c-0.8-0.6-2,0-2,1v36.3"/>
	<circle fill="none" stroke="#949494" stroke-miterlimit="10" cx="798.1" cy="287" r="55.3"/>
	<circle fill="none" stroke="#949494" stroke-miterlimit="10" cx="56.3" cy="287" r="55.3"/>
	<g>
		<path fill="#FFFFFF" d="M332.6,474.6l-3.3-1.3l-0.8,2l1.7,0.6c0.7,0.3,1.3,0.7,1.5,1.2c0.3,0.5,0.3,1.1,0.1,1.8
			c-0.2,0.6-0.6,1.1-1.2,1.3c-0.6,0.2-1.2,0.2-2-0.1l-2.7-1l2.6-7l4.3,1.6L332.6,474.6z M328.2,476.2l-1,2.7l1.7,0.6
			c0.5,0.2,0.9,0.2,1.2,0c0.3-0.2,0.6-0.5,0.7-0.9c0.1-0.4,0.1-0.7,0-1.1c-0.1-0.3-0.4-0.6-0.9-0.8L328.2,476.2z"/>
		<path fill="#FFFFFF" d="M335.4,482.7c0-0.2,0-0.3,0.1-0.4c0-0.1,0.1-0.3,0.1-0.4c-0.3,0.2-0.6,0.3-0.9,0.4c-0.3,0.1-0.7,0-1-0.1
			c-0.5-0.2-0.9-0.5-1.1-0.9c-0.2-0.4-0.2-0.8,0-1.3c0.2-0.5,0.5-0.8,1-1s1.1-0.1,1.8,0.2l1,0.4l0.2-0.5c0.1-0.3,0.1-0.6,0-0.8
			c-0.1-0.2-0.4-0.4-0.7-0.5c-0.3-0.1-0.6-0.1-0.8,0c-0.2,0.1-0.4,0.2-0.5,0.5l-0.9-0.3l0,0c0.1-0.4,0.4-0.7,0.9-0.9
			c0.5-0.2,1-0.2,1.6,0c0.6,0.2,1,0.5,1.3,1c0.3,0.4,0.3,0.9,0.1,1.5l-0.9,2.5c-0.1,0.2-0.1,0.4-0.2,0.6c0,0.2-0.1,0.4-0.1,0.6
			L335.4,482.7z M334.1,481.5c0.3,0.1,0.7,0.1,1,0.1c0.3-0.1,0.6-0.2,0.8-0.4l0.3-0.9l-1.1-0.4c-0.4-0.1-0.7-0.1-1,0
			c-0.3,0.1-0.5,0.3-0.6,0.6c-0.1,0.2-0.1,0.4,0,0.6C333.6,481.2,333.8,481.4,334.1,481.5z"/>
		<path fill="#FFFFFF" d="M342,485l-1-0.3l0.7-2.2l-2.3-0.8l-0.7,2.2l-1-0.3l1.8-5.3l1,0.3l-0.8,2.3l2.3,0.8l0.8-2.3l1,0.3L342,485z
			"/>
		<path fill="#FFFFFF" d="M345.8,483.7l-0.6-0.2l-0.7,2.2l-1-0.3l1.7-5.3l1,0.3l-0.7,2.2l0.6,0.2l2.5-1.7l1.1,0.4l0,0l-2.9,1.9
			l1.4,3.4l0,0l-1.2-0.4L345.8,483.7z"/>
		<path fill="#FFFFFF" d="M353.7,482.8l1,0.3l-1.6,5.3l-1-0.3l1.1-3.8l0,0l-3.5,3.1l-1-0.3l1.6-5.3l1,0.3l-1.1,3.8l0,0L353.7,482.8z
			"/>
	</g>
	<rect x="153.1" y="295.1" fill="#FFFFFF" width="57.1" height="13.1"/>
	<rect x="163.1" y="256.4" fill="#FFFFFF" width="40.1" height="28.5"/>
	<circle fill="#FFFFFF" cx="359.8" cy="430.4" r="5.2"/>
	<circle fill="#FFFFFF" cx="493.6" cy="430.4" r="5.3"/>
	<path fill="#7D7D7D" d="M343.3,424c-0.2,0.4-0.4,0.7-0.7,1c-0.3,0.3-0.6,0.5-0.9,0.6l0.6,1.4l-0.8,0.3l-0.7-1.5
		c-0.2,0-0.4,0-0.5-0.1c-0.2,0-0.3-0.1-0.5-0.2c-0.7-0.3-1.1-0.8-1.4-1.4c-0.2-0.7-0.2-1.4,0.1-2.1l0.5-1c0.3-0.7,0.8-1.2,1.4-1.5
		c0.6-0.3,1.3-0.3,2,0c0.7,0.3,1.2,0.8,1.4,1.5c0.2,0.7,0.2,1.4-0.1,2.1L343.3,424z M343,422.6c0.2-0.5,0.3-1,0.2-1.5
		c-0.1-0.5-0.5-0.8-0.9-1c-0.5-0.2-0.9-0.2-1.3,0c-0.4,0.2-0.8,0.6-1,1.1l-0.5,1.1c-0.2,0.5-0.3,1-0.2,1.5c0.1,0.5,0.4,0.8,0.9,1
		c0.5,0.2,1,0.2,1.4,0c0.4-0.2,0.8-0.6,1-1.1L343,422.6z"/>
	<path fill="#7D7D7D" d="M346.3,427.3c-0.2,0.2-0.5,0.3-0.8,0.3c-0.3,0-0.5,0-0.8-0.1c-0.5-0.2-0.8-0.5-0.9-0.9
		c-0.1-0.4-0.1-1,0.2-1.6l1.1-2.6l0.8,0.3l-1.1,2.6c-0.2,0.5-0.3,0.8-0.2,1.1c0.1,0.2,0.2,0.4,0.5,0.5c0.3,0.1,0.5,0.2,0.8,0.1
		s0.4-0.1,0.6-0.3l1.3-3.2l0.8,0.3l-1.8,4.4l-0.7-0.3L346.3,427.3z"/>
	<path fill="#7D7D7D" d="M350.7,429.8c0-0.1,0-0.3,0.1-0.4c0-0.1,0.1-0.2,0.1-0.3c-0.2,0.2-0.5,0.3-0.8,0.3s-0.6,0-0.9-0.1
		c-0.5-0.2-0.8-0.4-0.9-0.8c-0.1-0.3-0.1-0.7,0-1.1c0.2-0.4,0.5-0.7,0.9-0.8c0.4-0.1,0.9,0,1.5,0.2l0.9,0.3l0.2-0.4
		c0.1-0.3,0.1-0.5,0-0.7c-0.1-0.2-0.3-0.4-0.6-0.5c-0.3-0.1-0.5-0.1-0.7,0c-0.2,0.1-0.4,0.2-0.4,0.4l-0.8-0.3l0,0
		c0.1-0.3,0.4-0.6,0.8-0.7c0.4-0.1,0.9-0.1,1.4,0.1c0.5,0.2,0.9,0.5,1.1,0.9c0.2,0.4,0.2,0.8,0,1.3l-0.8,2.1
		c-0.1,0.2-0.1,0.3-0.2,0.5c0,0.2-0.1,0.3-0.1,0.5L350.7,429.8z M349.5,428.7c0.3,0.1,0.6,0.1,0.9,0.1c0.3-0.1,0.5-0.2,0.7-0.3
		l0.3-0.7l-0.9-0.4c-0.3-0.1-0.6-0.1-0.9-0.1s-0.4,0.2-0.5,0.5c-0.1,0.2-0.1,0.4,0,0.5C349.1,428.5,349.3,428.6,349.5,428.7z"/>
	<path fill="#7D7D7D" d="M354.9,426.3l-0.2,0.7c0.2-0.2,0.5-0.3,0.8-0.3c0.3,0,0.6,0,0.8,0.1c0.5,0.2,0.8,0.5,1,0.8
		c0.2,0.4,0.1,0.9-0.1,1.5l-1,2.8l-0.8-0.3l1-2.8c0.1-0.4,0.2-0.7,0.1-0.9c-0.1-0.2-0.3-0.4-0.6-0.5c-0.2-0.1-0.5-0.1-0.7-0.1
		c-0.2,0-0.4,0.1-0.6,0.3l-1.2,3.3l-0.8-0.3l1.6-4.5L354.9,426.3z"/>
	<path fill="#7D7D7D" d="M360.3,427.1l-0.4,1.1l0.9,0.3l-0.2,0.6l-0.9-0.3l-0.9,2.7c-0.1,0.2-0.1,0.4,0,0.5c0.1,0.1,0.2,0.2,0.3,0.2
		c0,0,0.1,0,0.2,0c0.1,0,0.1,0,0.2,0l-0.1,0.6c-0.1,0-0.2,0-0.3,0c-0.1,0-0.3,0-0.4-0.1c-0.3-0.1-0.6-0.3-0.7-0.6
		c-0.1-0.3-0.1-0.6,0-1l0.9-2.7l-0.7-0.2l0.2-0.6l0.7,0.2l0.4-1.1L360.3,427.1z"/>
	<path fill="#7D7D7D" d="M361.1,433.6l-0.8-0.3l0.3-0.9l0.8,0.3L361.1,433.6z"/>
	<g>
		<g>
			<path fill="#7D7D7D" d="M479,437.9l-1.7-6.2l2-0.6c0.6-0.2,1.2-0.2,1.6,0c0.4,0.2,0.7,0.5,0.9,1.1c0.1,0.3,0.1,0.5-0.1,0.8
				c-0.1,0.3-0.3,0.5-0.6,0.7c0.4,0,0.7,0.1,1,0.3c0.3,0.2,0.5,0.5,0.6,0.9c0.2,0.6,0.1,1-0.2,1.4c-0.3,0.4-0.7,0.7-1.4,0.9
				L479,437.9z M478.9,434.1l1.4-0.4c0.3-0.1,0.5-0.2,0.7-0.5c0.1-0.2,0.2-0.5,0.1-0.8c-0.1-0.3-0.3-0.6-0.5-0.7
				c-0.3-0.1-0.6-0.1-1,0l-1.2,0.3L478.9,434.1z M479,434.7l0.6,2.2l1.4-0.4c0.4-0.1,0.6-0.3,0.8-0.5c0.2-0.2,0.2-0.5,0.1-0.9
				c-0.1-0.4-0.3-0.6-0.5-0.8c-0.2-0.2-0.5-0.2-0.9-0.1L479,434.7z"/>
			<path fill="#7D7D7D" d="M487.2,435.5c-0.1-0.1-0.1-0.2-0.2-0.3c0-0.1-0.1-0.2-0.1-0.3c-0.1,0.3-0.2,0.5-0.4,0.7
				c-0.2,0.2-0.5,0.4-0.7,0.5c-0.5,0.1-0.9,0.1-1.2,0c-0.3-0.2-0.5-0.5-0.7-0.9c-0.1-0.4-0.1-0.8,0.2-1.2c0.3-0.4,0.7-0.6,1.3-0.8
				l0.9-0.3l-0.1-0.5c-0.1-0.3-0.2-0.5-0.4-0.6c-0.2-0.1-0.5-0.1-0.8,0c-0.3,0.1-0.5,0.2-0.6,0.4c-0.1,0.2-0.2,0.4-0.1,0.6l-0.8,0.2
				l0,0c-0.1-0.3,0-0.7,0.2-1.1c0.2-0.4,0.6-0.6,1.2-0.8c0.5-0.2,1-0.1,1.4,0c0.4,0.2,0.7,0.5,0.8,1l0.7,2.2c0,0.2,0.1,0.3,0.2,0.5
				c0.1,0.1,0.1,0.3,0.2,0.4L487.2,435.5z M485.6,435.3c0.3-0.1,0.5-0.2,0.7-0.5c0.2-0.2,0.3-0.4,0.3-0.7l-0.2-0.7l-0.9,0.3
				c-0.3,0.1-0.6,0.3-0.7,0.5c-0.2,0.2-0.2,0.5-0.1,0.7c0.1,0.2,0.2,0.3,0.3,0.4C485.2,435.4,485.4,435.4,485.6,435.3z"/>
			<path fill="#7D7D7D" d="M491.3,429.2l1.5,4.5L492,434l-1.2-3.9l-1.5,0.5l0.4,1.3c0.3,0.9,0.4,1.6,0.3,2.1c-0.1,0.5-0.4,0.8-1,1
				l-0.2,0.1l-0.2-0.7l0.2-0.1c0.3-0.1,0.5-0.3,0.5-0.6c0-0.3-0.1-0.8-0.3-1.5l-0.6-1.9L491.3,429.2z"/>
			<path fill="#7D7D7D" d="M493.8,430.5l1.1-0.4c-0.2-0.6-0.1-1.2,0.1-1.6c0.2-0.5,0.6-0.8,1.2-1c0.6-0.2,1.2-0.2,1.7,0.1
				c0.5,0.3,0.9,0.8,1.1,1.5l0,0.1c0.2,0.7,0.2,1.3,0,1.8c-0.2,0.6-0.6,0.9-1.2,1.2c-0.6,0.2-1.1,0.2-1.6-0.1
				c-0.5-0.3-0.9-0.7-1.1-1.3l-1.1,0.4l0.7,2l-0.8,0.3l-1.6-4.5l0.8-0.3L493.8,430.5z M495.8,430.3c0.2,0.5,0.4,0.8,0.7,1.1
				c0.3,0.2,0.7,0.3,1.1,0.2c0.4-0.1,0.6-0.4,0.7-0.8c0.1-0.4,0.1-0.8-0.1-1.3l0-0.1c-0.2-0.5-0.4-0.8-0.7-1.1
				c-0.3-0.2-0.7-0.3-1.1-0.2c-0.4,0.1-0.6,0.4-0.7,0.8C495.6,429.3,495.6,429.7,495.8,430.3L495.8,430.3z"/>
			<path fill="#7D7D7D" d="M502.7,425.9l-1.5,0.6l1.4,3.8l-0.8,0.3l-1.4-3.8l-1.4,0.5l-0.2-0.6l3.7-1.4L502.7,425.9z"/>
			<path fill="#7D7D7D" d="M507.7,428.3c-0.1-0.1-0.1-0.2-0.2-0.3c-0.1-0.1-0.1-0.2-0.2-0.3c-0.1,0.3-0.2,0.5-0.4,0.8
				s-0.4,0.4-0.7,0.5c-0.5,0.2-0.9,0.2-1.2,0.1c-0.3-0.1-0.6-0.4-0.8-0.8c-0.2-0.4-0.1-0.8,0.1-1.2c0.2-0.4,0.7-0.7,1.2-0.9l0.9-0.3
				l-0.2-0.4c-0.1-0.3-0.3-0.4-0.5-0.5c-0.2-0.1-0.5-0.1-0.8,0c-0.3,0.1-0.4,0.3-0.6,0.5c-0.1,0.2-0.1,0.4-0.1,0.6l-0.8,0.3l0,0
				c-0.1-0.3-0.1-0.7,0.1-1.1c0.2-0.4,0.6-0.7,1.1-0.9c0.5-0.2,1-0.2,1.4-0.1s0.7,0.4,0.9,0.9l0.9,2.1c0.1,0.2,0.1,0.3,0.2,0.4
				s0.2,0.3,0.3,0.4L507.7,428.3z M506.1,428.2c0.3-0.1,0.5-0.3,0.7-0.5c0.2-0.2,0.3-0.5,0.3-0.7l-0.3-0.7l-0.9,0.4
				c-0.3,0.1-0.6,0.3-0.7,0.6s-0.2,0.5-0.1,0.7c0.1,0.2,0.2,0.3,0.4,0.4C505.6,428.3,505.8,428.3,506.1,428.2z"/>
		</g>
	</g>
	<path fill="#7D7D7D" d="M163.9,301c0,0.4-0.1,0.8-0.2,1.1c-0.1,0.3-0.3,0.6-0.6,0.9l1.1,1l-0.6,0.6l-1.2-1.1
		c-0.2,0.1-0.3,0.1-0.5,0.1c-0.2,0-0.3,0-0.5,0c-0.7,0-1.3-0.3-1.8-0.8c-0.5-0.5-0.7-1.1-0.7-1.9v-1.1c0-0.8,0.2-1.4,0.7-1.9
		c0.5-0.5,1-0.8,1.8-0.8c0.8,0,1.4,0.3,1.8,0.8c0.5,0.5,0.7,1.1,0.7,1.9V301z M163,299.8c0-0.6-0.2-1-0.5-1.4
		c-0.3-0.4-0.7-0.5-1.2-0.5c-0.5,0-0.9,0.2-1.2,0.5c-0.3,0.4-0.4,0.8-0.4,1.4v1.1c0,0.6,0.1,1,0.4,1.4c0.3,0.4,0.7,0.5,1.2,0.5
		c0.5,0,0.9-0.2,1.2-0.5c0.3-0.4,0.5-0.8,0.5-1.4V299.8z"/>
	<path fill="#7D7D7D" d="M167.9,302.8c-0.1,0.2-0.3,0.4-0.6,0.6c-0.2,0.1-0.5,0.2-0.8,0.2c-0.5,0-0.9-0.2-1.2-0.5
		c-0.3-0.3-0.4-0.8-0.4-1.5v-2.7h0.8v2.7c0,0.5,0.1,0.8,0.2,1c0.1,0.2,0.4,0.3,0.7,0.3c0.3,0,0.5-0.1,0.7-0.2
		c0.2-0.1,0.3-0.3,0.4-0.5v-3.3h0.8v4.6H168L167.9,302.8z"/>
	<path fill="#7D7D7D" d="M172.8,303.5c0-0.1-0.1-0.3-0.1-0.4s0-0.2,0-0.3c-0.2,0.2-0.4,0.4-0.6,0.6s-0.5,0.2-0.8,0.2
		c-0.5,0-0.8-0.1-1.1-0.4c-0.3-0.2-0.4-0.6-0.4-1c0-0.4,0.2-0.8,0.5-1c0.4-0.2,0.8-0.4,1.5-0.4h0.9v-0.5c0-0.3-0.1-0.5-0.2-0.6
		c-0.2-0.2-0.4-0.2-0.7-0.2c-0.3,0-0.5,0.1-0.7,0.2c-0.2,0.1-0.3,0.3-0.3,0.5H170l0,0c0-0.3,0.1-0.6,0.5-0.9
		c0.3-0.3,0.8-0.4,1.3-0.4c0.5,0,0.9,0.1,1.3,0.4c0.3,0.3,0.5,0.6,0.5,1.2v2.2c0,0.2,0,0.3,0,0.5c0,0.2,0,0.3,0.1,0.5H172.8z
		 M171.4,302.9c0.3,0,0.6-0.1,0.8-0.2s0.4-0.3,0.5-0.5v-0.7h-0.9c-0.3,0-0.6,0.1-0.8,0.3c-0.2,0.2-0.3,0.4-0.3,0.6
		c0,0.2,0.1,0.4,0.2,0.5C170.9,302.8,171.1,302.9,171.4,302.9z"/>
	<path fill="#7D7D7D" d="M175.5,298.9l0.1,0.7c0.2-0.2,0.3-0.4,0.6-0.6s0.5-0.2,0.8-0.2c0.5,0,0.9,0.1,1.2,0.4
		c0.3,0.3,0.4,0.7,0.4,1.4v2.9h-0.8v-2.9c0-0.4-0.1-0.7-0.2-0.9c-0.2-0.2-0.4-0.3-0.7-0.3c-0.2,0-0.5,0.1-0.6,0.2
		c-0.2,0.1-0.3,0.3-0.4,0.5v3.4h-0.8v-4.6H175.5z"/>
	<path fill="#7D7D7D" d="M180.8,297.8v1.1h0.9v0.6h-0.9v2.8c0,0.2,0,0.4,0.1,0.5s0.2,0.1,0.4,0.1c0,0,0.1,0,0.2,0s0.1,0,0.2,0
		l0.1,0.6c-0.1,0.1-0.2,0.1-0.3,0.1c-0.1,0-0.2,0-0.4,0c-0.3,0-0.6-0.1-0.8-0.3s-0.3-0.5-0.3-1v-2.8h-0.7v-0.6h0.7v-1.1H180.8z"/>
	<path fill="#7D7D7D" d="M183.7,303.5h-0.8v-0.9h0.8V303.5z"/>
	<g>
		<g>
			<path fill="#FF2250" d="M560.4,147.8l-2.5,1.3l-0.4-0.8l5.7-3l1.1,2.1c0.3,0.6,0.4,1.2,0.3,1.6c-0.1,0.5-0.4,0.8-0.9,1.1
				c-0.3,0.2-0.6,0.2-0.9,0.2c-0.3,0-0.6-0.2-0.9-0.4c0.1,0.4,0,0.7-0.1,0.9c-0.2,0.3-0.4,0.5-0.7,0.6l-0.5,0.3
				c-0.2,0.1-0.3,0.2-0.4,0.3c-0.1,0.1-0.2,0.2-0.2,0.4l-0.1,0l-0.4-0.8c0-0.1,0.1-0.3,0.3-0.4c0.2-0.1,0.3-0.2,0.5-0.3l0.5-0.3
				c0.3-0.2,0.5-0.4,0.6-0.7c0.1-0.3,0.1-0.6-0.1-0.9L560.4,147.8z M561.1,147.5l0.6,1.2c0.2,0.4,0.5,0.7,0.7,0.8
				c0.3,0.1,0.6,0.1,0.9-0.1c0.3-0.2,0.5-0.4,0.6-0.7c0.1-0.3,0-0.6-0.2-1l-0.7-1.3L561.1,147.5z"/>
			<path fill="#FF2250" d="M561,155.2c-0.3-0.6-0.3-1.2-0.1-1.7c0.2-0.5,0.7-1,1.3-1.3l0.2-0.1c0.6-0.3,1.2-0.4,1.8-0.2
				c0.6,0.2,1,0.5,1.2,1c0.3,0.6,0.3,1.1,0.1,1.6c-0.2,0.5-0.6,0.8-1.2,1.1l-0.5,0.2l-1.3-2.8l0,0c-0.4,0.2-0.7,0.5-0.9,0.8
				c-0.2,0.3-0.2,0.7,0,1c0.1,0.3,0.3,0.5,0.4,0.6c0.2,0.2,0.4,0.3,0.6,0.4l-0.4,0.6c-0.2-0.1-0.4-0.2-0.7-0.4
				C561.4,155.9,561.2,155.6,561,155.2z M564.8,153.3c-0.1-0.3-0.3-0.4-0.7-0.5c-0.3-0.1-0.6-0.1-1,0.1l0,0l1,2l0.1,0
				c0.3-0.1,0.5-0.4,0.6-0.6C564.9,153.9,564.9,153.6,564.8,153.3z"/>
			<path fill="#FF2250" d="M564.3,156.5c0.7-0.3,1.3-0.4,1.9-0.3c0.6,0.1,1,0.4,1.2,1c0.1,0.3,0.2,0.5,0.2,0.8
				c0,0.3-0.1,0.5-0.2,0.7l0.6-0.2l0.3,0.6l-4.4,2c-0.6,0.2-1.1,0.3-1.5,0.1c-0.4-0.2-0.8-0.6-1.1-1.2c-0.1-0.2-0.2-0.4-0.2-0.7
				c0-0.3-0.1-0.5-0.1-0.7l0.7-0.1c0,0.2,0,0.4,0,0.6c0,0.2,0.1,0.4,0.2,0.6c0.2,0.4,0.4,0.6,0.6,0.7c0.3,0.1,0.6,0.1,0.9-0.1
				l0.5-0.2c-0.2-0.1-0.5-0.2-0.6-0.3c-0.2-0.2-0.3-0.4-0.4-0.6c-0.2-0.5-0.2-1,0-1.5C563.1,157.2,563.5,156.8,564.3,156.5
				L564.3,156.5z M564.5,157.3c-0.4,0.2-0.7,0.4-0.9,0.7c-0.2,0.3-0.2,0.6,0,1c0.1,0.2,0.2,0.4,0.4,0.5c0.2,0.1,0.4,0.2,0.6,0.2
				l2-0.9c0.1-0.2,0.2-0.4,0.3-0.6c0-0.2,0-0.4-0.1-0.7c-0.2-0.4-0.5-0.6-0.9-0.6C565.6,157,565.1,157.1,564.5,157.3L564.5,157.3z"
				/>
			<path fill="#FF2250" d="M564.6,163.1l-0.3-0.8l4.4-1.8l0.3,0.8L564.6,163.1z M570.1,160.8l-0.3-0.8l0.8-0.3l0.3,0.8L570.1,160.8z
				"/>
			<path fill="#FF2250" d="M567.3,163.2c0.7-0.3,1.3-0.3,1.8-0.1c0.6,0.2,1,0.6,1.2,1.2c0.2,0.6,0.2,1.2-0.1,1.7
				c-0.3,0.5-0.8,0.9-1.4,1.2l-0.1,0c-0.7,0.3-1.3,0.3-1.8,0.1c-0.6-0.2-1-0.6-1.2-1.2c-0.2-0.6-0.2-1.2,0.1-1.7
				C566.1,163.9,566.6,163.5,567.3,163.2L567.3,163.2z M567.5,164c-0.5,0.2-0.8,0.4-1,0.8c-0.2,0.3-0.3,0.7-0.1,1.1
				c0.2,0.4,0.4,0.6,0.8,0.7s0.8,0,1.3-0.2l0.1,0c0.5-0.2,0.8-0.4,1-0.8c0.2-0.3,0.3-0.7,0.1-1.1c-0.2-0.4-0.4-0.6-0.8-0.7
				C568.5,163.8,568.1,163.8,567.5,164L567.5,164z"/>
		</g>
		<g>
			<path fill="#FF2250" d="M297.4,140.5l2.4,1.5l-0.5,0.7l-5.4-3.4l1.2-2c0.4-0.6,0.8-1,1.2-1.1c0.5-0.2,0.9-0.1,1.4,0.2
				c0.3,0.2,0.5,0.4,0.6,0.7c0.1,0.3,0.1,0.6,0.1,0.9c0.3-0.2,0.6-0.4,0.9-0.4c0.3,0,0.6,0.1,0.9,0.3l0.5,0.3
				c0.2,0.1,0.3,0.2,0.5,0.2c0.2,0,0.3,0,0.5,0l0.1,0.1l-0.5,0.8c-0.1,0-0.3,0-0.5,0c-0.2-0.1-0.4-0.2-0.5-0.3l-0.5-0.3
				c-0.3-0.2-0.6-0.2-0.9-0.2c-0.3,0.1-0.5,0.2-0.7,0.5L297.4,140.5z M296.8,140.1l0.7-1.2c0.3-0.4,0.4-0.8,0.3-1
				c0-0.3-0.2-0.5-0.6-0.7c-0.3-0.2-0.6-0.2-0.9-0.2c-0.3,0.1-0.5,0.3-0.8,0.7l-0.8,1.2L296.8,140.1z"/>
			<path fill="#FF2250" d="M303.5,136.3c-0.4,0.6-0.8,0.9-1.4,0.9c-0.6,0.1-1.2-0.1-1.8-0.5l-0.2-0.1c-0.6-0.4-0.9-0.9-1.1-1.4
				c-0.2-0.6-0.1-1.1,0.2-1.6c0.4-0.5,0.8-0.8,1.3-0.9c0.5-0.1,1,0.1,1.6,0.4l0.5,0.3l-1.7,2.6l0,0c0.4,0.2,0.8,0.4,1.1,0.3
				c0.4,0,0.7-0.2,0.9-0.5c0.2-0.2,0.3-0.5,0.3-0.7c0.1-0.2,0.1-0.5,0-0.7l0.7,0c0,0.2,0,0.5,0,0.8
				C303.9,135.6,303.7,135.9,303.5,136.3z M299.9,134c-0.2,0.2-0.2,0.5-0.1,0.8c0.1,0.3,0.3,0.6,0.6,0.8l0,0l1.2-1.8l-0.1-0.1
				c-0.3-0.2-0.6-0.3-0.9-0.2C300.3,133.5,300.1,133.7,299.9,134z"/>
			<path fill="#FF2250" d="M303,132.8c-0.6-0.4-1-0.9-1.2-1.5c-0.2-0.5-0.1-1.1,0.2-1.5c0.2-0.2,0.4-0.4,0.6-0.5
				c0.2-0.1,0.5-0.2,0.8-0.2l-0.4-0.4l0.4-0.6l3.9,2.8c0.5,0.4,0.8,0.8,0.8,1.2c0.1,0.5-0.1,1-0.5,1.5c-0.1,0.2-0.3,0.4-0.5,0.5
				c-0.2,0.2-0.4,0.3-0.6,0.4L306,134c0.2-0.1,0.3-0.2,0.5-0.3c0.2-0.1,0.3-0.3,0.4-0.5c0.2-0.3,0.3-0.7,0.3-0.9
				c0-0.3-0.2-0.5-0.5-0.7l-0.4-0.3c0.1,0.2,0.1,0.5,0,0.7c0,0.2-0.1,0.5-0.3,0.7c-0.3,0.5-0.8,0.7-1.3,0.8
				C304.2,133.4,303.6,133.2,303,132.8L303,132.8z M303.6,132.1c0.4,0.3,0.8,0.4,1.1,0.4s0.7-0.2,0.9-0.5c0.2-0.2,0.2-0.4,0.2-0.6
				c0-0.2,0-0.4-0.2-0.6l-1.8-1.3c-0.2,0-0.4,0-0.6,0.1c-0.2,0.1-0.4,0.2-0.5,0.4c-0.2,0.3-0.3,0.7-0.1,1.1S303,131.8,303.6,132.1
				L303.6,132.1z"/>
			<path fill="#FF2250" d="M303.7,125.5l-0.5,0.7l-0.7-0.5l0.5-0.7L303.7,125.5z M308.5,129.1l-0.5,0.7l-3.8-2.9l0.5-0.7
				L308.5,129.1z"/>
			<path fill="#FF2250" d="M307.2,126.8c-0.6-0.4-0.9-0.9-1-1.5c-0.1-0.6,0-1.1,0.4-1.6c0.4-0.5,0.9-0.8,1.5-0.8
				c0.6,0,1.2,0.2,1.7,0.6l0.1,0.1c0.6,0.4,0.9,0.9,1,1.5c0.1,0.6,0,1.1-0.4,1.6c-0.4,0.5-0.9,0.8-1.5,0.8
				C308.4,127.5,307.8,127.3,307.2,126.8L307.2,126.8z M307.8,126.1c0.4,0.3,0.8,0.5,1.2,0.5c0.4,0,0.7-0.1,1-0.4
				c0.3-0.3,0.3-0.7,0.2-1c-0.1-0.4-0.4-0.7-0.8-1l-0.1-0.1c-0.4-0.3-0.8-0.5-1.2-0.5c-0.4,0-0.7,0.1-1,0.4c-0.3,0.3-0.3,0.7-0.2,1
				C307.1,125.4,307.3,125.8,307.8,126.1L307.8,126.1z"/>
		</g>
		<g>
			<path fill="#FF2250" d="M429.8,370.4l0.1,2.8l-0.9,0l-0.2-6.4l2.3-0.1c0.7,0,1.2,0.1,1.6,0.4c0.4,0.3,0.6,0.7,0.6,1.3
				c0,0.3-0.1,0.6-0.2,0.9c-0.2,0.2-0.4,0.4-0.7,0.6c0.4,0.1,0.6,0.3,0.8,0.5c0.2,0.3,0.2,0.6,0.3,0.9l0,0.6c0,0.2,0,0.4,0.1,0.5
				c0,0.2,0.1,0.3,0.2,0.4l0,0.1l-0.9,0c-0.1-0.1-0.2-0.2-0.2-0.4c0-0.2-0.1-0.4-0.1-0.6l0-0.6c0-0.3-0.1-0.6-0.3-0.8
				c-0.2-0.2-0.5-0.3-0.8-0.3L429.8,370.4z M429.8,369.7l1.4,0c0.5,0,0.8-0.1,1-0.3c0.2-0.2,0.3-0.5,0.3-0.9c0-0.4-0.1-0.6-0.3-0.8
				c-0.2-0.2-0.5-0.3-1-0.3l-1.5,0L429.8,369.7z"/>
			<path fill="#FF2250" d="M436.9,373c-0.7,0-1.2-0.1-1.6-0.6c-0.4-0.4-0.6-1-0.7-1.7l0-0.2c0-0.7,0.1-1.3,0.5-1.7
				c0.4-0.5,0.8-0.7,1.4-0.8c0.6,0,1.1,0.1,1.5,0.5c0.4,0.4,0.5,0.9,0.6,1.5l0,0.5l-3.1,0.2l0,0c0,0.5,0.2,0.8,0.4,1.1
				c0.2,0.3,0.6,0.4,1,0.4c0.3,0,0.5-0.1,0.8-0.2c0.2-0.1,0.4-0.2,0.6-0.4l0.4,0.5c-0.2,0.2-0.4,0.3-0.6,0.5
				C437.7,372.9,437.3,372.9,436.9,373z M436.5,368.7c-0.3,0-0.5,0.2-0.7,0.4c-0.2,0.3-0.3,0.6-0.3,0.9l0,0l2.2-0.1l0-0.1
				c0-0.3-0.1-0.6-0.3-0.8C437.2,368.8,436.9,368.7,436.5,368.7z"/>
			<path fill="#FF2250" d="M439.4,370.4c-0.1-0.8,0-1.4,0.3-1.9c0.3-0.5,0.7-0.8,1.3-0.8c0.3,0,0.6,0,0.8,0.1
				c0.2,0.1,0.4,0.3,0.6,0.5l0-0.6l0.7-0.1l0.4,4.8c0.1,0.6-0.1,1.1-0.4,1.4c-0.3,0.4-0.8,0.6-1.5,0.6c-0.2,0-0.5,0-0.7,0
				c-0.3,0-0.5-0.1-0.7-0.2l0.2-0.7c0.2,0.1,0.4,0.1,0.6,0.2c0.2,0,0.4,0,0.7,0c0.4,0,0.7-0.2,0.9-0.4c0.2-0.2,0.2-0.5,0.2-0.9
				l0-0.5c-0.1,0.2-0.3,0.4-0.5,0.5c-0.2,0.1-0.5,0.2-0.7,0.2c-0.6,0.1-1.1-0.1-1.4-0.5C439.7,371.7,439.5,371.2,439.4,370.4
				L439.4,370.4z M440.3,370.4c0,0.5,0.2,0.8,0.4,1.1c0.2,0.3,0.5,0.4,1,0.3c0.3,0,0.5-0.1,0.6-0.2c0.2-0.1,0.3-0.3,0.4-0.5
				l-0.2-2.2c-0.1-0.2-0.3-0.3-0.5-0.4c-0.2-0.1-0.4-0.1-0.7-0.1c-0.4,0-0.7,0.2-0.9,0.6C440.3,369.3,440.3,369.8,440.3,370.4
				L440.3,370.4z"/>
			<path fill="#FF2250" d="M445.2,366.1l-0.9,0.1l-0.1-0.9l0.9-0.1L445.2,366.1z M445.9,372.1l-0.9,0.1l-0.6-4.7l0.9-0.1
				L445.9,372.1z"/>
			<path fill="#FF2250" d="M446.8,369.5c-0.1-0.7,0-1.3,0.3-1.8c0.3-0.5,0.8-0.8,1.4-0.9c0.7-0.1,1.2,0.1,1.6,0.5
				c0.4,0.4,0.7,0.9,0.8,1.6l0,0.1c0.1,0.7,0,1.3-0.3,1.8c-0.3,0.5-0.8,0.8-1.4,0.9c-0.7,0.1-1.2-0.1-1.6-0.5
				C447.2,370.9,446.9,370.3,446.8,369.5L446.8,369.5z M447.7,369.5c0.1,0.5,0.2,0.9,0.5,1.2c0.3,0.3,0.6,0.4,1,0.4
				c0.4-0.1,0.7-0.3,0.9-0.6c0.2-0.4,0.2-0.8,0.1-1.3l0-0.1c-0.1-0.5-0.2-0.9-0.5-1.2c-0.3-0.3-0.6-0.4-1-0.4
				c-0.4,0.1-0.7,0.3-0.9,0.6C447.6,368.5,447.6,368.9,447.7,369.5L447.7,369.5z"/>
		</g>
		<g>
			<path fill="#FF2250" d="M364.3,431.7l-0.8,2.6l-0.8-0.3l1.9-6.1l2.2,0.7c0.7,0.2,1.1,0.5,1.4,0.9c0.3,0.4,0.3,0.9,0.1,1.5
				c-0.1,0.3-0.3,0.6-0.5,0.7c-0.2,0.2-0.5,0.3-0.9,0.3c0.3,0.2,0.5,0.5,0.6,0.8c0.1,0.3,0,0.6-0.1,1l-0.2,0.6
				c-0.1,0.2-0.1,0.4-0.1,0.5c0,0.2,0,0.3,0.1,0.4l0,0.1l-0.9-0.3c-0.1-0.1-0.1-0.3-0.1-0.5c0-0.2,0.1-0.4,0.1-0.6l0.2-0.6
				c0.1-0.3,0.1-0.6,0-0.9c-0.1-0.3-0.4-0.4-0.7-0.5L364.3,431.7z M364.5,431.1l1.3,0.4c0.5,0.1,0.8,0.2,1.1,0.1
				c0.3-0.1,0.4-0.3,0.6-0.7c0.1-0.3,0.1-0.6,0-0.9c-0.1-0.3-0.4-0.4-0.8-0.6l-1.4-0.4L364.5,431.1z"/>
			<path fill="#FF2250" d="M370.1,436.5c-0.6-0.2-1.1-0.5-1.3-1.1c-0.3-0.5-0.3-1.1-0.1-1.8l0.1-0.2c0.2-0.7,0.5-1.1,1.1-1.5
				c0.5-0.3,1-0.4,1.6-0.2c0.6,0.2,1,0.5,1.2,1c0.2,0.5,0.2,1,0,1.6l-0.2,0.5l-3-0.9l0,0c-0.1,0.4-0.1,0.8,0,1.2
				c0.1,0.3,0.4,0.6,0.8,0.7c0.3,0.1,0.5,0.1,0.8,0.1c0.2,0,0.5-0.1,0.6-0.2l0.2,0.6c-0.2,0.1-0.5,0.2-0.8,0.2
				C370.8,436.6,370.5,436.6,370.1,436.5z M371.1,432.3c-0.3-0.1-0.6,0-0.8,0.1c-0.3,0.2-0.5,0.4-0.6,0.8l0,0l2.1,0.6l0-0.1
				c0.1-0.3,0.1-0.6,0-0.9C371.7,432.6,371.5,432.4,371.1,432.3z"/>
			<path fill="#FF2250" d="M373.1,434.9c0.2-0.7,0.5-1.3,1-1.7c0.4-0.4,1-0.5,1.5-0.3c0.3,0.1,0.5,0.2,0.7,0.4
				c0.2,0.2,0.3,0.4,0.4,0.7l0.3-0.6l0.7,0.2l-1.2,4.6c-0.2,0.6-0.5,1-0.9,1.2c-0.4,0.2-1,0.2-1.6,0.1c-0.2-0.1-0.5-0.2-0.7-0.3
				c-0.2-0.1-0.4-0.3-0.6-0.4l0.4-0.6c0.1,0.1,0.3,0.2,0.5,0.4c0.2,0.1,0.4,0.2,0.6,0.2c0.4,0.1,0.7,0.1,1,0
				c0.2-0.1,0.4-0.4,0.5-0.8l0.1-0.5c-0.2,0.2-0.4,0.2-0.7,0.3c-0.2,0-0.5,0-0.8,0c-0.6-0.2-1-0.5-1.2-1
				C373,436.2,372.9,435.6,373.1,434.9L373.1,434.9z M374,435.2c-0.1,0.5-0.1,0.9,0,1.2c0.1,0.3,0.4,0.6,0.8,0.7
				c0.3,0.1,0.5,0.1,0.7,0c0.2-0.1,0.4-0.2,0.6-0.4l0.6-2.1c-0.1-0.2-0.2-0.4-0.3-0.6c-0.1-0.2-0.3-0.3-0.6-0.3
				c-0.4-0.1-0.7,0-1,0.3C374.3,434.2,374.1,434.6,374,435.2L374,435.2z"/>
			<path fill="#FF2250" d="M378.6,438.7l-0.8-0.2l1.2-4.6l0.8,0.2L378.6,438.7z M380,432.9l-0.8-0.2l0.2-0.9l0.8,0.2L380,432.9z"/>
			<path fill="#FF2250" d="M380.2,436.6c0.2-0.7,0.5-1.2,1-1.6c0.5-0.4,1-0.5,1.7-0.3c0.6,0.2,1.1,0.5,1.4,1
				c0.3,0.5,0.3,1.1,0.2,1.8l0,0.1c-0.2,0.7-0.5,1.2-1,1.6c-0.5,0.4-1,0.5-1.7,0.3c-0.6-0.2-1.1-0.5-1.4-1
				C380.1,438,380,437.4,380.2,436.6L380.2,436.6z M381,436.9c-0.1,0.5-0.1,0.9,0,1.3c0.1,0.4,0.4,0.6,0.8,0.7c0.4,0.1,0.7,0,1-0.3
				c0.3-0.3,0.5-0.7,0.6-1.1l0-0.1c0.1-0.5,0.1-0.9,0-1.3c-0.1-0.4-0.4-0.6-0.8-0.7c-0.4-0.1-0.7,0-1,0.3
				C381.4,435.9,381.2,436.3,381,436.9L381,436.9z"/>
		</g>
		<g>
			<path fill="#FF2250" d="M186.1,300.8v2.7h-0.8v-6.2h2.2c0.7,0,1.2,0.2,1.6,0.5c0.4,0.3,0.5,0.7,0.5,1.3c0,0.3-0.1,0.6-0.2,0.8
				c-0.2,0.2-0.4,0.4-0.7,0.6c0.3,0.1,0.6,0.3,0.7,0.5s0.2,0.6,0.2,0.9v0.6c0,0.2,0,0.4,0.1,0.5c0,0.2,0.1,0.3,0.2,0.4v0.1H189
				c-0.1-0.1-0.2-0.2-0.2-0.4c0-0.2,0-0.4,0-0.6v-0.6c0-0.3-0.1-0.6-0.3-0.8s-0.5-0.3-0.8-0.3H186.1z M186.1,300.2h1.3
				c0.5,0,0.8-0.1,1-0.3c0.2-0.2,0.3-0.5,0.3-0.8c0-0.3-0.1-0.6-0.3-0.8c-0.2-0.2-0.5-0.3-0.9-0.3h-1.4V300.2z"/>
			<path fill="#FF2250" d="M192.8,303.6c-0.6,0-1.2-0.2-1.5-0.6s-0.6-1-0.6-1.7v-0.2c0-0.7,0.2-1.2,0.6-1.6c0.4-0.4,0.9-0.7,1.4-0.7
				c0.6,0,1.1,0.2,1.4,0.6c0.3,0.4,0.5,0.9,0.5,1.5v0.5h-3l0,0c0,0.4,0.1,0.8,0.3,1.1s0.5,0.4,0.9,0.4c0.3,0,0.5,0,0.7-0.1
				s0.4-0.2,0.6-0.3l0.3,0.5c-0.2,0.2-0.4,0.3-0.7,0.4C193.5,303.5,193.2,303.6,192.8,303.6z M192.7,299.5c-0.3,0-0.5,0.1-0.7,0.4
				c-0.2,0.2-0.3,0.5-0.4,0.9l0,0h2.1v-0.1c0-0.3-0.1-0.6-0.3-0.8C193.3,299.6,193,299.5,192.7,299.5z"/>
			<path fill="#FF2250" d="M195.3,301.3c0-0.7,0.2-1.3,0.5-1.8c0.3-0.5,0.8-0.7,1.3-0.7c0.3,0,0.6,0.1,0.8,0.2s0.4,0.3,0.6,0.5
				l0.1-0.6h0.7v4.6c0,0.6-0.2,1-0.5,1.4s-0.8,0.5-1.5,0.5c-0.2,0-0.5,0-0.7-0.1c-0.3-0.1-0.5-0.1-0.7-0.2l0.2-0.7
				c0.2,0.1,0.3,0.2,0.5,0.2s0.4,0.1,0.6,0.1c0.4,0,0.7-0.1,0.9-0.3s0.3-0.5,0.3-0.9V303c-0.2,0.2-0.3,0.3-0.5,0.4
				c-0.2,0.1-0.5,0.1-0.7,0.1c-0.6,0-1-0.2-1.3-0.6C195.5,302.6,195.3,302,195.3,301.3L195.3,301.3z M196.2,301.4
				c0,0.5,0.1,0.8,0.3,1.1c0.2,0.3,0.5,0.4,0.9,0.4c0.3,0,0.5-0.1,0.6-0.2s0.3-0.3,0.4-0.5v-2.1c-0.1-0.2-0.2-0.4-0.4-0.5
				s-0.4-0.2-0.6-0.2c-0.4,0-0.7,0.2-0.9,0.5S196.2,300.8,196.2,301.4L196.2,301.4z"/>
			<path fill="#FF2250" d="M201.4,297.7h-0.8v-0.9h0.8V297.7z M201.4,303.5h-0.8v-4.6h0.8V303.5z"/>
			<path fill="#FF2250" d="M202.5,301.2c0-0.7,0.2-1.2,0.6-1.7c0.4-0.4,0.9-0.7,1.5-0.7c0.6,0,1.1,0.2,1.5,0.7
				c0.4,0.4,0.6,1,0.6,1.7v0.1c0,0.7-0.2,1.3-0.6,1.7c-0.4,0.4-0.9,0.7-1.5,0.7c-0.6,0-1.1-0.2-1.5-0.7
				C202.7,302.5,202.5,301.9,202.5,301.2L202.5,301.2z M203.3,301.3c0,0.5,0.1,0.9,0.3,1.2c0.2,0.3,0.5,0.5,0.9,0.5
				c0.4,0,0.7-0.2,0.9-0.5c0.2-0.3,0.3-0.7,0.3-1.2v-0.1c0-0.5-0.1-0.9-0.3-1.2c-0.2-0.3-0.5-0.5-0.9-0.5c-0.4,0-0.7,0.2-0.9,0.5
				C203.4,300.3,203.3,300.7,203.3,301.3L203.3,301.3z"/>
		</g>
	</g>
	<g>
		<g>
			<path fill="none" stroke="#C7C7C7" stroke-miterlimit="10" d="M611.7,461.3h174.1c6.8,0,12.4-5.5,12.4-12.4v-99.6"/>
			<g>
				<polygon fill="#C7C7C7" points="800.4,350.9 798.1,342.2 795.8,350.9 				"/>
			</g>
		</g>
	</g>
	<rect x="685" y="444" fill="#FFFFFF" width="150.4" height="34.1"/>
	<g>
		<g>
			<path fill="none" stroke="#C7C7C7" stroke-miterlimit="10" d="M243.1,461.3H69c-6.8,0-12.4-5.5-12.4-12.4v-99.6"/>
			<g>
				<polygon fill="#C7C7C7" points="59,350.9 56.6,342.2 54.3,350.9 				"/>
			</g>
		</g>
	</g>
	<g>
		<rect x="1.5" y="439.8" fill="#FFFFFF" width="111.1" height="37.6"/>
		<text transform="matrix(1 0 0 1 14.6518 457.3069)"><tspan x="0" y="0" fill="#7D7D7D" font-family="'Roboto-Regular'" font-size="10">Обмен Quant.Regio</tspan><tspan x="20.2" y="12" fill="#7D7D7D" font-family="'Roboto-Regular'" font-size="10">на валюту</tspan></text>
	</g>
	<g>
		<rect x="725" y="442.8" fill="#FFFFFF" width="111.1" height="37.6"/>
		<text transform="matrix(1 0 0 1 717.4534 460.3019)"><tspan x="0" y="0" fill="#7D7D7D" font-family="'Roboto-Regular'" font-size="10">Валютные расчеты</tspan><tspan x="-45" y="12" fill="#7D7D7D" font-family="'Roboto-Regular'" font-size="10">с государственными органами власти</tspan></text>
	</g>
	<path id="SVGID_x5F_1_x5F_" fill="none" d="M304.6,232.1c-0.4-4.3-0.7-8.6-0.7-13c0-51,30.6-94.9,74.3-114.5"/>
	<text>	<textPath  xlink:href="#SVGID_x5F_1_x5F_" startOffset="0%">
<tspan  fill="#7D7D7D" font-family="'Roboto-Regular'" font-size="8.6548">Товары/услуги</tspan>	</textPath>
</text>
	<path id="SVGID_x5F_2_x5F_" fill="none" d="M352.8,318.5c20.6,14.8,45.9,23.6,73.1,23.6c27.7,0,53.3-9,74-24.2"/>
	<text>	<textPath  xlink:href="#SVGID_x5F_2_x5F_" startOffset="38.8185%">
<tspan  fill="#7D7D7D" font-family="'Roboto-Regular'" font-size="8.6548">Услуги</tspan>	</textPath>
</text>
	<path id="SVGID_x5F_3_x5F_" fill="none" d="M475.7,106.5c44.1,19.4,75,63.6,75,114.8c0,4.1-0.2,8.1-0.6,12.1"/>
	<text>	<textPath  xlink:href="#SVGID_x5F_3_x5F_" startOffset="0.342%">
<tspan  fill="#7D7D7D" font-family="'Roboto-Regular'" font-size="8.6548">Услуги</tspan>	</textPath>
</text>
	<text transform="matrix(1 0 0 1 25.9518 284.9875)"><tspan x="0" y="0" fill="#808080" font-family="'Roboto-Regular'" font-size="10.0972">Поставщики</tspan><tspan x="-10.7" y="12.1" fill="#808080" font-family="'Roboto-Regular'" font-size="10.0972">и производители</tspan></text>
	<g>
		<circle fill="#229FFF" cx="14.7" cy="68.1" r="7.3"/>
		<circle fill="#FF2250" cx="14.7" cy="97.1" r="7.3"/>
		<circle fill="#7844AB" cx="14.7" cy="125.1" r="7.3"/>
		<text transform="matrix(1 0 0 1 39.4544 72.3304)" fill="#808080" font-family="'Roboto-Regular'" font-size="11">Население региона</text>
		<text transform="matrix(1 0 0 1 39.4543 101.3108)" fill="#808080" font-family="'Roboto-Regular'" font-size="11">Региональные органы власти</text>
		<text transform="matrix(1 0 0 1 39.3871 128.857)" fill="#808080" font-family="'Roboto-Regular'" font-size="11">Бизнес</text>
	</g>
	<text transform="matrix(1 0 0 1 778.7424 255.3069)"><tspan x="0" y="0" fill="#808080" font-family="'Roboto-Regular'" font-size="10.0972">Органы</tspan><tspan x="-23.1" y="12.1" fill="#808080" font-family="'Roboto-Regular'" font-size="10.0972">государственной</tspan><tspan x="1.5" y="24.2" fill="#808080" font-family="'Roboto-Regular'" font-size="10.0972">власти</tspan></text>
	<text transform="matrix(1 0 0 1 768.3577 306.7795)"><tspan x="0" y="0" fill="#808080" font-family="'Roboto-Regular'" font-size="10.0972">Регуляторы</tspan><tspan x="6.3" y="12.1" fill="#808080" font-family="'Roboto-Regular'" font-size="10.0972">отраслей</tspan></text>
	<line fill="none" stroke="#949494" stroke-miterlimit="10" x1="767.3" y1="288.1" x2="832.3" y2="288.1"/>
	<path id="SVGID_x5F_4_x5F_" fill="none" d="M434.3,493.9c62.2-1,119.6-21.9,166-56.7"/>
	<text>	<textPath  xlink:href="#SVGID_x5F_4_x5F_" startOffset="12.109%">
<tspan  fill="#FFFFFF" font-family="'Roboto-Regular'" font-size="10">Финансовые учреждения</tspan>	</textPath>
</text>
	<text transform="matrix(1 0 0 1 167.7658 270.6835)"><tspan x="0" y="0" fill="#7D7D7D" font-family="'Roboto-Regular'" font-size="8.5">Товары</tspan><tspan x="2.4" y="10.2" fill="#7D7D7D" font-family="'Roboto-Regular'" font-size="8.5">услуги</tspan></text>
</g>
</svg>
