<?xml version="1.0" encoding="utf-8"?>
<!-- Generator: Adobe Illustrator 18.1.0, SVG Export Plug-In . SVG Version: 6.00 Build 0)  -->
<svg version="1.1" id="Layer_1" xmlns="http://www.w3.org/2000/svg" xmlns:xlink="http://www.w3.org/1999/xlink" x="0px" y="0px"
	 viewBox="0 0 500 500" enable-background="new 0 0 500 500" xml:space="preserve">
<g>
	<path fill="#FFFFFF" d="M12.7,254.7v-43h5.2l23.5,33.7h0.3v-33.7H47v43h-5.2l-23.5-33.6H18v33.6H12.7z"/>
	<path fill="#FFFFFF" d="M82,254.7H55.4v-43H82v4.8H60.7v13.8h20.2v4.8H60.7v14.8H82V254.7z"/>
	<path fill="#FFFFFF" d="M100.2,254.7v-38.2H86.4v-4.8h33.1v4.8h-13.9v38.2H100.2z"/>
	<path fill="#FFFFFF" d="M160.4,233.3c0,13.6-7.6,22.2-19.8,22.2s-19.8-8.5-19.8-22.2c0-13.6,7.6-22.2,19.8-22.2
		S160.4,219.6,160.4,233.3z M126.2,233.3c0,10.6,5.5,17.2,14.3,17.2s14.3-6.7,14.3-17.2c0-10.6-5.5-17.3-14.3-17.3
		S126.2,222.7,126.2,233.3z"/>
	<path fill="#FFFFFF" d="M183.3,211.8c8.1,0,13.8,5.7,13.8,13.8c0,8.2-5.7,13.9-13.8,13.9h-10.8v15.3H167v-43H183.3z M172.4,234.6
		h9.5c6.1,0,9.7-3.4,9.7-9.1c0-5.7-3.5-9-9.7-9h-9.5V234.6z"/>
	<path fill="#FFFFFF" d="M223.5,242.4h-17.1l-4.3,12.3h-5.6l15.8-43h5.3l15.8,43h-5.6L223.5,242.4z M208,237.9h13.9l-6.9-19.6h-0.2
		L208,237.9z"/>
	<path fill="#FFFFFF" d="M244.8,254.7v-18.5l-15.2-24.5h6.1l11.7,19.3h0.2l11.7-19.3h6.1l-15.3,24.5v18.5H244.8z"/>
	<path fill="#FFFFFF" d="M299.7,211.8c12.7,0,20.3,8,20.3,21.5c0,13.6-7.5,21.5-20.3,21.5h-14.7v-43H299.7z M290.3,249.9h9
		c9.7,0,15.2-6,15.2-16.6c0-10.8-5.4-16.7-15.2-16.7h-9V249.9z"/>
	<path fill="#FFFFFF" d="M326.6,254.7v-43h5.4v43H326.6z"/>
	<path fill="#FFFFFF" d="M358.3,255.5c-12,0-19.7-8.8-19.7-22.4c0-13.4,7.7-22,19.7-22c9.3,0,16.4,5.5,18,14.1h-5.6
		c-1.8-5.8-6.3-9.1-12.3-9.1c-8.8,0-14.2,6.4-14.2,17c0,10.8,5.4,17.5,14.2,17.5c7.6,0,12.9-4.9,12.9-12.2v-0.8h-12.1v-4.7h17.5v4.1
		C376.6,248.6,369.8,255.5,358.3,255.5z"/>
	<path fill="#FFFFFF" d="M383.4,254.7v-43h5.4v43H383.4z"/>
	<path fill="#FFFFFF" d="M408.3,254.7v-38.2h-13.9v-4.8h33.1v4.8h-13.8v38.2H408.3z"/>
	<path fill="#FFFFFF" d="M450.8,242.4h-17.1l-4.3,12.3h-5.6l15.8-43h5.3l15.8,43h-5.6L450.8,242.4z M435.3,237.9h13.9l-6.9-19.6
		h-0.2L435.3,237.9z"/>
	<path fill="#FFFFFF" d="M491.8,254.7h-26.1v-43h5.4v38.2h20.7V254.7z"/>
</g>
<g>
	<path fill="#FFFFFF" d="M68.5,298.6c0.2,2,2.1,3.3,4.7,3.3c2.5,0,4.3-1.3,4.3-3.1c0-1.5-1.1-2.5-3.5-3.1l-2.3-0.6
		c-3.4-0.9-4.9-2.3-4.9-4.8c0-3,2.7-5.2,6.5-5.2c3.6,0,6.3,2.2,6.4,5.2h-2.3c-0.2-2-1.8-3.2-4.2-3.2c-2.4,0-4,1.2-4,3
		c0,1.4,1,2.2,3.5,2.9l1.9,0.5c3.8,1,5.3,2.4,5.3,5c0,3.4-2.6,5.4-6.9,5.4c-3.9,0-6.6-2.1-6.8-5.3H68.5z"/>
	<path fill="#FFFFFF" d="M93.5,299.7c-0.4,2.3-2.8,4-5.7,4c-3.8,0-6.3-2.7-6.3-6.9s2.4-7,6.2-7c3.7,0,5.9,2.6,5.9,6.7v0.9h-9.8v0.1
		c0,2.6,1.6,4.3,4,4.3c1.7,0,3-0.8,3.4-2.1H93.5z M83.8,295.6h7.5c-0.1-2.3-1.5-3.9-3.7-3.9C85.5,291.7,84,293.3,83.8,295.6z"/>
	<path fill="#FFFFFF" d="M96,289.9h2.1v2.2h0.1c0.4-1.4,1.7-2.3,3.3-2.3c0.3,0,0.7,0,0.9,0.1v2.2c-0.2-0.1-0.8-0.2-1.1-0.2
		c-1.8,0-2.9,1.3-2.9,3.2v8.5H96V289.9z"/>
	<path fill="#FFFFFF" d="M110.3,303.6h-2.2l-5.1-13.7h2.3l3.8,11.3h0.1l3.8-11.3h2.3L110.3,303.6z"/>
	<path fill="#FFFFFF" d="M117,286.3c0-0.8,0.6-1.4,1.4-1.4c0.8,0,1.4,0.6,1.4,1.4c0,0.8-0.6,1.4-1.4,1.4
		C117.7,287.7,117,287.1,117,286.3z M117.3,289.9h2.2v13.7h-2.2V289.9z"/>
	<path fill="#FFFFFF" d="M131.8,294.4c-0.3-1.5-1.5-2.6-3.6-2.6c-2.4,0-4,2-4,5c0,3.1,1.7,5,4,5c1.9,0,3.2-0.9,3.6-2.5h2.2
		c-0.4,2.7-2.6,4.5-5.7,4.5c-3.8,0-6.3-2.7-6.3-7c0-4.2,2.5-7,6.2-7c3.4,0,5.5,2.2,5.7,4.6H131.8z"/>
	<path fill="#FFFFFF" d="M147.4,299.7c-0.4,2.3-2.8,4-5.7,4c-3.8,0-6.3-2.7-6.3-6.9s2.4-7,6.2-7c3.7,0,5.9,2.6,5.9,6.7v0.9h-9.8v0.1
		c0,2.6,1.6,4.3,4,4.3c1.7,0,3-0.8,3.4-2.1H147.4z M137.7,295.6h7.5c-0.1-2.3-1.5-3.9-3.7-3.9C139.4,291.7,137.9,293.3,137.7,295.6z
		"/>
	<path fill="#FFFFFF" d="M156.8,291.8h-1.9v-1.8h1.9v-1.3c0-2.5,1.1-3.7,3.6-3.7c0.4,0,0.8,0,1.2,0.1v1.8c-0.3-0.1-0.7-0.1-1-0.1
		c-1.1,0-1.6,0.5-1.6,1.8v1.3h2.7v1.8H159v11.9h-2.2V291.8z"/>
	<path fill="#FFFFFF" d="M175.5,303.6h-2.1v-2.3h-0.1c-0.9,1.6-2.4,2.4-4.5,2.4c-3,0-4.9-1.9-4.9-5v-8.8h2.2v8.4
		c0,2.2,1.2,3.5,3.3,3.5c2.2,0,3.7-1.5,3.7-3.9v-7.9h2.2V303.6z M165.8,286.2c0-0.8,0.6-1.4,1.4-1.4c0.8,0,1.4,0.6,1.4,1.4
		c0,0.8-0.6,1.4-1.4,1.4C166.5,287.6,165.8,287,165.8,286.2z M170.8,286.2c0-0.8,0.6-1.4,1.4-1.4c0.8,0,1.4,0.6,1.4,1.4
		c0,0.8-0.6,1.4-1.4,1.4C171.5,287.6,170.8,287,170.8,286.2z"/>
	<path fill="#FFFFFF" d="M178.5,289.9h2.1v2.2h0.1c0.4-1.4,1.7-2.3,3.3-2.3c0.3,0,0.7,0,0.9,0.1v2.2c-0.2-0.1-0.8-0.2-1.1-0.2
		c-1.8,0-2.9,1.3-2.9,3.2v8.5h-2.2V289.9z"/>
	<path fill="#FFFFFF" d="M192.3,296.8c0-4.2,2.4-7,5.8-7c2,0,3.5,0.9,4.4,2.3h0.1v-7.7h2.2v19.1h-2.1v-2.3h0
		c-0.9,1.6-2.5,2.4-4.4,2.4C194.7,303.7,192.3,300.9,192.3,296.8z M194.5,296.8c0,3,1.6,5,4,5c2.4,0,4-2,4-5c0-3-1.6-5-4-5
		C196.1,291.8,194.5,293.8,194.5,296.8z"/>
	<path fill="#FFFFFF" d="M207.7,286.3c0-0.8,0.6-1.4,1.4-1.4c0.8,0,1.4,0.6,1.4,1.4c0,0.8-0.6,1.4-1.4,1.4
		C208.3,287.7,207.7,287.1,207.7,286.3z M208,289.9h2.2v13.7H208V289.9z"/>
	<path fill="#FFFFFF" d="M224.6,299.7c-0.4,2.3-2.8,4-5.7,4c-3.8,0-6.3-2.7-6.3-6.9s2.4-7,6.2-7c3.7,0,5.9,2.6,5.9,6.7v0.9h-9.8v0.1
		c0,2.6,1.6,4.3,4,4.3c1.7,0,3-0.8,3.4-2.1H224.6z M214.9,295.6h7.5c-0.1-2.3-1.5-3.9-3.7-3.9C216.6,291.7,215.1,293.3,214.9,295.6z
		"/>
	<path fill="#FFFFFF" d="M233.6,303.6v-18.3h7.2c3.1,0,5.3,1.8,5.3,4.6c0,1.9-1.4,3.7-3.2,4v0.1c2.5,0.3,4.1,2.1,4.1,4.5
		c0,3.2-2.3,5.1-6.2,5.1H233.6z M235.8,293.2h3.7c2.7,0,4.2-1.1,4.2-3.1c0-1.8-1.2-2.8-3.5-2.8h-4.4V293.2z M240.4,301.6
		c2.8,0,4.2-1.1,4.2-3.2s-1.5-3.2-4.4-3.2h-4.3v6.4H240.4z"/>
	<path fill="#FFFFFF" d="M260.5,299.7c-0.4,2.3-2.8,4-5.7,4c-3.8,0-6.3-2.7-6.3-6.9s2.4-7,6.2-7c3.7,0,5.9,2.6,5.9,6.7v0.9h-9.8v0.1
		c0,2.6,1.6,4.3,4,4.3c1.7,0,3-0.8,3.4-2.1H260.5z M250.8,295.6h7.5c-0.1-2.3-1.5-3.9-3.7-3.9C252.5,291.7,251,293.3,250.8,295.6z"
		/>
	<path fill="#FFFFFF" d="M263,289.9h2.1v2.2h0.1c0.4-1.4,1.7-2.3,3.3-2.3c0.3,0,0.7,0,0.9,0.1v2.2c-0.2-0.1-0.8-0.2-1.1-0.2
		c-1.8,0-2.9,1.3-2.9,3.2v8.5H263V289.9z"/>
	<path fill="#FFFFFF" d="M281.9,299.7c-0.4,2.3-2.8,4-5.7,4c-3.8,0-6.3-2.7-6.3-6.9s2.4-7,6.2-7c3.7,0,5.9,2.6,5.9,6.7v0.9h-9.8v0.1
		c0,2.6,1.6,4.3,4,4.3c1.7,0,3-0.8,3.4-2.1H281.9z M272.2,295.6h7.5c-0.1-2.3-1.5-3.9-3.7-3.9C273.9,291.7,272.4,293.3,272.2,295.6z
		"/>
	<path fill="#FFFFFF" d="M284.2,286.3c0-0.8,0.6-1.4,1.4-1.4c0.8,0,1.4,0.6,1.4,1.4c0,0.8-0.6,1.4-1.4,1.4
		C284.8,287.7,284.2,287.1,284.2,286.3z M284.5,289.9h2.2v13.7h-2.2V289.9z"/>
	<path fill="#FFFFFF" d="M292.7,286.8v3.1h2.7v1.8h-2.7v8.2c0,1.3,0.5,1.8,1.7,1.8c0.3,0,0.8,0,1-0.1v1.9c-0.3,0.1-0.9,0.1-1.4,0.1
		c-2.5,0-3.4-1-3.4-3.7v-8.3h-1.9v-1.8h1.9v-3.1H292.7z"/>
	<path fill="#FFFFFF" d="M302.7,289.8c2.8,0,4.9,1.7,5,3.9h-2.1c-0.1-1.3-1.3-2.1-2.9-2.1c-1.7,0-2.8,0.8-2.8,2
		c0,0.9,0.7,1.5,2.3,1.9l2.1,0.5c2.8,0.7,3.8,1.7,3.8,3.7c0,2.3-2.2,4-5.4,4c-2.9,0-5.1-1.6-5.3-4h2.2c0.2,1.4,1.4,2.1,3.2,2.1
		s3-0.8,3-2c0-1-0.6-1.5-2.1-1.9l-2.4-0.6c-2.4-0.6-3.6-1.8-3.6-3.7C297.6,291.4,299.7,289.8,302.7,289.8z"/>
	<path fill="#FFFFFF" d="M313.3,286.8v3.1h2.7v1.8h-2.7v8.2c0,1.3,0.5,1.8,1.7,1.8c0.3,0,0.8,0,1-0.1v1.9c-0.3,0.1-0.9,0.1-1.4,0.1
		c-2.5,0-3.4-1-3.4-3.7v-8.3h-1.9v-1.8h1.9v-3.1H313.3z"/>
	<path fill="#FFFFFF" d="M329.3,299.7c-0.4,2.3-2.8,4-5.7,4c-3.8,0-6.3-2.7-6.3-6.9s2.4-7,6.2-7c3.7,0,5.9,2.6,5.9,6.7v0.9h-9.8v0.1
		c0,2.6,1.6,4.3,4,4.3c1.7,0,3-0.8,3.4-2.1H329.3z M319.6,295.6h7.5c-0.1-2.3-1.5-3.9-3.7-3.9C321.3,291.7,319.8,293.3,319.6,295.6z
		"/>
	<path fill="#FFFFFF" d="M331.9,284.5h2.2v19.1h-2.2V284.5z"/>
	<path fill="#FFFFFF" d="M337.4,284.5h2.2v19.1h-2.2V284.5z"/>
	<path fill="#FFFFFF" d="M354.1,303.6H352v-2.3H352c-0.9,1.6-2.4,2.4-4.5,2.4c-3,0-4.9-1.9-4.9-5v-8.8h2.2v8.4
		c0,2.2,1.2,3.5,3.3,3.5c2.2,0,3.7-1.5,3.7-3.9v-7.9h2.2V303.6z"/>
	<path fill="#FFFFFF" d="M357.1,289.9h2.1v2.2h0.1c0.9-1.5,2.3-2.3,4.5-2.3c3,0,4.9,1.9,4.9,5v8.8h-2.2v-8.4c0-2.2-1.2-3.5-3.3-3.5
		c-2.2,0-3.7,1.5-3.7,3.9v7.9h-2.2V289.9z"/>
	<path fill="#FFFFFF" d="M371.4,304.7h2.3c0.3,1.1,1.7,1.9,3.5,1.9c2.4,0,3.9-1.2,3.9-3.2v-2.1H381c-0.9,1.5-2.5,2.3-4.4,2.3
		c-3.5,0-5.8-2.8-5.8-6.9c0-4.2,2.3-6.9,5.8-6.9c1.9,0,3.5,0.9,4.5,2.3h0v-2.2h2.1v13.3c0,3.3-2.3,5.3-6.2,5.3
		C374,308.5,371.7,307,371.4,304.7z M381.1,296.7c0-2.9-1.6-5-4-5c-2.4,0-3.9,2-3.9,5c0,3,1.6,4.9,3.9,4.9
		C379.5,301.6,381.1,299.7,381.1,296.7z"/>
	<path fill="#FFFFFF" d="M403.9,303.6h-2.1v-2.3h-0.1c-0.9,1.6-2.4,2.4-4.5,2.4c-3,0-4.9-1.9-4.9-5v-8.8h2.2v8.4
		c0,2.2,1.2,3.5,3.3,3.5c2.2,0,3.7-1.5,3.7-3.9v-7.9h2.2V303.6z"/>
	<path fill="#FFFFFF" d="M406.9,289.9h2.1v2.2h0.1c0.9-1.5,2.3-2.3,4.5-2.3c3,0,4.9,1.9,4.9,5v8.8h-2.2v-8.4c0-2.2-1.2-3.5-3.3-3.5
		c-2.2,0-3.7,1.5-3.7,3.9v7.9h-2.2V289.9z"/>
	<path fill="#FFFFFF" d="M420.7,296.8c0-4.2,2.4-7,5.8-7c2,0,3.5,0.9,4.4,2.3h0.1v-7.7h2.2v19.1H431v-2.3h0
		c-0.9,1.6-2.4,2.4-4.4,2.4C423.1,303.7,420.7,300.9,420.7,296.8z M422.9,296.8c0,3,1.6,5,4,5c2.4,0,4-2,4-5c0-3-1.6-5-4-5
		C424.5,291.8,422.9,293.8,422.9,296.8z"/>
	<path fill="#FFFFFF" d="M117.3,334.8v-18.3h7.2c3.1,0,5.3,1.8,5.3,4.6c0,1.9-1.4,3.7-3.2,4v0.1c2.5,0.3,4.1,2.1,4.1,4.5
		c0,3.2-2.3,5.1-6.2,5.1H117.3z M119.6,324.4h3.7c2.7,0,4.2-1.1,4.2-3.1c0-1.8-1.2-2.8-3.5-2.8h-4.4V324.4z M124.1,332.8
		c2.8,0,4.2-1.1,4.2-3.2s-1.5-3.2-4.4-3.2h-4.3v6.4H124.1z"/>
	<path fill="#FFFFFF" d="M144.3,330.9c-0.4,2.3-2.8,4-5.7,4c-3.8,0-6.3-2.7-6.3-6.9s2.4-7,6.2-7c3.7,0,5.9,2.6,5.9,6.7v0.9h-9.8v0.1
		c0,2.6,1.6,4.3,4,4.3c1.7,0,3-0.8,3.4-2.1H144.3z M134.6,326.8h7.5c-0.1-2.3-1.5-3.9-3.7-3.9C136.3,322.9,134.7,324.5,134.6,326.8z
		"/>
	<path fill="#FFFFFF" d="M146.5,333.2l7.6-10.2v0h-7.6v-1.8h10.1v1.6l-7.6,10.2v0h7.6v1.8h-10.2V333.2z"/>
	<path fill="#FFFFFF" d="M158.7,330.9c0-2.3,1.8-3.7,5.1-3.9l3.8-0.2v-1.1c0-1.7-1.1-2.6-3.1-2.6c-1.6,0-2.8,0.8-3,2.1h-2.1
		c0.1-2.3,2.3-4.1,5.2-4.1c3.2,0,5.3,1.7,5.3,4.4v9.4h-2.1v-2.4h-0.1c-0.8,1.5-2.5,2.5-4.4,2.5C160.5,334.9,158.7,333.3,158.7,330.9
		z M167.7,329.6v-1.1l-3.6,0.2c-2.1,0.1-3.1,0.9-3.1,2.2c0,1.3,1.1,2.1,2.8,2.1C166,333,167.7,331.6,167.7,329.6z"/>
	<path fill="#FFFFFF" d="M172.9,315.7h2.2v7.7h0.1c0.9-1.5,2.4-2.3,4.5-2.3c3,0,5,2,5,5.1v8.7h-2.2v-8.3c0-2.2-1.3-3.5-3.5-3.5
		c-2.3,0-3.9,1.6-3.9,4v7.9h-2.2V315.7z"/>
	<path fill="#FFFFFF" d="M187.7,315.7h2.2v19.1h-2.2V315.7z"/>
	<path fill="#FFFFFF" d="M204.5,334.8h-2.1v-2.3h-0.1c-0.9,1.6-2.4,2.4-4.5,2.4c-3,0-4.9-1.9-4.9-5v-8.8h2.2v8.4
		c0,2.2,1.2,3.5,3.3,3.5c2.2,0,3.7-1.5,3.7-3.9v-7.9h2.2V334.8z"/>
	<path fill="#FFFFFF" d="M207.5,321.1h2.1v2.2h0.1c0.9-1.5,2.3-2.3,4.5-2.3c3,0,4.9,1.9,4.9,5v8.8h-2.2v-8.4c0-2.2-1.2-3.5-3.3-3.5
		c-2.2,0-3.7,1.5-3.7,3.9v7.9h-2.2V321.1z"/>
	<path fill="#FFFFFF" d="M221.8,335.9h2.3c0.3,1.1,1.7,1.9,3.5,1.9c2.4,0,3.9-1.2,3.9-3.2v-2.1h-0.1c-0.9,1.5-2.5,2.3-4.4,2.3
		c-3.5,0-5.8-2.8-5.8-6.9c0-4.2,2.3-6.9,5.8-6.9c1.9,0,3.5,0.9,4.5,2.3h0v-2.2h2.1v13.3c0,3.3-2.3,5.3-6.2,5.3
		C224.3,339.7,222.1,338.2,221.8,335.9z M231.4,327.9c0-2.9-1.6-5-4-5c-2.4,0-3.9,2-3.9,5c0,3,1.6,4.9,3.9,4.9
		C229.8,332.8,231.4,330.9,231.4,327.9z"/>
	<path fill="#FFFFFF" d="M249,334.8h-2.2l-5.1-13.7h2.3l3.8,11.3h0.1l3.8-11.3h2.3L249,334.8z"/>
	<path fill="#FFFFFF" d="M254.8,328c0-4.3,2.5-7,6.3-7c3.8,0,6.3,2.7,6.3,7c0,4.2-2.5,7-6.3,7C257.2,334.9,254.8,332.2,254.8,328z
		 M265.2,328c0-3.1-1.5-5-4.1-5c-2.6,0-4.1,1.9-4.1,5s1.5,5,4.1,5C263.6,333,265.2,331.1,265.2,328z"/>
	<path fill="#FFFFFF" d="M269.7,321.1h2.1v2.2h0.1c0.9-1.5,2.3-2.3,4.5-2.3c3,0,4.9,1.9,4.9,5v8.8H279v-8.4c0-2.2-1.2-3.5-3.3-3.5
		c-2.2,0-3.7,1.5-3.7,3.9v7.9h-2.2V321.1z"/>
	<path fill="#FFFFFF" d="M289.7,328c0-4.2,2.4-7,5.8-7c2,0,3.5,0.9,4.4,2.3h0.1v-7.7h2.2v19.1H300v-2.3h0c-0.9,1.6-2.4,2.4-4.4,2.4
		C292.1,334.9,289.7,332.1,289.7,328z M291.9,328c0,3,1.6,5,4,5c2.4,0,4-2,4-5c0-3-1.6-5-4-5C293.5,323,291.9,325,291.9,328z"/>
	<path fill="#FFFFFF" d="M305.1,317.5c0-0.8,0.6-1.4,1.4-1.4c0.8,0,1.4,0.6,1.4,1.4c0,0.8-0.6,1.4-1.4,1.4
		C305.7,318.9,305.1,318.3,305.1,317.5z M305.4,321.1h2.2v13.7h-2.2V321.1z"/>
	<path fill="#FFFFFF" d="M310.6,335.9h2.3c0.3,1.1,1.7,1.9,3.5,1.9c2.4,0,3.9-1.2,3.9-3.2v-2.1h-0.1c-0.9,1.5-2.5,2.3-4.4,2.3
		c-3.5,0-5.8-2.8-5.8-6.9c0-4.2,2.3-6.9,5.8-6.9c1.9,0,3.5,0.9,4.5,2.3h0v-2.2h2.1v13.3c0,3.3-2.3,5.3-6.2,5.3
		C313.2,339.7,310.9,338.2,310.6,335.9z M320.3,327.9c0-2.9-1.6-5-4-5c-2.4,0-3.9,2-3.9,5c0,3,1.6,4.9,3.9,4.9
		C318.6,332.8,320.3,330.9,320.3,327.9z"/>
	<path fill="#FFFFFF" d="M325.3,317.5c0-0.8,0.6-1.4,1.4-1.4c0.8,0,1.4,0.6,1.4,1.4c0,0.8-0.6,1.4-1.4,1.4
		C325.9,318.9,325.3,318.3,325.3,317.5z M325.6,321.1h2.2v13.7h-2.2V321.1z"/>
	<path fill="#FFFFFF" d="M333.9,318v3.1h2.7v1.8h-2.7v8.2c0,1.3,0.5,1.8,1.7,1.8c0.3,0,0.8,0,1-0.1v1.9c-0.3,0.1-0.9,0.1-1.4,0.1
		c-2.5,0-3.4-1-3.4-3.7V323h-1.9v-1.8h1.9V318H333.9z"/>
	<path fill="#FFFFFF" d="M338.2,330.9c0-2.3,1.8-3.7,5.1-3.9l3.8-0.2v-1.1c0-1.7-1.1-2.6-3.1-2.6c-1.6,0-2.8,0.8-3,2.1h-2.1
		c0.1-2.3,2.3-4.1,5.2-4.1c3.2,0,5.3,1.7,5.3,4.4v9.4h-2.1v-2.4h-0.1c-0.8,1.5-2.5,2.5-4.4,2.5C340.1,334.9,338.2,333.3,338.2,330.9
		z M347.2,329.6v-1.1l-3.6,0.2c-2.1,0.1-3.1,0.9-3.1,2.2c0,1.3,1.1,2.1,2.8,2.1C345.6,333,347.2,331.6,347.2,329.6z"/>
	<path fill="#FFFFFF" d="M352.5,315.7h2.2v19.1h-2.2V315.7z"/>
	<path fill="#FFFFFF" d="M369.1,330.9c-0.4,2.3-2.8,4-5.7,4c-3.8,0-6.3-2.7-6.3-6.9s2.4-7,6.2-7c3.7,0,5.9,2.6,5.9,6.7v0.9h-9.8v0.1
		c0,2.6,1.6,4.3,4,4.3c1.7,0,3-0.8,3.4-2.1H369.1z M359.4,326.8h7.5c-0.1-2.3-1.5-3.9-3.7-3.9C361.1,322.9,359.6,324.5,359.4,326.8z
		"/>
	<path fill="#FFFFFF" d="M371.6,321.1h2.1v2.2h0.1c0.9-1.5,2.3-2.3,4.5-2.3c3,0,4.9,1.9,4.9,5v8.8h-2.2v-8.4c0-2.2-1.2-3.5-3.3-3.5
		c-2.2,0-3.7,1.5-3.7,3.9v7.9h-2.2V321.1z"/>
	<path fill="#FFFFFF" d="M99.3,366h-2.2l-5-18.3h2.4l3.7,15h0.1l4.1-15h2.3l4.1,15h0.1l3.7-15h2.4l-5,18.3h-2.2l-4.2-14.5h-0.1
		L99.3,366z"/>
	<path fill="#FFFFFF" d="M115,362.1c0-2.3,1.8-3.7,5.1-3.9l3.8-0.2v-1.1c0-1.7-1.1-2.6-3.1-2.6c-1.6,0-2.8,0.8-3,2.1h-2.1
		c0.1-2.3,2.3-4.1,5.2-4.1c3.2,0,5.3,1.7,5.3,4.4v9.4H124v-2.4H124c-0.8,1.5-2.5,2.5-4.4,2.5C116.8,366.1,115,364.5,115,362.1z
		 M123.9,360.8v-1.1l-3.6,0.2c-2.1,0.1-3.1,0.9-3.1,2.2c0,1.3,1.1,2.1,2.8,2.1C122.3,364.2,123.9,362.8,123.9,360.8z"/>
	<path fill="#FFFFFF" d="M129.1,352.3h2.1v2.2h0.1c0.4-1.4,1.7-2.3,3.3-2.3c0.3,0,0.7,0,0.9,0.1v2.2c-0.2-0.1-0.8-0.2-1.1-0.2
		c-1.8,0-2.9,1.3-2.9,3.2v8.5h-2.2V352.3z"/>
	<path fill="#FFFFFF" d="M147.9,362.1c-0.4,2.3-2.8,4-5.7,4c-3.8,0-6.3-2.7-6.3-6.9s2.4-7,6.2-7c3.7,0,5.9,2.6,5.9,6.7v0.9h-9.8v0.1
		c0,2.6,1.6,4.3,4,4.3c1.7,0,3-0.8,3.4-2.1H147.9z M138.3,358h7.5c-0.1-2.3-1.5-3.9-3.7-3.9C140,354.1,138.4,355.7,138.3,358z"/>
	<path fill="#FFFFFF" d="M150.4,352.3h2.1v2.2h0.1c0.9-1.5,2.3-2.3,4.5-2.3c3,0,4.9,1.9,4.9,5v8.8h-2.2v-8.4c0-2.2-1.2-3.5-3.3-3.5
		c-2.2,0-3.7,1.5-3.7,3.9v7.9h-2.2V352.3z"/>
	<path fill="#FFFFFF" d="M182.5,366h-2.1v-2.3h-0.1c-0.9,1.6-2.4,2.4-4.5,2.4c-3,0-4.9-1.9-4.9-5v-8.8h2.2v8.4
		c0,2.2,1.2,3.5,3.3,3.5c2.2,0,3.7-1.5,3.7-3.9v-7.9h2.2V366z"/>
	<path fill="#FFFFFF" d="M185.5,352.3h2.1v2.2h0.1c0.9-1.5,2.3-2.3,4.5-2.3c3,0,4.9,1.9,4.9,5v8.8h-2.2v-8.4c0-2.2-1.2-3.5-3.3-3.5
		c-2.2,0-3.7,1.5-3.7,3.9v7.9h-2.2V352.3z"/>
	<path fill="#FFFFFF" d="M199.2,359.2c0-4.2,2.4-7,5.8-7c2,0,3.5,0.9,4.4,2.3h0.1v-7.7h2.2V366h-2.1v-2.3h0
		c-0.9,1.6-2.5,2.4-4.4,2.4C201.6,366.1,199.2,363.3,199.2,359.2z M201.5,359.2c0,3,1.6,5,4,5c2.4,0,4-2,4-5c0-3-1.6-5-4-5
		C203.1,354.2,201.5,356.2,201.5,359.2z"/>
	<path fill="#FFFFFF" d="M227.6,347.7c5.4,0,8.6,3.4,8.6,9.2c0,5.8-3.2,9.2-8.6,9.2h-6.3v-18.3H227.6z M223.6,364h3.8
		c4.2,0,6.5-2.5,6.5-7.1c0-4.6-2.3-7.1-6.5-7.1h-3.8V364z"/>
	<path fill="#FFFFFF" d="M238.6,348.7c0-0.8,0.6-1.4,1.4-1.4c0.8,0,1.4,0.6,1.4,1.4c0,0.8-0.6,1.4-1.4,1.4
		C239.2,350.1,238.6,349.5,238.6,348.7z M238.9,352.3h2.2V366h-2.2V352.3z"/>
	<path fill="#FFFFFF" d="M255.5,362.1c-0.4,2.3-2.8,4-5.7,4c-3.8,0-6.3-2.7-6.3-6.9s2.4-7,6.2-7c3.7,0,5.9,2.6,5.9,6.7v0.9h-9.8v0.1
		c0,2.6,1.6,4.3,4,4.3c1.7,0,3-0.8,3.4-2.1H255.5z M245.8,358h7.5c-0.1-2.3-1.5-3.9-3.7-3.9C247.5,354.1,246,355.7,245.8,358z"/>
	<path fill="#FFFFFF" d="M258,352.3h2.1v2.2h0.1c0.9-1.5,2.3-2.3,4.5-2.3c3,0,4.9,1.9,4.9,5v8.8h-2.2v-8.4c0-2.2-1.2-3.5-3.3-3.5
		c-2.2,0-3.7,1.5-3.7,3.9v7.9H258V352.3z"/>
	<path fill="#FFFFFF" d="M277.2,352.2c2.8,0,4.9,1.7,5,3.9h-2.1c-0.1-1.3-1.3-2.1-2.9-2.1c-1.7,0-2.8,0.8-2.8,2
		c0,0.9,0.7,1.5,2.3,1.9l2.1,0.5c2.8,0.7,3.8,1.7,3.8,3.7c0,2.3-2.2,4-5.4,4c-2.9,0-5.1-1.6-5.3-4h2.2c0.2,1.4,1.4,2.1,3.2,2.1
		c1.9,0,3-0.8,3-2c0-1-0.6-1.5-2.1-1.9l-2.4-0.6c-2.4-0.6-3.6-1.8-3.6-3.7C272.2,353.8,274.3,352.2,277.2,352.2z"/>
	<path fill="#FFFFFF" d="M287.8,349.2v3.1h2.7v1.8h-2.7v8.2c0,1.3,0.5,1.8,1.7,1.8c0.3,0,0.8,0,1-0.1v1.9c-0.3,0.1-0.9,0.1-1.4,0.1
		c-2.5,0-3.4-1-3.4-3.7v-8.3h-1.9v-1.8h1.9v-3.1H287.8z"/>
	<path fill="#FFFFFF" d="M293.1,346.9h2.2V366h-2.2V346.9z"/>
	<path fill="#FFFFFF" d="M309.7,362.1c-0.4,2.3-2.8,4-5.7,4c-3.8,0-6.3-2.7-6.3-6.9s2.4-7,6.2-7c3.7,0,5.9,2.6,5.9,6.7v0.9H300v0.1
		c0,2.6,1.6,4.3,4,4.3c1.7,0,3-0.8,3.4-2.1H309.7z M300,358h7.5c-0.1-2.3-1.5-3.9-3.7-3.9C301.7,354.1,300.2,355.7,300,358z"/>
	<path fill="#FFFFFF" d="M312,348.7c0-0.8,0.6-1.4,1.4-1.4c0.8,0,1.4,0.6,1.4,1.4c0,0.8-0.6,1.4-1.4,1.4
		C312.6,350.1,312,349.5,312,348.7z M312.3,352.3h2.2V366h-2.2V352.3z"/>
	<path fill="#FFFFFF" d="M322.4,352.2c2.8,0,4.9,1.7,5,3.9h-2.1c-0.1-1.3-1.3-2.1-2.9-2.1c-1.7,0-2.8,0.8-2.8,2
		c0,0.9,0.7,1.5,2.3,1.9l2.1,0.5c2.8,0.7,3.8,1.7,3.8,3.7c0,2.3-2.2,4-5.4,4c-2.9,0-5.1-1.6-5.3-4h2.2c0.2,1.4,1.4,2.1,3.2,2.1
		c1.9,0,3-0.8,3-2c0-1-0.6-1.5-2.1-1.9l-2.4-0.6c-2.4-0.6-3.6-1.8-3.6-3.7C317.4,353.8,319.5,352.2,322.4,352.2z"/>
	<path fill="#FFFFFF" d="M333,349.2v3.1h2.7v1.8H333v8.2c0,1.3,0.5,1.8,1.7,1.8c0.3,0,0.8,0,1-0.1v1.9c-0.3,0.1-0.9,0.1-1.4,0.1
		c-2.5,0-3.4-1-3.4-3.7v-8.3h-1.9v-1.8h1.9v-3.1H333z"/>
	<path fill="#FFFFFF" d="M349.6,366h-2.1v-2.3h-0.1c-0.8,1.6-2.4,2.4-4.5,2.4c-3,0-4.9-1.9-4.9-5v-8.8h2.2v8.4
		c0,2.2,1.2,3.5,3.3,3.5c2.2,0,3.7-1.5,3.7-3.9v-7.9h2.2V366z"/>
	<path fill="#FFFFFF" d="M352.6,352.3h2.1v2.2h0.1c0.9-1.5,2.3-2.3,4.5-2.3c3,0,4.9,1.9,4.9,5v8.8h-2.2v-8.4c0-2.2-1.2-3.5-3.3-3.5
		c-2.2,0-3.7,1.5-3.7,3.9v7.9h-2.2V352.3z"/>
	<path fill="#FFFFFF" d="M366.9,367.1h2.3c0.3,1.1,1.7,1.9,3.5,1.9c2.4,0,3.9-1.2,3.9-3.2v-2.1h-0.1c-0.9,1.5-2.5,2.3-4.4,2.3
		c-3.5,0-5.8-2.8-5.8-6.9c0-4.2,2.3-6.9,5.8-6.9c1.9,0,3.5,0.9,4.5,2.3h0v-2.2h2.1v13.3c0,3.3-2.3,5.3-6.2,5.3
		C369.4,370.9,367.2,369.4,366.9,367.1z M376.5,359.1c0-2.9-1.6-5-4-5c-2.4,0-3.9,2-3.9,5c0,3,1.6,4.9,3.9,4.9
		C374.9,364,376.5,362.1,376.5,359.1z"/>
	<path fill="#FFFFFF" d="M393,362.1c-0.4,2.3-2.8,4-5.7,4c-3.8,0-6.3-2.7-6.3-6.9s2.4-7,6.2-7c3.7,0,5.9,2.6,5.9,6.7v0.9h-9.8v0.1
		c0,2.6,1.6,4.3,4,4.3c1.7,0,3-0.8,3.4-2.1H393z M383.3,358h7.5c-0.1-2.3-1.5-3.9-3.7-3.9C385,354.1,383.5,355.7,383.3,358z"/>
	<path fill="#FFFFFF" d="M395.5,352.3h2.1v2.2h0.1c0.9-1.5,2.3-2.3,4.5-2.3c3,0,4.9,1.9,4.9,5v8.8h-2.2v-8.4c0-2.2-1.2-3.5-3.3-3.5
		c-2.2,0-3.7,1.5-3.7,3.9v7.9h-2.2V352.3z"/>
</g>
<text transform="matrix(1 0 0 1 533.3385 315.4561)"><tspan x="0" y="0" font-family="'SFUIDisplay-Regular'" font-size="26">сервіс поставки та оплати цифрових</tspan><tspan x="125.3" y="31.2" font-family="'SFUIDisplay-Regular'" font-size="26">товарів і послуг</tspan></text>
</svg>
