<?xml version="1.0" encoding="utf-8"?>
<!-- Generator: Adobe Illustrator 18.1.0, SVG Export Plug-In . SVG Version: 6.00 Build 0)  -->
<svg version="1.1" id="Layer_1" xmlns="http://www.w3.org/2000/svg" xmlns:xlink="http://www.w3.org/1999/xlink" x="0px" y="0px"
	 viewBox="0 0 500 500" enable-background="new 0 0 500 500" xml:space="preserve">
<g>
	<path fill="#FFFFFF" d="M12.7,254.7v-43h5.2l23.5,33.7h0.3v-33.7H47v43h-5.2l-23.5-33.6H18v33.6H12.7z"/>
	<path fill="#FFFFFF" d="M82,254.7H55.4v-43H82v4.8H60.7v13.8h20.2v4.8H60.7v14.8H82V254.7z"/>
	<path fill="#FFFFFF" d="M100.2,254.7v-38.2H86.4v-4.8h33.1v4.8h-13.9v38.2H100.2z"/>
	<path fill="#FFFFFF" d="M160.4,233.3c0,13.6-7.6,22.2-19.8,22.2s-19.8-8.5-19.8-22.2c0-13.6,7.6-22.2,19.8-22.2
		S160.4,219.6,160.4,233.3z M126.2,233.3c0,10.6,5.5,17.2,14.3,17.2s14.3-6.7,14.3-17.2c0-10.6-5.5-17.3-14.3-17.3
		S126.2,222.7,126.2,233.3z"/>
	<path fill="#FFFFFF" d="M183.3,211.8c8.1,0,13.8,5.7,13.8,13.8c0,8.2-5.7,13.9-13.8,13.9h-10.8v15.3H167v-43H183.3z M172.4,234.6
		h9.5c6.1,0,9.7-3.4,9.7-9.1c0-5.7-3.5-9-9.7-9h-9.5V234.6z"/>
	<path fill="#FFFFFF" d="M223.5,242.4h-17.1l-4.3,12.3h-5.6l15.8-43h5.3l15.8,43h-5.6L223.5,242.4z M208,237.9h13.9l-6.9-19.6h-0.2
		L208,237.9z"/>
	<path fill="#FFFFFF" d="M244.8,254.7v-18.5l-15.2-24.5h6.1l11.7,19.3h0.2l11.7-19.3h6.1l-15.3,24.5v18.5H244.8z"/>
	<path fill="#FFFFFF" d="M299.7,211.8c12.7,0,20.3,8,20.3,21.5c0,13.6-7.5,21.5-20.3,21.5h-14.7v-43H299.7z M290.3,249.9h9
		c9.7,0,15.2-6,15.2-16.6c0-10.8-5.4-16.7-15.2-16.7h-9V249.9z"/>
	<path fill="#FFFFFF" d="M326.6,254.7v-43h5.4v43H326.6z"/>
	<path fill="#FFFFFF" d="M358.3,255.5c-12,0-19.7-8.8-19.7-22.4c0-13.4,7.7-22,19.7-22c9.3,0,16.4,5.5,18,14.1h-5.6
		c-1.8-5.8-6.3-9.1-12.3-9.1c-8.8,0-14.2,6.4-14.2,17c0,10.8,5.4,17.5,14.2,17.5c7.6,0,12.9-4.9,12.9-12.2v-0.8h-12.1v-4.7h17.5v4.1
		C376.6,248.6,369.8,255.5,358.3,255.5z"/>
	<path fill="#FFFFFF" d="M383.4,254.7v-43h5.4v43H383.4z"/>
	<path fill="#FFFFFF" d="M408.3,254.7v-38.2h-13.9v-4.8h33.1v4.8h-13.8v38.2H408.3z"/>
	<path fill="#FFFFFF" d="M450.8,242.4h-17.1l-4.3,12.3h-5.6l15.8-43h5.3l15.8,43h-5.6L450.8,242.4z M435.3,237.9h13.9l-6.9-19.6
		h-0.2L435.3,237.9z"/>
	<path fill="#FFFFFF" d="M491.8,254.7h-26.1v-43h5.4v38.2h20.7V254.7z"/>
</g>
<g>
	<path fill="#FFFFFF" d="M35.8,296.8c0-4.2,2.4-7,5.8-7c2,0,3.5,0.9,4.4,2.3h0.1v-7.7h2.2v19.1h-2.1v-2.3h0
		c-0.9,1.6-2.5,2.4-4.4,2.4C38.2,303.7,35.8,300.9,35.8,296.8z M38.1,296.8c0,3,1.6,5,4,5c2.4,0,4-2,4-5c0-3-1.6-5-4-5
		C39.7,291.8,38.1,293.8,38.1,296.8z"/>
	<path fill="#FFFFFF" d="M62.7,299.7c-0.4,2.3-2.8,4-5.7,4c-3.8,0-6.3-2.7-6.3-6.9s2.4-7,6.2-7c3.7,0,5.9,2.6,5.9,6.7v0.9H53v0.1
		c0,2.6,1.6,4.3,4,4.3c1.7,0,3-0.8,3.4-2.1H62.7z M53,295.6h7.5c-0.1-2.3-1.5-3.9-3.7-3.9C54.7,291.7,53.2,293.3,53,295.6z"/>
	<path fill="#FFFFFF" d="M65.3,284.5h2.2v19.1h-2.2V284.5z"/>
	<path fill="#FFFFFF" d="M70.4,286.3c0-0.8,0.6-1.4,1.4-1.4c0.8,0,1.4,0.6,1.4,1.4c0,0.8-0.6,1.4-1.4,1.4
		C71.1,287.7,70.4,287.1,70.4,286.3z M70.7,289.9h2.2v13.7h-2.2V289.9z"/>
	<path fill="#FFFFFF" d="M82.2,303.6h-2.2l-5.1-13.7h2.3l3.8,11.3h0.1l3.8-11.3h2.3L82.2,303.6z"/>
	<path fill="#FFFFFF" d="M99.9,299.7c-0.4,2.3-2.8,4-5.7,4c-3.8,0-6.3-2.7-6.3-6.9s2.4-7,6.2-7c3.7,0,5.9,2.6,5.9,6.7v0.9h-9.8v0.1
		c0,2.6,1.6,4.3,4,4.3c1.7,0,3-0.8,3.4-2.1H99.9z M90.3,295.6h7.5c-0.1-2.3-1.5-3.9-3.7-3.9C92,291.7,90.4,293.3,90.3,295.6z"/>
	<path fill="#FFFFFF" d="M102.4,289.9h2.1v2.2h0.1c0.4-1.4,1.7-2.3,3.3-2.3c0.3,0,0.7,0,0.9,0.1v2.2c-0.2-0.1-0.8-0.2-1.1-0.2
		c-1.8,0-2.9,1.3-2.9,3.2v8.5h-2.2V289.9z"/>
	<path fill="#FFFFFF" d="M110.9,308.5v-1.9c0.3,0.1,0.6,0.1,0.9,0.1c1.3,0,2-0.6,2.5-2.3l0.3-0.8l-5.1-13.7h2.3l3.8,11.4h0.1
		l3.8-11.4h2.3l-5.4,14.5c-1.2,3.2-2.3,4.1-4.7,4.1C111.6,308.6,111.1,308.5,110.9,308.5z"/>
	<path fill="#FFFFFF" d="M129.3,299.7c0-2.3,1.8-3.7,5.1-3.9l3.8-0.2v-1.1c0-1.7-1.1-2.6-3.1-2.6c-1.6,0-2.8,0.8-3,2.1H130
		c0.1-2.3,2.3-4.1,5.2-4.1c3.2,0,5.3,1.7,5.3,4.4v9.4h-2.1v-2.4h-0.1c-0.8,1.5-2.5,2.5-4.4,2.5C131.1,303.7,129.3,302.1,129.3,299.7
		z M138.2,298.4v-1.1l-3.6,0.2c-2.1,0.1-3.1,0.9-3.1,2.2c0,1.3,1.1,2.1,2.8,2.1C136.6,301.8,138.2,300.4,138.2,298.4z"/>
	<path fill="#FFFFFF" d="M143.4,289.9h2.1v2.2h0.1c0.9-1.5,2.3-2.3,4.5-2.3c3,0,4.9,1.9,4.9,5v8.8h-2.2v-8.4c0-2.2-1.2-3.5-3.3-3.5
		c-2.2,0-3.7,1.5-3.7,3.9v7.9h-2.2V289.9z"/>
	<path fill="#FFFFFF" d="M157.1,296.8c0-4.2,2.4-7,5.8-7c2,0,3.5,0.9,4.4,2.3h0.1v-7.7h2.2v19.1h-2.1v-2.3h0
		c-0.9,1.6-2.5,2.4-4.4,2.4C159.6,303.7,157.1,300.9,157.1,296.8z M159.4,296.8c0,3,1.6,5,4,5c2.4,0,4-2,4-5c0-3-1.6-5-4-5
		C161,291.8,159.4,293.8,159.4,296.8z"/>
	<path fill="#FFFFFF" d="M191.4,296.8c0,4.2-2.4,7-5.8,7c-1.9,0-3.5-0.9-4.4-2.3h-0.1v6.8h-2.2v-18.3h2.1v2.2h0.1
		c0.8-1.4,2.5-2.3,4.4-2.3C189,289.8,191.4,292.6,191.4,296.8z M189.1,296.8c0-3-1.6-5-4-5c-2.4,0-4,2-4,5c0,3,1.6,5,4,5
		C187.5,301.8,189.1,299.8,189.1,296.8z"/>
	<path fill="#FFFFFF" d="M193.1,299.7c0-2.3,1.8-3.7,5.1-3.9l3.8-0.2v-1.1c0-1.7-1.1-2.6-3.1-2.6c-1.6,0-2.8,0.8-3,2.1h-2.1
		c0.1-2.3,2.3-4.1,5.2-4.1c3.2,0,5.3,1.7,5.3,4.4v9.4h-2.1v-2.4h-0.1c-0.8,1.5-2.5,2.5-4.4,2.5C194.9,303.7,193.1,302.1,193.1,299.7
		z M202,298.4v-1.1l-3.6,0.2c-2.1,0.1-3.1,0.9-3.1,2.2c0,1.3,1.1,2.1,2.8,2.1C200.4,301.8,202,300.4,202,298.4z"/>
	<path fill="#FFFFFF" d="M207.4,308.5v-1.9c0.3,0.1,0.6,0.1,0.9,0.1c1.3,0,2-0.6,2.5-2.3l0.3-0.8l-5.1-13.7h2.3l3.8,11.4h0.1
		l3.8-11.4h2.3l-5.4,14.5c-1.2,3.2-2.3,4.1-4.7,4.1C208,308.6,207.6,308.5,207.4,308.5z"/>
	<path fill="#FFFFFF" d="M220.2,289.9h2.1v2.2h0.1c0.6-1.5,2.1-2.3,3.9-2.3c1.9,0,3.2,0.9,3.8,2.6h0.1c0.8-1.6,2.4-2.6,4.3-2.6
		c2.7,0,4.5,1.8,4.5,4.5v9.3h-2.2v-8.8c0-1.9-1.1-3-2.9-3s-3.1,1.4-3.1,3.2v8.6h-2.2v-9.1c0-1.7-1.1-2.7-2.8-2.7
		c-1.8,0-3.2,1.4-3.2,3.4v8.5h-2.2V289.9z"/>
	<path fill="#FFFFFF" d="M253.1,299.7c-0.4,2.3-2.8,4-5.7,4c-3.8,0-6.3-2.7-6.3-6.9s2.4-7,6.2-7c3.7,0,5.9,2.6,5.9,6.7v0.9h-9.8v0.1
		c0,2.6,1.6,4.3,4,4.3c1.7,0,3-0.8,3.4-2.1H253.1z M243.4,295.6h7.5c-0.1-2.3-1.5-3.9-3.7-3.9C245.1,291.7,243.5,293.3,243.4,295.6z
		"/>
	<path fill="#FFFFFF" d="M255.5,289.9h2.1v2.2h0.1c0.9-1.5,2.3-2.3,4.5-2.3c3,0,4.9,1.9,4.9,5v8.8h-2.2v-8.4c0-2.2-1.2-3.5-3.3-3.5
		c-2.2,0-3.7,1.5-3.7,3.9v7.9h-2.2V289.9z"/>
	<path fill="#FFFFFF" d="M272.9,286.8v3.1h2.7v1.8h-2.7v8.2c0,1.3,0.5,1.8,1.7,1.8c0.3,0,0.8,0,1-0.1v1.9c-0.3,0.1-0.9,0.1-1.4,0.1
		c-2.5,0-3.4-1-3.4-3.7v-8.3h-1.9v-1.8h1.9v-3.1H272.9z"/>
	<path fill="#FFFFFF" d="M289.1,289.8c2.8,0,4.9,1.7,5,3.9h-2.1c-0.1-1.3-1.3-2.1-2.9-2.1c-1.7,0-2.8,0.8-2.8,2
		c0,0.9,0.7,1.5,2.3,1.9l2.1,0.5c2.8,0.7,3.8,1.7,3.8,3.7c0,2.3-2.2,4-5.4,4c-2.9,0-5.1-1.6-5.3-4h2.2c0.2,1.4,1.4,2.1,3.2,2.1
		c1.9,0,3-0.8,3-2c0-1-0.6-1.5-2.1-1.9l-2.4-0.6c-2.4-0.6-3.6-1.8-3.6-3.7C284,291.4,286.1,289.8,289.1,289.8z"/>
	<path fill="#FFFFFF" d="M308,299.7c-0.4,2.3-2.8,4-5.7,4c-3.8,0-6.3-2.7-6.3-6.9s2.4-7,6.2-7c3.7,0,5.9,2.6,5.9,6.7v0.9h-9.8v0.1
		c0,2.6,1.6,4.3,4,4.3c1.7,0,3-0.8,3.4-2.1H308z M298.3,295.6h7.5c-0.1-2.3-1.5-3.9-3.7-3.9C300,291.7,298.5,293.3,298.3,295.6z"/>
	<path fill="#FFFFFF" d="M310.5,289.9h2.1v2.2h0.1c0.4-1.4,1.7-2.3,3.3-2.3c0.3,0,0.7,0,0.9,0.1v2.2c-0.2-0.1-0.8-0.2-1.1-0.2
		c-1.8,0-2.9,1.3-2.9,3.2v8.5h-2.2V289.9z"/>
	<path fill="#FFFFFF" d="M324.8,303.6h-2.2l-5.1-13.7h2.3l3.8,11.3h0.1l3.8-11.3h2.3L324.8,303.6z"/>
	<path fill="#FFFFFF" d="M331.5,286.3c0-0.8,0.6-1.4,1.4-1.4c0.8,0,1.4,0.6,1.4,1.4c0,0.8-0.6,1.4-1.4,1.4
		C332.2,287.7,331.5,287.1,331.5,286.3z M331.8,289.9h2.2v13.7h-2.2V289.9z"/>
	<path fill="#FFFFFF" d="M346.3,294.4c-0.3-1.5-1.5-2.6-3.6-2.6c-2.4,0-4,2-4,5c0,3.1,1.7,5,4,5c1.9,0,3.2-0.9,3.6-2.5h2.2
		c-0.4,2.7-2.6,4.5-5.7,4.5c-3.8,0-6.3-2.7-6.3-7c0-4.2,2.5-7,6.2-7c3.4,0,5.5,2.2,5.7,4.6H346.3z"/>
	<path fill="#FFFFFF" d="M361.9,299.7c-0.4,2.3-2.8,4-5.7,4c-3.8,0-6.3-2.7-6.3-6.9s2.4-7,6.2-7c3.7,0,5.9,2.6,5.9,6.7v0.9h-9.8v0.1
		c0,2.6,1.6,4.3,4,4.3c1.7,0,3-0.8,3.4-2.1H361.9z M352.2,295.6h7.5c-0.1-2.3-1.5-3.9-3.7-3.9C353.9,291.7,352.4,293.3,352.2,295.6z
		"/>
	<path fill="#FFFFFF" d="M369.9,296.8c0-4.3,2.5-7,6.3-7c3.8,0,6.3,2.7,6.3,7c0,4.2-2.5,7-6.3,7C372.4,303.7,369.9,301,369.9,296.8z
		 M380.3,296.8c0-3.1-1.5-5-4.1-5c-2.6,0-4.1,1.9-4.1,5s1.5,5,4.1,5C378.8,301.8,380.3,299.9,380.3,296.8z"/>
	<path fill="#FFFFFF" d="M385.6,291.8h-1.9v-1.8h1.9v-1.3c0-2.5,1.1-3.7,3.6-3.7c0.4,0,0.8,0,1.2,0.1v1.8c-0.3-0.1-0.7-0.1-1-0.1
		c-1.1,0-1.6,0.5-1.6,1.8v1.3h2.7v1.8h-2.7v11.9h-2.2V291.8z"/>
	<path fill="#FFFFFF" d="M398.4,296.8c0-4.2,2.4-7,5.8-7c2,0,3.5,0.9,4.4,2.3h0.1v-7.7h2.2v19.1h-2.1v-2.3h0
		c-0.9,1.6-2.5,2.4-4.4,2.4C400.8,303.7,398.4,300.9,398.4,296.8z M400.6,296.8c0,3,1.6,5,4,5c2.4,0,4-2,4-5c0-3-1.6-5-4-5
		C402.2,291.8,400.6,293.8,400.6,296.8z"/>
	<path fill="#FFFFFF" d="M413.8,286.3c0-0.8,0.6-1.4,1.4-1.4c0.8,0,1.4,0.6,1.4,1.4c0,0.8-0.6,1.4-1.4,1.4
		C414.4,287.7,413.8,287.1,413.8,286.3z M414.1,289.9h2.2v13.7h-2.2V289.9z"/>
	<path fill="#FFFFFF" d="M419.3,304.7h2.3c0.3,1.1,1.7,1.9,3.5,1.9c2.4,0,3.9-1.2,3.9-3.2v-2.1h-0.1c-0.9,1.5-2.5,2.3-4.4,2.3
		c-3.5,0-5.8-2.8-5.8-6.9c0-4.2,2.3-6.9,5.8-6.9c1.9,0,3.5,0.9,4.5,2.3h0v-2.2h2.1v13.3c0,3.3-2.3,5.3-6.2,5.3
		C421.9,308.5,419.6,307,419.3,304.7z M429,296.7c0-2.9-1.6-5-4-5c-2.4,0-3.9,2-3.9,5c0,3,1.6,4.9,3.9,4.9
		C427.3,301.6,429,299.7,429,296.7z"/>
	<path fill="#FFFFFF" d="M434,286.3c0-0.8,0.6-1.4,1.4-1.4c0.8,0,1.4,0.6,1.4,1.4c0,0.8-0.6,1.4-1.4,1.4
		C434.6,287.7,434,287.1,434,286.3z M434.3,289.9h2.2v13.7h-2.2V289.9z"/>
	<path fill="#FFFFFF" d="M442.6,286.8v3.1h2.7v1.8h-2.7v8.2c0,1.3,0.5,1.8,1.7,1.8c0.3,0,0.8,0,1-0.1v1.9c-0.3,0.1-0.9,0.1-1.4,0.1
		c-2.5,0-3.4-1-3.4-3.7v-8.3h-1.9v-1.8h1.9v-3.1H442.6z"/>
	<path fill="#FFFFFF" d="M446.9,299.7c0-2.3,1.8-3.7,5.1-3.9l3.8-0.2v-1.1c0-1.7-1.1-2.6-3.1-2.6c-1.6,0-2.8,0.8-3,2.1h-2.1
		c0.1-2.3,2.3-4.1,5.2-4.1c3.2,0,5.3,1.7,5.3,4.4v9.4H456v-2.4H456c-0.8,1.5-2.5,2.5-4.4,2.5C448.8,303.7,446.9,302.1,446.9,299.7z
		 M455.9,298.4v-1.1l-3.6,0.2c-2.1,0.1-3.1,0.9-3.1,2.2c0,1.3,1.1,2.1,2.8,2.1C454.3,301.8,455.9,300.4,455.9,298.4z"/>
	<path fill="#FFFFFF" d="M461.2,284.5h2.2v19.1h-2.2V284.5z"/>
	<path fill="#FFFFFF" d="M139,335.9h2.3c0.3,1.1,1.7,1.9,3.5,1.9c2.4,0,3.9-1.2,3.9-3.2v-2.1h-0.1c-0.9,1.5-2.5,2.3-4.4,2.3
		c-3.5,0-5.8-2.8-5.8-6.9c0-4.2,2.3-6.9,5.8-6.9c1.9,0,3.5,0.9,4.5,2.3h0v-2.2h2.1v13.3c0,3.3-2.3,5.3-6.2,5.3
		C141.6,339.7,139.3,338.2,139,335.9z M148.7,327.9c0-2.9-1.6-5-4-5c-2.4,0-3.9,2-3.9,5c0,3,1.6,4.9,3.9,4.9
		C147,332.8,148.7,330.9,148.7,327.9z"/>
	<path fill="#FFFFFF" d="M153.2,328c0-4.3,2.5-7,6.3-7s6.3,2.7,6.3,7c0,4.2-2.5,7-6.3,7S153.2,332.2,153.2,328z M163.6,328
		c0-3.1-1.5-5-4.1-5s-4.1,1.9-4.1,5s1.5,5,4.1,5C162.1,333,163.6,331.1,163.6,328z"/>
	<path fill="#FFFFFF" d="M167.5,328c0-4.3,2.5-7,6.3-7s6.3,2.7,6.3,7c0,4.2-2.5,7-6.3,7S167.5,332.2,167.5,328z M177.8,328
		c0-3.1-1.5-5-4.1-5s-4.1,1.9-4.1,5s1.5,5,4.1,5C176.3,333,177.8,331.1,177.8,328z"/>
	<path fill="#FFFFFF" d="M181.7,328c0-4.2,2.4-7,5.8-7c2,0,3.5,0.9,4.4,2.3h0.1v-7.7h2.2v19.1h-2.1v-2.3h0c-0.9,1.6-2.5,2.4-4.4,2.4
		C184.2,334.9,181.7,332.1,181.7,328z M184,328c0,3,1.6,5,4,5c2.4,0,4-2,4-5c0-3-1.6-5-4-5C185.6,323,184,325,184,328z"/>
	<path fill="#FFFFFF" d="M202.1,321c2.8,0,4.9,1.7,5,3.9H205c-0.1-1.3-1.3-2.1-2.9-2.1c-1.7,0-2.8,0.8-2.8,2c0,0.9,0.7,1.5,2.3,1.9
		l2.1,0.5c2.8,0.7,3.8,1.7,3.8,3.7c0,2.3-2.2,4-5.4,4c-2.9,0-5.1-1.6-5.3-4h2.2c0.2,1.4,1.4,2.1,3.2,2.1s3-0.8,3-2
		c0-1-0.6-1.5-2.1-1.9l-2.4-0.6c-2.4-0.6-3.6-1.8-3.6-3.7C197.1,322.6,199.2,321,202.1,321z"/>
	<path fill="#FFFFFF" d="M215.4,330.9c0-2.3,1.8-3.7,5.1-3.9l3.8-0.2v-1.1c0-1.7-1.1-2.6-3.1-2.6c-1.6,0-2.8,0.8-3,2.1h-2.1
		c0.1-2.3,2.3-4.1,5.2-4.1c3.2,0,5.3,1.7,5.3,4.4v9.4h-2.1v-2.4h-0.1c-0.8,1.5-2.5,2.5-4.4,2.5C217.2,334.9,215.4,333.3,215.4,330.9
		z M224.4,329.6v-1.1l-3.6,0.2c-2.1,0.1-3.1,0.9-3.1,2.2c0,1.3,1.1,2.1,2.8,2.1C222.7,333,224.4,331.6,224.4,329.6z"/>
	<path fill="#FFFFFF" d="M229.5,321.1h2.1v2.2h0.1c0.9-1.5,2.3-2.3,4.5-2.3c3,0,4.9,1.9,4.9,5v8.8h-2.2v-8.4c0-2.2-1.2-3.5-3.3-3.5
		c-2.2,0-3.7,1.5-3.7,3.9v7.9h-2.2V321.1z"/>
	<path fill="#FFFFFF" d="M243.2,328c0-4.2,2.4-7,5.8-7c2,0,3.5,0.9,4.4,2.3h0.1v-7.7h2.2v19.1h-2.1v-2.3h0c-0.9,1.6-2.4,2.4-4.4,2.4
		C245.7,334.9,243.2,332.1,243.2,328z M245.5,328c0,3,1.6,5,4,5c2.4,0,4-2,4-5c0-3-1.6-5-4-5C247.1,323,245.5,325,245.5,328z"/>
	<path fill="#FFFFFF" d="M269.9,321c2.8,0,4.9,1.7,5,3.9h-2.1c-0.1-1.3-1.3-2.1-2.9-2.1c-1.7,0-2.8,0.8-2.8,2c0,0.9,0.7,1.5,2.3,1.9
		l2.1,0.5c2.8,0.7,3.8,1.7,3.8,3.7c0,2.3-2.2,4-5.4,4c-2.9,0-5.1-1.6-5.3-4h2.2c0.2,1.4,1.4,2.1,3.2,2.1c1.9,0,3-0.8,3-2
		c0-1-0.6-1.5-2.1-1.9l-2.4-0.6c-2.4-0.6-3.6-1.8-3.6-3.7C264.8,322.6,266.9,321,269.9,321z"/>
	<path fill="#FFFFFF" d="M288.8,330.9c-0.4,2.3-2.8,4-5.7,4c-3.8,0-6.3-2.7-6.3-6.9s2.4-7,6.2-7c3.7,0,5.9,2.6,5.9,6.7v0.9h-9.8v0.1
		c0,2.6,1.6,4.3,4,4.3c1.7,0,3-0.8,3.4-2.1H288.8z M279.1,326.8h7.5c-0.1-2.3-1.5-3.9-3.7-3.9C280.8,322.9,279.3,324.5,279.1,326.8z
		"/>
	<path fill="#FFFFFF" d="M291.3,321.1h2.1v2.2h0.1c0.4-1.4,1.7-2.3,3.3-2.3c0.3,0,0.7,0,0.9,0.1v2.2c-0.2-0.1-0.8-0.2-1.1-0.2
		c-1.8,0-2.9,1.3-2.9,3.2v8.5h-2.2V321.1z"/>
	<path fill="#FFFFFF" d="M305.6,334.8h-2.2l-5.1-13.7h2.3l3.8,11.3h0.1l3.8-11.3h2.3L305.6,334.8z"/>
	<path fill="#FFFFFF" d="M312.3,317.5c0-0.8,0.6-1.4,1.4-1.4c0.8,0,1.4,0.6,1.4,1.4c0,0.8-0.6,1.4-1.4,1.4
		C313,318.9,312.3,318.3,312.3,317.5z M312.6,321.1h2.2v13.7h-2.2V321.1z"/>
	<path fill="#FFFFFF" d="M327.1,325.6c-0.3-1.5-1.5-2.6-3.6-2.6c-2.4,0-4,2-4,5c0,3.1,1.7,5,4,5c1.9,0,3.2-0.9,3.6-2.5h2.2
		c-0.4,2.7-2.6,4.5-5.7,4.5c-3.8,0-6.3-2.7-6.3-7c0-4.2,2.5-7,6.2-7c3.4,0,5.5,2.2,5.7,4.6H327.1z"/>
	<path fill="#FFFFFF" d="M342.7,330.9c-0.4,2.3-2.8,4-5.7,4c-3.8,0-6.3-2.7-6.3-6.9s2.4-7,6.2-7c3.7,0,5.9,2.6,5.9,6.7v0.9H333v0.1
		c0,2.6,1.6,4.3,4,4.3c1.7,0,3-0.8,3.4-2.1H342.7z M333,326.8h7.5c-0.1-2.3-1.5-3.9-3.7-3.9C334.7,322.9,333.2,324.5,333,326.8z"/>
	<path fill="#FFFFFF" d="M350,321c2.8,0,4.9,1.7,5,3.9h-2.1c-0.1-1.3-1.3-2.1-2.9-2.1c-1.7,0-2.8,0.8-2.8,2c0,0.9,0.7,1.5,2.3,1.9
		l2.1,0.5c2.8,0.7,3.8,1.7,3.8,3.7c0,2.3-2.2,4-5.4,4c-2.9,0-5.1-1.6-5.3-4h2.2c0.2,1.4,1.4,2.1,3.2,2.1c1.9,0,3-0.8,3-2
		c0-1-0.6-1.5-2.1-1.9l-2.4-0.6c-2.4-0.6-3.6-1.8-3.6-3.7C344.9,322.6,347,321,350,321z"/>
</g>
<text transform="matrix(1 0 0 1 533.3385 315.4561)"><tspan x="0" y="0" font-family="'SFUIDisplay-Regular'" font-size="26">сервіс поставки та оплати цифрових</tspan><tspan x="125.3" y="31.2" font-family="'SFUIDisplay-Regular'" font-size="26">товарів і послуг</tspan></text>
</svg>
