<?xml version="1.0" encoding="utf-8"?>
<!-- Generator: Adobe Illustrator 18.1.0, SVG Export Plug-In . SVG Version: 6.00 Build 0)  -->
<svg version="1.1" id="Layer_1" xmlns="http://www.w3.org/2000/svg" xmlns:xlink="http://www.w3.org/1999/xlink" x="0px" y="0px"
	 viewBox="0 0 500 500" enable-background="new 0 0 500 500" xml:space="preserve">
<g>
	<path fill="#FFFFFF" d="M12.7,254.7v-43h5.2l23.5,33.7h0.3v-33.7H47v43h-5.2l-23.5-33.6H18v33.6H12.7z"/>
	<path fill="#FFFFFF" d="M82,254.7H55.4v-43H82v4.8H60.7v13.8h20.2v4.8H60.7v14.8H82V254.7z"/>
	<path fill="#FFFFFF" d="M100.2,254.7v-38.2H86.4v-4.8h33.1v4.8h-13.9v38.2H100.2z"/>
	<path fill="#FFFFFF" d="M160.4,233.3c0,13.6-7.6,22.2-19.8,22.2s-19.8-8.5-19.8-22.2c0-13.6,7.6-22.2,19.8-22.2
		S160.4,219.6,160.4,233.3z M126.2,233.3c0,10.6,5.5,17.2,14.3,17.2s14.3-6.7,14.3-17.2c0-10.6-5.5-17.3-14.3-17.3
		S126.2,222.7,126.2,233.3z"/>
	<path fill="#FFFFFF" d="M183.3,211.8c8.1,0,13.8,5.7,13.8,13.8c0,8.2-5.7,13.9-13.8,13.9h-10.8v15.3H167v-43H183.3z M172.4,234.6
		h9.5c6.1,0,9.7-3.4,9.7-9.1c0-5.7-3.5-9-9.7-9h-9.5V234.6z"/>
	<path fill="#FFFFFF" d="M223.5,242.4h-17.1l-4.3,12.3h-5.6l15.8-43h5.3l15.8,43h-5.6L223.5,242.4z M208,237.9h13.9l-6.9-19.6h-0.2
		L208,237.9z"/>
	<path fill="#FFFFFF" d="M244.8,254.7v-18.5l-15.2-24.5h6.1l11.7,19.3h0.2l11.7-19.3h6.1l-15.3,24.5v18.5H244.8z"/>
	<path fill="#FFFFFF" d="M299.7,211.8c12.7,0,20.3,8,20.3,21.5c0,13.6-7.5,21.5-20.3,21.5h-14.7v-43H299.7z M290.3,249.9h9
		c9.7,0,15.2-6,15.2-16.6c0-10.8-5.4-16.7-15.2-16.7h-9V249.9z"/>
	<path fill="#FFFFFF" d="M326.6,254.7v-43h5.4v43H326.6z"/>
	<path fill="#FFFFFF" d="M358.3,255.5c-12,0-19.7-8.8-19.7-22.4c0-13.4,7.7-22,19.7-22c9.3,0,16.4,5.5,18,14.1h-5.6
		c-1.8-5.8-6.3-9.1-12.3-9.1c-8.8,0-14.2,6.4-14.2,17c0,10.8,5.4,17.5,14.2,17.5c7.6,0,12.9-4.9,12.9-12.2v-0.8h-12.1v-4.7h17.5v4.1
		C376.6,248.6,369.8,255.5,358.3,255.5z"/>
	<path fill="#FFFFFF" d="M383.4,254.7v-43h5.4v43H383.4z"/>
	<path fill="#FFFFFF" d="M408.3,254.7v-38.2h-13.9v-4.8h33.1v4.8h-13.8v38.2H408.3z"/>
	<path fill="#FFFFFF" d="M450.8,242.4h-17.1l-4.3,12.3h-5.6l15.8-43h5.3l15.8,43h-5.6L450.8,242.4z M435.3,237.9h13.9l-6.9-19.6
		h-0.2L435.3,237.9z"/>
	<path fill="#FFFFFF" d="M491.8,254.7h-26.1v-43h5.4v38.2h20.7V254.7z"/>
</g>
<g>
	<path fill="#FFFFFF" d="M41,294.1c-0.4-1.3-1.6-2.3-3.5-2.3c-2.4,0-4,2-4,5c0,3.1,1.7,5,4,5c1.8,0,3-0.8,3.5-2.3h2.2
		c-0.5,2.5-2.7,4.3-5.7,4.3c-3.8,0-6.3-2.7-6.3-7c0-4.2,2.5-7,6.2-7c3.3,0,5.3,2,5.7,4.3H41z"/>
	<path fill="#FFFFFF" d="M56.8,299.7c-0.4,2.3-2.8,4-5.7,4c-3.8,0-6.3-2.7-6.3-6.9s2.4-7,6.2-7c3.7,0,5.9,2.6,5.9,6.7v0.9h-9.8v0.1
		c0,2.6,1.6,4.3,4,4.3c1.7,0,3-0.8,3.4-2.1H56.8z M47.2,295.6h7.5c-0.1-2.3-1.5-3.9-3.7-3.9C48.9,291.7,47.3,293.3,47.2,295.6z"/>
	<path fill="#FFFFFF" d="M72,296.8c0,4.2-2.4,7-5.8,7c-1.9,0-3.5-0.9-4.4-2.3h-0.1v6.8h-2.2v-18.3h2.1v2.2h0.1
		c0.8-1.4,2.5-2.3,4.4-2.3C69.7,289.8,72,292.6,72,296.8z M69.8,296.8c0-3-1.6-5-4-5c-2.4,0-4,2-4,5c0,3,1.6,5,4,5
		C68.2,301.8,69.8,299.8,69.8,296.8z"/>
	<path fill="#FFFFFF" d="M74.6,289.9h5.9c2.5,0,4.1,1.3,4.1,3.5c0,1.4-1,2.7-2.2,2.9v0.1c1.7,0.2,2.8,1.5,2.8,3.2
		c0,2.4-1.8,3.9-4.7,3.9h-5.9V289.9z M76.8,291.8v3.9h3c1.7,0,2.6-0.6,2.6-2c0-1.2-0.8-1.9-2.2-1.9H76.8z M76.8,297.4v4.3h3.7
		c1.7,0,2.6-0.7,2.6-2.1c0-1.5-1-2.2-3-2.2H76.8z"/>
	<path fill="#FFFFFF" d="M87.8,303.6v-13.7H90v10.3h0.1l7-10.3h2.2v13.7h-2.2v-10.3H97l-7,10.3H87.8z"/>
	<path fill="#FFFFFF" d="M111.7,294.1c-0.4-1.3-1.6-2.3-3.5-2.3c-2.4,0-4,2-4,5c0,3.1,1.7,5,4,5c1.8,0,3-0.8,3.5-2.3h2.2
		c-0.5,2.5-2.7,4.3-5.7,4.3c-3.8,0-6.3-2.7-6.3-7c0-4.2,2.5-7,6.2-7c3.3,0,5.3,2,5.7,4.3H111.7z"/>
	<path fill="#FFFFFF" d="M131.5,291.8h-6.8v11.9h-2.2v-13.7h11.2v13.7h-2.2V291.8z"/>
	<path fill="#FFFFFF" d="M136.3,296.8c0-4.3,2.5-7,6.3-7s6.3,2.7,6.3,7c0,4.2-2.5,7-6.3,7S136.3,301,136.3,296.8z M146.6,296.8
		c0-3.1-1.5-5-4.1-5s-4.1,1.9-4.1,5s1.5,5,4.1,5C145.1,301.8,146.6,299.9,146.6,296.8z"/>
	<path fill="#FFFFFF" d="M160.5,294.1c-0.4-1.3-1.6-2.3-3.5-2.3c-2.4,0-4,2-4,5c0,3.1,1.7,5,4,5c1.8,0,3-0.8,3.5-2.3h2.2
		c-0.5,2.5-2.7,4.3-5.7,4.3c-3.8,0-6.3-2.7-6.3-7c0-4.2,2.5-7,6.2-7c3.3,0,5.3,2,5.7,4.3H160.5z"/>
	<path fill="#FFFFFF" d="M174.8,291.8h-4.4v11.9h-2.2v-11.9h-4.4v-1.8h11.1V291.8z"/>
	<path fill="#FFFFFF" d="M176,299.7c0-2.3,1.8-3.7,5.1-3.9l3.8-0.2v-1.1c0-1.7-1.1-2.6-3.1-2.6c-1.6,0-2.8,0.8-3,2.1h-2.1
		c0.1-2.3,2.3-4.1,5.2-4.1c3.2,0,5.3,1.7,5.3,4.4v9.4h-2.1v-2.4H185c-0.8,1.5-2.5,2.5-4.4,2.5C177.8,303.7,176,302.1,176,299.7z
		 M184.9,298.4v-1.1l-3.6,0.2c-2.1,0.1-3.1,0.9-3.1,2.2c0,1.3,1.1,2.1,2.8,2.1C183.3,301.8,184.9,300.4,184.9,298.4z"/>
	<path fill="#FFFFFF" d="M190.3,289.9h5.9c2.5,0,4.1,1.3,4.1,3.5c0,1.4-1,2.7-2.2,2.9v0.1c1.7,0.2,2.8,1.5,2.8,3.2
		c0,2.4-1.8,3.9-4.7,3.9h-5.9V289.9z M192.4,291.8v3.9h3c1.7,0,2.6-0.6,2.6-2c0-1.2-0.8-1.9-2.2-1.9H192.4z M192.4,297.4v4.3h3.7
		c1.7,0,2.6-0.7,2.6-2.1c0-1.5-1-2.2-3-2.2H192.4z"/>
	<path fill="#FFFFFF" d="M214.6,303.6h-2.9l-6-6.6h-0.1v6.6h-2.2v-13.7h2.2v6.1h0.1l5.9-6.1h2.7l-6.4,6.5L214.6,303.6z"/>
	<path fill="#FFFFFF" d="M216.5,303.6v-13.7h2.2v10.3h0.1l7-10.3h2.2v13.7h-2.2v-10.3h-0.1l-7,10.3H216.5z"/>
	<path fill="#FFFFFF" d="M237.5,303.6v-13.7h2.2v10.3h0.1l7-10.3h2.2v13.7h-2.2v-10.3h-0.1l-7,10.3H237.5z"/>
	<path fill="#FFFFFF" d="M257.8,296.8c0-4.3,2.5-7,6.3-7s6.3,2.7,6.3,7c0,4.2-2.5,7-6.3,7S257.8,301,257.8,296.8z M268.2,296.8
		c0-3.1-1.5-5-4.1-5s-4.1,1.9-4.1,5s1.5,5,4.1,5C266.7,301.8,268.2,299.9,268.2,296.8z"/>
	<path fill="#FFFFFF" d="M282,291.8h-6.8v11.9H273v-13.7h11.2v13.7H282V291.8z"/>
	<path fill="#FFFFFF" d="M287,303.7c-0.4,0-0.6-0.1-0.8-0.1v-2c0.1,0,0.4,0.1,0.7,0.1c1.4,0,1.9-1.6,2.1-4.1l0.5-7.6h9v13.7h-2.2
		v-11.9h-4.8l-0.4,5.9C290.8,301.4,289.9,303.7,287,303.7z"/>
	<path fill="#FFFFFF" d="M301.1,299.7c0-2.3,1.8-3.7,5.1-3.9l3.8-0.2v-1.1c0-1.7-1.1-2.6-3.1-2.6c-1.6,0-2.8,0.8-3,2.1h-2.1
		c0.1-2.3,2.3-4.1,5.2-4.1c3.2,0,5.3,1.7,5.3,4.4v9.4h-2.1v-2.4h-0.1c-0.8,1.5-2.5,2.5-4.4,2.5C302.9,303.7,301.1,302.1,301.1,299.7
		z M310,298.4v-1.1l-3.6,0.2c-2.1,0.1-3.1,0.9-3.1,2.2c0,1.3,1.1,2.1,2.8,2.1C308.4,301.8,310,300.4,310,298.4z"/>
	<path fill="#FFFFFF" d="M325.1,291.8h-4.4v11.9h-2.2v-11.9H314v-1.8h11.1V291.8z"/>
	<path fill="#FFFFFF" d="M327.2,289.9h2.2v4.4h2.6c3.1,0,5.1,1.8,5.1,4.6s-2,4.6-5.1,4.6h-4.8V289.9z M329.4,296.1v5.6h2.6
		c1.8,0,3-1.1,3-2.8c0-1.7-1.2-2.8-3-2.8H329.4z M338.8,289.9h2.2v13.7h-2.2V289.9z"/>
	<path fill="#FFFFFF" d="M361.7,307.2v-3.6h-11.2v-13.7h2.2v11.9h6.7v-11.9h2.2v11.9h2.2v5.4H361.7z"/>
	<path fill="#FFFFFF" d="M365.8,303.6v-13.7h2.2v10.3h0.1l7-10.3h2.2v13.7h-2.2v-10.3H375l-7,10.3H365.8z"/>
	<path fill="#FFFFFF" d="M379.9,296.8c0-4.2,2.8-6.9,7.1-7v-4.5h2.1v4.5c4.2,0.1,7,2.8,7,7c0,4.2-2.8,6.9-7,7v4.4H387v-4.4
		C382.7,303.7,379.9,301,379.9,296.8z M387,291.7c-3,0.1-4.8,2-4.8,5.1c0,3.1,1.9,5,4.8,5.1V291.7z M389.1,291.7v10.2
		c2.9-0.1,4.8-2,4.8-5.1C393.9,293.7,392,291.7,389.1,291.7z"/>
	<path fill="#FFFFFF" d="M411.2,296.8c0,4.2-2.4,7-5.8,7c-1.9,0-3.5-0.9-4.4-2.3h-0.1v6.8h-2.2v-18.3h2.1v2.2h0.1
		c0.8-1.4,2.5-2.3,4.4-2.3C408.8,289.8,411.2,292.6,411.2,296.8z M408.9,296.8c0-3-1.6-5-4-5c-2.4,0-4,2-4,5c0,3,1.6,5,4,5
		C407.3,301.8,408.9,299.8,408.9,296.8z"/>
	<path fill="#FFFFFF" d="M413.1,296.8c0-4.3,2.5-7,6.3-7c3.8,0,6.3,2.7,6.3,7c0,4.2-2.5,7-6.3,7C415.5,303.7,413.1,301,413.1,296.8z
		 M423.4,296.8c0-3.1-1.5-5-4.1-5c-2.6,0-4.1,1.9-4.1,5s1.5,5,4.1,5C421.9,301.8,423.4,299.9,423.4,296.8z"/>
	<path fill="#FFFFFF" d="M428.3,289.9h5.9c2.5,0,4.1,1.3,4.1,3.5c0,1.4-1,2.7-2.2,2.9v0.1c1.7,0.2,2.8,1.5,2.8,3.2
		c0,2.4-1.8,3.9-4.7,3.9h-5.9V289.9z M430.4,291.8v3.9h3c1.7,0,2.6-0.6,2.6-2c0-1.2-0.8-1.9-2.2-1.9H430.4z M430.4,297.4v4.3h3.7
		c1.7,0,2.6-0.7,2.6-2.1c0-1.5-1-2.2-3-2.2H430.4z"/>
	<path fill="#FFFFFF" d="M441.5,289.9h2.2v4.4h2.6c3.1,0,5.1,1.8,5.1,4.6s-2,4.6-5.1,4.6h-4.8V289.9z M443.7,296.1v5.6h2.6
		c1.8,0,3-1.1,3-2.8c0-1.7-1.2-2.8-3-2.8H443.7z M453.1,289.9h2.2v13.7h-2.2V289.9z"/>
	<path fill="#FFFFFF" d="M463.3,298.4l-3.3,5.2h-2.5l4.7-6.8l-4.6-6.8h2.5l3.3,5.2h0.1l3.3-5.2h2.5l-4.6,6.8l4.6,6.9h-2.5
		L463.3,298.4L463.3,298.4z"/>
	<path fill="#FFFFFF" d="M167.1,323h-4.4v11.9h-2.2V323H156v-1.8h11.1V323z"/>
	<path fill="#FFFFFF" d="M168.3,328c0-4.3,2.5-7,6.3-7s6.3,2.7,6.3,7c0,4.2-2.5,7-6.3,7S168.3,332.2,168.3,328z M178.7,328
		c0-3.1-1.5-5-4.1-5s-4.1,1.9-4.1,5s1.5,5,4.1,5C177.2,333,178.7,331.1,178.7,328z"/>
	<path fill="#FFFFFF" d="M183.5,321.1h5.9c2.5,0,4.1,1.3,4.1,3.5c0,1.4-1,2.7-2.2,2.9v0.1c1.7,0.2,2.8,1.5,2.8,3.2
		c0,2.4-1.8,3.9-4.7,3.9h-5.9V321.1z M185.7,323v3.9h3c1.7,0,2.6-0.6,2.6-2c0-1.2-0.8-1.9-2.2-1.9H185.7z M185.7,328.6v4.3h3.7
		c1.7,0,2.6-0.7,2.6-2.1c0-1.5-1-2.2-3-2.2H185.7z"/>
	<path fill="#FFFFFF" d="M196.1,330.9c0-2.3,1.8-3.7,5.1-3.9l3.8-0.2v-1.1c0-1.7-1.1-2.6-3.1-2.6c-1.6,0-2.8,0.8-3,2.1h-2.1
		c0.1-2.3,2.3-4.1,5.2-4.1c3.2,0,5.3,1.7,5.3,4.4v9.4h-2.1v-2.4h-0.1c-0.8,1.5-2.5,2.5-4.4,2.5C197.9,334.9,196.1,333.3,196.1,330.9
		z M205.1,329.6v-1.1l-3.6,0.2c-2.1,0.1-3.1,0.9-3.1,2.2c0,1.3,1.1,2.1,2.8,2.1C203.4,333,205.1,331.6,205.1,329.6z"/>
	<path fill="#FFFFFF" d="M222.8,328c0,4.2-2.4,7-5.8,7c-1.9,0-3.5-0.9-4.4-2.3h-0.1v6.8h-2.2v-18.3h2.1v2.2h0.1
		c0.8-1.4,2.5-2.3,4.4-2.3C220.5,321,222.8,323.8,222.8,328z M220.6,328c0-3-1.6-5-4-5c-2.4,0-4,2-4,5c0,3,1.6,5,4,5
		C219,333,220.6,331,220.6,328z"/>
	<path fill="#FFFFFF" d="M224.7,328c0-4.3,2.5-7,6.3-7s6.3,2.7,6.3,7c0,4.2-2.5,7-6.3,7S224.7,332.2,224.7,328z M235.1,328
		c0-3.1-1.5-5-4.1-5s-4.1,1.9-4.1,5s1.5,5,4.1,5C233.6,333,235.1,331.1,235.1,328z"/>
	<path fill="#FFFFFF" d="M239.9,321.1h5.9c2.5,0,4.1,1.3,4.1,3.5c0,1.4-1,2.7-2.2,2.9v0.1c1.7,0.2,2.8,1.5,2.8,3.2
		c0,2.4-1.8,3.9-4.7,3.9h-5.9V321.1z M242.1,323v3.9h3c1.7,0,2.6-0.6,2.6-2c0-1.2-0.8-1.9-2.2-1.9H242.1z M242.1,328.6v4.3h3.7
		c1.7,0,2.6-0.7,2.6-2.1c0-1.5-1-2.2-3-2.2H242.1z"/>
	<path fill="#FFFFFF" d="M259.4,334.8v-13.7h2.2v10.3h0.1l7-10.3h2.2v13.7h-2.2v-10.3h-0.1l-7,10.3H259.4z"/>
	<path fill="#FFFFFF" d="M280.6,339.7v-1.9c0.3,0.1,0.6,0.1,0.9,0.1c1.3,0,2-0.6,2.5-2.3l0.3-0.8l-5.1-13.7h2.3l3.8,11.4h0.1
		l3.8-11.4h2.3l-5.4,14.5c-1.2,3.2-2.3,4.1-4.7,4.1C281.2,339.8,280.8,339.7,280.6,339.7z"/>
	<path fill="#FFFFFF" d="M302.7,325.3c-0.4-1.3-1.6-2.3-3.5-2.3c-2.4,0-4,2-4,5c0,3.1,1.7,5,4,5c1.8,0,3-0.8,3.5-2.3h2.2
		c-0.5,2.5-2.7,4.3-5.7,4.3c-3.8,0-6.3-2.7-6.3-7c0-4.2,2.5-7,6.2-7c3.3,0,5.3,2,5.7,4.3H302.7z"/>
	<path fill="#FFFFFF" d="M306.9,334.9c-0.4,0-0.6-0.1-0.8-0.1v-2c0.1,0,0.4,0.1,0.7,0.1c1.4,0,1.9-1.6,2.1-4.1l0.5-7.6h9v13.7h-2.2
		V323h-4.8l-0.4,5.9C310.6,332.6,309.7,334.9,306.9,334.9z"/>
	<path fill="#FFFFFF" d="M321.7,339.7v-1.9c0.3,0.1,0.6,0.1,0.9,0.1c1.3,0,2-0.6,2.5-2.3l0.3-0.8l-5.1-13.7h2.3l3.8,11.4h0.1
		l3.8-11.4h2.3l-5.4,14.5c-1.2,3.2-2.3,4.1-4.7,4.1C322.4,339.8,322,339.7,321.7,339.7z"/>
	<path fill="#FFFFFF" d="M337,323v11.9h-2.2v-13.7h8.8v1.8H337z"/>
</g>
<text transform="matrix(1 0 0 1 533.3385 315.4561)"><tspan x="0" y="0" font-family="'SFUIDisplay-Regular'" font-size="26">сервіс поставки та оплати цифрових</tspan><tspan x="125.3" y="31.2" font-family="'SFUIDisplay-Regular'" font-size="26">товарів і послуг</tspan></text>
</svg>
