<?xml version="1.0" encoding="utf-8"?>
<!-- Generator: Adobe Illustrator 18.1.0, SVG Export Plug-In . SVG Version: 6.00 Build 0)  -->
<svg version="1.1" id="Layer_1" xmlns="http://www.w3.org/2000/svg" xmlns:xlink="http://www.w3.org/1999/xlink" x="0px" y="0px"
	 viewBox="0 0 500 500" enable-background="new 0 0 500 500" xml:space="preserve">
<g>
	<path fill="#FFFFFF" d="M12.7,254.7v-43h5.2l23.5,33.7h0.3v-33.7H47v43h-5.2l-23.5-33.6H18v33.6H12.7z"/>
	<path fill="#FFFFFF" d="M82,254.7H55.4v-43H82v4.8H60.7v13.8h20.2v4.8H60.7v14.8H82V254.7z"/>
	<path fill="#FFFFFF" d="M100.2,254.7v-38.2H86.4v-4.8h33.1v4.8h-13.9v38.2H100.2z"/>
	<path fill="#FFFFFF" d="M160.4,233.3c0,13.6-7.6,22.2-19.8,22.2s-19.8-8.5-19.8-22.2c0-13.6,7.6-22.2,19.8-22.2
		S160.4,219.6,160.4,233.3z M126.2,233.3c0,10.6,5.5,17.2,14.3,17.2s14.3-6.7,14.3-17.2c0-10.6-5.5-17.3-14.3-17.3
		S126.2,222.7,126.2,233.3z"/>
	<path fill="#FFFFFF" d="M183.3,211.8c8.1,0,13.8,5.7,13.8,13.8c0,8.2-5.7,13.9-13.8,13.9h-10.8v15.3H167v-43H183.3z M172.4,234.6
		h9.5c6.1,0,9.7-3.4,9.7-9.1c0-5.7-3.5-9-9.7-9h-9.5V234.6z"/>
	<path fill="#FFFFFF" d="M223.5,242.4h-17.1l-4.3,12.3h-5.6l15.8-43h5.3l15.8,43h-5.6L223.5,242.4z M208,237.9h13.9l-6.9-19.6h-0.2
		L208,237.9z"/>
	<path fill="#FFFFFF" d="M244.8,254.7v-18.5l-15.2-24.5h6.1l11.7,19.3h0.2l11.7-19.3h6.1l-15.3,24.5v18.5H244.8z"/>
	<path fill="#FFFFFF" d="M299.7,211.8c12.7,0,20.3,8,20.3,21.5c0,13.6-7.5,21.5-20.3,21.5h-14.7v-43H299.7z M290.3,249.9h9
		c9.7,0,15.2-6,15.2-16.6c0-10.8-5.4-16.7-15.2-16.7h-9V249.9z"/>
	<path fill="#FFFFFF" d="M326.6,254.7v-43h5.4v43H326.6z"/>
	<path fill="#FFFFFF" d="M358.3,255.5c-12,0-19.7-8.8-19.7-22.4c0-13.4,7.7-22,19.7-22c9.3,0,16.4,5.5,18,14.1h-5.6
		c-1.8-5.8-6.3-9.1-12.3-9.1c-8.8,0-14.2,6.4-14.2,17c0,10.8,5.4,17.5,14.2,17.5c7.6,0,12.9-4.9,12.9-12.2v-0.8h-12.1v-4.7h17.5v4.1
		C376.6,248.6,369.8,255.5,358.3,255.5z"/>
	<path fill="#FFFFFF" d="M383.4,254.7v-43h5.4v43H383.4z"/>
	<path fill="#FFFFFF" d="M408.3,254.7v-38.2h-13.9v-4.8h33.1v4.8h-13.8v38.2H408.3z"/>
	<path fill="#FFFFFF" d="M450.8,242.4h-17.1l-4.3,12.3h-5.6l15.8-43h5.3l15.8,43h-5.6L450.8,242.4z M435.3,237.9h13.9l-6.9-19.6
		h-0.2L435.3,237.9z"/>
	<path fill="#FFFFFF" d="M491.8,254.7h-26.1v-43h5.4v38.2h20.7V254.7z"/>
</g>
<text transform="matrix(1 0 0 1 496.4427 254.735)" fill="#B9433B" font-family="'SFUIDisplay-Regular'" font-size="61">NETOPAY DIGITAL</text>
<g>
	<path fill="#FFFFFF" d="M42.5,294.1c-0.4-1.3-1.6-2.3-3.5-2.3c-2.4,0-4,2-4,5c0,3.1,1.7,5,4,5c1.8,0,3-0.8,3.5-2.3h2.2
		c-0.5,2.5-2.7,4.3-5.7,4.3c-3.8,0-6.3-2.7-6.3-7c0-4.2,2.5-7,6.2-7c3.3,0,5.3,2,5.7,4.3H42.5z"/>
	<path fill="#FFFFFF" d="M58.4,299.7c-0.4,2.3-2.8,4-5.7,4c-3.8,0-6.3-2.7-6.3-6.9s2.4-7,6.2-7c3.7,0,5.9,2.6,5.9,6.7v0.9h-9.8v0.1
		c0,2.6,1.6,4.3,4,4.3c1.7,0,3-0.8,3.4-2.1H58.4z M48.7,295.6h7.5c-0.1-2.3-1.5-3.9-3.7-3.9C50.4,291.7,48.9,293.3,48.7,295.6z"/>
	<path fill="#FFFFFF" d="M73.5,296.8c0,4.2-2.4,7-5.8,7c-1.9,0-3.5-0.9-4.4-2.3h-0.1v6.8h-2.2v-18.3h2.1v2.2h0.1
		c0.8-1.4,2.5-2.3,4.4-2.3C71.2,289.8,73.5,292.6,73.5,296.8z M71.3,296.8c0-3-1.6-5-4-5c-2.4,0-4,2-4,5c0,3,1.6,5,4,5
		C69.7,301.8,71.3,299.8,71.3,296.8z"/>
	<path fill="#FFFFFF" d="M76.1,289.9H82c2.5,0,4.1,1.3,4.1,3.5c0,1.4-1,2.7-2.2,2.9v0.1c1.7,0.2,2.8,1.5,2.8,3.2
		c0,2.4-1.8,3.9-4.7,3.9h-5.9V289.9z M78.3,291.8v3.9h3c1.7,0,2.6-0.6,2.6-2c0-1.2-0.8-1.9-2.2-1.9H78.3z M78.3,297.4v4.3H82
		c1.7,0,2.6-0.7,2.6-2.1c0-1.5-1-2.2-3-2.2H78.3z"/>
	<path fill="#FFFFFF" d="M89.2,286.3c0-0.8,0.6-1.4,1.4-1.4c0.8,0,1.4,0.6,1.4,1.4c0,0.8-0.6,1.4-1.4,1.4
		C89.8,287.7,89.2,287.1,89.2,286.3z M89.5,289.9h2.2v13.7h-2.2V289.9z"/>
	<path fill="#FFFFFF" d="M104.1,294.1c-0.4-1.3-1.6-2.3-3.5-2.3c-2.4,0-4,2-4,5c0,3.1,1.7,5,4,5c1.8,0,3-0.8,3.5-2.3h2.2
		c-0.5,2.5-2.7,4.3-5.7,4.3c-3.8,0-6.3-2.7-6.3-7c0-4.2,2.5-7,6.2-7c3.3,0,5.3,2,5.7,4.3H104.1z"/>
	<path fill="#FFFFFF" d="M124,291.8h-6.8v11.9H115v-13.7h11.2v13.7H124V291.8z"/>
	<path fill="#FFFFFF" d="M128.7,296.8c0-4.3,2.5-7,6.3-7s6.3,2.7,6.3,7c0,4.2-2.5,7-6.3,7S128.7,301,128.7,296.8z M139.1,296.8
		c0-3.1-1.5-5-4.1-5s-4.1,1.9-4.1,5s1.5,5,4.1,5C137.6,301.8,139.1,299.9,139.1,296.8z"/>
	<path fill="#FFFFFF" d="M153,294.1c-0.4-1.3-1.6-2.3-3.5-2.3c-2.4,0-4,2-4,5c0,3.1,1.7,5,4,5c1.8,0,3-0.8,3.5-2.3h2.2
		c-0.5,2.5-2.7,4.3-5.7,4.3c-3.8,0-6.3-2.7-6.3-7c0-4.2,2.5-7,6.2-7c3.3,0,5.3,2,5.7,4.3H153z"/>
	<path fill="#FFFFFF" d="M167.3,291.8h-4.4v11.9h-2.2v-11.9h-4.4v-1.8h11.1V291.8z"/>
	<path fill="#FFFFFF" d="M168.4,299.7c0-2.3,1.8-3.7,5.1-3.9l3.8-0.2v-1.1c0-1.7-1.1-2.6-3.1-2.6c-1.6,0-2.8,0.8-3,2.1h-2.1
		c0.1-2.3,2.3-4.1,5.2-4.1c3.2,0,5.3,1.7,5.3,4.4v9.4h-2.1v-2.4h-0.1c-0.8,1.5-2.5,2.5-4.4,2.5C170.3,303.7,168.4,302.1,168.4,299.7
		z M177.4,298.4v-1.1l-3.6,0.2c-2.1,0.1-3.1,0.9-3.1,2.2c0,1.3,1.1,2.1,2.8,2.1C175.8,301.8,177.4,300.4,177.4,298.4z"/>
	<path fill="#FFFFFF" d="M182.7,289.9h5.9c2.5,0,4.1,1.3,4.1,3.5c0,1.4-1,2.7-2.2,2.9v0.1c1.7,0.2,2.8,1.5,2.8,3.2
		c0,2.4-1.8,3.9-4.7,3.9h-5.9V289.9z M184.9,291.8v3.9h3c1.7,0,2.6-0.6,2.6-2c0-1.2-0.8-1.9-2.2-1.9H184.9z M184.9,297.4v4.3h3.7
		c1.7,0,2.6-0.7,2.6-2.1c0-1.5-1-2.2-3-2.2H184.9z"/>
	<path fill="#FFFFFF" d="M207.1,303.6h-2.9l-6-6.6h-0.1v6.6h-2.2v-13.7h2.2v6.1h0.1l5.9-6.1h2.7l-6.4,6.5L207.1,303.6z"/>
	<path fill="#FFFFFF" d="M209,303.6v-13.7h2.2v10.3h0.1l7-10.3h2.2v13.7h-2.2v-10.3h-0.1l-7,10.3H209z"/>
	<path fill="#FFFFFF" d="M239.9,291.8h-4.4v11.9h-2.2v-11.9h-4.4v-1.8h11.1V291.8z"/>
	<path fill="#FFFFFF" d="M241.1,299.7c0-2.3,1.8-3.7,5.1-3.9l3.8-0.2v-1.1c0-1.7-1.1-2.6-3.1-2.6c-1.6,0-2.8,0.8-3,2.1h-2.1
		c0.1-2.3,2.3-4.1,5.2-4.1c3.2,0,5.3,1.7,5.3,4.4v9.4h-2.1v-2.4h-0.1c-0.8,1.5-2.5,2.5-4.4,2.5C242.9,303.7,241.1,302.1,241.1,299.7
		z M250,298.4v-1.1l-3.6,0.2c-2.1,0.1-3.1,0.9-3.1,2.2c0,1.3,1.1,2.1,2.8,2.1C248.4,301.8,250,300.4,250,298.4z"/>
	<path fill="#FFFFFF" d="M260.9,296.8c0-4.3,2.5-7,6.3-7s6.3,2.7,6.3,7c0,4.2-2.5,7-6.3,7S260.9,301,260.9,296.8z M271.3,296.8
		c0-3.1-1.5-5-4.1-5s-4.1,1.9-4.1,5s1.5,5,4.1,5C269.8,301.8,271.3,299.9,271.3,296.8z"/>
	<path fill="#FFFFFF" d="M285.1,291.8h-6.8v11.9h-2.2v-13.7h11.2v13.7h-2.2V291.8z"/>
	<path fill="#FFFFFF" d="M290.1,303.7c-0.4,0-0.6-0.1-0.8-0.1v-2c0.1,0,0.4,0.1,0.7,0.1c1.4,0,1.9-1.6,2.1-4.1l0.5-7.6h9v13.7h-2.2
		v-11.9h-4.8l-0.4,5.9C293.8,301.4,292.9,303.7,290.1,303.7z"/>
	<path fill="#FFFFFF" d="M304.2,299.7c0-2.3,1.8-3.7,5.1-3.9l3.8-0.2v-1.1c0-1.7-1.1-2.6-3.1-2.6c-1.6,0-2.8,0.8-3,2.1h-2.1
		c0.1-2.3,2.3-4.1,5.2-4.1c3.2,0,5.3,1.7,5.3,4.4v9.4h-2.1v-2.4h-0.1c-0.8,1.5-2.5,2.5-4.4,2.5C306,303.7,304.2,302.1,304.2,299.7z
		 M313.1,298.4v-1.1l-3.6,0.2c-2.1,0.1-3.1,0.9-3.1,2.2c0,1.3,1.1,2.1,2.8,2.1C311.5,301.8,313.1,300.4,313.1,298.4z"/>
	<path fill="#FFFFFF" d="M328.1,291.8h-4.4v11.9h-2.2v-11.9h-4.4v-1.8h11.1V291.8z"/>
	<path fill="#FFFFFF" d="M330.3,303.6v-13.7h2.2v10.3h0.1l7-10.3h2.2v13.7h-2.2v-10.3h-0.1l-7,10.3H330.3z"/>
	<path fill="#FFFFFF" d="M362.5,307.2v-3.6h-11.2v-13.7h2.2v11.9h6.7v-11.9h2.2v11.9h2.2v5.4H362.5z"/>
	<path fill="#FFFFFF" d="M366.6,303.6v-13.7h2.2v10.3h0.1l7-10.3h2.2v13.7h-2.2v-10.3h-0.1l-7,10.3H366.6z"/>
	<path fill="#FFFFFF" d="M380.7,296.8c0-4.2,2.8-6.9,7.1-7v-4.5h2.1v4.5c4.2,0.1,7,2.8,7,7c0,4.2-2.8,6.9-7,7v4.4h-2.1v-4.4
		C383.5,303.7,380.7,301,380.7,296.8z M387.7,291.7c-3,0.1-4.8,2-4.8,5.1c0,3.1,1.9,5,4.8,5.1V291.7z M389.9,291.7v10.2
		c2.9-0.1,4.8-2,4.8-5.1C394.7,293.7,392.8,291.7,389.9,291.7z"/>
	<path fill="#FFFFFF" d="M411.9,296.8c0,4.2-2.4,7-5.8,7c-1.9,0-3.5-0.9-4.4-2.3h-0.1v6.8h-2.2v-18.3h2.1v2.2h0.1
		c0.8-1.4,2.5-2.3,4.4-2.3C409.6,289.8,411.9,292.6,411.9,296.8z M409.7,296.8c0-3-1.6-5-4-5c-2.4,0-4,2-4,5c0,3,1.6,5,4,5
		C408.1,301.8,409.7,299.8,409.7,296.8z"/>
	<path fill="#FFFFFF" d="M413.8,296.8c0-4.3,2.5-7,6.3-7c3.8,0,6.3,2.7,6.3,7c0,4.2-2.5,7-6.3,7C416.3,303.7,413.8,301,413.8,296.8z
		 M424.2,296.8c0-3.1-1.5-5-4.1-5c-2.6,0-4.1,1.9-4.1,5s1.5,5,4.1,5C422.7,301.8,424.2,299.9,424.2,296.8z"/>
	<path fill="#FFFFFF" d="M429,289.9h5.9c2.5,0,4.1,1.3,4.1,3.5c0,1.4-1,2.7-2.2,2.9v0.1c1.7,0.2,2.8,1.5,2.8,3.2
		c0,2.4-1.8,3.9-4.7,3.9H429V289.9z M431.2,291.8v3.9h3c1.7,0,2.6-0.6,2.6-2c0-1.2-0.8-1.9-2.2-1.9H431.2z M431.2,297.4v4.3h3.7
		c1.7,0,2.6-0.7,2.6-2.1c0-1.5-1-2.2-3-2.2H431.2z"/>
	<path fill="#FFFFFF" d="M442.2,303.6v-13.7h2.2v10.3h0.1l7-10.3h2.2v13.7h-2.2v-10.3h-0.1l-7,10.3H442.2z"/>
	<path fill="#FFFFFF" d="M461.8,298.4l-3.3,5.2H456l4.7-6.8l-4.6-6.8h2.5l3.3,5.2h0.1l3.3-5.2h2.5l-4.6,6.8l4.6,6.9h-2.5
		L461.8,298.4L461.8,298.4z"/>
	<path fill="#FFFFFF" d="M168.2,323h-4.4v11.9h-2.2V323h-4.4v-1.8h11.1V323z"/>
	<path fill="#FFFFFF" d="M169.4,328c0-4.3,2.5-7,6.3-7s6.3,2.7,6.3,7c0,4.2-2.5,7-6.3,7S169.4,332.2,169.4,328z M179.8,328
		c0-3.1-1.5-5-4.1-5s-4.1,1.9-4.1,5s1.5,5,4.1,5C178.3,333,179.8,331.1,179.8,328z"/>
	<path fill="#FFFFFF" d="M184.6,321.1h5.9c2.5,0,4.1,1.3,4.1,3.5c0,1.4-1,2.7-2.2,2.9v0.1c1.7,0.2,2.8,1.5,2.8,3.2
		c0,2.4-1.8,3.9-4.7,3.9h-5.9V321.1z M186.8,323v3.9h3c1.7,0,2.6-0.6,2.6-2c0-1.2-0.8-1.9-2.2-1.9H186.8z M186.8,328.6v4.3h3.7
		c1.7,0,2.6-0.7,2.6-2.1c0-1.5-1-2.2-3-2.2H186.8z"/>
	<path fill="#FFFFFF" d="M197.2,330.9c0-2.3,1.8-3.7,5.1-3.9l3.8-0.2v-1.1c0-1.7-1.1-2.6-3.1-2.6c-1.6,0-2.8,0.8-3,2.1h-2.1
		c0.1-2.3,2.3-4.1,5.2-4.1c3.2,0,5.3,1.7,5.3,4.4v9.4h-2.1v-2.4h-0.1c-0.8,1.5-2.5,2.5-4.4,2.5C199,334.9,197.2,333.3,197.2,330.9z
		 M206.2,329.6v-1.1l-3.6,0.2c-2.1,0.1-3.1,0.9-3.1,2.2c0,1.3,1.1,2.1,2.8,2.1C204.5,333,206.2,331.6,206.2,329.6z"/>
	<path fill="#FFFFFF" d="M223.9,328c0,4.2-2.4,7-5.8,7c-1.9,0-3.5-0.9-4.4-2.3h-0.1v6.8h-2.2v-18.3h2.1v2.2h0.1
		c0.8-1.4,2.5-2.3,4.4-2.3C221.5,321,223.9,323.8,223.9,328z M221.7,328c0-3-1.6-5-4-5c-2.4,0-4,2-4,5c0,3,1.6,5,4,5
		C220.1,333,221.7,331,221.7,328z"/>
	<path fill="#FFFFFF" d="M226.3,317.5c0-0.8,0.6-1.4,1.4-1.4c0.8,0,1.4,0.6,1.4,1.4c0,0.8-0.6,1.4-1.4,1.4
		C227,318.9,226.3,318.3,226.3,317.5z M226.6,321.1h2.2v13.7h-2.2V321.1z"/>
	<path fill="#FFFFFF" d="M232.2,321.1h5.9c2.5,0,4.1,1.3,4.1,3.5c0,1.4-1,2.7-2.2,2.9v0.1c1.7,0.2,2.8,1.5,2.8,3.2
		c0,2.4-1.8,3.9-4.7,3.9h-5.9V321.1z M234.4,323v3.9h3c1.7,0,2.6-0.6,2.6-2c0-1.2-0.8-1.9-2.2-1.9H234.4z M234.4,328.6v4.3h3.7
		c1.7,0,2.6-0.7,2.6-2.1c0-1.5-1-2.2-3-2.2H234.4z"/>
	<path fill="#FFFFFF" d="M251.5,317.5c0-0.8,0.6-1.4,1.4-1.4c0.8,0,1.4,0.6,1.4,1.4c0,0.8-0.6,1.4-1.4,1.4
		C252.1,318.9,251.5,318.3,251.5,317.5z M251.8,321.1h2.2v13.7h-2.2V321.1z"/>
	<path fill="#FFFFFF" d="M272.6,323h-6.8v11.9h-2.2v-13.7h11.2v13.7h-2.2V323z"/>
	<path fill="#FFFFFF" d="M277.3,328c0-4.3,2.5-7,6.3-7s6.3,2.7,6.3,7c0,4.2-2.5,7-6.3,7S277.3,332.2,277.3,328z M287.7,328
		c0-3.1-1.5-5-4.1-5s-4.1,1.9-4.1,5s1.5,5,4.1,5C286.2,333,287.7,331.1,287.7,328z"/>
	<path fill="#FFFFFF" d="M301.6,325.3c-0.4-1.3-1.6-2.3-3.5-2.3c-2.4,0-4,2-4,5c0,3.1,1.7,5,4,5c1.8,0,3-0.8,3.5-2.3h2.2
		c-0.5,2.5-2.7,4.3-5.7,4.3c-3.8,0-6.3-2.7-6.3-7c0-4.2,2.5-7,6.2-7c3.3,0,5.3,2,5.7,4.3H301.6z"/>
	<path fill="#FFFFFF" d="M305.8,334.9c-0.4,0-0.6-0.1-0.8-0.1v-2c0.1,0,0.4,0.1,0.7,0.1c1.4,0,1.9-1.6,2.1-4.1l0.5-7.6h9v13.7H315
		V323h-4.8l-0.4,5.9C309.5,332.6,308.6,334.9,305.8,334.9z"/>
	<path fill="#FFFFFF" d="M320.7,339.7v-1.9c0.3,0.1,0.6,0.1,0.9,0.1c1.3,0,2-0.6,2.5-2.3l0.3-0.8l-5.1-13.7h2.3l3.8,11.4h0.1
		l3.8-11.4h2.3l-5.4,14.5c-1.2,3.2-2.3,4.1-4.7,4.1C321.3,339.8,320.9,339.7,320.7,339.7z"/>
	<path fill="#FFFFFF" d="M335.9,323v11.9h-2.2v-13.7h8.8v1.8H335.9z"/>
</g>
<text transform="matrix(1 0 0 1 530.7069 303.6141)"><tspan x="0" y="0" font-family="'SFUIDisplay-Regular'" font-size="26">сервіс поставки та оплати цифрових</tspan><tspan x="125.3" y="31.2" font-family="'SFUIDisplay-Regular'" font-size="26">товарів і послуг</tspan></text>
</svg>
