<?xml version="1.0" encoding="utf-8"?>
<!-- Generator: Adobe Illustrator 18.1.0, SVG Export Plug-In . SVG Version: 6.00 Build 0)  -->
<svg version="1.1" id="Layer_1" xmlns="http://www.w3.org/2000/svg" xmlns:xlink="http://www.w3.org/1999/xlink" x="0px" y="0px"
	 viewBox="0 0 200 200" enable-background="new 0 0 200 200" xml:space="preserve">
<g>
	<g>
		<rect x="77.1" y="102.6" fill="#FFFFFF" width="46.9" height="5.3"/>
	</g>
	<g>
		<rect x="77.1" y="112.6" fill="#FFFFFF" width="46.9" height="5.3"/>
	</g>
	<g>
		<rect x="77.1" y="122.5" fill="#FFFFFF" width="22.1" height="5.3"/>
	</g>
	<path fill="#FFFFFF" d="M122.8,151.5l-9.7-9.7c-0.1-0.1-0.1-0.4,0-0.5l36.5-36.5c0.1-0.1,0.4-0.1,0.5,0l9.7,9.7
		c0.1,0.1,0.1,0.4,0,0.5l-36.5,36.5C123.2,151.6,122.9,151.6,122.8,151.5z"/>
	<path fill="#FFFFFF" d="M135.2,147l0,13.4H120c-3.1,0-5.6,2.5-5.6,5.6v16.7l-49.3,0.1L65,96l70.2-0.1l0,15.8l5.3-5.3V95.8
		c0-2.9-2.3-5.2-5.2-5.2H65c-2.9,0-5.2,2.3-5.2,5.2v87c0,2.9,2.3,5.2,5.2,5.2h51.9c1.4,0,2.7-0.5,3.7-1.5L139,168
		c1-1,1.5-2.3,1.5-3.7v-22.6L135.2,147z M119.8,179.7l0.2-13.9h13.8L119.8,179.7z"/>
	<path fill="#FFFFFF" d="M122.8,151.5l-9.7-9.7c-0.1-0.1-0.1-0.4,0-0.5l36.5-36.5c0.1-0.1,0.4-0.1,0.5,0l9.7,9.7
		c0.1,0.1,0.1,0.4,0,0.5l-36.5,36.5C123.2,151.6,122.9,151.6,122.8,151.5z"/>
	<path fill="#FFFFFF" d="M122.8,151.5l-9.7-9.7c-0.1-0.1-0.1-0.4,0-0.5l36.5-36.5c0.1-0.1,0.4-0.1,0.5,0l9.7,9.7
		c0.1,0.1,0.1,0.4,0,0.5l-36.5,36.5C123.2,151.6,122.9,151.6,122.8,151.5z"/>
	<path fill="#FFFFFF" d="M111.2,144.4l-1.9,10c-0.1,0.6,0.4,1,0.9,0.9l10-1.9c0.6-0.1,0.9-0.9,0.4-1.4l-8-8
		C112.1,143.5,111.3,143.7,111.2,144.4z"/>
	<path fill="#FFFFFF" d="M151.6,65.3c-1.7,0-3.3,0.3-5,0.5c-8.9-20.1-29-34.2-52.4-34.2c-30.1,0-54.5,23.2-57,52.7
		c-17.3,1.1-31,15.3-31,32.9c0,18.3,14.8,33.1,33.1,33.1h17.8V93.5c0-3,2.5-5.5,5.5-5.5h75c3,0,5.5,2.5,5.5,5.5v13.9l3.5-3.5
		c0.9-0.9,2-1.3,3.2-1.3c1.2,0,2.3,0.5,3.2,1.3l7.6,7.6c0.9,0.9,1.3,2,1.3,3.2c0,1.2-0.5,2.3-1.3,3.2l-17.4,17.4v15h8.4
		c23.5,0,42.5-19,42.5-42.5C194.1,84.3,175.1,65.3,151.6,65.3z"/>
</g>
<g>
	<g>
		<path fill="#FFFFFF" d="M359.6,81.1h-30.8c-2.1,0-3.9,1.7-3.9,3.9v71.1c0,2.1,1.7,3.9,3.9,3.9h30.8c2.1,0,3.9-1.7,3.9-3.9V85
			C363.5,82.9,361.8,81.1,359.6,81.1z M358,109.4h-28.1v-5.3H358V109.4z M358,100.6h-28.1v-5.3H358V100.6z M358,91.9h-28.1v-5.3H358
			V91.9z"/>
		<path fill="#FFFFFF" d="M403.9,81.1h-30.8c-2.1,0-3.9,1.7-3.9,3.9v71.1c0,2.1,1.7,3.9,3.9,3.9h30.8c2.1,0,3.9-1.7,3.9-3.9V85
			C407.8,82.9,406.1,81.1,403.9,81.1z M402.3,109.4h-28.1v-5.3h28.1V109.4z M402.3,100.6h-28.1v-5.3h28.1V100.6z M402.3,91.9h-28.1
			v-5.3h28.1V91.9z"/>
		<path fill="#FFFFFF" d="M415.4,63.4c-1.7,0-3.3,0.3-5,0.5c-8.9-20.1-29-34.2-52.4-34.2c-30.1,0-54.5,23.2-57,52.7
			c-17.3,1.1-31,15.3-31,32.9c0,18.3,14.8,33.1,33.1,33.1h18.3V84.6c0-3.4,2.7-6.1,6.1-6.1h76.8c3.4,0,6.1,2.7,6.1,6.1v63.8h4.9
			c23.5,0,42.5-19,42.5-42.5C457.9,82.4,438.9,63.4,415.4,63.4z"/>
	</g>
	<path fill="#FFFFFF" d="M412.8,174.2h-20.3v-1.5c0-0.7-0.5-1.2-1.2-1.2h-1.8V160h-3.3v11.6h-1.8c-0.7,0-1.2,0.5-1.2,1.2v1.5h-34.3
		v-1.5c0-0.7-0.5-1.2-1.2-1.2H346V160h-3.3v11.6h-1.9c-0.7,0-1.2,0.5-1.2,1.2v1.5h-21.5v4h21.5v1.5c0,0.7,0.5,1.2,1.2,1.2h6.9
		c0.7,0,1.2-0.5,1.2-1.2v-1.5h34.3v1.5c0,0.7,0.5,1.2,1.2,1.2h6.9c0.7,0,1.2-0.5,1.2-1.2v-1.5h20.3V174.2z"/>
</g>
<g>
	<polygon fill="#A20015" points="588.6,167.2 564.7,167.2 564.7,69 546.5,77.5 546.5,169.6 564.7,172.7 592.6,172.7 	"/>
	<g>
		<path fill="#A20015" d="M626,145.7c-3.2,0-5.9,2.6-5.9,5.9c0,3.2,2.6,5.9,5.9,5.9c3.2,0,5.9-2.6,5.9-5.9
			C631.9,148.4,629.3,145.7,626,145.7z M626,156.9c-2.9,0-5.3-2.4-5.3-5.3c0-2.9,2.4-5.3,5.3-5.3c2.9,0,5.3,2.4,5.3,5.3
			C631.3,154.5,629,156.9,626,156.9z"/>
		<path fill="#A20015" d="M626,116.6c-18.8,0-34.1,15.3-34.1,34.1s15.3,34.1,34.1,34.1c18.8,0,34.1-15.3,34.1-34.1
			S644.9,116.6,626,116.6z M603.1,173.1c-5.1-5.5-8.2-12.8-8.2-20.9l16.6,0c0,3.5,1.3,6.7,3.4,9.1L603.1,173.1z M626,164
			c-6.9,0-12.4-5.6-12.4-12.4c0-6.9,5.6-12.4,12.4-12.4c6.9,0,12.4,5.6,12.4,12.4C638.4,158.5,632.9,164,626,164z M640.2,150.7
			c0-3.5-1.3-6.7-3.4-9.1l11.8-11.8c5.1,5.5,8.2,12.8,8.2,20.9H640.2z"/>
	</g>
	<path fill="#A20015" d="M643.4,59.4c-1.7,0-3.3,0.3-5,0.5c-8.9-20.1-29-34.2-52.4-34.2c-30.1,0-54.5,23.2-57,52.7
		c-17.3,1.1-31,15.3-31,32.9c0,18.3,14.8,33.1,33.1,33.1h12.8V75.8l23.5-10.9l71.1,6.1v45.1c11,4,19.6,13.1,22.9,24.4
		c14.5-6.8,24.6-21.4,24.6-38.5C685.9,78.5,666.9,59.4,643.4,59.4z"/>
</g>
<path fill="#FF0028" d="M489.7-173.3c-1.7,0-3.3,0.3-5,0.5c-8.9-20.1-29-34.2-52.4-34.2c-30.1,0-54.5,23.2-57,52.7
	c-17.3,1.1-31,15.3-31,32.9c0,18.3,14.8,33.1,33.1,33.1h112.3c23.5,0,42.5-19,42.5-42.5C532.2-154.2,513.2-173.3,489.7-173.3z
	 M438.2-105.8c-3.9,0-7.1-3.2-7.1-7.1c0-3.9,3.2-7.1,7.1-7.1c3.9,0,7.1,3.2,7.1,7.1C445.3-108.9,442.1-105.8,438.2-105.8z
	 M449.7-124.4c-2.9-2.9-7-4.8-11.5-4.8c-4.5,0-8.5,1.8-11.5,4.8l-10-10c5.5-5.5,13.1-8.9,21.5-8.9c8.4,0,16,3.4,21.5,8.9
	L449.7-124.4z M463.9-138.6c-6.6-6.6-15.7-10.7-25.7-10.7c-10,0-19.1,4.1-25.7,10.7l-10-10c9.2-9.2,21.8-14.8,35.7-14.8
	c13.9,0,26.6,5.7,35.7,14.8L463.9-138.6z"/>
</svg>
