<?xml version="1.0" encoding="utf-8"?>
<!-- Generator: Adobe Illustrator 18.1.0, SVG Export Plug-In . SVG Version: 6.00 Build 0)  -->
<svg version="1.1" id="Layer_1" xmlns="http://www.w3.org/2000/svg" xmlns:xlink="http://www.w3.org/1999/xlink" x="0px" y="0px"
	 viewBox="0 0 490 120" enable-background="new 0 0 490 120" xml:space="preserve">
<g>
	<g>
		<path fill="#FFFFFF" d="M186.7,42.8c-3.3,24.5-6.9,48.5-10.2,72.7c-7.2,0-13.8,0-20.6,0c-8.1-17.1-16.2-34.1-24.2-51.5
			c-0.3,0-0.6,0-0.9,0c-3,17.1-4.8,34.1-7.5,51.5c-5.1,0-9.9,0-15.6,0c3.3-23.9,6.6-47.9,10.2-72.4c6.9,0,14.1,0,21.5,0
			c7.8,16.5,15.9,33.2,23.6,50.3c0.3,0,0.6,0,0.9,0c2.4-16.8,4.8-33.5,7.2-50.3C176.2,42.8,181.3,42.8,186.7,42.8z"/>
		<path fill="#FFFFFF" d="M275.6,42.5c6.9,0,13.5,0,20.6,0c-12.6,11.4-24.8,22.4-37.1,33.8c9.9,12.9,19.4,25.7,29.6,38.9
			c-7.5,0-14.7,0-22.1,0c-7.8-11.1-16.2-22.4-24.2-33.5c-0.3,0-0.6,0-0.9,0c-2.1,11.1-3.3,22.1-4.8,33.5c-5.4,0-10.5,0-15.6,0
			c3.3-24.2,6.6-48.5,10.2-72.4c5.7,0,10.5,0,15.6,0c-1.5,9.9-2.7,19.4-3.9,29c0.3,0.3,0.6,0.3,0.9,0.6
			C254.3,62.2,264.8,52.4,275.6,42.5z"/>
		<path fill="#FFFFFF" d="M465.5,56.3c-2.7,19.7-5.4,39.2-8.4,58.9c-5.1,0-9.9,0-15.6,0c2.7-19.4,5.4-38.9,8.1-58.6
			c-6.9,0-13.5,0-20.3,0c-0.9-4.8,1.5-9.3,0.9-14.1c19.1,0,38,0,57.4,0c0.6,4.5-1.5,9-1.2,13.8C479.6,56.3,473,56.3,465.5,56.3z"/>
		<path fill="#FFFFFF" d="M201.1,97.5c4.8,0,8.4,3.3,8.4,7.8c0,5.7-5.1,10.5-10.8,10.5c-4.8,0-7.8-3-7.8-7.8
			C190.9,102,195.1,97.5,201.1,97.5z"/>
		<path fill="#FFFFFF" d="M338.7,84.4c7.5-2.1,12.9-6.6,15.6-14.1c1.2-3.6,1.8-7.5,1.5-11.4c-0.3-6-3-10.5-8.4-13.2
			c-4.5-2.4-9.3-3-14.1-3.3c-9-0.3-18.2,0-27.2,0c-0.9,0-2.1-0.3-2.7,0.3c-3.3,24.2-6.9,48.5-10.2,72.4c5.4,0,10.5,0,15.6,0
			c1.5-9.9,2.7-19.4,4.2-29c3,0,4.8,0,8.1,0c3.6,9.6,7.8,19.4,11.4,29.3c6.3,0,12.3,0,18.8,0c-4.8-10.2-9.6-20.3-14.1-30.2
			C337.2,85,338.1,84.4,338.7,84.4z M335.1,71.2c-2.1,1.5-4.5,1.2-6.9,1.5c-4.2,0.6-8.7,0.3-13.5,0.3c0.6-6,1.2-11.4,2.7-17.4
			c6.3,0,12-0.9,17.7,1.2c2.4,0.9,4.5,2.7,4.5,5.7C339.9,66.4,338.1,69.1,335.1,71.2z"/>
		<path fill="#FFFFFF" d="M408.1,42.5c-4.5,0-8.4,0-12.9,0c-13.8,23.9-27.5,48.2-41.6,72.7c6.3,0,11.7,0,17.4,0
			c2.7-5.1,5.4-10.2,8.1-15.3c9.9,0,19.4,0,29,0c1.5,5.4,2.7,10.2,4.2,15c6,0,11.7,0,17.7,0C422.2,90.7,415.3,66.7,408.1,42.5z
			 M403.6,86.8c-5.7,0-11.4,0-17.9,0c4.2-7.8,7.8-15,11.7-22.1C399.1,65.8,403.9,83.5,403.6,86.8z"/>
	</g>
	<g>
		<path fill="#FFFFFF" d="M41.6,1.2c0.6-0.3,0.9,0.6,1.2,0.9C52.4,20.4,62,38.9,68.5,58.7c0.6,1.5,0.9,3,1.5,4.8
			c2.1,6.3,1.2,12.3-2.1,17.7C57.5,98.4,44,111.6,24.3,117.9c-2.1,0.6-4.2,1.2-6.6,0.9C43.7,83.5,46.4,43.1,41.6,1.2z"/>
		<path fill="#FFFFFF" d="M34.7,74.2C27.3,56.6,15,42.5,2.4,28.7c0.9-0.3,1.8-0.3,2.7,0.3c10.5,4.5,20.9,9.3,31.1,14.1
			c1.8,0.9,3,2.1,3,4.2C39.2,56.3,38.3,65.2,34.7,74.2z"/>
		<path fill="#FFFFFF" d="M74.5,64.6c-2.4-6-4.5-11.4-6.6-16.8c-0.6-1.5,0.3-1.8,1.2-2.7c4.5-3.9,9.6-4.8,15.3-3.3
			c3.3,0.9,6,2.1,9,4.5C83.2,48.5,77.5,54.8,74.5,64.6z"/>
	</g>
</g>
</svg>
