<?xml version="1.0" encoding="utf-8"?>
<!-- Generator: Adobe Illustrator 18.1.0, SVG Export Plug-In . SVG Version: 6.00 Build 0)  -->
<svg version="1.1" id="Layer_1" xmlns="http://www.w3.org/2000/svg" xmlns:xlink="http://www.w3.org/1999/xlink" x="0px" y="0px"
	 viewBox="0 0 500 500" enable-background="new 0 0 500 500" xml:space="preserve">
<g>
	<defs>
		<path id="SVGID_1_" d="M11,404.5c2.6-3.2,4.2-6.4,9-6.9c0.5,0,1.6-2.6,1.6-3.7c0-15.4,0-30.6,0-46c0-26.9,0-53.9,0-80.9
			c0-8.5,3.2-11.6,11.6-11.6c30.1,0,60.3,0,89.9,0c4.2,0,5.3-1.1,5.3-5.3c-0.5-6.4,0-12.1,0-18.5c0-6.9,3.7-10.6,10.6-10.6
			c5.3,0,10.6,0,15.9,0c2.6,0,3.7-1.1,4.2-3.7c5.8-38,27.4-63.4,64-75.6c4.2-1.6,5.8-3.2,5.3-7.4c-0.5-3.2-0.5-6.4,0-9.5
			c1.1-9,5.3-15.9,14.3-19.6c2.6-1.1,2.6-3.2,2.6-5.3c0-19.6,0-39.1,0-58.7c0-4.8,2.1-6.9,6.4-5.3c1.6,0.5,3.2,3.2,4.8,5.3
			c3.2,0,7.4-0.5,11.6,0c6.9,1.1,13.8,2.6,20.6,4.8c9,2.1,18.5,3.2,28,0c0,1.1,0.5,1.6,0.5,2.1c0,10.1,0,20.6,0,30.6
			c0,2.6-1.1,3.7-3.2,4.2c-9.5,2.6-18,1.1-27.4-1.1c-6.9-1.6-13.8-3.2-20.6-4.2c-2.6-0.5-5.8,0-8.5,0c-2.1,0-3.2,1.6-3.2,3.7
			c0,6.4,0,12.6,0,19.1c0,1.1,1.1,3.2,2.6,3.7c9.5,4.2,14.3,11.1,14.3,21.6c0,3.7-1.1,9,1.1,11.6c1.6,2.6,6.4,3.2,10.1,4.2
			c33.4,13.8,52.9,38.6,58.7,74c0.5,2.6,1.1,3.7,4.2,3.7c5.3,0,10.1,0,15.4,0c7.4,0,11.1,3.7,11.6,11.1c0,5.8,0,11.6,0,16.9
			c0,5.8,0,5.8,5.8,5.8c29.6,0,59.2,0,88.8,0c9.5,0,12.1,2.6,12.1,12.1c0,41.7,0,82.9,0,124.7c0,3.2,0,5.3,4.2,6.4
			c2.6,0.5,4.2,4.2,6.4,6.9c0,5.8,0,12.1,0,18c-2.1,2.6-4.8,5.3-6.9,7.9c-154.9,0-309.7,0-464.6,0c-2.1-2.1-4.8-4.8-6.9-6.9
			C11,417.8,11,411.4,11,404.5z M139.4,336.4c0,19.1,0,38,0,56.6c0,1.6,0.5,4.2,1.1,4.2c2.6,0.5,5.8,0.5,8.5,0
			c0.5,0,1.6-3.2,1.6-4.8c0-36.4,0-72.4,0-108.9c0-5.8,2.1-9.5,6.9-12.1c28.6-16.4,57.1-33.4,86.1-49.7c4.8-2.6,9-2.6,13.8,0
			c28.6,16.9,57.6,33.4,86.1,50.2c4.8,2.6,6.9,6.4,6.9,11.6c0,36.4,0,72.9,0,109.4c0,4.2,1.6,5.3,5.3,5.3c3.7,0,5.8-0.5,5.8-4.8
			c0-37,0-74.6,0-111.5c0-7.4-3.2-13.2-9.5-16.9c-30.1-18-60.3-35.4-90.4-53.4c-6.4-3.7-13.2-4.2-19.6,0
			c-31.7,16.9-62.4,34.4-92.5,51.8c-6.9,3.7-10.1,9.5-10.1,17.4C139.4,299.4,139.4,317.9,139.4,336.4z M290.1,345.9
			c0,15.9,0,31.1,0,47c0,3.7,1.1,5.8,5.3,5.3c9-0.5,18.5-0.5,27.4,0c4.2,0,5.8-1.6,5.8-5.8c0-21.1,0-41.7,0-62.9
			c0-10.1,0-20.6,0-30.6c-0.5-13.8-10.1-22.1-22.7-20.1c-9.5,1.6-15.9,9.5-15.9,20.6C290.1,315.2,290.1,330.6,290.1,345.9z
			 M171.1,346.4c0,15.4,0,31.1,0,46.5c0,4.2,1.1,5.8,5.3,5.3c9-0.5,18.5-0.5,27.4,0c4.2,0,5.8-1.6,5.8-5.8c0-21.1,0-41.7,0-62.9
			c0-10.1,0-20.6,0-30.6c-0.5-13.8-10.1-22.1-22.7-20.1c-9.5,1.6-15.9,9.5-15.9,20.6C171.1,315.2,171.1,330.6,171.1,346.4z
			 M269,345.4c0-15.9,0-31.7,0-47.6c0-10.6-8.5-19.1-19.1-19.1c-10.6,0-19.1,8.5-19.1,19.6c0,32.2,0,64,0,96.2
			c0,3.2,1.1,4.2,4.2,4.2c9.5,0,19.6,0,29.1,0c3.7,0,4.8-1.1,4.8-4.8C269,377.1,269,361.2,269,345.4z M69.1,373.9
			c0-6.9,0-13.8,0-20.6c0-2.6-1.1-3.7-3.7-3.7c-5.8,0-11.6,0-17.4,0c-2.6,0-3.7,0.5-3.7,3.7c0,13.8,0,27.4,0,40.7
			c0,3.2,1.1,4.2,4.2,3.7c5.3,0,11.1,0,16.4,0c3.2,0,4.2-1.1,4.2-4.2C69.1,387.1,69.1,380.8,69.1,373.9z M69.1,302.5
			c0-6.9,0-13.2,0-20.1c0-2.6-1.1-4.2-3.7-4.2c-5.8,0-11.6,0-17.4,0c-2.6,0-3.7,1.1-3.7,3.7c0,13.8,0,27.4,0,41.2
			c0,2.6,1.1,3.2,3.7,3.2c5.8,0,12.1,0,18,0c2.6,0,3.7-1.1,3.7-3.7C69.1,316.3,69.1,309.4,69.1,302.5z M116.2,349.5
			c-7.4,0-14.8,0-21.6,0c-1.1,0-2.6,2.1-2.6,3.2c0,13.8,0,27.4,0,41.2c0,2.6,0.5,3.7,3.2,3.7c5.8,0,12.1,0,18,0
			c1.1,0,3.2-1.6,3.2-2.6C116.2,380.2,116.2,365.4,116.2,349.5z M383.6,349.5c0,15.9,0,30.6,0,45.4c0,1.1,2.1,2.6,3.2,2.6
			c5.8,0.5,12.1,0,18,0c2.1,0,3.2-1.1,3.2-3.2c0-14.3,0-28,0-42.3c0-1.1-1.6-2.6-2.6-2.6C398.4,349.5,391.6,349.5,383.6,349.5z
			 M454.9,349.5c-7.9,0-14.8,0-22.1,0c-1.1,0-2.1,2.1-2.1,3.2c0,13.8,0,27.4,0,41.2c0,2.6,1.1,3.7,3.7,3.7c5.3,0,11.1,0,16.4,0
			c3.2,0,4.2-1.1,4.2-4.2c0-10.6,0-20.6,0-31.1C454.9,358.5,454.9,354.3,454.9,349.5z M116.2,326.3c0-15.4,0-30.6,0-45.4
			c0-1.1-1.6-2.6-2.6-2.6c-6.4,0-12.6,0-18.5,0c-1.1,0-3.2,2.1-3.2,3.2c0,14.3,0,28,0,42.3c0,1.1,1.6,2.6,2.6,2.6
			C101.4,326.3,108.3,326.3,116.2,326.3z M383.6,326.3c7.4,0,14.8,0,21.6,0c1.1,0,2.6-2.1,2.6-3.2c0-13.8,0-27.4,0-41.2
			c0-2.1-1.1-3.7-3.2-3.7c-6.4,0-12.1,0-18.5,0c-1.1,0-2.6,1.6-2.6,2.6C383.6,295.6,383.6,311,383.6,326.3z M454.9,326.3
			c0-15.9,0-30.6,0-45.4c0-1.1-1.6-2.6-2.6-2.6c-6.4,0-12.1-0.5-18.5,0c-1.1,0-3.2,2.1-3.2,2.6c0,14.3,0,28,0,42.3
			c0,1.1,1.6,2.6,2.6,2.6C440.6,326.3,447.6,326.3,454.9,326.3z"/>
	</defs>
	<clipPath id="SVGID_2_">
		<use xlink:href="#SVGID_1_"  overflow="visible"/>
	</clipPath>
	<rect x="-151" y="-151" clip-path="url(#SVGID_2_)" fill="#FFFFFF" width="800" height="800"/>
	<g clip-path="url(#SVGID_2_)">
		<polygon fill="#59CAEA" points="440.6,133.7 484.9,302.6 520.9,78.6 		"/>
		<polygon fill="#01AAB5" points="342.9,200.6 484.9,302.6 440.6,133.7 		"/>
		<polygon fill="#F37326" points="231.5,165.7 156.9,212.6 342.9,200.6 		"/>
		<polygon fill="#F37029" points="170.7,297.3 178.9,346.6 484.9,302.6 342.9,200.6 		"/>
		<polygon fill="#B02C9F" points="568.4,5.7 554.6,26.9 554.6,26.9 583,8.4 		"/>
		<polygon fill="#F37029" points="82.9,346.6 178.9,346.6 170.7,297.3 		"/>
		<polygon fill="#F8931D" points="342.9,200.6 156.9,212.6 170.7,297.3 		"/>
		<polygon fill="#F7991E" points="156.9,212.6 66.5,330.3 82.9,346.6 170.7,297.3 		"/>
		<polygon fill="#068CA9" points="573.1,214.7 558.7,68.9 520.9,78.6 		"/>
		<polygon fill="#DA3420" points="182.9,150.4 156.9,212.6 231.5,165.7 		"/>
		<polygon fill="#B02C9F" points="554.6,26.9 650.1,20.9 583,8.4 		"/>
		<polygon fill="#01B7D4" points="573.1,214.7 484.9,302.6 616.7,328.5 573.1,214.7 573.1,214.7 		"/>
		<polygon fill="#A360B9" points="520.9,78.6 558.7,68.9 554.6,26.9 554.6,26.9 554.6,26.9 		"/>
		<polygon fill="#00A7B0" points="484.9,302.6 573.1,214.7 573.1,214.7 520.9,78.6 		"/>
		<rect x="573.1" y="214.7" fill="#D61E41" width="0" height="0"/>
		<polygon fill="#C2349B" points="650.1,20.9 650.1,20.9 626.2,-19.7 583,8.4 		"/>
		<polygon fill="#D61E41" points="573.1,214.7 573.1,214.7 573.1,214.7 		"/>
		<polygon fill="#EF4136" points="-0.1,152.5 -41.1,222.6 156.9,212.6 		"/>
		<polygon fill="#F8931D" points="365.2,396.1 484.9,302.6 178.9,346.6 		"/>
		<path fill="#F36F26" d="M72.9,427c52.8-39.8,106-80.4,106-80.4h-96L72.9,427z"/>
		<polygon fill="#D61E41" points="650.1,20.9 650.1,20.9 650.1,20.9 		"/>
		<polygon fill="#D60EB1" points="649.1,-118.2 590.8,-79.9 606.6,-53 		"/>
		<polygon fill="#FCB315" points="-41.1,222.6 66.5,330.3 156.9,212.6 		"/>
		<polygon fill="#00A8CB" points="440.6,133.7 520.9,78.6 418.2,48.3 		"/>
		<polygon fill="#08ACB7" points="520.9,78.6 554.6,26.9 414.9,35.6 418.2,48.3 		"/>
		<polygon fill="#008A9F" points="568.4,5.7 484.3,-10 414.9,35.6 554.6,26.9 		"/>
		<polygon fill="#F7991E" points="231.5,165.7 342.9,200.6 316.2,112.4 		"/>
		<polygon fill="#FFC20E" points="484.9,302.6 365.2,396.1 513.9,435.6 609,435.6 		"/>
		<polygon fill="#2F7888" points="573.1,214.7 650.1,249.7 650.1,138 573.1,214.7 		"/>
		<polygon fill="#D61E41" points="650.1,20.9 650.1,20.9 650.1,20.9 		"/>
		<polygon fill="#00A8CB" points="573.1,214.7 573.1,214.7 650.1,138 650.1,45.3 558.7,68.9 		"/>
		<polygon fill="#FD9F13" points="484.9,302.6 609,435.6 650.1,435.6 650.1,415.5 616.7,328.5 		"/>
		<polygon fill="#59CAEA" points="650.1,415.5 650.1,335.1 616.7,328.5 		"/>
		<polygon fill="#08ACB7" points="616.7,328.5 650.1,335.1 650.1,249.7 573.1,214.7 		"/>
		<polygon fill="#8E1D83" points="650.1,20.9 650.1,20.9 650.1,-35.1 626.2,-19.7 		"/>
		<polygon fill="#8C1670" points="606.6,-53 626.2,-19.7 650.1,-35.1 650.1,-118.8 649.1,-118.2 		"/>
		<polygon fill="#D61E41" points="649.1,-118.2 650.1,-118.8 650.1,-119.7 		"/>
		<polygon fill="#C2349B" points="590.8,-79.9 649.1,-118.2 650.1,-119.7 650.1,-135.3 568.9,-117.3 		"/>
		<polygon fill="#B911D1" points="568.4,5.7 606.6,-53 590.8,-79.9 484.3,-10 		"/>
		<polygon fill="#38C5ED" points="163.7,26.9 150.1,-15.5 112.8,16.7 		"/>
		<polygon fill="#38C5ED" points="396.3,-43.9 397.5,-69.1 371.3,-59.4 		"/>
		<polygon fill="#38C5ED" points="274.2,-52.2 261.7,-37 283.7,-24.8 		"/>
		<polygon fill="#38C5ED" points="-65.2,-126 -82.8,-134.8 -89.9,-110.8 		"/>
		<polygon fill="#38C5ED" points="51.9,-256.3 31.1,-265.3 28.9,-239.2 		"/>
		<polygon fill="#039BB1" points="181.5,14.8 178.7,-1.3 171,10.9 		"/>
		<polygon fill="#B7059A" points="583,8.4 626.2,-19.7 606.6,-53 568.4,5.7 		"/>
		<path fill="#F5821F" d="M72.9,427l-1.1,8.6h118l-11-89C178.9,346.6,125.7,387.3,72.9,427z"/>
		<polygon fill="#F5821F" points="314.7,435.6 513.9,435.6 365.2,396.1 		"/>
		<path fill="#FAA21C" d="M82.9,346.6l-16.3-16.4l-80.9,105.4h75.9c3.8-2.8,7.6-5.7,11.4-8.6L82.9,346.6z"/>
		<path fill="#F5821F" d="M61.5,435.6h10.3l1.1-8.6C69.1,429.9,65.3,432.8,61.5,435.6z"/>
		<polygon fill="#F9A01C" points="178.9,346.6 189.9,435.6 314.7,435.6 365.2,396.1 		"/>
		<polygon fill="#8E002F" points="-149.9,95.1 -149.9,227.4 -27.6,142 		"/>
		<polygon fill="#EE1B39" points="-0.1,152.5 -27.6,142 -149.9,227.4 -149.9,343.4 -41.1,222.6 		"/>
		<polygon fill="#F89B1D" points="66.5,330.3 -41.1,222.6 -14.4,435.6 		"/>
		<polygon fill="#EF474A" points="-41.1,222.6 -149.9,343.4 -149.9,435.6 		"/>
		<polygon fill="#F58120" points="-14.4,435.6 -41.1,222.6 -149.9,435.6 		"/>
		<polygon fill="#A20994" points="618.1,-250.2 650.1,-268.3 650.1,-364.4 595.6,-268.9 		"/>
		<polygon fill="#DB3BBF" points="550.7,-306.2 540.8,-267.4 568.9,-222.2 595.6,-268.9 		"/>
		<polygon fill="#CF2BAD" points="618.1,-250.2 595.6,-268.9 568.9,-222.2 568.9,-222.2 		"/>
		<polygon fill="#771F80" points="565.4,-364.4 480.7,-364.4 550.7,-306.2 		"/>
		<polygon fill="#E26EC2" points="568.9,-222.2 540.8,-267.4 520.9,-221.8 568.9,-222.2 		"/>
		<polygon fill="#D61E41" points="568.9,-222.2 568.9,-222.2 568.9,-222.2 		"/>
		<polygon fill="#A20994" points="478.7,-318.8 395,-315.6 460.9,-248.4 		"/>
		<polygon fill="#D60EB1" points="545.5,-167.1 553.5,-152.3 574.5,-168.7 		"/>
		<polygon fill="#04769F" points="466.2,-194.3 474.2,-179.5 484.3,-193.4 		"/>
		<polygon fill="#0181B5" points="395.7,-136.5 306.9,-105.8 388.2,-97.2 		"/>
		<polygon fill="#911A92" points="650.1,-190.4 568.9,-117.3 650.1,-135.3 		"/>
		<polygon fill="#CA50B4" points="568.9,-222.2 568.9,-222.2 604.4,-195.9 650.1,-206.1 650.1,-210.4 		"/>
		<polygon fill="#920479" points="650.1,-223.6 650.1,-268.3 618.1,-250.2 		"/>
		<polygon fill="#A20994" points="568.9,-222.2 650.1,-210.4 650.1,-223.6 618.1,-250.2 		"/>
		<polygon fill="#B92E96" points="590.8,-79.9 568.9,-117.3 484.3,-10 		"/>
		<polygon fill="#ED4456" points="-72.8,13.9 29.3,102.2 50.7,-4.8 		"/>
		<polygon fill="#EF4136" points="61.7,-38.3 -1.2,-91.9 1,-35.8 		"/>
		<polygon fill="#EF4136" points="101.9,-38.5 118.4,-28.9 123.8,-44.2 		"/>
		<polygon fill="#D60EB1" points="490.1,-36 462,-76.9 454.5,-44.1 		"/>
		<polygon fill="#38C5ED" points="327.1,-298.5 297.1,-322.4 285.7,-281.5 		"/>
		<polygon fill="#38C5ED" points="274.5,-238 278.6,-222.6 296.9,-231.2 		"/>
		<polygon fill="#0181B5" points="275.8,-313.3 241.5,-287.6 278,-295.2 		"/>
		<polygon fill="#D60EB1" points="348.3,-363.5 308.2,-364.4 326.2,-344 		"/>
		<polygon fill="#D61E42" points="50.7,-4.8 29.3,102.2 115.2,47 		"/>
		<polygon fill="#D61E42" points="-27.6,142 -0.1,152.5 29.3,102.2 		"/>
		<polygon fill="#EE1C36" points="-0.1,152.5 156.9,212.6 29.3,102.2 		"/>
		<polygon fill="#EE1748" points="-72.8,13.9 -89.4,-0.4 -89.4,-0.4 -144.3,47.8 29.3,102.2 -72.8,13.9 		"/>
		<polygon fill="#D61E42" points="-89.4,-0.4 -89.4,-0.4 -149.9,-52.8 -149.9,46 -144.3,47.8 		"/>
		<polygon fill="#EE5A2F" points="156.9,212.6 182.9,150.4 29.3,102.2 		"/>
		<polygon fill="#D61E42" points="-149.9,46 -149.9,52.8 -144.3,47.8 		"/>
		<polygon fill="#E91B3B" points="-144.3,47.8 -149.9,52.8 -149.9,95.1 -27.6,142 29.3,102.2 		"/>
		<polygon fill="#D61E42" points="-45.3,-60.8 -100.4,-59.1 -83.8,-44.8 		"/>
		
			<rect x="-92.1" y="6.7" transform="matrix(0.7562 0.6543 -0.6543 0.7562 -15.3573 54.7155)" fill="#D61E42" width="21.9" height="0"/>
		
			<rect x="-159.7" y="-26.6" transform="matrix(0.7562 0.6543 -0.6543 0.7562 -46.5724 71.8066)" fill="#C40F3F" width="80.1" height="0"/>
		<polygon fill="#00A8CB" points="414.9,35.6 284.5,7.8 316.2,112.4 418.2,48.3 		"/>
		<polygon fill="#039BB1" points="217.7,60.1 182.9,150.4 284.5,7.8 		"/>
		<polygon fill="#01B7D4" points="414.9,35.6 484.3,-10 284.5,7.8 		"/>
		<polygon fill="#38C5ED" points="284.5,7.8 484.3,-10 361.1,-32.9 		"/>
		<polygon fill="#058EA4" points="342.9,200.6 440.6,133.7 316.2,112.4 		"/>
		<polygon fill="#01B7D4" points="316.2,112.4 440.6,133.7 418.2,48.3 		"/>
		<polygon fill="#B02C9F" points="650.1,45.3 650.1,20.9 558.7,68.9 		"/>
		<polygon fill="#D950B5" points="554.6,26.9 558.7,68.9 650.1,20.9 554.6,26.9 		"/>
		<polygon fill="#6C0570" points="595.6,-268.9 650.1,-364.4 552.6,-304.6 		"/>
		<polygon fill="#43075E" points="550.7,-306.2 552.6,-304.6 650.1,-364.4 565.4,-364.4 		"/>
		<polygon fill="#EF4136" points="-48.4,-220.7 24.1,-220.7 24.1,-120.9 		"/>
		<polygon fill="#FCB315" points="-48.4,-220.7 -109.6,-174.8 -7.4,-164.3 		"/>
		<polygon fill="#ED1A43" points="29.3,102.2 182.9,150.4 115.2,47 		"/>
		<polygon fill="#08ACB7" points="115.2,47 182.9,150.4 217.7,60.1 		"/>
		<polygon fill="#01B7D4" points="284.5,7.8 182.9,150.4 316.2,112.4 		"/>
		<polygon fill="#01AAB5" points="182.9,150.4 231.5,165.7 316.2,112.4 		"/>
		<polygon fill="#E26EC2" points="44.4,-240.7 46.8,-232.5 37.1,-235.3 		"/>
	</g>
</g>
</svg>
