<?xml version="1.0" encoding="utf-8"?>
<!-- Generator: Adobe Illustrator 18.1.0, SVG Export Plug-In . SVG Version: 6.00 Build 0)  -->
<svg version="1.1" id="Layer_1" xmlns="http://www.w3.org/2000/svg" xmlns:xlink="http://www.w3.org/1999/xlink" x="0px" y="0px"
	 viewBox="0 0 500 500" enable-background="new 0 0 500 500" xml:space="preserve">
<g>
	<defs>
		<path id="SVGID_1_" d="M387.5,123.1c0.9-4,1.4-8.2,1.4-12.5c0-31.6-25.6-57.2-57.2-57.2c-3.8,0-7.6,0.4-11.2,1.1
			c-18.6-19.5-44.8-31.7-73.9-31.7c-41.2,0-76.7,24.4-92.9,59.6c-38.3,2-68.7,33.5-68.7,72.3c0,40,32.5,72.5,72.5,72.5h201.8
			c30.9,0,55.9-25,55.9-55.9C415.1,150.8,404,132.8,387.5,123.1z"/>
	</defs>
	<clipPath id="SVGID_2_">
		<use xlink:href="#SVGID_1_"  overflow="visible"/>
	</clipPath>
	<g clip-path="url(#SVGID_2_)">
		<g>
			<g>
				<polygon fill="#59CAEA" points="302.5,82.5 326.3,173.4 345.7,53 				"/>
			</g>
			<g>
				<polygon fill="#01AAB5" points="250,118.5 326.3,173.4 302.5,82.5 				"/>
			</g>
			<g>
				<polygon fill="#F37326" points="190.1,99.8 150,125 250,118.5 				"/>
			</g>
			<g>
				<polygon fill="#F37029" points="157.5,170.5 161.8,197 326.3,173.4 250,118.5 				"/>
			</g>
			<g>
				<polygon fill="#B02C9F" points="371.2,13.8 363.8,25.1 363.8,25.1 379.1,15.2 				"/>
			</g>
			<g>
				<polygon fill="#F37029" points="110.2,197 161.8,197 157.5,170.5 				"/>
			</g>
			<g>
				<polygon fill="#F8931D" points="250,118.5 150,125 157.5,170.5 				"/>
			</g>
			<g>
				<polygon fill="#F7991E" points="150,125 101.4,188.3 110.2,197 157.5,170.5 				"/>
			</g>
			<g>
				<polygon fill="#068CA9" points="373.8,126.1 366,47.7 345.7,53 				"/>
			</g>
			<g>
				<polygon fill="#DA3420" points="164,91.6 150,125 190.1,99.8 				"/>
			</g>
			<g>
				<polygon fill="#B02C9F" points="363.8,25.1 415.2,21.9 379.1,15.2 				"/>
			</g>
			<g>
				<polygon fill="#01B7D4" points="373.8,126.1 326.3,173.4 397.2,187.3 373.8,126.1 373.8,126.1 				"/>
			</g>
			<g>
				<polygon fill="#A360B9" points="345.7,53 366,47.7 363.8,25.1 363.8,25.1 363.8,25.1 				"/>
			</g>
			<g>
				<polygon fill="#00A7B0" points="326.3,173.4 373.8,126.1 373.8,126.1 345.7,53 				"/>
			</g>
			<g>
				<rect x="373.8" y="126.1" fill="#D61E41" width="0" height="0"/>
			</g>
			<g>
				<polygon fill="#C2349B" points="415.2,21.9 415.2,21.9 402.4,0.1 379.1,15.2 				"/>
			</g>
			<g>
				<polygon fill="#D61E41" points="373.8,126.1 373.8,126.1 373.8,126.1 				"/>
			</g>
			<g>
				<polygon fill="#EF4136" points="65.6,92.7 43.6,130.4 150,125 				"/>
			</g>
			<g>
				<polygon fill="#F8931D" points="262,223.7 326.3,173.4 161.8,197 				"/>
			</g>
			<g>
				<path fill="#F36F26" d="M104.9,240.3c28.4-21.4,57-43.2,57-43.2h-51.6L104.9,240.3z"/>
			</g>
			<g>
				<polygon fill="#D61E41" points="415.2,21.9 415.2,21.9 415.2,21.9 				"/>
			</g>
			<g>
				<polygon fill="#D60EB1" points="414.7,-52.9 383.3,-32.3 391.8,-17.8 				"/>
			</g>
			<g>
				<polygon fill="#FCB315" points="43.6,130.4 101.4,188.3 150,125 				"/>
			</g>
			<g>
				<polygon fill="#00A8CB" points="302.5,82.5 345.7,53 290.5,36.6 				"/>
			</g>
			<g>
				<polygon fill="#08ACB7" points="345.7,53 363.8,25.1 288.7,29.8 290.5,36.6 				"/>
			</g>
			<g>
				<polygon fill="#008A9F" points="371.2,13.8 326,5.3 288.7,29.8 363.8,25.1 				"/>
			</g>
			<g>
				<polygon fill="#F7991E" points="190.1,99.8 250,118.5 235.6,71.1 				"/>
			</g>
			<g>
				<polygon fill="#FFC20E" points="326.3,173.4 262,223.7 341.9,244.9 393.1,244.9 				"/>
			</g>
			<g>
				<polygon fill="#2F7888" points="373.8,126.1 415.2,144.9 415.2,84.9 373.8,126.1 				"/>
			</g>
			<g>
				<polygon fill="#D61E41" points="415.2,21.9 415.2,21.9 415.2,21.9 				"/>
			</g>
			<g>
				<polygon fill="#00A8CB" points="373.8,126.1 373.8,126.1 415.2,84.9 415.2,35 366,47.7 				"/>
			</g>
			<g>
				<polygon fill="#FD9F13" points="326.3,173.4 393.1,244.9 415.2,244.9 415.2,234.1 397.2,187.3 				"/>
			</g>
			<g>
				<polygon fill="#59CAEA" points="415.2,234.1 415.2,190.8 397.2,187.3 				"/>
			</g>
			<g>
				<polygon fill="#08ACB7" points="397.2,187.3 415.2,190.8 415.2,144.9 373.8,126.1 				"/>
			</g>
			<g>
				<polygon fill="#8E1D83" points="415.2,21.9 415.2,21.9 415.2,-8.2 402.4,0.1 				"/>
			</g>
			<g>
				<polygon fill="#8C1670" points="391.8,-17.8 402.4,0.1 415.2,-8.2 415.2,-53.2 414.7,-52.9 				"/>
			</g>
			<g>
				<polygon fill="#D61E41" points="414.7,-52.9 415.2,-53.2 415.2,-53.6 				"/>
			</g>
			<g>
				<polygon fill="#C2349B" points="383.3,-32.3 414.7,-52.9 415.2,-53.6 415.2,-62.1 371.5,-52.4 				"/>
			</g>
			<g>
				<polygon fill="#B911D1" points="371.2,13.8 391.8,-17.8 383.3,-32.3 326,5.3 				"/>
			</g>
			<g>
				<polygon fill="#38C5ED" points="153.7,25.1 146.3,2.4 126.3,19.7 				"/>
			</g>
			<g>
				<polygon fill="#38C5ED" points="278.7,-12.9 279.4,-26.4 265.3,-21.3 				"/>
			</g>
			<g>
				<polygon fill="#38C5ED" points="213.1,-17.4 206.4,-9.2 218.2,-2.6 				"/>
			</g>
			<g>
				<polygon fill="#38C5ED" points="30.6,-57.1 21.1,-61.8 17.4,-48.9 				"/>
			</g>
			<g>
				<polygon fill="#38C5ED" points="93.6,-127.1 82.4,-132 81.2,-117.9 				"/>
			</g>
			<g>
				<polygon fill="#039BB1" points="163.3,18.7 161.7,10 157.6,16.6 				"/>
			</g>
			<g>
				<polygon fill="#B7059A" points="379.1,15.2 402.4,0.1 391.8,-17.8 371.2,13.8 				"/>
			</g>
			<g>
				<path fill="#F5821F" d="M104.9,240.3l-0.6,4.6h63.4l-5.9-47.8C161.8,197,133.3,218.9,104.9,240.3z"/>
			</g>
			<g>
				<polygon fill="#F5821F" points="234.9,244.9 341.9,244.9 262,223.7 				"/>
			</g>
			<g>
				<path fill="#FAA21C" d="M110.2,197l-8.8-8.8l-43.5,56.6h40.8c2-1.5,4.1-3.1,6.1-4.6L110.2,197z"/>
			</g>
			<g>
				<path fill="#F5821F" d="M98.7,244.9h5.6l0.6-4.6C102.8,241.8,100.8,243.4,98.7,244.9z"/>
			</g>
			<g>
				<polygon fill="#F9A01C" points="161.8,197 167.7,244.9 234.9,244.9 262,223.7 				"/>
			</g>
			<g>
				<polygon fill="#8E002F" points="-14.9,61.8 -14.9,132.9 50.8,87 				"/>
			</g>
			<g>
				<polygon fill="#EE1B39" points="65.6,92.7 50.8,87 -14.9,132.9 -14.9,195.3 43.6,130.4 				"/>
			</g>
			<g>
				<polygon fill="#F89B1D" points="101.4,188.3 43.6,130.4 57.9,244.9 				"/>
			</g>
			<g>
				<polygon fill="#EF474A" points="43.6,130.4 -14.9,195.3 -14.9,244.9 				"/>
			</g>
			<g>
				<polygon fill="#F58120" points="57.9,244.9 43.6,130.4 -14.9,244.9 				"/>
			</g>
			<g>
				<polygon fill="#A20994" points="398,-123.8 415.2,-133.6 415.2,-185.2 385.9,-133.9 				"/>
			</g>
			<g>
				<polygon fill="#DB3BBF" points="361.7,-153.9 356.4,-133.1 371.5,-108.8 385.9,-133.9 				"/>
			</g>
			<g>
				<polygon fill="#CF2BAD" points="398,-123.8 385.9,-133.9 371.5,-108.8 371.5,-108.8 				"/>
			</g>
			<g>
				<polygon fill="#771F80" points="369.7,-185.2 324.1,-185.2 361.7,-153.9 				"/>
			</g>
			<g>
				<polygon fill="#E26EC2" points="371.5,-108.8 356.4,-133.1 345.7,-108.6 371.5,-108.8 				"/>
			</g>
			<g>
				<polygon fill="#D61E41" points="371.5,-108.8 371.5,-108.8 371.5,-108.8 				"/>
			</g>
			<g>
				<polygon fill="#A20994" points="323,-160.7 278,-159 313.5,-122.9 				"/>
			</g>
			<g>
				<polygon fill="#D60EB1" points="358.9,-79.1 363.2,-71.2 374.5,-80 				"/>
			</g>
			<g>
				<polygon fill="#04769F" points="316.3,-93.8 320.6,-85.8 326,-93.3 				"/>
			</g>
			<g>
				<polygon fill="#0181B5" points="278.4,-62.7 230.7,-46.2 274.4,-41.6 				"/>
			</g>
			<g>
				<polygon fill="#911A92" points="415.2,-91.7 371.5,-52.4 415.2,-62.1 				"/>
			</g>
			<g>
				<polygon fill="#CA50B4" points="371.5,-108.8 371.5,-108.8 390.6,-94.7 415.2,-100.1 415.2,-102.4 				"/>
			</g>
			<g>
				<polygon fill="#920479" points="415.2,-109.5 415.2,-133.6 398,-123.8 				"/>
			</g>
			<g>
				<polygon fill="#A20994" points="371.5,-108.8 415.2,-102.4 415.2,-109.5 398,-123.8 				"/>
			</g>
			<g>
				<polygon fill="#B92E96" points="383.3,-32.3 371.5,-52.4 326,5.3 				"/>
			</g>
			<g>
				<polygon fill="#ED4456" points="26.5,18.2 81.4,65.7 92.9,8.1 				"/>
			</g>
			<g>
				<polygon fill="#EF4136" points="98.8,-9.9 65,-38.7 66.2,-8.6 				"/>
			</g>
			<g>
				<polygon fill="#EF4136" points="120.5,-10 129.3,-4.8 132.2,-13.1 				"/>
			</g>
			<g>
				<polygon fill="#D60EB1" points="329.2,-8.7 314.1,-30.7 310,-13 				"/>
			</g>
			<g>
				<polygon fill="#38C5ED" points="241.5,-149.8 225.4,-162.6 219.3,-140.7 				"/>
			</g>
			<g>
				<polygon fill="#38C5ED" points="213.3,-117.3 215.5,-109 225.3,-113.6 				"/>
			</g>
			<g>
				<polygon fill="#0181B5" points="214,-157.7 195.5,-143.9 215.1,-148 				"/>
			</g>
			<g>
				<polygon fill="#D60EB1" points="252.9,-184.7 231.4,-185.2 241.1,-174.2 				"/>
			</g>
			<g>
				<polygon fill="#D61E42" points="92.9,8.1 81.4,65.7 127.6,36 				"/>
			</g>
			<g>
				<polygon fill="#D61E42" points="50.8,87 65.6,92.7 81.4,65.7 				"/>
			</g>
			<g>
				<polygon fill="#EE1C36" points="65.6,92.7 150,125 81.4,65.7 				"/>
			</g>
			<g>
				<polygon fill="#EE1748" points="26.5,18.2 17.6,10.5 17.6,10.5 -11.9,36.4 81.4,65.7 26.5,18.2 				"/>
			</g>
			<g>
				<polygon fill="#D61E42" points="17.6,10.5 17.6,10.5 -14.9,-17.7 -14.9,35.4 -11.9,36.4 				"/>
			</g>
			<g>
				<polygon fill="#EE5A2F" points="150,125 164,91.6 81.4,65.7 				"/>
			</g>
			<g>
				<polygon fill="#D61E42" points="-14.9,35.4 -14.9,39.1 -11.9,36.4 				"/>
			</g>
			<g>
				<polygon fill="#E91B3B" points="-11.9,36.4 -14.9,39.1 -14.9,61.8 50.8,87 81.4,65.7 				"/>
			</g>
			<g>
				<polygon fill="#D61E42" points="41.3,-22 11.7,-21.1 20.6,-13.4 				"/>
			</g>
			<g>
				
					<rect x="16.2" y="14.3" transform="matrix(0.7562 0.6543 -0.6543 0.7562 14.746 -10.95)" fill="#D61E42" width="11.8" height="0"/>
			</g>
			<g>
				
					<rect x="-20.2" y="-3.6" transform="matrix(0.7562 0.6543 -0.6543 0.7562 -2.0359 -1.7615)" fill="#C40F3F" width="43" height="0"/>
			</g>
			<g>
				<polygon fill="#00A8CB" points="288.7,29.8 218.6,14.9 235.6,71.1 290.5,36.6 				"/>
			</g>
			<g>
				<polygon fill="#039BB1" points="182.7,43 164,91.6 218.6,14.9 				"/>
			</g>
			<g>
				<polygon fill="#01B7D4" points="288.7,29.8 326,5.3 218.6,14.9 				"/>
			</g>
			<g>
				<polygon fill="#38C5ED" points="218.6,14.9 326,5.3 259.8,-7 				"/>
			</g>
			<g>
				<polygon fill="#058EA4" points="250,118.5 302.5,82.5 235.6,71.1 				"/>
			</g>
			<g>
				<polygon fill="#01B7D4" points="235.6,71.1 302.5,82.5 290.5,36.6 				"/>
			</g>
			<g>
				<polygon fill="#B02C9F" points="415.2,35 415.2,21.9 366,47.7 				"/>
			</g>
			<g>
				<polygon fill="#D950B5" points="363.8,25.1 366,47.7 415.2,21.9 363.8,25.1 				"/>
			</g>
			<g>
				<polygon fill="#6C0570" points="385.9,-133.9 415.2,-185.2 362.8,-153.1 				"/>
			</g>
			<g>
				<polygon fill="#43075E" points="361.7,-153.9 362.8,-153.1 415.2,-185.2 369.7,-185.2 				"/>
			</g>
			<g>
				<polygon fill="#EF4136" points="39.6,-108 78.7,-108 78.7,-54.3 				"/>
			</g>
			<g>
				<polygon fill="#FCB315" points="39.6,-108 6.8,-83.3 61.7,-77.7 				"/>
			</g>
			<g>
				<polygon fill="#ED1A43" points="81.4,65.7 164,91.6 127.6,36 				"/>
			</g>
			<g>
				<polygon fill="#08ACB7" points="127.6,36 164,91.6 182.7,43 				"/>
			</g>
			<g>
				<polygon fill="#01B7D4" points="218.6,14.9 164,91.6 235.6,71.1 				"/>
			</g>
			<g>
				<polygon fill="#01AAB5" points="164,91.6 190.1,99.8 235.6,71.1 				"/>
			</g>
			<g>
				<polygon fill="#E26EC2" points="89.5,-118.7 90.8,-114.3 85.6,-115.8 				"/>
			</g>
		</g>
		<g>
			<path fill="#43075E" d="M94.2-87.6c-0.8,0.3-2.3,0.7-4,0.7c-2,0-3.6-0.5-4.9-1.7c-1.1-1.1-1.8-2.8-1.8-4.9c0-3.9,2.7-6.8,7.1-6.8
				c1.5,0,2.7,0.3,3.3,0.6l-0.4,1.4c-0.7-0.3-1.6-0.6-2.9-0.6c-3.2,0-5.3,2-5.3,5.3c0,3.3,2,5.3,5,5.3c1.1,0,1.9-0.2,2.2-0.3v-3.9
				h-2.7v-1.4h4.3V-87.6z"/>
			<path fill="#43075E" d="M104-93.1h-5.1v4.7h5.7v1.4h-7.4v-13.1h7.1v1.4h-5.4v4.1h5.1V-93.1z"/>
			<path fill="#43075E" d="M118.3-93.7c0,4.5-2.7,6.9-6.1,6.9c-3.5,0-5.9-2.7-5.9-6.6c0-4.2,2.6-6.9,6.1-6.9
				C116-100.3,118.3-97.6,118.3-93.7z M108.2-93.5c0,2.8,1.5,5.3,4.2,5.3c2.7,0,4.2-2.5,4.2-5.4c0-2.6-1.4-5.3-4.2-5.3
				C109.6-98.9,108.2-96.4,108.2-93.5z"/>
			<path fill="#43075E" d="M131.9-92.8c-0.1-1.8-0.2-4-0.2-5.6h-0.1c-0.4,1.5-1,3.2-1.7,5l-2.3,6.3h-1.3l-2.1-6.2
				c-0.6-1.8-1.1-3.5-1.5-5.1h0c0,1.6-0.1,3.8-0.3,5.8l-0.3,5.6h-1.6l0.9-13.1h2.2l2.2,6.3c0.5,1.6,1,3,1.3,4.4h0.1
				c0.3-1.3,0.8-2.8,1.4-4.4l2.3-6.3h2.2l0.8,13.1h-1.7L131.9-92.8z"/>
			<path fill="#43075E" d="M143.6-93.1h-5.1v4.7h5.7v1.4h-7.4v-13.1h7.1v1.4h-5.4v4.1h5.1V-93.1z"/>
			<path fill="#43075E" d="M149.6-98.7h-4v-1.4h9.7v1.4h-4V-87h-1.7V-98.7z"/>
			<path fill="#43075E" d="M157.1-99.9c0.9-0.2,2.1-0.3,3.2-0.3c1.8,0,3,0.3,3.8,1.1c0.7,0.6,1,1.5,1,2.5c0,1.7-1.1,2.9-2.5,3.3v0.1
				c1,0.4,1.6,1.3,1.9,2.6c0.4,1.8,0.7,3.1,1,3.6h-1.7c-0.2-0.4-0.5-1.5-0.9-3.1c-0.4-1.8-1.1-2.5-2.6-2.5h-1.6v5.7h-1.7V-99.9z
				 M158.8-94h1.7c1.8,0,3-1,3-2.5c0-1.7-1.2-2.4-3-2.4c-0.8,0-1.4,0.1-1.7,0.2V-94z"/>
			<path fill="#43075E" d="M169.6-100.1V-87H168v-13.1H169.6z"/>
			<path fill="#43075E" d="M182.1-87.4c-0.6,0.3-1.9,0.6-3.5,0.6c-3.7,0-6.5-2.3-6.5-6.6c0-4.1,2.8-6.9,6.8-6.9
				c1.6,0,2.7,0.3,3.1,0.6l-0.4,1.4c-0.6-0.3-1.6-0.5-2.6-0.5c-3.1,0-5.1,2-5.1,5.4c0,3.2,1.8,5.3,5,5.3c1,0,2.1-0.2,2.8-0.5
				L182.1-87.4z"/>
			<path fill="#43075E" d="M84.3-80.6c0.7-0.2,1.9-0.3,3.1-0.3c1.7,0,2.8,0.3,3.6,1c0.7,0.5,1.1,1.3,1.1,2.3c0,1.3-0.8,2.4-2.2,2.9
				v0c1.2,0.3,2.7,1.3,2.7,3.3c0,1.1-0.4,2-1.1,2.6c-0.9,0.8-2.4,1.2-4.5,1.2c-1.2,0-2.1-0.1-2.6-0.2V-80.6z M86-75.2h1.5
				c1.8,0,2.8-0.9,2.8-2.2c0-1.5-1.2-2.1-2.9-2.1c-0.8,0-1.2,0.1-1.5,0.1V-75.2z M86-68.9c0.3,0.1,0.8,0.1,1.4,0.1
				c1.7,0,3.4-0.6,3.4-2.5c0-1.8-1.5-2.5-3.4-2.5H86V-68.9z"/>
			<path fill="#43075E" d="M97.3-71.8l-1.4,4.1h-1.7l4.4-13.1h2l4.5,13.1h-1.8l-1.4-4.1H97.3z M101.6-73.1l-1.3-3.8
				c-0.3-0.9-0.5-1.6-0.7-2.4h0c-0.2,0.8-0.4,1.6-0.7,2.4l-1.3,3.8H101.6z"/>
			<path fill="#43075E" d="M116.3-68.1c-0.6,0.3-1.9,0.6-3.5,0.6c-3.7,0-6.5-2.3-6.5-6.6c0-4.1,2.8-6.9,6.8-6.9
				c1.6,0,2.7,0.3,3.1,0.6l-0.4,1.4c-0.6-0.3-1.6-0.5-2.6-0.5c-3.1,0-5.1,2-5.1,5.4c0,3.2,1.8,5.3,5,5.3c1,0,2.1-0.2,2.8-0.5
				L116.3-68.1z"/>
			<path fill="#43075E" d="M118.8-80.7h1.7v6.3h0.1c0.4-0.5,0.7-1,1-1.4l4-4.9h2.1l-4.7,5.5l5.1,7.5h-2l-4.3-6.4l-1.2,1.4v5h-1.7
				V-80.7z"/>
			<path fill="#43075E" d="M139.3-68.2c-0.8,0.3-2.3,0.7-4,0.7c-2,0-3.6-0.5-4.9-1.7c-1.1-1.1-1.8-2.8-1.8-4.9
				c0-3.9,2.7-6.8,7.1-6.8c1.5,0,2.7,0.3,3.3,0.6l-0.4,1.4c-0.7-0.3-1.6-0.6-2.9-0.6c-3.2,0-5.3,2-5.3,5.3c0,3.3,2,5.3,5,5.3
				c1.1,0,1.9-0.2,2.2-0.3v-3.9H135v-1.4h4.3V-68.2z"/>
			<path fill="#43075E" d="M142.3-80.6c0.9-0.2,2.1-0.3,3.2-0.3c1.8,0,3,0.3,3.8,1.1c0.7,0.6,1,1.5,1,2.5c0,1.7-1.1,2.9-2.5,3.3v0.1
				c1,0.4,1.6,1.3,1.9,2.6c0.4,1.8,0.7,3.1,1,3.6h-1.7c-0.2-0.4-0.5-1.5-0.9-3.1c-0.4-1.8-1.1-2.5-2.6-2.5H144v5.7h-1.7V-80.6z
				 M144-74.6h1.7c1.8,0,3-1,3-2.5c0-1.7-1.2-2.4-3-2.4c-0.8,0-1.4,0.1-1.7,0.2V-74.6z"/>
			<path fill="#43075E" d="M164.3-74.3c0,4.5-2.7,6.9-6.1,6.9c-3.5,0-5.9-2.7-5.9-6.6c0-4.2,2.6-6.9,6.1-6.9
				C162-81,164.3-78.2,164.3-74.3z M154.2-74.1c0,2.8,1.5,5.3,4.2,5.3c2.7,0,4.2-2.5,4.2-5.4c0-2.6-1.4-5.3-4.2-5.3
				C155.6-79.6,154.2-77,154.2-74.1z"/>
			<path fill="#43075E" d="M168.6-80.7v7.7c0,2.9,1.3,4.2,3,4.2c1.9,0,3.2-1.3,3.2-4.2v-7.7h1.7v7.6c0,4-2.1,5.7-4.9,5.7
				c-2.7,0-4.7-1.5-4.7-5.6v-7.7H168.6z"/>
			<path fill="#43075E" d="M179.8-67.7v-13.1h1.8l4.2,6.6c1,1.5,1.7,2.9,2.3,4.3l0,0c-0.2-1.7-0.2-3.3-0.2-5.4v-5.5h1.6v13.1H188
				l-4.2-6.6c-0.9-1.5-1.8-3-2.4-4.4l-0.1,0c0.1,1.6,0.1,3.2,0.1,5.4v5.6H179.8z"/>
			<path fill="#43075E" d="M193-80.6c1-0.2,2.3-0.3,3.6-0.3c2.4,0,4.2,0.6,5.3,1.6c1.2,1.1,1.8,2.6,1.8,4.7c0,2.1-0.7,3.9-1.9,5.1
				c-1.2,1.2-3.2,1.9-5.8,1.9c-1.2,0-2.2-0.1-3.1-0.2V-80.6z M194.7-69c0.4,0.1,1,0.1,1.7,0.1c3.6,0,5.6-2,5.6-5.6
				c0-3.1-1.7-5-5.3-5c-0.9,0-1.5,0.1-2,0.2V-69z"/>
		</g>
	</g>
</g>
<g>
	<path fill="#FFFFFF" d="M92.6,329.2v-3.4c-10.3-1-16.4-5.5-16.4-13.3c0-7.8,6.1-12.3,16.4-13.3v-3.5h8.7v3.5
		c10.3,1,16.4,5.5,16.4,13.3c0,7.9-6.1,12.3-16.4,13.3v3.4H92.6z M92.6,318.2v-11.2c-5.1,0.7-7.6,2.6-7.6,5.6
		C85,315.6,87.5,317.5,92.6,318.2z M101.3,306.9v11.2c5.1-0.7,7.6-2.5,7.6-5.6C108.9,309.5,106.3,307.6,101.3,306.9z"/>
	<path fill="#FFFFFF" d="M127.3,329.2v-33.5h8.6v33.5H127.3z"/>
	<path fill="#FFFFFF" d="M145.5,312.5c0-10.3,7.8-17.3,18.1-17.3c8.1,0,12.4,4.6,14.6,9l-7.4,3.5c-1.1-2.7-4-4.9-7.2-4.9
		c-5.5,0-9.3,4.2-9.3,9.7s3.9,9.7,9.3,9.7c3.2,0,6.1-2.2,7.2-4.9l7.4,3.5c-2.2,4.3-6.5,9-14.6,9
		C153.3,329.8,145.5,322.8,145.5,312.5z"/>
	<path fill="#FFFFFF" d="M206.9,329.2l-8.8-12.6l-2.3,2.8v9.8h-8.6v-33.5h8.6v13.7l10.3-13.7h10.6l-13,15.6l13.7,17.8H206.9z"/>
	<path fill="#FFFFFF" d="M248,329.2l-1.7-4.8h-13.2l-1.7,4.8h-9.8l12.6-33.5h10.8l12.6,33.5H248z M239.7,304.3l-4.3,12.6h8.5
		L239.7,304.3z"/>
	<path fill="#FFFFFF" d="M263.6,322.2c3.1,0,5.1-1.9,6.1-9.5l2-17h24.9v33.5H288v-25.9h-8.5l-1.2,10.1c-1.6,13.5-7.3,16.5-14.6,16.5
		V322.2z"/>
	<path fill="#FFFFFF" d="M316.6,295.8V307h8.1c7.5,0,11.6,5.1,11.6,11.1c0,6.1-4.1,11.1-11.6,11.1h-16.8v-33.5H316.6z M316.6,314.5
		v7.2h7c2.3,0,4-1.3,4-3.6c0-2.3-1.7-3.6-4-3.6H316.6z"/>
	<path fill="#FFFFFF" d="M368,329.2v-13.4h-13.9v13.4h-8.6v-33.5h8.6v12.5H368v-12.5h8.6v33.5H368z"/>
	<path fill="#FFFFFF" d="M410.6,329.2l-1.7-4.8h-13.2l-1.7,4.8h-9.8l12.6-33.5h10.8l12.6,33.5H410.6z M402.3,304.3l-4.3,12.6h8.5
		L402.3,304.3z"/>
	<path fill="#FFFFFF" d="M17.6,389.4V356h16.8c7.5,0,11.6,5.1,11.6,11.1c0,6-4.1,11.1-11.6,11.1h-8.1v11.2H17.6z M37.2,367.1
		c0-2.3-1.7-3.6-4-3.6h-7v7.2h7C35.5,370.7,37.2,369.4,37.2,367.1z"/>
	<path fill="#FFFFFF" d="M53.4,372.7c0-10.2,7.7-17.3,17.9-17.3c10.2,0,17.9,7.1,17.9,17.3S81.6,390,71.3,390
		C61.1,390,53.4,382.9,53.4,372.7z M80.4,372.7c0-5.5-3.6-9.7-9.1-9.7c-5.6,0-9.1,4.2-9.1,9.7c0,5.4,3.6,9.7,9.1,9.7
		C76.8,382.4,80.4,378.1,80.4,372.7z"/>
	<path fill="#FFFFFF" d="M96.6,384.8l4.4-5.9c2.4,2.4,6.8,3.5,9.7,3.5c4,0,6.1-1.4,6.1-3.3c0-1.9-1.7-2.8-6.5-2.8h-6.8v-7.6h6.8
		c3.6,0,5.9-0.9,5.9-2.6c0-2.1-2.7-3.1-6.1-3.1c-3.1,0-6.5,1.1-8.9,3.2l-4.2-5.4c2.8-3.2,7.8-5.4,13.9-5.4c8.5,0,13.8,3.7,13.8,9.2
		c0,3.9-3.4,6.9-7.3,7.5c3.6,0.4,7.9,3.1,7.9,7.9c0,5.9-6.1,9.9-14.4,9.9C104.6,390,99.2,387.8,96.6,384.8z"/>
	<path fill="#FFFFFF" d="M135.4,389.4V356h16.8c7.5,0,11.6,5.1,11.6,11.1c0,6-4.1,11.1-11.6,11.1H144v11.2H135.4z M155,367.1
		c0-2.3-1.7-3.6-4-3.6h-7v7.2h7C153.3,370.7,155,369.4,155,367.1z"/>
	<path fill="#FFFFFF" d="M192,389.4l-1.7-4.8h-13.2l-1.7,4.8h-9.8l12.6-33.5h10.8l12.6,33.5H192z M183.7,364.5l-4.3,12.6h8.5
		L183.7,364.5z"/>
	<path fill="#FFFFFF" d="M230.7,389.4l-7.3-11.2l-7.3,11.2H206l11.7-17.2L206.7,356h10.2l6.6,10.5l6.5-10.5h10.2l-10.9,16.3
		l11.6,17.2H230.7z"/>
	<path fill="#FFFFFF" d="M245.4,387.5l3.4-6.7c1.2,0.9,2.7,1.7,4.3,1.7c2.2,0,3.1-0.8,4.1-2.5L245.1,356h9.7l7.2,15.6l7.3-15.6h9.7
		l-13.6,26.9c-2.1,4.1-5.5,7.2-11.6,7.2C250.7,390,247.4,389.1,245.4,387.5z"/>
	<path fill="#FFFFFF" d="M309.3,389.4V376h-13.9v13.4h-8.6V356h8.6v12.5h13.9V356h8.6v33.5H309.3z"/>
	<path fill="#FFFFFF" d="M348.9,389.4l-8.8-12.6l-2.3,2.8v9.8h-8.6V356h8.6v13.7l10.3-13.7h10.6l-13,15.6l13.7,17.8H348.9z"/>
	<path fill="#FFFFFF" d="M363.4,372.7c0-10.2,7.7-17.3,17.9-17.3c10.2,0,17.9,7.1,17.9,17.3s-7.6,17.3-17.9,17.3
		C371.1,390,363.4,382.9,363.4,372.7z M390.4,372.7c0-5.5-3.6-9.7-9.1-9.7c-5.6,0-9.1,4.2-9.1,9.7c0,5.4,3.6,9.7,9.1,9.7
		C386.8,382.4,390.4,378.1,390.4,372.7z"/>
	<path fill="#FFFFFF" d="M408.8,389.4V356h19c6.6,0,9.8,4.3,9.8,8.5c0,4.2-2.6,7-5.7,7.7c3.6,0.6,6.4,4,6.4,8.2
		c0,4.9-3.3,9.1-9.8,9.1H408.8z M428.8,366c0-1.6-1.2-2.8-3-2.8h-8.4v5.6h8.4C427.6,368.8,428.8,367.7,428.8,366z M429.4,379.2
		c0-1.7-1.2-3-3.3-3h-8.7v6h8.7C428.2,382.2,429.4,381,429.4,379.2z"/>
	<path fill="#FFFFFF" d="M470.9,389.4l-1.7-4.8h-13.2l-1.7,4.8h-9.8l12.6-33.5h10.8l12.6,33.5H470.9z M462.6,364.5l-4.3,12.6h8.5
		L462.6,364.5z"/>
	<path fill="#FFFFFF" d="M110.6,432.9c0-10.3,7.8-17.3,18.1-17.3c8.1,0,12.4,4.6,14.6,9l-7.4,3.5c-1.1-2.7-4-4.9-7.2-4.9
		c-5.5,0-9.3,4.2-9.3,9.7c0,5.5,3.9,9.7,9.3,9.7c3.2,0,6.1-2.2,7.2-4.9l7.4,3.5c-2.2,4.3-6.5,9-14.6,9
		C118.4,450.2,110.6,443.2,110.6,432.9z"/>
	<path fill="#FFFFFF" d="M152.3,449.6v-33.5h8.6v19.7l13.5-19.7h8.9v33.5h-8.7V429l-14.1,20.7H152.3z"/>
	<path fill="#FFFFFF" d="M192.9,432.9c0-10.3,7.8-17.3,18.1-17.3c8.1,0,12.4,4.6,14.6,9l-7.4,3.5c-1.1-2.7-4-4.9-7.2-4.9
		c-5.5,0-9.3,4.2-9.3,9.7c0,5.5,3.9,9.7,9.3,9.7c3.2,0,6.1-2.2,7.2-4.9l7.4,3.5c-2.2,4.3-6.5,9-14.6,9
		C200.8,450.2,192.9,443.2,192.9,432.9z"/>
	<path fill="#FFFFFF" d="M242.1,449.6v-25.9h-9.4v-7.5h27.3v7.5h-9.3v25.9H242.1z"/>
	<path fill="#FFFFFF" d="M269.4,449.6v-33.5H294v7.5h-15.9v5.2h15.5v7.5h-15.5v5.7H294v7.5H269.4z"/>
	<path fill="#FFFFFF" d="M333.6,449.6v-21.8l-8.5,21.8h-3.8l-8.4-21.8v21.8h-8.6v-33.5h12l7,18.2l7-18.2h12v33.5H333.6z"/>
	<path fill="#FFFFFF" d="M376.2,449.6l-1.7-4.8h-13.2l-1.7,4.8h-9.8l12.6-33.5h10.8l12.6,33.5H376.2z M368,424.7l-4.3,12.6h8.5
		L368,424.7z"/>
</g>
</svg>
