<?xml version="1.0" encoding="utf-8"?>
<!-- Generator: Adobe Illustrator 18.1.0, SVG Export Plug-In . SVG Version: 6.00 Build 0)  -->
<svg version="1.1" id="Layer_1" xmlns="http://www.w3.org/2000/svg" xmlns:xlink="http://www.w3.org/1999/xlink" x="0px" y="0px"
	 viewBox="0 0 158 41" enable-background="new 0 0 158 41" xml:space="preserve">
<g>
	<g>
		<defs>
			<path id="SVGID_1_" d="M60.3,20.1c0.2-0.8,0.3-1.6,0.3-2.4c0-6.2-5-11.2-11.2-11.2c-0.7,0-1.5,0.1-2.2,0.2
				c-3.7-3.9-8.8-6.2-14.6-6.2c-8.1,0-15.1,4.9-18.3,11.8C6.6,12.5,0.6,18.7,0.6,26.3c0,7.9,6.4,14.3,14.3,14.3h39.7
				c6.1,0,11.1-4.9,11.1-11.1C65.6,25.5,63.5,22,60.3,20.1z"/>
		</defs>
		<clipPath id="SVGID_2_">
			<use xlink:href="#SVGID_1_"  overflow="visible"/>
		</clipPath>
		<g clip-path="url(#SVGID_2_)">
			<g>
				<g>
					<polygon fill="#59CAEA" points="43.5,12.1 48.2,30 52,6.3 					"/>
				</g>
				<g>
					<polygon fill="#01AAB5" points="33.1,19.2 48.2,30 43.5,12.1 					"/>
				</g>
				<g>
					<polygon fill="#F37326" points="21.4,15.5 13.5,20.5 33.1,19.2 					"/>
				</g>
				<g>
					<polygon fill="#F37029" points="14.9,29.4 15.8,34.6 48.2,30 33.1,19.2 					"/>
				</g>
				<g>
					<polygon fill="#B02C9F" points="57,-1.5 55.6,0.8 55.6,0.8 58.6,-1.2 					"/>
				</g>
				<g>
					<polygon fill="#F37029" points="5.6,34.6 15.8,34.6 14.9,29.4 					"/>
				</g>
				<g>
					<polygon fill="#F8931D" points="33.1,19.2 13.5,20.5 14.9,29.4 					"/>
				</g>
				<g>
					<polygon fill="#F7991E" points="13.5,20.5 3.8,32.9 5.6,34.6 14.9,29.4 					"/>
				</g>
				<g>
					<polygon fill="#068CA9" points="57.6,20.6 56,5.2 52,6.3 					"/>
				</g>
				<g>
					<polygon fill="#DA3420" points="16.2,13.9 13.5,20.5 21.4,15.5 					"/>
				</g>
				<g>
					<polygon fill="#B02C9F" points="55.6,0.8 65.6,0.2 58.6,-1.2 					"/>
				</g>
				<g>
					<polygon fill="#01B7D4" points="57.6,20.6 48.2,30 62.1,32.8 57.6,20.6 					"/>
				</g>
				<g>
					<polygon fill="#A360B9" points="52,6.3 56,5.2 55.6,0.8 55.6,0.8 55.6,0.8 					"/>
				</g>
				<g>
					<polygon fill="#00A7B0" points="48.2,30 57.6,20.6 57.6,20.6 52,6.3 					"/>
				</g>
				<g>
					<polygon fill="#D61E41" points="57.6,20.6 57.6,20.6 57.6,20.6 					"/>
				</g>
				<g>
					<polygon fill="#C2349B" points="65.6,0.2 65.6,0.2 63.1,-4.2 58.6,-1.2 					"/>
				</g>
				<g>
					<path fill="#D61E41" d="M57.6,20.6L57.6,20.6L57.6,20.6z"/>
				</g>
				<g>
					<polygon fill="#EF4136" points="-3.2,14.1 -7.6,21.5 13.5,20.5 					"/>
				</g>
				<g>
					<polygon fill="#F8931D" points="35.6,39.9 48.2,30 15.8,34.6 					"/>
				</g>
				<g>
					<path fill="#F36F26" d="M4.6,43.2c5.6-4.2,11.2-8.5,11.2-8.5H5.6L4.6,43.2z"/>
				</g>
				<g>
					<path fill="#D61E41" d="M65.6,0.2L65.6,0.2L65.6,0.2z"/>
				</g>
				<g>
					<polygon fill="#D60EB1" points="65.6,-14.6 59.5,-10.5 61.1,-7.7 					"/>
				</g>
				<g>
					<polygon fill="#FCB315" points="-7.6,21.5 3.8,32.9 13.5,20.5 					"/>
				</g>
				<g>
					<polygon fill="#00A8CB" points="43.5,12.1 52,6.3 41.1,3 					"/>
				</g>
				<g>
					<polygon fill="#08ACB7" points="52,6.3 55.6,0.8 40.8,1.7 41.1,3 					"/>
				</g>
				<g>
					<polygon fill="#008A9F" points="57,-1.5 48.1,-3.2 40.8,1.7 55.6,0.8 					"/>
				</g>
				<g>
					<polygon fill="#F7991E" points="21.4,15.5 33.1,19.2 30.3,9.9 					"/>
				</g>
				<g>
					<polygon fill="#FFC20E" points="48.2,30 35.6,39.9 51.3,44.1 61.3,44.1 					"/>
				</g>
				<g>
					<polygon fill="#2F7888" points="57.6,20.6 65.6,24.4 65.6,12.5 					"/>
				</g>
				<g>
					<path fill="#D61E41" d="M65.6,0.2L65.6,0.2L65.6,0.2z"/>
				</g>
				<g>
					<polygon fill="#00A8CB" points="57.6,20.6 57.6,20.6 65.6,12.5 65.6,2.8 56,5.2 					"/>
				</g>
				<g>
					<polygon fill="#FD9F13" points="48.2,30 61.3,44.1 65.6,44.1 65.6,41.9 62.1,32.8 					"/>
				</g>
				<g>
					<polygon fill="#59CAEA" points="65.6,41.9 65.6,33.4 62.1,32.8 					"/>
				</g>
				<g>
					<polygon fill="#08ACB7" points="62.1,32.8 65.6,33.4 65.6,24.4 57.6,20.6 					"/>
				</g>
				<g>
					<polygon fill="#8E1D83" points="65.6,0.2 65.6,0.2 65.6,-5.8 63.1,-4.2 					"/>
				</g>
				<g>
					<polygon fill="#8C1670" points="61.1,-7.7 63.1,-4.2 65.6,-5.8 65.6,-14.7 65.6,-14.6 					"/>
				</g>
				<g>
					<polygon fill="#D61E41" points="65.6,-14.6 65.6,-14.7 65.6,-14.8 					"/>
				</g>
				<g>
					<polygon fill="#C2349B" points="59.5,-10.5 65.6,-14.6 65.6,-14.8 65.6,-16.4 57.1,-14.5 					"/>
				</g>
				<g>
					<polygon fill="#B911D1" points="57,-1.5 61.1,-7.7 59.5,-10.5 48.1,-3.2 					"/>
				</g>
				<g>
					<polygon fill="#38C5ED" points="14.2,0.8 12.7,-3.7 8.8,-0.3 					"/>
				</g>
				<g>
					<polygon fill="#38C5ED" points="38.8,-6.8 39,-9.4 36.2,-8.4 					"/>
				</g>
				<g>
					<polygon fill="#38C5ED" points="25.9,-7.6 24.6,-6 26.8,-4.7 					"/>
				</g>
				<g>
					<polygon fill="#38C5ED" points="-10.1,-15.4 -12,-16.4 -12.7,-13.8 					"/>
				</g>
				<g>
					<polygon fill="#38C5ED" points="2.3,-29.2 0.2,-30.2 -0.1,-27.4 					"/>
				</g>
				<g>
					<polygon fill="#039BB1" points="16.1,-0.5 15.8,-2.2 15,-0.9 					"/>
				</g>
				<g>
					<polygon fill="#B7059A" points="58.6,-1.2 63.1,-4.2 61.1,-7.7 57,-1.5 					"/>
				</g>
				<g>
					<path fill="#F5821F" d="M4.6,43.2l-0.1,0.9H17l-1.2-9.4C15.8,34.6,10.1,39,4.6,43.2z"/>
				</g>
				<g>
					<polygon fill="#F5821F" points="30.2,44.1 51.3,44.1 35.6,39.9 					"/>
				</g>
				<g>
					<path fill="#FAA21C" d="M5.6,34.6l-1.7-1.7l-8.5,11.1h8c0.4-0.3,0.8-0.6,1.2-0.9L5.6,34.6z"/>
				</g>
				<g>
					<path fill="#F5821F" d="M3.3,44.1h1.1l0.1-0.9C4.1,43.5,3.8,43.7,3.3,44.1z"/>
				</g>
				<g>
					<polygon fill="#F9A01C" points="15.8,34.6 17,44.1 30.2,44.1 35.6,39.9 					"/>
				</g>
				<g>
					<polygon fill="#8E002F" points="-19.1,8 -19.1,22 -6.1,13 					"/>
				</g>
				<g>
					<polygon fill="#EE1B39" points="-3.2,14.1 -6.1,13 -19.1,22 -19.1,34.3 -7.6,21.5 					"/>
				</g>
				<g>
					<polygon fill="#F89B1D" points="3.8,32.9 -7.6,21.5 -4.7,44.1 					"/>
				</g>
				<g>
					<polygon fill="#EF474A" points="-7.6,21.5 -19.1,34.3 -19.1,44.1 					"/>
				</g>
				<g>
					<polygon fill="#F58120" points="-4.7,44.1 -7.6,21.5 -19.1,44.1 					"/>
				</g>
				<g>
					<polygon fill="#A20994" points="62.3,-28.6 65.6,-30.5 65.6,-40.6 59.9,-30.6 					"/>
				</g>
				<g>
					<polygon fill="#DB3BBF" points="55.1,-34.5 54.2,-30.4 57.1,-25.6 59.9,-30.6 					"/>
				</g>
				<g>
					<polygon fill="#CF2BAD" points="62.3,-28.6 59.9,-30.6 57.1,-25.6 57.1,-25.6 					"/>
				</g>
				<g>
					<polygon fill="#771F80" points="56.8,-40.6 47.8,-40.6 55.1,-34.5 					"/>
				</g>
				<g>
					<polygon fill="#E26EC2" points="57.1,-25.6 54.2,-30.4 52,-25.5 					"/>
				</g>
				<g>
					<path fill="#D61E41" d="M57.1-25.6L57.1-25.6L57.1-25.6z"/>
				</g>
				<g>
					<polygon fill="#A20994" points="47.5,-35.9 38.7,-35.5 45.6,-28.4 					"/>
				</g>
				<g>
					<polygon fill="#D60EB1" points="54.6,-19.8 55.5,-18.2 57.7,-20 					"/>
				</g>
				<g>
					<polygon fill="#04769F" points="46.2,-22.7 47.1,-21 48.1,-22.6 					"/>
				</g>
				<g>
					<polygon fill="#0181B5" points="38.8,-16.6 29.4,-13.3 38,-12.3 					"/>
				</g>
				<g>
					<polygon fill="#911A92" points="65.6,-22.2 57.1,-14.5 65.6,-16.4 					"/>
				</g>
				<g>
					<polygon fill="#CA50B4" points="57.1,-25.6 57.1,-25.6 60.9,-22.8 65.6,-23.9 65.6,-24.4 					"/>
				</g>
				<g>
					<polygon fill="#920479" points="65.6,-25.7 65.6,-30.5 62.3,-28.6 					"/>
				</g>
				<g>
					<polygon fill="#A20994" points="57.1,-25.6 65.6,-24.4 65.6,-25.7 62.3,-28.6 					"/>
				</g>
				<g>
					<polygon fill="#B92E96" points="59.5,-10.5 57.1,-14.5 48.1,-3.2 					"/>
				</g>
				<g>
					<polygon fill="#ED4456" points="-10.9,-0.6 0,8.8 2.2,-2.5 					"/>
				</g>
				<g>
					<polygon fill="#EF4136" points="3.4,-6.1 -3.3,-11.8 -3.1,-5.9 					"/>
				</g>
				<g>
					<polygon fill="#EF4136" points="7.6,-6.1 9.4,-5.1 9.9,-6.8 					"/>
				</g>
				<g>
					<polygon fill="#D60EB1" points="48.8,-5.9 45.8,-10.2 45,-6.8 					"/>
				</g>
				<g>
					<polygon fill="#38C5ED" points="31.5,-33.7 28.3,-36.2 27.1,-31.9 					"/>
				</g>
				<g>
					<polygon fill="#38C5ED" points="25.9,-27.2 26.3,-25.6 28.3,-26.5 					"/>
				</g>
				<g>
					<polygon fill="#0181B5" points="26,-35.2 22.4,-32.5 26.3,-33.4 					"/>
				</g>
				<g>
					<polygon fill="#D60EB1" points="33.8,-40.5 29.4,-40.6 31.4,-38.5 					"/>
				</g>
				<g>
					<polygon fill="#D61E42" points="2.2,-2.5 0,8.8 9.1,2.9 					"/>
				</g>
				<g>
					<polygon fill="#D61E42" points="-6.1,13 -3.2,14.1 0,8.8 					"/>
				</g>
				<g>
					<polygon fill="#EE1C36" points="-3.2,14.1 13.5,20.5 0,8.8 					"/>
				</g>
				<g>
					<polygon fill="#EE1748" points="-10.9,-0.6 -12.6,-2.1 -12.6,-2.1 -18.4,3 0,8.8 					"/>
				</g>
				<g>
					<polygon fill="#D61E42" points="-12.6,-2.1 -12.6,-2.1 -19.1,-7.7 -19.1,2.8 -18.4,3 					"/>
				</g>
				<g>
					<polygon fill="#EE5A2F" points="13.5,20.5 16.2,13.9 0,8.8 					"/>
				</g>
				<g>
					<polygon fill="#D61E42" points="-19.1,2.8 -19.1,3.5 -18.4,3 					"/>
				</g>
				<g>
					<polygon fill="#E91B3B" points="-18.4,3 -19.1,3.5 -19.1,8 -6.1,13 0,8.8 					"/>
				</g>
				<g>
					<polygon fill="#D61E42" points="-7.9,-8.5 -13.8,-8.3 -12.1,-6.9 					"/>
				</g>
				<g>
					<polygon fill="#D61E42" points="-12.7,-2.2 -10.9,-0.6 -10.9,-0.6 					"/>
				</g>
				<g>
					<polygon fill="#C40F3F" points="-19,-7.6 -12.6,-2.1 -12.6,-2.1 					"/>
				</g>
				<g>
					<polygon fill="#00A8CB" points="40.8,1.7 26.9,-1.3 30.3,9.9 41.1,3 					"/>
				</g>
				<g>
					<polygon fill="#039BB1" points="19.9,4.3 16.2,13.9 26.9,-1.3 					"/>
				</g>
				<g>
					<polygon fill="#01B7D4" points="40.8,1.7 48.1,-3.2 26.9,-1.3 					"/>
				</g>
				<g>
					<polygon fill="#38C5ED" points="26.9,-1.3 48.1,-3.2 35.1,-5.6 					"/>
				</g>
				<g>
					<polygon fill="#058EA4" points="33.1,19.2 43.5,12.1 30.3,9.9 					"/>
				</g>
				<g>
					<polygon fill="#01B7D4" points="30.3,9.9 43.5,12.1 41.1,3 					"/>
				</g>
				<g>
					<polygon fill="#B02C9F" points="65.6,2.8 65.6,0.2 56,5.2 					"/>
				</g>
				<g>
					<polygon fill="#D950B5" points="55.6,0.8 56,5.2 65.6,0.2 					"/>
				</g>
				<g>
					<polygon fill="#6C0570" points="59.9,-30.6 65.6,-40.6 55.4,-34.3 					"/>
				</g>
				<g>
					<polygon fill="#43075E" points="55.1,-34.5 55.4,-34.3 65.6,-40.6 56.8,-40.6 					"/>
				</g>
				<g>
					<polygon fill="#EF4136" points="-8.3,-25.5 -0.7,-25.5 -0.7,-14.9 					"/>
				</g>
				<g>
					<polygon fill="#FCB315" points="-8.3,-25.5 -14.8,-20.6 -4,-19.5 					"/>
				</g>
				<g>
					<polygon fill="#ED1A43" points="0,8.8 16.2,13.9 9.1,2.9 					"/>
				</g>
				<g>
					<polygon fill="#08ACB7" points="9.1,2.9 16.2,13.9 19.9,4.3 					"/>
				</g>
				<g>
					<polygon fill="#01B7D4" points="26.9,-1.3 16.2,13.9 30.3,9.9 					"/>
				</g>
				<g>
					<polygon fill="#01AAB5" points="16.2,13.9 21.4,15.5 30.3,9.9 					"/>
				</g>
				<g>
					<polygon fill="#E26EC2" points="1.5,-27.6 1.8,-26.7 0.8,-27 					"/>
				</g>
			</g>
			<g>
				<path fill="#43075E" d="M2.5-21.4c-0.2,0-0.4,0.1-0.8,0.1s-0.7-0.1-1-0.4c-0.2-0.2-0.4-0.5-0.4-1c0-0.8,0.5-1.3,1.4-1.3
					c0.3,0,0.5,0.1,0.6,0.1l-0.1,0.4c-0.2-0.1-0.3-0.1-0.5-0.1c-0.6,0-1.1,0.4-1.1,1.1c0,0.6,0.4,1.1,1,1.1c0.2,0,0.4,0,0.4-0.1
					v-0.8H1.6v-0.3h0.8L2.5-21.4L2.5-21.4z"/>
				<path fill="#43075E" d="M4.4-22.5h-1v0.9h1.1v0.3H3v-2.6h1.3v0.3h-1v0.8h1V-22.5z"/>
				<path fill="#43075E" d="M7.2-22.7c0,0.9-0.5,1.3-1.2,1.3c-0.7,0-1.2-0.5-1.2-1.3C4.8-23.5,5.4-24,6-24
					C6.7-23.9,7.2-23.4,7.2-22.7z M5.2-22.6c0,0.5,0.3,1.1,0.8,1.1s0.8-0.4,0.8-1.1c0-0.5-0.3-1.1-0.8-1.1S5.2-23.2,5.2-22.6z"/>
				<path fill="#43075E" d="M9.9-22.5c0-0.4,0-0.8,0-1.1l0,0c-0.1,0.3-0.2,0.6-0.4,1l-0.4,1.3H8.8l-0.4-1.3c-0.1-0.4-0.3-0.7-0.3-1
					l0,0c0,0.4,0,0.7-0.1,1.2l-0.1,1.1H7.6l0.2-2.6h0.4l0.4,1.3C8.8-22.3,8.9-22,9-21.8l0,0c0.1-0.3,0.2-0.5,0.3-0.9l0.4-1.3h0.4
					l0.2,2.6H9.9L9.9-22.5z"/>
				<path fill="#43075E" d="M12.2-22.5h-1v0.9h1.1v0.3h-1.4v-2.6h1.3v0.3h-1.1v0.8h1.1V-22.5z"/>
				<path fill="#43075E" d="M13.4-23.7h-0.8v-0.3h1.9v0.3h-0.8v2.3h-0.4L13.4-23.7L13.4-23.7z"/>
				<path fill="#43075E" d="M14.9-23.8c0.2,0,0.4-0.1,0.6-0.1c0.4,0,0.6,0.1,0.7,0.2c0.1,0.1,0.2,0.3,0.2,0.4c0,0.4-0.2,0.5-0.4,0.6
					l0,0c0.2,0.1,0.4,0.3,0.4,0.5c0.1,0.4,0.2,0.6,0.2,0.7h-0.4c0-0.1-0.1-0.3-0.2-0.6c-0.1-0.4-0.2-0.4-0.5-0.5h-0.3v1.1h-0.3
					V-23.8z M15.2-22.7h0.4c0.4,0,0.5-0.2,0.5-0.4c0-0.4-0.3-0.4-0.6-0.4c-0.2,0-0.3,0-0.4,0L15.2-22.7L15.2-22.7z"/>
				<path fill="#43075E" d="M17.3-23.9v2.6H17v-2.6H17.3z"/>
				<path fill="#43075E" d="M19.7-21.4c-0.1,0.1-0.4,0.1-0.7,0.1c-0.7,0-1.3-0.4-1.3-1.3c0-0.8,0.5-1.3,1.3-1.3
					c0.4,0,0.5,0.1,0.6,0.1l-0.1,0.3c-0.1-0.1-0.3-0.1-0.5-0.1c-0.6,0-1,0.4-1,1.1c0,0.6,0.4,1.1,1,1.1c0.2,0,0.4,0,0.5-0.1
					L19.7-21.4z"/>
				<path fill="#43075E" d="M0.5-20.1c0.2,0,0.4-0.1,0.6-0.1c0.4,0,0.5,0.1,0.7,0.2C2-19.9,2-19.7,2-19.5c0,0.3-0.2,0.4-0.4,0.5l0,0
					c0.3,0.1,0.5,0.3,0.5,0.6C2.1-18.2,2-18,2-17.8c-0.2,0.2-0.4,0.3-0.9,0.3c-0.3,0-0.4,0-0.5,0V-20.1z M0.9-19h0.3
					c0.4,0,0.5-0.2,0.5-0.4c0-0.3-0.3-0.4-0.5-0.4c-0.2,0-0.3,0-0.3,0S0.9-19,0.9-19z M0.9-17.7c0.1,0,0.2,0,0.3,0
					c0.4,0,0.6-0.1,0.6-0.5c0-0.4-0.3-0.5-0.6-0.5H0.9V-17.7z"/>
				<path fill="#43075E" d="M3-18.4l-0.3,0.8H2.5l0.9-2.6h0.4l0.9,2.6H4.3L4-18.4H3z M3.9-18.6l-0.3-0.7c-0.1-0.2-0.1-0.4-0.1-0.4
					l0,0c0,0.2-0.1,0.3-0.1,0.4l-0.3,0.7H3.9z"/>
				<path fill="#43075E" d="M6.8-17.6c-0.1,0.1-0.4,0.1-0.7,0.1c-0.7,0-1.3-0.4-1.3-1.3c0-0.8,0.5-1.3,1.3-1.3
					c0.4,0,0.5,0.1,0.6,0.1l-0.1,0.3C6.6-20,6.4-20,6.2-20c-0.6,0-1,0.4-1,1.1c0,0.6,0.4,1.1,1,1.1c0.2,0,0.4,0,0.5-0.1L6.8-17.6z"
					/>
				<path fill="#43075E" d="M7.3-20.1h0.4v1.3l0,0c0.1-0.1,0.2-0.2,0.2-0.3l0.8-1h0.4L8.2-19l1,1.5H8.7l-0.8-1.3l-0.3,0.3v1H7.3
					V-20.1z"/>
				<path fill="#43075E" d="M11.3-17.6c-0.2,0.1-0.4,0.2-0.8,0.2c-0.4,0-0.7-0.1-1-0.4c-0.2-0.2-0.4-0.5-0.4-1
					c0-0.8,0.5-1.3,1.4-1.3c0.3,0,0.5,0.1,0.6,0.1l-0.1,0.3c-0.2-0.1-0.3-0.1-0.5-0.1c-0.6,0-1.1,0.4-1.1,1.1c0,0.6,0.4,1.1,1,1.1
					c0.2,0,0.4,0,0.4-0.1v-0.8h-0.5v-0.3h0.9V-17.6z"/>
				<path fill="#43075E" d="M11.9-20.1c0.2,0,0.4-0.1,0.6-0.1c0.4,0,0.6,0.1,0.7,0.2s0.2,0.3,0.2,0.4c0,0.4-0.2,0.5-0.4,0.6l0,0
					c0.2,0.1,0.4,0.3,0.4,0.5c0.1,0.4,0.2,0.6,0.2,0.7h-0.4c0-0.1-0.1-0.3-0.2-0.6c-0.1-0.4-0.2-0.4-0.5-0.5h-0.3v1.1h-0.4
					L11.9-20.1L11.9-20.1z M12.3-18.9h0.4c0.4,0,0.5-0.2,0.5-0.4c0-0.4-0.3-0.4-0.6-0.4c-0.2,0-0.3,0-0.4,0L12.3-18.9L12.3-18.9z"/>
				<path fill="#43075E" d="M16.2-18.8c0,0.9-0.5,1.3-1.2,1.3c-0.7,0-1.2-0.5-1.2-1.3s0.5-1.3,1.2-1.3
					C15.8-20.2,16.2-19.6,16.2-18.8z M14.3-18.8c0,0.5,0.3,1.1,0.8,1.1s0.8-0.4,0.8-1.1c0-0.5-0.3-1.1-0.8-1.1
					C14.5-19.9,14.3-19.3,14.3-18.8z"/>
				<path fill="#43075E" d="M17.1-20.1v1.5c0,0.5,0.3,0.8,0.6,0.8s0.6-0.3,0.6-0.8v-1.5h0.4v1.5c0,0.8-0.4,1.1-1,1.1
					c-0.5,0-0.9-0.3-0.9-1.1v-1.5H17.1z"/>
				<path fill="#43075E" d="M19.3-17.5v-2.6h0.4l0.8,1.3c0.2,0.3,0.4,0.5,0.4,0.8l0,0c0-0.4,0-0.6,0-1.1v-1.1h0.3v2.6h-0.4L20-18.9
					c-0.2-0.3-0.4-0.5-0.4-0.9l0,0c0,0.4,0,0.6,0,1.1v1.1L19.3-17.5L19.3-17.5z"/>
				<path fill="#43075E" d="M21.9-20.1c0.2,0,0.4-0.1,0.7-0.1c0.4,0,0.8,0.1,1.1,0.4c0.3,0.2,0.4,0.5,0.4,0.9c0,0.4-0.1,0.8-0.4,1
					c-0.3,0.3-0.6,0.4-1.2,0.4c-0.3,0-0.4,0-0.6,0V-20.1z M22.3-17.8c0.1,0,0.2,0,0.4,0c0.7,0,1.1-0.4,1.1-1.1c0-0.6-0.4-1-1.1-1
					c-0.2,0-0.3,0-0.4,0V-17.8z"/>
			</g>
		</g>
	</g>
</g>
<g>
	<path fill="#0B1943" d="M80.2,12.2V5.5h4.9V7h-3.2v1H85v1.5h-3.1v2.6H80.2z"/>
	<path fill="#0B1943" d="M87.5,12.2V5.5h1.7v6.7H87.5z"/>
	<path fill="#0B1943" d="M91.4,11.2l0.9-1.3c0.5,0.5,1.2,0.9,2.1,0.9c0.6,0,1-0.2,1-0.6c0-0.9-3.8-0.2-3.8-2.8c0-1.1,1-2.1,2.7-2.1
		c1.1,0,2,0.3,2.7,0.9l-0.9,1.2c-0.6-0.5-1.3-0.7-2-0.7c-0.5,0-0.7,0.2-0.7,0.5c0,0.9,3.8,0.2,3.8,2.7c0,1.3-1,2.2-2.8,2.2
		C93,12.3,92.1,11.9,91.4,11.2z"/>
	<path fill="#0B1943" d="M99.1,8.8c0-2.1,1.6-3.5,3.6-3.5c1.6,0,2.5,0.9,2.9,1.8l-1.5,0.7c-0.2-0.5-0.8-1-1.4-1
		c-1.1,0-1.9,0.8-1.9,1.9s0.8,1.9,1.9,1.9c0.6,0,1.2-0.4,1.4-1l1.5,0.7c-0.4,0.9-1.3,1.8-2.9,1.8C100.7,12.3,99.1,10.9,99.1,8.8z"/>
	<path fill="#0B1943" d="M112.4,12.2l-0.3-1h-2.6l-0.3,1h-2l2.5-6.7h2.2l2.5,6.7H112.4z M110.7,7.2l-0.9,2.5h1.7L110.7,7.2z"/>
	<path fill="#0B1943" d="M116.3,12.2V5.5h1.7v5.2h2.7v1.5H116.3z"/>
	<path fill="#0B1943" d="M79.7,23.3l0.9-1.3c0.5,0.5,1.2,0.9,2.1,0.9c0.6,0,1-0.2,1-0.6c0-0.9-3.8-0.2-3.8-2.8c0-1.1,1-2.1,2.7-2.1
		c1.1,0,2,0.3,2.7,0.9l-0.9,1.2c-0.6-0.5-1.3-0.7-2-0.7c-0.5,0-0.7,0.2-0.7,0.5c0,0.9,3.8,0.2,3.8,2.7c0,1.4-1,2.2-2.8,2.2
		C81.3,24.4,80.3,24,79.7,23.3z"/>
	<path fill="#0B1943" d="M87.7,24.3v-6.7h4.9v1.5h-3.2v1h3.1v1.5h-3.1v1.1h3.2v1.5H87.7z"/>
	<path fill="#0B1943" d="M96.6,24.3v-5.2h-1.9v-1.5h5.5v1.5h-1.9v5.2H96.6z"/>
	<path fill="#0B1943" d="M104,24.3v-5.2h-1.9v-1.5h5.5v1.5h-1.9v5.2H104z"/>
	<path fill="#0B1943" d="M109.9,24.3v-6.7h1.7v5.2h2.7v1.5H109.9z"/>
	<path fill="#0B1943" d="M116.7,24.3v-6.7h4.9v1.5h-3.2v1h3.1v1.5h-3.1v1.1h3.2v1.5H116.7z"/>
	<path fill="#0B1943" d="M130,24.3v-4.4l-1.7,4.4h-0.8l-1.7-4.4v4.4h-1.7v-6.7h2.4l1.4,3.6l1.4-3.6h2.4v6.7H130z"/>
	<path fill="#0B1943" d="M134.4,24.3v-6.7h4.9v1.5h-3.2v1h3.1v1.5h-3.1v1.1h3.2v1.5H134.4z"/>
	<path fill="#0B1943" d="M146.4,24.3l-2.8-3.9v3.9h-1.7v-6.7h1.8l2.7,3.7v-3.7h1.7v6.7H146.4z"/>
	<path fill="#0B1943" d="M152.3,24.3v-5.2h-1.9v-1.5h5.5v1.5H154v5.2H152.3z"/>
	<path fill="#0B1943" d="M79.7,35.4l0.9-1.3c0.5,0.5,1.2,0.9,2.1,0.9c0.6,0,1-0.2,1-0.6c0-0.9-3.8-0.2-3.8-2.8c0-1.1,1-2.1,2.7-2.1
		c1.1,0,2,0.3,2.7,0.9l-0.9,1.2c-0.6-0.5-1.3-0.7-2-0.7c-0.5,0-0.7,0.2-0.7,0.5c0,0.9,3.8,0.2,3.8,2.7c0,1.4-1,2.2-2.8,2.2
		C81.3,36.5,80.3,36,79.7,35.4z"/>
	<path fill="#0B1943" d="M89.5,36.3v-2.7l-2.5-4h2l1.5,2.5l1.4-2.5h2l-2.5,4v2.7H89.5z"/>
	<path fill="#0B1943" d="M95,35.4l0.9-1.3c0.5,0.5,1.2,0.9,2.1,0.9c0.6,0,1-0.2,1-0.6c0-0.9-3.8-0.2-3.8-2.8c0-1.1,1-2.1,2.7-2.1
		c1.1,0,2,0.3,2.7,0.9l-0.9,1.2c-0.6-0.5-1.3-0.7-2-0.7c-0.5,0-0.7,0.2-0.7,0.5c0,0.9,3.8,0.2,3.8,2.7c0,1.4-1,2.2-2.8,2.2
		C96.6,36.5,95.7,36,95,35.4z"/>
	<path fill="#0B1943" d="M104.4,36.3v-5.2h-1.9v-1.5h5.5v1.5h-1.9v5.2H104.4z"/>
	<path fill="#0B1943" d="M110.3,36.3v-6.7h4.9v1.5H112v1h3.1v1.5H112v1.1h3.2v1.5H110.3z"/>
	<path fill="#0B1943" d="M123.6,36.3V32l-1.7,4.4h-0.8l-1.7-4.4v4.4h-1.7v-6.7h2.4l1.4,3.6l1.4-3.6h2.4v6.7H123.6z"/>
</g>
</svg>
