<?xml version="1.0" encoding="utf-8"?>
<!-- Generator: Adobe Illustrator 18.1.0, SVG Export Plug-In . SVG Version: 6.00 Build 0)  -->
<svg version="1.1" id="Layer_1" xmlns="http://www.w3.org/2000/svg" xmlns:xlink="http://www.w3.org/1999/xlink" x="0px" y="0px"
	 viewBox="0 0 700 700" enable-background="new 0 0 700 700" xml:space="preserve">
<g>
	<path fill="#FFCA00" d="M546.9,596.9c-13.5,0-27.1,0-40.7,0c0-60.4,0-120.7,0-181.9c-4.2-0.2-7.5-0.5-10.8-0.5
		c-23.4,0-46.9,0.3-70.2-0.2c-8.3-0.2-11,2-10.9,10.7c0.4,53.3,0.2,106.6,0.2,160c0,4-0.4,7.9-0.7,12c-80.2,0-160.3,0-240.4,0
		c-10.5-5-13.3-13.5-13.3-24.8c0.4-68.7,0.2-137.4,0.2-206.1c0-3.3,0-6.6,0-10.2c-1.7,0.4-2.7,0.3-3.4,0.8
		c-7.3,4.9-14.9,4.5-21.3-0.9c-7.1-5.9-7-13.3-3.9-21.7c8-21.6,15.9-43.3,22.8-65.3c3.3-10.3,4.9-21.4,5.7-32.3
		c1.1-14.9,6.7-21.6,21.5-21.6c119.2-0.1,238.4-0.1,357.6,0c14.3,0,19.9,6.9,21.2,21.2c1,11.5,2.8,23.1,6.2,34.1
		c7.1,22.9,16,45.2,23.1,68.1c1.5,5,0.5,13.4-2.9,16.6c-3.8,3.6-11.5,3.6-17.6,4.1c-2.6,0.2-5.4-2-9-3.6c0,4.3,0,7.6,0,10.9
		c0,68.7-0.2,137.4,0.2,206.1C560.3,583.4,557.4,591.9,546.9,596.9z M359.5,542c0-42.8,0-84.7,0-126.6c-48.8,0-96.9,0-144.9,0
		c0,42.6,0,84.3,0,126.6C263.1,542,311,542,359.5,542z M336.9,269.4c-1,24.1-2.1,47.3-2.8,70.6c-0.5,17.1,11,29.5,26.3,29.2
		c15.1-0.3,25.9-12.3,25.4-29.1c-0.5-20.9-1.4-41.7-2.3-62.6c-0.1-2.6-0.8-5.2-1.2-8.1C367.3,269.4,353,269.4,336.9,269.4z
		 M260.6,269.6c-4,23.3-8.2,45.9-11.4,68.7c-2.3,16.4,7.7,29.2,23.2,30.7c14.4,1.4,26.6-9.6,28.1-25.6c0.7-7.3,1.3-14.7,1.9-22.1
		c1.4-17.1,2.9-34.1,4.4-51.8C291.1,269.6,276.5,269.6,260.6,269.6z M413.5,269.6c2.1,24.3,4.1,47.8,6.2,71.4
		c0.2,2.8,0.5,5.5,1.1,8.2c3,12.8,15.6,21.6,28.3,19.7c14.1-2.1,24.1-13.6,22.1-28.1c-3.1-23.7-7.5-47.2-11.5-71.2
		C444.3,269.6,429.6,269.6,413.5,269.6z M230.5,269c-13.4,0-26,0.3-38.5-0.1c-6.1-0.2-8.4,2-10,7.8c-5.5,19.8-11.8,39.4-17.5,59.2
		c-4.4,15.4,4.2,29.5,19.8,32.7c14.4,3,28.3-7.5,30.1-22.7c0.6-4.8,1.4-9.8,2.5-14.5C221.2,311.1,225.8,290.7,230.5,269z
		 M490.2,269.1c0.3,2.3,0.4,3.6,0.6,4.7c5.1,25.3,10,50.6,15.4,75.8c2.7,12.8,16.7,21.5,29.7,18.8c14.3-3,24.1-16.3,20.5-30
		c-5.7-21.6-12.5-43.1-19-64.5c-0.6-1.9-3-4.6-4.5-4.6C518.7,269,504.6,269.1,490.2,269.1z"/>
	<path fill="#FFCA00" d="M360.1,195.9c-58,0-115.8,0-173.8,0c-21.8,0-26.3-4.4-26.3-26.7c0-3.4-0.1-6.8,0.1-10.1
		c0.7-10,7.2-16.3,17.2-17c2.8-0.2,5.5-0.1,8.3-0.1c116.1,0,232.3,0,348.4,0c20.9,0,25.8,4.8,25.8,25.3c0,3.1,0.1,6.2,0,9.3
		c-0.4,12.8-6.7,19.2-19.6,19.3c-21.8,0.2-43.8,0.1-65.6,0.1C436.5,195.9,398.4,195.9,360.1,195.9z"/>
</g>
</svg>
