<?xml version="1.0" encoding="utf-8"?>
<!-- Generator: Adobe Illustrator 18.1.0, SVG Export Plug-In . SVG Version: 6.00 Build 0)  -->
<svg version="1.1" id="Layer_1" xmlns="http://www.w3.org/2000/svg" xmlns:xlink="http://www.w3.org/1999/xlink" x="0px" y="0px"
	 viewBox="0 0 700 700" enable-background="new 0 0 700 700" xml:space="preserve">
<g>
	<path fill="#83C016" d="M533.7,591.9c-12.6,0-25.2,0-37.8,0c0-56.1,0-112.2,0-169.1c-3.9-0.2-7-0.4-10.1-0.4
		c-21.7,0-43.6,0.3-65.3-0.2c-7.7-0.2-10.2,1.9-10.1,10c0.4,49.6,0.2,99.1,0.2,148.7c0,3.7-0.4,7.4-0.6,11.1c-74.5,0-149,0-223.5,0
		c-9.8-4.7-12.4-12.6-12.4-23.1c0.4-63.9,0.2-127.7,0.2-191.6c0-3.1,0-6.1,0-9.5c-1.6,0.4-2.5,0.3-3.1,0.7
		c-6.8,4.6-13.8,4.2-19.8-0.8c-6.6-5.5-6.5-12.4-3.6-20.2c7.5-20.1,14.8-40.2,21.2-60.7c3.1-9.6,4.6-19.9,5.3-30
		c1-13.8,6.2-20.1,20-20.1c110.8-0.1,221.6-0.1,332.5,0c13.3,0,18.5,6.4,19.7,19.7c0.9,10.7,2.6,21.5,5.7,31.7
		c6.6,21.3,14.9,42,21.5,63.3c1.4,4.7,0.4,12.5-2.7,15.4c-3.5,3.3-10.7,3.3-16.3,3.8c-2.4,0.2-5-1.9-8.4-3.3c0,4,0,7.1,0,10.1
		c0,63.9-0.2,127.7,0.2,191.6C546.2,579.3,543.5,587.2,533.7,591.9z M359.6,540.9c0-39.8,0-78.8,0-117.7c-45.4,0-90.1,0-134.7,0
		c0,39.6,0,78.4,0,117.7C269.9,540.9,314.4,540.9,359.6,540.9z M338.6,287.5c-0.9,22.4-2,44-2.6,65.7c-0.4,15.9,10.2,27.4,24.4,27.1
		c14-0.3,24.1-11.4,23.6-27c-0.4-19.4-1.3-38.8-2.2-58.2c-0.1-2.4-0.7-4.8-1.1-7.5C366.8,287.5,353.5,287.5,338.6,287.5z
		 M267.6,287.6c-3.7,21.6-7.6,42.7-10.6,63.9c-2.2,15.3,7.2,27.1,21.6,28.6c13.4,1.3,24.7-8.9,26.1-23.8c0.6-6.8,1.2-13.7,1.8-20.6
		c1.3-15.9,2.7-31.7,4.1-48.1C295.9,287.6,282.3,287.6,267.6,287.6z M409.7,287.6c2,22.6,3.8,44.5,5.7,66.4c0.2,2.6,0.4,5.1,1,7.6
		c2.8,11.9,14.5,20.1,26.3,18.3c13.1-2,22.4-12.7,20.6-26.1c-2.9-22-7-43.9-10.7-66.2C438.3,287.6,424.7,287.6,409.7,287.6z
		 M239.6,287.1c-12.5,0-24.2,0.3-35.8-0.1c-5.7-0.2-7.8,1.9-9.3,7.3c-5.1,18.4-11,36.6-16.3,55.1c-4.1,14.3,3.9,27.4,18.4,30.4
		c13.4,2.8,26.3-7,28-21.1c0.5-4.5,1.3-9.1,2.3-13.5C231,326.2,235.2,307.2,239.6,287.1z M481,287.2c0.3,2.2,0.4,3.3,0.5,4.4
		c4.8,23.5,9.3,47.1,14.3,70.5c2.5,11.9,15.5,20,27.6,17.5c13.3-2.8,22.4-15.2,19-27.9c-5.3-20.1-11.6-40.1-17.7-60
		c-0.5-1.8-2.8-4.3-4.2-4.3C507.5,287.1,494.4,287.2,481,287.2z"/>
	<path fill="#83C016" d="M360.1,219.1c-53.9,0-107.7,0-161.6,0c-20.3,0-24.4-4.1-24.4-24.8c0-3.1-0.1-6.3,0.1-9.4
		c0.6-9.3,6.7-15.2,16-15.8c2.6-0.2,5.1-0.1,7.7-0.1c108,0,216,0,323.9,0c19.4,0,24,4.5,24,23.5c0,2.9,0.1,5.7,0,8.6
		c-0.4,11.9-6.2,17.9-18.2,18c-20.3,0.2-40.7,0.1-61,0.1C431.2,219.1,395.7,219.1,360.1,219.1z"/>
</g>
</svg>
