<?xml version="1.0" encoding="utf-8"?>
<!-- Generator: Adobe Illustrator 18.1.0, SVG Export Plug-In . SVG Version: 6.00 Build 0)  -->
<svg version="1.1" id="Layer_1" xmlns="http://www.w3.org/2000/svg" xmlns:xlink="http://www.w3.org/1999/xlink" x="0px" y="0px"
	 viewBox="0 0 200 200" enable-background="new 0 0 200 200" xml:space="preserve">
<g>
	<g>
		<rect x="35.4" y="132.8" fill="#FFFFFF" width="22.1" height="29.4"/>
	</g>
	<g>
		<rect x="148.5" y="132.8" fill="#FFFFFF" width="22.1" height="29.4"/>
	</g>
	<path fill="#FFFFFF" d="M146.8,127.7c-5.8-0.9-21.4-2.3-43.9-2.3c-22.5,0-38.1,1.4-43.9,2.3v34.5h87.7V127.7z"/>
	<path fill="#FFFFFF" d="M103,123.7c15.4,0,27.6,0.7,35.7,1.4V124v-20.1l-10.2-2.2V91.6l-3.4-3.4V81c0-5.3-5.8-14.9-15.2-18.2V51.3
		c0-1.1-3-2.9-5.5-3.5v-8.4c0-0.9-0.7-1.6-1.6-1.6c-0.9,0-1.6,0.7-1.6,1.6v8.4c-2.4,0.6-5.3,2.3-5.3,3.4v11.5
		c-9.3,3.3-15.2,13-15.2,18.2v7.2l-3.4,3.4v10.1l-10.2,2.2V124v1.1C75.4,124.4,87.6,123.7,103,123.7z"/>
</g>
</svg>
