<?xml version="1.0" encoding="utf-8"?>
<!-- Generator: Adobe Illustrator 18.1.0, SVG Export Plug-In . SVG Version: 6.00 Build 0)  -->
<svg version="1.1" id="Layer_1" xmlns="http://www.w3.org/2000/svg" xmlns:xlink="http://www.w3.org/1999/xlink" x="0px" y="0px"
	 viewBox="0 0 200 200" enable-background="new 0 0 200 200" xml:space="preserve">
<g>
	<path fill="#FFFFFF" d="M117.6,105.1H82.7c-8.1,0-14.6-6.6-14.6-14.6V55.6c0-8,6.6-14.6,14.6-14.6h34.9c8.1,0,14.6,6.5,14.6,14.6
		v29.7c0,0.9-0.5,1.7-1.2,2.1c-0.8,0.4-1.7,0.3-2.4-0.1L92.4,63v26h-2V62.9c0-0.8,0.4-1.4,1.1-1.7s1.4-0.2,2,0.2l36.2,24.3
		c0.1,0.1,0.3,0.1,0.4,0s0.2-0.2,0.2-0.3V55.7c0-7-5.7-12.6-12.6-12.6h-35c-6.9,0-12.6,5.7-12.6,12.6v34.8c0,6.9,5.7,12.6,12.6,12.6
		h34.9c5.6,0,10.5-3.7,12.1-9.1l1.9,0.6C129.8,100.8,124.1,105.1,117.6,105.1z"/>
</g>
<g>
	<path fill="#FFFFFF" d="M11.3,139.2v-15.5h1.4l9.1,12.9H22v-12.9h1.5v15.5H22l-9.1-12.9h-0.1v12.9L11.3,139.2L11.3,139.2z"/>
	<path fill="#FFFFFF" d="M35.6,139.2h-9.3v-15.5h9.3v1.3h-7.9v5.6h7.5v1.3h-7.5v5.9h7.9C35.6,137.9,35.6,139.2,35.6,139.2z"/>
	<path fill="#FFFFFF" d="M42.2,139.2V125H37v-1.3h11.9v1.3h-5.2v14.1L42.2,139.2L42.2,139.2z"/>
	<path fill="#FFFFFF" d="M63.2,131.4c0,4.9-2.7,8-7,8s-7-3.1-7-8s2.7-8,7-8S63.2,126.6,63.2,131.4z M50.6,131.4
		c0,4.1,2.2,6.6,5.5,6.6c3.4,0,5.5-2.6,5.5-6.6c0-4.1-2.2-6.7-5.5-6.7S50.6,127.3,50.6,131.4z"/>
	<path fill="#FFFFFF" d="M71,123.7c2.9,0,4.9,1.9,4.9,4.8c0,2.9-2.1,4.9-5,4.9h-4.1v5.9h-1.4v-15.5L71,123.7L71,123.7z M66.9,132.1
		h3.7c2.4,0,3.8-1.3,3.8-3.5s-1.4-3.5-3.8-3.5h-3.7V132.1z"/>
	<path fill="#FFFFFF" d="M85.2,134.4h-6.5l-1.7,4.8h-1.6l5.8-15.5h1.4l5.8,15.5H87L85.2,134.4z M79.2,133.1h5.7l-2.8-7.7H82
		L79.2,133.1z"/>
	<path fill="#FFFFFF" d="M92.6,139.2v-6.7l-5.6-8.8h1.7l4.6,7.4h0.1l4.6-7.3h1.7l-5.6,8.8v6.7L92.6,139.2L92.6,139.2z"/>
	<path fill="#FFFFFF" d="M106.2,139.2v-15.5h9.2v1.3h-7.8v5.8h7.1v1.3h-7.1v7.1L106.2,139.2L106.2,139.2z"/>
	<path fill="#FFFFFF" d="M117.6,139.2v-15.5h1.4v15.5H117.6z"/>
	<path fill="#FFFFFF" d="M121.9,139.2v-15.5h1.4l9.1,12.9h0.1v-12.9h1.4v15.5h-1.4l-9.1-12.9h-0.1v12.9L121.9,139.2L121.9,139.2z"/>
	<path fill="#FFFFFF" d="M145.4,134.4h-6.5l-1.7,4.8h-1.6l5.8-15.5h1.4l5.8,15.5H147L145.4,134.4z M139.4,133.1h5.6l-2.8-7.7h-0.1
		L139.4,133.1z"/>
	<path fill="#FFFFFF" d="M150.4,139.2v-15.5h1.4l9.1,12.9h0.1v-12.9h1.4v15.5H161l-9.1-12.9h-0.1v12.9L150.4,139.2L150.4,139.2z"/>
	<path fill="#FFFFFF" d="M164.8,131.4c0-4.8,2.7-7.9,6.9-7.9c3.3,0,5.9,2.2,6.3,5.1h-1.4c-0.4-2.2-2.4-3.8-4.8-3.8
		c-3.3,0-5.4,2.6-5.4,6.6c0,4.1,2.1,6.6,5.4,6.6c2.4,0,4.4-1.3,4.8-3.4h1.4c-0.6,3-2.9,4.9-6.3,4.9
		C167.4,139.4,164.8,136.3,164.8,131.4z"/>
	<path fill="#FFFFFF" d="M189.4,139.2H180v-15.5h9.4v1.3h-7.9v5.6h7.5v1.3h-7.5v5.9h7.9V139.2z"/>
</g>
<g>
	<path fill="#FFFFFF" d="M14.4,146.8c1.2,0,2.1,0.8,2.1,2.1c0,1.2-0.9,2.1-2.1,2.1h-1.5v2.2h-1v-6.3H14.4z M12.9,150.2h1.2
		c0.9,0,1.3-0.5,1.3-1.3s-0.5-1.3-1.3-1.3h-1.2V150.2z"/>
	<path fill="#FFFFFF" d="M21.5,153.2h-4v-6.3h4v0.8h-3v1.9h2.9v0.8h-2.9v2h3V153.2z"/>
	<path fill="#FFFFFF" d="M22.6,153.2v-6.3h3.9v0.9h-2.9v5.5H22.6z"/>
	<path fill="#FFFFFF" d="M27.4,153.2v-6.3h1v6.3H27.4z"/>
	<path fill="#FFFFFF" d="M35.5,150c0,2-1.1,3.3-3,3.3c-1.8,0-3-1.3-3-3.3c0-2,1.1-3.3,3-3.3C34.3,146.7,35.5,148,35.5,150z
		 M30.5,150c0,1.5,0.8,2.4,2,2.4s2-0.9,2-2.4c0-1.5-0.8-2.4-2-2.4S30.5,148.5,30.5,150z"/>
	<path fill="#FFFFFF" d="M40.7,153.2v-2.8h-3.3v2.8h-1v-6.3h1v2.7h3.3v-2.7h1v6.3H40.7z"/>
	<path fill="#FFFFFF" d="M46.6,151.5h-2.4l-0.6,1.7h-1l2.3-6.3h1.1l2.3,6.3h-1L46.6,151.5z M44.4,150.7h1.9l-0.9-2.8h0L44.4,150.7z"
		/>
	<path fill="#FFFFFF" d="M53,153.2v-5.5h-2.1l-0.2,3.1c-0.1,1.7-0.6,2.5-1.7,2.5c-0.1,0-0.3,0-0.4,0v-0.9c0.1,0,0.2,0,0.3,0
		c0.6,0,0.8-0.5,0.9-1.6l0.2-3.9h4v6.3H53z"/>
	<path fill="#FFFFFF" d="M55.2,146.8h1v2.3h1.4c1.2,0,2.1,0.8,2.1,2c0,1.2-0.9,2-2.1,2h-2.4V146.8z M57.4,152.3
		c0.9,0,1.3-0.4,1.3-1.2c0-0.8-0.5-1.2-1.3-1.2h-1.2v2.4H57.4z"/>
	<path fill="#FFFFFF" d="M65,153.2v-2.8h-3.3v2.8h-1v-6.3h1v2.7H65v-2.7h1v6.3H65z"/>
	<path fill="#FFFFFF" d="M70.8,151.5h-2.4l-0.6,1.7h-1l2.3-6.3h1.1l2.3,6.3h-1L70.8,151.5z M68.6,150.7h1.9l-0.9-2.8h0L68.6,150.7z"
		/>
	<path fill="#FFFFFF" d="M75,150c0-1.6,1.1-2.6,2.8-2.6v-0.6h1v0.6c1.7,0,2.8,1,2.8,2.6c0,1.6-1.1,2.6-2.8,2.6v0.7h-1v-0.7
		C76.1,152.6,75,151.6,75,150z M77.9,148.2c-1.1,0-1.9,0.7-1.9,1.8c0,1.1,0.7,1.7,1.9,1.8V148.2z M78.8,148.2v3.6
		c1.1,0,1.9-0.7,1.9-1.8C80.7,148.9,80,148.2,78.8,148.2z"/>
	<path fill="#FFFFFF" d="M82.7,153.2v-6.3h1v6.3H82.7z"/>
	<path fill="#FFFFFF" d="M89.2,153.2v-2.8H86v2.8h-1v-6.3h1v2.7h3.3v-2.7h1v6.3H89.2z"/>
	<path fill="#FFFFFF" d="M95.1,151.5h-2.4l-0.6,1.7h-1l2.3-6.3h1.1l2.3,6.3h-1L95.1,151.5z M92.9,150.7h1.9l-0.9-2.8h0L92.9,150.7z"
		/>
	<path fill="#FFFFFF" d="M101.7,153.2v-2.8h-3.3v2.8h-1v-6.3h1v2.7h3.3v-2.7h1v6.3H101.7z"/>
	<path fill="#FFFFFF" d="M103.8,150c0-2,1.1-3.3,2.9-3.3c1.4,0,2.5,0.8,2.7,2.1h-1c-0.2-0.8-0.9-1.2-1.7-1.2c-1.2,0-1.9,0.9-1.9,2.4
		c0,1.5,0.7,2.4,1.9,2.4c0.8,0,1.5-0.4,1.7-1.1h1c-0.3,1.3-1.3,2-2.7,2C104.9,153.3,103.8,152,103.8,150z"/>
	<path fill="#FFFFFF" d="M116,150c0,2-1.1,3.3-3,3.3c-1.8,0-3-1.3-3-3.3c0-2,1.1-3.3,3-3.3C114.9,146.7,116,148,116,150z M111.1,150
		c0,1.5,0.8,2.4,2,2.4c1.2,0,2-0.9,2-2.4c0-1.5-0.8-2.4-2-2.4C111.9,147.6,111.1,148.5,111.1,150z"/>
	<path fill="#FFFFFF" d="M117.1,153.2v-6.3h2.6c1.1,0,1.9,0.6,1.9,1.6c0,0.7-0.5,1.3-1.1,1.4v0c0.9,0.1,1.4,0.7,1.4,1.6
		c0,1.1-0.8,1.8-2.2,1.8H117.1z M118.1,149.5h1.2c0.9,0,1.3-0.4,1.3-1c0-0.6-0.4-0.9-1.1-0.9h-1.4V149.5z M119.5,152.4
		c0.9,0,1.4-0.4,1.4-1s-0.5-1-1.4-1h-1.4v2.1H119.5z"/>
	<path fill="#FFFFFF" d="M126.3,151.5h-2.4l-0.6,1.7h-1l2.3-6.3h1.1l2.3,6.3h-1L126.3,151.5z M124.2,150.7h1.9l-0.9-2.8h0
		L124.2,150.7z"/>
	<path fill="#FFFFFF" d="M134.8,153.2h-4v-6.3h4v0.8h-3v1.9h2.9v0.8h-2.9v2h3V153.2z"/>
	<path fill="#FFFFFF" d="M141,153.2h-1.3l-2.7-3h0v3h-1v-6.3h1v2.8h0l2.6-2.8h1.2l-2.8,3L141,153.2z"/>
	<path fill="#FFFFFF" d="M147.2,150c0,2-1.1,3.3-3,3.3c-1.8,0-3-1.3-3-3.3c0-2,1.1-3.3,3-3.3C146,146.7,147.2,148,147.2,150z
		 M142.3,150c0,1.5,0.8,2.4,2,2.4c1.2,0,2-0.9,2-2.4c0-1.5-0.8-2.4-2-2.4C143,147.6,142.3,148.5,142.3,150z"/>
	<path fill="#FFFFFF" d="M148,150c0-2,1.1-3.3,2.9-3.3c1.4,0,2.5,0.8,2.7,2.1h-1c-0.2-0.8-0.9-1.2-1.7-1.2c-1.2,0-1.9,0.9-1.9,2.4
		c0,1.5,0.7,2.4,1.9,2.4c0.8,0,1.5-0.4,1.7-1.1h1c-0.3,1.3-1.3,2-2.7,2C149.1,153.3,148,152,148,150z"/>
	<path fill="#FFFFFF" d="M158.8,148.4L158.8,148.4l-3.3,4.8h-1v-6.3h1v4.8h0.1l3.2-4.8h1v6.3h-1V148.4z"/>
	<path fill="#FFFFFF" d="M160.9,150c0-2,1.1-3.3,2.9-3.3c1.4,0,2.5,0.8,2.7,2.1h-1c-0.2-0.8-0.9-1.2-1.7-1.2c-1.2,0-1.9,0.9-1.9,2.4
		c0,1.5,0.7,2.4,1.9,2.4c0.8,0,1.5-0.4,1.7-1.1h1c-0.3,1.3-1.3,2-2.7,2C162,153.3,160.9,152,160.9,150z"/>
	<path fill="#FFFFFF" d="M168.7,153.2v-5.5h-2v-0.8h4.9v0.8h-2v5.5H168.7z"/>
	<path fill="#FFFFFF" d="M176.6,153.2h-4v-6.3h4v0.8h-3v1.9h2.9v0.8h-2.9v2h3V153.2z"/>
	<path fill="#FFFFFF" d="M184.2,153.2h-0.9v-4.7h0l-1.9,4.6h-0.7l-1.9-4.6h0v4.7h-0.9v-6.3h1.1l2.1,5h0l2-5h1.1V153.2z"/>
	<path fill="#FFFFFF" d="M189,151.5h-2.4l-0.6,1.7h-1l2.3-6.3h1.1l2.3,6.3h-1L189,151.5z M186.8,150.7h1.9l-0.9-2.8h0L186.8,150.7z"
		/>
</g>
<text transform="matrix(1 0 0 1 208.6499 153.181)" font-family="'SFUIDisplay-Medium'" font-size="9">РЕГІОНАЛЬНА ФІНАНСОВА ЕКОСИСТЕМА</text>
</svg>
