<?xml version="1.0" encoding="utf-8"?>
<!-- Generator: Adobe Illustrator 18.1.0, SVG Export Plug-In . SVG Version: 6.00 Build 0)  -->
<svg version="1.1" id="Layer_1" xmlns="http://www.w3.org/2000/svg" xmlns:xlink="http://www.w3.org/1999/xlink" x="0px" y="0px"
	 viewBox="0 0 850 180" enable-background="new 0 0 850 180" xml:space="preserve">
<path fill="#354459" d="M56.9,0.1c0.8-0.4,1.1,0.8,1.5,1.1C70.6,24.4,82.8,48,91.2,73.2c0.8,1.9,1.1,3.8,1.9,6.1
	c2.7,8,1.5,15.6-2.7,22.5c-13.3,22.1-30.4,38.8-55.6,46.8c-2.7,0.8-5.3,1.5-8.4,1.1C59.6,104.7,63,53.4,56.9,0.1z"/>
<path fill="#354459" d="M48.2,92.9C38.7,70.5,23,52.6,7.1,35.1c1.1-0.4,2.3-0.4,3.4,0.4c13.3,5.7,26.6,11.8,39.6,17.9
	c2.3,1.1,3.8,2.7,3.8,5.3C53.9,70.1,52.7,81.5,48.2,92.9z"/>
<path fill="#354459" d="M98.8,80.8c-3-7.6-5.7-14.5-8.4-21.3c-0.8-1.9,0.4-2.3,1.5-3.4c5.7-4.9,12.2-6.1,19.4-4.2
	c4.2,1.1,7.6,2.7,11.4,5.7C109.8,60.2,102.6,68.2,98.8,80.8z"/>
<g>
	<path fill="#C4C4C4" d="M216.6-692.9c1.9-0.9,2.8,1.9,3.8,2.8c30.2,57.6,60.4,116.1,81.2,178.4c1.9,4.7,2.8,9.4,4.7,15.1
		c6.6,19.8,3.8,38.7-6.6,55.7c-33,54.7-75.5,96.3-137.8,116.1c-6.6,1.9-13.2,3.8-20.8,2.8C223.2-433.4,231.7-560.8,216.6-692.9z"/>
	<path fill="#C4C4C4" d="M194.9-462.6c-23.6-55.7-62.3-100-101.9-143.4c2.8-0.9,5.7-0.9,8.5,0.9c33,14.2,66.1,29.3,98.1,44.4
		c5.7,2.8,9.4,6.6,9.4,13.2C209.1-519.2,206.2-490.9,194.9-462.6z"/>
	<path fill="#C4C4C4" d="M320.4-492.8c-7.5-18.9-14.2-35.9-20.8-52.8c-1.9-4.7,0.9-5.7,3.8-8.5c14.2-12.3,30.2-15.1,48.1-10.4
		c10.4,2.8,18.9,6.6,28.3,14.2C347.8-543.8,329.9-524,320.4-492.8z"/>
</g>
<g>
	<path fill="#354459" d="M134.9,126.3l8.9-67.3h13.7l23.4,39.1h0.4l5.2-39.1h16.2l-8.9,67.3h-13.5l-23.5-39.5h-0.4l-5.2,39.5H134.9z
		"/>
	<path fill="#354459" d="M205.1,118.2c0.6-4.8,5-8.7,9.8-8.7c4.9,0,8.2,3.9,7.5,8.7c-0.6,4.8-5,8.7-9.8,8.7
		C207.8,126.9,204.4,123,205.1,118.2z"/>
	<path fill="#354459" d="M231.6,126.3l8.9-67.3h17.1l-3.9,29.6h0.4L280.9,59h18.4l-27.4,29.9l19.9,37.4h-20.1L258,100l-6.7,7.3
		l-2.5,19H231.6z"/>
	<path fill="#354459" d="M314.1,126.3H297l8.9-67.3h28.9c16.8,0,24.7,8.3,22.9,22.2c-1.1,8.3-6.2,15.8-14,19l10,26.1h-19.2
		l-8.4-23.6h-8.9L314.1,126.3z M318.8,91h10.1c6.3,0,10.5-3.7,11.3-9.5c0.8-5.7-2.7-9.6-8.8-9.6h-10.1L318.8,91z"/>
	<path fill="#354459" d="M402.3,111.5h-22l-6.3,14.8h-17.4L388.1,59h20.9l13.7,67.3h-18.2L402.3,111.5z M385.2,99.2h15.3l-4-25.9
		h-0.4L385.2,99.2z"/>
	<path fill="#354459" d="M436,126.3l7.1-53.5h-18.7l1.8-13.8h54.4l-1.8,13.8h-18.7l-7.1,53.5H436z"/>
</g>
</svg>
