<?xml version="1.0" encoding="utf-8"?>
<!-- Generator: Adobe Illustrator 18.1.0, SVG Export Plug-In . SVG Version: 6.00 Build 0)  -->
<svg version="1.1" xmlns="http://www.w3.org/2000/svg" xmlns:xlink="http://www.w3.org/1999/xlink" x="0px" y="0px"
	 viewBox="0 0 1000 500" enable-background="new 0 0 1000 500" xml:space="preserve">
<g id="Layer_1" display="none">
	<path display="inline" fill="#C7C7C7" d="M964.2,494.9h-931c-1,0-1.9-0.8-1.9-1.9V2.5c0-1,0.8-1.9,1.9-1.9h931c1,0,1.9,0.8,1.9,1.9
		V493C966.1,494.1,965.2,494.9,964.2,494.9z"/>
	<path display="inline" fill="#C7C7C7" d="M990.7,497.9H6.6c-3.6,0-6.6-2.9-6.6-6.6v0c0-3.6,2.9-6.6,6.6-6.6h984.2
		c3.6,0,6.6,2.9,6.6,6.6v0C997.3,495,994.3,497.9,990.7,497.9z"/>
	<rect x="35.5" y="5.6" display="inline" fill="#FF5847" width="925.5" height="477.7"/>
	<polygon display="inline" opacity="0.85" fill="#EEFF04" points="960.9,459.7 826.8,259.8 694.5,326.4 568.3,441.3 152.9,478.1 
		35.5,416.7 35.5,483.3 960.9,483.3 	"/>
	<polygon display="inline" opacity="0.85" fill="#00CBCD" points="35.5,438.6 430.7,373.8 563.9,305.4 697.1,351 825.1,450.9 
		960.9,419.3 960.9,483.3 35.5,483.3 	"/>
	<polygon display="inline" opacity="0.85" fill="#D6D6D6" points="35.5,461.8 166.9,392.6 300.1,418.9 564.8,371.6 698.9,439.1 
		828.6,461.8 960.9,450.5 960.9,483.8 35.5,483.8 	"/>
</g>
<g id="Layer_2">
	<text transform="matrix(1 0 0 1 134.9244 352.0217)" font-family="'Aileron-Bold'" font-size="272.3089">Hello!</text>
</g>
</svg>
