<?xml version="1.0" encoding="utf-8"?>
<!-- Generator: Adobe Illustrator 18.1.0, SVG Export Plug-In . SVG Version: 6.00 Build 0)  -->
<svg version="1.1" id="Layer_1" xmlns="http://www.w3.org/2000/svg" xmlns:xlink="http://www.w3.org/1999/xlink" x="0px" y="0px"
	 viewBox="0 0 850 180" enable-background="new 0 0 850 180" xml:space="preserve">
<g>
	<path fill="#C4C4C4" d="M216.6-692.9c1.9-0.9,2.8,1.9,3.8,2.8c30.2,57.6,60.4,116.1,81.2,178.4c1.9,4.7,2.8,9.4,4.7,15.1
		c6.6,19.8,3.8,38.7-6.6,55.7c-33,54.7-75.5,96.3-137.8,116.1c-6.6,1.9-13.2,3.8-20.8,2.8C223.2-433.4,231.7-560.8,216.6-692.9z"/>
	<path fill="#C4C4C4" d="M194.9-462.6c-23.6-55.7-62.3-100-101.9-143.4c2.8-0.9,5.7-0.9,8.5,0.9c33,14.2,66.1,29.3,98.1,44.4
		c5.7,2.8,9.4,6.6,9.4,13.2C209.1-519.2,206.2-490.9,194.9-462.6z"/>
	<path fill="#C4C4C4" d="M320.4-492.8c-7.5-18.9-14.2-35.9-20.8-52.8c-1.9-4.7,0.9-5.7,3.8-8.5c14.2-12.3,30.2-15.1,48.1-10.4
		c10.4,2.8,18.9,6.6,28.3,14.2C347.8-543.8,329.9-524,320.4-492.8z"/>
</g>
<g>
	<path fill="#2E3F58" d="M53.4,6.2c0.7-0.4,1,0.7,1.4,1C66,28.6,77.3,50.3,85,73.5c0.7,1.7,1,3.5,1.7,5.6c2.5,7.4,1.4,14.4-2.5,20.7
		c-12.2,20.3-28,35.7-51.2,43.1c-2.5,0.7-4.9,1.4-7.7,1C55.9,102.4,59,55.2,53.4,6.2z"/>
	<path fill="#90B95B" d="M45.4,91.6C36.7,71,22.2,54.5,7.6,38.4c1-0.4,2.1-0.4,3.1,0.4C23,44,35.2,49.6,47.2,55.2
		c2.1,1,3.5,2.5,3.5,4.9C50.7,70.6,49.6,81.1,45.4,91.6z"/>
	<path fill="#90B95B" d="M92,80.5c-2.8-7-5.2-13.3-7.7-19.6c-0.7-1.7,0.4-2.1,1.4-3.1c5.2-4.5,11.2-5.6,17.9-3.9
		c3.9,1,7,2.5,10.5,5.2C102.1,61.5,95.5,68.9,92,80.5z"/>
	<path fill="#2E3F58" d="M125.2,122.3l8.2-61.9H146l21.5,36h0.4l4.8-36h14.9l-8.2,61.9H167L145.3,86H145l-4.8,36.3H125.2z"/>
	<path fill="#2E3F58" d="M189.8,114.9c0.6-4.4,4.6-8,9-8c4.5,0,7.5,3.6,6.9,8c-0.6,4.4-4.6,8-9,8S189.1,119.3,189.8,114.9z"/>
	<path fill="#2E3F58" d="M214.2,122.3l8.2-61.9h15.7l-3.6,27.2h0.4l24.7-27.2h16.9l-25.2,27.5l18.3,34.4h-18.5l-12.6-24.2l-6.2,6.7
		l-2.3,17.5H214.2z"/>
	<path fill="#2E3F58" d="M290.1,122.3h-15.7l8.2-61.9h26.6c15.5,0,22.7,7.6,21.1,20.4c-1,7.6-5.7,14.5-12.9,17.5l9.2,24h-17.7
		l-7.7-21.7h-8.2L290.1,122.3z M294.4,89.8h9.3c5.8,0,9.7-3.4,10.4-8.7c0.7-5.2-2.5-8.8-8.1-8.8h-9.3L294.4,89.8z"/>
	<path fill="#2E3F58" d="M371.2,108.7H351l-5.8,13.6h-16l29-61.9h19.2l12.6,61.9h-16.7L371.2,108.7z M355.5,97.4h14.1l-3.7-23.8
		h-0.4L355.5,97.4z"/>
	<path fill="#2E3F58" d="M402.2,122.3l6.5-49.2h-17.2l1.7-12.7h50.1l-1.7,12.7h-17.2l-6.5,49.2H402.2z"/>
</g>
</svg>
