<?xml version="1.0" encoding="utf-8"?>
<!-- Generator: Adobe Illustrator 18.1.0, SVG Export Plug-In . SVG Version: 6.00 Build 0)  -->
<svg version="1.1" id="Layer_2" xmlns="http://www.w3.org/2000/svg" xmlns:xlink="http://www.w3.org/1999/xlink" x="0px" y="0px"
	 viewBox="0 0 430 250" enable-background="new 0 0 430 250" xml:space="preserve">
<g>
	<path fill="#FFFFFF" d="M261.8,47.7l3.3-31.7h30.3v8.3H273l-1.7,14.4c1.1-0.8,2.4-1.5,3.9-2.1c1.5-0.5,3.2-0.8,5-0.9
		c5.4-0.1,9.6,1.7,12.6,5.1c3,3.5,4.6,8.2,4.6,14.2c0,5.6-1.6,10.2-4.8,13.8c-3.2,3.6-7.8,5.4-13.9,5.4c-5,0-9.3-1.4-12.8-4.2
		c-3.5-2.8-5.1-6.7-5-11.8L261,58l8.9-0.3c0,2.8,0.8,4.9,2.4,6.5c1.6,1.5,3.7,2.3,6.3,2.3c3,0,5.2-1,6.8-3.1s2.3-4.8,2.3-8.3
		c0-3.5-0.8-6.3-2.4-8.4c-1.6-2.2-3.9-3.2-6.8-3.2c-2.6,0-4.6,0.4-5.8,1.3s-2.2,2.1-2.8,3.7L261.8,47.7z"/>
	<path fill="#FFFFFF" d="M343.1,51.3c0,7.4-1.7,13.1-5,17c-3.4,3.9-7.9,5.9-13.7,5.9c-5.8,0-10.4-2-13.8-5.9
		c-3.4-3.9-5.1-9.6-5.1-17V38.2c0-7.4,1.7-13.1,5-17c3.4-3.9,7.9-5.9,13.7-5.9c5.8,0,10.3,2,13.7,5.9c3.4,3.9,5.1,9.6,5.1,17V51.3z
		 M333.5,36.7c0-4.7-0.8-8.2-2.4-10.4c-1.6-2.3-3.9-3.4-6.9-3.4c-3,0-5.3,1.1-6.9,3.4c-1.6,2.3-2.3,5.7-2.3,10.4v15.9
		c0,4.7,0.8,8.2,2.4,10.5c1.6,2.3,3.9,3.4,6.9,3.4s5.3-1.1,6.8-3.4c1.5-2.3,2.3-5.8,2.3-10.5V36.7z"/>
	<path fill="#FFFFFF" d="M388.9,51.3c0,7.4-1.7,13.1-5,17c-3.4,3.9-7.9,5.9-13.7,5.9c-5.8,0-10.4-2-13.8-5.9
		c-3.4-3.9-5.1-9.6-5.1-17V38.2c0-7.4,1.7-13.1,5-17c3.4-3.9,7.9-5.9,13.7-5.9c5.8,0,10.3,2,13.7,5.9c3.4,3.9,5.1,9.6,5.1,17V51.3z
		 M379.3,36.7c0-4.7-0.8-8.2-2.4-10.4c-1.6-2.3-3.9-3.4-6.9-3.4c-3,0-5.3,1.1-6.9,3.4c-1.6,2.3-2.3,5.7-2.3,10.4v15.9
		c0,4.7,0.8,8.2,2.4,10.5c1.6,2.3,3.9,3.4,6.9,3.4c3,0,5.3-1.1,6.8-3.4c1.5-2.3,2.3-5.8,2.3-10.5V36.7z"/>
</g>
</svg>
