<?xml version="1.0" encoding="utf-8"?>
<!-- Generator: Adobe Illustrator 18.1.0, SVG Export Plug-In . SVG Version: 6.00 Build 0)  -->
<svg version="1.1" id="Layer_2" xmlns="http://www.w3.org/2000/svg" xmlns:xlink="http://www.w3.org/1999/xlink" x="0px" y="0px"
	 viewBox="0 0 430 250" enable-background="new 0 0 430 250" xml:space="preserve">
<rect x="348.3" y="1.3" fill="#FFFFFF" stroke="#F2F2F2" stroke-miterlimit="10" width="80.7" height="220.3"/>
<rect x="1.4" y="1.3" fill="#FFFFFF" stroke="#F2F2F2" stroke-miterlimit="10" width="110.2" height="220.3"/>
<rect x="237.7" y="1.3" fill="#5800FF" stroke="#5800FF" stroke-miterlimit="10" width="119.7" height="215.9"/>
<polygon fill="#7B99FF" stroke="#7B99FF" stroke-miterlimit="10" points="237.7,204.6 237.7,1.3 101.7,1.3 101.7,221.5 208.2,221.5 
	237.7,221.5 412.5,221.5 412.5,204.6 "/>
<rect x="357.4" y="1.3" fill="#7B99FF" stroke="#7B99FF" stroke-miterlimit="10" width="55.1" height="111.7"/>
<rect x="203.3" y="57.1" fill="#2E7CFF" width="154.2" height="147.4"/>
<rect x="59.2" y="13.1" fill="#2860AB" width="42.5" height="28.8"/>
<rect x="80.4" y="177.5" fill="#2860AB" width="57.6" height="15.1"/>
<rect x="80.4" y="194.6" fill="#B7AAC9" width="57.6" height="15.1"/>
<rect x="109.3" y="10" fill="#2860AB" width="38.4" height="6.9"/>
<rect x="152.5" y="10" fill="#2860AB" width="38.4" height="6.9"/>
<rect x="195.7" y="10" fill="#2860AB" width="38.4" height="6.9"/>
<rect x="401.6" y="10" fill="#2860AB" width="18.5" height="3.1"/>
<rect x="401.6" y="25" fill="#2860AB" width="18.5" height="3.1"/>
<rect x="401.6" y="39.9" fill="#2860AB" width="18.5" height="3.1"/>
<rect x="401.6" y="54.8" fill="#2860AB" width="18.5" height="3.1"/>
<rect x="401.6" y="69.7" fill="#2860AB" width="18.5" height="3.1"/>
<rect x="401.6" y="84.7" fill="#2860AB" width="18.5" height="3.1"/>
<rect x="401.6" y="99.6" fill="#2860AB" width="18.5" height="3.1"/>
<rect x="401.6" y="177.5" fill="#2860AB" width="18.5" height="3.1"/>
<rect x="401.6" y="192.5" fill="#2860AB" width="18.5" height="3.1"/>
<rect x="401.6" y="207.4" fill="#2860AB" width="18.5" height="3.1"/>
<g>
	<path fill="#2860AB" d="M13.3,193.4l1.6-14.8h13.5v3.2H17.9l-0.9,7.6c0.6-0.4,1.2-0.8,1.9-1c0.7-0.3,1.5-0.4,2.4-0.5
		c2.5,0,4.4,0.8,5.9,2.4c1.4,1.6,2.1,3.8,2.1,6.6c0,2.7-0.7,4.9-2.2,6.5c-1.4,1.6-3.6,2.5-6.3,2.5c-2.3,0-4.2-0.6-5.7-1.9
		c-1.5-1.2-2.2-3.1-2.2-5.5l0-0.1h3.3c0,1.5,0.4,2.6,1.3,3.4c0.8,0.8,1.9,1.2,3.3,1.2c1.5,0,2.7-0.5,3.6-1.6
		c0.9-1.1,1.3-2.6,1.3-4.4c0-1.7-0.4-3.1-1.3-4.2c-0.9-1.1-2.1-1.7-3.6-1.7c-1.4,0-2.5,0.2-3.1,0.6c-0.6,0.4-1.1,1.1-1.4,2
		L13.3,193.4z"/>
	<path fill="#2860AB" d="M50.6,195.3c0,3.4-0.8,6.1-2.3,7.9c-1.5,1.8-3.6,2.7-6.3,2.7c-2.7,0-4.7-0.9-6.3-2.8
		c-1.5-1.8-2.3-4.5-2.3-7.9v-6.4c0-3.4,0.8-6.1,2.3-7.9c1.5-1.8,3.6-2.8,6.3-2.8c2.7,0,4.7,0.9,6.3,2.8c1.5,1.8,2.3,4.5,2.3,7.9
		V195.3z M46.9,188.2c0-2.3-0.4-4.1-1.3-5.3c-0.8-1.2-2.1-1.8-3.7-1.8c-1.6,0-2.8,0.6-3.7,1.8c-0.8,1.2-1.3,2.9-1.3,5.3v7.9
		c0,2.3,0.4,4.1,1.3,5.3c0.9,1.2,2.1,1.8,3.7,1.8s2.8-0.6,3.7-1.8c0.8-1.2,1.2-2.9,1.2-5.3V188.2z"/>
	<path fill="#2860AB" d="M71.9,195.3c0,3.4-0.8,6.1-2.3,7.9c-1.5,1.8-3.6,2.7-6.3,2.7s-4.7-0.9-6.3-2.8c-1.5-1.8-2.3-4.5-2.3-7.9
		v-6.4c0-3.4,0.8-6.1,2.3-7.9c1.5-1.8,3.6-2.8,6.3-2.8c2.7,0,4.7,0.9,6.3,2.8c1.5,1.8,2.3,4.5,2.3,7.9V195.3z M68.3,188.2
		c0-2.3-0.4-4.1-1.3-5.3c-0.8-1.2-2.1-1.8-3.7-1.8c-1.6,0-2.8,0.6-3.7,1.8c-0.8,1.2-1.3,2.9-1.3,5.3v7.9c0,2.3,0.4,4.1,1.3,5.3
		c0.9,1.2,2.1,1.8,3.7,1.8s2.8-0.6,3.7-1.8c0.8-1.2,1.2-2.9,1.2-5.3V188.2z"/>
</g>
<polygon fill="#F6ED54" points="138.1,105 140.6,112.6 148.6,112.6 142.1,117.4 144.6,125 138.1,120.3 131.6,125 134.1,117.4 
	127.6,112.6 135.6,112.6 "/>
<polygon fill="#F6ED54" points="143.2,146.1 149.1,151.5 156.1,147.4 152.8,154.8 158.8,160.2 150.8,159.3 147.5,166.7 145.9,158.8 
	137.9,158 144.8,153.9 "/>
<polygon fill="#F6ED54" points="168.1,179.1 176,180.8 180,173.8 180.9,181.8 188.7,183.5 181.4,186.8 182.2,194.8 176.8,188.8 
	169.5,192.1 173.5,185.1 "/>
<polygon fill="#F6ED54" points="206.3,195.3 213.9,192.8 213.9,184.7 218.7,191.2 226.3,188.8 221.6,195.3 226.3,201.8 218.7,199.3 
	213.9,205.8 213.9,197.8 "/>
<polygon fill="#F6ED54" points="247.4,190.2 252.8,184.2 248.7,177.2 256.1,180.5 261.5,174.5 260.6,182.5 268,185.8 260.1,187.5 
	259.3,195.5 255.3,188.5 "/>
<polygon fill="#F6ED54" points="280.4,165.2 282.1,157.3 275.1,153.3 283.1,152.5 284.8,144.6 288.1,152 296.1,151.1 290.1,156.5 
	293.4,163.8 286.4,159.8 "/>
<polygon fill="#F6ED54" points="296.6,127.1 294.1,119.4 286.1,119.4 292.6,114.7 290.1,107 296.6,111.8 303.1,107 300.6,114.7 
	307.1,119.4 299.1,119.4 "/>
<polygon fill="#F6ED54" points="228.4,36.8 220.7,39.3 220.7,47.3 216,40.8 208.3,43.3 213.1,36.8 208.3,30.3 216,32.7 220.7,26.2 
	220.7,34.3 "/>
<polygon fill="#F6ED54" points="187.3,41.9 181.9,47.8 185.9,54.8 178.6,51.5 173.2,57.5 174,49.5 166.7,46.2 174.5,44.6 
	175.4,36.6 179.4,43.5 "/>
<polygon fill="#F6ED54" points="154.2,66.8 152.5,74.7 159.5,78.7 151.5,79.6 149.8,87.4 146.6,80.1 138.6,80.9 144.5,75.5 
	141.3,68.2 148.2,72.2 "/>
<g>
	<path fill="#FFFFFF" d="M261.8,47.7l3.3-31.7h30.3v8.3H273l-1.7,14.4c1.1-0.8,2.4-1.5,3.9-2.1c1.5-0.5,3.2-0.8,5-0.9
		c5.4-0.1,9.6,1.7,12.6,5.1c3,3.5,4.6,8.2,4.6,14.2c0,5.6-1.6,10.2-4.8,13.8c-3.2,3.6-7.8,5.4-13.9,5.4c-5,0-9.3-1.4-12.8-4.2
		c-3.5-2.8-5.1-6.7-5-11.8L261,58l8.9-0.3c0,2.8,0.8,4.9,2.4,6.5c1.6,1.5,3.7,2.3,6.3,2.3c3,0,5.2-1,6.8-3.1s2.3-4.8,2.3-8.3
		c0-3.5-0.8-6.3-2.4-8.4c-1.6-2.2-3.9-3.2-6.8-3.2c-2.6,0-4.6,0.4-5.8,1.3s-2.2,2.1-2.8,3.7L261.8,47.7z"/>
	<path fill="#FFFFFF" d="M343.1,51.3c0,7.4-1.7,13.1-5,17c-3.4,3.9-7.9,5.9-13.7,5.9c-5.8,0-10.4-2-13.8-5.9
		c-3.4-3.9-5.1-9.6-5.1-17V38.2c0-7.4,1.7-13.1,5-17c3.4-3.9,7.9-5.9,13.7-5.9c5.8,0,10.3,2,13.7,5.9c3.4,3.9,5.1,9.6,5.1,17V51.3z
		 M333.5,36.7c0-4.7-0.8-8.2-2.4-10.4c-1.6-2.3-3.9-3.4-6.9-3.4c-3,0-5.3,1.1-6.9,3.4c-1.6,2.3-2.3,5.7-2.3,10.4v15.9
		c0,4.7,0.8,8.2,2.4,10.5c1.6,2.3,3.9,3.4,6.9,3.4s5.3-1.1,6.8-3.4c1.5-2.3,2.3-5.8,2.3-10.5V36.7z"/>
	<path fill="#FFFFFF" d="M388.9,51.3c0,7.4-1.7,13.1-5,17c-3.4,3.9-7.9,5.9-13.7,5.9c-5.8,0-10.4-2-13.8-5.9
		c-3.4-3.9-5.1-9.6-5.1-17V38.2c0-7.4,1.7-13.1,5-17c3.4-3.9,7.9-5.9,13.7-5.9c5.8,0,10.3,2,13.7,5.9c3.4,3.9,5.1,9.6,5.1,17V51.3z
		 M379.3,36.7c0-4.7-0.8-8.2-2.4-10.4c-1.6-2.3-3.9-3.4-6.9-3.4c-3,0-5.3,1.1-6.9,3.4c-1.6,2.3-2.3,5.7-2.3,10.4v15.9
		c0,4.7,0.8,8.2,2.4,10.5c1.6,2.3,3.9,3.4,6.9,3.4c3,0,5.3-1.1,6.8-3.4c1.5-2.3,2.3-5.8,2.3-10.5V36.7z"/>
</g>
</svg>
