<?xml version="1.0" encoding="utf-8"?>
<!-- Generator: Adobe Illustrator 18.1.0, SVG Export Plug-In . SVG Version: 6.00 Build 0)  -->
<svg version="1.1" id="Layer_1" xmlns="http://www.w3.org/2000/svg" xmlns:xlink="http://www.w3.org/1999/xlink" x="0px" y="0px"
	 viewBox="0 0 300 60" enable-background="new 0 0 300 60" xml:space="preserve">
<path fill="none" stroke="#FF2250" stroke-width="2" stroke-miterlimit="10" d="M45.6,45.5c-1.2,4.1-5,7.1-9.5,7.1H10.9
	c-5.5,0-9.9-4.4-9.9-9.9V17.4c0-5.5,4.4-9.9,9.9-9.9h25.3c5.5,0,9.9,4.4,9.9,9.9v21.5c0,0.8-0.9,1.3-1.5,0.8L18.3,22.1
	c-0.4-0.3-1.1,0-1.1,0.5v19"/>
<g>
	<path fill="#FF2250" d="M68,44.7V17.8h2.5l15.7,22.4h0.1V17.8h2.5v26.9h-2.5L70.6,22.2h-0.1v22.5H68z"/>
	<path fill="#FF2250" d="M110.1,44.7H93.9V17.8h16.2v2.3H96.4v9.7h13v2.3h-13v10.3h13.7V44.7z"/>
	<path fill="#FF2250" d="M121.6,44.7V20.1h-9v-2.3h20.5v2.3h-9v24.6H121.6z"/>
	<path fill="#FF2250" d="M157.9,31.3c0,8.5-4.7,13.8-12.2,13.8c-7.5,0-12.2-5.3-12.2-13.8c0-8.5,4.7-13.9,12.2-13.9
		C153.2,17.4,157.9,22.8,157.9,31.3z M136.1,31.3c0,7,3.7,11.5,9.6,11.5c5.9,0,9.6-4.4,9.6-11.5c0-7.1-3.7-11.5-9.6-11.5
		C139.8,19.8,136.1,24.2,136.1,31.3z"/>
	<path fill="#FF2250" d="M171.4,17.8c5.1,0,8.6,3.4,8.6,8.4s-3.5,8.4-8.6,8.4h-7v10.1h-2.5V17.8H171.4z M164.4,32.3h6.4
		c4.1,0,6.6-2.3,6.6-6.1s-2.5-6.1-6.6-6.1h-6.4V32.3z"/>
	<path fill="#FF2250" d="M196.2,36.5h-11.3l-3,8.2h-2.7l10.1-26.9h2.5l10,26.9h-2.7L196.2,36.5z M185.7,34.3h9.8L190.6,21h-0.1
		L185.7,34.3z"/>
	<path fill="#FF2250" d="M208.8,44.7V33.1l-9.6-15.2h2.9l7.9,12.8h0.1l7.9-12.8h2.9l-9.6,15.2v11.6H208.8z"/>
</g>
</svg>
