<?xml version="1.0" encoding="utf-8"?>
<!-- Generator: Adobe Illustrator 18.1.0, SVG Export Plug-In . SVG Version: 6.00 Build 0)  -->
<svg version="1.1" id="Layer_1" xmlns="http://www.w3.org/2000/svg" xmlns:xlink="http://www.w3.org/1999/xlink" x="0px" y="0px"
	 viewBox="0 0 310 180" enable-background="new 0 0 310 180" xml:space="preserve">
<g opacity="0.1">
	<g>
		<path fill="none" stroke="#FFFFFF" stroke-width="2" stroke-miterlimit="10" d="M18.5,312.6c0.2,3.2-1.7,6.3-4.9,7.5l-17.9,6.6
			c-3.9,1.4-8.1-0.6-9.6-4.4l-6.6-17.9c-1.4-3.9,0.6-8.1,4.4-9.6l17.9-6.6c3.9-1.4,8.1,0.6,9.6,4.4l5.6,15.2c0.2,0.6-0.3,1.1-0.9,1
			L-7,303.2c-0.4-0.1-0.8,0.3-0.6,0.7l4.9,13.4"/>
		<path fill="none" stroke="#FFFFFF" stroke-width="2" stroke-miterlimit="10" d="M60.2,297.3c0.2,3.2-1.7,6.3-4.9,7.5l-17.9,6.6
			c-3.9,1.4-8.1-0.6-9.6-4.4L21.3,289c-1.4-3.9,0.6-8.1,4.4-9.6l17.9-6.6c3.9-1.4,8.1,0.6,9.6,4.4l5.6,15.2c0.2,0.6-0.3,1.1-0.9,1
			l-23.2-5.7c-0.4-0.1-0.8,0.3-0.6,0.7L39,302"/>
		<path fill="none" stroke="#FFFFFF" stroke-width="2" stroke-miterlimit="10" d="M101.9,282c0.2,3.2-1.7,6.3-4.9,7.5l-17.9,6.6
			c-3.9,1.4-8.1-0.6-9.6-4.4L63,273.7c-1.4-3.9,0.6-8.1,4.4-9.6l17.9-6.6c3.9-1.4,8.1,0.6,9.6,4.4l5.6,15.2c0.2,0.6-0.3,1.1-0.9,1
			l-23.2-5.7c-0.4-0.1-0.8,0.3-0.6,0.7l4.9,13.4"/>
		<path fill="none" stroke="#FFFFFF" stroke-width="2" stroke-miterlimit="10" d="M143.6,266.7c0.2,3.2-1.7,6.3-4.9,7.5l-17.9,6.6
			c-3.9,1.4-8.1-0.6-9.6-4.4l-6.6-17.9c-1.4-3.9,0.6-8.1,4.4-9.6l17.9-6.6c3.9-1.4,8.1,0.6,9.6,4.4l5.6,15.2c0.2,0.6-0.3,1.1-0.9,1
			l-23.2-5.7c-0.4-0.1-0.8,0.3-0.6,0.7l4.9,13.4"/>
		<path fill="none" stroke="#FFFFFF" stroke-width="2" stroke-miterlimit="10" d="M185.4,251.4c0.2,3.2-1.7,6.3-4.9,7.5l-17.9,6.6
			c-3.9,1.4-8.1-0.6-9.6-4.4l-6.6-17.9c-1.4-3.9,0.6-8.1,4.4-9.6l17.9-6.6c3.9-1.4,8.1,0.6,9.6,4.4l5.6,15.2c0.2,0.6-0.3,1.1-0.9,1
			l-23.2-5.7c-0.4-0.1-0.8,0.3-0.6,0.7l4.9,13.4"/>
		<path fill="none" stroke="#FFFFFF" stroke-width="2" stroke-miterlimit="10" d="M227.1,236.1c0.2,3.2-1.7,6.3-4.9,7.5l-17.9,6.6
			c-3.9,1.4-8.1-0.6-9.6-4.4l-6.6-17.9c-1.4-3.9,0.6-8.1,4.4-9.6l17.9-6.6c3.9-1.4,8.1,0.6,9.6,4.4l5.6,15.2c0.2,0.6-0.3,1.1-0.9,1
			l-23.2-5.7c-0.4-0.1-0.8,0.3-0.6,0.7l4.9,13.4"/>
		<path fill="none" stroke="#FFFFFF" stroke-width="2" stroke-miterlimit="10" d="M268.8,220.8c0.2,3.2-1.7,6.3-4.9,7.5l-17.9,6.6
			c-3.9,1.4-8.1-0.6-9.6-4.4l-6.6-17.9c-1.4-3.9,0.6-8.1,4.4-9.6l17.9-6.6c3.9-1.4,8.1,0.6,9.6,4.4l5.6,15.2c0.2,0.6-0.3,1.1-0.9,1
			l-23.2-5.7c-0.4-0.1-0.8,0.3-0.6,0.7l4.9,13.4"/>
		<path fill="none" stroke="#FFFFFF" stroke-width="2" stroke-miterlimit="10" d="M310.5,205.5c0.2,3.2-1.7,6.3-4.9,7.5l-17.9,6.6
			c-3.9,1.4-8.1-0.6-9.6-4.4l-6.6-17.9c-1.4-3.9,0.6-8.1,4.4-9.6l17.9-6.6c3.9-1.4,8.1,0.6,9.6,4.4l5.6,15.2c0.2,0.6-0.3,1.1-0.9,1
			l-23.2-5.7c-0.4-0.1-0.8,0.3-0.6,0.7l4.9,13.4"/>
		<path fill="none" stroke="#FFFFFF" stroke-width="2" stroke-miterlimit="10" d="M352.2,190.2c0.2,3.2-1.7,6.3-4.9,7.5l-17.9,6.6
			c-3.9,1.4-8.1-0.6-9.6-4.4l-6.6-17.9c-1.4-3.9,0.6-8.1,4.4-9.6l17.9-6.6c3.9-1.4,8.1,0.6,9.6,4.4l5.6,15.2c0.2,0.6-0.3,1.1-0.9,1
			l-23.2-5.7c-0.4-0.1-0.8,0.3-0.6,0.7l4.9,13.4"/>
		<path fill="none" stroke="#FFFFFF" stroke-width="2" stroke-miterlimit="10" d="M394,174.9c0.2,3.2-1.7,6.3-4.9,7.5l-17.9,6.6
			c-3.9,1.4-8.1-0.6-9.6-4.4l-6.6-17.9c-1.4-3.9,0.6-8.1,4.4-9.6l17.9-6.6c3.9-1.4,8.1,0.6,9.6,4.4l5.6,15.2c0.2,0.6-0.3,1.1-0.9,1
			l-23.2-5.7c-0.4-0.1-0.8,0.3-0.6,0.7l4.9,13.4"/>
		<path fill="none" stroke="#FFFFFF" stroke-width="2" stroke-miterlimit="10" d="M435.7,159.6c0.2,3.2-1.7,6.3-4.9,7.5l-17.9,6.6
			c-3.9,1.4-8.1-0.6-9.6-4.4l-6.6-17.9c-1.4-3.9,0.6-8.1,4.4-9.6l17.9-6.6c3.9-1.4,8.1,0.6,9.6,4.4l5.6,15.2c0.2,0.6-0.3,1.1-0.9,1
			l-23.2-5.7c-0.4-0.1-0.8,0.3-0.6,0.7l4.9,13.4"/>
	</g>
	<g>
		<path fill="none" stroke="#FFFFFF" stroke-width="2" stroke-miterlimit="10" d="M3.1,270.6c0.2,3.2-1.7,6.3-4.9,7.5l-17.9,6.6
			c-3.9,1.4-8.1-0.6-9.6-4.4l-6.6-17.9c-1.4-3.9,0.6-8.1,4.4-9.6l17.9-6.6c3.9-1.4,8.1,0.6,9.6,4.4l5.6,15.2c0.2,0.6-0.3,1.1-0.9,1
			l-23.2-5.7c-0.4-0.1-0.8,0.3-0.6,0.7l4.9,13.4"/>
		<path fill="none" stroke="#FFFFFF" stroke-width="2" stroke-miterlimit="10" d="M44.8,255.4c0.2,3.2-1.7,6.3-4.9,7.5L22,269.4
			c-3.9,1.4-8.1-0.6-9.6-4.4L5.9,247c-1.4-3.9,0.6-8.1,4.4-9.6l17.9-6.6c3.9-1.4,8.1,0.6,9.6,4.4l5.6,15.2c0.2,0.6-0.3,1.1-0.9,1
			l-23.2-5.7c-0.4-0.1-0.8,0.3-0.6,0.7l4.9,13.4"/>
		<path fill="none" stroke="#FFFFFF" stroke-width="2" stroke-miterlimit="10" d="M86.5,240.1c0.2,3.2-1.7,6.3-4.9,7.5l-17.9,6.6
			c-3.9,1.4-8.1-0.6-9.6-4.4l-6.6-17.9c-1.4-3.9,0.6-8.1,4.4-9.6l17.9-6.6c3.9-1.4,8.1,0.6,9.6,4.4l5.6,15.2c0.2,0.6-0.3,1.1-0.9,1
			l-23.2-5.7c-0.4-0.1-0.8,0.3-0.6,0.7l4.9,13.4"/>
		<path fill="none" stroke="#FFFFFF" stroke-width="2" stroke-miterlimit="10" d="M128.2,224.8c0.2,3.2-1.7,6.3-4.9,7.5l-17.9,6.6
			c-3.9,1.4-8.1-0.6-9.6-4.4l-6.6-17.9c-1.4-3.9,0.6-8.1,4.4-9.6l17.9-6.6c3.9-1.4,8.1,0.6,9.6,4.4l5.6,15.2c0.2,0.6-0.3,1.1-0.9,1
			l-23.2-5.7c-0.4-0.1-0.8,0.3-0.6,0.7l4.9,13.4"/>
		<path fill="none" stroke="#FFFFFF" stroke-width="2" stroke-miterlimit="10" d="M170,209.5c0.2,3.2-1.7,6.3-4.9,7.5l-17.9,6.6
			c-3.9,1.4-8.1-0.6-9.6-4.4l-6.6-17.9c-1.4-3.9,0.6-8.1,4.4-9.6l17.9-6.6c3.9-1.4,8.1,0.6,9.6,4.4l5.6,15.2c0.2,0.6-0.3,1.1-0.9,1
			l-23.2-5.7c-0.4-0.1-0.8,0.3-0.6,0.7l4.9,13.4"/>
		<path fill="none" stroke="#FFFFFF" stroke-width="2" stroke-miterlimit="10" d="M211.7,194.2c0.2,3.2-1.7,6.3-4.9,7.5l-17.9,6.6
			c-3.9,1.4-8.1-0.6-9.6-4.4l-6.6-17.9c-1.4-3.9,0.6-8.1,4.4-9.6l17.9-6.6c3.9-1.4,8.1,0.6,9.6,4.4l5.6,15.2c0.2,0.6-0.3,1.1-0.9,1
			l-23.2-5.7c-0.4-0.1-0.8,0.3-0.6,0.7l4.9,13.4"/>
		<path fill="none" stroke="#FFFFFF" stroke-width="2" stroke-miterlimit="10" d="M253.4,178.9c0.2,3.2-1.7,6.3-4.9,7.5l-17.9,6.6
			c-3.9,1.4-8.1-0.6-9.6-4.4l-6.6-17.9c-1.4-3.9,0.6-8.1,4.4-9.6l17.9-6.6c3.9-1.4,8.1,0.6,9.6,4.4l5.6,15.2c0.2,0.6-0.3,1.1-0.9,1
			l-23.2-5.7c-0.4-0.1-0.8,0.3-0.6,0.7l4.9,13.4"/>
		<path fill="none" stroke="#FFFFFF" stroke-width="2" stroke-miterlimit="10" d="M295.1,163.6c0.2,3.2-1.7,6.3-4.9,7.5l-17.9,6.6
			c-3.9,1.4-8.1-0.6-9.6-4.4l-6.6-17.9c-1.4-3.9,0.6-8.1,4.4-9.6l17.9-6.6c3.9-1.4,8.1,0.6,9.6,4.4l5.6,15.2c0.2,0.6-0.3,1.1-0.9,1
			l-23.2-5.7c-0.4-0.1-0.8,0.3-0.6,0.7l4.9,13.4"/>
		<path fill="none" stroke="#FFFFFF" stroke-width="2" stroke-miterlimit="10" d="M336.9,148.3c0.2,3.2-1.7,6.3-4.9,7.5l-17.9,6.6
			c-3.9,1.4-8.1-0.6-9.6-4.4l-6.6-17.9c-1.4-3.9,0.6-8.1,4.4-9.6l17.9-6.6c3.9-1.4,8.1,0.6,9.6,4.4l5.6,15.2c0.2,0.6-0.3,1.1-0.9,1
			l-23.2-5.7c-0.4-0.1-0.8,0.3-0.6,0.7l4.9,13.4"/>
		<path fill="none" stroke="#FFFFFF" stroke-width="2" stroke-miterlimit="10" d="M378.6,133c0.2,3.2-1.7,6.3-4.9,7.5l-17.9,6.6
			c-3.9,1.4-8.1-0.6-9.6-4.4l-6.6-17.9c-1.4-3.9,0.6-8.1,4.4-9.6l17.9-6.6c3.9-1.4,8.1,0.6,9.6,4.4l5.6,15.2c0.2,0.6-0.3,1.1-0.9,1
			l-23.2-5.7c-0.4-0.1-0.8,0.3-0.6,0.7l4.9,13.4"/>
		<path fill="none" stroke="#FFFFFF" stroke-width="2" stroke-miterlimit="10" d="M420.3,117.7c0.2,3.2-1.7,6.3-4.9,7.5l-17.9,6.6
			c-3.9,1.4-8.1-0.6-9.6-4.4l-6.6-17.9c-1.4-3.9,0.6-8.1,4.4-9.6l17.9-6.6c3.9-1.4,8.1,0.6,9.6,4.4l5.6,15.2c0.2,0.6-0.3,1.1-0.9,1
			l-23.2-5.7c-0.4-0.1-0.8,0.3-0.6,0.7l4.9,13.4"/>
	</g>
	<g>
		<path fill="none" stroke="#FFFFFF" stroke-width="2" stroke-miterlimit="10" d="M-12.3,228.7c0.2,3.2-1.7,6.3-4.9,7.5l-17.9,6.6
			c-3.9,1.4-8.1-0.6-9.6-4.4l-6.6-17.9c-1.4-3.9,0.6-8.1,4.4-9.6l17.9-6.6c3.9-1.4,8.1,0.6,9.6,4.4l5.6,15.2c0.2,0.6-0.3,1.1-0.9,1
			l-23.2-5.7c-0.4-0.1-0.8,0.3-0.6,0.7l4.9,13.4"/>
		<path fill="none" stroke="#FFFFFF" stroke-width="2" stroke-miterlimit="10" d="M29.4,213.4c0.2,3.2-1.7,6.3-4.9,7.5l-17.9,6.6
			c-3.9,1.4-8.1-0.6-9.6-4.4l-6.6-17.9c-1.4-3.9,0.6-8.1,4.4-9.6l17.9-6.6c3.9-1.4,8.1,0.6,9.6,4.4l5.6,15.2c0.2,0.6-0.3,1.1-0.9,1
			l-23.2-5.7c-0.4-0.1-0.8,0.3-0.6,0.7L8.3,218"/>
		<path fill="none" stroke="#FFFFFF" stroke-width="2" stroke-miterlimit="10" d="M71.1,198.1c0.2,3.2-1.7,6.3-4.9,7.5l-17.9,6.6
			c-3.9,1.4-8.1-0.6-9.6-4.4l-6.6-17.9c-1.4-3.9,0.6-8.1,4.4-9.6l17.9-6.6c3.9-1.4,8.1,0.6,9.6,4.4l5.6,15.2c0.2,0.6-0.3,1.1-0.9,1
			l-23.2-5.7c-0.4-0.1-0.8,0.3-0.6,0.7l4.9,13.4"/>
		<path fill="none" stroke="#FFFFFF" stroke-width="2" stroke-miterlimit="10" d="M112.9,182.8c0.2,3.2-1.7,6.3-4.9,7.5l-17.9,6.6
			c-3.9,1.4-8.1-0.6-9.6-4.4l-6.6-17.9c-1.4-3.9,0.6-8.1,4.4-9.6l17.9-6.6c3.9-1.4,8.1,0.6,9.6,4.4l5.6,15.2c0.2,0.6-0.3,1.1-0.9,1
			l-23.2-5.7c-0.4-0.1-0.8,0.3-0.6,0.7l4.9,13.4"/>
		<path fill="none" stroke="#FFFFFF" stroke-width="2" stroke-miterlimit="10" d="M154.6,167.5c0.2,3.2-1.7,6.3-4.9,7.5l-17.9,6.6
			c-3.9,1.4-8.1-0.6-9.6-4.4l-6.6-17.9c-1.4-3.9,0.6-8.1,4.4-9.6L138,143c3.9-1.4,8.1,0.6,9.6,4.4l5.6,15.2c0.2,0.6-0.3,1.1-0.9,1
			l-23.2-5.7c-0.4-0.1-0.8,0.3-0.6,0.7l4.9,13.4"/>
		<path fill="none" stroke="#FFFFFF" stroke-width="2" stroke-miterlimit="10" d="M196.3,152.2c0.2,3.2-1.7,6.3-4.9,7.5l-17.9,6.6
			c-3.9,1.4-8.1-0.6-9.6-4.4l-6.6-17.9c-1.4-3.9,0.6-8.1,4.4-9.6l17.9-6.6c3.9-1.4,8.1,0.6,9.6,4.4l5.6,15.2c0.2,0.6-0.3,1.1-0.9,1
			l-23.2-5.7c-0.4-0.1-0.8,0.3-0.6,0.7l4.9,13.4"/>
		<path fill="none" stroke="#FFFFFF" stroke-width="2" stroke-miterlimit="10" d="M238,136.9c0.2,3.2-1.7,6.3-4.9,7.5l-17.9,6.6
			c-3.9,1.4-8.1-0.6-9.6-4.4l-6.6-17.9c-1.4-3.9,0.6-8.1,4.4-9.6l17.9-6.6c3.9-1.4,8.1,0.6,9.6,4.4l5.6,15.2c0.2,0.6-0.3,1.1-0.9,1
			l-23.2-5.7c-0.4-0.1-0.8,0.3-0.6,0.7l4.9,13.4"/>
		<path fill="none" stroke="#FFFFFF" stroke-width="2" stroke-miterlimit="10" d="M279.7,121.6c0.2,3.2-1.7,6.3-4.9,7.5l-17.9,6.6
			c-3.9,1.4-8.1-0.6-9.6-4.4l-6.6-17.9c-1.4-3.9,0.6-8.1,4.4-9.6l17.9-6.6c3.9-1.4,8.1,0.6,9.6,4.4l5.6,15.2c0.2,0.6-0.3,1.1-0.9,1
			l-23.2-5.7c-0.4-0.1-0.8,0.3-0.6,0.7l4.9,13.4"/>
		<path fill="none" stroke="#FFFFFF" stroke-width="2" stroke-miterlimit="10" d="M321.5,106.3c0.2,3.2-1.7,6.3-4.9,7.5l-17.9,6.6
			c-3.9,1.4-8.1-0.6-9.6-4.4L282.5,98c-1.4-3.9,0.6-8.1,4.4-9.6l17.9-6.6c3.9-1.4,8.1,0.6,9.6,4.4l5.6,15.2c0.2,0.6-0.3,1.1-0.9,1
			L296,96.8c-0.4-0.1-0.8,0.3-0.6,0.7l4.9,13.4"/>
		<path fill="none" stroke="#FFFFFF" stroke-width="2" stroke-miterlimit="10" d="M363.2,91c0.2,3.2-1.7,6.3-4.9,7.5l-17.9,6.6
			c-3.9,1.4-8.1-0.6-9.6-4.4l-6.6-17.9c-1.4-3.9,0.6-8.1,4.4-9.6l17.9-6.6c3.9-1.4,8.1,0.6,9.6,4.4l5.6,15.2c0.2,0.6-0.3,1.1-0.9,1
			l-23.2-5.7c-0.4-0.1-0.8,0.3-0.6,0.7l4.9,13.4"/>
		<path fill="none" stroke="#FFFFFF" stroke-width="2" stroke-miterlimit="10" d="M404.9,75.7c0.2,3.2-1.7,6.3-4.9,7.5l-17.9,6.6
			c-3.9,1.4-8.1-0.6-9.6-4.4L366,67.4c-1.4-3.9,0.6-8.1,4.4-9.6l17.9-6.6c3.9-1.4,8.1,0.6,9.6,4.4l5.6,15.2c0.2,0.6-0.3,1.1-0.9,1
			l-23.2-5.7c-0.4-0.1-0.8,0.3-0.6,0.7l4.9,13.4"/>
	</g>
	<g>
		<path fill="none" stroke="#FFFFFF" stroke-width="2" stroke-miterlimit="10" d="M-27.7,186.7c0.2,3.2-1.7,6.3-4.9,7.5l-17.9,6.6
			c-3.9,1.4-8.1-0.6-9.6-4.4l-6.6-17.9c-1.4-3.9,0.6-8.1,4.4-9.6l17.9-6.6c3.9-1.4,8.1,0.6,9.6,4.4l5.6,15.2c0.2,0.6-0.3,1.1-0.9,1
			l-23.2-5.7c-0.4-0.1-0.8,0.3-0.6,0.7l4.9,13.4"/>
		<path fill="none" stroke="#FFFFFF" stroke-width="2" stroke-miterlimit="10" d="M14,171.4c0.2,3.2-1.7,6.3-4.9,7.5l-17.9,6.6
			c-3.9,1.4-8.1-0.6-9.6-4.4l-6.6-17.9c-1.4-3.9,0.6-8.1,4.4-9.6l17.9-6.6c3.9-1.4,8.1,0.6,9.6,4.4l5.6,15.2c0.2,0.6-0.3,1.1-0.9,1
			l-23.2-5.7c-0.4-0.1-0.8,0.3-0.6,0.7l4.9,13.4"/>
		<path fill="none" stroke="#FFFFFF" stroke-width="2" stroke-miterlimit="10" d="M55.7,156.1c0.2,3.2-1.7,6.3-4.9,7.5l-17.9,6.6
			c-3.9,1.4-8.1-0.6-9.6-4.4l-6.6-17.9c-1.4-3.9,0.6-8.1,4.4-9.6l17.9-6.6c3.9-1.4,8.1,0.6,9.6,4.4l5.6,15.2c0.2,0.6-0.3,1.1-0.9,1
			l-23.2-5.7c-0.4-0.1-0.8,0.3-0.6,0.7l4.9,13.4"/>
		<path fill="none" stroke="#FFFFFF" stroke-width="2" stroke-miterlimit="10" d="M97.5,140.8c0.2,3.2-1.7,6.3-4.9,7.5l-17.9,6.6
			c-3.9,1.4-8.1-0.6-9.6-4.4l-6.6-17.9c-1.4-3.9,0.6-8.1,4.4-9.6l17.9-6.6c3.9-1.4,8.1,0.6,9.6,4.4L96,136c0.2,0.6-0.3,1.1-0.9,1
			L72,131.4c-0.4-0.1-0.8,0.3-0.6,0.7l4.9,13.4"/>
		<path fill="none" stroke="#FFFFFF" stroke-width="2" stroke-miterlimit="10" d="M139.2,125.5c0.2,3.2-1.7,6.3-4.9,7.5l-17.9,6.6
			c-3.9,1.4-8.1-0.6-9.6-4.4l-6.6-17.9c-1.4-3.9,0.6-8.1,4.4-9.6l17.9-6.6c3.9-1.4,8.1,0.6,9.6,4.4l5.6,15.2c0.2,0.6-0.3,1.1-0.9,1
			l-23.2-5.7c-0.4-0.1-0.8,0.3-0.6,0.7l4.9,13.4"/>
		<path fill="none" stroke="#FFFFFF" stroke-width="2" stroke-miterlimit="10" d="M180.9,110.2c0.2,3.2-1.7,6.3-4.9,7.5l-17.9,6.6
			c-3.9,1.4-8.1-0.6-9.6-4.4l-6.6-17.9c-1.4-3.9,0.6-8.1,4.4-9.6l17.9-6.6c3.9-1.4,8.1,0.6,9.6,4.4l5.6,15.2c0.2,0.6-0.3,1.1-0.9,1
			l-23.2-5.7c-0.4-0.1-0.8,0.3-0.6,0.7l4.9,13.4"/>
		<path fill="none" stroke="#FFFFFF" stroke-width="2" stroke-miterlimit="10" d="M222.6,94.9c0.2,3.2-1.7,6.3-4.9,7.5l-17.9,6.6
			c-3.9,1.4-8.1-0.6-9.6-4.4l-6.6-17.9c-1.4-3.9,0.6-8.1,4.4-9.6l17.9-6.6c3.9-1.4,8.1,0.6,9.6,4.4l5.6,15.2c0.2,0.6-0.3,1.1-0.9,1
			l-23.2-5.7c-0.4-0.1-0.8,0.3-0.6,0.7l4.9,13.4"/>
		<path fill="none" stroke="#FFFFFF" stroke-width="2" stroke-miterlimit="10" d="M264.3,79.6c0.2,3.2-1.7,6.3-4.9,7.5l-17.9,6.6
			c-3.9,1.4-8.1-0.6-9.6-4.4l-6.6-17.9c-1.4-3.9,0.6-8.1,4.4-9.6l17.9-6.6c3.9-1.4,8.1,0.6,9.6,4.4l5.6,15.2c0.2,0.6-0.3,1.1-0.9,1
			l-23.2-5.7c-0.4-0.1-0.8,0.3-0.6,0.7l4.9,13.4"/>
		<path fill="none" stroke="#FFFFFF" stroke-width="2" stroke-miterlimit="10" d="M306.1,64.3c0.2,3.2-1.7,6.3-4.9,7.5l-17.9,6.6
			c-3.9,1.4-8.1-0.6-9.6-4.4L267.1,56c-1.4-3.9,0.6-8.1,4.4-9.6l17.9-6.6c3.9-1.4,8.1,0.6,9.6,4.4l5.6,15.2c0.2,0.6-0.3,1.1-0.9,1
			l-23.2-5.7c-0.4-0.1-0.8,0.3-0.6,0.7l4.9,13.4"/>
		<path fill="none" stroke="#FFFFFF" stroke-width="2" stroke-miterlimit="10" d="M347.8,49c0.2,3.2-1.7,6.3-4.9,7.5L325,63.1
			c-3.9,1.4-8.1-0.6-9.6-4.4l-6.6-17.9c-1.4-3.9,0.6-8.1,4.4-9.6l17.9-6.6c3.9-1.4,8.1,0.6,9.6,4.4l5.6,15.2c0.2,0.6-0.3,1.1-0.9,1
			l-23.2-5.7c-0.4-0.1-0.8,0.3-0.6,0.7l4.9,13.4"/>
		<path fill="none" stroke="#FFFFFF" stroke-width="2" stroke-miterlimit="10" d="M389.5,33.7c0.2,3.2-1.7,6.3-4.9,7.5l-17.9,6.6
			c-3.9,1.4-8.1-0.6-9.6-4.4l-6.6-17.9c-1.4-3.9,0.6-8.1,4.4-9.6l17.9-6.6c3.9-1.4,8.1,0.6,9.6,4.4l5.6,15.2c0.2,0.6-0.3,1.1-0.9,1
			L364,24.3c-0.4-0.1-0.8,0.3-0.6,0.7l4.9,13.4"/>
	</g>
	<g>
		<path fill="none" stroke="#FFFFFF" stroke-width="2" stroke-miterlimit="10" d="M-43.1,144.7c0.2,3.2-1.7,6.3-4.9,7.5l-17.9,6.6
			c-3.9,1.4-8.1-0.6-9.6-4.4l-6.6-17.9c-1.4-3.9,0.6-8.1,4.4-9.6l17.9-6.6c3.9-1.4,8.1,0.6,9.6,4.4l5.6,15.2c0.2,0.6-0.3,1.1-0.9,1
			l-23.2-5.7c-0.4-0.1-0.8,0.3-0.6,0.7l4.9,13.4"/>
		<path fill="none" stroke="#FFFFFF" stroke-width="2" stroke-miterlimit="10" d="M-1.4,129.4c0.2,3.2-1.7,6.3-4.9,7.5l-17.9,6.6
			c-3.9,1.4-8.1-0.6-9.6-4.4l-6.6-17.9c-1.4-3.9,0.6-8.1,4.4-9.6L-18,105c3.9-1.4,8.1,0.6,9.6,4.4l5.6,15.2c0.2,0.6-0.3,1.1-0.9,1
			l-23.2-5.7c-0.4-0.1-0.8,0.3-0.6,0.7l4.9,13.4"/>
		<path fill="none" stroke="#FFFFFF" stroke-width="2" stroke-miterlimit="10" d="M40.3,114.1c0.2,3.2-1.7,6.3-4.9,7.5l-17.9,6.6
			c-3.9,1.4-8.1-0.6-9.6-4.4l-6.6-17.9C0,101.9,2,97.7,5.8,96.2l17.9-6.6c3.9-1.4,8.1,0.6,9.6,4.4l5.6,15.2c0.2,0.6-0.3,1.1-0.9,1
			l-23.2-5.7c-0.4-0.1-0.8,0.3-0.6,0.7l4.9,13.4"/>
		<path fill="none" stroke="#FFFFFF" stroke-width="2" stroke-miterlimit="10" d="M82.1,98.8c0.2,3.2-1.7,6.3-4.9,7.5l-17.9,6.6
			c-3.9,1.4-8.1-0.6-9.6-4.4l-6.6-17.9c-1.4-3.9,0.6-8.1,4.4-9.6l17.9-6.6c3.9-1.4,8.1,0.6,9.6,4.4L80.6,94c0.2,0.6-0.3,1.1-0.9,1
			l-23.2-5.7c-0.4-0.1-0.8,0.3-0.6,0.7l4.9,13.4"/>
		<path fill="none" stroke="#FFFFFF" stroke-width="2" stroke-miterlimit="10" d="M123.8,83.5c0.2,3.2-1.7,6.3-4.9,7.5L101,97.6
			c-3.9,1.4-8.1-0.6-9.6-4.4l-6.6-17.9c-1.4-3.9,0.6-8.1,4.4-9.6l17.9-6.6c3.9-1.4,8.1,0.6,9.6,4.4l5.6,15.2c0.2,0.6-0.3,1.1-0.9,1
			l-23.2-5.7c-0.4-0.1-0.8,0.3-0.6,0.7l4.9,13.4"/>
		<path fill="none" stroke="#FFFFFF" stroke-width="2" stroke-miterlimit="10" d="M165.5,68.2c0.2,3.2-1.7,6.3-4.9,7.5l-17.9,6.6
			c-3.9,1.4-8.1-0.6-9.6-4.4l-6.6-17.9c-1.4-3.9,0.6-8.1,4.4-9.6l17.9-6.6c3.9-1.4,8.1,0.6,9.6,4.4l5.6,15.2c0.2,0.6-0.3,1.1-0.9,1
			L140,58.8c-0.4-0.1-0.8,0.3-0.6,0.7l4.9,13.4"/>
		<path fill="none" stroke="#FFFFFF" stroke-width="2" stroke-miterlimit="10" d="M207.2,52.9c0.2,3.2-1.7,6.3-4.9,7.5L184.4,67
			c-3.9,1.4-8.1-0.6-9.6-4.4l-6.6-17.9c-1.4-3.9,0.6-8.1,4.4-9.6l17.9-6.6c3.9-1.4,8.1,0.6,9.6,4.4l5.6,15.2c0.2,0.6-0.3,1.1-0.9,1
			l-23.2-5.7c-0.4-0.1-0.8,0.3-0.6,0.7l4.9,13.4"/>
		<path fill="none" stroke="#FFFFFF" stroke-width="2" stroke-miterlimit="10" d="M249,37.6c0.2,3.2-1.7,6.3-4.9,7.5l-17.9,6.6
			c-3.9,1.4-8.1-0.6-9.6-4.4L210,29.3c-1.4-3.9,0.6-8.1,4.4-9.6l17.9-6.6c3.9-1.4,8.1,0.6,9.6,4.4l5.6,15.2c0.2,0.6-0.3,1.1-0.9,1
			l-23.2-5.7c-0.4-0.1-0.8,0.3-0.6,0.7l4.9,13.4"/>
		<path fill="none" stroke="#FFFFFF" stroke-width="2" stroke-miterlimit="10" d="M290.7,22.3c0.2,3.2-1.7,6.3-4.9,7.5l-17.9,6.6
			c-3.9,1.4-8.1-0.6-9.6-4.4L251.7,14c-1.4-3.9,0.6-8.1,4.4-9.6l17.9-6.6c3.9-1.4,8.1,0.6,9.6,4.4l5.6,15.2c0.2,0.6-0.3,1.1-0.9,1
			l-23.2-5.7c-0.4-0.1-0.8,0.3-0.6,0.7l4.9,13.4"/>
		<path fill="none" stroke="#FFFFFF" stroke-width="2" stroke-miterlimit="10" d="M332.4,7c0.2,3.2-1.7,6.3-4.9,7.5l-17.9,6.6
			c-3.9,1.4-8.1-0.6-9.6-4.4l-6.6-17.9c-1.4-3.9,0.6-8.1,4.4-9.6l17.9-6.6c3.9-1.4,8.1,0.6,9.6,4.4L331,2.3c0.2,0.6-0.3,1.1-0.9,1
			l-23.2-5.7c-0.4-0.1-0.8,0.3-0.6,0.7l4.9,13.4"/>
		<path fill="none" stroke="#FFFFFF" stroke-width="2" stroke-miterlimit="10" d="M374.1-8.3c0.2,3.2-1.7,6.3-4.9,7.5l-17.9,6.6
			c-3.9,1.4-8.1-0.6-9.6-4.4l-6.6-17.9c-1.4-3.9,0.6-8.1,4.4-9.6l17.9-6.6c3.9-1.4,8.1,0.6,9.6,4.4l5.6,15.2c0.2,0.6-0.3,1.1-0.9,1
			l-23.2-5.7c-0.4-0.1-0.8,0.3-0.6,0.7L353-3.6"/>
	</g>
	<g>
		<path fill="none" stroke="#FFFFFF" stroke-width="2" stroke-miterlimit="10" d="M-58.5,102.7c0.2,3.2-1.7,6.3-4.9,7.5l-17.9,6.6
			c-3.9,1.4-8.1-0.6-9.6-4.4l-6.6-17.9c-1.4-3.9,0.6-8.1,4.4-9.6l17.9-6.6c3.9-1.4,8.1,0.6,9.6,4.4l5.6,15.2c0.2,0.6-0.3,1.1-0.9,1
			L-84,93.3c-0.4-0.1-0.8,0.3-0.6,0.7l4.9,13.4"/>
		<path fill="none" stroke="#FFFFFF" stroke-width="2" stroke-miterlimit="10" d="M-16.8,87.4c0.2,3.2-1.7,6.3-4.9,7.5l-17.9,6.6
			c-3.9,1.4-8.1-0.6-9.6-4.4l-6.6-17.9c-1.4-3.9,0.6-8.1,4.4-9.6l17.9-6.6c3.9-1.4,8.1,0.6,9.6,4.4l5.6,15.2c0.2,0.6-0.3,1.1-0.9,1
			L-42.2,78c-0.4-0.1-0.8,0.3-0.6,0.7l4.9,13.4"/>
		<path fill="none" stroke="#FFFFFF" stroke-width="2" stroke-miterlimit="10" d="M25,72.1c0.2,3.2-1.7,6.3-4.9,7.5L2.2,86.2
			c-3.9,1.4-8.1-0.6-9.6-4.4L-14,63.8c-1.4-3.9,0.6-8.1,4.4-9.6l17.9-6.6c3.9-1.4,8.1,0.6,9.6,4.4l5.6,15.2c0.2,0.6-0.3,1.1-0.9,1
			l-23.2-5.7c-0.4-0.1-0.8,0.3-0.6,0.7l4.9,13.4"/>
		<path fill="none" stroke="#FFFFFF" stroke-width="2" stroke-miterlimit="10" d="M66.7,56.8c0.2,3.2-1.7,6.3-4.9,7.5l-17.9,6.6
			c-3.9,1.4-8.1-0.6-9.6-4.4l-6.6-17.9c-1.4-3.9,0.6-8.1,4.4-9.6l17.9-6.6c3.9-1.4,8.1,0.6,9.6,4.4l5.6,15.2c0.2,0.6-0.3,1.1-0.9,1
			l-23.2-5.7c-0.4-0.1-0.8,0.3-0.6,0.7l4.9,13.4"/>
		<path fill="none" stroke="#FFFFFF" stroke-width="2" stroke-miterlimit="10" d="M108.4,41.5c0.2,3.2-1.7,6.3-4.9,7.5l-17.9,6.6
			C81.7,57,77.5,55,76,51.2l-6.6-17.9c-1.4-3.9,0.6-8.1,4.4-9.6l17.9-6.6c3.9-1.4,8.1,0.6,9.6,4.4l5.6,15.2c0.2,0.6-0.3,1.1-0.9,1
			l-23.2-5.7c-0.4-0.1-0.8,0.3-0.6,0.7l4.9,13.4"/>
		<path fill="none" stroke="#FFFFFF" stroke-width="2" stroke-miterlimit="10" d="M150.1,26.2c0.2,3.2-1.7,6.3-4.9,7.5l-17.9,6.6
			c-3.9,1.4-8.1-0.6-9.6-4.4l-6.6-17.9c-1.4-3.9,0.6-8.1,4.4-9.6l17.9-6.6c3.9-1.4,8.1,0.6,9.6,4.4l5.6,15.2c0.2,0.6-0.3,1.1-0.9,1
			l-23.2-5.7c-0.4-0.1-0.8,0.3-0.6,0.7l4.9,13.4"/>
		<path fill="none" stroke="#FFFFFF" stroke-width="2" stroke-miterlimit="10" d="M191.8,11c0.2,3.2-1.7,6.3-4.9,7.5L169,25
			c-3.9,1.4-8.1-0.6-9.6-4.4l-6.6-17.9c-1.4-3.9,0.6-8.1,4.4-9.6l17.9-6.6c3.9-1.4,8.1,0.6,9.6,4.4l5.6,15.2c0.2,0.6-0.3,1.1-0.9,1
			l-23.2-5.7c-0.4-0.1-0.8,0.3-0.6,0.7l4.9,13.4"/>
		<path fill="none" stroke="#FFFFFF" stroke-width="2" stroke-miterlimit="10" d="M233.6-4.3c0.2,3.2-1.7,6.3-4.9,7.5l-17.9,6.6
			c-3.9,1.4-8.1-0.6-9.6-4.4l-6.6-17.9c-1.4-3.9,0.6-8.1,4.4-9.6l17.9-6.6c3.9-1.4,8.1,0.6,9.6,4.4l5.6,15.2c0.2,0.6-0.3,1.1-0.9,1
			l-23.2-5.7c-0.4-0.1-0.8,0.3-0.6,0.7l4.9,13.4"/>
		<path fill="none" stroke="#FFFFFF" stroke-width="2" stroke-miterlimit="10" d="M275.3-19.6c0.2,3.2-1.7,6.3-4.9,7.5l-17.9,6.6
			c-3.9,1.4-8.1-0.6-9.6-4.4L236.4-28c-1.4-3.9,0.6-8.1,4.4-9.6l17.9-6.6c3.9-1.4,8.1,0.6,9.6,4.4l5.6,15.2c0.2,0.6-0.3,1.1-0.9,1
			l-23.2-5.7c-0.4-0.1-0.8,0.3-0.6,0.7l4.9,13.4"/>
		<path fill="none" stroke="#FFFFFF" stroke-width="2" stroke-miterlimit="10" d="M317-34.9c0.2,3.2-1.7,6.3-4.9,7.5l-17.9,6.6
			c-3.9,1.4-8.1-0.6-9.6-4.4l-6.6-17.9c-1.4-3.9,0.6-8.1,4.4-9.6l17.9-6.6c3.9-1.4,8.1,0.6,9.6,4.4l5.6,15.2c0.2,0.6-0.3,1.1-0.9,1
			l-23.2-5.7c-0.4-0.1-0.8,0.3-0.6,0.7l4.9,13.4"/>
		<path fill="none" stroke="#FFFFFF" stroke-width="2" stroke-miterlimit="10" d="M358.7-50.2c0.2,3.2-1.7,6.3-4.9,7.5l-17.9,6.6
			c-3.9,1.4-8.1-0.6-9.6-4.4l-6.6-17.9c-1.4-3.9,0.6-8.1,4.4-9.6l17.9-6.6c3.9-1.4,8.1,0.6,9.6,4.4l5.6,15.2c0.2,0.6-0.3,1.1-0.9,1
			l-23.2-5.7c-0.4-0.1-0.8,0.3-0.6,0.7l4.9,13.4"/>
	</g>
	<g>
		<path fill="none" stroke="#FFFFFF" stroke-width="2" stroke-miterlimit="10" d="M-73.9,60.8c0.2,3.2-1.7,6.3-4.9,7.5l-17.9,6.6
			c-3.9,1.4-8.1-0.6-9.6-4.4l-6.6-17.9c-1.4-3.9,0.6-8.1,4.4-9.6l17.9-6.6c3.9-1.4,8.1,0.6,9.6,4.4l5.6,15.2c0.2,0.6-0.3,1.1-0.9,1
			l-23.2-5.7c-0.4-0.1-0.8,0.3-0.6,0.7l4.9,13.4"/>
		<path fill="none" stroke="#FFFFFF" stroke-width="2" stroke-miterlimit="10" d="M-32.2,45.5c0.2,3.2-1.7,6.3-4.9,7.5L-55,59.5
			c-3.9,1.4-8.1-0.6-9.6-4.4l-6.6-17.9c-1.4-3.9,0.6-8.1,4.4-9.6l17.9-6.6c3.9-1.4,8.1,0.6,9.6,4.4l5.6,15.2c0.2,0.6-0.3,1.1-0.9,1
			L-57.6,36c-0.4-0.1-0.8,0.3-0.6,0.7l4.9,13.4"/>
		<path fill="none" stroke="#FFFFFF" stroke-width="2" stroke-miterlimit="10" d="M9.6,30.2c0.2,3.2-1.7,6.3-4.9,7.5l-17.9,6.6
			c-3.9,1.4-8.1-0.6-9.6-4.4l-6.6-17.9c-1.4-3.9,0.6-8.1,4.4-9.6L-7,5.7c3.9-1.4,8.1,0.6,9.6,4.4l5.6,15.2c0.2,0.6-0.3,1.1-0.9,1
			l-23.2-5.7c-0.4-0.1-0.8,0.3-0.6,0.7l4.9,13.4"/>
		<path fill="none" stroke="#FFFFFF" stroke-width="2" stroke-miterlimit="10" d="M51.3,14.9c0.2,3.2-1.7,6.3-4.9,7.5l-17.9,6.6
			c-3.9,1.4-8.1-0.6-9.6-4.4L12.4,6.6c-1.4-3.9,0.6-8.1,4.4-9.6l17.9-6.6c3.9-1.4,8.1,0.6,9.6,4.4l5.6,15.2c0.2,0.6-0.3,1.1-0.9,1
			L25.8,5.4c-0.4-0.1-0.8,0.3-0.6,0.7l4.9,13.4"/>
		<path fill="none" stroke="#FFFFFF" stroke-width="2" stroke-miterlimit="10" d="M93-0.4c0.2,3.2-1.7,6.3-4.9,7.5l-17.9,6.6
			c-3.9,1.4-8.1-0.6-9.6-4.4L54.1-8.7c-1.4-3.9,0.6-8.1,4.4-9.6l17.9-6.6c3.9-1.4,8.1,0.6,9.6,4.4l5.6,15.2c0.2,0.6-0.3,1.1-0.9,1
			L67.5-9.9c-0.4-0.1-0.8,0.3-0.6,0.7l4.9,13.4"/>
		<path fill="none" stroke="#FFFFFF" stroke-width="2" stroke-miterlimit="10" d="M134.7-15.7c0.2,3.2-1.7,6.3-4.9,7.5l-17.9,6.6
			c-3.9,1.4-8.1-0.6-9.6-4.4L95.8-24c-1.4-3.9,0.6-8.1,4.4-9.6l17.9-6.6c3.9-1.4,8.1,0.6,9.6,4.4l5.6,15.2c0.2,0.6-0.3,1.1-0.9,1
			l-23.2-5.7c-0.4-0.1-0.8,0.3-0.6,0.7l4.9,13.4"/>
		<path fill="none" stroke="#FFFFFF" stroke-width="2" stroke-miterlimit="10" d="M176.5-31c0.2,3.2-1.7,6.3-4.9,7.5L153.7-17
			c-3.9,1.4-8.1-0.6-9.6-4.4l-6.6-17.9c-1.4-3.9,0.6-8.1,4.4-9.6l17.9-6.6c3.9-1.4,8.1,0.6,9.6,4.4l5.6,15.2c0.2,0.6-0.3,1.1-0.9,1
			L151-40.5c-0.4-0.1-0.8,0.3-0.6,0.7l4.9,13.4"/>
		<path fill="none" stroke="#FFFFFF" stroke-width="2" stroke-miterlimit="10" d="M218.2-46.3c0.2,3.2-1.7,6.3-4.9,7.5l-17.9,6.6
			c-3.9,1.4-8.1-0.6-9.6-4.4l-6.6-17.9c-1.4-3.9,0.6-8.1,4.4-9.6l17.9-6.6c3.9-1.4,8.1,0.6,9.6,4.4l5.6,15.2c0.2,0.6-0.3,1.1-0.9,1
			l-23.2-5.7c-0.4-0.1-0.8,0.3-0.6,0.7l4.9,13.4"/>
		<path fill="none" stroke="#FFFFFF" stroke-width="2" stroke-miterlimit="10" d="M259.9-61.6c0.2,3.2-1.7,6.3-4.9,7.5l-17.9,6.6
			c-3.9,1.4-8.1-0.6-9.6-4.4L221-69.9c-1.4-3.9,0.6-8.1,4.4-9.6l17.9-6.6c3.9-1.4,8.1,0.6,9.6,4.4l5.6,15.2c0.2,0.6-0.3,1.1-0.9,1
			l-23.2-5.7c-0.4-0.1-0.8,0.3-0.6,0.7l4.9,13.4"/>
		<path fill="none" stroke="#FFFFFF" stroke-width="2" stroke-miterlimit="10" d="M301.6-76.9c0.2,3.2-1.7,6.3-4.9,7.5l-17.9,6.6
			c-3.9,1.4-8.1-0.6-9.6-4.4l-6.6-17.9c-1.4-3.9,0.6-8.1,4.4-9.6l17.9-6.6c3.9-1.4,8.1,0.6,9.6,4.4l5.6,15.2c0.2,0.6-0.3,1.1-0.9,1
			l-23.2-5.7c-0.4-0.1-0.8,0.3-0.6,0.7l4.9,13.4"/>
		<path fill="none" stroke="#FFFFFF" stroke-width="2" stroke-miterlimit="10" d="M343.3-92.2c0.2,3.2-1.7,6.3-4.9,7.5l-17.9,6.6
			c-3.9,1.4-8.1-0.6-9.6-4.4l-6.6-17.9c-1.4-3.9,0.6-8.1,4.4-9.6l17.9-6.6c3.9-1.4,8.1,0.6,9.6,4.4l5.6,15.2c0.2,0.6-0.3,1.1-0.9,1
			l-23.2-5.7c-0.4-0.1-0.8,0.3-0.6,0.7l4.9,13.4"/>
	</g>
	<g>
		<path fill="none" stroke="#FFFFFF" stroke-width="2" stroke-miterlimit="10" d="M-89.3,18.8c0.2,3.2-1.7,6.3-4.9,7.5l-17.9,6.6
			c-3.9,1.4-8.1-0.6-9.6-4.4l-6.6-17.9c-1.4-3.9,0.6-8.1,4.4-9.6l17.9-6.6c3.9-1.4,8.1,0.6,9.6,4.4l5.6,15.2c0.2,0.6-0.3,1.1-0.9,1
			l-23.2-5.7c-0.4-0.1-0.8,0.3-0.6,0.7l4.9,13.4"/>
		<path fill="none" stroke="#FFFFFF" stroke-width="2" stroke-miterlimit="10" d="M-47.6,3.5c0.2,3.2-1.7,6.3-4.9,7.5l-17.9,6.6
			c-3.9,1.4-8.1-0.6-9.6-4.4l-6.6-17.9c-1.4-3.9,0.6-8.1,4.4-9.6l17.9-6.6c3.9-1.4,8.1,0.6,9.6,4.4L-49-1.3c0.2,0.6-0.3,1.1-0.9,1
			L-73-6c-0.4-0.1-0.8,0.3-0.6,0.7l4.9,13.4"/>
		<path fill="none" stroke="#FFFFFF" stroke-width="2" stroke-miterlimit="10" d="M-5.8-11.8c0.2,3.2-1.7,6.3-4.9,7.5l-17.9,6.6
			c-3.9,1.4-8.1-0.6-9.6-4.4l-6.6-17.9c-1.4-3.9,0.6-8.1,4.4-9.6l17.9-6.6c3.9-1.4,8.1,0.6,9.6,4.4l5.6,15.2c0.2,0.6-0.3,1.1-0.9,1
			l-23.2-5.7c-0.4-0.1-0.8,0.3-0.6,0.7L-27-7.2"/>
		<path fill="none" stroke="#FFFFFF" stroke-width="2" stroke-miterlimit="10" d="M35.9-27.1c0.2,3.2-1.7,6.3-4.9,7.5l-17.9,6.6
			c-3.9,1.4-8.1-0.6-9.6-4.4L-3-35.4c-1.4-3.9,0.6-8.1,4.4-9.6l17.9-6.6c3.9-1.4,8.1,0.6,9.6,4.4l5.6,15.2c0.2,0.6-0.3,1.1-0.9,1
			l-23.2-5.7c-0.4-0.1-0.8,0.3-0.6,0.7l4.9,13.4"/>
		<path fill="none" stroke="#FFFFFF" stroke-width="2" stroke-miterlimit="10" d="M77.6-42.4c0.2,3.2-1.7,6.3-4.9,7.5l-17.9,6.6
			c-3.9,1.4-8.1-0.6-9.6-4.4l-6.6-17.9c-1.4-3.9,0.6-8.1,4.4-9.6L61-66.9c3.9-1.4,8.1,0.6,9.6,4.4l5.6,15.2c0.2,0.6-0.3,1.1-0.9,1
			l-23.2-5.7c-0.4-0.1-0.8,0.3-0.6,0.7l4.9,13.4"/>
		<path fill="none" stroke="#FFFFFF" stroke-width="2" stroke-miterlimit="10" d="M119.3-57.7c0.2,3.2-1.7,6.3-4.9,7.5l-17.9,6.6
			c-3.9,1.4-8.1-0.6-9.6-4.4L80.4-66c-1.4-3.9,0.6-8.1,4.4-9.6l17.9-6.6c3.9-1.4,8.1,0.6,9.6,4.4l5.6,15.2c0.2,0.6-0.3,1.1-0.9,1
			l-23.2-5.7c-0.4-0.1-0.8,0.3-0.6,0.7l4.9,13.4"/>
		<path fill="none" stroke="#FFFFFF" stroke-width="2" stroke-miterlimit="10" d="M161.1-73c0.2,3.2-1.7,6.3-4.9,7.5L138.3-59
			c-3.9,1.4-8.1-0.6-9.6-4.4l-6.6-17.9c-1.4-3.9,0.6-8.1,4.4-9.6l17.9-6.6c3.9-1.4,8.1,0.6,9.6,4.4l5.6,15.2c0.2,0.6-0.3,1.1-0.9,1
			l-23.2-5.7c-0.4-0.1-0.8,0.3-0.6,0.7l4.9,13.4"/>
		<path fill="none" stroke="#FFFFFF" stroke-width="2" stroke-miterlimit="10" d="M202.8-88.3c0.2,3.2-1.7,6.3-4.9,7.5L180-74.3
			c-3.9,1.4-8.1-0.6-9.6-4.4l-6.6-17.9c-1.4-3.9,0.6-8.1,4.4-9.6l17.9-6.6c3.9-1.4,8.1,0.6,9.6,4.4l5.6,15.2c0.2,0.6-0.3,1.1-0.9,1
			l-23.2-5.7c-0.4-0.1-0.8,0.3-0.6,0.7l4.9,13.4"/>
		<path fill="none" stroke="#FFFFFF" stroke-width="2" stroke-miterlimit="10" d="M244.5-103.6c0.2,3.2-1.7,6.3-4.9,7.5l-17.9,6.6
			c-3.9,1.4-8.1-0.6-9.6-4.4l-6.6-17.9c-1.4-3.9,0.6-8.1,4.4-9.6l17.9-6.6c3.9-1.4,8.1,0.6,9.6,4.4l5.6,15.2c0.2,0.6-0.3,1.1-0.9,1
			L219-113c-0.4-0.1-0.8,0.3-0.6,0.7l4.9,13.4"/>
		<path fill="none" stroke="#FFFFFF" stroke-width="2" stroke-miterlimit="10" d="M286.2-118.9c0.2,3.2-1.7,6.3-4.9,7.5l-17.9,6.6
			c-3.9,1.4-8.1-0.6-9.6-4.4l-6.6-17.9c-1.4-3.9,0.6-8.1,4.4-9.6l17.9-6.6c3.9-1.4,8.1,0.6,9.6,4.4l5.6,15.2c0.2,0.6-0.3,1.1-0.9,1
			l-23.2-5.7c-0.4-0.1-0.8,0.3-0.6,0.7l4.9,13.4"/>
		<path fill="none" stroke="#FFFFFF" stroke-width="2" stroke-miterlimit="10" d="M327.9-134.2c0.2,3.2-1.7,6.3-4.9,7.5l-17.9,6.6
			c-3.9,1.4-8.1-0.6-9.6-4.4l-6.6-17.9c-1.4-3.9,0.6-8.1,4.4-9.6l17.9-6.6c3.9-1.4,8.1,0.6,9.6,4.4l5.6,15.2c0.2,0.6-0.3,1.1-0.9,1
			l-23.2-5.7c-0.4-0.1-0.8,0.3-0.6,0.7l4.9,13.4"/>
	</g>
</g>
<g>
	<g>
		<path fill="#FFFFFF" stroke="#222222" stroke-miterlimit="10" d="M224.8,465.1l-18.6-25.4v25.4h-2.5v-29.6h2.6l18.5,25.1v-25.1
			h2.5v29.6H224.8z"/>
	</g>
	<g>
		<path fill="#FFFFFF" stroke="#222222" stroke-miterlimit="10" d="M232.6,465.1v-19.7h12.9v2.2h-10.4v6.3h10.2v2.2h-10.2v6.8h10.4
			v2.2H232.6z"/>
		<path fill="#FFFFFF" stroke="#222222" stroke-miterlimit="10" d="M254.3,465.1v-17.5H248v-2.2H263v2.2h-6.3v17.5H254.3z"/>
		<path fill="#FFFFFF" stroke="#222222" stroke-miterlimit="10" d="M264.6,455.2c0-5.8,3.9-10.2,9.8-10.2c5.8,0,9.8,4.4,9.8,10.2
			c0,5.8-4,10.2-9.8,10.2C268.5,465.4,264.6,461.1,264.6,455.2z M281.6,455.2c0-4.6-2.8-8-7.2-8c-4.4,0-7.2,3.4-7.2,8
			c0,4.6,2.8,8,7.2,8C278.8,463.2,281.6,459.8,281.6,455.2z"/>
		<path fill="#FFFFFF" stroke="#222222" stroke-miterlimit="10" d="M288,465.1v-19.7h7.9c4,0,6.2,2.7,6.2,5.9c0,3.2-2.3,5.9-6.2,5.9
			h-5.5v7.8H288z M299.5,451.3c0-2.2-1.6-3.7-3.9-3.7h-5.2v7.5h5.2C297.9,455.1,299.5,453.5,299.5,451.3z"/>
		<path fill="#FFFFFF" stroke="#222222" stroke-miterlimit="10" d="M317.1,465.1l-1.7-4.4h-9.8l-1.7,4.4H301l7.9-19.7h3l7.9,19.7
			H317.1z M310.5,447.9l-4.2,10.6h8.4L310.5,447.9z"/>
		<path fill="#FFFFFF" stroke="#222222" stroke-miterlimit="10" d="M326.3,465.1v-8.3l-7.8-11.4h2.9l6.1,9.1l6.1-9.1h2.9l-7.7,11.4
			v8.3H326.3z"/>
	</g>
</g>
<path opacity="0.27" fill="none" stroke="#FFFFFF" stroke-width="7" stroke-miterlimit="10" d="M124.5,479.4
	c-2.3,7.6-9.3,13.2-17.7,13.2H59.5c-10.2,0-18.5-8.3-18.5-18.5v-47.3c0-10.2,8.3-18.5,18.5-18.5h47.3c10.2,0,18.5,8.3,18.5,18.5
	v40.2c0,1.5-1.7,2.4-2.9,1.5l-49.1-32.9c-0.8-0.6-2,0-2,1v35.5"/>
<g>
	<g>
		<path fill="#FFFFFF" d="M99.3,105.2V75.5h9.5c9.2,0,15,6.7,15,14.9c0,8.2-5.8,14.8-15,14.8H99.3z M121.1,90.4
			c0-6.9-4.4-12.5-12.3-12.5h-6.9v25h6.9C116.6,102.9,121.1,97.3,121.1,90.4z"/>
	</g>
	<g>
		<path fill="#FFFFFF" d="M128.3,105.6V85.9h2.5v19.7H128.3z"/>
		<path fill="#FFFFFF" d="M134.6,95.8c0-6.1,4.5-10.2,10.1-10.2c3.5,0,5.9,1.5,7.7,3.7l-1.9,1.2c-1.2-1.6-3.3-2.7-5.7-2.7
			c-4.3,0-7.6,3.3-7.6,8c0,4.7,3.3,8,7.6,8c2.4,0,4.3-1.2,5.3-2.1v-4h-6.8v-2.2h9.2v7.1c-1.8,2-4.5,3.4-7.7,3.4
			C139.1,106,134.6,101.9,134.6,95.8z"/>
		<path fill="#FFFFFF" d="M156.4,105.6V85.9h2.5v19.7H156.4z"/>
		<path fill="#FFFFFF" d="M168.4,105.6V88.1h-6.2v-2.2h14.9v2.2h-6.3v17.5H168.4z"/>
		<path fill="#FFFFFF" d="M192.4,105.6l-1.7-4.4h-9.8l-1.7,4.4h-2.8l7.9-19.7h3l7.9,19.7H192.4z M185.8,88.4L181.6,99h8.4
			L185.8,88.4z"/>
		<path fill="#FFFFFF" d="M197.8,105.6V85.9h2.5v17.5h9.2v2.2H197.8z"/>
	</g>
</g>
</svg>
