<?xml version="1.0" encoding="utf-8"?>
<!-- Generator: Adobe Illustrator 18.1.0, SVG Export Plug-In . SVG Version: 6.00 Build 0)  -->
<svg version="1.1" id="Layer_1" xmlns="http://www.w3.org/2000/svg" xmlns:xlink="http://www.w3.org/1999/xlink" x="0px" y="0px"
	 viewBox="0 0 500 500" enable-background="new 0 0 500 500" xml:space="preserve">
<g>
	<path d="M385.3,307.8c-2.1,20.9-4.1,41.7-6.3,62.5c-0.6,5.6-3.9,8.3-8.4,7.7c-4.4-0.6-6.6-4.1-5.7-9.8c4.9-31.8,6.3-63.6,3.1-95.6
		c-2.3-22.5-4.6-45.1-13.9-66.1c-19.8-44.9-66.9-72.1-114.8-66.3c-52.7,6.3-92.5,43.1-101.1,93.3c-2.9,16.9-0.3,33.4,2,50.1
		c1.8,12.4,1.4,25.2,1.3,37.8c0,2.7-1.9,6.1-3.9,8c-1.3,1.2-5.4,1.2-6.8,0c-2-1.6-3.5-4.8-3.6-7.4c-0.4-10.5,0.3-21-0.5-31.4
		c-0.7-9.4-3.2-18.7-3.9-28.1c-5-65.5,43.6-126.1,108.6-135.6c65.6-9.6,128.6,33.1,143.7,97.6C381.6,251.8,383.8,279.6,385.3,307.8z
		"/>
	<path d="M255.2,79c-84.8-2.1-159.2,57.2-175.3,140c-0.3,1.5-0.5,2.9-0.9,4.4c-1.1,4.3-4.5,6.8-8.3,6.1c-4-0.7-6.7-4.1-5.7-8.5
		c2.5-10.8,4.6-21.9,8.7-32.2c27-67.4,76-109.3,147.8-121.4c94.3-15.9,187.3,45.9,211.4,138.9c2.7,10.6,4.4,21.5,6.2,32.3
		c1,5.6-1.4,9.1-5.9,9.6c-4.6,0.5-7.4-2.2-8.3-7.9c-3.7-24.1-9-47.8-21-69.3c-28.5-51.3-71.7-81.5-129.9-90.1
		C267.8,80,261.5,79.6,255.2,79z"/>
	<path d="M293.4,304.5c-0.8,72.5-21.9,135.2-63.9,190.9c-0.9,1.2-1.8,2.5-2.9,3.4c-2.9,2.5-6.1,2.6-9.1,0.3c-3-2.4-3.5-5.6-1.9-9
		c0.7-1.5,1.9-2.7,2.9-4.1c42-55.8,62.6-118.5,60.2-188.3c-0.6-17.5-3.8-35-6.9-52.3c-2.1-11.5-14.1-17.3-26.7-14.4
		c-12,2.7-19.3,12.7-17.2,24.1c6.1,33.7,7.3,67.5,0.2,101.3c-0.2,0.8-0.2,1.7-0.5,2.5c-1.3,4.6-4.9,7-8.8,6.1c-4-1-6-4.6-5.3-9.3
		c1.6-11,3.5-22,4.4-33.1c1.7-20.9-0.3-41.5-4.3-62.1c-3.7-18.9,9.5-38.7,27.9-43.3c18.2-4.5,39.1,6.6,44.4,25
		c3.2,11.2,4.5,23.1,5.8,34.8C292.9,286.9,293,297.1,293.4,304.5z"/>
	<path d="M45,252.5c1.8,14.2,3.5,28.3,5.6,42.5c3.1,21.3-1.9,40.3-15.8,56.9c-3.7,4.5-7.7,5.1-11.2,2.1c-3.5-2.9-3.4-7,0.2-11.4
		c1.3-1.5,2.6-3.1,3.7-4.7c7.8-10.9,10.9-23.1,9.3-36.4c-1.2-9.7-3.3-19.4-4-29.1c-4.7-59.8,12.5-113,50.6-159
		c34.7-41.9,79.5-67.1,133.3-76c20-3.3,40.1-3.4,60.3-1.1c1.2,0.1,2.3,0.3,3.4,0.6c4,1,6,3.7,5.5,7.7c-0.5,4-3,6.4-7.1,6.3
		c-4.1-0.1-8.3-0.9-12.4-1.1C184.6,46.1,120.6,77.7,76,146.7C55.3,178.6,46.4,214.4,45,252.5z"/>
	<path d="M475,316.3c-0.9,11.2-2.3,30.6-3.9,50c-0.5,5.7-3.5,8.4-8.1,7.9c-4.4-0.5-6.3-3.6-6.1-9.2c1.1-23.9,3-47.9,3-71.8
		c0-25.6-3.7-51-8.5-76.3c-6.5-34.6-20.4-65.6-42.6-92.9c-24.6-30.2-55.7-51.2-92.4-63.9c-0.8-0.3-1.6-0.5-2.4-0.8
		c-5.3-1.9-7.4-5.5-5.8-9.8c1.4-3.9,5.4-5.4,10.4-3.7c29.2,9.6,55.2,24.8,78,45.4c32.7,29.6,54.9,65.7,65.8,108.6
		C471.4,235.1,474.3,271.4,475,316.3z"/>
	<path d="M248.5,155.4c3,0.1,6,0.2,9,0.4c4.5,0.4,7.4,3.4,7.3,7.3c-0.1,4.1-3.4,7.1-8.1,6.9c-11.4-0.6-22.6,0.8-33.5,4.4
		c-36.5,12.3-59.3,46.5-56.1,84.9c1.1,13.7,4.5,27.3,4.9,41c1.6,58.8-19.9,108.1-63,148c-4.7,4.3-9,4.5-12.1,0.6
		c-2.9-3.6-2.1-7.3,2.3-11.2c19.2-17.1,34.2-37.2,44.5-60.8c13.4-30.7,17.9-62.7,12.2-95.7c-3.2-18.5-4.7-36.5,0.8-54.7
		C169.1,185.1,205.3,157,248.5,155.4z"/>
	<path d="M353.8,307.2c-0.5,65.6-16.7,127-49.2,184.1c-0.7,1.3-1.4,2.7-2.4,3.8c-2.5,2.8-5.5,3.7-8.9,1.8c-3.4-1.9-4.4-4.9-3.4-8.5
		c0.4-1.4,1.3-2.7,2-4c35-61.2,51-127,46.7-197.3c-1.2-19.2-4.1-38.4-8.3-57.2c-4.7-20.7-17.7-36.2-35.8-47.4
		c-1.4-0.9-2.9-1.6-4.2-2.7c-3.1-2.6-3.9-5.9-1.8-9.3c2.1-3.4,5.3-4.5,9.1-2.8c1.7,0.7,3.3,1.7,4.8,2.7
		c26.1,17.2,41.5,41.3,45.6,72.2c2.8,21.4,4.8,43,7.2,64.5C354.7,307.1,354.3,307.2,353.8,307.2z"/>
	<path d="M250.7,4.4c37.6,0.4,73.3,8.4,107.1,24.7c2.4,1.2,4.9,3.7,5.8,6.1c0.6,1.7-0.6,5.5-2.2,6.4c-2.2,1.3-5.8,1.8-8.2,1
		c-8-2.8-15.5-6.8-23.5-9.7c-95.3-34.7-203-3.2-264.8,77.3c-1.3,1.7-2.5,3.5-3.9,5.2c-2.8,3.2-6.2,3.8-9.8,1.5
		c-3.5-2.3-4.3-6.4-1.6-10.1c4.6-6.1,9.2-12.3,14.4-17.9c43.7-48.3,97.9-76.3,162.9-83C234.7,5,242.7,4.8,250.7,4.4z"/>
	<path d="M414.2,299.7c-0.1,59.7-9.1,109.7-27.2,158.1c-0.9,2.4-2.3,5.3-4.3,6.3c-2.1,1-5.6,0.7-7.8-0.5c-3-1.6-3.4-4.9-2.3-8.4
		c4.3-13.1,9.1-26.1,12.7-39.4c17.1-62.8,19.2-126,6.3-189.9c-4.1-20.3-11.8-38.7-23.6-55.6c-3.4-4.8-3-9.2,0.8-11.8
		c3.7-2.5,7.6-1.3,11,3.4c15.2,21.5,24,45.4,28.1,71.3C411.8,257.9,414.4,282.7,414.2,299.7z"/>
	<path d="M163.7,136.3c-2.4,2.8-3.9,5.3-6.1,7.2c-23.6,20.2-39.6,45.2-47,75.4c-5.1,20.5-4.9,41-1.2,61.8
		c8.8,49.5-5.8,91.3-43.4,124.9c-1.8,1.6-4.5,3.3-6.5,3c-2.4-0.3-5.1-2.3-6.5-4.4c-2-3-0.3-6,2.2-8.4c4.8-4.6,10-8.9,14.3-13.9
		c21.8-25.1,30.9-54.3,27.3-87.3c-1.1-9.7-3.5-19.3-4.1-29c-3.2-53.8,16-98.3,56.3-133.8c2.8-2.5,6-4.2,9.4-1.9
		C160.5,131.2,161.7,133.7,163.7,136.3z"/>
	<path d="M263.4,299.4c-1.4,77.2-23.9,138.2-68.6,190.9c-3.6,4.3-7.8,5.1-11.2,2.3c-3.6-2.9-3.5-7.3,0.3-11.8
		c31.3-36.4,51.7-78,60.5-125.2c6.2-33,5.6-65.9-0.6-98.8c-1.1-5.9,1-9.6,5.5-10.4c4.4-0.8,7.8,2.2,8.6,8.1
		C260.2,272.1,262.3,289.8,263.4,299.4z"/>
	<path d="M499.6,245.6c0,3.8,0.1,7.7,0,11.5c-0.2,5.3-3,8.4-7.2,8.5c-4.4,0-7.3-3.3-7.2-8.9c0.5-31.9-5.6-62.6-17.6-92.1
		C451.1,124.1,425,91,389.9,65c-1.2-0.9-2.4-1.8-3.6-2.7c-4.5-3.4-5.4-7.4-2.6-11.1c2.6-3.4,6.8-3.7,11.1-0.6
		c27.1,19.3,49.4,43.1,67,71.3C485.2,159.8,497.8,201,499.6,245.6z"/>
	<path d="M323.7,294.6c0,3.3,0,6.7,0,10c0,5.8-2.9,9.4-7.5,9.3c-4.4-0.1-7.1-3.5-7.1-9.1c-0.1-20-2.2-39.9-6-59.5
		c-4-20.7-14.9-35.7-35.4-42.6c-29.7-9.9-60.9,7.2-68.9,37.3c-0.5,2-1.1,5-2.5,5.7c-2.5,1.3-6,2.2-8.5,1.5c-3.6-1-4.5-4.7-3.6-8.3
		c2.7-11.6,8-21.9,16.1-30.6c17.9-18.9,39.6-26.9,65.2-20.4c26.1,6.6,44.1,23,50.4,49.4c4.4,18.7,5.9,38,8.7,57.1
		C324.3,294.5,324,294.6,323.7,294.6z"/>
	<path d="M203,304.9c-1.5,63.6-23.4,116.6-67.5,160.2c-0.4,0.4-0.7,0.7-1.1,1c-4,3.7-8.3,4-11.4,0.7c-3-3.2-2.5-7.1,1.2-11
		c5.6-5.9,11.5-11.6,16.7-17.9c37.3-45.4,52.3-97.5,45.8-155.9c-0.7-6.1,1.4-9.6,6-10.1c4.7-0.5,7.8,2.5,8.3,8.4
		C201.8,289.1,202.4,297.9,203,304.9z"/>
	<path d="M33.3,136.2c7.5-0.1,10.5,5.4,8.1,11.2c-4.1,9.6-8.7,19.1-12.2,28.9c-15.2,43.1-17.2,86.9-6.7,131.3c0.5,2.2,1,5.1-0.1,6.7
		c-1.4,2-4.2,4-6.6,4.2c-3.6,0.4-5.9-2.2-6.9-5.9c-4.5-17.3-6.7-34.9-7.1-52.8c-1-41.2,7.6-80.3,26-117.2
		C29.2,139.8,32,137.7,33.3,136.2z"/>
	<path d="M243.3,94.9c42.7,0.7,75.3,11.5,104.1,33.3c1.3,1,2.7,2,3.8,3.2c2.8,2.9,3.1,6.3,0.6,9.5c-2.5,3.2-5.8,3.8-9.3,1.8
		c-1.3-0.7-2.4-1.8-3.6-2.7c-45.1-33.6-93.7-39.2-145.7-18.6c-0.8,0.3-1.5,0.7-2.3,1c-4.6,1.8-8.3,0.5-10.1-3.4
		c-1.8-3.8-0.3-7.9,4.2-9.7c8.2-3.2,16.4-6.8,24.9-8.7C223.1,97.7,236.5,96.1,243.3,94.9z"/>
	<path d="M321.3,346.5c-2.5,21.7-7.3,43.6-14.2,65.1c-9.7,30.1-23.4,58.3-40.9,84.6c-0.9,1.4-1.8,2.9-3,4c-2.8,2.6-6,2.9-9.1,0.8
		c-3.1-2.2-4-5.2-2.4-8.8c0.5-1.2,1.3-2.3,2.1-3.4c29.1-43.5,46.8-91.2,53.2-143.2c0.6-5.3,3.5-8,7.9-7.6
		C319,338.2,321.5,341.3,321.3,346.5z"/>
	<path d="M429.2,310.8c0-9.7,0.1-19.3,0-29c-0.1-6,2.2-9.5,6.7-9.8c4.6-0.3,7.6,2.9,7.9,8.9c2.5,48.4-1.9,96.1-14.3,143
		c-1.4,5.4-5,8-9.2,6.9c-4.5-1.2-6.2-5.1-4.7-10.9C424.9,384.1,429.8,347.8,429.2,310.8z"/>
	<path d="M82,306.3c-0.9,29.2-11.2,53.9-32.4,73.7c-0.8,0.8-1.7,1.6-2.6,2.3c-3.5,2.5-7,2.3-9.8-0.9c-2.8-3.2-2.5-6.8,0.4-9.9
		c2.8-2.9,5.9-5.4,8.6-8.4c18.6-21,24.7-45.3,19.5-72.8c-1.7-9-2.6-18.1-3.4-27.2c-0.6-5.9,2.3-9.4,6.9-9.6c4.4-0.1,6.9,2.9,7.6,8.7
		c1.5,12.2,3.2,24.3,4.7,36.5C81.7,301.3,81.8,304,82,306.3z"/>
	<path d="M158.1,483.5c-7-0.2-10.2-6.2-7.3-10.9c0.9-1.5,2.3-2.8,3.6-4.1c20.2-21.4,35.8-45.7,46.9-73c0.6-1.5,1.2-3.1,2.1-4.5
		c2-3,5.1-3.8,8.3-2.7c3.4,1.2,4.9,3.9,4.6,7.4c-0.1,1.3-0.6,2.6-1.1,3.8c-12,30.2-29.4,56.9-51.8,80.4
		C161.7,481.6,159.2,482.8,158.1,483.5z"/>
	<path d="M78.9,432.5c-2.1-1.9-5.3-3.5-5.7-5.6c-0.5-2.6,0.5-6.3,2.3-8.3c5.5-6.2,12.1-11.5,17.6-17.6
		c10.5-11.8,18.3-25.3,24.4-39.8c1-2.4,3.1-5,5.4-5.8c2-0.7,6,0.3,7,1.8c1.4,2.2,2,6.1,1.1,8.6c-7.7,20.2-19.5,37.8-34.7,53.2
		c-3.5,3.6-7.2,6.9-11,10.1C83.6,430.3,81.5,431,78.9,432.5z"/>
	<path d="M361.6,401.4c6.5,0.1,10.1,4.3,8.9,8.9c-6.5,24.8-15.5,48.7-26.8,71.8c-1.9,3.9-6.1,5.2-9.7,3.5c-3.5-1.7-5.1-5.8-3.2-9.8
		c10.5-22.1,19.1-44.9,25.7-68.5C357.3,404.6,360.4,402.7,361.6,401.4z"/>
</g>
</svg>
