<svg version="1.1" id="Layer_1" xmlns="http://www.w3.org/2000/svg" xmlns:xlink="http://www.w3.org/1999/xlink" x="0px" y="0px"
	 viewBox="0 0 230 230" style="enable-background:new 0 0 230 230;" xml:space="preserve">
<circle style="fill:none;stroke:#666;stroke-width:2;stroke-miterlimit:10;" cx="115.5" cy="115.1" r="109.3"/>
<path style="fill:#666;" d="M158.7,147c-2.4,7.3-9.3,12.4-17,12.4H89.4c-9.9,0-17.9-8-17.9-17.9V89.2c0-9.9,8-17.9,17.9-17.9h52.3
	c9.9,0,17.9,8,17.9,17.9v43.6l-53.5-35.9c-1.2-0.8-2.7-0.9-4-0.3c-1.3,0.7-2.1,2-2.1,3.5v39.2h5v-37.1l52.5,35.2
	c1.4,0.9,3.2,1,4.7,0.2c1.5-0.8,2.4-2.3,2.4-4V89.2c0-12.6-10.3-22.9-22.9-22.9H89.4c-12.6,0-22.9,10.3-22.9,22.9v52.3
	c0,12.6,10.3,22.9,22.9,22.9h52.3c9.7,0,18.4-6.2,21.6-15.2L158.7,147z"/>
</svg>