<?xml version="1.0" encoding="utf-8"?>
<!-- Generator: Adobe Illustrator 18.1.0, SVG Export Plug-In . SVG Version: 6.00 Build 0)  -->
<svg version="1.1" id="Layer_2" xmlns="http://www.w3.org/2000/svg" xmlns:xlink="http://www.w3.org/1999/xlink" x="0px" y="0px"
	 viewBox="0 0 430 250" enable-background="new 0 0 430 250" xml:space="preserve">
<polygon fill="#F6ED54" points="138.1,105 140.6,112.6 148.6,112.6 142.1,117.4 144.6,125 138.1,120.3 131.6,125 134.1,117.4 
	127.6,112.6 135.6,112.6 "/>
<polygon fill="#F6ED54" points="143.2,146.1 149.1,151.5 156.1,147.4 152.8,154.8 158.8,160.2 150.8,159.3 147.5,166.7 145.9,158.8 
	137.9,158 144.8,153.9 "/>
<polygon fill="#F6ED54" points="168.1,179.1 176,180.8 180,173.8 180.9,181.8 188.7,183.5 181.4,186.8 182.2,194.8 176.8,188.8 
	169.5,192.1 173.5,185.1 "/>
<polygon fill="#F6ED54" points="206.3,195.3 213.9,192.8 213.9,184.7 218.7,191.2 226.3,188.8 221.6,195.3 226.3,201.8 218.7,199.3 
	213.9,205.8 213.9,197.8 "/>
<polygon fill="#F6ED54" points="247.4,190.2 252.8,184.2 248.7,177.2 256.1,180.5 261.5,174.5 260.6,182.5 268,185.8 260.1,187.5 
	259.3,195.5 255.3,188.5 "/>
<polygon fill="#F6ED54" points="280.4,165.2 282.1,157.3 275.1,153.3 283.1,152.5 284.8,144.6 288.1,152 296.1,151.1 290.1,156.5 
	293.4,163.8 286.4,159.8 "/>
<polygon fill="#F6ED54" points="296.6,127.1 294.1,119.4 286.1,119.4 292.6,114.7 290.1,107 296.6,111.8 303.1,107 300.6,114.7 
	307.1,119.4 299.1,119.4 "/>
<polygon fill="#F6ED54" points="228.4,36.8 220.7,39.3 220.7,47.3 216,40.8 208.3,43.3 213.1,36.8 208.3,30.3 216,32.7 220.7,26.2 
	220.7,34.3 "/>
<polygon fill="#F6ED54" points="187.3,41.9 181.9,47.8 185.9,54.8 178.6,51.5 173.2,57.5 174,49.5 166.7,46.2 174.5,44.6 
	175.4,36.6 179.4,43.5 "/>
<polygon fill="#F6ED54" points="154.2,66.8 152.5,74.7 159.5,78.7 151.5,79.6 149.8,87.4 146.6,80.1 138.6,80.9 144.5,75.5 
	141.3,68.2 148.2,72.2 "/>
</svg>
