
<svg version="1.1" id="Layer_1" xmlns="http://www.w3.org/2000/svg" xmlns:xlink="http://www.w3.org/1999/xlink" x="0px" y="0px"
	 viewBox="0 0 165 40" style="enable-background:new 0 0 165 40;" xml:space="preserve">
<g>
	<g>
		<path style="fill:#4D4D4D;" d="M63.3,14c-1.1,8.2-2.3,16.2-3.4,24.3c-2.4,0-4.6,0-6.9,0c-2.7-5.7-5.4-11.4-8.1-17.2
			c-0.1,0-0.2,0-0.3,0c-1,5.7-1.6,11.4-2.5,17.2c-1.7,0-3.3,0-5.2,0c1.1-8,2.2-16,3.4-24.2c2.3,0,4.7,0,7.2,0
			c2.6,5.5,5.3,11.1,7.9,16.8c0.1,0,0.2,0,0.3,0c0.8-5.6,1.6-11.2,2.4-16.8C59.8,14,61.5,14,63.3,14z"/>
		<path style="fill:#4D4D4D;" d="M93,13.9c2.3,0,4.5,0,6.9,0c-4.2,3.8-8.3,7.5-12.4,11.3c3.3,4.3,6.5,8.6,9.9,13c-2.5,0-4.9,0-7.4,0
			c-2.6-3.7-5.4-7.5-8.1-11.2c-0.1,0-0.2,0-0.3,0c-0.7,3.7-1.1,7.4-1.6,11.2c-1.8,0-3.5,0-5.2,0C75.9,30.1,77,22,78.2,14
			c1.9,0,3.5,0,5.2,0c-0.5,3.3-0.9,6.5-1.3,9.7c0.1,0.1,0.2,0.1,0.3,0.2C85.9,20.5,89.4,17.2,93,13.9z"/>
		<path style="fill:#4D4D4D;" d="M156.5,18.5c-0.9,6.6-1.8,13.1-2.8,19.7c-1.7,0-3.3,0-5.2,0c0.9-6.5,1.8-13,2.7-19.6
			c-2.3,0-4.5,0-6.8,0c-0.3-1.6,0.5-3.1,0.3-4.7c6.4,0,12.7,0,19.2,0c0.2,1.5-0.5,3-0.4,4.6C161.2,18.5,159,18.5,156.5,18.5z"/>
		<path style="fill:#4D4D4D;" d="M68.1,32.3c1.6,0,2.8,1.1,2.8,2.6c0,1.9-1.7,3.5-3.6,3.5c-1.6,0-2.6-1-2.6-2.6
			C64.7,33.8,66.1,32.3,68.1,32.3z"/>
		<path style="fill:#4D4D4D;" d="M114.1,27.9c2.5-0.7,4.3-2.2,5.2-4.7c0.4-1.2,0.6-2.5,0.5-3.8c-0.1-2-1-3.5-2.8-4.4
			c-1.5-0.8-3.1-1-4.7-1.1c-3-0.1-6.1,0-9.1,0c-0.3,0-0.7-0.1-0.9,0.1c-1.1,8.1-2.3,16.2-3.4,24.2c1.8,0,3.5,0,5.2,0
			c0.5-3.3,0.9-6.5,1.4-9.7c1,0,1.6,0,2.7,0c1.2,3.2,2.6,6.5,3.8,9.8c2.1,0,4.1,0,6.3,0c-1.6-3.4-3.2-6.8-4.7-10.1
			C113.6,28.1,113.9,27.9,114.1,27.9z M112.9,23.5c-0.7,0.5-1.5,0.4-2.3,0.5c-1.4,0.2-2.9,0.1-4.5,0.1c0.2-2,0.4-3.8,0.9-5.8
			c2.1,0,4-0.3,5.9,0.4c0.8,0.3,1.5,0.9,1.5,1.9C114.5,21.9,113.9,22.8,112.9,23.5z"/>
		<path style="fill:#4D4D4D;" d="M137.3,13.9c-1.5,0-2.8,0-4.3,0c-4.6,8-9.2,16.1-13.9,24.3c2.1,0,3.9,0,5.8,0
			c0.9-1.7,1.8-3.4,2.7-5.1c3.3,0,6.5,0,9.7,0c0.5,1.8,0.9,3.4,1.4,5c2,0,3.9,0,5.9,0C142,30,139.7,22,137.3,13.9z M135.8,28.7
			c-1.9,0-3.8,0-6,0c1.4-2.6,2.6-5,3.9-7.4C134.3,21.7,135.9,27.6,135.8,28.7z"/>
	</g>
	<g>
		<path style="fill:#4D4D4D;" d="M14.8,0.1C15,0,15.1,0.3,15.2,0.4c3.2,6.1,6.4,12.3,8.6,18.9c0.2,0.5,0.3,1,0.5,1.6
			c0.7,2.1,0.4,4.1-0.7,5.9c-3.5,5.8-8,10.2-14.6,12.3c-0.7,0.2-1.4,0.4-2.2,0.3C15.5,27.6,16.4,14.1,14.8,0.1z"/>
		<path style="fill:#4D4D4D;" d="M12.5,24.5C10,18.6,5.9,13.9,1.7,9.3c0.3-0.1,0.6-0.1,0.9,0.1c3.5,1.5,7,3.1,10.4,4.7
			c0.6,0.3,1,0.7,1,1.4C14,18.5,13.7,21.5,12.5,24.5z"/>
		<path style="fill:#4D4D4D;" d="M25.8,21.3c-0.8-2-1.5-3.8-2.2-5.6c-0.2-0.5,0.1-0.6,0.4-0.9c1.5-1.3,3.2-1.6,5.1-1.1
			c1.1,0.3,2,0.7,3,1.5C28.7,15.9,26.8,18,25.8,21.3z"/>
	</g>
</g>
</svg>
