<svg version="1.1" id="Layer_1" xmlns="http://www.w3.org/2000/svg" xmlns:xlink="http://www.w3.org/1999/xlink" x="0px" y="0px"
	 viewBox="0 0 350 230" style="enable-background:new 0 0 350 230;" xml:space="preserve">
<line style="fill:none;stroke:#D1D1D1;stroke-miterlimit:10;"  x1="27" y1="222.5" x2="343" y2="222.5"/>
<line style="fill:none;stroke:#EDEDED;stroke-miterlimit:10;" x1="27" y1="201.5" x2="343" y2="201.5"/>
<line style="fill:none;stroke:#EDEDED;stroke-miterlimit:10;" x1="27" y1="179.5" x2="343" y2="179.5"/>
<line style="fill:none;stroke:#EDEDED;stroke-miterlimit:10;" x1="27" y1="158.5" x2="343" y2="158.5"/>
<line style="fill:none;stroke:#EDEDED;stroke-miterlimit:10;" x1="27" y1="136.5" x2="343" y2="136.5"/>
<line style="fill:none;stroke:#EDEDED;stroke-miterlimit:10;" x1="27" y1="114.5" x2="343" y2="114.5"/>
<line style="fill:none;stroke:#EDEDED;stroke-miterlimit:10;" x1="27" y1="93.5" x2="343" y2="93.5"/>
<line style="fill:none;stroke:#EDEDED;stroke-miterlimit:10;" x1="27" y1="72.5" x2="343" y2="72.5"/>
<line style="fill:none;stroke:#EDEDED;stroke-miterlimit:10;" x1="27" y1="50.5" x2="343" y2="50.5"/>
<line style="fill:none;stroke:#EDEDED;stroke-miterlimit:10;" x1="27" y1="29.5" x2="343" y2="29.5"/>


<rect x="65.2" y="158" id="rect_1" class="pullUp" style="fill:#fbb73f;" width="38" height="64.2"/>
<rect x="134.7" y="115.2" id="rect_1" class="pullUp" style="fill:#063E58;" width="38" height="106.9"/>
<rect x="204.2" y="93.9" id="rect_1" class="pullUp" style="fill:#48a9d6;" width="38" height="128.3"/>
<rect x="273.7" y="29.7" id="rect_1" class="pullUp" style="fill:#f76449;" width="38" height="192.5"/>

<text transform="matrix(1 0 0 1 6.546 204.67)" style="fill:#B3B3B3; font-family:'Roboto'; font-weight: 100; font-size:11.0681;">01</text>
<text transform="matrix(1 0 0 1 6.546 183.547)" style="fill:#B3B3B3; font-family:'Roboto'; font-weight: 100; font-size:11.0681;">02</text>
<text transform="matrix(1 0 0 1 6.546 162.4239)" style="fill:#B3B3B3; font-family:'Roboto'; font-weight: 100; font-size:11.0681;">03</text>
<text transform="matrix(1 0 0 1 6.546 140.5098)" style="fill:#B3B3B3; font-family:'Roboto'; font-weight: 100; font-size:11.0681;">04</text>
<text transform="matrix(1 0 0 1 6.546 118.9903)" style="fill:#B3B3B3; font-family:'Roboto'; font-weight: 100; font-size:11.0681;">05</text>
<text transform="matrix(1 0 0 1 6.546 97.4718)" style="fill:#B3B3B3; font-family:'Roboto'; font-weight: 100; font-size:11.0681;">06</text>
<text transform="matrix(1 0 0 1 6.546 76.3492)" style="fill:#B3B3B3; font-family:'Roboto'; font-weight: 100; font-size:11.0681;">07</text>
<text transform="matrix(1 0 0 1 6.546 54.8302)" style="fill:#B3B3B3; font-family:'Roboto'; font-weight: 100; font-size:11.0681;">08</text>
<text transform="matrix(1 0 0 1 6.546 34.8956)" style="fill:#B3B3B3; font-family:'Roboto'; font-weight: 100; font-size:11.0681;">09</text>
</svg>
