<svg version="1.1" id="Layer_1" xmlns="http://www.w3.org/2000/svg" xmlns:xlink="http://www.w3.org/1999/xlink" x="0px" y="0px"
	 viewBox="0 0 77 77" style="enable-background:new 0 0 77 77;" xml:space="preserve">
<g>
	<g>
		<path style="fill:#FFFFFF;" d="M38.7,76.7c-21.2,0-38.4-17.2-38.4-38.4S17.6,0,38.7,0c21.2,0,38.4,17.2,38.4,38.4
			S59.9,76.7,38.7,76.7z M38.7,2C18.7,2,2.4,18.3,2.4,38.3s16.3,36.4,36.4,36.4s36.4-16.3,36.4-36.4S58.8,2,38.7,2z"/>
	</g>
	<g>
		<path style="fill:#FFFFFF;" d="M38.7,61.7l-0.4-0.2c-0.7-0.3-17.9-8.1-17.9-18.3l-0.7-21.9l19-4.1l19,4.1l-0.7,21.9
			c0,10.1-17.2,17.9-17.9,18.2L38.7,61.7z M21.8,23l0.7,20.2c0,8.1,13.8,15,16.3,16.3c2.6-1.2,16.3-8.2,16.3-16.2L55.7,23l-17-3.7
			L21.8,23z"/>
	</g>
</g>
</svg>