<?xml version="1.0" encoding="utf-8"?>
<!-- Generator: Adobe Illustrator 18.1.0, SVG Export Plug-In . SVG Version: 6.00 Build 0)  -->
<svg version="1.1" id="Layer_1" xmlns="http://www.w3.org/2000/svg" xmlns:xlink="http://www.w3.org/1999/xlink" x="0px" y="0px"
	 viewBox="0 0 200 50" enable-background="new 0 0 200 50" xml:space="preserve">
<g>
	<path fill="#B3B3B3" d="M80,8.8H81l3.5,4.5V8.8h1.1v6.5h-1l-3.6-4.6v4.6H80V8.8z"/>
	<path fill="#B3B3B3" d="M87.3,8.8h4.8v1h-3.7v1.7h3.2v1h-3.2v1.7h3.7v1h-4.8V8.8z"/>
	<path fill="#B3B3B3" d="M95.1,9.8H93V8.8h5.3v1.1h-2.1v5.4h-1.1V9.8z"/>
	<path fill="#B3B3B3" d="M98.8,12c0-1.8,1.4-3.3,3.4-3.3c2,0,3.4,1.5,3.4,3.3c0,1.8-1.4,3.3-3.4,3.3C100.2,15.3,98.8,13.8,98.8,12z
		 M104.4,12c0-1.3-0.9-2.3-2.2-2.3c-1.3,0-2.2,1-2.2,2.3c0,1.3,0.9,2.3,2.2,2.3C103.5,14.3,104.4,13.3,104.4,12z"/>
	<path fill="#B3B3B3" d="M107,8.8h2.6c1.5,0,2.5,0.9,2.5,2.2c0,1.5-1.2,2.2-2.6,2.2h-1.3v2.1H107V8.8z M109.4,12.1
		c0.9,0,1.4-0.5,1.4-1.2c0-0.8-0.5-1.2-1.4-1.2h-1.3v2.3H109.4z"/>
	<path fill="#B3B3B3" d="M114.8,8.7h1.1l2.8,6.5h-1.2l-0.7-1.6h-3.1l-0.7,1.6h-1.2L114.8,8.7z M116.4,12.7l-1.1-2.6l-1.1,2.6H116.4z
		"/>
	<path fill="#B3B3B3" d="M120.7,12.7l-2.6-3.9h1.3l1.8,2.9l1.8-2.9h1.3l-2.6,3.9v2.6h-1.1V12.7z"/>
</g>
<path fill="none" stroke="#B3B3B3" stroke-width="3" stroke-miterlimit="10" d="M35.2,37.1c-0.9,3-3.7,5.2-7,5.2H9.6
	c-4,0-7.3-3.2-7.3-7.3V16.5c0-4,3.2-7.3,7.3-7.3h18.6c4,0,7.3,3.2,7.3,7.3v15.8c0,0.6-0.6,0.9-1.1,0.6L15.1,20
	c-0.3-0.2-0.8,0-0.8,0.4v13.9"/>
<g>
	<g>
		<path fill="#FF4F55" d="M44.6,26c0-10.7,7.8-18.1,17.7-18.1c5.5,0,9.7,2.5,12.7,6.2l-2.5,1.6c-2.2-3-6-5.1-10.2-5.1
			c-8.2,0-14.6,6.2-14.6,15.3c0,9,6.3,15.3,14.6,15.3c4.2,0,8-2,10.2-5.1l2.5,1.6c-3.1,3.8-7.2,6.2-12.7,6.2
			C52.4,44.1,44.6,36.7,44.6,26z"/>
	</g>
	<g>
		<path fill="#FF4F55" d="M92.9,43.4L87,34.2h-4.6v9.2h-2.9V20.2h9.3c4.2,0,7.3,2.7,7.3,7c0,4.2-2.9,6.5-6,6.7l6.3,9.5H92.9z
			 M93.1,27.2c0-2.6-1.9-4.4-4.6-4.4h-6.1v8.9h6.1C91.2,31.7,93.1,29.8,93.1,27.2z"/>
		<path fill="#FF4F55" d="M100.6,43.4V20.2h15.2v2.6h-12.3v7.5h12.1v2.6h-12.1v8h12.3v2.6H100.6z"/>
		<path fill="#FF4F55" d="M120.4,43.4V20.2h7.9c7.2,0,11.9,5,11.9,11.6c0,6.6-4.7,11.6-11.9,11.6H120.4z M137.3,31.8
			c0-5-3.2-9-8.9-9h-5v18h5C134,40.8,137.3,36.8,137.3,31.8z"/>
		<path fill="#FF4F55" d="M144.8,43.4V20.2h2.9v23.2H144.8z"/>
		<path fill="#FF4F55" d="M158.8,43.4V22.8h-7.3v-2.6h17.6v2.6h-7.4v20.6H158.8z"/>
	</g>
	<g>
		<path fill="#FF4F55" d="M170.6,39.8l1.7-2.2c1.5,1.7,4,3.3,7.2,3.3c4.1,0,5.4-2.2,5.4-3.9c0-5.9-13.5-2.6-13.5-10.8
			c0-3.8,3.4-6.3,7.8-6.3c3.5,0,6.2,1.2,8.1,3.2l-1.7,2.1c-1.7-1.9-4.1-2.7-6.6-2.7c-2.7,0-4.7,1.5-4.7,3.6
			c0,5.1,13.5,2.2,13.5,10.7c0,3.3-2.3,6.7-8.4,6.7C175.4,43.4,172.5,41.9,170.6,39.8z"/>
	</g>
</g>
</svg>
