<?xml version="1.0" encoding="utf-8"?>
<!-- Generator: Adobe Illustrator 18.1.0, SVG Export Plug-In . SVG Version: 6.00 Build 0)  -->
<svg version="1.1" id="Layer_1" xmlns="http://www.w3.org/2000/svg" xmlns:xlink="http://www.w3.org/1999/xlink" x="0px" y="0px"
	 viewBox="0 0 680 430" enable-background="new 0 0 680 430" xml:space="preserve">
<polygon fill="#006699" points="33,39.1 88.7,21.2 88.7,115.6 33,115.6 "/>
<g>
	<rect x="36.4" y="93.6" fill="#FFFFFF" width="10.5" height="10.5"/>
	<rect x="49.4" y="93.6" fill="#FFFFFF" width="10.5" height="10.5"/>
	<rect x="62.4" y="93.6" fill="#FFFFFF" width="10.5" height="10.5"/>
	<rect x="75.4" y="93.6" fill="#FFFFFF" width="10.5" height="10.5"/>
	<rect x="36.4" y="80.7" fill="#FFFFFF" width="10.5" height="10.5"/>
	<rect x="49.4" y="80.7" fill="#FFFFFF" width="10.5" height="10.5"/>
	<rect x="62.4" y="80.7" fill="#FFFFFF" width="10.5" height="10.5"/>
	<rect x="75.4" y="80.7" fill="#FFFFFF" width="10.5" height="10.5"/>
	<rect x="36.4" y="67.9" fill="#FFFFFF" width="10.5" height="10.5"/>
	<rect x="49.4" y="67.9" fill="#FFFFFF" width="10.5" height="10.5"/>
	<rect x="62.4" y="67.9" fill="#FFFFFF" width="10.5" height="10.5"/>
	<rect x="75.4" y="67.9" fill="#FFFFFF" width="10.5" height="10.5"/>
	<rect x="36.4" y="55" fill="#FFFFFF" width="10.5" height="10.5"/>
	<rect x="49.4" y="55" fill="#FFFFFF" width="10.5" height="10.5"/>
	<rect x="62.4" y="55" fill="#FFFFFF" width="10.5" height="10.5"/>
	<rect x="75.4" y="55" fill="#FFFFFF" width="10.5" height="10.5"/>
	<rect x="36.4" y="42.1" fill="#FFFFFF" width="10.5" height="10.5"/>
	<rect x="49.4" y="42.1" fill="#FFFFFF" width="10.5" height="10.5"/>
	<rect x="62.4" y="42.1" fill="#FFFFFF" width="10.5" height="10.5"/>
	<rect x="75.4" y="42.1" fill="#FFFFFF" width="10.5" height="10.5"/>
	<rect x="75.4" y="29.2" fill="#FFFFFF" width="10.5" height="10.5"/>
</g>
<rect x="77.9" y="46" fill="#00B6FF" width="53.6" height="69.5"/>
<rect x="85.1" y="89.4" fill="#FFFFFF" width="39.3" height="6.1"/>
<rect x="85.1" y="77.7" fill="#FFFFFF" width="39.3" height="6.1"/>
<rect x="85.1" y="66" fill="#FFFFFF" width="39.3" height="6.1"/>
<rect x="85.1" y="54.3" fill="#FFFFFF" width="39.3" height="6.1"/>
<rect x="98.5" y="100.3" fill="#FFFFFF" width="12.4" height="14"/>
<polygon fill="#00CC66" points="549.8,39.1 605.5,21.2 605.5,115.6 549.8,115.6 "/>
<g>
	<rect x="553.2" y="93.6" fill="#FFFFFF" width="10.5" height="10.5"/>
	<rect x="566.2" y="93.6" fill="#FFFFFF" width="10.5" height="10.5"/>
	<rect x="579.2" y="93.6" fill="#FFFFFF" width="10.5" height="10.5"/>
	<rect x="592.2" y="93.6" fill="#FFFFFF" width="10.5" height="10.5"/>
	<rect x="553.2" y="80.7" fill="#FFFFFF" width="10.5" height="10.5"/>
	<rect x="566.2" y="80.7" fill="#FFFFFF" width="10.5" height="10.5"/>
	<rect x="579.2" y="80.7" fill="#FFFFFF" width="10.5" height="10.5"/>
	<rect x="592.2" y="80.7" fill="#FFFFFF" width="10.5" height="10.5"/>
	<rect x="553.2" y="67.9" fill="#FFFFFF" width="10.5" height="10.5"/>
	<rect x="566.2" y="67.9" fill="#FFFFFF" width="10.5" height="10.5"/>
	<rect x="579.2" y="67.9" fill="#FFFFFF" width="10.5" height="10.5"/>
	<rect x="592.2" y="67.9" fill="#FFFFFF" width="10.5" height="10.5"/>
	<rect x="553.2" y="55" fill="#FFFFFF" width="10.5" height="10.5"/>
	<rect x="566.2" y="55" fill="#FFFFFF" width="10.5" height="10.5"/>
	<rect x="579.2" y="55" fill="#FFFFFF" width="10.5" height="10.5"/>
	<rect x="592.2" y="55" fill="#FFFFFF" width="10.5" height="10.5"/>
	<rect x="553.2" y="42.1" fill="#FFFFFF" width="10.5" height="10.5"/>
	<rect x="566.2" y="42.1" fill="#FFFFFF" width="10.5" height="10.5"/>
	<rect x="579.2" y="42.1" fill="#FFFFFF" width="10.5" height="10.5"/>
	<rect x="592.2" y="42.1" fill="#FFFFFF" width="10.5" height="10.5"/>
	<rect x="592.2" y="29.2" fill="#FFFFFF" width="10.5" height="10.5"/>
</g>
<rect x="594.7" y="46" fill="#FFC500" width="53.6" height="69.5"/>
<rect x="601.9" y="89.4" fill="#FFFFFF" width="39.3" height="6.1"/>
<rect x="601.9" y="77.7" fill="#FFFFFF" width="39.3" height="6.1"/>
<rect x="601.9" y="66" fill="#FFFFFF" width="39.3" height="6.1"/>
<rect x="601.9" y="54.3" fill="#FFFFFF" width="39.3" height="6.1"/>
<rect x="615.3" y="100.3" fill="#FFFFFF" width="12.4" height="14"/>
<g>
	<path fill="#666666" d="M65,127.5h-4.3v2.6h2.2c1,0,1.7,0.2,2.2,0.7c0.5,0.5,0.8,1.1,0.8,1.9c0,0.8-0.3,1.5-0.8,2
		c-0.5,0.5-1.3,0.8-2.2,0.8h-3.4v-9H65V127.5z M60.7,131v3.5h2.2c0.6,0,1.1-0.2,1.4-0.5s0.5-0.8,0.5-1.3c0-0.5-0.2-0.9-0.5-1.2
		c-0.3-0.3-0.8-0.5-1.4-0.5H60.7z"/>
	<path fill="#666666" d="M71.5,128.8h1.2v6.7h-1.2v-4.7l0,0l-2.9,4.7h-1.2v-6.7h1.2v4.7l0,0L71.5,128.8z"/>
	<path fill="#666666" d="M80.2,132.4c0,1-0.2,1.7-0.7,2.3c-0.5,0.6-1.1,0.9-1.9,0.9c-0.4,0-0.8-0.1-1.1-0.2
		c-0.3-0.1-0.6-0.3-0.8-0.6v3.3h-1.2v-9.2h0.9l0.2,0.9c0.2-0.3,0.5-0.6,0.8-0.7c0.3-0.2,0.7-0.3,1.1-0.3c0.8,0,1.5,0.3,1.9,1
		c0.5,0.7,0.7,1.5,0.7,2.6V132.4z M79,132.3c0-0.8-0.1-1.4-0.4-1.9s-0.7-0.7-1.3-0.7c-0.3,0-0.6,0.1-0.9,0.2
		c-0.2,0.2-0.4,0.4-0.6,0.6v3.2c0.2,0.3,0.4,0.5,0.6,0.6c0.2,0.2,0.5,0.2,0.9,0.2c0.6,0,1-0.2,1.3-0.6s0.4-1,0.4-1.6V132.3z"/>
	<path fill="#666666" d="M86.9,132.6h-0.8v2.9h-1.2v-2.9h-0.8l-1.8,2.9h-1.5l2.4-3.5l-2.2-3.1h1.5l1.6,2.7h0.8v-2.7h1.2v2.7h0.8
		l1.6-2.7H90l-2.2,3.1l2.4,3.5h-1.5L86.9,132.6z"/>
	<path fill="#666666" d="M95.3,135.5c0-0.2-0.1-0.4-0.1-0.5c0-0.2,0-0.3,0-0.5c-0.2,0.3-0.5,0.6-0.9,0.8s-0.8,0.3-1.2,0.3
		c-0.7,0-1.2-0.2-1.6-0.5s-0.5-0.8-0.5-1.5c0-0.6,0.3-1.1,0.8-1.5c0.5-0.4,1.2-0.5,2.1-0.5h1.3v-0.7c0-0.4-0.1-0.7-0.4-0.9
		c-0.2-0.2-0.6-0.3-1-0.3c-0.4,0-0.7,0.1-1,0.3c-0.2,0.2-0.4,0.4-0.4,0.7h-1.2l0,0c0-0.5,0.2-0.9,0.7-1.3c0.5-0.4,1.1-0.6,1.9-0.6
		c0.8,0,1.4,0.2,1.8,0.6c0.5,0.4,0.7,0.9,0.7,1.7v3.2c0,0.2,0,0.5,0,0.7c0,0.2,0.1,0.4,0.1,0.7H95.3z M93.3,134.6
		c0.4,0,0.8-0.1,1.2-0.3c0.4-0.2,0.6-0.5,0.7-0.8v-1.1h-1.4c-0.5,0-0.9,0.1-1.2,0.4s-0.4,0.5-0.4,0.9c0,0.3,0.1,0.5,0.3,0.7
		C92.7,134.5,92.9,134.6,93.3,134.6z"/>
	<path fill="#666666" d="M45.4,146.6h-1v4h-1.2v-9h1.2v4h0.9l3.2-4h1.3l0,0l-3.5,4.3l3.7,4.6l0,0h-1.4L45.4,146.6z"/>
	<path fill="#666666" d="M56.7,147.6c0,1-0.2,1.7-0.7,2.3c-0.5,0.6-1.1,0.9-1.9,0.9c-0.4,0-0.8-0.1-1.1-0.2
		c-0.3-0.1-0.6-0.3-0.8-0.6v3.3H51V144h0.9l0.2,0.9c0.2-0.3,0.5-0.6,0.8-0.7c0.3-0.2,0.7-0.3,1.1-0.3c0.8,0,1.5,0.3,1.9,1
		c0.5,0.7,0.7,1.5,0.7,2.6V147.6z M55.5,147.4c0-0.8-0.1-1.4-0.4-1.9s-0.7-0.7-1.3-0.7c-0.3,0-0.6,0.1-0.9,0.2
		c-0.2,0.2-0.4,0.4-0.6,0.6v3.2c0.2,0.3,0.4,0.5,0.6,0.6c0.2,0.2,0.5,0.2,0.9,0.2c0.6,0,1-0.2,1.3-0.6s0.4-1,0.4-1.6V147.4z"/>
	<path fill="#666666" d="M60.9,150.8c-0.9,0-1.7-0.3-2.2-0.9c-0.5-0.6-0.8-1.4-0.8-2.4v-0.3c0-0.9,0.3-1.7,0.8-2.4
		c0.6-0.6,1.2-0.9,2-0.9c0.9,0,1.6,0.3,2,0.8s0.7,1.3,0.7,2.2v0.8h-4.3l0,0c0,0.6,0.2,1.2,0.5,1.6s0.7,0.6,1.3,0.6
		c0.4,0,0.8-0.1,1.1-0.2c0.3-0.1,0.6-0.3,0.8-0.5l0.5,0.8c-0.2,0.2-0.6,0.4-0.9,0.6C61.9,150.7,61.5,150.8,60.9,150.8z M60.7,144.8
		c-0.4,0-0.8,0.2-1,0.5c-0.3,0.3-0.5,0.8-0.5,1.3l0,0h3.1v-0.2c0-0.5-0.1-0.9-0.4-1.2S61.2,144.8,60.7,144.8z"/>
	<path fill="#666666" d="M64.8,149.7c0.3-0.4,0.6-0.8,0.8-1.2c0.2-0.4,0.3-1.1,0.4-2L66,144h4.4v5.7h0.9l-0.1,2.9H70v-2h-4.6v2h-1.1
		l-0.1-2.9H64.8z M67.1,146.5c0,0.7-0.2,1.4-0.3,1.9c-0.2,0.5-0.4,1-0.6,1.3h3v-4.6h-2L67.1,146.5z"/>
	<path fill="#666666" d="M76.7,144h1.2v6.7h-1.2v-4.7l0,0l-2.9,4.7h-1.2V144h1.2v4.7l0,0L76.7,144z"/>
	<path fill="#666666" d="M84.8,144.9h-2.2v5.7h-1.2v-5.7h-2.2v-1h5.6V144.9z"/>
	<path fill="#666666" d="M85.7,147.2c0-1,0.3-1.8,0.8-2.4c0.5-0.6,1.3-1,2.2-1c0.9,0,1.7,0.3,2.2,1s0.8,1.4,0.8,2.4v0.1
		c0,1-0.3,1.8-0.8,2.4c-0.5,0.6-1.3,0.9-2.2,0.9c-0.9,0-1.6-0.3-2.2-1c-0.5-0.6-0.8-1.4-0.8-2.4V147.2z M86.9,147.4
		c0,0.7,0.1,1.3,0.4,1.7c0.3,0.5,0.7,0.7,1.3,0.7c0.6,0,1-0.2,1.3-0.7c0.3-0.5,0.4-1,0.4-1.7v-0.1c0-0.7-0.2-1.3-0.5-1.7
		s-0.7-0.7-1.3-0.7c-0.6,0-1,0.2-1.3,0.7c-0.3,0.5-0.4,1-0.4,1.7V147.4z"/>
	<path fill="#666666" d="M98.8,147.6c0,1-0.2,1.7-0.7,2.3c-0.5,0.6-1.1,0.9-1.9,0.9c-0.4,0-0.8-0.1-1.1-0.2
		c-0.3-0.1-0.6-0.3-0.8-0.6v3.3h-1.2V144h0.9l0.2,0.9c0.2-0.3,0.5-0.6,0.8-0.7c0.3-0.2,0.7-0.3,1.1-0.3c0.8,0,1.5,0.3,1.9,1
		c0.5,0.7,0.7,1.5,0.7,2.6V147.6z M97.6,147.4c0-0.8-0.1-1.4-0.4-1.9s-0.7-0.7-1.3-0.7c-0.3,0-0.6,0.1-0.9,0.2
		c-0.2,0.2-0.4,0.4-0.6,0.6v3.2c0.2,0.3,0.4,0.5,0.6,0.6c0.2,0.2,0.5,0.2,0.9,0.2c0.6,0,1-0.2,1.3-0.6s0.4-1,0.4-1.6V147.4z"/>
	<path fill="#666666" d="M100,147.2c0-1,0.3-1.8,0.8-2.4c0.5-0.6,1.3-1,2.2-1c0.9,0,1.7,0.3,2.2,1s0.8,1.4,0.8,2.4v0.1
		c0,1-0.3,1.8-0.8,2.4c-0.5,0.6-1.3,0.9-2.2,0.9c-0.9,0-1.6-0.3-2.2-1c-0.5-0.6-0.8-1.4-0.8-2.4V147.2z M101.2,147.4
		c0,0.7,0.1,1.3,0.4,1.7c0.3,0.5,0.7,0.7,1.3,0.7c0.6,0,1-0.2,1.3-0.7c0.3-0.5,0.4-1,0.4-1.7v-0.1c0-0.7-0.2-1.3-0.5-1.7
		s-0.7-0.7-1.3-0.7c-0.6,0-1,0.2-1.3,0.7c-0.3,0.5-0.4,1-0.4,1.7V147.4z"/>
	<path fill="#666666" d="M107.5,150.6V144h2.6c0.9,0,1.6,0.2,2,0.5s0.7,0.8,0.7,1.4c0,0.3-0.1,0.6-0.3,0.8c-0.2,0.2-0.5,0.4-0.8,0.6
		c0.4,0.1,0.7,0.3,1,0.6c0.2,0.3,0.3,0.6,0.3,1c0,0.6-0.2,1.1-0.7,1.4c-0.5,0.3-1.1,0.5-1.9,0.5H107.5z M108.7,146.8h1.4
		c0.5,0,0.9-0.1,1.2-0.2c0.3-0.2,0.4-0.4,0.4-0.7c0-0.3-0.1-0.6-0.4-0.7c-0.3-0.2-0.7-0.2-1.2-0.2h-1.4V146.8z M108.7,147.7v2h1.8
		c0.4,0,0.8-0.1,1-0.3c0.2-0.2,0.3-0.4,0.3-0.7c0-0.3-0.1-0.6-0.3-0.7c-0.2-0.2-0.6-0.3-1-0.3H108.7z"/>
</g>
<g>
	<g>
		<path fill="#979695" d="M329.2,350.6h-3.7v2.3h1.9c0.8,0,1.5,0.2,1.9,0.6c0.5,0.4,0.7,1,0.7,1.7c0,0.7-0.2,1.3-0.7,1.7
			c-0.5,0.4-1.1,0.7-1.9,0.7h-3v-7.8h4.8V350.6z M325.5,353.7v3.1h1.9c0.5,0,0.9-0.2,1.2-0.5c0.3-0.3,0.4-0.7,0.4-1.1
			c0-0.4-0.1-0.8-0.4-1.1c-0.3-0.3-0.7-0.4-1.2-0.4H325.5z"/>
		<path fill="#979695" d="M334.8,357.6c0-0.2-0.1-0.3-0.1-0.5c0-0.1,0-0.3,0-0.4c-0.2,0.3-0.5,0.5-0.8,0.7c-0.3,0.2-0.7,0.3-1,0.3
			c-0.6,0-1.1-0.2-1.4-0.5c-0.3-0.3-0.5-0.7-0.5-1.3c0-0.6,0.2-1,0.7-1.3c0.4-0.3,1.1-0.5,1.8-0.5h1.1v-0.6c0-0.3-0.1-0.6-0.3-0.8
			c-0.2-0.2-0.5-0.3-0.9-0.3c-0.3,0-0.6,0.1-0.8,0.3c-0.2,0.2-0.3,0.4-0.3,0.6h-1l0,0c0-0.4,0.2-0.8,0.6-1.2c0.4-0.4,1-0.5,1.6-0.5
			c0.7,0,1.2,0.2,1.6,0.5s0.6,0.8,0.6,1.4v2.8c0,0.2,0,0.4,0,0.6s0.1,0.4,0.1,0.6H334.8z M333.1,356.8c0.4,0,0.7-0.1,1-0.3
			s0.5-0.4,0.6-0.7v-0.9h-1.2c-0.4,0-0.8,0.1-1,0.3c-0.3,0.2-0.4,0.5-0.4,0.8c0,0.3,0.1,0.5,0.2,0.6
			C332.5,356.7,332.8,356.8,333.1,356.8z"/>
		<path fill="#979695" d="M342,357.6H341v-2.5h-2.6v2.5h-1.1v-5.8h1.1v2.5h2.6v-2.5h1.1V357.6z"/>
		<path fill="#979695" d="M345.4,355.1h-0.7v2.5h-1.1v-5.8h1.1v2.5h0.6l1.9-2.5h1.2l0,0l-2.3,2.8l2.5,3l0,0h-1.3L345.4,355.1z"/>
		<path fill="#979695" d="M314.5,365.5L314.5,365.5c0-0.8,0.2-1.4,0.8-1.9c0.5-0.5,1.2-0.7,2.1-0.7c0.9,0,1.6,0.3,2.2,0.9
			c0.6,0.6,0.8,1.4,0.8,2.4v1.4c0,1-0.3,1.8-0.8,2.4s-1.3,0.9-2.2,0.9s-1.6-0.2-2.1-0.7c-0.5-0.5-0.8-1.1-0.8-1.9l0,0h1
			c0,0.6,0.2,1,0.5,1.3c0.3,0.3,0.8,0.5,1.4,0.5c0.6,0,1.1-0.2,1.4-0.7c0.4-0.5,0.5-1.1,0.5-1.8v-0.4h-3.1v-0.8h3.1v-0.1
			c0-0.7-0.2-1.3-0.5-1.8c-0.4-0.5-0.8-0.7-1.4-0.7c-0.6,0-1,0.2-1.4,0.5s-0.5,0.8-0.5,1.3H314.5z"/>
		<path fill="#979695" d="M325,369.4L325,369.4l1.9-4.4h1.3v5.8h-1.1v-4l0,0l-1.8,4h-0.7l-1.8-4.1l0,0v4.1h-1.1V365h1.4L325,369.4z"
			/>
		<path fill="#979695" d="M333.6,365h1.1v5.8h-1.1v-4.1l0,0l-2.6,4.1h-1.1V365h1.1v4.1l0,0L333.6,365z"/>
		<path fill="#979695" d="M340.7,365.8h-1.9v5h-1.1v-5h-1.9V365h4.9V365.8z"/>
		<path fill="#979695" d="M344.1,370.9c-0.8,0-1.5-0.3-1.9-0.8c-0.5-0.5-0.7-1.2-0.7-2.1v-0.2c0-0.8,0.2-1.5,0.7-2.1
			c0.5-0.5,1.1-0.8,1.7-0.8c0.8,0,1.4,0.2,1.8,0.7s0.6,1.1,0.6,1.9v0.7h-3.8l0,0c0,0.6,0.2,1,0.4,1.4c0.3,0.4,0.7,0.5,1.1,0.5
			c0.4,0,0.7-0.1,0.9-0.2c0.3-0.1,0.5-0.2,0.7-0.4l0.4,0.7c-0.2,0.2-0.5,0.4-0.8,0.5S344.6,370.9,344.1,370.9z M344,365.7
			c-0.4,0-0.7,0.1-0.9,0.4s-0.4,0.7-0.5,1.1l0,0h2.7v-0.1c0-0.4-0.1-0.8-0.3-1S344.4,365.7,344,365.7z"/>
		<path fill="#979695" d="M352.2,370.8h-1.1v-2.5h-2.6v2.5h-1.1V365h1.1v2.5h2.6V365h1.1V370.8z"/>
		<path fill="#979695" d="M358.3,365.8h-1.9v5h-1.1v-5h-1.9V365h4.9V365.8z"/>
	</g>
</g>
<g>
	<path fill="#666666" d="M581.8,127.5h-4.3v2.6h2.2c1,0,1.7,0.2,2.2,0.7c0.5,0.5,0.8,1.1,0.8,1.9c0,0.8-0.3,1.5-0.8,2
		c-0.5,0.5-1.3,0.8-2.2,0.8h-3.4v-9h5.5V127.5z M577.5,131v3.5h2.2c0.6,0,1.1-0.2,1.4-0.5s0.5-0.8,0.5-1.3c0-0.5-0.2-0.9-0.5-1.2
		c-0.3-0.3-0.8-0.5-1.4-0.5H577.5z"/>
	<path fill="#666666" d="M588.3,128.8h1.2v6.7h-1.2v-4.7l0,0l-2.9,4.7h-1.2v-6.7h1.2v4.7l0,0L588.3,128.8z"/>
	<path fill="#666666" d="M597,132.4c0,1-0.2,1.7-0.7,2.3c-0.5,0.6-1.1,0.9-1.9,0.9c-0.4,0-0.8-0.1-1.1-0.2c-0.3-0.1-0.6-0.3-0.8-0.6
		v3.3h-1.2v-9.2h0.9l0.2,0.9c0.2-0.3,0.5-0.6,0.8-0.7c0.3-0.2,0.7-0.3,1.1-0.3c0.8,0,1.5,0.3,1.9,1c0.5,0.7,0.7,1.5,0.7,2.6V132.4z
		 M595.7,132.3c0-0.8-0.1-1.4-0.4-1.9c-0.3-0.5-0.7-0.7-1.3-0.7c-0.3,0-0.6,0.1-0.9,0.2s-0.4,0.4-0.6,0.6v3.2
		c0.2,0.3,0.4,0.5,0.6,0.6c0.2,0.2,0.5,0.2,0.9,0.2c0.6,0,1-0.2,1.3-0.6c0.3-0.4,0.4-1,0.4-1.6V132.3z"/>
	<path fill="#666666" d="M603.7,132.6h-0.8v2.9h-1.2v-2.9h-0.8l-1.8,2.9h-1.5l2.4-3.5l-2.2-3.1h1.5l1.6,2.7h0.8v-2.7h1.2v2.7h0.8
		l1.6-2.7h1.5l-2.2,3.1l2.4,3.5h-1.5L603.7,132.6z"/>
	<path fill="#666666" d="M612.1,135.5c0-0.2-0.1-0.4-0.1-0.5c0-0.2,0-0.3,0-0.5c-0.2,0.3-0.5,0.6-0.9,0.8s-0.8,0.3-1.2,0.3
		c-0.7,0-1.2-0.2-1.6-0.5s-0.5-0.8-0.5-1.5c0-0.6,0.3-1.1,0.8-1.5c0.5-0.4,1.2-0.5,2.1-0.5h1.3v-0.7c0-0.4-0.1-0.7-0.4-0.9
		c-0.2-0.2-0.6-0.3-1-0.3c-0.4,0-0.7,0.1-1,0.3c-0.2,0.2-0.4,0.4-0.4,0.7h-1.2l0,0c0-0.5,0.2-0.9,0.7-1.3c0.5-0.4,1.1-0.6,1.9-0.6
		c0.8,0,1.4,0.2,1.8,0.6c0.5,0.4,0.7,0.9,0.7,1.7v3.2c0,0.2,0,0.5,0,0.7c0,0.2,0.1,0.4,0.1,0.7H612.1z M610.1,134.6
		c0.4,0,0.8-0.1,1.2-0.3c0.4-0.2,0.6-0.5,0.7-0.8v-1.1h-1.4c-0.5,0-0.9,0.1-1.2,0.4c-0.3,0.2-0.4,0.5-0.4,0.9c0,0.3,0.1,0.5,0.3,0.7
		S609.7,134.6,610.1,134.6z"/>
	<path fill="#666666" d="M567.2,144.1c0,0.4-0.1,0.8-0.4,1.1c-0.3,0.3-0.7,0.6-1.2,0.8c0.6,0.2,1,0.4,1.3,0.8
		c0.3,0.4,0.4,0.8,0.4,1.3c0,0.8-0.3,1.5-1,1.9c-0.7,0.5-1.5,0.7-2.6,0.7c-0.9,0-1.7-0.2-2.4-0.7c-0.7-0.4-1-1.1-1-1.9l0,0h1.2
		c0,0.5,0.2,0.9,0.6,1.2s0.9,0.5,1.6,0.5c0.7,0,1.3-0.2,1.7-0.5c0.4-0.3,0.6-0.7,0.6-1.2c0-0.5-0.2-1-0.6-1.2
		c-0.4-0.3-0.9-0.4-1.7-0.4h-1.1v-1h1.1c0.7,0,1.2-0.1,1.6-0.4s0.5-0.6,0.5-1.1c0-0.5-0.2-0.8-0.6-1.1c-0.4-0.3-0.9-0.4-1.6-0.4
		c-0.6,0-1.1,0.1-1.5,0.4c-0.4,0.3-0.6,0.7-0.6,1.1h-1.2l0,0c0-0.7,0.3-1.3,0.9-1.8c0.6-0.5,1.4-0.7,2.3-0.7c1.1,0,1.9,0.2,2.5,0.7
		C566.9,142.7,567.2,143.3,567.2,144.1z"/>
	<path fill="#666666" d="M573.2,150.6c0-0.2-0.1-0.4-0.1-0.5c0-0.2,0-0.3,0-0.5c-0.2,0.3-0.5,0.6-0.9,0.8s-0.8,0.3-1.2,0.3
		c-0.7,0-1.2-0.2-1.6-0.5s-0.5-0.8-0.5-1.5c0-0.6,0.3-1.1,0.8-1.5c0.5-0.4,1.2-0.5,2.1-0.5h1.3v-0.7c0-0.4-0.1-0.7-0.4-0.9
		c-0.2-0.2-0.6-0.3-1-0.3c-0.4,0-0.7,0.1-1,0.3c-0.2,0.2-0.4,0.4-0.4,0.7h-1.2l0,0c0-0.5,0.2-0.9,0.7-1.3c0.5-0.4,1.1-0.6,1.9-0.6
		c0.8,0,1.4,0.2,1.8,0.6c0.5,0.4,0.7,0.9,0.7,1.7v3.2c0,0.2,0,0.5,0,0.7c0,0.2,0.1,0.4,0.1,0.7H573.2z M571.1,149.7
		c0.4,0,0.8-0.1,1.2-0.3c0.4-0.2,0.6-0.5,0.7-0.8v-1.1h-1.4c-0.5,0-0.9,0.1-1.2,0.4c-0.3,0.2-0.4,0.5-0.4,0.9c0,0.3,0.1,0.5,0.3,0.7
		S570.8,149.7,571.1,149.7z"/>
	<path fill="#666666" d="M578.8,150.8c-0.9,0-1.7-0.3-2.2-0.9c-0.5-0.6-0.8-1.4-0.8-2.4v-0.3c0-0.9,0.3-1.7,0.8-2.4s1.2-0.9,2-0.9
		c0.9,0,1.6,0.3,2,0.8s0.7,1.3,0.7,2.2v0.8H577l0,0c0,0.6,0.2,1.2,0.5,1.6s0.7,0.6,1.3,0.6c0.4,0,0.8-0.1,1.1-0.2
		c0.3-0.1,0.6-0.3,0.8-0.5l0.5,0.8c-0.2,0.2-0.6,0.4-0.9,0.6C579.8,150.7,579.3,150.8,578.8,150.8z M578.6,144.8
		c-0.4,0-0.8,0.2-1,0.5c-0.3,0.3-0.5,0.8-0.5,1.3l0,0h3.1v-0.2c0-0.5-0.1-0.9-0.4-1.2C579.5,145,579.1,144.8,578.6,144.8z"/>
	<path fill="#666666" d="M586.5,149L586.5,149l2.2-5.1h1.5v6.7H589V146l0,0l-2,4.6h-0.8l-2.1-4.7l0,0v4.7h-1.2V144h1.6L586.5,149z"
		/>
	<path fill="#666666" d="M593.3,144v5.7h2.3V144h1.2v5.7h2.3V144h1.2v5.8h1.1v3h-1.2v-2.1h-8.2V144H593.3z"/>
	<path fill="#666666" d="M606.9,144h1.2v6.7h-1.2v-4.7l0,0l-2.9,4.7h-1.2V144h1.2v4.7l0,0L606.9,144z"/>
	<path fill="#666666" d="M612,147.8h-0.8v2.8H610V144h1.2v2.8h0.7l2.2-2.8h1.4l0,0l-2.6,3.2l2.8,3.4l0,0h-1.5L612,147.8z"/>
	<path fill="#666666" d="M616,147.2c0-1,0.3-1.8,0.8-2.4s1.3-1,2.2-1c0.9,0,1.7,0.3,2.2,1s0.8,1.4,0.8,2.4v0.1c0,1-0.3,1.8-0.8,2.4
		c-0.5,0.6-1.3,0.9-2.2,0.9c-0.9,0-1.6-0.3-2.2-1c-0.5-0.6-0.8-1.4-0.8-2.4V147.2z M617.2,147.4c0,0.7,0.1,1.3,0.4,1.7
		c0.3,0.5,0.7,0.7,1.3,0.7c0.6,0,1-0.2,1.3-0.7c0.3-0.5,0.4-1,0.4-1.7v-0.1c0-0.7-0.2-1.3-0.5-1.7c-0.3-0.5-0.7-0.7-1.3-0.7
		c-0.6,0-1,0.2-1.3,0.7c-0.3,0.5-0.4,1-0.4,1.7V147.4z"/>
	<path fill="#666666" d="M623.4,150.6V144h2.6c0.9,0,1.6,0.2,2,0.5s0.7,0.8,0.7,1.4c0,0.3-0.1,0.6-0.3,0.8s-0.5,0.4-0.8,0.6
		c0.4,0.1,0.7,0.3,1,0.6c0.2,0.3,0.3,0.6,0.3,1c0,0.6-0.2,1.1-0.7,1.4c-0.5,0.3-1.1,0.5-1.9,0.5H623.4z M624.6,146.8h1.4
		c0.5,0,0.9-0.1,1.2-0.2s0.4-0.4,0.4-0.7c0-0.3-0.1-0.6-0.4-0.7c-0.3-0.2-0.7-0.2-1.2-0.2h-1.4V146.8z M624.6,147.7v2h1.8
		c0.4,0,0.8-0.1,1-0.3c0.2-0.2,0.3-0.4,0.3-0.7c0-0.3-0.1-0.6-0.3-0.7c-0.2-0.2-0.6-0.3-1-0.3H624.6z"/>
</g>
<g>
	<path fill="none" stroke="#808080" stroke-miterlimit="10" d="M358.7,334.5h-45.2c-3.8,0-6.8-3.1-6.8-6.8v-45.2
		c0-3.8,3.1-6.8,6.8-6.8h45.2c3.8,0,6.8,3.1,6.8,6.8v45.2C365.5,331.4,362.5,334.5,358.7,334.5z"/>
	<path fill="none" stroke="#808080" stroke-miterlimit="10" d="M356.6,329.4h-41c-2.1,0-3.8-1.7-3.8-3.8v-41c0-2.1,1.7-3.8,3.8-3.8
		h41c2.1,0,3.8,1.7,3.8,3.8v41C360.4,327.7,358.7,329.4,356.6,329.4z"/>
	<circle fill="none" stroke="#808080" stroke-width="5" stroke-miterlimit="10" cx="327.2" cy="305" r="6.4"/>
	<path fill="#FFFFFF" stroke="#808080" stroke-miterlimit="10" d="M360.6,297.3h-0.3c-0.9,0-1.6-0.7-1.6-1.6v-6.5
		c0-0.9,0.7-1.6,1.6-1.6h0.3c0.9,0,1.6,0.7,1.6,1.6v6.5C362.2,296.5,361.5,297.3,360.6,297.3z"/>
	<path fill="#FFFFFF" stroke="#808080" stroke-miterlimit="10" d="M360.6,321.8h-0.3c-0.9,0-1.6-0.7-1.6-1.6v-6.5
		c0-0.9,0.7-1.6,1.6-1.6h0.3c0.9,0,1.6,0.7,1.6,1.6v6.5C362.2,321.1,361.5,321.8,360.6,321.8z"/>
</g>
<g>
	<g>
		<path fill="#979695" d="M586.9,350.6h-3.7v2.3h1.9c0.8,0,1.5,0.2,1.9,0.6s0.7,1,0.7,1.7c0,0.7-0.2,1.3-0.7,1.7
			c-0.5,0.4-1.1,0.7-1.9,0.7h-3v-7.8h4.8V350.6z M583.1,353.7v3.1h1.9c0.5,0,0.9-0.2,1.2-0.5c0.3-0.3,0.4-0.7,0.4-1.1
			c0-0.4-0.1-0.8-0.4-1.1c-0.3-0.3-0.7-0.4-1.2-0.4H583.1z"/>
		<path fill="#979695" d="M592.5,357.6c0-0.2-0.1-0.3-0.1-0.5c0-0.1,0-0.3,0-0.4c-0.2,0.3-0.5,0.5-0.8,0.7c-0.3,0.2-0.7,0.3-1,0.3
			c-0.6,0-1.1-0.2-1.4-0.5c-0.3-0.3-0.5-0.7-0.5-1.3c0-0.6,0.2-1,0.7-1.3s1.1-0.5,1.8-0.5h1.1v-0.6c0-0.3-0.1-0.6-0.3-0.8
			c-0.2-0.2-0.5-0.3-0.9-0.3c-0.3,0-0.6,0.1-0.8,0.3s-0.3,0.4-0.3,0.6h-1l0,0c0-0.4,0.2-0.8,0.6-1.2s1-0.5,1.6-0.5
			c0.7,0,1.2,0.2,1.6,0.5c0.4,0.3,0.6,0.8,0.6,1.4v2.8c0,0.2,0,0.4,0,0.6s0.1,0.4,0.1,0.6H592.5z M590.7,356.8c0.4,0,0.7-0.1,1-0.3
			s0.5-0.4,0.6-0.7v-0.9h-1.2c-0.4,0-0.8,0.1-1,0.3c-0.3,0.2-0.4,0.5-0.4,0.8c0,0.3,0.1,0.5,0.2,0.6
			C590.2,356.7,590.4,356.8,590.7,356.8z"/>
		<path fill="#979695" d="M599.7,357.6h-1.1v-2.5H596v2.5H595v-5.8h1.1v2.5h2.6v-2.5h1.1V357.6z"/>
		<path fill="#979695" d="M603,355.1h-0.7v2.5h-1.1v-5.8h1.1v2.5h0.6l1.9-2.5h1.2l0,0l-2.3,2.8l2.5,3l0,0H605L603,355.1z"/>
		<path fill="#979695" d="M610.7,351.8h1.1v5.8h-1.1v-4.1l0,0l-2.6,4.1H607v-5.8h1.1v4.1l0,0L610.7,351.8z"/>
		<path fill="#979695" d="M568.5,367.3h-0.9v3.5h-1.1V363h1.1v3.5h0.8l2.8-3.5h1.2l0,0l-3,3.8l3.3,4l0,0h-1.3L568.5,367.3z"/>
		<path fill="#979695" d="M578.3,368.1c0,0.8-0.2,1.5-0.6,2c-0.4,0.5-1,0.8-1.7,0.8c-0.4,0-0.7-0.1-0.9-0.2s-0.5-0.3-0.7-0.5v2.8
			h-1.1v-8h0.8l0.2,0.8c0.2-0.3,0.4-0.5,0.7-0.6c0.3-0.1,0.6-0.2,1-0.2c0.7,0,1.3,0.3,1.7,0.9s0.6,1.3,0.6,2.3V368.1z M577.3,368
			c0-0.7-0.1-1.2-0.4-1.6s-0.6-0.6-1.1-0.6c-0.3,0-0.6,0.1-0.8,0.2c-0.2,0.1-0.4,0.3-0.5,0.6v2.8c0.1,0.2,0.3,0.4,0.5,0.6
			s0.5,0.2,0.8,0.2c0.5,0,0.9-0.2,1.1-0.5s0.4-0.8,0.4-1.4V368z"/>
		<path fill="#979695" d="M582.1,370.9c-0.8,0-1.5-0.3-1.9-0.8c-0.5-0.5-0.7-1.2-0.7-2.1v-0.2c0-0.8,0.2-1.5,0.7-2.1
			s1.1-0.8,1.7-0.8c0.8,0,1.4,0.2,1.8,0.7c0.4,0.5,0.6,1.1,0.6,1.9v0.7h-3.8l0,0c0,0.6,0.2,1,0.4,1.4c0.3,0.4,0.7,0.5,1.1,0.5
			c0.4,0,0.7-0.1,0.9-0.2c0.3-0.1,0.5-0.2,0.7-0.4l0.4,0.7c-0.2,0.2-0.5,0.4-0.8,0.5S582.5,370.9,582.1,370.9z M581.9,365.7
			c-0.4,0-0.7,0.1-0.9,0.4c-0.3,0.3-0.4,0.7-0.5,1.1l0,0h2.7v-0.1c0-0.4-0.1-0.8-0.3-1S582.3,365.7,581.9,365.7z"/>
		<path fill="#979695" d="M585.4,369.9c0.3-0.3,0.5-0.7,0.7-1.1s0.3-0.9,0.3-1.7l0.1-2.2h3.8v5h0.8l-0.1,2.5h-1v-1.7h-4v1.7h-1
			l-0.1-2.5H585.4z M587.5,367.2c0,0.6-0.1,1.2-0.3,1.6c-0.1,0.5-0.3,0.8-0.6,1.1h2.6v-4h-1.7L587.5,367.2z"/>
		<path fill="#979695" d="M595.8,365h1.1v5.8h-1.1v-4.1l0,0l-2.6,4.1h-1.1V365h1.1v4.1l0,0L595.8,365z"/>
		<path fill="#979695" d="M602.9,365.8H601v5h-1.1v-5H598V365h4.9V365.8z"/>
		<path fill="#979695" d="M603.7,367.8c0-0.9,0.2-1.6,0.7-2.1c0.5-0.6,1.1-0.8,1.9-0.8c0.8,0,1.4,0.3,1.9,0.8
			c0.5,0.6,0.7,1.3,0.7,2.1v0.1c0,0.9-0.2,1.6-0.7,2.1c-0.5,0.6-1.1,0.8-1.9,0.8s-1.4-0.3-1.9-0.8c-0.5-0.6-0.7-1.3-0.7-2.1V367.8z
			 M604.7,367.9c0,0.6,0.1,1.1,0.4,1.5s0.6,0.6,1.2,0.6c0.5,0,0.9-0.2,1.1-0.6s0.4-0.9,0.4-1.5v-0.1c0-0.6-0.1-1.1-0.4-1.5
			c-0.3-0.4-0.6-0.6-1.2-0.6c-0.5,0-0.9,0.2-1.1,0.6s-0.4,0.9-0.4,1.5V367.9z"/>
		<path fill="#979695" d="M615.1,368.1c0,0.8-0.2,1.5-0.6,2c-0.4,0.5-1,0.8-1.7,0.8c-0.4,0-0.7-0.1-0.9-0.2s-0.5-0.3-0.7-0.5v2.8
			h-1.1v-8h0.8l0.2,0.8c0.2-0.3,0.4-0.5,0.7-0.6c0.3-0.1,0.6-0.2,1-0.2c0.7,0,1.3,0.3,1.7,0.9s0.6,1.3,0.6,2.3V368.1z M614.1,368
			c0-0.7-0.1-1.2-0.4-1.6s-0.6-0.6-1.1-0.6c-0.3,0-0.6,0.1-0.8,0.2c-0.2,0.1-0.4,0.3-0.5,0.6v2.8c0.1,0.2,0.3,0.4,0.5,0.6
			s0.5,0.2,0.8,0.2c0.5,0,0.9-0.2,1.1-0.5s0.4-0.8,0.4-1.4V368z"/>
		<path fill="#979695" d="M616.2,367.8c0-0.9,0.2-1.6,0.7-2.1c0.5-0.6,1.1-0.8,1.9-0.8c0.8,0,1.4,0.3,1.9,0.8
			c0.5,0.6,0.7,1.3,0.7,2.1v0.1c0,0.9-0.2,1.6-0.7,2.1c-0.5,0.6-1.1,0.8-1.9,0.8s-1.4-0.3-1.9-0.8c-0.5-0.6-0.7-1.3-0.7-2.1V367.8z
			 M617.2,367.9c0,0.6,0.1,1.1,0.4,1.5s0.6,0.6,1.2,0.6c0.5,0,0.9-0.2,1.1-0.6s0.4-0.9,0.4-1.5v-0.1c0-0.6-0.1-1.1-0.4-1.5
			c-0.3-0.4-0.6-0.6-1.2-0.6c-0.5,0-0.9,0.2-1.1,0.6s-0.4,0.9-0.4,1.5V367.9z"/>
		<path fill="#979695" d="M622.7,370.8V365h2.3c0.8,0,1.4,0.1,1.8,0.4c0.4,0.3,0.6,0.7,0.6,1.2c0,0.3-0.1,0.5-0.2,0.7
			c-0.2,0.2-0.4,0.4-0.7,0.5c0.4,0.1,0.6,0.3,0.8,0.5s0.3,0.5,0.3,0.8c0,0.5-0.2,1-0.6,1.2s-0.9,0.4-1.7,0.4H622.7z M623.7,367.4
			h1.2c0.4,0,0.8-0.1,1-0.2c0.2-0.1,0.3-0.3,0.3-0.6c0-0.3-0.1-0.5-0.3-0.6s-0.6-0.2-1-0.2h-1.2V367.4z M623.7,368.2v1.7h1.6
			c0.4,0,0.7-0.1,0.9-0.2c0.2-0.1,0.3-0.4,0.3-0.6c0-0.3-0.1-0.5-0.3-0.6c-0.2-0.2-0.5-0.2-0.9-0.2H623.7z"/>
	</g>
</g>
<g>
	<path fill="none" stroke="#808080" stroke-miterlimit="10" d="M619.5,334.5h-45.2c-3.8,0-6.8-3.1-6.8-6.8v-45.2
		c0-3.8,3.1-6.8,6.8-6.8h45.2c3.8,0,6.8,3.1,6.8,6.8v45.2C626.3,331.4,623.2,334.5,619.5,334.5z"/>
	<path fill="none" stroke="#808080" stroke-miterlimit="10" d="M617.4,329.4h-41c-2.1,0-3.8-1.7-3.8-3.8v-41c0-2.1,1.7-3.8,3.8-3.8
		h41c2.1,0,3.8,1.7,3.8,3.8v41C621.2,327.7,619.5,329.4,617.4,329.4z"/>
	<circle fill="none" stroke="#808080" stroke-width="5" stroke-miterlimit="10" cx="588" cy="305" r="6.4"/>
	<path fill="#FFFFFF" stroke="#808080" stroke-miterlimit="10" d="M621.4,297.3h-0.3c-0.9,0-1.6-0.7-1.6-1.6v-6.5
		c0-0.9,0.7-1.6,1.6-1.6h0.3c0.9,0,1.6,0.7,1.6,1.6v6.5C623,296.5,622.3,297.3,621.4,297.3z"/>
	<path fill="#FFFFFF" stroke="#808080" stroke-miterlimit="10" d="M621.4,321.8h-0.3c-0.9,0-1.6-0.7-1.6-1.6v-6.5
		c0-0.9,0.7-1.6,1.6-1.6h0.3c0.9,0,1.6,0.7,1.6,1.6v6.5C623,321.1,622.3,321.8,621.4,321.8z"/>
</g>
<g>
	<g>
		<path fill="#979695" d="M65.7,350.6H62v2.3h1.9c0.8,0,1.5,0.2,1.9,0.6c0.5,0.4,0.7,1,0.7,1.7c0,0.7-0.2,1.3-0.7,1.7
			c-0.5,0.4-1.1,0.7-1.9,0.7h-3v-7.8h4.8V350.6z M62,353.7v3.1h1.9c0.5,0,0.9-0.2,1.2-0.5c0.3-0.3,0.4-0.7,0.4-1.1
			c0-0.4-0.1-0.8-0.4-1.1c-0.3-0.3-0.7-0.4-1.2-0.4H62z"/>
		<path fill="#979695" d="M71.3,357.6c0-0.2-0.1-0.3-0.1-0.5c0-0.1,0-0.3,0-0.4c-0.2,0.3-0.5,0.5-0.8,0.7c-0.3,0.2-0.7,0.3-1,0.3
			c-0.6,0-1.1-0.2-1.4-0.5c-0.3-0.3-0.5-0.7-0.5-1.3c0-0.6,0.2-1,0.7-1.3c0.4-0.3,1.1-0.5,1.8-0.5h1.1v-0.6c0-0.3-0.1-0.6-0.3-0.8
			c-0.2-0.2-0.5-0.3-0.9-0.3c-0.3,0-0.6,0.1-0.8,0.3c-0.2,0.2-0.3,0.4-0.3,0.6h-1l0,0c0-0.4,0.2-0.8,0.6-1.2c0.4-0.4,1-0.5,1.6-0.5
			c0.7,0,1.2,0.2,1.6,0.5s0.6,0.8,0.6,1.4v2.8c0,0.2,0,0.4,0,0.6s0.1,0.4,0.1,0.6H71.3z M69.6,356.8c0.4,0,0.7-0.1,1-0.3
			s0.5-0.4,0.6-0.7v-0.9H70c-0.4,0-0.8,0.1-1,0.3c-0.3,0.2-0.4,0.5-0.4,0.8c0,0.3,0.1,0.5,0.2,0.6C69,356.7,69.2,356.8,69.6,356.8z"
			/>
		<path fill="#979695" d="M78.5,357.6h-1.1v-2.5h-2.6v2.5h-1.1v-5.8h1.1v2.5h2.6v-2.5h1.1V357.6z"/>
		<path fill="#979695" d="M81.9,355.1h-0.7v2.5h-1.1v-5.8h1.1v2.5h0.6l1.9-2.5h1.2l0,0l-2.3,2.8l2.5,3l0,0h-1.3L81.9,355.1z"/>
		<path fill="#979695" d="M89.5,351.8h1.1v5.8h-1.1v-4.1l0,0l-2.6,4.1h-1.1v-5.8h1.1v4.1l0,0L89.5,351.8z"/>
		<path fill="#979695" d="M51.7,365.1c0,0.4-0.1,0.7-0.4,1s-0.6,0.5-1,0.7c0.5,0.2,0.9,0.4,1.1,0.7c0.3,0.3,0.4,0.7,0.4,1.1
			c0,0.7-0.3,1.3-0.9,1.7c-0.6,0.4-1.3,0.6-2.2,0.6c-0.8,0-1.5-0.2-2.1-0.6s-0.9-0.9-0.8-1.7l0,0h1c0,0.4,0.2,0.8,0.5,1
			s0.8,0.4,1.4,0.4c0.6,0,1.1-0.1,1.5-0.4s0.5-0.6,0.5-1c0-0.5-0.2-0.8-0.5-1.1c-0.3-0.2-0.8-0.3-1.5-0.3h-1v-0.8h1
			c0.6,0,1.1-0.1,1.4-0.4s0.5-0.6,0.5-1c0-0.4-0.2-0.7-0.5-1c-0.3-0.3-0.8-0.4-1.4-0.4c-0.5,0-0.9,0.1-1.3,0.4
			c-0.3,0.3-0.5,0.6-0.5,0.9h-1l0,0c0-0.6,0.2-1.1,0.8-1.5c0.5-0.4,1.2-0.6,2-0.6c0.9,0,1.6,0.2,2.2,0.6S51.7,364.4,51.7,365.1z"/>
		<path fill="#979695" d="M56.9,370.8c0-0.2-0.1-0.3-0.1-0.5c0-0.1,0-0.3,0-0.4c-0.2,0.3-0.5,0.5-0.8,0.7c-0.3,0.2-0.7,0.3-1,0.3
			c-0.6,0-1.1-0.2-1.4-0.5c-0.3-0.3-0.5-0.7-0.5-1.3c0-0.6,0.2-1,0.7-1.3c0.4-0.3,1.1-0.5,1.8-0.5h1.1v-0.6c0-0.3-0.1-0.6-0.3-0.8
			c-0.2-0.2-0.5-0.3-0.9-0.3c-0.3,0-0.6,0.1-0.8,0.3c-0.2,0.2-0.3,0.4-0.3,0.6h-1l0,0c0-0.4,0.2-0.8,0.6-1.2c0.4-0.4,1-0.5,1.6-0.5
			c0.7,0,1.2,0.2,1.6,0.5s0.6,0.8,0.6,1.4v2.8c0,0.2,0,0.4,0,0.6s0.1,0.4,0.1,0.6H56.9z M55.2,370c0.4,0,0.7-0.1,1-0.3
			s0.5-0.4,0.6-0.7v-0.9h-1.2c-0.4,0-0.8,0.1-1,0.3c-0.3,0.2-0.4,0.5-0.4,0.8c0,0.3,0.1,0.5,0.2,0.6C54.6,369.9,54.9,370,55.2,370z"
			/>
		<path fill="#979695" d="M61.8,370.9c-0.8,0-1.5-0.3-1.9-0.8c-0.5-0.5-0.7-1.2-0.7-2.1v-0.2c0-0.8,0.2-1.5,0.7-2.1
			c0.5-0.5,1.1-0.8,1.7-0.8c0.8,0,1.4,0.2,1.8,0.7s0.6,1.1,0.6,1.9v0.7h-3.8l0,0c0,0.6,0.2,1,0.4,1.4c0.3,0.4,0.7,0.5,1.1,0.5
			c0.4,0,0.7-0.1,0.9-0.2c0.3-0.1,0.5-0.2,0.7-0.4l0.4,0.7c-0.2,0.2-0.5,0.4-0.8,0.5S62.3,370.9,61.8,370.9z M61.7,365.7
			c-0.4,0-0.7,0.1-0.9,0.4s-0.4,0.7-0.5,1.1l0,0H63v-0.1c0-0.4-0.1-0.8-0.3-1S62.1,365.7,61.7,365.7z"/>
		<path fill="#979695" d="M68.5,369.4L68.5,369.4l1.9-4.4h1.3v5.8h-1.1v-4l0,0l-1.8,4h-0.7l-1.8-4.1l0,0v4.1h-1.1V365h1.4
			L68.5,369.4z"/>
		<path fill="#979695" d="M74.5,365v5h2v-5h1.1v5h2v-5h1.1v5h0.9v2.6h-1v-1.8h-7.2V365H74.5z"/>
		<path fill="#979695" d="M86.4,365h1.1v5.8h-1.1v-4.1l0,0l-2.6,4.1h-1.1V365h1.1v4.1l0,0L86.4,365z"/>
		<path fill="#979695" d="M90.8,368.3h-0.7v2.5H89V365h1.1v2.5h0.6l1.9-2.5h1.2l0,0l-2.3,2.8l2.5,3l0,0h-1.3L90.8,368.3z"/>
		<path fill="#979695" d="M94.3,367.8c0-0.9,0.2-1.6,0.7-2.1s1.1-0.8,1.9-0.8c0.8,0,1.4,0.3,1.9,0.8c0.5,0.6,0.7,1.3,0.7,2.1v0.1
			c0,0.9-0.2,1.6-0.7,2.1c-0.5,0.6-1.1,0.8-1.9,0.8s-1.4-0.3-1.9-0.8c-0.5-0.6-0.7-1.3-0.7-2.1V367.8z M95.3,367.9
			c0,0.6,0.1,1.1,0.4,1.5c0.3,0.4,0.6,0.6,1.2,0.6c0.5,0,0.9-0.2,1.1-0.6s0.4-0.9,0.4-1.5v-0.1c0-0.6-0.1-1.1-0.4-1.5
			c-0.3-0.4-0.6-0.6-1.2-0.6c-0.5,0-0.9,0.2-1.1,0.6c-0.3,0.4-0.4,0.9-0.4,1.5V367.9z"/>
		<path fill="#979695" d="M100.8,370.8V365h2.3c0.8,0,1.4,0.1,1.8,0.4s0.6,0.7,0.6,1.2c0,0.3-0.1,0.5-0.2,0.7s-0.4,0.4-0.7,0.5
			c0.4,0.1,0.6,0.3,0.8,0.5c0.2,0.2,0.3,0.5,0.3,0.8c0,0.5-0.2,1-0.6,1.2c-0.4,0.3-0.9,0.4-1.7,0.4H100.8z M101.8,367.4h1.2
			c0.4,0,0.8-0.1,1-0.2c0.2-0.1,0.3-0.3,0.3-0.6c0-0.3-0.1-0.5-0.3-0.6s-0.6-0.2-1-0.2h-1.2V367.4z M101.8,368.2v1.7h1.6
			c0.4,0,0.7-0.1,0.9-0.2s0.3-0.4,0.3-0.6c0-0.3-0.1-0.5-0.3-0.6s-0.5-0.2-0.9-0.2H101.8z"/>
	</g>
</g>
<g>
	<path fill="none" stroke="#808080" stroke-miterlimit="10" d="M98.3,334.5H53.1c-3.8,0-6.8-3.1-6.8-6.8v-45.2
		c0-3.8,3.1-6.8,6.8-6.8h45.2c3.8,0,6.8,3.1,6.8,6.8v45.2C105.1,331.4,102.1,334.5,98.3,334.5z"/>
	<path fill="none" stroke="#808080" stroke-miterlimit="10" d="M96.2,329.4h-41c-2.1,0-3.8-1.7-3.8-3.8v-41c0-2.1,1.7-3.8,3.8-3.8
		h41c2.1,0,3.8,1.7,3.8,3.8v41C100,327.7,98.3,329.4,96.2,329.4z"/>
	<circle fill="none" stroke="#808080" stroke-width="5" stroke-miterlimit="10" cx="66.8" cy="305" r="6.4"/>
	<path fill="#FFFFFF" stroke="#808080" stroke-miterlimit="10" d="M100.2,297.3h-0.3c-0.9,0-1.6-0.7-1.6-1.6v-6.5
		c0-0.9,0.7-1.6,1.6-1.6h0.3c0.9,0,1.6,0.7,1.6,1.6v6.5C101.8,296.5,101.1,297.3,100.2,297.3z"/>
	<path fill="#FFFFFF" stroke="#808080" stroke-miterlimit="10" d="M100.2,321.8h-0.3c-0.9,0-1.6-0.7-1.6-1.6v-6.5
		c0-0.9,0.7-1.6,1.6-1.6h0.3c0.9,0,1.6,0.7,1.6,1.6v6.5C101.8,321.1,101.1,321.8,100.2,321.8z"/>
</g>
<g>
	<g>
		<line fill="none" stroke="#00CC66" stroke-width="2" stroke-miterlimit="10" x1="539.6" y1="78.1" x2="436" y2="78.1"/>
		<g>
			<polygon fill="#00CC66" points="437.9,75.3 427.3,78.1 437.9,81 			"/>
		</g>
	</g>
</g>
<g>
	<rect x="460.6" y="71.9" fill="#FFFFFF" width="48.1" height="11.7"/>
	<g>
		<g>
			<path fill="#00CC66" d="M467.1,77.3c0.6,0,1.1-0.1,1.4-0.4s0.5-0.6,0.5-1c0-0.4-0.2-0.7-0.5-1c-0.3-0.3-0.8-0.4-1.5-0.4
				c-0.5,0-0.9,0.1-1.3,0.4c-0.3,0.2-0.5,0.6-0.5,0.9h-1.4l0,0c0-0.7,0.3-1.3,0.9-1.8c0.6-0.5,1.4-0.7,2.4-0.7
				c1.1,0,1.9,0.2,2.5,0.7c0.6,0.4,0.9,1.1,0.9,1.9c0,0.4-0.1,0.8-0.4,1.1c-0.3,0.3-0.6,0.6-1.1,0.8c0.5,0.2,1,0.4,1.2,0.8
				s0.4,0.8,0.4,1.3c0,0.8-0.3,1.5-1,1.9s-1.5,0.7-2.6,0.7c-0.9,0-1.7-0.2-2.4-0.7c-0.7-0.4-1-1.1-1-1.9l0,0h1.4
				c0,0.4,0.2,0.7,0.5,1c0.4,0.3,0.8,0.4,1.4,0.4c0.7,0,1.2-0.1,1.6-0.4c0.4-0.3,0.6-0.6,0.6-1c0-0.5-0.2-0.9-0.5-1.1
				c-0.3-0.2-0.8-0.4-1.5-0.4h-1.2v-1.2H467.1z"/>
			<path fill="#00CC66" d="M476.1,82.5c-0.1-0.2-0.1-0.3-0.1-0.5c0-0.2-0.1-0.3-0.1-0.5c-0.2,0.3-0.5,0.6-0.8,0.8
				c-0.3,0.2-0.7,0.3-1.1,0.3c-0.7,0-1.2-0.2-1.6-0.5c-0.4-0.4-0.6-0.8-0.6-1.5c0-0.6,0.3-1.1,0.8-1.5c0.5-0.4,1.2-0.5,2.1-0.5h1.2
				V78c0-0.3-0.1-0.6-0.3-0.8c-0.2-0.2-0.5-0.3-0.9-0.3c-0.3,0-0.6,0.1-0.8,0.2s-0.3,0.4-0.3,0.6h-1.4l0,0c0-0.5,0.2-1,0.7-1.4
				c0.5-0.4,1.1-0.6,1.9-0.6c0.8,0,1.4,0.2,1.9,0.6c0.5,0.4,0.7,1,0.7,1.7v3c0,0.3,0,0.5,0.1,0.8c0,0.3,0.1,0.5,0.2,0.7H476.1z
				 M474.3,81.4c0.4,0,0.7-0.1,1-0.3c0.3-0.2,0.5-0.4,0.6-0.6v-1h-1.2c-0.4,0-0.8,0.1-1,0.3c-0.2,0.2-0.4,0.5-0.4,0.8
				c0,0.3,0.1,0.5,0.2,0.6S474,81.4,474.3,81.4z"/>
			<path fill="#00CC66" d="M484.4,75.8v6.7H483v-2.4h-1.4l-1.4,2.4h-1.6l1.6-2.7c-0.4-0.2-0.7-0.4-0.9-0.7c-0.2-0.3-0.3-0.7-0.3-1.1
				c0-0.6,0.2-1.1,0.7-1.5s1.1-0.6,2-0.6H484.4z M480.4,78c0,0.3,0.1,0.5,0.3,0.7c0.2,0.2,0.5,0.3,0.8,0.3h1.5V77h-1.4
				c-0.4,0-0.7,0.1-0.9,0.3C480.5,77.5,480.4,77.7,480.4,78z"/>
			<path fill="#00CC66" d="M486.2,82.5v-6.7h2.7c0.9,0,1.6,0.2,2.1,0.5s0.7,0.8,0.7,1.4c0,0.3-0.1,0.6-0.3,0.8
				c-0.2,0.2-0.5,0.4-0.8,0.6c0.5,0.1,0.8,0.3,1,0.6s0.4,0.6,0.4,1c0,0.6-0.2,1.1-0.7,1.4c-0.5,0.3-1.1,0.5-2,0.5H486.2z
				 M487.7,78.6h1.3c0.4,0,0.7-0.1,0.9-0.2c0.2-0.1,0.3-0.3,0.3-0.5c0-0.3-0.1-0.5-0.3-0.6c-0.2-0.1-0.5-0.2-1-0.2h-1.2V78.6z
				 M487.7,79.7v1.7h1.6c0.4,0,0.7-0.1,0.9-0.2c0.2-0.1,0.3-0.3,0.3-0.6c0-0.3-0.1-0.5-0.3-0.6c-0.2-0.1-0.5-0.2-0.9-0.2H487.7z"/>
			<path fill="#00CC66" d="M495.6,79.9h-0.8v2.6h-1.5v-6.7h1.5v2.7h0.7l1.8-2.7h1.9l-2.4,3.2l2.6,3.5h-1.9L495.6,79.9z"/>
			<path fill="#00CC66" d="M504.2,75.8h1.5v6.7h-1.5v-4.4l0,0l-2.6,4.4h-1.5v-6.7h1.5v4.4l0,0L504.2,75.8z"/>
		</g>
	</g>
</g>
<g>
	<g>
		<line fill="none" stroke="#0099FF" stroke-width="2" stroke-miterlimit="10" x1="137.6" y1="78.6" x2="237.8" y2="78.6"/>
		<g>
			<polygon fill="#0099FF" points="235.8,81.4 246.5,78.6 235.8,75.7 			"/>
		</g>
	</g>
</g>
<g>
	<rect x="145" y="70.3" fill="#FFFFFF" width="83.6" height="17"/>
</g>
<g>
	<g>
		<line fill="none" stroke="#B3B3B3" stroke-miterlimit="10" stroke-dasharray="5,5" x1="75.4" y1="171.7" x2="75.4" y2="254.3"/>
		<g>
			<polygon fill="#B3B3B3" points="73.4,173 75.4,165.5 77.4,173 			"/>
		</g>
		<g>
			<polygon fill="#B3B3B3" points="73.4,252.9 75.4,260.5 77.4,252.9 			"/>
		</g>
	</g>
</g>
<rect x="51.1" y="205.9" fill="#FFFFFF" width="48.6" height="14.2"/>
<g>
	<g>
		<path fill="#CCCCCC" d="M64.6,215.6h1l-0.1,2.5h-0.9v-1.7h-5.1v1.8h-0.8l-0.1-2.5h0.6c0.3-0.3,0.5-0.7,0.7-1.2
			c0.2-0.5,0.3-1.3,0.3-2.2l0.2-2.9h4.3V215.6z M61.1,212.1c0,0.8-0.1,1.5-0.3,2c-0.2,0.6-0.4,1.1-0.6,1.4h3.4V210h-2.4L61.1,212.1z
			"/>
		<path fill="#CCCCCC" d="M68.7,216.5c-0.7,0-1.3-0.2-1.8-0.7c-0.4-0.5-0.7-1.1-0.7-1.9v-0.2c0-0.8,0.2-1.4,0.7-1.9s1-0.7,1.6-0.7
			c0.7,0,1.3,0.2,1.6,0.6s0.5,1,0.5,1.7v0.6h-3.4l0,0c0,0.5,0.1,0.9,0.4,1.2s0.6,0.5,1,0.5c0.3,0,0.6,0,0.9-0.1
			c0.2-0.1,0.5-0.2,0.6-0.4l0.4,0.6c-0.2,0.2-0.4,0.3-0.7,0.5C69.5,216.4,69.1,216.5,68.7,216.5z M68.6,211.7
			c-0.3,0-0.6,0.1-0.8,0.4c-0.2,0.3-0.4,0.6-0.4,1l0,0h2.4v-0.1c0-0.4-0.1-0.7-0.3-0.9C69.2,211.9,68.9,211.7,68.6,211.7z"/>
		<path fill="#CCCCCC" d="M76.1,216.4h-1v-2.2h-2.4v2.2h-1v-5.3h1v2.3h2.4v-2.3h1V216.4z"/>
		<path fill="#CCCCCC" d="M78.5,213.1h1.3c0.6,0,1.1,0.1,1.5,0.4s0.5,0.7,0.5,1.2c0,0.5-0.2,0.9-0.5,1.2c-0.4,0.3-0.8,0.5-1.5,0.5
			h-2.3v-5.3h1V213.1z M78.5,213.8v1.8h1.3c0.3,0,0.6-0.1,0.8-0.2c0.2-0.2,0.2-0.4,0.2-0.6c0-0.2-0.1-0.4-0.2-0.6s-0.4-0.3-0.8-0.3
			H78.5z"/>
		<path fill="#CCCCCC" d="M86.3,211.8h-2.4v4.5h-1v-5.3h3.4V211.8z"/>
		<path fill="#CCCCCC" d="M90.4,211.1h1v5.3h-1v-3.8l0,0l-2.3,3.8h-1v-5.3h1v3.8l0,0L90.4,211.1z"/>
	</g>
</g>
<g>
	<g>
		<line fill="none" stroke="#FF0036" stroke-miterlimit="10" stroke-dasharray="5,5" x1="336.1" y1="171.7" x2="336.1" y2="254.3"/>
		<g>
			<polygon fill="#FF0036" points="334.1,173 336.1,165.5 338.1,173 			"/>
		</g>
		<g>
			<polygon fill="#FF0036" points="334.1,252.9 336.1,260.5 338.1,252.9 			"/>
		</g>
	</g>
</g>
<g>
	<rect x="311.8" y="208.9" fill="#FFFFFF" width="48.6" height="14.2"/>
	<g>
		<path fill="#FF0036" d="M322.5,216.5c0,0.6-0.1,1.2-0.3,1.7c-0.2,0.5-0.5,1-0.9,1.3l1.6,1.5l-0.9,0.8l-1.8-1.6
			c-0.2,0.1-0.5,0.2-0.7,0.2c-0.3,0-0.5,0.1-0.8,0.1c-1.1,0-2-0.4-2.7-1.1c-0.7-0.8-1-1.7-1-2.8v-1.7c0-1.1,0.3-2.1,1-2.8
			c0.7-0.8,1.6-1.1,2.7-1.1c1.1,0,2,0.4,2.7,1.1c0.7,0.8,1.1,1.7,1.1,2.8V216.5z M321.3,214.9c0-0.9-0.2-1.6-0.7-2.1
			c-0.5-0.5-1.1-0.8-1.9-0.8c-0.7,0-1.3,0.3-1.8,0.8c-0.4,0.5-0.7,1.2-0.7,2.1v1.7c0,0.9,0.2,1.6,0.7,2.1c0.4,0.5,1,0.8,1.8,0.8
			c0.8,0,1.4-0.3,1.9-0.8c0.5-0.5,0.7-1.2,0.7-2.1V214.9z"/>
		<path fill="#FF0036" d="M331.2,211v6.3c0,1-0.3,1.8-1,2.3c-0.7,0.5-1.5,0.8-2.6,0.8c-1,0-1.9-0.3-2.5-0.8c-0.6-0.5-1-1.3-1-2.3
			V211h1.3v6.3c0,0.7,0.2,1.2,0.6,1.6c0.4,0.4,0.9,0.5,1.6,0.5c0.7,0,1.2-0.2,1.7-0.5c0.4-0.4,0.6-0.9,0.6-1.6V211H331.2z"/>
		<path fill="#FF0036" d="M338.2,218h-3.9l-0.9,2.4h-1.3l3.6-9.3h1.1l3.5,9.3h-1.3L338.2,218z M334.7,216.9h3.1l-1.5-4.2h0
			L334.7,216.9z"/>
		<path fill="#FF0036" d="M348.7,220.4h-1.3l-4.5-7.2l0,0v7.2h-1.3V211h1.3l4.5,7.2l0,0V211h1.3V220.4z"/>
		<path fill="#FF0036" d="M357.1,212h-3v8.3h-1.3V212h-3v-1h7.2V212z"/>
	</g>
</g>
<g>
	<g>
		<line fill="none" stroke="#B3B3B3" stroke-miterlimit="10" stroke-dasharray="5,5" x1="596.8" y1="171.7" x2="596.8" y2="254.3"/>
		<g>
			<polygon fill="#B3B3B3" points="594.7,173 596.8,165.5 598.8,173 			"/>
		</g>
		<g>
			<polygon fill="#B3B3B3" points="594.7,252.9 596.8,260.5 598.8,252.9 			"/>
		</g>
	</g>
</g>
<rect x="572.5" y="205.9" fill="#FFFFFF" width="48.6" height="14.2"/>
<g>
	<g>
		<path fill="#CCCCCC" d="M585.9,215.6h1l-0.1,2.5h-0.9v-1.7h-5.1v1.8H580l-0.1-2.5h0.6c0.3-0.3,0.5-0.7,0.7-1.2
			c0.2-0.5,0.3-1.3,0.3-2.2l0.2-2.9h4.3V215.6z M582.4,212.1c0,0.8-0.1,1.5-0.3,2c-0.2,0.6-0.4,1.1-0.6,1.4h3.4V210h-2.4
			L582.4,212.1z"/>
		<path fill="#CCCCCC" d="M590,216.5c-0.7,0-1.3-0.2-1.8-0.7c-0.4-0.5-0.7-1.1-0.7-1.9v-0.2c0-0.8,0.2-1.4,0.7-1.9
			c0.4-0.5,1-0.7,1.6-0.7c0.7,0,1.3,0.2,1.6,0.6s0.5,1,0.5,1.7v0.6h-3.4l0,0c0,0.5,0.1,0.9,0.4,1.2s0.6,0.5,1,0.5
			c0.3,0,0.6,0,0.9-0.1c0.2-0.1,0.5-0.2,0.6-0.4l0.4,0.6c-0.2,0.2-0.4,0.3-0.7,0.5C590.9,216.4,590.5,216.5,590,216.5z M589.9,211.7
			c-0.3,0-0.6,0.1-0.8,0.4c-0.2,0.3-0.4,0.6-0.4,1l0,0h2.4v-0.1c0-0.4-0.1-0.7-0.3-0.9C590.6,211.9,590.3,211.7,589.9,211.7z"/>
		<path fill="#CCCCCC" d="M597.4,216.4h-1v-2.2h-2.4v2.2h-1v-5.3h1v2.3h2.4v-2.3h1V216.4z"/>
		<path fill="#CCCCCC" d="M599.8,213.1h1.3c0.6,0,1.1,0.1,1.5,0.4c0.3,0.3,0.5,0.7,0.5,1.2c0,0.5-0.2,0.9-0.5,1.2
			c-0.3,0.3-0.8,0.5-1.5,0.5h-2.3v-5.3h1V213.1z M599.8,213.8v1.8h1.3c0.3,0,0.6-0.1,0.8-0.2c0.2-0.2,0.2-0.4,0.2-0.6
			c0-0.2-0.1-0.4-0.2-0.6s-0.4-0.3-0.8-0.3H599.8z"/>
		<path fill="#CCCCCC" d="M607.6,211.8h-2.4v4.5h-1v-5.3h3.4V211.8z"/>
		<path fill="#CCCCCC" d="M611.7,211.1h1v5.3h-1v-3.8l0,0l-2.3,3.8h-1v-5.3h1v3.8l0,0L611.7,211.1z"/>
	</g>
</g>
<g>
	<g>
		<line fill="none" stroke="#B3B3B3" stroke-miterlimit="10" stroke-dasharray="5,5" x1="389.4" y1="305" x2="544.2" y2="305"/>
		<g>
			<polygon fill="#B3B3B3" points="390.8,307.1 383.2,305 390.8,303 			"/>
		</g>
		<g>
			<polygon fill="#B3B3B3" points="542.8,307.1 550.4,305 542.8,303 			"/>
		</g>
	</g>
</g>
<rect x="437.3" y="297.9" fill="#FFFFFF" width="48.6" height="14.2"/>
<g>
	<g>
		<path fill="#CCCCCC" d="M450.8,307.6h1l-0.1,2.5h-0.9v-1.7h-5.1v1.8h-0.8l-0.1-2.5h0.6c0.3-0.3,0.5-0.7,0.7-1.2
			c0.2-0.5,0.3-1.3,0.3-2.2l0.2-2.9h4.3V307.6z M447.3,304.2c0,0.8-0.1,1.5-0.3,2c-0.2,0.6-0.4,1.1-0.6,1.4h3.4V302h-2.4
			L447.3,304.2z"/>
		<path fill="#CCCCCC" d="M454.9,308.5c-0.7,0-1.3-0.2-1.8-0.7c-0.4-0.5-0.7-1.1-0.7-1.9v-0.2c0-0.8,0.2-1.4,0.7-1.9
			c0.4-0.5,1-0.8,1.6-0.8c0.7,0,1.3,0.2,1.6,0.6s0.5,1,0.5,1.7v0.6h-3.4l0,0c0,0.5,0.1,0.9,0.4,1.2s0.6,0.5,1,0.5
			c0.3,0,0.6,0,0.9-0.1c0.2-0.1,0.5-0.2,0.6-0.4l0.4,0.6c-0.2,0.2-0.4,0.3-0.7,0.5C455.8,308.4,455.4,308.5,454.9,308.5z
			 M454.8,303.8c-0.3,0-0.6,0.1-0.8,0.4c-0.2,0.3-0.4,0.6-0.4,1l0,0h2.4v-0.1c0-0.4-0.1-0.7-0.3-0.9S455.2,303.8,454.8,303.8z"/>
		<path fill="#CCCCCC" d="M462.3,308.4h-1v-2.2H459v2.2h-1v-5.3h1v2.3h2.4v-2.3h1V308.4z"/>
		<path fill="#CCCCCC" d="M464.7,305.1h1.3c0.6,0,1.1,0.1,1.5,0.4c0.3,0.3,0.5,0.7,0.5,1.2c0,0.5-0.2,0.9-0.5,1.2
			c-0.3,0.3-0.8,0.5-1.5,0.5h-2.3v-5.3h1V305.1z M464.7,305.9v1.8h1.3c0.3,0,0.6-0.1,0.8-0.2c0.2-0.2,0.2-0.4,0.2-0.6
			c0-0.2-0.1-0.4-0.2-0.6c-0.2-0.2-0.4-0.3-0.8-0.3H464.7z"/>
		<path fill="#CCCCCC" d="M472.5,303.9h-2.4v4.5h-1v-5.3h3.4V303.9z"/>
		<path fill="#CCCCCC" d="M476.6,303.1h1v5.3h-1v-3.8l0,0l-2.3,3.8h-1v-5.3h1v3.8l0,0L476.6,303.1z"/>
	</g>
</g>
<g>
	<g>
		<line fill="none" stroke="#B3B3B3" stroke-miterlimit="10" stroke-dasharray="5,5" x1="127.3" y1="305" x2="282" y2="305"/>
		<g>
			<polygon fill="#B3B3B3" points="128.7,307.1 121.1,305 128.7,303 			"/>
		</g>
		<g>
			<polygon fill="#B3B3B3" points="280.7,307.1 288.2,305 280.7,303 			"/>
		</g>
	</g>
</g>
<rect x="175.2" y="297.9" fill="#FFFFFF" width="48.6" height="14.2"/>
<g>
	<g>
		<path fill="#CCCCCC" d="M188.7,307.6h1l-0.1,2.5h-0.9v-1.7h-5.1v1.8h-0.8l-0.1-2.5h0.6c0.3-0.3,0.5-0.7,0.7-1.2
			c0.2-0.5,0.3-1.3,0.3-2.2l0.2-2.9h4.3V307.6z M185.2,304.2c0,0.8-0.1,1.5-0.3,2c-0.2,0.6-0.4,1.1-0.6,1.4h3.4V302h-2.4
			L185.2,304.2z"/>
		<path fill="#CCCCCC" d="M192.8,308.5c-0.7,0-1.3-0.2-1.8-0.7c-0.4-0.5-0.7-1.1-0.7-1.9v-0.2c0-0.8,0.2-1.4,0.7-1.9
			c0.4-0.5,1-0.8,1.6-0.8c0.7,0,1.3,0.2,1.6,0.6s0.5,1,0.5,1.7v0.6h-3.4l0,0c0,0.5,0.1,0.9,0.4,1.2s0.6,0.5,1,0.5
			c0.3,0,0.6,0,0.9-0.1c0.2-0.1,0.5-0.2,0.6-0.4l0.4,0.6c-0.2,0.2-0.4,0.3-0.7,0.5C193.6,308.4,193.2,308.5,192.8,308.5z
			 M192.7,303.8c-0.3,0-0.6,0.1-0.8,0.4c-0.2,0.3-0.4,0.6-0.4,1l0,0h2.4v-0.1c0-0.4-0.1-0.7-0.3-0.9S193,303.8,192.7,303.8z"/>
		<path fill="#CCCCCC" d="M200.2,308.4h-1v-2.2h-2.4v2.2h-1v-5.3h1v2.3h2.4v-2.3h1V308.4z"/>
		<path fill="#CCCCCC" d="M202.6,305.1h1.3c0.6,0,1.1,0.1,1.5,0.4s0.5,0.7,0.5,1.2c0,0.5-0.2,0.9-0.5,1.2c-0.4,0.3-0.8,0.5-1.5,0.5
			h-2.3v-5.3h1V305.1z M202.6,305.9v1.8h1.3c0.3,0,0.6-0.1,0.8-0.2s0.2-0.4,0.2-0.6c0-0.2-0.1-0.4-0.2-0.6c-0.2-0.2-0.4-0.3-0.8-0.3
			H202.6z"/>
		<path fill="#CCCCCC" d="M210.4,303.9H208v4.5h-1v-5.3h3.4V303.9z"/>
		<path fill="#CCCCCC" d="M214.5,303.1h1v5.3h-1v-3.8l0,0l-2.3,3.8h-1v-5.3h1v3.8l0,0L214.5,303.1z"/>
	</g>
</g>
<circle fill="#FF2250" cx="336.1" cy="78.8" r="78.8"/>
<circle fill="none" stroke="#FF0043" stroke-width="3" stroke-miterlimit="10" cx="336.1" cy="78.8" r="65.2"/>
<path fill="none" stroke="#FFFFFF" stroke-width="2" stroke-miterlimit="10" d="M361,90.6c-1.3,4.4-5.4,7.7-10.3,7.7h-27.4
	c-5.9,0-10.7-4.8-10.7-10.7V60.1c0-5.9,4.8-10.7,10.7-10.7h27.4c5.9,0,10.7,4.8,10.7,10.7v23.3c0,0.9-1,1.4-1.7,0.9l-28.4-19.1
	c-0.5-0.3-1.1,0-1.1,0.6v20.5"/>
<text transform="matrix(1 0 0 1 307.6384 118.5444)" fill="#FFFFFF" font-family="'Roboto-Medium'" font-size="13">NETOPAY</text>
<g>
	<path fill="#0099FF" d="M154.8,82.2h-1.4v-7.5h-3.9v7.5H148v-8.6h6.7V82.2z"/>
	<path fill="#0099FF" d="M162.1,79.3c0,0.9-0.2,1.7-0.7,2.3c-0.4,0.6-1,0.9-1.8,0.9c-0.4,0-0.7-0.1-1-0.2c-0.3-0.1-0.5-0.3-0.7-0.6
		v3.1h-1.4v-8.9h1.2l0.1,0.8c0.2-0.3,0.5-0.5,0.7-0.7s0.6-0.2,1-0.2c0.8,0,1.4,0.3,1.8,0.9c0.4,0.6,0.7,1.5,0.7,2.5V79.3z
		 M160.6,79.1c0-0.7-0.1-1.2-0.4-1.6c-0.2-0.4-0.6-0.6-1.1-0.6c-0.3,0-0.6,0.1-0.8,0.2c-0.2,0.1-0.4,0.3-0.5,0.5v2.9
		c0.1,0.2,0.3,0.4,0.5,0.5c0.2,0.1,0.5,0.2,0.8,0.2c0.5,0,0.9-0.2,1.1-0.5c0.2-0.4,0.4-0.8,0.4-1.4V79.1z"/>
	<path fill="#0099FF" d="M166.1,82.4c-0.9,0-1.6-0.3-2.2-0.9c-0.5-0.6-0.8-1.4-0.8-2.3V79c0-0.9,0.3-1.7,0.8-2.3
		c0.5-0.6,1.2-0.9,2-0.9c0.9,0,1.5,0.3,2,0.8s0.7,1.2,0.7,2.1v0.8h-4l0,0c0,0.5,0.2,0.9,0.4,1.2c0.3,0.3,0.7,0.5,1.1,0.5
		c0.4,0,0.7,0,1-0.1c0.3-0.1,0.5-0.2,0.8-0.4l0.5,0.9c-0.2,0.2-0.6,0.4-1,0.5C167.1,82.3,166.6,82.4,166.1,82.4z M165.9,76.9
		c-0.4,0-0.6,0.1-0.9,0.4c-0.2,0.3-0.4,0.6-0.4,1.1l0,0h2.5v-0.1c0-0.4-0.1-0.7-0.3-1S166.3,76.9,165.9,76.9z"/>
	<path fill="#0099FF" d="M169.8,81.1c0.4-0.4,0.6-0.8,0.8-1.2c0.2-0.4,0.3-1,0.3-1.8l0.1-2.3h4.5v5.3h0.9l-0.1,3.1h-1.3v-1.9h-4.1
		v1.9h-1.3l-0.1-3.1H169.8z M172.3,78.1c0,0.7-0.1,1.2-0.3,1.7c-0.1,0.5-0.3,0.9-0.6,1.2h2.5v-4h-1.6L172.3,78.1z"/>
	<path fill="#0099FF" d="M182.7,75.8v6.4h-1.4V77h-1.9v1.6c0,1.3-0.2,2.2-0.5,2.8c-0.4,0.6-1,0.9-1.8,0.9h-0.3l0-1.2h0.2
		c0.4,0,0.7-0.2,0.8-0.5c0.1-0.4,0.2-1,0.2-1.9v-2.7H182.7z"/>
	<path fill="#0099FF" d="M183.8,79c0-1,0.3-1.7,0.8-2.3c0.5-0.6,1.2-0.9,2.2-0.9c0.9,0,1.6,0.3,2.2,0.9c0.5,0.6,0.8,1.4,0.8,2.3v0.1
		c0,1-0.3,1.8-0.8,2.4c-0.5,0.6-1.2,0.9-2.2,0.9c-0.9,0-1.6-0.3-2.2-0.9c-0.5-0.6-0.8-1.4-0.8-2.4V79z M185.2,79.1
		c0,0.6,0.1,1.1,0.4,1.5c0.2,0.4,0.6,0.6,1.1,0.6c0.5,0,0.9-0.2,1.1-0.6c0.3-0.4,0.4-0.9,0.4-1.5V79c0-0.6-0.1-1.1-0.4-1.5
		c-0.2-0.4-0.6-0.6-1.1-0.6c-0.5,0-0.9,0.2-1.1,0.6c-0.2,0.4-0.4,0.9-0.4,1.5V79.1z"/>
	<path fill="#0099FF" d="M196.4,79.7h-0.8v2.6h-1.4v-2.6h-0.8l-1.5,2.6h-1.8l2.2-3.4l-2-3h1.8l1.4,2.5h0.7v-2.5h1.4v2.5h0.7l1.4-2.5
		h1.8l-2,3l2.2,3.4h-1.8L196.4,79.7z"/>
	<path fill="#0099FF" d="M203.2,82.4c-0.9,0-1.6-0.3-2.2-0.9c-0.5-0.6-0.8-1.4-0.8-2.3V79c0-0.9,0.3-1.7,0.8-2.3
		c0.5-0.6,1.2-0.9,2-0.9c0.9,0,1.5,0.3,2,0.8s0.7,1.2,0.7,2.1v0.8h-4l0,0c0,0.5,0.2,0.9,0.4,1.2c0.3,0.3,0.7,0.5,1.1,0.5
		c0.4,0,0.7,0,1-0.1c0.3-0.1,0.5-0.2,0.8-0.4l0.5,0.9c-0.2,0.2-0.6,0.4-1,0.5C204.2,82.3,203.7,82.4,203.2,82.4z M203,76.9
		c-0.4,0-0.6,0.1-0.9,0.4c-0.2,0.3-0.4,0.6-0.4,1.1l0,0h2.5v-0.1c0-0.4-0.1-0.7-0.3-1S203.5,76.9,203,76.9z"/>
	<path fill="#0099FF" d="M212.2,82.2h-1.4v-2.6h-2.5v2.6h-1.4v-6.4h1.4v2.7h2.5v-2.7h1.4V82.2z"/>
	<path fill="#0099FF" d="M217.7,75.8h1.4v6.4h-1.4V78l0,0l-2.5,4.3h-1.4v-6.4h1.4v4.2l0,0L217.7,75.8z"/>
	<path fill="#0099FF" d="M225.9,75.8v6.4h-1.4v-2.4h-1.3l-1.4,2.4h-1.5l1.5-2.6c-0.4-0.2-0.7-0.4-0.9-0.7c-0.2-0.3-0.3-0.7-0.3-1.1
		c0-0.6,0.2-1.1,0.7-1.5s1.1-0.6,1.9-0.6H225.9z M222,77.9c0,0.2,0.1,0.5,0.3,0.6s0.5,0.3,0.8,0.3h1.4V77h-1.3
		c-0.4,0-0.7,0.1-0.9,0.3C222.1,77.5,222,77.7,222,77.9z"/>
</g>
</svg>
