<?xml version="1.0" encoding="utf-8"?>
<!-- Generator: Adobe Illustrator 18.1.0, SVG Export Plug-In . SVG Version: 6.00 Build 0)  -->
<svg version="1.1" id="Layer_1" xmlns="http://www.w3.org/2000/svg" xmlns:xlink="http://www.w3.org/1999/xlink" x="0px" y="0px"
	 viewBox="0 0 680 345" enable-background="new 0 0 680 345" xml:space="preserve">
<polygon fill="#006699" points="6.6,36.6 57.4,20.3 57.4,106.2 6.6,106.2 "/>
<g>
	<rect x="9.7" y="86.2" fill="#FFFFFF" width="9.6" height="9.6"/>
	<rect x="21.5" y="86.2" fill="#FFFFFF" width="9.6" height="9.6"/>
	<rect x="33.4" y="86.2" fill="#FFFFFF" width="9.6" height="9.6"/>
	<rect x="45.2" y="86.2" fill="#FFFFFF" width="9.6" height="9.6"/>
	<rect x="9.7" y="74.5" fill="#FFFFFF" width="9.6" height="9.6"/>
	<rect x="21.5" y="74.5" fill="#FFFFFF" width="9.6" height="9.6"/>
	<rect x="33.4" y="74.5" fill="#FFFFFF" width="9.6" height="9.6"/>
	<rect x="45.2" y="74.5" fill="#FFFFFF" width="9.6" height="9.6"/>
	<rect x="9.7" y="62.8" fill="#FFFFFF" width="9.6" height="9.6"/>
	<rect x="21.5" y="62.8" fill="#FFFFFF" width="9.6" height="9.6"/>
	<rect x="33.4" y="62.8" fill="#FFFFFF" width="9.6" height="9.6"/>
	<rect x="45.2" y="62.8" fill="#FFFFFF" width="9.6" height="9.6"/>
	<rect x="9.7" y="51.1" fill="#FFFFFF" width="9.6" height="9.6"/>
	<rect x="21.5" y="51.1" fill="#FFFFFF" width="9.6" height="9.6"/>
	<rect x="33.4" y="51.1" fill="#FFFFFF" width="9.6" height="9.6"/>
	<rect x="45.2" y="51.1" fill="#FFFFFF" width="9.6" height="9.6"/>
	<rect x="9.7" y="39.3" fill="#FFFFFF" width="9.6" height="9.6"/>
	<rect x="21.5" y="39.3" fill="#FFFFFF" width="9.6" height="9.6"/>
	<rect x="33.4" y="39.3" fill="#FFFFFF" width="9.6" height="9.6"/>
	<rect x="45.2" y="39.3" fill="#FFFFFF" width="9.6" height="9.6"/>
	<rect x="45.2" y="27.6" fill="#FFFFFF" width="9.6" height="9.6"/>
</g>
<rect x="47.5" y="42.9" fill="#0099FF" width="48.8" height="63.3"/>
<rect x="54" y="82.4" fill="#FFFFFF" width="35.8" height="5.6"/>
<rect x="54" y="71.7" fill="#FFFFFF" width="35.8" height="5.6"/>
<rect x="54" y="61.1" fill="#FFFFFF" width="35.8" height="5.6"/>
<rect x="54" y="50.4" fill="#FFFFFF" width="35.8" height="5.6"/>
<rect x="66.2" y="92.4" fill="#FFFFFF" width="11.3" height="12.8"/>
<polygon fill="#00CC66" points="477.2,36.6 527.9,20.3 527.9,106.2 477.2,106.2 "/>
<g>
	<rect x="480.2" y="86.2" fill="#FFFFFF" width="9.6" height="9.6"/>
	<rect x="492.1" y="86.2" fill="#FFFFFF" width="9.6" height="9.6"/>
	<rect x="503.9" y="86.2" fill="#FFFFFF" width="9.6" height="9.6"/>
	<rect x="515.8" y="86.2" fill="#FFFFFF" width="9.6" height="9.6"/>
	<rect x="480.2" y="74.5" fill="#FFFFFF" width="9.6" height="9.6"/>
	<rect x="492.1" y="74.5" fill="#FFFFFF" width="9.6" height="9.6"/>
	<rect x="503.9" y="74.5" fill="#FFFFFF" width="9.6" height="9.6"/>
	<rect x="515.8" y="74.5" fill="#FFFFFF" width="9.6" height="9.6"/>
	<rect x="480.2" y="62.8" fill="#FFFFFF" width="9.6" height="9.6"/>
	<rect x="492.1" y="62.8" fill="#FFFFFF" width="9.6" height="9.6"/>
	<rect x="503.9" y="62.8" fill="#FFFFFF" width="9.6" height="9.6"/>
	<rect x="515.8" y="62.8" fill="#FFFFFF" width="9.6" height="9.6"/>
	<rect x="480.2" y="51.1" fill="#FFFFFF" width="9.6" height="9.6"/>
	<rect x="492.1" y="51.1" fill="#FFFFFF" width="9.6" height="9.6"/>
	<rect x="503.9" y="51.1" fill="#FFFFFF" width="9.6" height="9.6"/>
	<rect x="515.8" y="51.1" fill="#FFFFFF" width="9.6" height="9.6"/>
	<rect x="480.2" y="39.3" fill="#FFFFFF" width="9.6" height="9.6"/>
	<rect x="492.1" y="39.3" fill="#FFFFFF" width="9.6" height="9.6"/>
	<rect x="503.9" y="39.3" fill="#FFFFFF" width="9.6" height="9.6"/>
	<rect x="515.8" y="39.3" fill="#FFFFFF" width="9.6" height="9.6"/>
	<rect x="515.8" y="27.6" fill="#FFFFFF" width="9.6" height="9.6"/>
</g>
<rect x="518.1" y="42.9" fill="#00CC99" width="48.8" height="63.3"/>
<rect x="524.6" y="82.4" fill="#FFFFFF" width="35.8" height="5.6"/>
<rect x="524.6" y="71.7" fill="#FFFFFF" width="35.8" height="5.6"/>
<rect x="524.6" y="61.1" fill="#FFFFFF" width="35.8" height="5.6"/>
<rect x="524.6" y="50.4" fill="#FFFFFF" width="35.8" height="5.6"/>
<rect x="536.8" y="92.4" fill="#FFFFFF" width="11.3" height="12.8"/>
<text transform="matrix(1 0 0 1 29.7846 124.3901)"><tspan x="0" y="0" fill="#666666" font-family="'Roboto-Regular'" font-size="11.4797">Биржа</tspan><tspan x="-15" y="13.8" fill="#666666" font-family="'Roboto-Regular'" font-size="11.4797">Кредиторов</tspan></text>
<g>
	<text transform="matrix(1 0 0 1 269.5092 326.6025)"><tspan x="0" y="0" fill="#979695" font-family="'Roboto-Regular'" font-size="11.4797">Банк</tspan><tspan x="-10.5" y="13.8" fill="#979695" font-family="'Roboto-Regular'" font-size="11.4797">Эмитент</tspan></text>
</g>
<text transform="matrix(1 0 0 1 500.3549 124.3906)"><tspan x="0" y="0" fill="#666666" font-family="'Roboto-Regular'" font-size="11.4797">Биржа</tspan><tspan x="-14.3" y="13.8" fill="#666666" font-family="'Roboto-Regular'" font-size="11.4797">Заемщиков</tspan></text>
<g>
	<path fill="none" stroke="#979695" stroke-miterlimit="10" d="M302.6,305.6h-39.9c-3.8,0-6.8-3.1-6.8-6.8v-39.9
		c0-3.8,3.1-6.8,6.8-6.8h39.9c3.8,0,6.8,3.1,6.8,6.8v39.9C309.4,302.5,306.3,305.6,302.6,305.6z"/>
	<path fill="none" stroke="#979695" stroke-miterlimit="10" d="M300.9,300.9h-36.7c-2.1,0-3.8-1.7-3.8-3.8v-36.7
		c0-2.1,1.7-3.8,3.8-3.8h36.7c2.1,0,3.8,1.7,3.8,3.8v36.7C304.8,299.2,303,300.9,300.9,300.9z"/>
	<circle fill="none" stroke="#979695" stroke-width="5" stroke-miterlimit="10" cx="274.5" cy="278.7" r="5.9"/>
	<path fill="#FFFFFF" stroke="#979695" stroke-miterlimit="10" d="M304.8,271.7L304.8,271.7c-0.9,0-1.6-0.7-1.6-1.6v-5.7
		c0-0.9,0.7-1.6,1.6-1.6h0c0.9,0,1.6,0.7,1.6,1.6v5.7C306.4,271,305.7,271.7,304.8,271.7z"/>
	<path fill="#FFFFFF" stroke="#979695" stroke-miterlimit="10" d="M304.8,294L304.8,294c-0.9,0-1.6-0.7-1.6-1.6v-5.7
		c0-0.9,0.7-1.6,1.6-1.6h0c0.9,0,1.6,0.7,1.6,1.6v5.7C306.4,293.3,305.7,294,304.8,294z"/>
</g>
<g>
	<text transform="matrix(1 0 0 1 503.6967 326.6025)"><tspan x="0" y="0" fill="#979695" font-family="'Roboto-Regular'" font-size="11.4797">Банки</tspan><tspan x="-16.4" y="13.8" fill="#979695" font-family="'Roboto-Regular'" font-size="11.4797">Кредиторов</tspan></text>
</g>
<g>
	<path fill="none" stroke="#979695" stroke-miterlimit="10" d="M540,305.6h-39.9c-3.8,0-6.8-3.1-6.8-6.8v-39.9
		c0-3.8,3.1-6.8,6.8-6.8H540c3.8,0,6.8,3.1,6.8,6.8v39.9C546.9,302.5,543.8,305.6,540,305.6z"/>
	<path fill="none" stroke="#979695" stroke-miterlimit="10" d="M538.4,300.9h-36.7c-2.1,0-3.8-1.7-3.8-3.8v-36.7
		c0-2.1,1.7-3.8,3.8-3.8h36.7c2.1,0,3.8,1.7,3.8,3.8v36.7C542.2,299.2,540.5,300.9,538.4,300.9z"/>
	<circle fill="none" stroke="#979695" stroke-width="5" stroke-miterlimit="10" cx="512" cy="278.7" r="5.9"/>
	<path fill="#FFFFFF" stroke="#979695" stroke-miterlimit="10" d="M542.2,271.7L542.2,271.7c-0.9,0-1.6-0.7-1.6-1.6v-5.7
		c0-0.9,0.7-1.6,1.6-1.6l0,0c0.9,0,1.6,0.7,1.6,1.6v5.7C543.8,271,543.1,271.7,542.2,271.7z"/>
	<path fill="#FFFFFF" stroke="#979695" stroke-miterlimit="10" d="M542.2,294L542.2,294c-0.9,0-1.6-0.7-1.6-1.6v-5.7
		c0-0.9,0.7-1.6,1.6-1.6l0,0c0.9,0,1.6,0.7,1.6,1.6v5.7C543.8,293.3,543.1,294,542.2,294z"/>
</g>
<g>
	<text transform="matrix(1 0 0 1 29.1454 326.6025)"><tspan x="0" y="0" fill="#979695" font-family="'Roboto-Regular'" font-size="11.4797">Банки</tspan><tspan x="-15.7" y="13.8" fill="#979695" font-family="'Roboto-Regular'" font-size="11.4797">Заемщиков</tspan></text>
</g>
<g>
	<path fill="none" stroke="#979695" stroke-miterlimit="10" d="M65.5,305.6H25.5c-3.8,0-6.8-3.1-6.8-6.8v-39.9
		c0-3.8,3.1-6.8,6.8-6.8h39.9c3.8,0,6.8,3.1,6.8,6.8v39.9C72.3,302.5,69.2,305.6,65.5,305.6z"/>
	<path fill="none" stroke="#979695" stroke-miterlimit="10" d="M63.8,300.9H27.1c-2.1,0-3.8-1.7-3.8-3.8v-36.7
		c0-2.1,1.7-3.8,3.8-3.8h36.7c2.1,0,3.8,1.7,3.8,3.8v36.7C67.7,299.2,65.9,300.9,63.8,300.9z"/>
	<circle fill="none" stroke="#979695" stroke-width="5" stroke-miterlimit="10" cx="37.4" cy="278.7" r="5.9"/>
	<path fill="#FFFFFF" stroke="#979695" stroke-miterlimit="10" d="M67.7,271.7L67.7,271.7c-0.9,0-1.6-0.7-1.6-1.6v-5.7
		c0-0.9,0.7-1.6,1.6-1.6h0c0.9,0,1.6,0.7,1.6,1.6v5.7C69.3,271,68.6,271.7,67.7,271.7z"/>
	<path fill="#FFFFFF" stroke="#979695" stroke-miterlimit="10" d="M67.7,294L67.7,294c-0.9,0-1.6-0.7-1.6-1.6v-5.7
		c0-0.9,0.7-1.6,1.6-1.6h0c0.9,0,1.6,0.7,1.6,1.6v5.7C69.3,293.3,68.6,294,67.7,294z"/>
</g>
<g>
	<g>
		<line fill="none" stroke="#00CC66" stroke-width="2" stroke-miterlimit="10" x1="467.9" y1="72.1" x2="374.3" y2="72.1"/>
		<g>
			<polygon fill="#00CC66" points="376.2,69.3 365.6,72.1 376.2,75 			"/>
		</g>
	</g>
</g>
<g>
	<rect x="396" y="66.5" fill="#FFFFFF" width="43.8" height="10.7"/>
	<g>
		<text transform="matrix(1 0 0 1 398.0737 76.1196)" fill="#00CC66" font-family="'Roboto-Medium'" font-size="11.4797">Заявки</text>
	</g>
</g>
<g>
	<g>
		<line fill="none" stroke="#0099FF" stroke-width="2" stroke-miterlimit="10" x1="101.8" y1="72.5" x2="192.3" y2="72.5"/>
		<g>
			<polygon fill="#0099FF" points="190.4,75.4 201,72.5 190.4,69.7 			"/>
		</g>
	</g>
</g>
<g>
	<rect x="110.8" y="65" fill="#FFFFFF" width="72" height="15.4"/>
	<g>
		<text transform="matrix(1 0 0 1 112.1186 76.5127)" fill="#0099FF" font-family="'Roboto-Medium'" font-size="11.4797">Предлжения</text>
	</g>
</g>
<g>
	<g>
		<line fill="none" stroke="#B3B3B3" stroke-miterlimit="10" stroke-dasharray="5,5" x1="45.2" y1="157.9" x2="45.2" y2="232"/>
		<g>
			<polygon fill="#B3B3B3" points="43.2,159.2 45.2,151.7 47.3,159.2 			"/>
		</g>
		<g>
			<polygon fill="#B3B3B3" points="43.2,230.6 45.2,238.2 47.3,230.6 			"/>
		</g>
	</g>
</g>
<rect x="23.1" y="188.5" fill="#FFFFFF" width="44.3" height="12.9"/>
<g>
	<text transform="matrix(1 0 0 1 24.8036 198.915)" fill="#CCCCCC" font-family="'Roboto-Regular'" font-size="11.9384">Деньги</text>
</g>
<g>
	<g>
		<line fill="none" stroke="#FF0036" stroke-miterlimit="10" stroke-dasharray="5,5" x1="282.6" y1="157.9" x2="282.6" y2="232"/>
		<g>
			<polygon fill="#FF0036" points="280.6,159.2 282.6,151.7 284.6,159.2 			"/>
		</g>
		<g>
			<polygon fill="#FF0036" points="280.6,230.6 282.6,238.2 284.6,230.6 			"/>
		</g>
	</g>
</g>
<g>
	<rect x="260.5" y="188.5" fill="#FFFFFF" width="44.3" height="12.9"/>
	<text transform="matrix(1 0 0 1 262.6147 198.915)" fill="#FF0036" font-family="'Roboto-Regular'" font-size="11.9384">QUANT</text>
</g>
<g>
	<g>
		<line fill="none" stroke="#B3B3B3" stroke-miterlimit="10" stroke-dasharray="5,5" x1="520" y1="157.9" x2="520" y2="232"/>
		<g>
			<polygon fill="#B3B3B3" points="517.9,159.2 520,151.7 522,159.2 			"/>
		</g>
		<g>
			<polygon fill="#B3B3B3" points="517.9,230.6 520,238.2 522,230.6 			"/>
		</g>
	</g>
</g>
<rect x="497.8" y="188.5" fill="#FFFFFF" width="44.3" height="12.9"/>
<g>
	<text transform="matrix(1 0 0 1 499.5268 198.915)" fill="#CCCCCC" font-family="'Roboto-Regular'" font-size="11.9384">Деньги</text>
</g>
<g>
	<g>
		<line fill="none" stroke="#B3B3B3" stroke-miterlimit="10" stroke-dasharray="5,5" x1="329" y1="278.7" x2="468.8" y2="278.7"/>
		<g>
			<polygon fill="#B3B3B3" points="330.3,280.8 322.8,278.7 330.3,276.7 			"/>
		</g>
		<g>
			<polygon fill="#B3B3B3" points="467.4,280.8 475,278.7 467.4,276.7 			"/>
		</g>
	</g>
</g>
<rect x="374.8" y="272.3" fill="#FFFFFF" width="44.3" height="12.9"/>
<g>
	<text transform="matrix(1 0 0 1 376.5014 282.7246)" fill="#CCCCCC" font-family="'Roboto-Regular'" font-size="11.9384">Деньги</text>
</g>
<g>
	<g>
		<line fill="none" stroke="#B3B3B3" stroke-miterlimit="10" stroke-dasharray="5,5" x1="93" y1="278.7" x2="232.8" y2="278.7"/>
		<g>
			<polygon fill="#B3B3B3" points="94.4,280.8 86.8,278.7 94.4,276.7 			"/>
		</g>
		<g>
			<polygon fill="#B3B3B3" points="231.4,280.8 239,278.7 231.4,276.7 			"/>
		</g>
	</g>
</g>
<rect x="138.8" y="272.3" fill="#FFFFFF" width="44.3" height="12.9"/>
<g>
	<text transform="matrix(1 0 0 1 140.5385 282.7246)" fill="#CCCCCC" font-family="'Roboto-Regular'" font-size="11.9384">Деньги</text>
</g>
<circle fill="#FF0033" cx="282.6" cy="72.7" r="71.7"/>
<circle opacity="0.17" fill="#CC0000" cx="282.6" cy="72.7" r="65.4"/>
<path fill="none" stroke="#FFFFFF" stroke-width="2" stroke-miterlimit="10" d="M304.4,88c-1.2,4-4.9,7-9.3,7h-24.9
	c-5.4,0-9.7-4.4-9.7-9.7V60.3c0-5.4,4.4-9.7,9.7-9.7h24.9c5.4,0,9.7,4.4,9.7,9.7v21.2c0,0.8-0.9,1.2-1.5,0.8L277.4,65
	c-0.4-0.3-1,0-1,0.5v18.7"/>
</svg>
