<?xml version="1.0" encoding="utf-8"?>
<!-- Generator: Adobe Illustrator 18.1.0, SVG Export Plug-In . SVG Version: 6.00 Build 0)  -->
<svg version="1.1" id="Layer_1" xmlns="http://www.w3.org/2000/svg" xmlns:xlink="http://www.w3.org/1999/xlink" x="0px" y="0px"
	 viewBox="0 0 1920 1080" enable-background="new 0 0 1920 1080" xml:space="preserve">
<g>
	<path fill="#F09A50" d="M374.1,579.6V341.9h91.1v234.8c0,55.1,34.2,93.1,99.3,93.1s98.7-37.9,98.7-93.1V341.9h91.7V579
		c0,98.4-62,165.4-190.4,165.4C436.1,744.4,374.1,676.8,374.1,579.6z"/>
	<path fill="#F09A50" d="M1107.9,737.3l-25.9-67H901l-26.6,67H772l163.2-395.4h112.6l162.6,395.4H1107.9z M991.5,426.1l-65.8,170.1
		h131.6L991.5,426.1z"/>
	<path fill="#F09A50" d="M1540.5,737.3l-201.1-257.9v257.9h-89.8V341.9h92.4l195.5,248.4V341.9h89.8v395.4H1540.5z"/>
	<path fill="#F09A50" d="M310.9,539.9c0-119.2-93-204.5-220.8-204.5c-32.6,0-63,5.6-90.1,16v92.9c22.1-21.4,52.9-34.2,90.1-34.2
		c77.8,0,128.4,55.7,128.4,129.8c0,28.5-7.6,54.5-21.5,75.9l-46.8-51.6l-62,48l46.2,51c-13.9,4.1-28.5,6.5-44.3,6.5
		c-37.2,0-68.1-12.9-90.1-34.4v93.1c27.1,10.4,57.5,16,90.1,16c36.7,0,70.2-7.1,99.9-19.6l34.2,36.8l62.6-48l-31-33.8
		C290.6,644.2,310.9,595.6,310.9,539.9z"/>
	<polygon fill="#F09A50" points="1920,342 1685,342 1685,416 1808,416 1808,737 1899,737 1899,416 1920,416 	"/>
</g>
</svg>
