<?xml version="1.0" encoding="utf-8"?>
<!-- Generator: Adobe Illustrator 18.1.0, SVG Export Plug-In . SVG Version: 6.00 Build 0)  -->
<svg version="1.1" id="Layer_1" xmlns="http://www.w3.org/2000/svg" xmlns:xlink="http://www.w3.org/1999/xlink" x="0px" y="0px"
	 viewBox="0 0 300 300" enable-background="new 0 0 300 300" xml:space="preserve">
<path fill="#8C8C8C" d="M220.7,123.2c-3.7,0-6-2.3-6-6.3c0-3.9,2.2-6.2,5.9-6.2c2.9,0,5.1,1.7,5.4,4.2h-3c-0.3-1.1-1.2-1.7-2.4-1.7
	c-1.7,0-2.8,1.4-2.8,3.7c0,2.4,1.1,3.8,2.9,3.8c1.4,0,2.4-0.8,2.4-2l0-0.2H221v-2.1h5.2v1.5C226.2,121.2,224.1,123.2,220.7,123.2z"
	/>
<path fill="#8C8C8C" d="M233.6,120.3h-3.9l-0.8,2.6h-3.1l4-12.1h3.7l4.1,12.1h-3.3L233.6,120.3z M230.2,118.1h2.7l-1.3-4.6h-0.1
	L230.2,118.1z"/>
<path fill="#8C8C8C" d="M240.7,118.4c0,1.4,0.8,2.2,2.1,2.2c1.4,0,2.1-0.8,2.1-2.2v-7.4h3.1v7.8c0,2.7-2.1,4.5-5.2,4.5
	c-3.1,0-5.2-1.8-5.2-4.5v-7.8h3.1V118.4z"/>
<path fill="#8C8C8C" d="M251.5,119.5c0.1,0.8,1,1.4,2.2,1.4c1.2,0,2-0.5,2-1.3c0-0.7-0.5-1-1.9-1.3l-1.6-0.3
	c-2.2-0.4-3.4-1.6-3.4-3.5c0-2.3,2-3.8,4.8-3.8c3,0,4.8,1.5,4.8,3.7h-2.8c-0.1-0.9-0.9-1.4-2-1.4c-1.1,0-1.8,0.5-1.8,1.2
	c0,0.6,0.5,1,1.8,1.3l1.6,0.3c2.4,0.5,3.4,1.5,3.4,3.4c0,2.4-2,3.9-5.1,3.9c-3.1,0-5-1.4-5-3.7H251.5z"/>
<path fill="#229FFF" d="M87.3,151.9c0-38.9,17.8-72.1,42.9-85.2c-34.6,10.8-59.9,44.9-59.9,85.2s25.3,74.4,59.9,85.2
	C105.1,224,87.3,190.8,87.3,151.9z"/>
<path fill="#229FFF" d="M224.3,105c-10.6-16-27-31.4-46.4-37.7c13.7,7.3,25.3,21.7,32.9,37.7H224.3z"/>
<path fill="#229FFF" d="M218.2,131c1.5,5,2.2,14.1,2.2,22.2c0,38.7-17.6,71.2-42.5,84.4c34.3-11,59.3-43.9,59.3-84
	c0-8.1-1-17.5-3-22.5H218.2z"/>
<g>
	<path fill="#229FFF" d="M153.4,194.4c-21.6,0-35.7-16.6-35.7-41.8c0-25.5,14.4-42.7,35.8-42.7c23.2,0,34.3,19.9,34.3,38.9v3.1H121
		c0,19.9,9.4,39.6,32.4,39.6c17.4,0,28.8-13.1,30.3-27.7h3.3C184.5,181.1,172.4,194.4,153.4,194.4z M153.5,112.9
		c-20.3,0-31.9,17.4-32.5,36.1h63.7C184.6,131.1,174.8,112.9,153.5,112.9z"/>
</g>
<circle fill="none" stroke="#229FFF" stroke-width="9" stroke-miterlimit="10" cx="153" cy="148" r="140.8"/>
</svg>
