<svg version="1.1" xmlns="http://www.w3.org/2000/svg" xmlns:xlink="http://www.w3.org/1999/xlink" x="0px" y="0px"
	 viewBox="0 0 300 300" enable-background="new 0 0 300 300" xml:space="preserve">
<g id="Layer_2">
</g>
<g id="Layer_1">
	<path fill="none" stroke="#00B985" stroke-miterlimit="10" d="M148.1,148.1c0,0,0.5-0.1,0.5-0.1s0.4-0.3,0.4-0.4s0.2-0.5,0.2-0.6
		s0-0.5-0.1-0.7c-0.1-0.2-0.2-0.5-0.4-0.7c-0.1-0.2-0.4-0.5-0.7-0.6s-0.6-0.3-1-0.4s-0.8-0.1-1.2-0.1c-0.4,0-0.9,0.1-1.2,0.3
		s-0.9,0.4-1.2,0.7c-0.4,0.3-0.8,0.7-1,1.1c-0.3,0.4-0.6,1-0.7,1.5c-0.2,0.5-0.3,1.2-0.3,1.8s0.1,1.3,0.2,1.9
		c0.2,0.6,0.4,1.3,0.8,1.9c0.4,0.6,0.8,1.2,1.4,1.7c0.5,0.5,1.2,1,1.9,1.4c0.7,0.4,1.5,0.7,2.3,0.8c0.8,0.2,1.7,0.2,2.6,0.2
		c0.9-0.1,1.8-0.2,2.7-0.5c0.9-0.3,1.8-0.7,2.6-1.3c0.8-0.6,1.6-1.2,2.2-2c0.6-0.8,1.2-1.7,1.7-2.7c0.4-1,0.8-2,0.9-3.1
		c0.2-1.1,0.2-2.3,0.1-3.4c-0.1-1.1-0.4-2.3-0.9-3.4c-0.4-1.1-1.1-2.2-1.8-3.2c-0.8-1-1.7-1.9-2.7-2.7c-1-0.8-2.2-1.5-3.4-2
		c-1.2-0.5-2.6-0.9-4-1c-1.4-0.2-2.8-0.2-4.2,0c-1.4,0.2-2.9,0.6-4.2,1.2c-1.4,0.6-2.7,1.4-3.9,2.3c-1.2,0.9-2.3,2.1-3.2,3.3
		c-0.9,1.3-1.7,2.7-2.3,4.2c-0.6,1.5-1,3.1-1.2,4.8c-0.2,1.6-0.1,3.4,0.1,5c0.3,1.7,0.8,3.4,1.5,5c0.7,1.6,1.7,3.1,2.8,4.5
		c1.1,1.4,2.5,2.7,4,3.7s3.2,2,4.9,2.6c1.8,0.7,3.7,1.1,5.6,1.3s3.9,0.1,5.9-0.2c2-0.3,3.9-0.9,5.7-1.8c1.8-0.9,3.6-2,5.2-3.3
		c1.6-1.3,3-2.9,4.2-4.6s2.2-3.7,2.9-5.7c0.7-2,1.2-4.2,1.4-6.4c0.2-2.2,0.1-4.5-0.4-6.7c-0.4-2.2-1.1-4.4-2.1-6.5s-2.3-4.1-3.8-5.8
		c-1.5-1.8-3.3-3.4-5.3-4.7c-2-1.3-4.2-2.5-6.5-3.2s-4.7-1.3-7.2-1.5s-5,0-7.5,0.5c-2.5,0.5-4.9,1.3-7.3,2.4s-4.5,2.6-6.5,4.3
		c-2,1.7-3.7,3.7-5.2,6c-1.5,2.2-2.7,4.7-3.6,7.2c-0.9,2.6-1.4,5.3-1.6,8c-0.2,2.8,0,5.6,0.6,8.3c0.6,2.8,1.5,5.5,2.8,8
		s2.9,5,4.8,7.1c1.9,2.2,4.2,4.1,6.6,5.7c2.5,1.6,5.2,2.9,8,3.9c2.8,0.9,5.8,1.5,8.9,1.7c3,0.2,6.1,0,9.1-0.7c3-0.6,6-1.7,8.8-3.1
		c2.8-1.4,5.4-3.2,7.8-5.3c2.4-2.1,4.5-4.6,6.2-7.3s3.2-5.7,4.2-8.8s1.6-6.4,1.8-9.7c0.2-3.3-0.1-6.7-0.8-10s-1.8-6.5-3.4-9.5
		c-1.6-3-3.5-5.9-5.8-8.4c-2.3-2.6-5-4.8-7.9-6.7c-2.9-1.9-6.1-3.4-9.5-4.5c-3.4-1.1-6.9-1.7-10.5-1.9s-7.2,0.1-10.8,0.9
		c-3.6,0.8-7,2-10.3,3.7s-6.3,3.8-9.1,6.3s-5.2,5.4-7.2,8.6c-2,3.2-3.7,6.6-4.8,10.3c-1.2,3.6-1.8,7.5-2,11.3
		c-0.2,3.9,0.2,7.8,1,11.6c0.8,3.8,2.2,7.6,4,11.1c1.8,3.5,4.1,6.8,6.8,9.8c2.7,3,5.8,5.6,9.2,7.7c3.4,2.2,7.1,3.9,11,5.1
		c3.9,1.2,8,2,12.1,2.1s8.3-0.2,12.4-1.1s8.1-2.4,11.8-4.3c3.8-2,7.3-4.4,10.4-7.3c3.1-2.9,5.9-6.2,8.2-9.9
		c2.3-3.7,4.2-7.6,5.5-11.8s2.1-8.5,2.2-13c0.2-4.4-0.2-8.9-1.2-13.2s-2.5-8.6-4.7-12.6c-2.1-4-4.7-7.7-7.8-11.1s-6.6-6.3-10.5-8.7
		c-3.9-2.4-8.1-4.4-12.6-5.8c-4.4-1.4-9.1-2.2-13.8-2.3s-9.4,0.3-14,1.3s-9.1,2.7-13.4,5s-8.2,5-11.7,8.3c-3.5,3.3-6.7,7.1-9.3,11.2
		c-2.6,4.1-4.6,8.6-6.1,13.3c-1.4,4.7-2.3,9.6-2.4,14.6c-0.2,5,0.3,10,1.4,14.9c1.1,4.9,2.9,9.6,5.3,14.1c2.4,4.5,5.3,8.6,8.8,12.4
		c3.5,3.7,7.5,7,11.9,9.8c4.4,2.7,9.1,4.9,14.1,6.4c5,1.5,10.2,2.4,15.4,2.6c5.2,0.2,10.5-0.3,15.7-1.5s10.2-3.1,14.9-5.6
		c4.7-2.5,9.1-5.7,13-9.3s7.4-7.9,10.3-12.5s5.1-9.6,6.7-14.9c1.6-5.2,2.5-10.7,2.7-16.2c0.2-5.5-0.4-11.1-1.6-16.5
		c-1.3-5.4-3.3-10.7-5.9-15.6s-6-9.6-9.8-13.7c-3.9-4.1-8.3-7.8-13.2-10.8c-4.9-3-10.1-5.4-15.6-7c-5.5-1.7-11.2-2.6-17-2.8
		c-5.8-0.2-11.6,0.4-17.3,1.8c-5.7,1.3-11.2,3.4-16.4,6.2c-5.2,2.8-10,6.3-14.3,10.3c-4.3,4.1-8.1,8.7-11.3,13.8
		c-3.1,5.1-5.6,10.6-7.4,16.4c-1.7,5.8-2.7,11.8-2.9,17.9s0.4,12.2,1.9,18.1c1.4,6,3.6,11.7,6.5,17.2c2.9,5.4,6.6,10.5,10.8,15
		s9.1,8.5,14.5,11.8c5.3,3.3,11.1,5.9,17.1,7.7c6,1.8,12.3,2.8,18.7,3c6.4,0.2,12.7-0.5,19-2s12.3-3.8,17.9-6.9
		c5.7-3.1,10.9-6.9,15.7-11.4c4.7-4.5,8.8-9.6,12.3-15.1c3.4-5.6,6.1-11.6,8-17.9c1.9-6.3,2.9-12.9,3.1-19.5
		c0.2-6.6-0.5-13.3-2.1-19.8c-1.6-6.5-4-12.8-7.2-18.7c-3.2-5.9-7.2-11.4-11.9-16.3c-4.7-4.9-10-9.2-15.8-12.8
		c-5.8-3.6-12.1-6.4-18.7-8.3c-6.6-1.9-13.4-3-20.3-3.2c-6.9-0.2-13.8,0.6-20.6,2.2c-6.8,1.6-13.3,4.1-19.5,7.5
		c-6.1,3.4-11.9,7.5-17,12.4s-9.6,10.4-13.3,16.4s-6.6,12.6-8.6,19.4c-2,6.8-3.1,14-3.3,21.1c-0.2,7.2,0.6,14.4,2.3,21.4
		s4.3,13.8,7.8,20.2c3.5,6.4,7.8,12.3,12.9,17.6c5.1,5.3,10.8,9.9,17.1,13.8c6.3,3.8,13.1,6.8,20.2,8.9c7.1,2.1,14.5,3.2,22,3.4
		c7.5,0.2,14.9-0.6,22.2-2.4c7.3-1.8,14.4-4.5,21-8.1c6.6-3.6,12.8-8.1,18.3-13.4c5.5-5.3,10.3-11.2,14.3-17.7
		c4-6.5,7.1-13.6,9.2-21c2.2-7.4,3.4-15,3.5-22.8c0.2-7.7-0.7-15.5-2.5-23.1c-1.8-7.6-4.7-14.9-8.4-21.7
		c-3.8-6.9-8.4-13.2-13.9-18.9c-5.4-5.7-11.6-10.7-18.4-14.8c-6.8-4.1-14.1-7.3-21.7-9.6c-7.6-2.2-15.6-3.5-23.6-3.6
		s-16,0.7-23.9,2.6s-15.4,4.9-22.5,8.8c-7.1,3.9-13.7,8.7-19.6,14.4c-5.9,5.6-11,12-15.3,19.1s-7.6,14.6-9.9,22.5
		c-2.3,7.9-3.6,16.1-3.7,24.4c-0.2,8.3,0.7,16.6,2.7,24.7c2,8.1,5,15.9,9.1,23.3c4,7.3,9,14.2,14.9,20.2
		c5.8,6.1,12.5,11.4,19.7,15.8s15.1,7.8,23.3,10.2c8.2,2.4,16.7,3.7,25.2,3.8s17.1-0.8,25.5-2.8c8.4-2.1,16.4-5.2,24-9.4
		c7.6-4.2,14.6-9.3,20.9-15.4c6.3-6,11.8-12.9,16.3-20.4s8.1-15.6,10.5-24c2.4-8.5,3.8-17.2,4-26.1c0.2-8.8-0.8-17.7-2.9-26.3
		c-2.1-8.6-5.4-17-9.7-24.8s-9.6-15.1-15.9-21.5c-6.2-6.5-13.3-12.1-21-16.8C192,54,183.7,50.3,175,47.8c-8.7-2.5-17.8-3.9-26.9-4.1
		c-9.1-0.2-18.2,0.8-27.1,3s-17.5,5.6-25.6,10s-15.5,10-22.2,16.4S60.7,86.9,55.9,94.9s-8.6,16.6-11.1,25.5s-4,18.3-4.2,27.7
		c-0.2,9.4,0.9,18.8,3.2,28c2.3,9.2,5.7,18,10.3,26.3c4.6,8.3,10.3,16,16.9,22.9c6.6,6.9,14.1,12.9,22.3,17.8s17,8.8,26.3,11.5
		c9.3,2.7,18.8,4.1,28.5,4.3c9.7,0.2,19.4-0.9,28.8-3.3s18.5-5.9,27.1-10.7s16.5-10.6,23.5-17.4s13.2-14.5,18.3-23
		c5.1-8.4,9-17.5,11.8-27.1c2.7-9.5,4.2-19.4,4.4-29.3c0.2-9.9-0.9-19.9-3.4-29.6c-2.4-9.7-6.1-19.1-11-27.8s-10.9-16.9-17.9-24.2
		c-7-7.3-15-13.6-23.6-18.8s-18-9.3-27.8-12.1c-9.8-2.8-19.9-4.3-30.1-4.5s-20.5,1-30.4,3.5c-10,2.5-19.6,6.3-28.6,11.3
		S71.7,57,64.2,64.2c-7.4,7.2-13.9,15.4-19.3,24.3s-9.5,18.5-12.4,28.6s-4.4,20.5-4.6,31c-0.2,10.5,1,21,3.6,31.2
		s6.5,20.1,11.6,29.4s11.5,17.8,18.9,25.5c7.4,7.6,15.8,14.3,24.9,19.8c9.2,5.5,19,9.8,29.4,12.7s21,4.5,31.8,4.7
		c10.8,0.2,21.6-1.1,32.1-3.7c10.5-2.6,20.6-6.6,30.1-11.9c9.5-5.3,18.3-11.8,26.1-19.4c7.8-7.6,14.7-16.2,20.3-25.6
		c5.6-9.4,10-19.5,13-30.1c3-10.6,4.6-21.5,4.8-32.6"/>
</g>
</svg>
