<?xml version="1.0" encoding="utf-8"?>
<!-- Generator: Adobe Illustrator 18.1.0, SVG Export Plug-In . SVG Version: 6.00 Build 0)  -->
<svg version="1.1" id="Layer_1" xmlns="http://www.w3.org/2000/svg" xmlns:xlink="http://www.w3.org/1999/xlink" x="0px" y="0px"
	 viewBox="0 0 100 100" enable-background="new 0 0 100 100" xml:space="preserve">
<path fill="#EEEEEE" d="M51.5,33.5H21l0.7-2.1C21.8,19.3,32.4,3,51.1,3l0,0.6L51.5,33.5z"/>
<g>
	<path fill="none" stroke="#DDDDDD" stroke-width="3" stroke-miterlimit="10" d="M51.8,97.5L51.8,97.5c-17,0-30.8-13.8-30.8-30.7
		V33.9c0-17,13.8-30.7,30.7-30.7h0c17,0,30.7,13.8,30.7,30.7v32.8C82.5,83.7,68.7,97.5,51.8,97.5z"/>
	<line fill="none" stroke="#DDDDDD" stroke-width="3" stroke-miterlimit="10" x1="21" y1="33.5" x2="82" y2="33.5"/>
	<line fill="none" stroke="#DDDDDD" stroke-width="3" stroke-miterlimit="10" x1="51.5" y1="3" x2="51.5" y2="34"/>
</g>
<path fill="#DDDDDD" d="M51.5,45.5L51.5,45.5c-3.2,0-5.8-2.6-5.8-5.8V27.3c0-3.2,2.6-5.8,5.8-5.8h0c3.2,0,5.8,2.6,5.8,5.8v12.5
	C57.3,42.9,54.7,45.5,51.5,45.5z"/>
</svg>
