<?xml version="1.0" encoding="utf-8"?>
<!-- Generator: Adobe Illustrator 18.1.0, SVG Export Plug-In . SVG Version: 6.00 Build 0)  -->
<svg version="1.1" id="Layer_1" xmlns="http://www.w3.org/2000/svg" xmlns:xlink="http://www.w3.org/1999/xlink" x="0px" y="0px"
	 viewBox="0 0 690 420" enable-background="new 0 0 690 420" xml:space="preserve">
<polygon fill="#006699" points="25.6,43.8 83,25.4 83,122.6 25.6,122.6 "/>
<g>
	<rect x="29.1" y="99.9" fill="#FFFFFF" width="10.8" height="10.8"/>
	<rect x="42.5" y="99.9" fill="#FFFFFF" width="10.8" height="10.8"/>
	<rect x="55.9" y="99.9" fill="#FFFFFF" width="10.8" height="10.8"/>
	<rect x="69.3" y="99.9" fill="#FFFFFF" width="10.8" height="10.8"/>
	<rect x="29.1" y="86.7" fill="#FFFFFF" width="10.8" height="10.8"/>
	<rect x="42.5" y="86.7" fill="#FFFFFF" width="10.8" height="10.8"/>
	<rect x="55.9" y="86.7" fill="#FFFFFF" width="10.8" height="10.8"/>
	<rect x="69.3" y="86.7" fill="#FFFFFF" width="10.8" height="10.8"/>
	<rect x="29.1" y="73.5" fill="#FFFFFF" width="10.8" height="10.8"/>
	<rect x="42.5" y="73.5" fill="#FFFFFF" width="10.8" height="10.8"/>
	<rect x="55.9" y="73.5" fill="#FFFFFF" width="10.8" height="10.8"/>
	<rect x="69.3" y="73.5" fill="#FFFFFF" width="10.8" height="10.8"/>
	<rect x="29.1" y="60.2" fill="#FFFFFF" width="10.8" height="10.8"/>
	<rect x="42.5" y="60.2" fill="#FFFFFF" width="10.8" height="10.8"/>
	<rect x="55.9" y="60.2" fill="#FFFFFF" width="10.8" height="10.8"/>
	<rect x="69.3" y="60.2" fill="#FFFFFF" width="10.8" height="10.8"/>
	<rect x="29.1" y="46.9" fill="#FFFFFF" width="10.8" height="10.8"/>
	<rect x="42.5" y="46.9" fill="#FFFFFF" width="10.8" height="10.8"/>
	<rect x="55.9" y="46.9" fill="#FFFFFF" width="10.8" height="10.8"/>
	<rect x="69.3" y="46.9" fill="#FFFFFF" width="10.8" height="10.8"/>
	<rect x="69.3" y="33.6" fill="#FFFFFF" width="10.8" height="10.8"/>
</g>
<rect x="71.9" y="50.9" fill="#00B6FF" width="55.2" height="71.6"/>
<rect x="79.3" y="95.6" fill="#FFFFFF" width="40.5" height="6.3"/>
<rect x="79.3" y="83.6" fill="#FFFFFF" width="40.5" height="6.3"/>
<rect x="79.3" y="71.5" fill="#FFFFFF" width="40.5" height="6.3"/>
<rect x="79.3" y="59.5" fill="#FFFFFF" width="40.5" height="6.3"/>
<rect x="93.1" y="106.8" fill="#FFFFFF" width="12.8" height="14.4"/>
<polygon fill="#00CC66" points="557.9,43.8 615.3,25.4 615.3,122.6 557.9,122.6 "/>
<g>
	<rect x="561.4" y="99.9" fill="#FFFFFF" width="10.8" height="10.8"/>
	<rect x="574.8" y="99.9" fill="#FFFFFF" width="10.8" height="10.8"/>
	<rect x="588.2" y="99.9" fill="#FFFFFF" width="10.8" height="10.8"/>
	<rect x="601.6" y="99.9" fill="#FFFFFF" width="10.8" height="10.8"/>
	<rect x="561.4" y="86.7" fill="#FFFFFF" width="10.8" height="10.8"/>
	<rect x="574.8" y="86.7" fill="#FFFFFF" width="10.8" height="10.8"/>
	<rect x="588.2" y="86.7" fill="#FFFFFF" width="10.8" height="10.8"/>
	<rect x="601.6" y="86.7" fill="#FFFFFF" width="10.8" height="10.8"/>
	<rect x="561.4" y="73.5" fill="#FFFFFF" width="10.8" height="10.8"/>
	<rect x="574.8" y="73.5" fill="#FFFFFF" width="10.8" height="10.8"/>
	<rect x="588.2" y="73.5" fill="#FFFFFF" width="10.8" height="10.8"/>
	<rect x="601.6" y="73.5" fill="#FFFFFF" width="10.8" height="10.8"/>
	<rect x="561.4" y="60.2" fill="#FFFFFF" width="10.8" height="10.8"/>
	<rect x="574.8" y="60.2" fill="#FFFFFF" width="10.8" height="10.8"/>
	<rect x="588.2" y="60.2" fill="#FFFFFF" width="10.8" height="10.8"/>
	<rect x="601.6" y="60.2" fill="#FFFFFF" width="10.8" height="10.8"/>
	<rect x="561.4" y="46.9" fill="#FFFFFF" width="10.8" height="10.8"/>
	<rect x="574.8" y="46.9" fill="#FFFFFF" width="10.8" height="10.8"/>
	<rect x="588.2" y="46.9" fill="#FFFFFF" width="10.8" height="10.8"/>
	<rect x="601.6" y="46.9" fill="#FFFFFF" width="10.8" height="10.8"/>
	<rect x="601.6" y="33.6" fill="#FFFFFF" width="10.8" height="10.8"/>
</g>
<rect x="604.1" y="50.9" fill="#FFC500" width="55.2" height="71.6"/>
<rect x="611.6" y="95.6" fill="#FFFFFF" width="40.5" height="6.3"/>
<rect x="611.6" y="83.6" fill="#FFFFFF" width="40.5" height="6.3"/>
<rect x="611.6" y="71.5" fill="#FFFFFF" width="40.5" height="6.3"/>
<rect x="611.6" y="59.5" fill="#FFFFFF" width="40.5" height="6.3"/>
<rect x="625.4" y="106.8" fill="#FFFFFF" width="12.8" height="14.4"/>
<g>
	<path fill="none" stroke="#808080" stroke-miterlimit="10" d="M361.1,348.1h-46.6c-3.9,0-7-3.2-7-7v-46.6c0-3.9,3.2-7,7-7h46.6
		c3.9,0,7,3.2,7,7V341C368.1,344.9,365,348.1,361.1,348.1z"/>
	<path fill="none" stroke="#808080" stroke-miterlimit="10" d="M358.9,342.8h-42.2c-2.2,0-3.9-1.8-3.9-3.9v-42.2
		c0-2.2,1.8-3.9,3.9-3.9h42.2c2.2,0,3.9,1.8,3.9,3.9v42.2C362.8,341,361.1,342.8,358.9,342.8z"/>
	<circle fill="none" stroke="#808080" stroke-width="5" stroke-miterlimit="10" cx="328.6" cy="317.7" r="6.6"/>
	<path fill="#FFFFFF" stroke="#808080" stroke-miterlimit="10" d="M363,309.7h-0.3c-0.9,0-1.6-0.7-1.6-1.6v-6.7
		c0-0.9,0.7-1.6,1.6-1.6h0.3c0.9,0,1.6,0.7,1.6,1.6v6.7C364.7,308.9,364,309.7,363,309.7z"/>
	<path fill="#FFFFFF" stroke="#808080" stroke-miterlimit="10" d="M363,335h-0.3c-0.9,0-1.6-0.7-1.6-1.6v-6.7c0-0.9,0.7-1.6,1.6-1.6
		h0.3c0.9,0,1.6,0.7,1.6,1.6v6.7C364.7,334.2,364,335,363,335z"/>
</g>
<g>
	<path fill="none" stroke="#808080" stroke-miterlimit="10" d="M629.7,348.1h-46.6c-3.9,0-7-3.2-7-7v-46.6c0-3.9,3.2-7,7-7h46.6
		c3.9,0,7,3.2,7,7V341C636.7,344.9,633.5,348.1,629.7,348.1z"/>
	<path fill="none" stroke="#808080" stroke-miterlimit="10" d="M627.5,342.8h-42.2c-2.2,0-3.9-1.8-3.9-3.9v-42.2
		c0-2.2,1.8-3.9,3.9-3.9h42.2c2.2,0,3.9,1.8,3.9,3.9v42.2C631.4,341,629.7,342.8,627.5,342.8z"/>
	<circle fill="none" stroke="#808080" stroke-width="5" stroke-miterlimit="10" cx="597.2" cy="317.7" r="6.6"/>
	<path fill="#FFFFFF" stroke="#808080" stroke-miterlimit="10" d="M631.6,309.7h-0.3c-0.9,0-1.6-0.7-1.6-1.6v-6.7
		c0-0.9,0.7-1.6,1.6-1.6h0.3c0.9,0,1.6,0.7,1.6,1.6v6.7C633.3,308.9,632.6,309.7,631.6,309.7z"/>
	<path fill="#FFFFFF" stroke="#808080" stroke-miterlimit="10" d="M631.6,335h-0.3c-0.9,0-1.6-0.7-1.6-1.6v-6.7
		c0-0.9,0.7-1.6,1.6-1.6h0.3c0.9,0,1.6,0.7,1.6,1.6v6.7C633.3,334.2,632.6,335,631.6,335z"/>
</g>
<g>
	<path fill="none" stroke="#808080" stroke-miterlimit="10" d="M92.9,348.1H46.3c-3.9,0-7-3.2-7-7v-46.6c0-3.9,3.2-7,7-7h46.6
		c3.9,0,7,3.2,7,7V341C99.9,344.9,96.8,348.1,92.9,348.1z"/>
	<path fill="none" stroke="#808080" stroke-miterlimit="10" d="M90.7,342.8H48.5c-2.2,0-3.9-1.8-3.9-3.9v-42.2
		c0-2.2,1.8-3.9,3.9-3.9h42.2c2.2,0,3.9,1.8,3.9,3.9v42.2C94.6,341,92.9,342.8,90.7,342.8z"/>
	<circle fill="none" stroke="#808080" stroke-width="5" stroke-miterlimit="10" cx="60.4" cy="317.7" r="6.6"/>
	<path fill="#FFFFFF" stroke="#808080" stroke-miterlimit="10" d="M94.8,309.7h-0.3c-0.9,0-1.6-0.7-1.6-1.6v-6.7
		c0-0.9,0.7-1.6,1.6-1.6h0.3c0.9,0,1.6,0.7,1.6,1.6v6.7C96.5,308.9,95.8,309.7,94.8,309.7z"/>
	<path fill="#FFFFFF" stroke="#808080" stroke-miterlimit="10" d="M94.8,335h-0.3c-0.9,0-1.6-0.7-1.6-1.6v-6.7
		c0-0.9,0.7-1.6,1.6-1.6h0.3c0.9,0,1.6,0.7,1.6,1.6v6.7C96.5,334.2,95.8,335,94.8,335z"/>
</g>
<g>
	<g>
		<line fill="none" stroke="#00CC66" stroke-width="2" stroke-miterlimit="10" x1="547.4" y1="84" x2="440.7" y2="84"/>
		<g>
			<polygon fill="#00CC66" points="442.6,81.1 431.7,84 442.6,87 			"/>
		</g>
	</g>
</g>
<g>
	<g>
		<line fill="none" stroke="#0099FF" stroke-width="2" stroke-miterlimit="10" x1="133.3" y1="84.5" x2="236.5" y2="84.5"/>
		<g>
			<polygon fill="#0099FF" points="234.5,87.4 245.5,84.5 234.5,81.5 			"/>
		</g>
	</g>
</g>
<g>
	<rect x="161.5" y="75.9" fill="#FFFFFF" width="45.7" height="17.5"/>
</g>
<g>
	<g>
		<line fill="none" stroke="#B3B3B3" stroke-miterlimit="10" stroke-dasharray="5,5" x1="69.3" y1="180.4" x2="69.3" y2="265.4"/>
		<g>
			<polygon fill="#B3B3B3" points="67.2,181.7 69.3,174 71.3,181.7 			"/>
		</g>
		<g>
			<polygon fill="#B3B3B3" points="67.2,264 69.3,271.8 71.3,264 			"/>
		</g>
	</g>
</g>
<rect x="44.3" y="215.6" fill="#FFFFFF" width="50.1" height="14.6"/>
<g>
	<g>
		<line fill="none" stroke="#FF0036" stroke-miterlimit="10" stroke-dasharray="5,5" x1="337.8" y1="180.4" x2="337.8" y2="265.4"/>
		<g>
			<polygon fill="#FF0036" points="335.7,181.7 337.8,174 339.9,181.7 			"/>
		</g>
		<g>
			<polygon fill="#FF0036" points="335.7,264 337.8,271.8 339.9,264 			"/>
		</g>
	</g>
</g>
<g>
	<rect x="312.8" y="218.7" fill="#FFFFFF" width="50.1" height="14.6"/>
	<g>
		<path fill="#FF0036" d="M323.8,226.5c0,0.6-0.1,1.2-0.3,1.8s-0.5,1-0.9,1.3l1.6,1.5l-0.9,0.8l-1.9-1.6c-0.2,0.1-0.5,0.2-0.7,0.2
			c-0.3,0-0.5,0.1-0.8,0.1c-1.1,0-2.1-0.4-2.8-1.1c-0.7-0.8-1-1.8-1-2.9v-1.8c0-1.1,0.3-2.2,1-2.9c0.7-0.8,1.6-1.1,2.8-1.1
			c1.1,0,2.1,0.4,2.8,1.1c0.7,0.8,1.1,1.8,1.1,2.9L323.8,226.5L323.8,226.5z M322.5,224.9c0-0.9-0.2-1.6-0.7-2.2
			c-0.5-0.5-1.1-0.8-2-0.8c-0.7,0-1.3,0.3-1.9,0.8c-0.4,0.5-0.7,1.2-0.7,2.2v1.8c0,0.9,0.2,1.6,0.7,2.2c0.4,0.5,1,0.8,1.9,0.8
			s1.4-0.3,2-0.8c0.5-0.5,0.7-1.2,0.7-2.2V224.9z"/>
		<path fill="#FF0036" d="M332.7,220.9v6.5c0,1-0.3,1.9-1,2.4s-1.5,0.8-2.7,0.8c-1,0-2-0.3-2.6-0.8c-0.6-0.5-1-1.3-1-2.4v-6.5h1.3
			v6.5c0,0.7,0.2,1.2,0.6,1.6c0.4,0.4,0.9,0.5,1.6,0.5c0.7,0,1.2-0.2,1.8-0.5c0.4-0.4,0.6-0.9,0.6-1.6v-6.5H332.7z"/>
		<path fill="#FF0036" d="M340,228.1h-4l-0.9,2.5h-1.3l3.7-9.6h1.1l3.6,9.6h-1.3L340,228.1z M336.3,226.9h3.2l-1.5-4.3l0,0
			L336.3,226.9z"/>
		<path fill="#FF0036" d="M350.8,230.5h-1.3l-4.6-7.4l0,0v7.4h-1.3v-9.7h1.3l4.6,7.4l0,0v-7.4h1.3V230.5z"/>
		<path fill="#FF0036" d="M359.4,221.9h-3.1v8.5H355v-8.5h-3.1v-1h7.4v1H359.4z"/>
	</g>
</g>
<g>
	<g>
		<line fill="none" stroke="#B3B3B3" stroke-miterlimit="10" stroke-dasharray="5,5" x1="606.3" y1="180.4" x2="606.3" y2="265.4"/>
		<g>
			<polygon fill="#B3B3B3" points="604.1,181.7 606.3,174 608.4,181.7 			"/>
		</g>
		<g>
			<polygon fill="#B3B3B3" points="604.1,264 606.3,271.8 608.4,264 			"/>
		</g>
	</g>
</g>
<rect x="581.3" y="215.6" fill="#FFFFFF" width="50.1" height="14.6"/>
<g>
	<g>
		<line fill="none" stroke="#B3B3B3" stroke-miterlimit="10" stroke-dasharray="5,5" x1="392.7" y1="317.7" x2="552.1" y2="317.7"/>
		<g>
			<polygon fill="#B3B3B3" points="394.1,319.8 386.3,317.7 394.1,315.6 			"/>
		</g>
		<g>
			<polygon fill="#B3B3B3" points="550.7,319.8 558.5,317.7 550.7,315.6 			"/>
		</g>
	</g>
</g>
<rect x="447.8" y="310.4" fill="#FFFFFF" width="40.9" height="14.6"/>
<g>
	<g>
		<line fill="none" stroke="#B3B3B3" stroke-miterlimit="10" stroke-dasharray="5,5" x1="122.7" y1="317.7" x2="282.1" y2="317.7"/>
		<g>
			<polygon fill="#B3B3B3" points="124.2,319.8 116.4,317.7 124.2,315.6 			"/>
		</g>
		<g>
			<polygon fill="#B3B3B3" points="280.7,319.8 288.5,317.7 280.7,315.6 			"/>
		</g>
	</g>
</g>
<rect x="180.6" y="310.4" fill="#FFFFFF" width="39.2" height="14.6"/>
<circle fill="#FF2250" cx="337.8" cy="84.7" r="81.2"/>
<circle fill="none" stroke="#FF0043" stroke-width="3" stroke-miterlimit="10" cx="337.8" cy="84.7" r="67.2"/>
<path fill="none" stroke="#FFFFFF" stroke-width="2" stroke-miterlimit="10" d="M363.4,96.8c-1.3,4.5-5.6,7.9-10.6,7.9h-28.2
	c-6.1,0-11-4.9-11-11V65.4c0-6.1,4.9-11,11-11h28.2c6.1,0,11,4.9,11,11v24c0,0.9-1,1.4-1.8,0.9l-29.3-19.7c-0.5-0.3-1.1,0-1.1,0.6
	v21.1"/>
<g enable-background="new    ">
	<path fill="#FFFFFF" d="M316.9,125.6h-1.6l-4.2-6.9l0,0v6.9h-1.6v-9.5h1.6l4.2,6.9l0,0v-6.9h1.6V125.6z"/>
	<path fill="#FFFFFF" d="M324.8,121.3h-4.2v3h4.8v1.3H319v-9.5h6.4v1.3h-4.8v2.7h4.2V121.3z"/>
	<path fill="#FFFFFF" d="M333.4,117.4h-2.9v8.2H329v-8.2h-2.9v-1.3h7.3V117.4z"/>
	<path fill="#FFFFFF" d="M341.9,121.7c0,1.2-0.4,2.1-1.1,2.9c-0.7,0.8-1.7,1.1-2.8,1.1c-1.1,0-2.1-0.4-2.8-1.1
		c-0.7-0.8-1.1-1.7-1.1-2.9V120c0-1.2,0.4-2.1,1.1-2.9c0.7-0.8,1.6-1.2,2.8-1.2c1.2,0,2.1,0.4,2.8,1.2c0.7,0.8,1.1,1.7,1.1,2.9
		V121.7z M340.3,120c0-0.8-0.2-1.4-0.6-2c-0.4-0.5-1-0.8-1.7-0.8c-0.7,0-1.2,0.3-1.7,0.8c-0.4,0.5-0.6,1.2-0.6,2v1.7
		c0,0.8,0.2,1.5,0.6,2c0.4,0.5,1,0.8,1.7,0.8c0.7,0,1.3-0.3,1.7-0.8c0.4-0.5,0.6-1.2,0.6-2V120z"/>
	<path fill="#FFFFFF" d="M345.2,122v3.6h-1.6v-9.5h3.7c1,0,1.9,0.3,2.5,0.8c0.6,0.5,0.9,1.3,0.9,2.1c0,0.9-0.3,1.6-0.9,2.1
		c-0.6,0.5-1.4,0.8-2.5,0.8H345.2z M345.2,120.7h2.1c0.6,0,1-0.2,1.3-0.5c0.3-0.3,0.4-0.7,0.4-1.2s-0.1-0.9-0.4-1.2
		c-0.3-0.3-0.7-0.5-1.3-0.5h-2.1V120.7z"/>
	<path fill="#FFFFFF" d="M356.3,123.4h-3.7l-0.8,2.2h-1.6l3.5-9.5h1.5l3.5,9.5H357L356.3,123.4z M353,122.1h2.8l-1.4-4.1h0
		L353,122.1z"/>
	<path fill="#FFFFFF" d="M362.9,120.7l2.3-4.6h1.8l-3.3,6.2v3.3h-1.6v-3.4l-3.2-6.1h1.8L362.9,120.7z"/>
</g>
<g>
	<path fill="#0099FF" d="M176,84.4c0,1.1-0.4,2.1-1.1,2.8c-0.7,0.7-1.6,1.1-2.7,1.1c-1.1,0-2-0.4-2.6-1.1c-0.7-0.7-1-1.7-1-2.8v-1.6
		c0-1.1,0.3-2.1,1-2.8c0.7-0.7,1.6-1.1,2.6-1.1c1.1,0,2,0.4,2.7,1.1c0.7,0.7,1.1,1.7,1.1,2.8V84.4z M174.7,82.7
		c0-0.8-0.2-1.5-0.7-2.1s-1.1-0.8-1.8-0.8c-0.7,0-1.3,0.3-1.7,0.8c-0.4,0.5-0.7,1.2-0.7,2.1v1.7c0,0.9,0.2,1.6,0.7,2.1
		c0.4,0.5,1,0.8,1.7,0.8c0.8,0,1.4-0.3,1.8-0.8c0.5-0.5,0.7-1.2,0.7-2.1V82.7z"/>
	<path fill="#0099FF" d="M178.1,88.2v-5.9H177v-0.9h1.1v-0.9c0-0.7,0.2-1.3,0.6-1.7c0.4-0.4,0.9-0.6,1.6-0.6c0.1,0,0.3,0,0.4,0
		c0.1,0,0.3,0.1,0.5,0.1l-0.2,1c-0.1,0-0.2,0-0.3,0c-0.1,0-0.2,0-0.3,0c-0.4,0-0.6,0.1-0.8,0.3c-0.2,0.2-0.3,0.5-0.3,0.9v0.9h1.4
		v0.9h-1.4v5.9H178.1z"/>
	<path fill="#0099FF" d="M182.6,88.2v-5.9h-1.1v-0.9h1.1v-0.9c0-0.7,0.2-1.3,0.6-1.7c0.4-0.4,0.9-0.6,1.6-0.6c0.1,0,0.3,0,0.4,0
		c0.1,0,0.3,0.1,0.5,0.1l-0.2,1c-0.1,0-0.2,0-0.3,0c-0.1,0-0.2,0-0.3,0c-0.4,0-0.6,0.1-0.8,0.3c-0.2,0.2-0.3,0.5-0.3,0.9v0.9h1.4
		v0.9h-1.4v5.9H182.6z"/>
	<path fill="#0099FF" d="M189.3,88.3c-1,0-1.7-0.3-2.3-1c-0.6-0.6-0.8-1.5-0.8-2.5v-0.3c0-1,0.3-1.8,0.9-2.4c0.6-0.6,1.3-1,2.1-1
		c0.9,0,1.6,0.3,2.1,0.8s0.7,1.3,0.7,2.2V85h-4.5l0,0c0,0.7,0.2,1.2,0.5,1.6c0.3,0.4,0.8,0.6,1.4,0.6c0.4,0,0.8-0.1,1.1-0.2
		c0.3-0.1,0.6-0.3,0.8-0.5l0.5,0.8c-0.2,0.2-0.6,0.4-1,0.6C190.3,88.2,189.8,88.3,189.3,88.3z M189.1,82.1c-0.4,0-0.8,0.2-1.1,0.5
		s-0.5,0.8-0.5,1.3l0,0h3.2v-0.2c0-0.5-0.1-0.9-0.4-1.2C190,82.3,189.6,82.1,189.1,82.1z"/>
	<path fill="#0099FF" d="M196.5,82.4l-0.6,0c-0.3,0-0.6,0.1-0.8,0.2c-0.2,0.2-0.4,0.4-0.5,0.7v4.9h-1.3v-6.9h1.1l0.1,1
		c0.2-0.4,0.4-0.6,0.7-0.8c0.3-0.2,0.6-0.3,1-0.3c0.1,0,0.2,0,0.3,0c0.1,0,0.2,0,0.2,0L196.5,82.4z"/>
	<path fill="#0099FF" d="M201.7,86.3c0-0.3-0.1-0.5-0.3-0.7c-0.2-0.2-0.6-0.3-1.2-0.5c-0.8-0.2-1.5-0.4-1.9-0.7
		c-0.4-0.3-0.6-0.7-0.6-1.3c0-0.6,0.2-1,0.7-1.4s1.1-0.6,1.9-0.6c0.8,0,1.4,0.2,1.9,0.6c0.5,0.4,0.7,0.9,0.7,1.5l0,0h-1.2
		c0-0.3-0.1-0.6-0.4-0.8c-0.3-0.2-0.6-0.4-1-0.4c-0.4,0-0.8,0.1-1,0.3s-0.3,0.4-0.3,0.7c0,0.3,0.1,0.5,0.3,0.6s0.6,0.3,1.2,0.4
		c0.9,0.2,1.5,0.4,1.9,0.8c0.4,0.3,0.6,0.7,0.6,1.3c0,0.6-0.2,1.1-0.7,1.5c-0.5,0.4-1.1,0.6-1.9,0.6c-0.9,0-1.6-0.2-2.1-0.7
		s-0.7-1-0.7-1.6l0,0h1.2c0,0.4,0.2,0.8,0.5,1s0.7,0.3,1.1,0.3c0.4,0,0.8-0.1,1-0.3C201.6,86.9,201.7,86.6,201.7,86.3z"/>
</g>
<g>
	<path fill="#666666" d="M39.8,138.8h-4.2v3.3h4.9v1h-6.1v-9.2h6.1v1h-4.8v3h4.2V138.8z"/>
	<path fill="#666666" d="M44,138.8l1.5-2.5h1.5l-2.2,3.4l2.3,3.5h-1.4l-1.5-2.6l-1.5,2.6h-1.4l2.3-3.5l-2.2-3.4h1.4L44,138.8z"/>
	<path fill="#666666" d="M50.9,142.2c0.4,0,0.8-0.1,1.1-0.4c0.3-0.3,0.5-0.6,0.5-0.9h1.1l0,0c0,0.6-0.2,1.1-0.8,1.6
		c-0.5,0.5-1.2,0.7-1.9,0.7c-1,0-1.8-0.3-2.3-1s-0.8-1.5-0.8-2.5v-0.3c0-1,0.3-1.8,0.8-2.4c0.5-0.7,1.3-1,2.3-1c0.8,0,1.5,0.2,2,0.7
		c0.5,0.5,0.8,1.1,0.7,1.7l0,0h-1.1c0-0.4-0.1-0.8-0.4-1.1c-0.3-0.3-0.7-0.4-1.1-0.4c-0.7,0-1.1,0.2-1.4,0.7c-0.3,0.5-0.4,1-0.4,1.7
		v0.3c0,0.7,0.1,1.3,0.4,1.8C49.8,142,50.2,142.2,50.9,142.2z"/>
	<path fill="#666666" d="M56.3,137.1c0.2-0.3,0.5-0.6,0.9-0.8c0.3-0.2,0.7-0.3,1.1-0.3c0.7,0,1.3,0.2,1.7,0.7c0.4,0.4,0.6,1.1,0.6,2
		v4.3h-1.3v-4.3c0-0.6-0.1-1-0.4-1.3c-0.2-0.3-0.6-0.4-1.1-0.4c-0.3,0-0.7,0.1-0.9,0.2c-0.3,0.2-0.5,0.4-0.7,0.7v5.1H55v-9.9h1.3
		V137.1z"/>
	<path fill="#666666" d="M66.6,143.1c0-0.2-0.1-0.4-0.1-0.5c0-0.2,0-0.3,0-0.5c-0.2,0.3-0.5,0.6-0.9,0.8c-0.4,0.2-0.8,0.3-1.2,0.3
		c-0.7,0-1.3-0.2-1.6-0.5c-0.4-0.4-0.6-0.9-0.6-1.5c0-0.7,0.3-1.2,0.8-1.5c0.5-0.4,1.3-0.6,2.2-0.6h1.4v-0.7c0-0.4-0.1-0.7-0.4-1
		c-0.2-0.2-0.6-0.4-1-0.4c-0.4,0-0.7,0.1-1,0.3c-0.3,0.2-0.4,0.5-0.4,0.7h-1.2l0,0c0-0.5,0.2-1,0.7-1.4c0.5-0.4,1.1-0.6,1.9-0.6
		c0.8,0,1.4,0.2,1.9,0.6c0.5,0.4,0.7,1,0.7,1.7v3.3c0,0.2,0,0.5,0,0.7s0.1,0.5,0.1,0.7H66.6z M64.5,142.2c0.5,0,0.9-0.1,1.2-0.3
		s0.6-0.5,0.7-0.8v-1.1h-1.4c-0.5,0-0.9,0.1-1.2,0.4c-0.3,0.3-0.5,0.6-0.5,0.9c0,0.3,0.1,0.5,0.3,0.7S64.2,142.2,64.5,142.2z"/>
	<path fill="#666666" d="M70.7,136.2l0.1,1c0.2-0.4,0.5-0.6,0.9-0.8c0.3-0.2,0.7-0.3,1.2-0.3c0.7,0,1.3,0.2,1.7,0.7
		c0.4,0.4,0.6,1.1,0.6,2v4.3h-1.3v-4.3c0-0.6-0.1-1-0.4-1.3c-0.2-0.3-0.6-0.4-1.1-0.4c-0.4,0-0.7,0.1-1,0.3
		c-0.3,0.2-0.5,0.4-0.7,0.7v5h-1.3v-6.9H70.7z"/>
	<path fill="#666666" d="M76.7,139.8c0-1.1,0.2-2,0.7-2.7s1.1-1,2-1c0.4,0,0.8,0.1,1.1,0.3c0.3,0.2,0.6,0.4,0.8,0.8l0.2-0.9h1v6.9
		c0,0.9-0.3,1.6-0.8,2c-0.5,0.5-1.3,0.7-2.2,0.7c-0.3,0-0.7,0-1.1-0.1c-0.4-0.1-0.7-0.2-1-0.4l0.3-1c0.2,0.1,0.5,0.2,0.8,0.3
		c0.3,0.1,0.6,0.1,0.9,0.1c0.6,0,1.1-0.1,1.3-0.4c0.3-0.3,0.4-0.7,0.4-1.3v-0.8c-0.2,0.3-0.5,0.5-0.8,0.7c-0.3,0.1-0.7,0.2-1.1,0.2
		c-0.8,0-1.5-0.3-2-0.9s-0.7-1.4-0.7-2.4V139.8z M77.9,139.9c0,0.7,0.1,1.2,0.4,1.7s0.7,0.6,1.3,0.6c0.4,0,0.7-0.1,0.9-0.3
		c0.3-0.2,0.5-0.4,0.6-0.7v-3.2c-0.2-0.3-0.4-0.5-0.6-0.7c-0.3-0.2-0.6-0.3-0.9-0.3c-0.6,0-1,0.2-1.3,0.7s-0.4,1.1-0.4,1.9V139.9z"
		/>
	<path fill="#666666" d="M87.2,143.2c-1,0-1.7-0.3-2.3-1c-0.6-0.6-0.8-1.5-0.8-2.5v-0.3c0-1,0.3-1.8,0.9-2.4c0.6-0.6,1.3-1,2.1-1
		c0.9,0,1.6,0.3,2.1,0.8s0.7,1.3,0.7,2.2v0.8h-4.5l0,0c0,0.7,0.2,1.2,0.5,1.6c0.3,0.4,0.8,0.6,1.4,0.6c0.4,0,0.8-0.1,1.1-0.2
		c0.3-0.1,0.6-0.3,0.8-0.5l0.5,0.8c-0.2,0.2-0.6,0.4-1,0.6C88.2,143.1,87.7,143.2,87.2,143.2z M87,137.1c-0.4,0-0.8,0.2-1.1,0.5
		s-0.5,0.8-0.5,1.3l0,0h3.2v-0.2c0-0.5-0.1-0.9-0.4-1.2C87.9,137.2,87.5,137.1,87,137.1z"/>
	<path fill="#666666" d="M94.1,139.6c0-1,0.3-1.9,0.8-2.5c0.6-0.7,1.3-1,2.2-1c1,0,1.7,0.3,2.3,1c0.6,0.7,0.8,1.5,0.8,2.5v0.1
		c0,1-0.3,1.9-0.8,2.5s-1.3,1-2.2,1s-1.7-0.3-2.2-1c-0.6-0.7-0.8-1.5-0.8-2.5V139.6z M95.4,139.7c0,0.7,0.2,1.3,0.5,1.8
		c0.3,0.5,0.8,0.7,1.4,0.7c0.6,0,1-0.2,1.4-0.7s0.5-1.1,0.5-1.8v-0.1c0-0.7-0.2-1.3-0.5-1.8c-0.3-0.5-0.8-0.7-1.4-0.7
		c-0.6,0-1,0.2-1.4,0.7c-0.3,0.5-0.5,1.1-0.5,1.8V139.7z"/>
	<path fill="#666666" d="M102.3,143.1v-5.9h-1.1v-0.9h1.1v-0.9c0-0.7,0.2-1.3,0.6-1.7c0.4-0.4,0.9-0.6,1.6-0.6c0.1,0,0.3,0,0.4,0
		c0.1,0,0.3,0.1,0.5,0.1l-0.2,1c-0.1,0-0.2,0-0.3,0c-0.1,0-0.2,0-0.3,0c-0.4,0-0.6,0.1-0.8,0.3c-0.2,0.2-0.3,0.5-0.3,0.9v0.9h1.4
		v0.9h-1.4v5.9H102.3z"/>
	<path fill="#666666" d="M50.3,155.7L50.3,155.7c0,0.9-0.3,1.6-0.9,2.2c-0.6,0.6-1.5,0.9-2.5,0.9c-1,0-1.9-0.4-2.6-1.1
		c-0.7-0.7-1-1.7-1-2.8v-1.6c0-1.1,0.3-2.1,1-2.8c0.7-0.7,1.5-1.1,2.6-1.1s1.9,0.3,2.5,0.8c0.6,0.6,0.9,1.3,0.9,2.2l0,0h-1.2
		c0-0.6-0.2-1.2-0.6-1.5s-0.9-0.6-1.6-0.6c-0.7,0-1.3,0.3-1.7,0.8c-0.4,0.6-0.6,1.3-0.6,2.1v1.7c0,0.8,0.2,1.5,0.6,2.1
		c0.4,0.6,1,0.8,1.7,0.8c0.7,0,1.2-0.2,1.6-0.6c0.4-0.4,0.6-0.9,0.6-1.6H50.3z"/>
	<path fill="#666666" d="M55.1,152.9l-0.6,0c-0.3,0-0.6,0.1-0.8,0.2c-0.2,0.2-0.4,0.4-0.5,0.7v4.9h-1.3v-6.9h1.1l0.1,1
		c0.2-0.4,0.4-0.6,0.7-0.8c0.3-0.2,0.6-0.3,1-0.3c0.1,0,0.2,0,0.3,0c0.1,0,0.2,0,0.2,0L55.1,152.9z"/>
	<path fill="#666666" d="M59,158.8c-1,0-1.7-0.3-2.3-1c-0.6-0.6-0.8-1.5-0.8-2.5v-0.3c0-1,0.3-1.8,0.9-2.4c0.6-0.6,1.3-1,2.1-1
		c0.9,0,1.6,0.3,2.1,0.8s0.7,1.3,0.7,2.2v0.8h-4.5l0,0c0,0.7,0.2,1.2,0.5,1.6c0.3,0.4,0.8,0.6,1.4,0.6c0.4,0,0.8-0.1,1.1-0.2
		c0.3-0.1,0.6-0.3,0.8-0.5l0.5,0.8c-0.2,0.2-0.6,0.4-1,0.6C60,158.7,59.6,158.8,59,158.8z M58.8,152.7c-0.4,0-0.8,0.2-1.1,0.5
		s-0.5,0.8-0.5,1.3l0,0h3.2v-0.2c0-0.5-0.1-0.9-0.4-1.2C59.7,152.8,59.3,152.7,58.8,152.7z"/>
	<path fill="#666666" d="M62.7,155.4c0-1.1,0.2-2,0.7-2.7c0.5-0.7,1.1-1,2-1c0.4,0,0.8,0.1,1.1,0.2c0.3,0.1,0.6,0.4,0.8,0.6v-3.8
		h1.3v9.9h-1l-0.1-0.8c-0.2,0.3-0.5,0.6-0.8,0.7s-0.7,0.2-1.1,0.2c-0.8,0-1.5-0.3-2-0.9c-0.5-0.6-0.7-1.4-0.7-2.4V155.4z M64,155.5
		c0,0.7,0.1,1.2,0.4,1.7c0.3,0.4,0.7,0.6,1.3,0.6c0.4,0,0.7-0.1,0.9-0.3s0.5-0.4,0.6-0.7v-3.2c-0.2-0.3-0.4-0.5-0.6-0.7
		c-0.3-0.2-0.6-0.3-0.9-0.3c-0.6,0-1,0.2-1.3,0.7c-0.3,0.5-0.4,1.1-0.4,1.9V155.5z"/>
	<path fill="#666666" d="M71.8,150.1h-1.3v-1.3h1.3V150.1z M71.8,158.7h-1.3v-6.9h1.3V158.7z"/>
	<path fill="#666666" d="M75.3,150.2v1.7h1.3v0.9h-1.3v4.2c0,0.3,0.1,0.5,0.2,0.7c0.1,0.1,0.3,0.2,0.5,0.2c0.1,0,0.2,0,0.2,0
		c0.1,0,0.2,0,0.2-0.1l0.2,0.9c-0.1,0.1-0.2,0.1-0.4,0.2c-0.2,0-0.4,0.1-0.5,0.1c-0.5,0-0.9-0.2-1.2-0.5c-0.3-0.3-0.5-0.8-0.5-1.4
		v-4.2H73v-0.9h1.1v-1.7H75.3z"/>
	<path fill="#666666" d="M77.9,155.2c0-1,0.3-1.9,0.8-2.5c0.6-0.7,1.3-1,2.2-1c1,0,1.7,0.3,2.3,1c0.6,0.7,0.8,1.5,0.8,2.5v0.1
		c0,1-0.3,1.9-0.8,2.5s-1.3,1-2.2,1s-1.7-0.3-2.2-1c-0.6-0.7-0.8-1.5-0.8-2.5V155.2z M79.1,155.3c0,0.7,0.2,1.3,0.5,1.8
		c0.3,0.5,0.8,0.7,1.4,0.7c0.6,0,1-0.2,1.4-0.7s0.5-1.1,0.5-1.8v-0.1c0-0.7-0.2-1.3-0.5-1.8c-0.3-0.5-0.8-0.7-1.4-0.7
		c-0.6,0-1,0.2-1.4,0.7c-0.3,0.5-0.5,1.1-0.5,1.8V155.3z"/>
	<path fill="#666666" d="M88.8,152.9l-0.6,0c-0.3,0-0.6,0.1-0.8,0.2c-0.2,0.2-0.4,0.4-0.5,0.7v4.9h-1.3v-6.9h1.1l0.1,1
		c0.2-0.4,0.4-0.6,0.7-0.8c0.3-0.2,0.6-0.3,1-0.3c0.1,0,0.2,0,0.3,0c0.1,0,0.2,0,0.2,0L88.8,152.9z"/>
	<path fill="#666666" d="M94,156.9c0-0.3-0.1-0.5-0.3-0.7c-0.2-0.2-0.6-0.3-1.2-0.5c-0.8-0.2-1.5-0.4-1.9-0.7
		c-0.4-0.3-0.6-0.7-0.6-1.3c0-0.6,0.2-1,0.7-1.4s1.1-0.6,1.9-0.6c0.8,0,1.4,0.2,1.9,0.6c0.5,0.4,0.7,0.9,0.7,1.5l0,0h-1.2
		c0-0.3-0.1-0.6-0.4-0.8c-0.3-0.2-0.6-0.4-1-0.4c-0.4,0-0.8,0.1-1,0.3s-0.3,0.4-0.3,0.7c0,0.3,0.1,0.5,0.3,0.6s0.6,0.3,1.2,0.4
		c0.9,0.2,1.5,0.4,1.9,0.8c0.4,0.3,0.6,0.7,0.6,1.3c0,0.6-0.2,1.1-0.7,1.5c-0.5,0.4-1.1,0.6-1.9,0.6c-0.9,0-1.6-0.2-2.1-0.7
		s-0.7-1-0.7-1.6l0,0H91c0,0.4,0.2,0.8,0.5,1s0.7,0.3,1.1,0.3c0.4,0,0.8-0.1,1-0.3C93.9,157.4,94,157.2,94,156.9z"/>
</g>
<g>
	<path fill="#666666" d="M576.8,138.8h-4.2v3.3h4.9v1h-6.1v-9.2h6.1v1h-4.8v3h4.2V138.8z"/>
	<path fill="#666666" d="M581,138.8l1.5-2.5h1.5l-2.2,3.4l2.3,3.5h-1.4l-1.5-2.6l-1.5,2.6H578l2.3-3.5l-2.2-3.4h1.4L581,138.8z"/>
	<path fill="#666666" d="M587.9,142.2c0.4,0,0.8-0.1,1.1-0.4c0.3-0.3,0.5-0.6,0.5-0.9h1.1l0,0c0,0.6-0.2,1.1-0.8,1.6
		s-1.2,0.7-1.9,0.7c-1,0-1.8-0.3-2.3-1s-0.8-1.5-0.8-2.5v-0.3c0-1,0.3-1.8,0.8-2.4c0.5-0.7,1.3-1,2.3-1c0.8,0,1.5,0.2,2,0.7
		s0.8,1.1,0.7,1.7l0,0h-1.1c0-0.4-0.1-0.8-0.4-1.1c-0.3-0.3-0.7-0.4-1.1-0.4c-0.7,0-1.1,0.2-1.4,0.7s-0.4,1-0.4,1.7v0.3
		c0,0.7,0.1,1.3,0.4,1.8C586.7,142,587.2,142.2,587.9,142.2z"/>
	<path fill="#666666" d="M593.2,137.1c0.2-0.3,0.5-0.6,0.9-0.8c0.3-0.2,0.7-0.3,1.1-0.3c0.7,0,1.3,0.2,1.7,0.7s0.6,1.1,0.6,2v4.3
		h-1.2v-4.3c0-0.6-0.1-1-0.4-1.3s-0.6-0.4-1.1-0.4c-0.3,0-0.7,0.1-0.9,0.2c-0.3,0.2-0.5,0.4-0.7,0.7v5.1H592v-9.9h1.2V137.1z"/>
	<path fill="#666666" d="M603.6,143.1c0-0.2-0.1-0.4-0.1-0.5c0-0.2,0-0.3,0-0.5c-0.2,0.3-0.5,0.6-0.9,0.8c-0.4,0.2-0.8,0.3-1.2,0.3
		c-0.7,0-1.3-0.2-1.6-0.5c-0.4-0.4-0.6-0.9-0.6-1.5c0-0.7,0.3-1.2,0.8-1.5c0.5-0.4,1.3-0.6,2.2-0.6h1.4v-0.7c0-0.4-0.1-0.7-0.4-1
		c-0.2-0.2-0.6-0.4-1-0.4c-0.4,0-0.7,0.1-1,0.3c-0.3,0.2-0.4,0.5-0.4,0.7h-1.2l0,0c0-0.5,0.2-1,0.7-1.4s1.1-0.6,1.9-0.6
		c0.8,0,1.4,0.2,1.9,0.6c0.5,0.4,0.7,1,0.7,1.7v3.3c0,0.2,0,0.5,0,0.7s0.1,0.5,0.1,0.7H603.6z M601.5,142.2c0.5,0,0.9-0.1,1.2-0.3
		s0.6-0.5,0.7-0.8v-1.1H602c-0.5,0-0.9,0.1-1.2,0.4c-0.3,0.3-0.5,0.6-0.5,0.9c0,0.3,0.1,0.5,0.3,0.7S601.1,142.2,601.5,142.2z"/>
	<path fill="#666666" d="M607.6,136.2l0.1,1c0.2-0.4,0.5-0.6,0.9-0.8c0.3-0.2,0.7-0.3,1.2-0.3c0.7,0,1.3,0.2,1.7,0.7
		c0.4,0.4,0.6,1.1,0.6,2v4.3h-1.2v-4.3c0-0.6-0.1-1-0.4-1.3s-0.6-0.4-1.1-0.4c-0.4,0-0.7,0.1-1,0.3s-0.5,0.4-0.7,0.7v5h-1.2v-6.9
		H607.6z"/>
	<path fill="#666666" d="M613.6,139.8c0-1.1,0.2-2,0.7-2.7s1.1-1,2-1c0.4,0,0.8,0.1,1.1,0.3c0.3,0.2,0.6,0.4,0.8,0.8l0.2-0.9h1v6.9
		c0,0.9-0.3,1.6-0.8,2c-0.5,0.5-1.2,0.7-2.2,0.7c-0.3,0-0.7,0-1.1-0.1c-0.4-0.1-0.7-0.2-1-0.4l0.3-1c0.2,0.1,0.5,0.2,0.8,0.3
		c0.3,0.1,0.6,0.1,0.9,0.1c0.6,0,1.1-0.1,1.3-0.4c0.3-0.3,0.4-0.7,0.4-1.3v-0.8c-0.2,0.3-0.5,0.5-0.8,0.7c-0.3,0.1-0.7,0.2-1.1,0.2
		c-0.8,0-1.5-0.3-2-0.9s-0.7-1.4-0.7-2.4V139.8z M614.9,139.9c0,0.7,0.1,1.2,0.4,1.7s0.7,0.6,1.3,0.6c0.4,0,0.7-0.1,0.9-0.3
		c0.3-0.2,0.5-0.4,0.6-0.7v-3.2c-0.2-0.3-0.4-0.5-0.6-0.7c-0.3-0.2-0.6-0.3-0.9-0.3c-0.6,0-1,0.2-1.3,0.7c-0.3,0.5-0.4,1.1-0.4,1.9
		V139.9z"/>
	<path fill="#666666" d="M624.1,143.2c-1,0-1.7-0.3-2.3-1c-0.6-0.6-0.8-1.5-0.8-2.5v-0.3c0-1,0.3-1.8,0.9-2.4c0.6-0.6,1.3-1,2.1-1
		c0.9,0,1.6,0.3,2.1,0.8c0.5,0.6,0.7,1.3,0.7,2.2v0.8h-4.5l0,0c0,0.7,0.2,1.2,0.5,1.6c0.3,0.4,0.8,0.6,1.4,0.6
		c0.4,0,0.8-0.1,1.1-0.2c0.3-0.1,0.6-0.3,0.8-0.5l0.5,0.8c-0.2,0.2-0.6,0.4-1,0.6C625.2,143.1,624.7,143.2,624.1,143.2z
		 M623.9,137.1c-0.4,0-0.8,0.2-1.1,0.5c-0.3,0.4-0.5,0.8-0.5,1.3l0,0h3.2v-0.2c0-0.5-0.1-0.9-0.4-1.2
		C624.8,137.2,624.5,137.1,623.9,137.1z"/>
	<path fill="#666666" d="M631.1,139.6c0-1,0.3-1.9,0.8-2.5c0.5-0.7,1.3-1,2.2-1c1,0,1.7,0.3,2.3,1c0.6,0.7,0.8,1.5,0.8,2.5v0.1
		c0,1-0.3,1.9-0.8,2.5s-1.3,1-2.2,1s-1.7-0.3-2.2-1c-0.6-0.7-0.8-1.5-0.8-2.5V139.6z M632.3,139.7c0,0.7,0.2,1.3,0.5,1.8
		s0.8,0.7,1.4,0.7c0.6,0,1-0.2,1.4-0.7s0.5-1.1,0.5-1.8v-0.1c0-0.7-0.2-1.3-0.5-1.8c-0.3-0.5-0.8-0.7-1.4-0.7c-0.6,0-1,0.2-1.4,0.7
		s-0.5,1.1-0.5,1.8V139.7z"/>
	<path fill="#666666" d="M639.3,143.1v-5.9h-1.1v-0.9h1.1v-0.9c0-0.7,0.2-1.3,0.6-1.7c0.4-0.4,0.9-0.6,1.6-0.6c0.1,0,0.3,0,0.4,0
		c0.1,0,0.3,0.1,0.5,0.1l-0.2,1c-0.1,0-0.2,0-0.3,0c-0.1,0-0.2,0-0.3,0c-0.4,0-0.6,0.1-0.8,0.3c-0.2,0.2-0.3,0.5-0.3,0.9v0.9h1.4
		v0.9h-1.4v5.9H639.3z"/>
	<path fill="#666666" d="M577.5,158.7v-9.2h3c1,0,1.7,0.2,2.3,0.6c0.5,0.4,0.8,1,0.8,1.9c0,0.4-0.1,0.8-0.4,1.1
		c-0.3,0.3-0.6,0.6-1,0.7c0.6,0.1,1,0.4,1.3,0.8s0.5,0.9,0.5,1.5c0,0.8-0.3,1.5-0.8,1.9c-0.5,0.4-1.3,0.7-2.2,0.7H577.5z
		 M578.7,153.4h2c0.5,0,0.8-0.1,1.1-0.4c0.3-0.3,0.4-0.6,0.4-1.1c0-0.5-0.2-0.9-0.5-1.1c-0.3-0.2-0.8-0.4-1.4-0.4h-1.8V153.4z
		 M578.7,154.4v3.3h2.2c0.6,0,1-0.1,1.3-0.4c0.3-0.3,0.5-0.7,0.5-1.2c0-0.5-0.1-1-0.4-1.3c-0.3-0.3-0.7-0.5-1.2-0.5H578.7z"/>
	<path fill="#666666" d="M585.2,155.2c0-1,0.3-1.9,0.8-2.5c0.5-0.7,1.3-1,2.2-1c1,0,1.7,0.3,2.3,1c0.6,0.7,0.8,1.5,0.8,2.5v0.1
		c0,1-0.3,1.9-0.8,2.5s-1.3,1-2.2,1s-1.7-0.3-2.2-1c-0.6-0.7-0.8-1.5-0.8-2.5V155.2z M586.5,155.3c0,0.7,0.2,1.3,0.5,1.8
		s0.8,0.7,1.4,0.7c0.6,0,1-0.2,1.4-0.7s0.5-1.1,0.5-1.8v-0.1c0-0.7-0.2-1.3-0.5-1.8c-0.3-0.5-0.8-0.7-1.4-0.7c-0.6,0-1,0.2-1.4,0.7
		s-0.5,1.1-0.5,1.8V155.3z"/>
	<path fill="#666666" d="M596.2,152.9l-0.6,0c-0.3,0-0.6,0.1-0.8,0.2s-0.4,0.4-0.5,0.7v4.9h-1.2v-6.9h1.1l0.1,1
		c0.2-0.4,0.4-0.6,0.7-0.8c0.3-0.2,0.6-0.3,1-0.3c0.1,0,0.2,0,0.3,0c0.1,0,0.2,0,0.2,0L596.2,152.9z"/>
	<path fill="#666666" d="M600.6,152.9l-0.6,0c-0.3,0-0.6,0.1-0.8,0.2s-0.4,0.4-0.5,0.7v4.9h-1.2v-6.9h1.1l0.1,1
		c0.2-0.4,0.4-0.6,0.7-0.8c0.3-0.2,0.6-0.3,1-0.3c0.1,0,0.2,0,0.3,0c0.1,0,0.2,0,0.2,0L600.6,152.9z"/>
	<path fill="#666666" d="M601.4,155.2c0-1,0.3-1.9,0.8-2.5c0.5-0.7,1.3-1,2.2-1c1,0,1.7,0.3,2.3,1c0.6,0.7,0.8,1.5,0.8,2.5v0.1
		c0,1-0.3,1.9-0.8,2.5s-1.3,1-2.2,1s-1.7-0.3-2.2-1c-0.6-0.7-0.8-1.5-0.8-2.5V155.2z M602.7,155.3c0,0.7,0.2,1.3,0.5,1.8
		s0.8,0.7,1.4,0.7c0.6,0,1-0.2,1.4-0.7s0.5-1.1,0.5-1.8v-0.1c0-0.7-0.2-1.3-0.5-1.8c-0.3-0.5-0.8-0.7-1.4-0.7c-0.6,0-1,0.2-1.4,0.7
		s-0.5,1.1-0.5,1.8V155.3z"/>
	<path fill="#666666" d="M610.9,156.2l0.1,0.8h0l0.2-0.8l1.4-4.4h1l1.4,4.4l0.2,0.9h0l0.2-0.9l1.1-4.4h1.2l-2,6.9h-1l-1.3-4.2
		l-0.3-1.2l0,0l-0.3,1.2l-1.3,4.2h-1l-2-6.9h1.2L610.9,156.2z"/>
	<path fill="#666666" d="M621.8,158.8c-1,0-1.7-0.3-2.3-1c-0.6-0.6-0.8-1.5-0.8-2.5v-0.3c0-1,0.3-1.8,0.9-2.4c0.6-0.6,1.3-1,2.1-1
		c0.9,0,1.6,0.3,2.1,0.8c0.5,0.6,0.7,1.3,0.7,2.2v0.8H620l0,0c0,0.7,0.2,1.2,0.5,1.6c0.3,0.4,0.8,0.6,1.4,0.6c0.4,0,0.8-0.1,1.1-0.2
		c0.3-0.1,0.6-0.3,0.8-0.5l0.5,0.8c-0.2,0.2-0.6,0.4-1,0.6C622.9,158.7,622.4,158.8,621.8,158.8z M621.6,152.7
		c-0.4,0-0.8,0.2-1.1,0.5c-0.3,0.4-0.5,0.8-0.5,1.3l0,0h3.2v-0.2c0-0.5-0.1-0.9-0.4-1.2C622.5,152.8,622.1,152.7,621.6,152.7z"/>
	<path fill="#666666" d="M629.1,152.9l-0.6,0c-0.3,0-0.6,0.1-0.8,0.2s-0.4,0.4-0.5,0.7v4.9h-1.2v-6.9h1.1l0.1,1
		c0.2-0.4,0.4-0.6,0.7-0.8c0.3-0.2,0.6-0.3,1-0.3c0.1,0,0.2,0,0.3,0c0.1,0,0.2,0,0.2,0L629.1,152.9z"/>
	<path fill="#666666" d="M634.3,156.9c0-0.3-0.1-0.5-0.3-0.7c-0.2-0.2-0.6-0.3-1.2-0.5c-0.8-0.2-1.5-0.4-1.9-0.7s-0.6-0.7-0.6-1.3
		c0-0.6,0.2-1,0.7-1.4c0.5-0.4,1.1-0.6,1.9-0.6c0.8,0,1.4,0.2,1.9,0.6s0.7,0.9,0.7,1.5l0,0h-1.2c0-0.3-0.1-0.6-0.4-0.8
		c-0.3-0.2-0.6-0.4-1-0.4c-0.4,0-0.8,0.1-1,0.3c-0.2,0.2-0.3,0.4-0.3,0.7c0,0.3,0.1,0.5,0.3,0.6c0.2,0.2,0.6,0.3,1.2,0.4
		c0.9,0.2,1.5,0.4,1.9,0.8c0.4,0.3,0.6,0.7,0.6,1.3c0,0.6-0.2,1.1-0.7,1.5s-1.1,0.6-1.9,0.6c-0.9,0-1.6-0.2-2.1-0.7s-0.7-1-0.7-1.6
		l0,0h1.2c0,0.4,0.2,0.8,0.5,1c0.3,0.2,0.7,0.3,1.1,0.3c0.4,0,0.8-0.1,1-0.3C634.1,157.4,634.3,157.2,634.3,156.9z"/>
</g>
<g>
	<path fill="#979695" d="M46.6,374.2v-8.5h2.8c0.9,0,1.6,0.2,2.1,0.6s0.8,1,0.8,1.7c0,0.4-0.1,0.7-0.4,1s-0.6,0.5-1,0.7
		c0.5,0.1,0.9,0.4,1.2,0.8s0.4,0.9,0.4,1.4c0,0.8-0.3,1.4-0.8,1.8s-1.2,0.6-2.1,0.6H46.6z M47.8,369.3h1.9c0.4,0,0.8-0.1,1-0.4
		s0.4-0.6,0.4-1c0-0.5-0.1-0.8-0.4-1s-0.7-0.3-1.3-0.3h-1.6V369.3z M47.8,370.2v3.1h2c0.5,0,0.9-0.1,1.2-0.4
		c0.3-0.3,0.4-0.6,0.4-1.1c0-0.5-0.1-0.9-0.4-1.2c-0.2-0.3-0.6-0.4-1.1-0.4H47.8z"/>
	<path fill="#979695" d="M58,374.2c0-0.2-0.1-0.4-0.1-0.5s0-0.3,0-0.4c-0.2,0.3-0.5,0.6-0.8,0.8s-0.7,0.3-1.1,0.3
		c-0.7,0-1.2-0.2-1.5-0.5s-0.5-0.8-0.5-1.4c0-0.6,0.2-1.1,0.7-1.4s1.2-0.5,2-0.5h1.3v-0.6c0-0.4-0.1-0.7-0.3-0.9s-0.5-0.3-1-0.3
		c-0.4,0-0.7,0.1-0.9,0.3s-0.3,0.4-0.3,0.7h-1.1l0,0c0-0.5,0.2-0.9,0.7-1.3s1.1-0.6,1.8-0.6c0.7,0,1.3,0.2,1.7,0.5s0.7,0.9,0.7,1.6
		v3.1c0,0.2,0,0.4,0,0.7s0.1,0.4,0.1,0.6H58z M56,373.3c0.4,0,0.8-0.1,1.1-0.3s0.6-0.5,0.7-0.7v-1h-1.3c-0.5,0-0.8,0.1-1.1,0.4
		s-0.4,0.5-0.4,0.8c0,0.3,0.1,0.5,0.3,0.7C55.4,373.3,55.7,373.3,56,373.3z"/>
	<path fill="#979695" d="M61.7,367.8l0.1,0.9c0.2-0.3,0.5-0.6,0.8-0.8s0.7-0.3,1.1-0.3c0.7,0,1.2,0.2,1.6,0.6s0.6,1,0.6,1.9v4h-1.2
		v-4c0-0.6-0.1-1-0.3-1.2s-0.6-0.4-1-0.4c-0.3,0-0.6,0.1-0.9,0.2s-0.5,0.4-0.6,0.7v4.6h-1.2v-6.3H61.7z"/>
	<path fill="#979695" d="M69.4,371.3h-0.8v2.9h-1.2V365h1.2v5.3h0.7l1.7-2.5h1.4l-2.2,2.9l2.5,3.5h-1.4L69.4,371.3z"/>
	<path fill="#979695" d="M77.3,372.5c0-0.3-0.1-0.5-0.3-0.6s-0.6-0.3-1.1-0.4c-0.8-0.2-1.3-0.4-1.7-0.7c-0.4-0.3-0.6-0.7-0.6-1.2
		c0-0.5,0.2-1,0.7-1.3c0.4-0.4,1-0.5,1.7-0.5c0.7,0,1.3,0.2,1.8,0.6s0.6,0.8,0.6,1.4l0,0h-1.1c0-0.3-0.1-0.5-0.3-0.7
		s-0.5-0.3-0.9-0.3c-0.4,0-0.7,0.1-0.9,0.3s-0.3,0.4-0.3,0.7c0,0.2,0.1,0.4,0.3,0.6s0.5,0.3,1.1,0.4c0.8,0.2,1.4,0.4,1.8,0.7
		s0.6,0.7,0.6,1.2c0,0.6-0.2,1-0.7,1.4s-1,0.5-1.8,0.5c-0.8,0-1.4-0.2-1.9-0.6s-0.7-0.9-0.7-1.4l0,0h1.1c0,0.4,0.2,0.7,0.5,0.9
		c0.3,0.2,0.6,0.3,1,0.3c0.4,0,0.7-0.1,1-0.2S77.3,372.8,77.3,372.5z"/>
	<path fill="#979695" d="M82.6,371c0-0.9,0.3-1.7,0.8-2.3s1.2-0.9,2.1-0.9c0.9,0,1.6,0.3,2.1,0.9s0.8,1.4,0.8,2.3v0.1
		c0,0.9-0.3,1.7-0.8,2.3s-1.2,0.9-2.1,0.9s-1.6-0.3-2.1-0.9s-0.8-1.4-0.8-2.3V371z M83.8,371.1c0,0.7,0.1,1.2,0.4,1.7
		c0.3,0.4,0.7,0.7,1.3,0.7c0.6,0,1-0.2,1.3-0.7c0.3-0.4,0.4-1,0.4-1.7V371c0-0.7-0.1-1.2-0.4-1.7c-0.3-0.4-0.7-0.7-1.3-0.7
		c-0.6,0-1,0.2-1.3,0.7c-0.3,0.4-0.4,1-0.4,1.7V371.1z"/>
	<path fill="#979695" d="M90.2,374.2v-5.5h-1v-0.9h1V367c0-0.7,0.2-1.2,0.5-1.6s0.8-0.6,1.5-0.6c0.1,0,0.3,0,0.4,0s0.3,0.1,0.4,0.1
		l-0.1,0.9c-0.1,0-0.2,0-0.3,0s-0.2,0-0.3,0c-0.3,0-0.6,0.1-0.8,0.3s-0.2,0.5-0.2,0.9v0.8h1.3v0.9h-1.3v5.5H90.2z"/>
	<path fill="#979695" d="M51.8,385.9L51.8,385.9c0,0.8-0.3,1.5-0.8,2s-1.3,0.8-2.3,0.8c-1,0-1.8-0.3-2.4-1s-0.9-1.6-0.9-2.6v-1.5
		c0-1.1,0.3-1.9,0.9-2.6s1.4-1,2.4-1s1.7,0.3,2.3,0.8s0.8,1.2,0.8,2l0,0h-1.1c0-0.6-0.2-1.1-0.5-1.4s-0.8-0.5-1.5-0.5
		c-0.6,0-1.2,0.3-1.5,0.8c-0.4,0.5-0.6,1.2-0.6,1.9v1.5c0,0.8,0.2,1.4,0.6,1.9c0.4,0.5,0.9,0.8,1.5,0.8c0.6,0,1.1-0.2,1.5-0.5
		s0.5-0.8,0.5-1.4H51.8z"/>
	<path fill="#979695" d="M56.1,383.3l-0.6,0c-0.3,0-0.6,0.1-0.8,0.2s-0.4,0.3-0.5,0.6v4.5h-1.2v-6.3h1l0.1,0.9
		c0.2-0.3,0.4-0.6,0.7-0.8s0.6-0.3,0.9-0.3c0.1,0,0.2,0,0.2,0s0.1,0,0.2,0L56.1,383.3z"/>
	<path fill="#979695" d="M59.8,388.7c-0.9,0-1.6-0.3-2.1-0.9s-0.8-1.4-0.8-2.3v-0.3c0-0.9,0.3-1.7,0.8-2.3s1.2-0.9,1.9-0.9
		c0.9,0,1.5,0.3,1.9,0.8s0.7,1.2,0.7,2.1v0.7h-4.1l0,0c0,0.6,0.2,1.1,0.5,1.5s0.7,0.6,1.2,0.6c0.4,0,0.7-0.1,1-0.2s0.5-0.3,0.8-0.5
		l0.5,0.8c-0.2,0.2-0.5,0.4-0.9,0.6C60.8,388.6,60.3,388.7,59.8,388.7z M59.6,383c-0.4,0-0.7,0.2-1,0.5s-0.4,0.7-0.5,1.2l0,0H61
		v-0.2c0-0.5-0.1-0.8-0.4-1.1C60.4,383.2,60.1,383,59.6,383z"/>
	<path fill="#979695" d="M63.2,385.5c0-1,0.2-1.8,0.7-2.5s1-0.9,1.8-0.9c0.4,0,0.7,0.1,1,0.2s0.5,0.3,0.7,0.6v-3.5h1.2v9.1h-0.9
		l-0.1-0.8c-0.2,0.3-0.5,0.5-0.8,0.7s-0.7,0.2-1,0.2c-0.8,0-1.4-0.3-1.8-0.8s-0.7-1.3-0.7-2.2V385.5z M64.4,385.7
		c0,0.6,0.1,1.2,0.4,1.5s0.7,0.6,1.2,0.6c0.3,0,0.6-0.1,0.9-0.2s0.4-0.4,0.6-0.7v-3c-0.1-0.3-0.3-0.5-0.6-0.6s-0.5-0.2-0.9-0.2
		c-0.6,0-1,0.2-1.2,0.7s-0.4,1.1-0.4,1.8V385.7z"/>
	<path fill="#979695" d="M71.6,380.6h-1.2v-1.2h1.2V380.6z M71.6,388.6h-1.2v-6.3h1.2V388.6z"/>
	<path fill="#979695" d="M74.9,380.7v1.5h1.2v0.9h-1.2v3.8c0,0.3,0.1,0.5,0.2,0.6s0.3,0.2,0.5,0.2c0.1,0,0.1,0,0.2,0s0.2,0,0.2-0.1
		l0.2,0.8c-0.1,0.1-0.2,0.1-0.4,0.2s-0.3,0.1-0.5,0.1c-0.5,0-0.8-0.1-1.1-0.4s-0.4-0.7-0.4-1.3v-3.8h-1v-0.9h1v-1.5H74.9z"/>
	<path fill="#979695" d="M77.2,385.4c0-0.9,0.3-1.7,0.8-2.3s1.2-0.9,2.1-0.9c0.9,0,1.6,0.3,2.1,0.9s0.8,1.4,0.8,2.3v0.1
		c0,0.9-0.3,1.7-0.8,2.3s-1.2,0.9-2.1,0.9s-1.6-0.3-2.1-0.9s-0.8-1.4-0.8-2.3V385.4z M78.4,385.5c0,0.7,0.1,1.2,0.4,1.7
		c0.3,0.4,0.7,0.7,1.3,0.7c0.6,0,1-0.2,1.3-0.7c0.3-0.4,0.4-1,0.4-1.7v-0.1c0-0.7-0.1-1.2-0.4-1.7c-0.3-0.4-0.7-0.7-1.3-0.7
		c-0.6,0-1,0.2-1.3,0.7c-0.3,0.4-0.4,1-0.4,1.7V385.5z"/>
	<path fill="#979695" d="M87.3,383.3l-0.6,0c-0.3,0-0.6,0.1-0.8,0.2s-0.4,0.3-0.5,0.6v4.5h-1.2v-6.3h1l0.1,0.9
		c0.2-0.3,0.4-0.6,0.7-0.8s0.6-0.3,0.9-0.3c0.1,0,0.2,0,0.2,0s0.1,0,0.2,0L87.3,383.3z"/>
	<path fill="#979695" d="M92.1,386.9c0-0.3-0.1-0.5-0.3-0.6s-0.6-0.3-1.1-0.4c-0.8-0.2-1.3-0.4-1.7-0.7c-0.4-0.3-0.6-0.7-0.6-1.2
		c0-0.5,0.2-1,0.7-1.3c0.4-0.4,1-0.5,1.7-0.5c0.7,0,1.3,0.2,1.8,0.6s0.6,0.8,0.6,1.4l0,0H92c0-0.3-0.1-0.5-0.3-0.7s-0.5-0.3-0.9-0.3
		c-0.4,0-0.7,0.1-0.9,0.3s-0.3,0.4-0.3,0.7c0,0.2,0.1,0.4,0.3,0.6s0.5,0.3,1.1,0.4c0.8,0.2,1.4,0.4,1.8,0.7s0.6,0.7,0.6,1.2
		c0,0.6-0.2,1-0.7,1.4s-1,0.5-1.8,0.5c-0.8,0-1.4-0.2-1.9-0.6s-0.7-0.9-0.7-1.4l0,0h1.1c0,0.4,0.2,0.7,0.5,0.9
		c0.3,0.2,0.6,0.3,1,0.3c0.4,0,0.7-0.1,1-0.2S92.1,387.2,92.1,386.9z"/>
</g>
<g>
	<path fill="#979695" d="M583.6,374.2v-8.5h2.8c0.9,0,1.6,0.2,2.1,0.6s0.8,1,0.8,1.7c0,0.4-0.1,0.7-0.4,1s-0.6,0.5-1,0.7
		c0.5,0.1,0.9,0.4,1.2,0.8s0.4,0.9,0.4,1.4c0,0.8-0.3,1.4-0.8,1.8s-1.2,0.6-2.1,0.6H583.6z M584.7,369.3h1.9c0.4,0,0.8-0.1,1-0.4
		s0.4-0.6,0.4-1c0-0.5-0.1-0.8-0.4-1s-0.7-0.3-1.3-0.3h-1.6V369.3z M584.7,370.2v3.1h2c0.5,0,0.9-0.1,1.2-0.4
		c0.3-0.3,0.4-0.6,0.4-1.1c0-0.5-0.1-0.9-0.4-1.2c-0.2-0.3-0.6-0.4-1.1-0.4H584.7z"/>
	<path fill="#979695" d="M594.9,374.2c0-0.2-0.1-0.4-0.1-0.5s0-0.3,0-0.4c-0.2,0.3-0.5,0.6-0.8,0.8s-0.7,0.3-1.1,0.3
		c-0.7,0-1.2-0.2-1.5-0.5s-0.5-0.8-0.5-1.4c0-0.6,0.2-1.1,0.7-1.4s1.2-0.5,2-0.5h1.3v-0.6c0-0.4-0.1-0.7-0.3-0.9s-0.5-0.3-1-0.3
		c-0.4,0-0.7,0.1-0.9,0.3s-0.3,0.4-0.3,0.7h-1.1l0,0c0-0.5,0.2-0.9,0.7-1.3s1.1-0.6,1.8-0.6c0.7,0,1.3,0.2,1.7,0.5s0.7,0.9,0.7,1.6
		v3.1c0,0.2,0,0.4,0,0.7s0.1,0.4,0.1,0.6H594.9z M593,373.3c0.4,0,0.8-0.1,1.1-0.3s0.6-0.5,0.7-0.7v-1h-1.3c-0.5,0-0.8,0.1-1.1,0.4
		s-0.4,0.5-0.4,0.8c0,0.3,0.1,0.5,0.3,0.7C592.4,373.3,592.7,373.3,593,373.3z"/>
	<path fill="#979695" d="M598.7,367.8l0.1,0.9c0.2-0.3,0.5-0.6,0.8-0.8s0.7-0.3,1.1-0.3c0.7,0,1.2,0.2,1.6,0.6s0.6,1,0.6,1.9v4h-1.2
		v-4c0-0.6-0.1-1-0.3-1.2s-0.6-0.4-1-0.4c-0.3,0-0.6,0.1-0.9,0.2s-0.5,0.4-0.6,0.7v4.6h-1.2v-6.3H598.7z"/>
	<path fill="#979695" d="M606.4,371.3h-0.8v2.9h-1.2V365h1.2v5.3h0.7l1.7-2.5h1.4l-2.2,2.9l2.5,3.5h-1.4L606.4,371.3z"/>
	<path fill="#979695" d="M614.3,372.5c0-0.3-0.1-0.5-0.3-0.6s-0.6-0.3-1.1-0.4c-0.8-0.2-1.3-0.4-1.7-0.7c-0.4-0.3-0.6-0.7-0.6-1.2
		c0-0.5,0.2-1,0.7-1.3c0.4-0.4,1-0.5,1.7-0.5c0.7,0,1.3,0.2,1.8,0.6s0.6,0.8,0.6,1.4l0,0h-1.1c0-0.3-0.1-0.5-0.3-0.7
		s-0.5-0.3-0.9-0.3c-0.4,0-0.7,0.1-0.9,0.3s-0.3,0.4-0.3,0.7c0,0.2,0.1,0.4,0.3,0.6s0.5,0.3,1.1,0.4c0.8,0.2,1.4,0.4,1.8,0.7
		s0.6,0.7,0.6,1.2c0,0.6-0.2,1-0.7,1.4s-1,0.5-1.8,0.5c-0.8,0-1.4-0.2-1.9-0.6s-0.7-0.9-0.7-1.4l0,0h1.1c0,0.4,0.2,0.7,0.5,0.9
		c0.3,0.2,0.6,0.3,1,0.3c0.4,0,0.7-0.1,1-0.2S614.3,372.8,614.3,372.5z"/>
	<path fill="#979695" d="M619.6,371c0-0.9,0.3-1.7,0.8-2.3s1.2-0.9,2.1-0.9c0.9,0,1.6,0.3,2.1,0.9s0.8,1.4,0.8,2.3v0.1
		c0,0.9-0.3,1.7-0.8,2.3s-1.2,0.9-2.1,0.9s-1.6-0.3-2.1-0.9s-0.8-1.4-0.8-2.3V371z M620.7,371.1c0,0.7,0.1,1.2,0.4,1.7
		c0.3,0.4,0.7,0.7,1.3,0.7c0.6,0,1-0.2,1.3-0.7c0.3-0.4,0.4-1,0.4-1.7V371c0-0.7-0.1-1.2-0.4-1.7c-0.3-0.4-0.7-0.7-1.3-0.7
		c-0.6,0-1,0.2-1.3,0.7c-0.3,0.4-0.4,1-0.4,1.7V371.1z"/>
	<path fill="#979695" d="M627.2,374.2v-5.5h-1v-0.9h1V367c0-0.7,0.2-1.2,0.5-1.6s0.8-0.6,1.5-0.6c0.1,0,0.3,0,0.4,0s0.3,0.1,0.4,0.1
		l-0.1,0.9c-0.1,0-0.2,0-0.3,0s-0.2,0-0.3,0c-0.3,0-0.6,0.1-0.8,0.3s-0.2,0.5-0.2,0.9v0.8h1.3v0.9h-1.3v5.5H627.2z"/>
	<path fill="#979695" d="M579.7,388.6v-8.5h2.8c0.9,0,1.6,0.2,2.1,0.6s0.8,1,0.8,1.7c0,0.4-0.1,0.7-0.4,1s-0.6,0.5-1,0.7
		c0.5,0.1,0.9,0.4,1.2,0.8s0.4,0.9,0.4,1.4c0,0.8-0.3,1.4-0.8,1.8s-1.2,0.6-2.1,0.6H579.7z M580.8,383.7h1.9c0.4,0,0.8-0.1,1-0.4
		s0.4-0.6,0.4-1c0-0.5-0.1-0.8-0.4-1s-0.7-0.3-1.3-0.3h-1.6V383.7z M580.8,384.6v3.1h2c0.5,0,0.9-0.1,1.2-0.4
		c0.3-0.3,0.4-0.6,0.4-1.1c0-0.5-0.1-0.9-0.4-1.2c-0.2-0.3-0.6-0.4-1.1-0.4H580.8z"/>
	<path fill="#979695" d="M586.9,385.4c0-0.9,0.3-1.7,0.8-2.3s1.2-0.9,2.1-0.9c0.9,0,1.6,0.3,2.1,0.9s0.8,1.4,0.8,2.3v0.1
		c0,0.9-0.3,1.7-0.8,2.3s-1.2,0.9-2.1,0.9s-1.6-0.3-2.1-0.9s-0.8-1.4-0.8-2.3V385.4z M588,385.5c0,0.7,0.1,1.2,0.4,1.7
		c0.3,0.4,0.7,0.7,1.3,0.7c0.6,0,1-0.2,1.3-0.7c0.3-0.4,0.4-1,0.4-1.7v-0.1c0-0.7-0.1-1.2-0.4-1.7c-0.3-0.4-0.7-0.7-1.3-0.7
		c-0.6,0-1,0.2-1.3,0.7c-0.3,0.4-0.4,1-0.4,1.7V385.5z"/>
	<path fill="#979695" d="M597,383.3l-0.6,0c-0.3,0-0.6,0.1-0.8,0.2s-0.4,0.3-0.5,0.6v4.5H594v-6.3h1l0.1,0.9
		c0.2-0.3,0.4-0.6,0.7-0.8s0.6-0.3,0.9-0.3c0.1,0,0.2,0,0.2,0s0.1,0,0.2,0L597,383.3z"/>
	<path fill="#979695" d="M601.1,383.3l-0.6,0c-0.3,0-0.6,0.1-0.8,0.2s-0.4,0.3-0.5,0.6v4.5h-1.2v-6.3h1l0.1,0.9
		c0.2-0.3,0.4-0.6,0.7-0.8s0.6-0.3,0.9-0.3c0.1,0,0.2,0,0.2,0s0.1,0,0.2,0L601.1,383.3z"/>
	<path fill="#979695" d="M601.8,385.4c0-0.9,0.3-1.7,0.8-2.3s1.2-0.9,2.1-0.9c0.9,0,1.6,0.3,2.1,0.9s0.8,1.4,0.8,2.3v0.1
		c0,0.9-0.3,1.7-0.8,2.3s-1.2,0.9-2.1,0.9s-1.6-0.3-2.1-0.9s-0.8-1.4-0.8-2.3V385.4z M603,385.5c0,0.7,0.1,1.2,0.4,1.7
		c0.3,0.4,0.7,0.7,1.3,0.7c0.6,0,1-0.2,1.3-0.7c0.3-0.4,0.4-1,0.4-1.7v-0.1c0-0.7-0.1-1.2-0.4-1.7c-0.3-0.4-0.7-0.7-1.3-0.7
		c-0.6,0-1,0.2-1.3,0.7c-0.3,0.4-0.4,1-0.4,1.7V385.5z"/>
	<path fill="#979695" d="M610.5,386.3l0.1,0.8h0l0.2-0.8l1.3-4h0.9l1.3,4l0.2,0.9h0l0.2-0.9l1-4h1.1l-1.8,6.3h-0.9l-1.2-3.9
		l-0.3-1.1l0,0l-0.3,1.1l-1.2,3.9h-0.9l-1.8-6.3h1.1L610.5,386.3z"/>
	<path fill="#979695" d="M620.6,388.7c-0.9,0-1.6-0.3-2.1-0.9s-0.8-1.4-0.8-2.3v-0.3c0-0.9,0.3-1.7,0.8-2.3s1.2-0.9,1.9-0.9
		c0.9,0,1.5,0.3,1.9,0.8s0.7,1.2,0.7,2.1v0.7h-4.1l0,0c0,0.6,0.2,1.1,0.5,1.5s0.7,0.6,1.2,0.6c0.4,0,0.7-0.1,1-0.2s0.5-0.3,0.8-0.5
		l0.5,0.8c-0.2,0.2-0.5,0.4-0.9,0.6C621.6,388.6,621.1,388.7,620.6,388.7z M620.4,383c-0.4,0-0.7,0.2-1,0.5s-0.4,0.7-0.5,1.2l0,0
		h2.9v-0.2c0-0.5-0.1-0.8-0.4-1.1C621.3,383.2,620.9,383,620.4,383z"/>
	<path fill="#979695" d="M627.3,383.3l-0.6,0c-0.3,0-0.6,0.1-0.8,0.2s-0.4,0.3-0.5,0.6v4.5h-1.2v-6.3h1l0.1,0.9
		c0.2-0.3,0.4-0.6,0.7-0.8s0.6-0.3,0.9-0.3c0.1,0,0.2,0,0.2,0s0.1,0,0.2,0L627.3,383.3z"/>
	<path fill="#979695" d="M632.1,386.9c0-0.3-0.1-0.5-0.3-0.6s-0.6-0.3-1.1-0.4c-0.8-0.2-1.3-0.4-1.7-0.7c-0.4-0.3-0.6-0.7-0.6-1.2
		c0-0.5,0.2-1,0.7-1.3c0.4-0.4,1-0.5,1.7-0.5c0.7,0,1.3,0.2,1.8,0.6s0.6,0.8,0.6,1.4l0,0H632c0-0.3-0.1-0.5-0.3-0.7
		s-0.5-0.3-0.9-0.3c-0.4,0-0.7,0.1-0.9,0.3s-0.3,0.4-0.3,0.7c0,0.2,0.1,0.4,0.3,0.6s0.5,0.3,1.1,0.4c0.8,0.2,1.4,0.4,1.8,0.7
		s0.6,0.7,0.6,1.2c0,0.6-0.2,1-0.7,1.4s-1,0.5-1.8,0.5c-0.8,0-1.4-0.2-1.9-0.6s-0.7-0.9-0.7-1.4l0,0h1.1c0,0.4,0.2,0.7,0.5,0.9
		c0.3,0.2,0.6,0.3,1,0.3c0.4,0,0.7-0.1,1-0.2S632.1,387.2,632.1,386.9z"/>
</g>
<g>
	<path fill="#CCCCCC" d="M590.5,218.3l2.7,6.9h0l2.7-6.9h1.5v8.5h-1.2v-3.4l0.1-3.5l0,0l-2.8,6.8h-0.8l-2.8-6.8l0,0l0.1,3.5v3.4
		h-1.2v-8.5H590.5z"/>
	<path fill="#CCCCCC" d="M599.1,223.6c0-0.9,0.3-1.7,0.8-2.3s1.2-0.9,2.1-0.9c0.9,0,1.6,0.3,2.1,0.9s0.8,1.4,0.8,2.3v0.1
		c0,0.9-0.3,1.7-0.8,2.3s-1.2,0.9-2.1,0.9s-1.6-0.3-2.1-0.9s-0.8-1.4-0.8-2.3V223.6z M600.3,223.7c0,0.7,0.1,1.2,0.4,1.7
		c0.3,0.4,0.7,0.7,1.3,0.7c0.6,0,1-0.2,1.3-0.7c0.3-0.4,0.4-1,0.4-1.7v-0.1c0-0.7-0.1-1.2-0.4-1.7c-0.3-0.4-0.7-0.7-1.3-0.7
		c-0.6,0-1,0.2-1.3,0.7c-0.3,0.4-0.4,1-0.4,1.7V223.7z"/>
	<path fill="#CCCCCC" d="M607.2,220.5l0.1,0.9c0.2-0.3,0.5-0.6,0.8-0.8s0.7-0.3,1.1-0.3c0.7,0,1.2,0.2,1.6,0.6s0.6,1,0.6,1.9v4h-1.2
		v-4c0-0.6-0.1-1-0.3-1.2s-0.6-0.4-1-0.4c-0.3,0-0.6,0.1-0.9,0.2s-0.5,0.4-0.6,0.7v4.6h-1.2v-6.3H607.2z"/>
	<path fill="#CCCCCC" d="M615.7,226.9c-0.9,0-1.6-0.3-2.1-0.9s-0.8-1.4-0.8-2.3v-0.3c0-0.9,0.3-1.7,0.8-2.3s1.2-0.9,1.9-0.9
		c0.9,0,1.5,0.3,1.9,0.8s0.7,1.2,0.7,2.1v0.7H614l0,0c0,0.6,0.2,1.1,0.5,1.5s0.7,0.6,1.2,0.6c0.4,0,0.7-0.1,1-0.2s0.5-0.3,0.8-0.5
		l0.5,0.8c-0.2,0.2-0.5,0.4-0.9,0.6C616.6,226.9,616.2,226.9,615.7,226.9z M615.5,221.3c-0.4,0-0.7,0.2-1,0.5s-0.4,0.7-0.5,1.2l0,0
		h2.9v-0.2c0-0.5-0.1-0.8-0.4-1.1C616.3,221.4,616,221.3,615.5,221.3z"/>
	<path fill="#CCCCCC" d="M621.2,224.5l0.2,0.8h0l1.6-4.8h1.3l-2.7,7.3c-0.2,0.4-0.4,0.8-0.7,1.1s-0.7,0.5-1.2,0.5
		c-0.1,0-0.2,0-0.4,0s-0.3,0-0.3-0.1l0.1-0.9c0,0,0,0,0.2,0s0.3,0,0.3,0c0.2,0,0.4-0.1,0.6-0.3s0.3-0.5,0.4-0.7l0.3-0.7l-2.4-6.2
		h1.3L621.2,224.5z"/>
</g>
<g>
	<path fill="#CCCCCC" d="M455.8,312.6l2.7,6.9h0l2.7-6.9h1.5v8.5h-1.2v-3.4l0.1-3.5l0,0l-2.8,6.8h-0.8l-2.8-6.8l0,0l0.1,3.5v3.4
		h-1.2v-8.5H455.8z"/>
	<path fill="#CCCCCC" d="M464.4,317.9c0-0.9,0.3-1.7,0.8-2.3s1.2-0.9,2.1-0.9c0.9,0,1.6,0.3,2.1,0.9s0.8,1.4,0.8,2.3v0.1
		c0,0.9-0.3,1.7-0.8,2.3s-1.2,0.9-2.1,0.9s-1.6-0.3-2.1-0.9s-0.8-1.4-0.8-2.3V317.9z M465.5,318.1c0,0.7,0.1,1.2,0.4,1.7
		c0.3,0.4,0.7,0.7,1.3,0.7c0.6,0,1-0.2,1.3-0.7c0.3-0.4,0.4-1,0.4-1.7v-0.1c0-0.7-0.1-1.2-0.4-1.7c-0.3-0.4-0.7-0.7-1.3-0.7
		c-0.6,0-1,0.2-1.3,0.7c-0.3,0.4-0.4,1-0.4,1.7V318.1z"/>
	<path fill="#CCCCCC" d="M472.5,314.8l0.1,0.9c0.2-0.3,0.5-0.6,0.8-0.8s0.7-0.3,1.1-0.3c0.7,0,1.2,0.2,1.6,0.6s0.6,1,0.6,1.9v4h-1.2
		v-4c0-0.6-0.1-1-0.3-1.2s-0.6-0.4-1-0.4c-0.3,0-0.6,0.1-0.9,0.2s-0.5,0.4-0.6,0.7v4.6h-1.2v-6.3H472.5z"/>
	<path fill="#CCCCCC" d="M480.9,321.3c-0.9,0-1.6-0.3-2.1-0.9s-0.8-1.4-0.8-2.3v-0.3c0-0.9,0.3-1.7,0.8-2.3s1.2-0.9,1.9-0.9
		c0.9,0,1.5,0.3,1.9,0.8s0.7,1.2,0.7,2.1v0.7h-4.1l0,0c0,0.6,0.2,1.1,0.5,1.5s0.7,0.6,1.2,0.6c0.4,0,0.7-0.1,1-0.2s0.5-0.3,0.8-0.5
		l0.5,0.8c-0.2,0.2-0.5,0.4-0.9,0.6C481.9,321.2,481.4,321.3,480.9,321.3z M480.7,315.6c-0.4,0-0.7,0.2-1,0.5s-0.4,0.7-0.5,1.2l0,0
		h2.9v-0.2c0-0.5-0.1-0.8-0.4-1.1C481.6,315.8,481.2,315.6,480.7,315.6z"/>
	<path fill="#CCCCCC" d="M486.5,318.8l0.2,0.8h0l1.6-4.8h1.3l-2.7,7.3c-0.2,0.4-0.4,0.8-0.7,1.1s-0.7,0.5-1.2,0.5
		c-0.1,0-0.2,0-0.4,0s-0.3,0-0.3-0.1l0.1-0.9c0,0,0,0,0.2,0s0.3,0,0.3,0c0.2,0,0.4-0.1,0.6-0.3s0.3-0.5,0.4-0.7l0.3-0.7l-2.4-6.2
		h1.3L486.5,318.8z"/>
</g>
<g>
	<path fill="#CCCCCC" d="M184.4,312.6l2.7,6.9h0l2.7-6.9h1.5v8.5h-1.2v-3.4l0.1-3.5l0,0l-2.8,6.8h-0.8l-2.8-6.8l0,0l0.1,3.5v3.4
		h-1.2v-8.5H184.4z"/>
	<path fill="#CCCCCC" d="M193,317.9c0-0.9,0.3-1.7,0.8-2.3s1.2-0.9,2.1-0.9c0.9,0,1.6,0.3,2.1,0.9s0.8,1.4,0.8,2.3v0.1
		c0,0.9-0.3,1.7-0.8,2.3s-1.2,0.9-2.1,0.9s-1.6-0.3-2.1-0.9s-0.8-1.4-0.8-2.3V317.9z M194.1,318.1c0,0.7,0.1,1.2,0.4,1.7
		c0.3,0.4,0.7,0.7,1.3,0.7c0.6,0,1-0.2,1.3-0.7c0.3-0.4,0.4-1,0.4-1.7v-0.1c0-0.7-0.1-1.2-0.4-1.7c-0.3-0.4-0.7-0.7-1.3-0.7
		c-0.6,0-1,0.2-1.3,0.7c-0.3,0.4-0.4,1-0.4,1.7V318.1z"/>
	<path fill="#CCCCCC" d="M201.1,314.8l0.1,0.9c0.2-0.3,0.5-0.6,0.8-0.8s0.7-0.3,1.1-0.3c0.7,0,1.2,0.2,1.6,0.6s0.6,1,0.6,1.9v4H204
		v-4c0-0.6-0.1-1-0.3-1.2s-0.6-0.4-1-0.4c-0.3,0-0.6,0.1-0.9,0.2s-0.5,0.4-0.6,0.7v4.6h-1.2v-6.3H201.1z"/>
	<path fill="#CCCCCC" d="M209.5,321.3c-0.9,0-1.6-0.3-2.1-0.9s-0.8-1.4-0.8-2.3v-0.3c0-0.9,0.3-1.7,0.8-2.3s1.2-0.9,1.9-0.9
		c0.9,0,1.5,0.3,1.9,0.8s0.7,1.2,0.7,2.1v0.7h-4.1l0,0c0,0.6,0.2,1.1,0.5,1.5s0.7,0.6,1.2,0.6c0.4,0,0.7-0.1,1-0.2s0.5-0.3,0.8-0.5
		l0.5,0.8c-0.2,0.2-0.5,0.4-0.9,0.6C210.5,321.2,210,321.3,209.5,321.3z M209.3,315.6c-0.4,0-0.7,0.2-1,0.5s-0.4,0.7-0.5,1.2l0,0
		h2.9v-0.2c0-0.5-0.1-0.8-0.4-1.1C210.2,315.8,209.8,315.6,209.3,315.6z"/>
	<path fill="#CCCCCC" d="M215.1,318.8l0.2,0.8h0l1.6-4.8h1.3l-2.7,7.3c-0.2,0.4-0.4,0.8-0.7,1.1s-0.7,0.5-1.2,0.5
		c-0.1,0-0.2,0-0.4,0s-0.3,0-0.3-0.1l0.1-0.9c0,0,0,0,0.2,0s0.3,0,0.3,0c0.2,0,0.4-0.1,0.6-0.3s0.3-0.5,0.4-0.7l0.3-0.7l-2.4-6.2
		h1.3L215.1,318.8z"/>
</g>
<g>
	<path fill="#CCCCCC" d="M53.5,218.3l2.7,6.9h0l2.7-6.9h1.5v8.5h-1.2v-3.4l0.1-3.5l0,0l-2.8,6.8h-0.8l-2.8-6.8l0,0l0.1,3.5v3.4H52
		v-8.5H53.5z"/>
	<path fill="#CCCCCC" d="M62.1,223.6c0-0.9,0.3-1.7,0.8-2.3s1.2-0.9,2.1-0.9c0.9,0,1.6,0.3,2.1,0.9s0.8,1.4,0.8,2.3v0.1
		c0,0.9-0.3,1.7-0.8,2.3s-1.2,0.9-2.1,0.9s-1.6-0.3-2.1-0.9s-0.8-1.4-0.8-2.3V223.6z M63.2,223.7c0,0.7,0.1,1.2,0.4,1.7
		c0.3,0.4,0.7,0.7,1.3,0.7c0.6,0,1-0.2,1.3-0.7c0.3-0.4,0.4-1,0.4-1.7v-0.1c0-0.7-0.1-1.2-0.4-1.7c-0.3-0.4-0.7-0.7-1.3-0.7
		c-0.6,0-1,0.2-1.3,0.7c-0.3,0.4-0.4,1-0.4,1.7V223.7z"/>
	<path fill="#CCCCCC" d="M70.2,220.5l0.1,0.9c0.2-0.3,0.5-0.6,0.8-0.8s0.7-0.3,1.1-0.3c0.7,0,1.2,0.2,1.6,0.6s0.6,1,0.6,1.9v4h-1.2
		v-4c0-0.6-0.1-1-0.3-1.2s-0.6-0.4-1-0.4c-0.3,0-0.6,0.1-0.9,0.2s-0.5,0.4-0.6,0.7v4.6h-1.2v-6.3H70.2z"/>
	<path fill="#CCCCCC" d="M78.6,226.9c-0.9,0-1.6-0.3-2.1-0.9s-0.8-1.4-0.8-2.3v-0.3c0-0.9,0.3-1.7,0.8-2.3s1.2-0.9,1.9-0.9
		c0.9,0,1.5,0.3,1.9,0.8s0.7,1.2,0.7,2.1v0.7h-4.1l0,0c0,0.6,0.2,1.1,0.5,1.5s0.7,0.6,1.2,0.6c0.4,0,0.7-0.1,1-0.2s0.5-0.3,0.8-0.5
		l0.5,0.8c-0.2,0.2-0.5,0.4-0.9,0.6C79.6,226.9,79.2,226.9,78.6,226.9z M78.5,221.3c-0.4,0-0.7,0.2-1,0.5S77,222.5,77,223l0,0h2.9
		v-0.2c0-0.5-0.1-0.8-0.4-1.1C79.3,221.4,78.9,221.3,78.5,221.3z"/>
	<path fill="#CCCCCC" d="M84.2,224.5l0.2,0.8h0l1.6-4.8h1.3l-2.7,7.3c-0.2,0.4-0.4,0.8-0.7,1.1s-0.7,0.5-1.2,0.5c-0.1,0-0.2,0-0.4,0
		s-0.3,0-0.3-0.1l0.1-0.9c0,0,0,0,0.2,0s0.3,0,0.3,0c0.2,0,0.4-0.1,0.6-0.3s0.3-0.5,0.4-0.7l0.3-0.7l-2.4-6.2h1.3L84.2,224.5z"/>
</g>
<g>
	<path fill="#979695" d="M313.4,366.6h-2.7v7.6h-1.2v-7.6h-2.7v-0.9h6.6V366.6z"/>
	<path fill="#979695" d="M315.6,368.7c0.2-0.3,0.5-0.5,0.8-0.7s0.7-0.3,1.1-0.3c0.7,0,1.2,0.2,1.6,0.6s0.6,1,0.6,1.9v4h-1.2v-4
		c0-0.5-0.1-0.9-0.3-1.2s-0.6-0.4-1-0.4c-0.3,0-0.6,0.1-0.9,0.2s-0.5,0.4-0.6,0.6v4.7h-1.2V365h1.2V368.7z"/>
	<path fill="#979695" d="M323.9,374.3c-0.9,0-1.6-0.3-2.1-0.9s-0.8-1.4-0.8-2.3v-0.3c0-0.9,0.3-1.7,0.8-2.3s1.2-0.9,1.9-0.9
		c0.9,0,1.5,0.3,1.9,0.8s0.7,1.2,0.7,2.1v0.7h-4.1l0,0c0,0.6,0.2,1.1,0.5,1.5s0.7,0.6,1.2,0.6c0.4,0,0.7-0.1,1-0.2s0.5-0.3,0.8-0.5
		l0.5,0.8c-0.2,0.2-0.5,0.4-0.9,0.6C324.9,374.2,324.4,374.3,323.9,374.3z M323.7,368.6c-0.4,0-0.7,0.2-1,0.5s-0.4,0.7-0.5,1.2l0,0
		h2.9v-0.2c0-0.5-0.1-0.8-0.4-1.1C324.6,368.8,324.2,368.6,323.7,368.6z"/>
	<path fill="#979695" d="M332,374.2h-1.2v-8.5h1.2V374.2z"/>
	<path fill="#979695" d="M337.7,372.5c0-0.3-0.1-0.5-0.3-0.6s-0.6-0.3-1.1-0.4c-0.8-0.2-1.3-0.4-1.7-0.7c-0.4-0.3-0.6-0.7-0.6-1.2
		c0-0.5,0.2-1,0.7-1.3c0.4-0.4,1-0.5,1.7-0.5c0.7,0,1.3,0.2,1.8,0.6s0.6,0.8,0.6,1.4l0,0h-1.1c0-0.3-0.1-0.5-0.3-0.7
		s-0.5-0.3-0.9-0.3c-0.4,0-0.7,0.1-0.9,0.3s-0.3,0.4-0.3,0.7c0,0.2,0.1,0.4,0.3,0.6s0.5,0.3,1.1,0.4c0.8,0.2,1.4,0.4,1.8,0.7
		s0.6,0.7,0.6,1.2c0,0.6-0.2,1-0.7,1.4s-1,0.5-1.8,0.5c-0.8,0-1.4-0.2-1.9-0.6s-0.7-0.9-0.7-1.4l0,0h1.1c0,0.4,0.2,0.7,0.5,0.9
		c0.3,0.2,0.6,0.3,1,0.3c0.4,0,0.7-0.1,1-0.2S337.7,372.8,337.7,372.5z"/>
	<path fill="#979695" d="M344,372.5c0-0.3-0.1-0.5-0.3-0.6s-0.6-0.3-1.1-0.4c-0.8-0.2-1.3-0.4-1.7-0.7c-0.4-0.3-0.6-0.7-0.6-1.2
		c0-0.5,0.2-1,0.7-1.3c0.4-0.4,1-0.5,1.7-0.5c0.7,0,1.3,0.2,1.8,0.6s0.6,0.8,0.6,1.4l0,0h-1.1c0-0.3-0.1-0.5-0.3-0.7
		s-0.5-0.3-0.9-0.3c-0.4,0-0.7,0.1-0.9,0.3s-0.3,0.4-0.3,0.7c0,0.2,0.1,0.4,0.3,0.6s0.5,0.3,1.1,0.4c0.8,0.2,1.4,0.4,1.8,0.7
		s0.6,0.7,0.6,1.2c0,0.6-0.2,1-0.7,1.4s-1,0.5-1.8,0.5c-0.8,0-1.4-0.2-1.9-0.6s-0.7-0.9-0.7-1.4l0,0h1.1c0,0.4,0.2,0.7,0.5,0.9
		c0.3,0.2,0.6,0.3,1,0.3c0.4,0,0.7-0.1,1-0.2S344,372.8,344,372.5z"/>
	<path fill="#979695" d="M350.6,373.2c-0.2,0.3-0.5,0.6-0.8,0.8s-0.7,0.3-1.1,0.3c-0.7,0-1.2-0.2-1.6-0.7s-0.6-1.1-0.6-2.1v-3.7h1.2
		v3.8c0,0.7,0.1,1.1,0.3,1.4s0.5,0.4,0.9,0.4c0.4,0,0.8-0.1,1-0.2s0.5-0.4,0.6-0.7v-4.6h1.2v6.3h-1L350.6,373.2z"/>
	<path fill="#979695" d="M354.6,366.2h-1.2V365h1.2V366.2z M354.6,374.2h-1.2v-6.3h1.2V374.2z"/>
	<path fill="#979695" d="M357.4,367.8l0.1,0.9c0.2-0.3,0.5-0.6,0.8-0.8s0.7-0.3,1.1-0.3c0.7,0,1.2,0.2,1.6,0.6s0.6,1,0.6,1.9v4h-1.2
		v-4c0-0.6-0.1-1-0.3-1.2s-0.6-0.4-1-0.4c-0.3,0-0.6,0.1-0.9,0.2s-0.5,0.4-0.6,0.7v4.6h-1.2v-6.3H357.4z"/>
	<path fill="#979695" d="M363,371.1c0-1,0.2-1.8,0.7-2.5s1.1-0.9,1.8-0.9c0.4,0,0.8,0.1,1.1,0.2s0.6,0.4,0.8,0.7l0.1-0.8h0.9v6.4
		c0,0.8-0.2,1.4-0.7,1.9s-1.2,0.7-2,0.7c-0.3,0-0.6,0-1-0.1s-0.7-0.2-0.9-0.3l0.3-0.9c0.2,0.1,0.5,0.2,0.8,0.3s0.6,0.1,0.9,0.1
		c0.6,0,1-0.1,1.2-0.4s0.4-0.6,0.4-1.2v-0.7c-0.2,0.3-0.5,0.5-0.7,0.6s-0.6,0.2-1,0.2c-0.8,0-1.4-0.3-1.8-0.8s-0.7-1.3-0.7-2.2
		V371.1z M364.1,371.3c0,0.6,0.1,1.1,0.4,1.5s0.7,0.6,1.2,0.6c0.3,0,0.6-0.1,0.9-0.2s0.4-0.4,0.6-0.7v-2.9c-0.1-0.3-0.3-0.5-0.6-0.6
		s-0.5-0.2-0.9-0.2c-0.6,0-1,0.2-1.2,0.7s-0.4,1.1-0.4,1.8V371.3z"/>
	<path fill="#979695" d="M325.3,388.6v-8.5h2.8c0.9,0,1.6,0.2,2.1,0.6s0.8,1,0.8,1.7c0,0.4-0.1,0.7-0.4,1s-0.6,0.5-1,0.7
		c0.5,0.1,0.9,0.4,1.2,0.8s0.4,0.9,0.4,1.4c0,0.8-0.3,1.4-0.8,1.8s-1.2,0.6-2.1,0.6H325.3z M326.5,383.7h1.9c0.4,0,0.8-0.1,1-0.4
		s0.4-0.6,0.4-1c0-0.5-0.1-0.8-0.4-1s-0.7-0.3-1.3-0.3h-1.6V383.7z M326.5,384.6v3.1h2c0.5,0,0.9-0.1,1.2-0.4
		c0.3-0.3,0.4-0.6,0.4-1.1c0-0.5-0.1-0.9-0.4-1.2c-0.2-0.3-0.6-0.4-1.1-0.4H326.5z"/>
	<path fill="#979695" d="M336.7,388.6c0-0.2-0.1-0.4-0.1-0.5s0-0.3,0-0.4c-0.2,0.3-0.5,0.6-0.8,0.8s-0.7,0.3-1.1,0.3
		c-0.7,0-1.2-0.2-1.5-0.5s-0.5-0.8-0.5-1.4c0-0.6,0.2-1.1,0.7-1.4s1.2-0.5,2-0.5h1.3v-0.6c0-0.4-0.1-0.7-0.3-0.9s-0.5-0.3-1-0.3
		c-0.4,0-0.7,0.1-0.9,0.3s-0.3,0.4-0.3,0.7h-1.1l0,0c0-0.5,0.2-0.9,0.7-1.3s1.1-0.6,1.8-0.6c0.7,0,1.3,0.2,1.7,0.5s0.7,0.9,0.7,1.6
		v3.1c0,0.2,0,0.4,0,0.7s0.1,0.4,0.1,0.6H336.7z M334.8,387.7c0.4,0,0.8-0.1,1.1-0.3s0.6-0.5,0.7-0.7v-1h-1.3
		c-0.5,0-0.8,0.1-1.1,0.4s-0.4,0.5-0.4,0.8c0,0.3,0.1,0.5,0.3,0.7C334.2,387.7,334.4,387.7,334.8,387.7z"/>
	<path fill="#979695" d="M340.4,382.2l0.1,0.9c0.2-0.3,0.5-0.6,0.8-0.8s0.7-0.3,1.1-0.3c0.7,0,1.2,0.2,1.6,0.6s0.6,1,0.6,1.9v4h-1.2
		v-4c0-0.6-0.1-1-0.3-1.2s-0.6-0.4-1-0.4c-0.3,0-0.6,0.1-0.9,0.2s-0.5,0.4-0.6,0.7v4.6h-1.2v-6.3H340.4z"/>
	<path fill="#979695" d="M348.1,385.7h-0.8v2.9h-1.2v-9.1h1.2v5.3h0.7l1.7-2.5h1.4l-2.2,2.9l2.5,3.5h-1.4L348.1,385.7z"/>
</g>
<g>
	<rect x="455" y="77.6" fill="#FFFFFF" width="74" height="12.1"/>
</g>
<g>
	<path fill="#00CC66" d="M464.7,85.6h-3.6l-0.8,2.2h-1.2l3.3-8.5h1l3.2,8.5h-1.2L464.7,85.6z M461.5,84.6h2.9l-1.4-3.9h0L461.5,84.6
		z"/>
	<path fill="#00CC66" d="M473,84.9c0,0.9-0.2,1.7-0.7,2.2s-1,0.8-1.8,0.8c-0.4,0-0.7-0.1-1-0.2s-0.5-0.3-0.8-0.6v3.1h-1.2v-8.8h0.9
		l0.2,0.8c0.2-0.3,0.5-0.5,0.8-0.7s0.7-0.2,1.1-0.2c0.8,0,1.4,0.3,1.8,0.9s0.7,1.4,0.7,2.5V84.9z M471.9,84.8c0-0.7-0.1-1.3-0.4-1.8
		s-0.7-0.7-1.3-0.7c-0.3,0-0.6,0.1-0.8,0.2c-0.2,0.2-0.4,0.4-0.6,0.6v3.1c0.1,0.3,0.3,0.5,0.6,0.6c0.2,0.1,0.5,0.2,0.9,0.2
		c0.5,0,1-0.2,1.2-0.6c0.3-0.4,0.4-0.9,0.4-1.5V84.8z"/>
	<path fill="#00CC66" d="M479.9,84.9c0,0.9-0.2,1.7-0.7,2.2s-1,0.8-1.8,0.8c-0.4,0-0.7-0.1-1-0.2s-0.5-0.3-0.8-0.6v3.1h-1.2v-8.8
		h0.9l0.2,0.8c0.2-0.3,0.5-0.5,0.8-0.7s0.7-0.2,1.1-0.2c0.8,0,1.4,0.3,1.8,0.9s0.7,1.4,0.7,2.5V84.9z M478.7,84.8
		c0-0.7-0.1-1.3-0.4-1.8s-0.7-0.7-1.3-0.7c-0.3,0-0.6,0.1-0.8,0.2c-0.2,0.2-0.4,0.4-0.6,0.6v3.1c0.1,0.3,0.3,0.5,0.6,0.6
		c0.2,0.1,0.5,0.2,0.9,0.2c0.5,0,1-0.2,1.2-0.6c0.3-0.4,0.4-0.9,0.4-1.5V84.8z"/>
	<path fill="#00CC66" d="M482.5,87.8h-1.2v-9.1h1.2V87.8z"/>
	<path fill="#00CC66" d="M485.6,79.8h-1.2v-1.2h1.2V79.8z M485.6,87.8h-1.2v-6.3h1.2V87.8z"/>
	<path fill="#00CC66" d="M489.9,87c0.4,0,0.7-0.1,1-0.4s0.4-0.5,0.4-0.9h1l0,0c0,0.5-0.2,1-0.7,1.5s-1.1,0.6-1.8,0.6
		c-0.9,0-1.6-0.3-2.1-0.9s-0.7-1.4-0.7-2.3v-0.2c0-0.9,0.2-1.7,0.7-2.3s1.2-0.9,2.1-0.9c0.7,0,1.3,0.2,1.8,0.7s0.7,1,0.7,1.6l0,0h-1
		c0-0.4-0.1-0.7-0.4-1s-0.6-0.4-1-0.4c-0.6,0-1,0.2-1.3,0.7c-0.3,0.4-0.4,1-0.4,1.6v0.2c0,0.6,0.1,1.2,0.4,1.6S489.3,87,489.9,87z"
		/>
	<path fill="#00CC66" d="M497.6,87.8c0-0.2-0.1-0.4-0.1-0.5s0-0.3,0-0.4c-0.2,0.3-0.5,0.6-0.8,0.8s-0.7,0.3-1.1,0.3
		c-0.7,0-1.2-0.2-1.5-0.5s-0.5-0.8-0.5-1.4c0-0.6,0.2-1.1,0.7-1.4s1.2-0.5,2-0.5h1.3v-0.6c0-0.4-0.1-0.7-0.3-0.9s-0.5-0.3-1-0.3
		c-0.4,0-0.7,0.1-0.9,0.3s-0.3,0.4-0.3,0.7h-1.1l0,0c0-0.5,0.2-0.9,0.7-1.3s1.1-0.6,1.8-0.6c0.7,0,1.3,0.2,1.7,0.5s0.7,0.9,0.7,1.6
		v3.1c0,0.2,0,0.4,0,0.7s0.1,0.4,0.1,0.6H497.6z M495.7,87c0.4,0,0.8-0.1,1.1-0.3s0.6-0.5,0.7-0.7v-1h-1.3c-0.5,0-0.8,0.1-1.1,0.4
		s-0.4,0.5-0.4,0.8c0,0.3,0.1,0.5,0.3,0.7C495.1,86.9,495.3,87,495.7,87z"/>
	<path fill="#00CC66" d="M501.8,79.9v1.5h1.2v0.9h-1.2v3.8c0,0.3,0.1,0.5,0.2,0.6s0.3,0.2,0.5,0.2c0.1,0,0.1,0,0.2,0s0.2,0,0.2-0.1
		l0.2,0.8c-0.1,0.1-0.2,0.1-0.4,0.2s-0.3,0.1-0.5,0.1c-0.5,0-0.8-0.1-1.1-0.4s-0.4-0.7-0.4-1.3v-3.8h-1v-0.9h1v-1.5H501.8z"/>
	<path fill="#00CC66" d="M505.7,79.8h-1.2v-1.2h1.2V79.8z M505.7,87.8h-1.2v-6.3h1.2V87.8z"/>
	<path fill="#00CC66" d="M507.2,84.6c0-0.9,0.3-1.7,0.8-2.3s1.2-0.9,2.1-0.9c0.9,0,1.6,0.3,2.1,0.9s0.8,1.4,0.8,2.3v0.1
		c0,0.9-0.3,1.7-0.8,2.3s-1.2,0.9-2.1,0.9s-1.6-0.3-2.1-0.9s-0.8-1.4-0.8-2.3V84.6z M508.4,84.7c0,0.7,0.1,1.2,0.4,1.7
		s0.7,0.7,1.3,0.7c0.6,0,1-0.2,1.3-0.7s0.4-1,0.4-1.7v-0.1c0-0.7-0.1-1.2-0.4-1.7c-0.3-0.4-0.7-0.7-1.3-0.7c-0.6,0-1,0.2-1.3,0.7
		c-0.3,0.4-0.4,1-0.4,1.7V84.7z"/>
	<path fill="#00CC66" d="M515.3,81.5l0.1,0.9c0.2-0.3,0.5-0.6,0.8-0.8s0.7-0.3,1.1-0.3c0.7,0,1.2,0.2,1.6,0.6s0.6,1,0.6,1.9v4h-1.2
		v-4c0-0.6-0.1-1-0.3-1.2s-0.6-0.4-1-0.4c-0.3,0-0.6,0.1-0.9,0.2s-0.5,0.4-0.6,0.7v4.6h-1.2v-6.3H515.3z"/>
	<path fill="#00CC66" d="M524.8,86.1c0-0.3-0.1-0.5-0.3-0.6s-0.6-0.3-1.1-0.4c-0.8-0.2-1.3-0.4-1.7-0.7s-0.6-0.7-0.6-1.2
		c0-0.5,0.2-1,0.7-1.3s1-0.5,1.7-0.5c0.7,0,1.3,0.2,1.8,0.6s0.6,0.8,0.6,1.4l0,0h-1.1c0-0.3-0.1-0.5-0.3-0.7s-0.5-0.3-0.9-0.3
		c-0.4,0-0.7,0.1-0.9,0.3s-0.3,0.4-0.3,0.7c0,0.2,0.1,0.4,0.3,0.6s0.5,0.3,1.1,0.4c0.8,0.2,1.4,0.4,1.8,0.7s0.6,0.7,0.6,1.2
		c0,0.6-0.2,1-0.7,1.4s-1,0.5-1.8,0.5c-0.8,0-1.4-0.2-1.9-0.6s-0.7-0.9-0.7-1.4l0,0h1.1c0,0.4,0.2,0.7,0.5,0.9s0.6,0.3,1,0.3
		c0.4,0,0.7-0.1,1-0.2S524.8,86.4,524.8,86.1z"/>
</g>
</svg>
