<?xml version="1.0" encoding="utf-8"?>
<!-- Generator: Adobe Illustrator 18.1.0, SVG Export Plug-In . SVG Version: 6.00 Build 0)  -->
<svg version="1.1" id="Layer_1" xmlns="http://www.w3.org/2000/svg" xmlns:xlink="http://www.w3.org/1999/xlink" x="0px" y="0px"
	 viewBox="0 0 690 420" enable-background="new 0 0 690 420" xml:space="preserve">
<polygon fill="#006699" points="25.6,43.8 83,25.4 83,122.6 25.6,122.6 "/>
<g>
	<rect x="29.1" y="99.9" fill="#FFFFFF" width="10.8" height="10.8"/>
	<rect x="42.5" y="99.9" fill="#FFFFFF" width="10.8" height="10.8"/>
	<rect x="55.9" y="99.9" fill="#FFFFFF" width="10.8" height="10.8"/>
	<rect x="69.3" y="99.9" fill="#FFFFFF" width="10.8" height="10.8"/>
	<rect x="29.1" y="86.7" fill="#FFFFFF" width="10.8" height="10.8"/>
	<rect x="42.5" y="86.7" fill="#FFFFFF" width="10.8" height="10.8"/>
	<rect x="55.9" y="86.7" fill="#FFFFFF" width="10.8" height="10.8"/>
	<rect x="69.3" y="86.7" fill="#FFFFFF" width="10.8" height="10.8"/>
	<rect x="29.1" y="73.5" fill="#FFFFFF" width="10.8" height="10.8"/>
	<rect x="42.5" y="73.5" fill="#FFFFFF" width="10.8" height="10.8"/>
	<rect x="55.9" y="73.5" fill="#FFFFFF" width="10.8" height="10.8"/>
	<rect x="69.3" y="73.5" fill="#FFFFFF" width="10.8" height="10.8"/>
	<rect x="29.1" y="60.2" fill="#FFFFFF" width="10.8" height="10.8"/>
	<rect x="42.5" y="60.2" fill="#FFFFFF" width="10.8" height="10.8"/>
	<rect x="55.9" y="60.2" fill="#FFFFFF" width="10.8" height="10.8"/>
	<rect x="69.3" y="60.2" fill="#FFFFFF" width="10.8" height="10.8"/>
	<rect x="29.1" y="46.9" fill="#FFFFFF" width="10.8" height="10.8"/>
	<rect x="42.5" y="46.9" fill="#FFFFFF" width="10.8" height="10.8"/>
	<rect x="55.9" y="46.9" fill="#FFFFFF" width="10.8" height="10.8"/>
	<rect x="69.3" y="46.9" fill="#FFFFFF" width="10.8" height="10.8"/>
	<rect x="69.3" y="33.6" fill="#FFFFFF" width="10.8" height="10.8"/>
</g>
<rect x="71.9" y="50.9" fill="#00B6FF" width="55.2" height="71.6"/>
<rect x="79.3" y="95.6" fill="#FFFFFF" width="40.5" height="6.3"/>
<rect x="79.3" y="83.6" fill="#FFFFFF" width="40.5" height="6.3"/>
<rect x="79.3" y="71.5" fill="#FFFFFF" width="40.5" height="6.3"/>
<rect x="79.3" y="59.5" fill="#FFFFFF" width="40.5" height="6.3"/>
<rect x="93.1" y="106.8" fill="#FFFFFF" width="12.8" height="14.4"/>
<polygon fill="#00CC66" points="557.9,43.8 615.3,25.4 615.3,122.6 557.9,122.6 "/>
<g>
	<rect x="561.4" y="99.9" fill="#FFFFFF" width="10.8" height="10.8"/>
	<rect x="574.8" y="99.9" fill="#FFFFFF" width="10.8" height="10.8"/>
	<rect x="588.2" y="99.9" fill="#FFFFFF" width="10.8" height="10.8"/>
	<rect x="601.6" y="99.9" fill="#FFFFFF" width="10.8" height="10.8"/>
	<rect x="561.4" y="86.7" fill="#FFFFFF" width="10.8" height="10.8"/>
	<rect x="574.8" y="86.7" fill="#FFFFFF" width="10.8" height="10.8"/>
	<rect x="588.2" y="86.7" fill="#FFFFFF" width="10.8" height="10.8"/>
	<rect x="601.6" y="86.7" fill="#FFFFFF" width="10.8" height="10.8"/>
	<rect x="561.4" y="73.5" fill="#FFFFFF" width="10.8" height="10.8"/>
	<rect x="574.8" y="73.5" fill="#FFFFFF" width="10.8" height="10.8"/>
	<rect x="588.2" y="73.5" fill="#FFFFFF" width="10.8" height="10.8"/>
	<rect x="601.6" y="73.5" fill="#FFFFFF" width="10.8" height="10.8"/>
	<rect x="561.4" y="60.2" fill="#FFFFFF" width="10.8" height="10.8"/>
	<rect x="574.8" y="60.2" fill="#FFFFFF" width="10.8" height="10.8"/>
	<rect x="588.2" y="60.2" fill="#FFFFFF" width="10.8" height="10.8"/>
	<rect x="601.6" y="60.2" fill="#FFFFFF" width="10.8" height="10.8"/>
	<rect x="561.4" y="46.9" fill="#FFFFFF" width="10.8" height="10.8"/>
	<rect x="574.8" y="46.9" fill="#FFFFFF" width="10.8" height="10.8"/>
	<rect x="588.2" y="46.9" fill="#FFFFFF" width="10.8" height="10.8"/>
	<rect x="601.6" y="46.9" fill="#FFFFFF" width="10.8" height="10.8"/>
	<rect x="601.6" y="33.6" fill="#FFFFFF" width="10.8" height="10.8"/>
</g>
<rect x="604.1" y="50.9" fill="#FFC500" width="55.2" height="71.6"/>
<rect x="611.6" y="95.6" fill="#FFFFFF" width="40.5" height="6.3"/>
<rect x="611.6" y="83.6" fill="#FFFFFF" width="40.5" height="6.3"/>
<rect x="611.6" y="71.5" fill="#FFFFFF" width="40.5" height="6.3"/>
<rect x="611.6" y="59.5" fill="#FFFFFF" width="40.5" height="6.3"/>
<rect x="625.4" y="106.8" fill="#FFFFFF" width="12.8" height="14.4"/>
<g>
	<path fill="none" stroke="#808080" stroke-miterlimit="10" d="M361.1,348.1h-46.6c-3.9,0-7-3.2-7-7v-46.6c0-3.9,3.2-7,7-7h46.6
		c3.9,0,7,3.2,7,7V341C368.1,344.9,365,348.1,361.1,348.1z"/>
	<path fill="none" stroke="#808080" stroke-miterlimit="10" d="M358.9,342.8h-42.2c-2.2,0-3.9-1.8-3.9-3.9v-42.2
		c0-2.2,1.8-3.9,3.9-3.9h42.2c2.2,0,3.9,1.8,3.9,3.9v42.2C362.8,341,361.1,342.8,358.9,342.8z"/>
	<circle fill="none" stroke="#808080" stroke-width="5" stroke-miterlimit="10" cx="328.6" cy="317.7" r="6.6"/>
	<path fill="#FFFFFF" stroke="#808080" stroke-miterlimit="10" d="M363,309.7h-0.3c-0.9,0-1.6-0.7-1.6-1.6v-6.7
		c0-0.9,0.7-1.6,1.6-1.6h0.3c0.9,0,1.6,0.7,1.6,1.6v6.7C364.7,308.9,364,309.7,363,309.7z"/>
	<path fill="#FFFFFF" stroke="#808080" stroke-miterlimit="10" d="M363,335h-0.3c-0.9,0-1.6-0.7-1.6-1.6v-6.7c0-0.9,0.7-1.6,1.6-1.6
		h0.3c0.9,0,1.6,0.7,1.6,1.6v6.7C364.7,334.2,364,335,363,335z"/>
</g>
<g>
	<path fill="none" stroke="#808080" stroke-miterlimit="10" d="M629.7,348.1h-46.6c-3.9,0-7-3.2-7-7v-46.6c0-3.9,3.2-7,7-7h46.6
		c3.9,0,7,3.2,7,7V341C636.7,344.9,633.5,348.1,629.7,348.1z"/>
	<path fill="none" stroke="#808080" stroke-miterlimit="10" d="M627.5,342.8h-42.2c-2.2,0-3.9-1.8-3.9-3.9v-42.2
		c0-2.2,1.8-3.9,3.9-3.9h42.2c2.2,0,3.9,1.8,3.9,3.9v42.2C631.4,341,629.7,342.8,627.5,342.8z"/>
	<circle fill="none" stroke="#808080" stroke-width="5" stroke-miterlimit="10" cx="597.2" cy="317.7" r="6.6"/>
	<path fill="#FFFFFF" stroke="#808080" stroke-miterlimit="10" d="M631.6,309.7h-0.3c-0.9,0-1.6-0.7-1.6-1.6v-6.7
		c0-0.9,0.7-1.6,1.6-1.6h0.3c0.9,0,1.6,0.7,1.6,1.6v6.7C633.3,308.9,632.6,309.7,631.6,309.7z"/>
	<path fill="#FFFFFF" stroke="#808080" stroke-miterlimit="10" d="M631.6,335h-0.3c-0.9,0-1.6-0.7-1.6-1.6v-6.7
		c0-0.9,0.7-1.6,1.6-1.6h0.3c0.9,0,1.6,0.7,1.6,1.6v6.7C633.3,334.2,632.6,335,631.6,335z"/>
</g>
<g>
	<path fill="none" stroke="#808080" stroke-miterlimit="10" d="M92.9,348.1H46.3c-3.9,0-7-3.2-7-7v-46.6c0-3.9,3.2-7,7-7h46.6
		c3.9,0,7,3.2,7,7V341C99.9,344.9,96.8,348.1,92.9,348.1z"/>
	<path fill="none" stroke="#808080" stroke-miterlimit="10" d="M90.7,342.8H48.5c-2.2,0-3.9-1.8-3.9-3.9v-42.2
		c0-2.2,1.8-3.9,3.9-3.9h42.2c2.2,0,3.9,1.8,3.9,3.9v42.2C94.6,341,92.9,342.8,90.7,342.8z"/>
	<circle fill="none" stroke="#808080" stroke-width="5" stroke-miterlimit="10" cx="60.4" cy="317.7" r="6.6"/>
	<path fill="#FFFFFF" stroke="#808080" stroke-miterlimit="10" d="M94.8,309.7h-0.3c-0.9,0-1.6-0.7-1.6-1.6v-6.7
		c0-0.9,0.7-1.6,1.6-1.6h0.3c0.9,0,1.6,0.7,1.6,1.6v6.7C96.5,308.9,95.8,309.7,94.8,309.7z"/>
	<path fill="#FFFFFF" stroke="#808080" stroke-miterlimit="10" d="M94.8,335h-0.3c-0.9,0-1.6-0.7-1.6-1.6v-6.7
		c0-0.9,0.7-1.6,1.6-1.6h0.3c0.9,0,1.6,0.7,1.6,1.6v6.7C96.5,334.2,95.8,335,94.8,335z"/>
</g>
<g>
	<g>
		<line fill="none" stroke="#00CC66" stroke-width="2" stroke-miterlimit="10" x1="547.4" y1="84" x2="440.7" y2="84"/>
		<g>
			<polygon fill="#00CC66" points="442.6,81.1 431.7,84 442.6,87 			"/>
		</g>
	</g>
</g>
<g>
	<g>
		<line fill="none" stroke="#0099FF" stroke-width="2" stroke-miterlimit="10" x1="133.3" y1="84.5" x2="236.5" y2="84.5"/>
		<g>
			<polygon fill="#0099FF" points="234.5,87.4 245.5,84.5 234.5,81.5 			"/>
		</g>
	</g>
</g>
<g>
	<g>
		<line fill="none" stroke="#B3B3B3" stroke-miterlimit="10" stroke-dasharray="5,5" x1="69.3" y1="180.4" x2="69.3" y2="265.4"/>
		<g>
			<polygon fill="#B3B3B3" points="67.2,181.7 69.3,174 71.3,181.7 			"/>
		</g>
		<g>
			<polygon fill="#B3B3B3" points="67.2,264 69.3,271.8 71.3,264 			"/>
		</g>
	</g>
</g>
<rect x="44.3" y="215.6" fill="#FFFFFF" width="50.1" height="14.6"/>
<g>
	<g>
		<line fill="none" stroke="#FF0036" stroke-miterlimit="10" stroke-dasharray="5,5" x1="337.8" y1="180.4" x2="337.8" y2="265.4"/>
		<g>
			<polygon fill="#FF0036" points="335.7,181.7 337.8,174 339.9,181.7 			"/>
		</g>
		<g>
			<polygon fill="#FF0036" points="335.7,264 337.8,271.8 339.9,264 			"/>
		</g>
	</g>
</g>
<g>
	<rect x="312.8" y="218.7" fill="#FFFFFF" width="50.1" height="14.6"/>
	<g>
		<path fill="#FF0036" d="M323.8,226.5c0,0.6-0.1,1.2-0.3,1.8s-0.5,1-0.9,1.3l1.6,1.5l-0.9,0.8l-1.9-1.6c-0.2,0.1-0.5,0.2-0.7,0.2
			c-0.3,0-0.5,0.1-0.8,0.1c-1.1,0-2.1-0.4-2.8-1.1c-0.7-0.8-1-1.8-1-2.9v-1.8c0-1.1,0.3-2.2,1-2.9c0.7-0.8,1.6-1.1,2.8-1.1
			c1.1,0,2.1,0.4,2.8,1.1c0.7,0.8,1.1,1.8,1.1,2.9L323.8,226.5L323.8,226.5z M322.5,224.9c0-0.9-0.2-1.6-0.7-2.2
			c-0.5-0.5-1.1-0.8-2-0.8c-0.7,0-1.3,0.3-1.9,0.8c-0.4,0.5-0.7,1.2-0.7,2.2v1.8c0,0.9,0.2,1.6,0.7,2.2c0.4,0.5,1,0.8,1.9,0.8
			s1.4-0.3,2-0.8c0.5-0.5,0.7-1.2,0.7-2.2V224.9z"/>
		<path fill="#FF0036" d="M332.7,220.9v6.5c0,1-0.3,1.9-1,2.4s-1.5,0.8-2.7,0.8c-1,0-2-0.3-2.6-0.8c-0.6-0.5-1-1.3-1-2.4v-6.5h1.3
			v6.5c0,0.7,0.2,1.2,0.6,1.6c0.4,0.4,0.9,0.5,1.6,0.5c0.7,0,1.2-0.2,1.8-0.5c0.4-0.4,0.6-0.9,0.6-1.6v-6.5H332.7z"/>
		<path fill="#FF0036" d="M340,228.1h-4l-0.9,2.5h-1.3l3.7-9.6h1.1l3.6,9.6h-1.3L340,228.1z M336.3,226.9h3.2l-1.5-4.3l0,0
			L336.3,226.9z"/>
		<path fill="#FF0036" d="M350.8,230.5h-1.3l-4.6-7.4l0,0v7.4h-1.3v-9.7h1.3l4.6,7.4l0,0v-7.4h1.3V230.5z"/>
		<path fill="#FF0036" d="M359.4,221.9h-3.1v8.5H355v-8.5h-3.1v-1h7.4v1H359.4z"/>
	</g>
</g>
<g>
	<g>
		<line fill="none" stroke="#B3B3B3" stroke-miterlimit="10" stroke-dasharray="5,5" x1="606.3" y1="180.4" x2="606.3" y2="265.4"/>
		<g>
			<polygon fill="#B3B3B3" points="604.1,181.7 606.3,174 608.4,181.7 			"/>
		</g>
		<g>
			<polygon fill="#B3B3B3" points="604.1,264 606.3,271.8 608.4,264 			"/>
		</g>
	</g>
</g>
<rect x="581.3" y="215.6" fill="#FFFFFF" width="50.1" height="14.6"/>
<g>
	<g>
		<line fill="none" stroke="#B3B3B3" stroke-miterlimit="10" stroke-dasharray="5,5" x1="392.7" y1="317.7" x2="552.1" y2="317.7"/>
		<g>
			<polygon fill="#B3B3B3" points="394.1,319.8 386.3,317.7 394.1,315.6 			"/>
		</g>
		<g>
			<polygon fill="#B3B3B3" points="550.7,319.8 558.5,317.7 550.7,315.6 			"/>
		</g>
	</g>
</g>
<rect x="447.8" y="310.4" fill="#FFFFFF" width="40.9" height="14.6"/>
<g>
	<g>
		<line fill="none" stroke="#B3B3B3" stroke-miterlimit="10" stroke-dasharray="5,5" x1="122.7" y1="317.7" x2="282.1" y2="317.7"/>
		<g>
			<polygon fill="#B3B3B3" points="124.2,319.8 116.4,317.7 124.2,315.6 			"/>
		</g>
		<g>
			<polygon fill="#B3B3B3" points="280.7,319.8 288.5,317.7 280.7,315.6 			"/>
		</g>
	</g>
</g>
<rect x="180.6" y="310.4" fill="#FFFFFF" width="39.2" height="14.6"/>
<circle fill="#FF2250" cx="337.8" cy="84.7" r="81.2"/>
<circle fill="none" stroke="#FF0043" stroke-width="3" stroke-miterlimit="10" cx="337.8" cy="84.7" r="67.2"/>
<path fill="none" stroke="#FFFFFF" stroke-width="2" stroke-miterlimit="10" d="M363.4,96.8c-1.3,4.5-5.6,7.9-10.6,7.9h-28.2
	c-6.1,0-11-4.9-11-11V65.4c0-6.1,4.9-11,11-11h28.2c6.1,0,11,4.9,11,11v24c0,0.9-1,1.4-1.8,0.9l-29.3-19.7c-0.5-0.3-1.1,0-1.1,0.6
	v21.1"/>
<g enable-background="new    ">
	<path fill="#FFFFFF" d="M316.9,125.6h-1.6l-4.2-6.9l0,0v6.9h-1.6v-9.5h1.6l4.2,6.9l0,0v-6.9h1.6V125.6z"/>
	<path fill="#FFFFFF" d="M324.8,121.3h-4.2v3h4.8v1.3H319v-9.5h6.4v1.3h-4.8v2.7h4.2V121.3z"/>
	<path fill="#FFFFFF" d="M333.4,117.4h-2.9v8.2H329v-8.2h-2.9v-1.3h7.3V117.4z"/>
	<path fill="#FFFFFF" d="M341.9,121.7c0,1.2-0.4,2.1-1.1,2.9c-0.7,0.8-1.7,1.1-2.8,1.1c-1.1,0-2.1-0.4-2.8-1.1
		c-0.7-0.8-1.1-1.7-1.1-2.9V120c0-1.2,0.4-2.1,1.1-2.9c0.7-0.8,1.6-1.2,2.8-1.2c1.2,0,2.1,0.4,2.8,1.2c0.7,0.8,1.1,1.7,1.1,2.9
		V121.7z M340.3,120c0-0.8-0.2-1.4-0.6-2c-0.4-0.5-1-0.8-1.7-0.8c-0.7,0-1.2,0.3-1.7,0.8c-0.4,0.5-0.6,1.2-0.6,2v1.7
		c0,0.8,0.2,1.5,0.6,2c0.4,0.5,1,0.8,1.7,0.8c0.7,0,1.3-0.3,1.7-0.8c0.4-0.5,0.6-1.2,0.6-2V120z"/>
	<path fill="#FFFFFF" d="M345.2,122v3.6h-1.6v-9.5h3.7c1,0,1.9,0.3,2.5,0.8c0.6,0.5,0.9,1.3,0.9,2.1c0,0.9-0.3,1.6-0.9,2.1
		c-0.6,0.5-1.4,0.8-2.5,0.8H345.2z M345.2,120.7h2.1c0.6,0,1-0.2,1.3-0.5c0.3-0.3,0.4-0.7,0.4-1.2s-0.1-0.9-0.4-1.2
		c-0.3-0.3-0.7-0.5-1.3-0.5h-2.1V120.7z"/>
	<path fill="#FFFFFF" d="M356.3,123.4h-3.7l-0.8,2.2h-1.6l3.5-9.5h1.5l3.5,9.5H357L356.3,123.4z M353,122.1h2.8l-1.4-4.1h0
		L353,122.1z"/>
	<path fill="#FFFFFF" d="M362.9,120.7l2.3-4.6h1.8l-3.3,6.2v3.3h-1.6v-3.4l-3.2-6.1h1.8L362.9,120.7z"/>
</g>
<g>
	<path fill="#666666" d="M42.5,143.1v-9.2h3c1,0,1.7,0.2,2.3,0.6c0.5,0.4,0.8,1,0.8,1.9c0,0.4-0.1,0.8-0.4,1.1
		c-0.3,0.3-0.6,0.6-1,0.7c0.6,0.1,1,0.4,1.3,0.8c0.3,0.4,0.5,0.9,0.5,1.5c0,0.8-0.3,1.5-0.8,1.9c-0.5,0.4-1.3,0.7-2.2,0.7H42.5z
		 M43.8,137.8h2c0.5,0,0.8-0.1,1.1-0.4c0.3-0.3,0.4-0.6,0.4-1.1c0-0.5-0.2-0.9-0.5-1.1c-0.3-0.2-0.8-0.4-1.4-0.4h-1.8V137.8z
		 M43.8,138.8v3.3H46c0.6,0,1-0.1,1.3-0.4s0.5-0.7,0.5-1.2c0-0.5-0.1-1-0.4-1.3c-0.3-0.3-0.7-0.5-1.2-0.5H43.8z"/>
	<path fill="#666666" d="M50.3,139.6c0-1,0.3-1.9,0.8-2.5c0.6-0.7,1.3-1,2.2-1c1,0,1.7,0.3,2.3,1c0.6,0.7,0.8,1.5,0.8,2.5v0.1
		c0,1-0.3,1.9-0.8,2.5s-1.3,1-2.2,1s-1.7-0.3-2.2-1c-0.6-0.7-0.8-1.5-0.8-2.5V139.6z M52.6,134.9h-1.4v-1.3h1.4V134.9z M51.6,139.7
		c0,0.7,0.2,1.3,0.5,1.8c0.3,0.5,0.8,0.7,1.4,0.7c0.6,0,1-0.2,1.4-0.7s0.5-1.1,0.5-1.8v-0.1c0-0.7-0.2-1.3-0.5-1.8
		c-0.3-0.5-0.8-0.7-1.4-0.7c-0.6,0-1,0.2-1.4,0.7c-0.3,0.5-0.5,1.1-0.5,1.8V139.7z M55.6,134.9h-1.4v-1.3h1.4V134.9z"/>
	<path fill="#666666" d="M61.3,137.3l-0.6,0c-0.3,0-0.6,0.1-0.8,0.2c-0.2,0.2-0.4,0.4-0.5,0.7v4.9H58v-6.9h1.1l0.1,1
		c0.2-0.4,0.4-0.6,0.7-0.8c0.3-0.2,0.6-0.3,1-0.3c0.1,0,0.2,0,0.3,0c0.1,0,0.2,0,0.2,0L61.3,137.3z"/>
	<path fill="#666666" d="M66.5,141.3c0-0.3-0.1-0.5-0.3-0.7c-0.2-0.2-0.6-0.3-1.2-0.5c-0.8-0.2-1.5-0.4-1.9-0.7
		c-0.4-0.3-0.6-0.7-0.6-1.3c0-0.6,0.2-1,0.7-1.4s1.1-0.6,1.9-0.6c0.8,0,1.4,0.2,1.9,0.6c0.5,0.4,0.7,0.9,0.7,1.5l0,0h-1.2
		c0-0.3-0.1-0.6-0.4-0.8c-0.3-0.2-0.6-0.4-1-0.4c-0.4,0-0.8,0.1-1,0.3s-0.3,0.4-0.3,0.7c0,0.3,0.1,0.5,0.3,0.6s0.6,0.3,1.2,0.4
		c0.9,0.2,1.5,0.4,1.9,0.8c0.4,0.3,0.6,0.7,0.6,1.3c0,0.6-0.2,1.1-0.7,1.5c-0.5,0.4-1.1,0.6-1.9,0.6c-0.9,0-1.6-0.2-2.1-0.7
		s-0.7-1-0.7-1.6l0,0h1.2c0,0.4,0.2,0.8,0.5,1s0.7,0.3,1.1,0.3c0.4,0,0.8-0.1,1-0.3C66.3,141.8,66.5,141.6,66.5,141.3z"/>
	<path fill="#666666" d="M72.1,143.2c-1,0-1.7-0.3-2.3-1c-0.6-0.6-0.8-1.5-0.8-2.5v-0.3c0-1,0.3-1.8,0.9-2.4c0.6-0.6,1.3-1,2.1-1
		c0.9,0,1.6,0.3,2.1,0.8s0.7,1.3,0.7,2.2v0.8h-4.5l0,0c0,0.7,0.2,1.2,0.5,1.6c0.3,0.4,0.8,0.6,1.4,0.6c0.4,0,0.8-0.1,1.1-0.2
		c0.3-0.1,0.6-0.3,0.8-0.5l0.5,0.8c-0.2,0.2-0.6,0.4-1,0.6C73.2,143.1,72.7,143.2,72.1,143.2z M71.9,137.1c-0.4,0-0.8,0.2-1.1,0.5
		s-0.5,0.8-0.5,1.3l0,0h3.2v-0.2c0-0.5-0.1-0.9-0.4-1.2C72.8,137.2,72.4,137.1,71.9,137.1z"/>
	<path fill="#666666" d="M79.1,139.8c0-1.1,0.2-2,0.7-2.7c0.5-0.7,1.1-1,2-1c0.4,0,0.8,0.1,1.1,0.2c0.3,0.1,0.6,0.4,0.8,0.6v-3.8
		h1.3v9.9h-1l-0.1-0.8c-0.2,0.3-0.5,0.6-0.8,0.7s-0.7,0.2-1.1,0.2c-0.8,0-1.5-0.3-2-0.9c-0.5-0.6-0.7-1.4-0.7-2.4V139.8z
		 M80.3,139.9c0,0.7,0.1,1.2,0.4,1.7c0.3,0.4,0.7,0.6,1.3,0.6c0.4,0,0.7-0.1,0.9-0.3s0.5-0.4,0.6-0.7V138c-0.2-0.3-0.4-0.5-0.6-0.7
		c-0.3-0.2-0.6-0.3-0.9-0.3c-0.6,0-1,0.2-1.3,0.7c-0.3,0.5-0.4,1.1-0.4,1.9V139.9z"/>
	<path fill="#666666" d="M89.6,143.2c-1,0-1.7-0.3-2.3-1c-0.6-0.6-0.8-1.5-0.8-2.5v-0.3c0-1,0.3-1.8,0.9-2.4c0.6-0.6,1.3-1,2.1-1
		c0.9,0,1.6,0.3,2.1,0.8s0.7,1.3,0.7,2.2v0.8h-4.5l0,0c0,0.7,0.2,1.2,0.5,1.6c0.3,0.4,0.8,0.6,1.4,0.6c0.4,0,0.8-0.1,1.1-0.2
		c0.3-0.1,0.6-0.3,0.8-0.5l0.5,0.8c-0.2,0.2-0.6,0.4-1,0.6C90.7,143.1,90.2,143.2,89.6,143.2z M89.4,137.1c-0.4,0-0.8,0.2-1.1,0.5
		s-0.5,0.8-0.5,1.3l0,0H91v-0.2c0-0.5-0.1-0.9-0.4-1.2C90.3,137.2,89.9,137.1,89.4,137.1z"/>
	<path fill="#666666" d="M96.9,137.3l-0.6,0c-0.3,0-0.6,0.1-0.8,0.2c-0.2,0.2-0.4,0.4-0.5,0.7v4.9h-1.3v-6.9h1.1l0.1,1
		c0.2-0.4,0.4-0.6,0.7-0.8c0.3-0.2,0.6-0.3,1-0.3c0.1,0,0.2,0,0.3,0c0.1,0,0.2,0,0.2,0L96.9,137.3z"/>
	<path fill="#666666" d="M38.9,154.5h-1.1v4.2h-1.3v-9.2h1.3v4.1h1l3.3-4.1h1.4l0,0l-3.6,4.4l3.8,4.7l0,0h-1.5L38.9,154.5z"/>
	<path fill="#666666" d="M47.9,152.9l-0.6,0c-0.3,0-0.6,0.1-0.8,0.2c-0.2,0.2-0.4,0.4-0.5,0.7v4.9h-1.3v-6.9h1.1l0.1,1
		c0.2-0.4,0.4-0.6,0.7-0.8c0.3-0.2,0.6-0.3,1-0.3c0.1,0,0.2,0,0.3,0c0.1,0,0.2,0,0.2,0L47.9,152.9z"/>
	<path fill="#666666" d="M51.9,158.8c-1,0-1.7-0.3-2.3-1c-0.6-0.6-0.8-1.5-0.8-2.5v-0.3c0-1,0.3-1.8,0.9-2.4c0.6-0.6,1.3-1,2.1-1
		c0.9,0,1.6,0.3,2.1,0.8s0.7,1.3,0.7,2.2v0.8H50l0,0c0,0.7,0.2,1.2,0.5,1.6c0.3,0.4,0.8,0.6,1.4,0.6c0.4,0,0.8-0.1,1.1-0.2
		c0.3-0.1,0.6-0.3,0.8-0.5l0.5,0.8c-0.2,0.2-0.6,0.4-1,0.6C52.9,158.7,52.5,158.8,51.9,158.8z M51.7,152.7c-0.4,0-0.8,0.2-1.1,0.5
		s-0.5,0.8-0.5,1.3l0,0h3.2v-0.2c0-0.5-0.1-0.9-0.4-1.2C52.6,152.8,52.2,152.7,51.7,152.7z"/>
	<path fill="#666666" d="M55.6,155.4c0-1.1,0.2-2,0.7-2.7c0.5-0.7,1.1-1,2-1c0.4,0,0.8,0.1,1.1,0.2c0.3,0.1,0.6,0.4,0.8,0.6v-3.8
		h1.3v9.9h-1l-0.1-0.8c-0.2,0.3-0.5,0.6-0.8,0.7s-0.7,0.2-1.1,0.2c-0.8,0-1.5-0.3-2-0.9c-0.5-0.6-0.7-1.4-0.7-2.4V155.4z
		 M56.9,155.5c0,0.7,0.1,1.2,0.4,1.7c0.3,0.4,0.7,0.6,1.3,0.6c0.4,0,0.7-0.1,0.9-0.3s0.5-0.4,0.6-0.7v-3.2c-0.2-0.3-0.4-0.5-0.6-0.7
		c-0.3-0.2-0.6-0.3-0.9-0.3c-0.6,0-1,0.2-1.3,0.7c-0.3,0.5-0.4,1.1-0.4,1.9V155.5z"/>
	<path fill="#666666" d="M64.6,150.1h-1.3v-1.3h1.3V150.1z M64.6,158.7h-1.3v-6.9h1.3V158.7z"/>
	<path fill="#666666" d="M68.2,150.2v1.7h1.3v0.9h-1.3v4.2c0,0.3,0.1,0.5,0.2,0.7c0.1,0.1,0.3,0.2,0.5,0.2c0.1,0,0.2,0,0.2,0
		c0.1,0,0.2,0,0.2-0.1l0.2,0.9c-0.1,0.1-0.2,0.1-0.4,0.2c-0.2,0-0.4,0.1-0.5,0.1c-0.5,0-0.9-0.2-1.2-0.5c-0.3-0.3-0.5-0.8-0.5-1.4
		v-4.2h-1.1v-0.9H67v-1.7H68.2z"/>
	<path fill="#666666" d="M70.8,155.4c0-1.1,0.2-2,0.7-2.7s1.1-1,2-1c0.4,0,0.8,0.1,1.1,0.3c0.3,0.2,0.6,0.4,0.8,0.8l0.2-0.9h1v6.9
		c0,0.9-0.3,1.6-0.8,2c-0.5,0.5-1.3,0.7-2.2,0.7c-0.3,0-0.7,0-1.1-0.1c-0.4-0.1-0.7-0.2-1-0.4l0.3-1c0.2,0.1,0.5,0.2,0.8,0.3
		c0.3,0.1,0.6,0.1,0.9,0.1c0.6,0,1.1-0.1,1.3-0.4c0.3-0.3,0.4-0.7,0.4-1.3V158c-0.2,0.3-0.5,0.5-0.8,0.7c-0.3,0.1-0.7,0.2-1.1,0.2
		c-0.8,0-1.5-0.3-2-0.9s-0.7-1.4-0.7-2.4V155.4z M72,155.5c0,0.7,0.1,1.2,0.4,1.7s0.7,0.6,1.3,0.6c0.4,0,0.7-0.1,0.9-0.3
		c0.3-0.2,0.5-0.4,0.6-0.7v-3.2c-0.2-0.3-0.4-0.5-0.6-0.7c-0.3-0.2-0.6-0.3-0.9-0.3c-0.6,0-1,0.2-1.3,0.7s-0.4,1.1-0.4,1.9V155.5z"
		/>
	<path fill="#666666" d="M81.3,158.8c-1,0-1.7-0.3-2.3-1c-0.6-0.6-0.8-1.5-0.8-2.5v-0.3c0-1,0.3-1.8,0.9-2.4c0.6-0.6,1.3-1,2.1-1
		c0.9,0,1.6,0.3,2.1,0.8s0.7,1.3,0.7,2.2v0.8h-4.5l0,0c0,0.7,0.2,1.2,0.5,1.6c0.3,0.4,0.8,0.6,1.4,0.6c0.4,0,0.8-0.1,1.1-0.2
		c0.3-0.1,0.6-0.3,0.8-0.5l0.5,0.8c-0.2,0.2-0.6,0.4-1,0.6C82.4,158.7,81.9,158.8,81.3,158.8z M81.1,152.7c-0.4,0-0.8,0.2-1.1,0.5
		s-0.5,0.8-0.5,1.3l0,0h3.2v-0.2c0-0.5-0.1-0.9-0.4-1.2C82,152.8,81.6,152.7,81.1,152.7z"/>
	<path fill="#666666" d="M91.2,155.5c0,1-0.2,1.8-0.7,2.4c-0.5,0.6-1.1,0.9-2,0.9c-0.5,0-0.8-0.1-1.2-0.3c-0.3-0.2-0.6-0.4-0.8-0.8
		l-0.2,0.9h-1v-9.9h1.3v3.8c0.2-0.3,0.5-0.5,0.8-0.7c0.3-0.2,0.7-0.2,1.1-0.2c0.8,0,1.5,0.3,2,1s0.7,1.6,0.7,2.7V155.5z M89.9,155.4
		c0-0.8-0.1-1.4-0.4-1.9c-0.3-0.5-0.7-0.7-1.3-0.7c-0.4,0-0.7,0.1-1,0.3c-0.3,0.2-0.5,0.4-0.6,0.8v3c0.2,0.3,0.4,0.6,0.6,0.8
		c0.3,0.2,0.6,0.3,1,0.3c0.6,0,1-0.2,1.3-0.6s0.4-1,0.4-1.7V155.4z"/>
	<path fill="#666666" d="M95.6,158.8c-1,0-1.7-0.3-2.3-1c-0.6-0.6-0.8-1.5-0.8-2.5v-0.3c0-1,0.3-1.8,0.9-2.4c0.6-0.6,1.3-1,2.1-1
		c0.9,0,1.6,0.3,2.1,0.8s0.7,1.3,0.7,2.2v0.8h-4.5l0,0c0,0.7,0.2,1.2,0.5,1.6c0.3,0.4,0.8,0.6,1.4,0.6c0.4,0,0.8-0.1,1.1-0.2
		c0.3-0.1,0.6-0.3,0.8-0.5L98,158c-0.2,0.2-0.6,0.4-1,0.6C96.6,158.7,96.1,158.8,95.6,158.8z M95.4,152.7c-0.4,0-0.8,0.2-1.1,0.5
		s-0.5,0.8-0.5,1.3l0,0h3.2v-0.2c0-0.5-0.1-0.9-0.4-1.2C96.3,152.8,95.9,152.7,95.4,152.7z"/>
	<path fill="#666666" d="M102.8,152.9l-0.6,0c-0.3,0-0.6,0.1-0.8,0.2c-0.2,0.2-0.4,0.4-0.5,0.7v4.9h-1.3v-6.9h1.1l0.1,1
		c0.2-0.4,0.4-0.6,0.7-0.8c0.3-0.2,0.6-0.3,1-0.3c0.1,0,0.2,0,0.3,0c0.1,0,0.2,0,0.2,0L102.8,152.9z"/>
</g>
<g>
	<path fill="#666666" d="M579.5,143.1v-9.2h3c1,0,1.7,0.2,2.3,0.6c0.5,0.4,0.8,1,0.8,1.9c0,0.4-0.1,0.8-0.4,1.1
		c-0.3,0.3-0.6,0.6-1,0.7c0.6,0.1,1,0.4,1.3,0.8s0.5,0.9,0.5,1.5c0,0.8-0.3,1.5-0.8,1.9c-0.5,0.4-1.3,0.7-2.2,0.7H579.5z
		 M580.8,137.8h2c0.5,0,0.8-0.1,1.1-0.4c0.3-0.3,0.4-0.6,0.4-1.1c0-0.5-0.2-0.9-0.5-1.1c-0.3-0.2-0.8-0.4-1.4-0.4h-1.8V137.8z
		 M580.8,138.8v3.3h2.2c0.6,0,1-0.1,1.3-0.4c0.3-0.3,0.5-0.7,0.5-1.2c0-0.5-0.1-1-0.4-1.3c-0.3-0.3-0.7-0.5-1.2-0.5H580.8z"/>
	<path fill="#666666" d="M587.3,139.6c0-1,0.3-1.9,0.8-2.5c0.5-0.7,1.3-1,2.2-1c1,0,1.7,0.3,2.3,1c0.6,0.7,0.8,1.5,0.8,2.5v0.1
		c0,1-0.3,1.9-0.8,2.5s-1.3,1-2.2,1s-1.7-0.3-2.2-1c-0.6-0.7-0.8-1.5-0.8-2.5V139.6z M589.6,134.9h-1.4v-1.3h1.4V134.9z
		 M588.5,139.7c0,0.7,0.2,1.3,0.5,1.8s0.8,0.7,1.4,0.7c0.6,0,1-0.2,1.4-0.7s0.5-1.1,0.5-1.8v-0.1c0-0.7-0.2-1.3-0.5-1.8
		c-0.3-0.5-0.8-0.7-1.4-0.7c-0.6,0-1,0.2-1.4,0.7s-0.5,1.1-0.5,1.8V139.7z M592.6,134.9h-1.4v-1.3h1.4V134.9z"/>
	<path fill="#666666" d="M598.2,137.3l-0.6,0c-0.3,0-0.6,0.1-0.8,0.2s-0.4,0.4-0.5,0.7v4.9H595v-6.9h1.1l0.1,1
		c0.2-0.4,0.4-0.6,0.7-0.8c0.3-0.2,0.6-0.3,1-0.3c0.1,0,0.2,0,0.3,0c0.1,0,0.2,0,0.2,0L598.2,137.3z"/>
	<path fill="#666666" d="M603.4,141.3c0-0.3-0.1-0.5-0.3-0.7c-0.2-0.2-0.6-0.3-1.2-0.5c-0.8-0.2-1.5-0.4-1.9-0.7s-0.6-0.7-0.6-1.3
		c0-0.6,0.2-1,0.7-1.4c0.5-0.4,1.1-0.6,1.9-0.6c0.8,0,1.4,0.2,1.9,0.6s0.7,0.9,0.7,1.5l0,0h-1.2c0-0.3-0.1-0.6-0.4-0.8
		c-0.3-0.2-0.6-0.4-1-0.4c-0.4,0-0.8,0.1-1,0.3c-0.2,0.2-0.3,0.4-0.3,0.7c0,0.3,0.1,0.5,0.3,0.6c0.2,0.2,0.6,0.3,1.2,0.4
		c0.9,0.2,1.5,0.4,1.9,0.8c0.4,0.3,0.6,0.7,0.6,1.3c0,0.6-0.2,1.1-0.7,1.5s-1.1,0.6-1.9,0.6c-0.9,0-1.6-0.2-2.1-0.7s-0.7-1-0.7-1.6
		l0,0h1.2c0,0.4,0.2,0.8,0.5,1c0.3,0.2,0.7,0.3,1.1,0.3c0.4,0,0.8-0.1,1-0.3C603.3,141.8,603.4,141.6,603.4,141.3z"/>
	<path fill="#666666" d="M609.1,143.2c-1,0-1.7-0.3-2.3-1c-0.6-0.6-0.8-1.5-0.8-2.5v-0.3c0-1,0.3-1.8,0.9-2.4c0.6-0.6,1.3-1,2.1-1
		c0.9,0,1.6,0.3,2.1,0.8c0.5,0.6,0.7,1.3,0.7,2.2v0.8h-4.5l0,0c0,0.7,0.2,1.2,0.5,1.6c0.3,0.4,0.8,0.6,1.4,0.6
		c0.4,0,0.8-0.1,1.1-0.2c0.3-0.1,0.6-0.3,0.8-0.5l0.5,0.8c-0.2,0.2-0.6,0.4-1,0.6C610.1,143.1,609.6,143.2,609.1,143.2z
		 M608.9,137.1c-0.4,0-0.8,0.2-1.1,0.5c-0.3,0.4-0.5,0.8-0.5,1.3l0,0h3.2v-0.2c0-0.5-0.1-0.9-0.4-1.2
		C609.8,137.2,609.4,137.1,608.9,137.1z"/>
	<path fill="#666666" d="M616,139.8c0-1.1,0.2-2,0.7-2.7s1.1-1,2-1c0.4,0,0.8,0.1,1.1,0.2c0.3,0.1,0.6,0.4,0.8,0.6v-3.8h1.2v9.9h-1
		l-0.1-0.8c-0.2,0.3-0.5,0.6-0.8,0.7c-0.3,0.2-0.7,0.2-1.1,0.2c-0.8,0-1.5-0.3-2-0.9c-0.5-0.6-0.7-1.4-0.7-2.4V139.8z M617.3,139.9
		c0,0.7,0.1,1.2,0.4,1.7c0.3,0.4,0.7,0.6,1.3,0.6c0.4,0,0.7-0.1,0.9-0.3s0.5-0.4,0.6-0.7V138c-0.2-0.3-0.4-0.5-0.6-0.7
		c-0.3-0.2-0.6-0.3-0.9-0.3c-0.6,0-1,0.2-1.3,0.7c-0.3,0.5-0.4,1.1-0.4,1.9V139.9z"/>
	<path fill="#666666" d="M626.6,143.2c-1,0-1.7-0.3-2.3-1c-0.6-0.6-0.8-1.5-0.8-2.5v-0.3c0-1,0.3-1.8,0.9-2.4c0.6-0.6,1.3-1,2.1-1
		c0.9,0,1.6,0.3,2.1,0.8c0.5,0.6,0.7,1.3,0.7,2.2v0.8h-4.5l0,0c0,0.7,0.2,1.2,0.5,1.6c0.3,0.4,0.8,0.6,1.4,0.6
		c0.4,0,0.8-0.1,1.1-0.2c0.3-0.1,0.6-0.3,0.8-0.5l0.5,0.8c-0.2,0.2-0.6,0.4-1,0.6C627.6,143.1,627.1,143.2,626.6,143.2z
		 M626.4,137.1c-0.4,0-0.8,0.2-1.1,0.5c-0.3,0.4-0.5,0.8-0.5,1.3l0,0h3.2v-0.2c0-0.5-0.1-0.9-0.4-1.2
		C627.3,137.2,626.9,137.1,626.4,137.1z"/>
	<path fill="#666666" d="M633.8,137.3l-0.6,0c-0.3,0-0.6,0.1-0.8,0.2s-0.4,0.4-0.5,0.7v4.9h-1.2v-6.9h1.1l0.1,1
		c0.2-0.4,0.4-0.6,0.7-0.8c0.3-0.2,0.6-0.3,1-0.3c0.1,0,0.2,0,0.3,0c0.1,0,0.2,0,0.2,0L633.8,137.3z"/>
	<path fill="#666666" d="M570.2,154.5h-1.1v4.2h-1.2v-9.2h1.2v4.1h1l3.3-4.1h1.4l0,0l-3.6,4.4l3.8,4.7l0,0h-1.5L570.2,154.5z"/>
	<path fill="#666666" d="M579.2,152.9l-0.6,0c-0.3,0-0.6,0.1-0.8,0.2s-0.4,0.4-0.5,0.7v4.9H576v-6.9h1.1l0.1,1
		c0.2-0.4,0.4-0.6,0.7-0.8c0.3-0.2,0.6-0.3,1-0.3c0.1,0,0.2,0,0.3,0c0.1,0,0.2,0,0.2,0L579.2,152.9z"/>
	<path fill="#666666" d="M583.2,158.8c-1,0-1.7-0.3-2.3-1c-0.6-0.6-0.8-1.5-0.8-2.5v-0.3c0-1,0.3-1.8,0.9-2.4c0.6-0.6,1.3-1,2.1-1
		c0.9,0,1.6,0.3,2.1,0.8c0.5,0.6,0.7,1.3,0.7,2.2v0.8h-4.5l0,0c0,0.7,0.2,1.2,0.5,1.6c0.3,0.4,0.8,0.6,1.4,0.6
		c0.4,0,0.8-0.1,1.1-0.2c0.3-0.1,0.6-0.3,0.8-0.5l0.5,0.8c-0.2,0.2-0.6,0.4-1,0.6C584.2,158.7,583.7,158.8,583.2,158.8z M583,152.7
		c-0.4,0-0.8,0.2-1.1,0.5c-0.3,0.4-0.5,0.8-0.5,1.3l0,0h3.2v-0.2c0-0.5-0.1-0.9-0.4-1.2C583.9,152.8,583.5,152.7,583,152.7z"/>
	<path fill="#666666" d="M586.9,155.4c0-1.1,0.2-2,0.7-2.7s1.1-1,2-1c0.4,0,0.8,0.1,1.1,0.2c0.3,0.1,0.6,0.4,0.8,0.6v-3.8h1.2v9.9
		h-1l-0.1-0.8c-0.2,0.3-0.5,0.6-0.8,0.7c-0.3,0.2-0.7,0.2-1.1,0.2c-0.8,0-1.5-0.3-2-0.9c-0.5-0.6-0.7-1.4-0.7-2.4V155.4z
		 M588.2,155.5c0,0.7,0.1,1.2,0.4,1.7c0.3,0.4,0.7,0.6,1.3,0.6c0.4,0,0.7-0.1,0.9-0.3s0.5-0.4,0.6-0.7v-3.2
		c-0.2-0.3-0.4-0.5-0.6-0.7c-0.3-0.2-0.6-0.3-0.9-0.3c-0.6,0-1,0.2-1.3,0.7c-0.3,0.5-0.4,1.1-0.4,1.9V155.5z"/>
	<path fill="#666666" d="M595.9,150.1h-1.2v-1.3h1.2V150.1z M595.9,158.7h-1.2v-6.9h1.2V158.7z"/>
	<path fill="#666666" d="M599.5,150.2v1.7h1.3v0.9h-1.3v4.2c0,0.3,0.1,0.5,0.2,0.7c0.1,0.1,0.3,0.2,0.5,0.2c0.1,0,0.2,0,0.2,0
		s0.2,0,0.2-0.1l0.2,0.9c-0.1,0.1-0.2,0.1-0.4,0.2c-0.2,0-0.4,0.1-0.5,0.1c-0.5,0-0.9-0.2-1.2-0.5c-0.3-0.3-0.5-0.8-0.5-1.4v-4.2
		h-1.1v-0.9h1.1v-1.7H599.5z"/>
	<path fill="#666666" d="M603.5,151.8l0.1,1c0.2-0.4,0.5-0.6,0.9-0.8c0.3-0.2,0.7-0.3,1.2-0.3c0.7,0,1.3,0.2,1.7,0.7
		c0.4,0.4,0.6,1.1,0.6,2v4.3h-1.2v-4.3c0-0.6-0.1-1-0.4-1.3s-0.6-0.4-1.1-0.4c-0.4,0-0.7,0.1-1,0.3s-0.5,0.4-0.7,0.7v5h-1.2v-6.9
		H603.5z"/>
	<path fill="#666666" d="M612.6,158.8c-1,0-1.7-0.3-2.3-1c-0.6-0.6-0.8-1.5-0.8-2.5v-0.3c0-1,0.3-1.8,0.9-2.4c0.6-0.6,1.3-1,2.1-1
		c0.9,0,1.6,0.3,2.1,0.8c0.5,0.6,0.7,1.3,0.7,2.2v0.8h-4.5l0,0c0,0.7,0.2,1.2,0.5,1.6c0.3,0.4,0.8,0.6,1.4,0.6
		c0.4,0,0.8-0.1,1.1-0.2c0.3-0.1,0.6-0.3,0.8-0.5l0.5,0.8c-0.2,0.2-0.6,0.4-1,0.6C613.6,158.7,613.2,158.8,612.6,158.8z
		 M612.4,152.7c-0.4,0-0.8,0.2-1.1,0.5c-0.3,0.4-0.5,0.8-0.5,1.3l0,0h3.2v-0.2c0-0.5-0.1-0.9-0.4-1.2
		C613.3,152.8,612.9,152.7,612.4,152.7z"/>
	<path fill="#666666" d="M617.9,152.7c0.2-0.3,0.5-0.6,0.9-0.8c0.3-0.2,0.7-0.3,1.1-0.3c0.7,0,1.3,0.2,1.7,0.7s0.6,1.1,0.6,2v4.3
		H621v-4.3c0-0.6-0.1-1-0.4-1.3s-0.6-0.4-1.1-0.4c-0.3,0-0.7,0.1-0.9,0.2c-0.3,0.2-0.5,0.4-0.7,0.7v5.1h-1.2v-9.9h1.2V152.7z"/>
	<path fill="#666666" d="M625.1,151.8l0.1,0.9c0.2-0.3,0.5-0.6,0.9-0.8c0.3-0.2,0.7-0.3,1.2-0.3s0.8,0.1,1.2,0.3s0.6,0.5,0.7,1
		c0.2-0.4,0.5-0.7,0.9-0.9s0.8-0.3,1.2-0.3c0.7,0,1.3,0.2,1.7,0.7c0.4,0.5,0.6,1.2,0.6,2.2v4.1h-1.3v-4.1c0-0.7-0.1-1.2-0.3-1.4
		c-0.2-0.3-0.6-0.4-1-0.4c-0.4,0-0.8,0.1-1,0.4s-0.4,0.7-0.5,1.1v0.1v4.4h-1.3v-4.1c0-0.6-0.1-1.1-0.4-1.4c-0.2-0.3-0.6-0.4-1-0.4
		c-0.4,0-0.7,0.1-0.9,0.2c-0.2,0.2-0.4,0.4-0.6,0.7v5.1H624v-6.9H625.1z"/>
	<path fill="#666666" d="M638.2,158.8c-1,0-1.7-0.3-2.3-1c-0.6-0.6-0.8-1.5-0.8-2.5v-0.3c0-1,0.3-1.8,0.9-2.4c0.6-0.6,1.3-1,2.1-1
		c0.9,0,1.6,0.3,2.1,0.8c0.5,0.6,0.7,1.3,0.7,2.2v0.8h-4.5l0,0c0,0.7,0.2,1.2,0.5,1.6c0.3,0.4,0.8,0.6,1.4,0.6
		c0.4,0,0.8-0.1,1.1-0.2c0.3-0.1,0.6-0.3,0.8-0.5l0.5,0.8c-0.2,0.2-0.6,0.4-1,0.6C639.3,158.7,638.8,158.8,638.2,158.8z M638,152.7
		c-0.4,0-0.8,0.2-1.1,0.5c-0.3,0.4-0.5,0.8-0.5,1.3l0,0h3.2v-0.2c0-0.5-0.1-0.9-0.4-1.2C638.9,152.8,638.5,152.7,638,152.7z"/>
	<path fill="#666666" d="M645.5,152.9l-0.6,0c-0.3,0-0.6,0.1-0.8,0.2s-0.4,0.4-0.5,0.7v4.9h-1.2v-6.9h1.1l0.1,1
		c0.2-0.4,0.4-0.6,0.7-0.8c0.3-0.2,0.6-0.3,1-0.3c0.1,0,0.2,0,0.3,0c0.1,0,0.2,0,0.2,0L645.5,152.9z"/>
</g>
<g>
	<path fill="#979695" d="M40.1,374.2v-8.5h2.8c0.9,0,1.6,0.2,2.1,0.6s0.8,1,0.8,1.7c0,0.4-0.1,0.7-0.4,1s-0.6,0.5-1,0.7
		c0.5,0.1,0.9,0.4,1.2,0.8s0.4,0.9,0.4,1.4c0,0.8-0.3,1.4-0.8,1.8s-1.2,0.6-2.1,0.6H40.1z M41.2,369.3h1.9c0.4,0,0.8-0.1,1-0.4
		s0.4-0.6,0.4-1c0-0.5-0.1-0.8-0.4-1s-0.7-0.3-1.3-0.3h-1.6V369.3z M41.2,370.2v3.1h2c0.5,0,0.9-0.1,1.2-0.4
		c0.3-0.3,0.4-0.6,0.4-1.1c0-0.5-0.1-0.9-0.4-1.2c-0.2-0.3-0.6-0.4-1.1-0.4H41.2z"/>
	<path fill="#979695" d="M51.4,374.2c0-0.2-0.1-0.4-0.1-0.5s0-0.3,0-0.4c-0.2,0.3-0.5,0.6-0.8,0.8s-0.7,0.3-1.1,0.3
		c-0.7,0-1.2-0.2-1.5-0.5s-0.5-0.8-0.5-1.4c0-0.6,0.2-1.1,0.7-1.4s1.2-0.5,2-0.5h1.3v-0.6c0-0.4-0.1-0.7-0.3-0.9s-0.5-0.3-1-0.3
		c-0.4,0-0.7,0.1-0.9,0.3s-0.3,0.4-0.3,0.7h-1.1l0,0c0-0.5,0.2-0.9,0.7-1.3s1.1-0.6,1.8-0.6c0.7,0,1.3,0.2,1.7,0.5s0.7,0.9,0.7,1.6
		v3.1c0,0.2,0,0.4,0,0.7s0.1,0.4,0.1,0.6H51.4z M49.5,373.3c0.4,0,0.8-0.1,1.1-0.3s0.6-0.5,0.7-0.7v-1H50c-0.5,0-0.8,0.1-1.1,0.4
		s-0.4,0.5-0.4,0.8c0,0.3,0.1,0.5,0.3,0.7C48.9,373.3,49.2,373.3,49.5,373.3z"/>
	<path fill="#979695" d="M55.1,367.8l0.1,0.9c0.2-0.3,0.5-0.6,0.8-0.8s0.7-0.3,1.1-0.3c0.7,0,1.2,0.2,1.6,0.6s0.6,1,0.6,1.9v4h-1.2
		v-4c0-0.6-0.1-1-0.3-1.2s-0.6-0.4-1-0.4c-0.3,0-0.6,0.1-0.9,0.2s-0.5,0.4-0.6,0.7v4.6h-1.2v-6.3H55.1z"/>
	<path fill="#979695" d="M62.8,371.3h-0.8v2.9h-1.2V365h1.2v5.3h0.7l1.7-2.5H66l-2.2,2.9l2.5,3.5h-1.4L62.8,371.3z"/>
	<path fill="#979695" d="M69.6,374.3c-0.9,0-1.6-0.3-2.1-0.9s-0.8-1.4-0.8-2.3v-0.3c0-0.9,0.3-1.7,0.8-2.3s1.2-0.9,1.9-0.9
		c0.9,0,1.5,0.3,1.9,0.8s0.7,1.2,0.7,2.1v0.7h-4.1l0,0c0,0.6,0.2,1.1,0.5,1.5s0.7,0.6,1.2,0.6c0.4,0,0.7-0.1,1-0.2s0.5-0.3,0.8-0.5
		l0.5,0.8c-0.2,0.2-0.5,0.4-0.9,0.6C70.6,374.2,70.1,374.3,69.6,374.3z M69.4,368.6c-0.4,0-0.7,0.2-1,0.5s-0.4,0.7-0.5,1.2l0,0h2.9
		v-0.2c0-0.5-0.1-0.8-0.4-1.1C70.3,368.8,69.9,368.6,69.4,368.6z"/>
	<path fill="#979695" d="M74.3,367.8l0.1,0.9c0.2-0.3,0.5-0.6,0.8-0.8s0.7-0.3,1.1-0.3c0.7,0,1.2,0.2,1.6,0.6s0.6,1,0.6,1.9v4h-1.2
		v-4c0-0.6-0.1-1-0.3-1.2s-0.6-0.4-1-0.4c-0.3,0-0.6,0.1-0.9,0.2s-0.5,0.4-0.6,0.7v4.6h-1.2v-6.3H74.3z"/>
	<path fill="#979695" d="M82.9,371.1c0-1,0.2-1.8,0.7-2.5s1-0.9,1.8-0.9c0.4,0,0.7,0.1,1,0.2s0.5,0.3,0.7,0.6V365h1.2v9.1h-0.9
		l-0.1-0.8c-0.2,0.3-0.5,0.5-0.8,0.7s-0.7,0.2-1,0.2c-0.8,0-1.4-0.3-1.8-0.8s-0.7-1.3-0.7-2.2V371.1z M84,371.3
		c0,0.6,0.1,1.2,0.4,1.5s0.7,0.6,1.2,0.6c0.3,0,0.6-0.1,0.9-0.2s0.4-0.4,0.6-0.7v-3c-0.1-0.3-0.3-0.5-0.6-0.6s-0.5-0.2-0.9-0.2
		c-0.6,0-1,0.2-1.2,0.7s-0.4,1.1-0.4,1.8V371.3z"/>
	<path fill="#979695" d="M92.6,374.3c-0.9,0-1.6-0.3-2.1-0.9s-0.8-1.4-0.8-2.3v-0.3c0-0.9,0.3-1.7,0.8-2.3s1.2-0.9,1.9-0.9
		c0.9,0,1.5,0.3,1.9,0.8s0.7,1.2,0.7,2.1v0.7h-4.1l0,0c0,0.6,0.2,1.1,0.5,1.5s0.7,0.6,1.2,0.6c0.4,0,0.7-0.1,1-0.2s0.5-0.3,0.8-0.5
		l0.5,0.8c-0.2,0.2-0.5,0.4-0.9,0.6C93.5,374.2,93.1,374.3,92.6,374.3z M92.4,368.6c-0.4,0-0.7,0.2-1,0.5s-0.4,0.7-0.5,1.2l0,0h2.9
		v-0.2c0-0.5-0.1-0.8-0.4-1.1C93.2,368.8,92.9,368.6,92.4,368.6z"/>
	<path fill="#979695" d="M99.3,368.9l-0.6,0c-0.3,0-0.6,0.1-0.8,0.2s-0.4,0.3-0.5,0.6v4.5h-1.2v-6.3h1l0.1,0.9
		c0.2-0.3,0.4-0.6,0.7-0.8s0.6-0.3,0.9-0.3c0.1,0,0.2,0,0.2,0s0.1,0,0.2,0L99.3,368.9z"/>
	<path fill="#979695" d="M41.2,384.7h-1v3.8h-1.2v-8.5h1.2v3.8h0.9l3.1-3.8h1.3l0,0l-3.3,4.1l3.6,4.4l0,0h-1.4L41.2,384.7z"/>
	<path fill="#979695" d="M49.6,383.3l-0.6,0c-0.3,0-0.6,0.1-0.8,0.2s-0.4,0.3-0.5,0.6v4.5h-1.2v-6.3h1l0.1,0.9
		c0.2-0.3,0.4-0.6,0.7-0.8s0.6-0.3,0.9-0.3c0.1,0,0.2,0,0.2,0s0.1,0,0.2,0L49.6,383.3z"/>
	<path fill="#979695" d="M53.2,388.7c-0.9,0-1.6-0.3-2.1-0.9s-0.8-1.4-0.8-2.3v-0.3c0-0.9,0.3-1.7,0.8-2.3s1.2-0.9,1.9-0.9
		c0.9,0,1.5,0.3,1.9,0.8s0.7,1.2,0.7,2.1v0.7h-4.1l0,0c0,0.6,0.2,1.1,0.5,1.5s0.7,0.6,1.2,0.6c0.4,0,0.7-0.1,1-0.2s0.5-0.3,0.8-0.5
		l0.5,0.8c-0.2,0.2-0.5,0.4-0.9,0.6C54.2,388.6,53.8,388.7,53.2,388.7z M53,383c-0.4,0-0.7,0.2-1,0.5s-0.4,0.7-0.5,1.2l0,0h2.9v-0.2
		c0-0.5-0.1-0.8-0.4-1.1C53.9,383.2,53.5,383,53,383z"/>
	<path fill="#979695" d="M56.7,385.5c0-1,0.2-1.8,0.7-2.5s1-0.9,1.8-0.9c0.4,0,0.7,0.1,1,0.2s0.5,0.3,0.7,0.6v-3.5H62v9.1h-0.9
		l-0.1-0.8c-0.2,0.3-0.5,0.5-0.8,0.7s-0.7,0.2-1,0.2c-0.8,0-1.4-0.3-1.8-0.8s-0.7-1.3-0.7-2.2V385.5z M57.8,385.7
		c0,0.6,0.1,1.2,0.4,1.5s0.7,0.6,1.2,0.6c0.3,0,0.6-0.1,0.9-0.2s0.4-0.4,0.6-0.7v-3c-0.1-0.3-0.3-0.5-0.6-0.6s-0.5-0.2-0.9-0.2
		c-0.6,0-1,0.2-1.2,0.7s-0.4,1.1-0.4,1.8V385.7z"/>
	<path fill="#979695" d="M65,380.6h-1.2v-1.2H65V380.6z M65,388.6h-1.2v-6.3H65V388.6z"/>
	<path fill="#979695" d="M68.3,380.7v1.5h1.2v0.9h-1.2v3.8c0,0.3,0.1,0.5,0.2,0.6s0.3,0.2,0.5,0.2c0.1,0,0.1,0,0.2,0s0.2,0,0.2-0.1
		l0.2,0.8c-0.1,0.1-0.2,0.1-0.4,0.2s-0.3,0.1-0.5,0.1c-0.5,0-0.8-0.1-1.1-0.4s-0.4-0.7-0.4-1.3v-3.8h-1v-0.9h1v-1.5H68.3z"/>
	<path fill="#979695" d="M70.7,385.5c0-1,0.2-1.8,0.7-2.5s1.1-0.9,1.8-0.9c0.4,0,0.8,0.1,1.1,0.2s0.6,0.4,0.8,0.7l0.1-0.8h0.9v6.4
		c0,0.8-0.2,1.4-0.7,1.9s-1.2,0.7-2,0.7c-0.3,0-0.6,0-1-0.1s-0.7-0.2-0.9-0.3l0.3-0.9c0.2,0.1,0.5,0.2,0.8,0.3s0.6,0.1,0.9,0.1
		c0.6,0,1-0.1,1.2-0.4s0.4-0.6,0.4-1.2v-0.7c-0.2,0.3-0.5,0.5-0.7,0.6s-0.6,0.2-1,0.2c-0.8,0-1.4-0.3-1.8-0.8s-0.7-1.3-0.7-2.2
		V385.5z M71.8,385.7c0,0.6,0.1,1.1,0.4,1.5s0.7,0.6,1.2,0.6c0.3,0,0.6-0.1,0.9-0.2s0.4-0.4,0.6-0.7v-2.9c-0.1-0.3-0.3-0.5-0.6-0.6
		s-0.5-0.2-0.9-0.2c-0.6,0-1,0.2-1.2,0.7s-0.4,1.1-0.4,1.8V385.7z"/>
	<path fill="#979695" d="M80.4,388.7c-0.9,0-1.6-0.3-2.1-0.9s-0.8-1.4-0.8-2.3v-0.3c0-0.9,0.3-1.7,0.8-2.3s1.2-0.9,1.9-0.9
		c0.9,0,1.5,0.3,1.9,0.8s0.7,1.2,0.7,2.1v0.7h-4.1l0,0c0,0.6,0.2,1.1,0.5,1.5s0.7,0.6,1.2,0.6c0.4,0,0.7-0.1,1-0.2s0.5-0.3,0.8-0.5
		l0.5,0.8c-0.2,0.2-0.5,0.4-0.9,0.6C81.4,388.6,80.9,388.7,80.4,388.7z M80.2,383c-0.4,0-0.7,0.2-1,0.5s-0.4,0.7-0.5,1.2l0,0h2.9
		v-0.2c0-0.5-0.1-0.8-0.4-1.1C81,383.2,80.7,383,80.2,383z"/>
	<path fill="#979695" d="M89.5,385.7c0,0.9-0.2,1.7-0.7,2.2s-1,0.8-1.8,0.8c-0.4,0-0.8-0.1-1.1-0.2s-0.6-0.4-0.8-0.7l-0.1,0.8h-0.9
		v-9.1h1.2v3.6c0.2-0.3,0.4-0.5,0.7-0.6s0.6-0.2,1-0.2c0.8,0,1.4,0.3,1.8,0.9s0.7,1.4,0.7,2.5V385.7z M88.4,385.5
		c0-0.7-0.1-1.3-0.4-1.8s-0.7-0.7-1.2-0.7c-0.4,0-0.7,0.1-0.9,0.3s-0.4,0.4-0.6,0.7v2.7c0.1,0.3,0.3,0.6,0.6,0.7s0.5,0.3,0.9,0.3
		c0.5,0,0.9-0.2,1.2-0.6s0.4-0.9,0.4-1.5V385.5z"/>
	<path fill="#979695" d="M93.5,388.7c-0.9,0-1.6-0.3-2.1-0.9s-0.8-1.4-0.8-2.3v-0.3c0-0.9,0.3-1.7,0.8-2.3s1.2-0.9,1.9-0.9
		c0.9,0,1.5,0.3,1.9,0.8s0.7,1.2,0.7,2.1v0.7h-4.1l0,0c0,0.6,0.2,1.1,0.5,1.5s0.7,0.6,1.2,0.6c0.4,0,0.7-0.1,1-0.2s0.5-0.3,0.8-0.5
		l0.5,0.8c-0.2,0.2-0.5,0.4-0.9,0.6C94.5,388.6,94.1,388.7,93.5,388.7z M93.4,383c-0.4,0-0.7,0.2-1,0.5s-0.4,0.7-0.5,1.2l0,0h2.9
		v-0.2c0-0.5-0.1-0.8-0.4-1.1C94.2,383.2,93.8,383,93.4,383z"/>
	<path fill="#979695" d="M100.3,383.3l-0.6,0c-0.3,0-0.6,0.1-0.8,0.2s-0.4,0.3-0.5,0.6v4.5h-1.2v-6.3h1l0.1,0.9
		c0.2-0.3,0.4-0.6,0.7-0.8s0.6-0.3,0.9-0.3c0.1,0,0.2,0,0.2,0s0.1,0,0.2,0L100.3,383.3z"/>
</g>
<g>
	<path fill="#979695" d="M577,374.2v-8.5h2.8c0.9,0,1.6,0.2,2.1,0.6s0.8,1,0.8,1.7c0,0.4-0.1,0.7-0.4,1s-0.6,0.5-1,0.7
		c0.5,0.1,0.9,0.4,1.2,0.8s0.4,0.9,0.4,1.4c0,0.8-0.3,1.4-0.8,1.8s-1.2,0.6-2.1,0.6H577z M578.2,369.3h1.9c0.4,0,0.8-0.1,1-0.4
		s0.4-0.6,0.4-1c0-0.5-0.1-0.8-0.4-1s-0.7-0.3-1.3-0.3h-1.6V369.3z M578.2,370.2v3.1h2c0.5,0,0.9-0.1,1.2-0.4
		c0.3-0.3,0.4-0.6,0.4-1.1c0-0.5-0.1-0.9-0.4-1.2c-0.2-0.3-0.6-0.4-1.1-0.4H578.2z"/>
	<path fill="#979695" d="M588.4,374.2c0-0.2-0.1-0.4-0.1-0.5s0-0.3,0-0.4c-0.2,0.3-0.5,0.6-0.8,0.8s-0.7,0.3-1.1,0.3
		c-0.7,0-1.2-0.2-1.5-0.5s-0.5-0.8-0.5-1.4c0-0.6,0.2-1.1,0.7-1.4s1.2-0.5,2-0.5h1.3v-0.6c0-0.4-0.1-0.7-0.3-0.9s-0.5-0.3-1-0.3
		c-0.4,0-0.7,0.1-0.9,0.3s-0.3,0.4-0.3,0.7h-1.1l0,0c0-0.5,0.2-0.9,0.7-1.3s1.1-0.6,1.8-0.6c0.7,0,1.3,0.2,1.7,0.5s0.7,0.9,0.7,1.6
		v3.1c0,0.2,0,0.4,0,0.7s0.1,0.4,0.1,0.6H588.4z M586.5,373.3c0.4,0,0.8-0.1,1.1-0.3s0.6-0.5,0.7-0.7v-1H587c-0.5,0-0.8,0.1-1.1,0.4
		s-0.4,0.5-0.4,0.8c0,0.3,0.1,0.5,0.3,0.7C585.9,373.3,586.1,373.3,586.5,373.3z"/>
	<path fill="#979695" d="M592.1,367.8l0.1,0.9c0.2-0.3,0.5-0.6,0.8-0.8s0.7-0.3,1.1-0.3c0.7,0,1.2,0.2,1.6,0.6s0.6,1,0.6,1.9v4h-1.2
		v-4c0-0.6-0.1-1-0.3-1.2s-0.6-0.4-1-0.4c-0.3,0-0.6,0.1-0.9,0.2s-0.5,0.4-0.6,0.7v4.6h-1.2v-6.3H592.1z"/>
	<path fill="#979695" d="M599.8,371.3h-0.8v2.9h-1.2V365h1.2v5.3h0.7l1.7-2.5h1.4l-2.2,2.9l2.5,3.5h-1.4L599.8,371.3z"/>
	<path fill="#979695" d="M606.6,374.3c-0.9,0-1.6-0.3-2.1-0.9s-0.8-1.4-0.8-2.3v-0.3c0-0.9,0.3-1.7,0.8-2.3s1.2-0.9,1.9-0.9
		c0.9,0,1.5,0.3,1.9,0.8s0.7,1.2,0.7,2.1v0.7h-4.1l0,0c0,0.6,0.2,1.1,0.5,1.5s0.7,0.6,1.2,0.6c0.4,0,0.7-0.1,1-0.2s0.5-0.3,0.8-0.5
		l0.5,0.8c-0.2,0.2-0.5,0.4-0.9,0.6C607.5,374.2,607.1,374.3,606.6,374.3z M606.4,368.6c-0.4,0-0.7,0.2-1,0.5s-0.4,0.7-0.5,1.2l0,0
		h2.9v-0.2c0-0.5-0.1-0.8-0.4-1.1C607.2,368.8,606.9,368.6,606.4,368.6z"/>
	<path fill="#979695" d="M611.3,367.8l0.1,0.9c0.2-0.3,0.5-0.6,0.8-0.8s0.7-0.3,1.1-0.3c0.7,0,1.2,0.2,1.6,0.6s0.6,1,0.6,1.9v4h-1.2
		v-4c0-0.6-0.1-1-0.3-1.2s-0.6-0.4-1-0.4c-0.3,0-0.6,0.1-0.9,0.2s-0.5,0.4-0.6,0.7v4.6h-1.2v-6.3H611.3z"/>
	<path fill="#979695" d="M619.8,371.1c0-1,0.2-1.8,0.7-2.5s1-0.9,1.8-0.9c0.4,0,0.7,0.1,1,0.2s0.5,0.3,0.7,0.6V365h1.2v9.1h-0.9
		l-0.1-0.8c-0.2,0.3-0.5,0.5-0.8,0.7s-0.7,0.2-1,0.2c-0.8,0-1.4-0.3-1.8-0.8s-0.7-1.3-0.7-2.2V371.1z M621,371.3
		c0,0.6,0.1,1.2,0.4,1.5s0.7,0.6,1.2,0.6c0.3,0,0.6-0.1,0.9-0.2s0.4-0.4,0.6-0.7v-3c-0.1-0.3-0.3-0.5-0.6-0.6s-0.5-0.2-0.9-0.2
		c-0.6,0-1,0.2-1.2,0.7s-0.4,1.1-0.4,1.8V371.3z"/>
	<path fill="#979695" d="M629.5,374.3c-0.9,0-1.6-0.3-2.1-0.9s-0.8-1.4-0.8-2.3v-0.3c0-0.9,0.3-1.7,0.8-2.3s1.2-0.9,1.9-0.9
		c0.9,0,1.5,0.3,1.9,0.8s0.7,1.2,0.7,2.1v0.7h-4.1l0,0c0,0.6,0.2,1.1,0.5,1.5s0.7,0.6,1.2,0.6c0.4,0,0.7-0.1,1-0.2s0.5-0.3,0.8-0.5
		l0.5,0.8c-0.2,0.2-0.5,0.4-0.9,0.6C630.5,374.2,630.1,374.3,629.5,374.3z M629.4,368.6c-0.4,0-0.7,0.2-1,0.5s-0.4,0.7-0.5,1.2l0,0
		h2.9v-0.2c0-0.5-0.1-0.8-0.4-1.1C630.2,368.8,629.8,368.6,629.4,368.6z"/>
	<path fill="#979695" d="M636.2,368.9l-0.6,0c-0.3,0-0.6,0.1-0.8,0.2s-0.4,0.3-0.5,0.6v4.5h-1.2v-6.3h1l0.1,0.9
		c0.2-0.3,0.4-0.6,0.7-0.8s0.6-0.3,0.9-0.3c0.1,0,0.2,0,0.2,0s0.1,0,0.2,0L636.2,368.9z"/>
	<path fill="#979695" d="M573,384.7h-1v3.8h-1.2v-8.5h1.2v3.8h0.9l3.1-3.8h1.3l0,0l-3.3,4.1l3.6,4.4l0,0H576L573,384.7z"/>
	<path fill="#979695" d="M581.3,383.3l-0.6,0c-0.3,0-0.6,0.1-0.8,0.2s-0.4,0.3-0.5,0.6v4.5h-1.2v-6.3h1l0.1,0.9
		c0.2-0.3,0.4-0.6,0.7-0.8s0.6-0.3,0.9-0.3c0.1,0,0.2,0,0.2,0s0.1,0,0.2,0L581.3,383.3z"/>
	<path fill="#979695" d="M584.9,388.7c-0.9,0-1.6-0.3-2.1-0.9s-0.8-1.4-0.8-2.3v-0.3c0-0.9,0.3-1.7,0.8-2.3s1.2-0.9,1.9-0.9
		c0.9,0,1.5,0.3,1.9,0.8s0.7,1.2,0.7,2.1v0.7h-4.1l0,0c0,0.6,0.2,1.1,0.5,1.5s0.7,0.6,1.2,0.6c0.4,0,0.7-0.1,1-0.2s0.5-0.3,0.8-0.5
		l0.5,0.8c-0.2,0.2-0.5,0.4-0.9,0.6C585.9,388.6,585.5,388.7,584.9,388.7z M584.8,383c-0.4,0-0.7,0.2-1,0.5s-0.4,0.7-0.5,1.2l0,0
		h2.9v-0.2c0-0.5-0.1-0.8-0.4-1.1C585.6,383.2,585.2,383,584.8,383z"/>
	<path fill="#979695" d="M588.4,385.5c0-1,0.2-1.8,0.7-2.5s1-0.9,1.8-0.9c0.4,0,0.7,0.1,1,0.2s0.5,0.3,0.7,0.6v-3.5h1.2v9.1h-0.9
		l-0.1-0.8c-0.2,0.3-0.5,0.5-0.8,0.7s-0.7,0.2-1,0.2c-0.8,0-1.4-0.3-1.8-0.8s-0.7-1.3-0.7-2.2V385.5z M589.5,385.7
		c0,0.6,0.1,1.2,0.4,1.5s0.7,0.6,1.2,0.6c0.3,0,0.6-0.1,0.9-0.2s0.4-0.4,0.6-0.7v-3c-0.1-0.3-0.3-0.5-0.6-0.6s-0.5-0.2-0.9-0.2
		c-0.6,0-1,0.2-1.2,0.7s-0.4,1.1-0.4,1.8V385.7z"/>
	<path fill="#979695" d="M596.7,380.6h-1.2v-1.2h1.2V380.6z M596.7,388.6h-1.2v-6.3h1.2V388.6z"/>
	<path fill="#979695" d="M600,380.7v1.5h1.2v0.9H600v3.8c0,0.3,0.1,0.5,0.2,0.6s0.3,0.2,0.5,0.2c0.1,0,0.1,0,0.2,0s0.2,0,0.2-0.1
		l0.2,0.8c-0.1,0.1-0.2,0.1-0.4,0.2s-0.3,0.1-0.5,0.1c-0.5,0-0.8-0.1-1.1-0.4s-0.4-0.7-0.4-1.3v-3.8h-1v-0.9h1v-1.5H600z"/>
	<path fill="#979695" d="M603.7,382.2l0.1,0.9c0.2-0.3,0.5-0.6,0.8-0.8s0.7-0.3,1.1-0.3c0.7,0,1.2,0.2,1.6,0.6s0.6,1,0.6,1.9v4h-1.2
		v-4c0-0.6-0.1-1-0.3-1.2s-0.6-0.4-1-0.4c-0.3,0-0.6,0.1-0.9,0.2s-0.5,0.4-0.6,0.7v4.6h-1.2v-6.3H603.7z"/>
	<path fill="#979695" d="M612.1,388.7c-0.9,0-1.6-0.3-2.1-0.9s-0.8-1.4-0.8-2.3v-0.3c0-0.9,0.3-1.7,0.8-2.3s1.2-0.9,1.9-0.9
		c0.9,0,1.5,0.3,1.9,0.8s0.7,1.2,0.7,2.1v0.7h-4.1l0,0c0,0.6,0.2,1.1,0.5,1.5s0.7,0.6,1.2,0.6c0.4,0,0.7-0.1,1-0.2s0.5-0.3,0.8-0.5
		l0.5,0.8c-0.2,0.2-0.5,0.4-0.9,0.6C613.1,388.6,612.6,388.7,612.1,388.7z M611.9,383c-0.4,0-0.7,0.2-1,0.5s-0.4,0.7-0.5,1.2l0,0
		h2.9v-0.2c0-0.5-0.1-0.8-0.4-1.1C612.8,383.2,612.4,383,611.9,383z"/>
	<path fill="#979695" d="M617,383.1c0.2-0.3,0.5-0.5,0.8-0.7s0.7-0.3,1.1-0.3c0.7,0,1.2,0.2,1.6,0.6s0.6,1,0.6,1.9v4h-1.2v-4
		c0-0.5-0.1-0.9-0.3-1.2s-0.6-0.4-1-0.4c-0.3,0-0.6,0.1-0.9,0.2s-0.5,0.4-0.6,0.6v4.7h-1.2v-9.1h1.2V383.1z"/>
	<path fill="#979695" d="M623.7,382.2l0.1,0.8c0.2-0.3,0.5-0.5,0.8-0.7s0.7-0.2,1.1-0.2s0.8,0.1,1.1,0.3s0.5,0.5,0.7,0.9
		c0.2-0.4,0.5-0.6,0.8-0.9s0.7-0.3,1.1-0.3c0.6,0,1.2,0.2,1.5,0.7s0.6,1.1,0.6,2v3.8h-1.2v-3.8c0-0.6-0.1-1.1-0.3-1.3
		s-0.5-0.4-1-0.4c-0.4,0-0.7,0.1-1,0.4s-0.4,0.6-0.4,1v0v4h-1.2v-3.8c0-0.6-0.1-1-0.3-1.3s-0.5-0.4-1-0.4c-0.4,0-0.6,0.1-0.9,0.2
		s-0.4,0.3-0.5,0.6v4.7h-1.2v-6.3H623.7z"/>
	<path fill="#979695" d="M635.8,388.7c-0.9,0-1.6-0.3-2.1-0.9s-0.8-1.4-0.8-2.3v-0.3c0-0.9,0.3-1.7,0.8-2.3s1.2-0.9,1.9-0.9
		c0.9,0,1.5,0.3,1.9,0.8s0.7,1.2,0.7,2.1v0.7h-4.1l0,0c0,0.6,0.2,1.1,0.5,1.5s0.7,0.6,1.2,0.6c0.4,0,0.7-0.1,1-0.2s0.5-0.3,0.8-0.5
		l0.5,0.8c-0.2,0.2-0.5,0.4-0.9,0.6C636.7,388.6,636.3,388.7,635.8,388.7z M635.6,383c-0.4,0-0.7,0.2-1,0.5s-0.4,0.7-0.5,1.2l0,0
		h2.9v-0.2c0-0.5-0.1-0.8-0.4-1.1C636.4,383.2,636.1,383,635.6,383z"/>
	<path fill="#979695" d="M642.5,383.3l-0.6,0c-0.3,0-0.6,0.1-0.8,0.2s-0.4,0.3-0.5,0.6v4.5h-1.2v-6.3h1l0.1,0.9
		c0.2-0.3,0.4-0.6,0.7-0.8s0.6-0.3,0.9-0.3c0.1,0,0.2,0,0.2,0s0.1,0,0.2,0L642.5,383.3z"/>
</g>
<g>
	<path fill="#CCCCCC" d="M601.3,225.7c-0.2,0.3-0.6,0.6-1.1,0.9s-1.2,0.4-1.9,0.4c-1,0-1.9-0.3-2.5-1s-1-1.5-1-2.5v-1.8
		c0-1,0.3-1.9,0.9-2.5s1.4-1,2.4-1c1,0,1.7,0.2,2.3,0.7s0.8,1.1,0.9,1.9l0,0h-1.1c0-0.5-0.2-0.9-0.6-1.2s-0.8-0.5-1.5-0.5
		c-0.7,0-1.2,0.2-1.6,0.7c-0.4,0.5-0.6,1.1-0.6,1.9v1.8c0,0.8,0.2,1.4,0.7,1.9c0.4,0.5,1,0.7,1.7,0.7c0.5,0,0.9-0.1,1.2-0.2
		c0.3-0.1,0.5-0.3,0.7-0.4v-1.9h-1.9v-0.9h3V225.7z"/>
	<path fill="#CCCCCC" d="M605.7,226.9c-0.9,0-1.6-0.3-2.1-0.9s-0.8-1.4-0.8-2.3v-0.3c0-0.9,0.3-1.7,0.8-2.3s1.2-0.9,1.9-0.9
		c0.9,0,1.5,0.3,1.9,0.8s0.7,1.2,0.7,2.1v0.7H604l0,0c0,0.6,0.2,1.1,0.5,1.5s0.7,0.6,1.2,0.6c0.4,0,0.7-0.1,1-0.2s0.5-0.3,0.8-0.5
		l0.5,0.8c-0.2,0.2-0.5,0.4-0.9,0.6C606.7,226.9,606.2,226.9,605.7,226.9z M605.5,221.3c-0.4,0-0.7,0.2-1,0.5s-0.4,0.7-0.5,1.2l0,0
		h2.9v-0.2c0-0.5-0.1-0.8-0.4-1.1C606.4,221.4,606,221.3,605.5,221.3z"/>
	<path fill="#CCCCCC" d="M610.7,226.8h-1.2v-9.1h1.2V226.8z"/>
	<path fill="#CCCCCC" d="M612.2,223.8c0-1,0.2-1.8,0.7-2.5s1-0.9,1.8-0.9c0.4,0,0.7,0.1,1,0.2s0.5,0.3,0.7,0.6v-3.5h1.2v9.1h-0.9
		l-0.1-0.8c-0.2,0.3-0.5,0.5-0.8,0.7s-0.7,0.2-1,0.2c-0.8,0-1.4-0.3-1.8-0.8s-0.7-1.3-0.7-2.2V223.8z M613.3,223.9
		c0,0.6,0.1,1.2,0.4,1.5s0.7,0.6,1.2,0.6c0.3,0,0.6-0.1,0.9-0.2s0.4-0.4,0.6-0.7v-3c-0.1-0.3-0.3-0.5-0.6-0.6s-0.5-0.2-0.9-0.2
		c-0.6,0-1,0.2-1.2,0.7s-0.4,1.1-0.4,1.8V223.9z"/>
</g>
<g>
	<path fill="#CCCCCC" d="M466.6,320c-0.2,0.3-0.6,0.6-1.1,0.9s-1.2,0.4-1.9,0.4c-1,0-1.9-0.3-2.5-1s-1-1.5-1-2.5V316
		c0-1,0.3-1.9,0.9-2.5s1.4-1,2.4-1c1,0,1.7,0.2,2.3,0.7s0.8,1.1,0.9,1.9l0,0h-1.1c0-0.5-0.2-0.9-0.6-1.2s-0.8-0.5-1.5-0.5
		c-0.7,0-1.2,0.2-1.6,0.7c-0.4,0.5-0.6,1.1-0.6,1.9v1.8c0,0.8,0.2,1.4,0.7,1.9c0.4,0.5,1,0.7,1.7,0.7c0.5,0,0.9-0.1,1.2-0.2
		c0.3-0.1,0.5-0.3,0.7-0.4v-1.9h-1.9v-0.9h3V320z"/>
	<path fill="#CCCCCC" d="M471,321.3c-0.9,0-1.6-0.3-2.1-0.9s-0.8-1.4-0.8-2.3v-0.3c0-0.9,0.3-1.7,0.8-2.3s1.2-0.9,1.9-0.9
		c0.9,0,1.5,0.3,1.9,0.8s0.7,1.2,0.7,2.1v0.7h-4.1l0,0c0,0.6,0.2,1.1,0.5,1.5s0.7,0.6,1.2,0.6c0.4,0,0.7-0.1,1-0.2s0.5-0.3,0.8-0.5
		l0.5,0.8c-0.2,0.2-0.5,0.4-0.9,0.6C472,321.2,471.5,321.3,471,321.3z M470.8,315.6c-0.4,0-0.7,0.2-1,0.5s-0.4,0.7-0.5,1.2l0,0h2.9
		v-0.2c0-0.5-0.1-0.8-0.4-1.1C471.6,315.8,471.3,315.6,470.8,315.6z"/>
	<path fill="#CCCCCC" d="M475.9,321.2h-1.2V312h1.2V321.2z"/>
	<path fill="#CCCCCC" d="M477.5,318.1c0-1,0.2-1.8,0.7-2.5s1-0.9,1.8-0.9c0.4,0,0.7,0.1,1,0.2s0.5,0.3,0.7,0.6V312h1.2v9.1h-0.9
		l-0.1-0.8c-0.2,0.3-0.5,0.5-0.8,0.7s-0.7,0.2-1,0.2c-0.8,0-1.4-0.3-1.8-0.8s-0.7-1.3-0.7-2.2V318.1z M478.6,318.2
		c0,0.6,0.1,1.2,0.4,1.5s0.7,0.6,1.2,0.6c0.3,0,0.6-0.1,0.9-0.2s0.4-0.4,0.6-0.7v-3c-0.1-0.3-0.3-0.5-0.6-0.6s-0.5-0.2-0.9-0.2
		c-0.6,0-1,0.2-1.2,0.7s-0.4,1.1-0.4,1.8V318.2z"/>
</g>
<g>
	<path fill="#CCCCCC" d="M195.2,320c-0.2,0.3-0.6,0.6-1.1,0.9s-1.2,0.4-1.9,0.4c-1,0-1.9-0.3-2.5-1s-1-1.5-1-2.5V316
		c0-1,0.3-1.9,0.9-2.5s1.4-1,2.4-1c1,0,1.7,0.2,2.3,0.7s0.8,1.1,0.9,1.9l0,0H194c0-0.5-0.2-0.9-0.6-1.2s-0.8-0.5-1.5-0.5
		c-0.7,0-1.2,0.2-1.6,0.7c-0.4,0.5-0.6,1.1-0.6,1.9v1.8c0,0.8,0.2,1.4,0.7,1.9c0.4,0.5,1,0.7,1.7,0.7c0.5,0,0.9-0.1,1.2-0.2
		c0.3-0.1,0.5-0.3,0.7-0.4v-1.9h-1.9v-0.9h3V320z"/>
	<path fill="#CCCCCC" d="M199.6,321.3c-0.9,0-1.6-0.3-2.1-0.9s-0.8-1.4-0.8-2.3v-0.3c0-0.9,0.3-1.7,0.8-2.3s1.2-0.9,1.9-0.9
		c0.9,0,1.5,0.3,1.9,0.8s0.7,1.2,0.7,2.1v0.7h-4.1l0,0c0,0.6,0.2,1.1,0.5,1.5s0.7,0.6,1.2,0.6c0.4,0,0.7-0.1,1-0.2s0.5-0.3,0.8-0.5
		l0.5,0.8c-0.2,0.2-0.5,0.4-0.9,0.6C200.5,321.2,200.1,321.3,199.6,321.3z M199.4,315.6c-0.4,0-0.7,0.2-1,0.5s-0.4,0.7-0.5,1.2l0,0
		h2.9v-0.2c0-0.5-0.1-0.8-0.4-1.1C200.2,315.8,199.9,315.6,199.4,315.6z"/>
	<path fill="#CCCCCC" d="M204.5,321.2h-1.2V312h1.2V321.2z"/>
	<path fill="#CCCCCC" d="M206,318.1c0-1,0.2-1.8,0.7-2.5s1-0.9,1.8-0.9c0.4,0,0.7,0.1,1,0.2s0.5,0.3,0.7,0.6V312h1.2v9.1h-0.9
		l-0.1-0.8c-0.2,0.3-0.5,0.5-0.8,0.7s-0.7,0.2-1,0.2c-0.8,0-1.4-0.3-1.8-0.8s-0.7-1.3-0.7-2.2V318.1z M207.2,318.2
		c0,0.6,0.1,1.2,0.4,1.5s0.7,0.6,1.2,0.6c0.3,0,0.6-0.1,0.9-0.2s0.4-0.4,0.6-0.7v-3c-0.1-0.3-0.3-0.5-0.6-0.6s-0.5-0.2-0.9-0.2
		c-0.6,0-1,0.2-1.2,0.7s-0.4,1.1-0.4,1.8V318.2z"/>
</g>
<g>
	<path fill="#CCCCCC" d="M64.3,225.7c-0.2,0.3-0.6,0.6-1.1,0.9s-1.2,0.4-1.9,0.4c-1,0-1.9-0.3-2.5-1s-1-1.5-1-2.5v-1.8
		c0-1,0.3-1.9,0.9-2.5s1.4-1,2.4-1c1,0,1.7,0.2,2.3,0.7s0.8,1.1,0.9,1.9l0,0h-1.1c0-0.5-0.2-0.9-0.6-1.2s-0.8-0.5-1.5-0.5
		c-0.7,0-1.2,0.2-1.6,0.7c-0.4,0.5-0.6,1.1-0.6,1.9v1.8c0,0.8,0.2,1.4,0.7,1.9c0.4,0.5,1,0.7,1.7,0.7c0.5,0,0.9-0.1,1.2-0.2
		c0.3-0.1,0.5-0.3,0.7-0.4v-1.9h-1.9v-0.9h3V225.7z"/>
	<path fill="#CCCCCC" d="M68.7,226.9c-0.9,0-1.6-0.3-2.1-0.9s-0.8-1.4-0.8-2.3v-0.3c0-0.9,0.3-1.7,0.8-2.3s1.2-0.9,1.9-0.9
		c0.9,0,1.5,0.3,1.9,0.8s0.7,1.2,0.7,2.1v0.7H67l0,0c0,0.6,0.2,1.1,0.5,1.5s0.7,0.6,1.2,0.6c0.4,0,0.7-0.1,1-0.2s0.5-0.3,0.8-0.5
		l0.5,0.8c-0.2,0.2-0.5,0.4-0.9,0.6C69.7,226.9,69.2,226.9,68.7,226.9z M68.5,221.3c-0.4,0-0.7,0.2-1,0.5s-0.4,0.7-0.5,1.2l0,0H70
		v-0.2c0-0.5-0.1-0.8-0.4-1.1C69.4,221.4,69,221.3,68.5,221.3z"/>
	<path fill="#CCCCCC" d="M73.7,226.8h-1.2v-9.1h1.2V226.8z"/>
	<path fill="#CCCCCC" d="M75.2,223.8c0-1,0.2-1.8,0.7-2.5s1-0.9,1.8-0.9c0.4,0,0.7,0.1,1,0.2s0.5,0.3,0.7,0.6v-3.5h1.2v9.1h-0.9
		l-0.1-0.8c-0.2,0.3-0.5,0.5-0.8,0.7s-0.7,0.2-1,0.2c-0.8,0-1.4-0.3-1.8-0.8s-0.7-1.3-0.7-2.2V223.8z M76.3,223.9
		c0,0.6,0.1,1.2,0.4,1.5s0.7,0.6,1.2,0.6c0.3,0,0.6-0.1,0.9-0.2s0.4-0.4,0.6-0.7v-3c-0.1-0.3-0.3-0.5-0.6-0.6s-0.5-0.2-0.9-0.2
		c-0.6,0-1,0.2-1.2,0.7s-0.4,1.1-0.4,1.8V223.9z"/>
</g>
<g>
	<path fill="#979695" d="M325.3,374.2v-8.5h2.8c0.9,0,1.6,0.2,2.1,0.6s0.8,1,0.8,1.7c0,0.4-0.1,0.7-0.4,1s-0.6,0.5-1,0.7
		c0.5,0.1,0.9,0.4,1.2,0.8s0.4,0.9,0.4,1.4c0,0.8-0.3,1.4-0.8,1.8s-1.2,0.6-2.1,0.6H325.3z M326.5,369.3h1.9c0.4,0,0.8-0.1,1-0.4
		s0.4-0.6,0.4-1c0-0.5-0.1-0.8-0.4-1s-0.7-0.3-1.3-0.3h-1.6V369.3z M326.5,370.2v3.1h2c0.5,0,0.9-0.1,1.2-0.4
		c0.3-0.3,0.4-0.6,0.4-1.1c0-0.5-0.1-0.9-0.4-1.2c-0.2-0.3-0.6-0.4-1.1-0.4H326.5z"/>
	<path fill="#979695" d="M336.7,374.2c0-0.2-0.1-0.4-0.1-0.5s0-0.3,0-0.4c-0.2,0.3-0.5,0.6-0.8,0.8s-0.7,0.3-1.1,0.3
		c-0.7,0-1.2-0.2-1.5-0.5s-0.5-0.8-0.5-1.4c0-0.6,0.2-1.1,0.7-1.4s1.2-0.5,2-0.5h1.3v-0.6c0-0.4-0.1-0.7-0.3-0.9s-0.5-0.3-1-0.3
		c-0.4,0-0.7,0.1-0.9,0.3s-0.3,0.4-0.3,0.7h-1.1l0,0c0-0.5,0.2-0.9,0.7-1.3s1.1-0.6,1.8-0.6c0.7,0,1.3,0.2,1.7,0.5s0.7,0.9,0.7,1.6
		v3.1c0,0.2,0,0.4,0,0.7s0.1,0.4,0.1,0.6H336.7z M334.8,373.3c0.4,0,0.8-0.1,1.1-0.3s0.6-0.5,0.7-0.7v-1h-1.3
		c-0.5,0-0.8,0.1-1.1,0.4s-0.4,0.5-0.4,0.8c0,0.3,0.1,0.5,0.3,0.7C334.2,373.3,334.4,373.3,334.8,373.3z"/>
	<path fill="#979695" d="M340.4,367.8l0.1,0.9c0.2-0.3,0.5-0.6,0.8-0.8s0.7-0.3,1.1-0.3c0.7,0,1.2,0.2,1.6,0.6s0.6,1,0.6,1.9v4h-1.2
		v-4c0-0.6-0.1-1-0.3-1.2s-0.6-0.4-1-0.4c-0.3,0-0.6,0.1-0.9,0.2s-0.5,0.4-0.6,0.7v4.6h-1.2v-6.3H340.4z"/>
	<path fill="#979695" d="M348.1,371.3h-0.8v2.9h-1.2V365h1.2v5.3h0.7l1.7-2.5h1.4l-2.2,2.9l2.5,3.5h-1.4L348.1,371.3z"/>
	<path fill="#979695" d="M320.9,384.6H317v3h4.5v0.9h-5.7v-8.5h5.6v0.9H317v2.8h3.9V384.6z"/>
	<path fill="#979695" d="M323.7,382.2l0.1,0.8c0.2-0.3,0.5-0.5,0.8-0.7s0.7-0.2,1.1-0.2s0.8,0.1,1.1,0.3s0.5,0.5,0.7,0.9
		c0.2-0.4,0.5-0.6,0.8-0.9s0.7-0.3,1.1-0.3c0.6,0,1.2,0.2,1.5,0.7s0.6,1.1,0.6,2v3.8h-1.2v-3.8c0-0.6-0.1-1.1-0.3-1.3
		s-0.5-0.4-1-0.4c-0.4,0-0.7,0.1-1,0.4s-0.4,0.6-0.4,1v0v4h-1.2v-3.8c0-0.6-0.1-1-0.3-1.3s-0.5-0.4-1-0.4c-0.4,0-0.6,0.1-0.9,0.2
		s-0.4,0.3-0.5,0.6v4.7h-1.2v-6.3H323.7z"/>
	<path fill="#979695" d="M334.4,380.6h-1.2v-1.2h1.2V380.6z M334.4,388.6h-1.2v-6.3h1.2V388.6z"/>
	<path fill="#979695" d="M337.7,380.7v1.5h1.2v0.9h-1.2v3.8c0,0.3,0.1,0.5,0.2,0.6s0.3,0.2,0.5,0.2c0.1,0,0.1,0,0.2,0s0.2,0,0.2-0.1
		l0.2,0.8c-0.1,0.1-0.2,0.1-0.4,0.2s-0.3,0.1-0.5,0.1c-0.5,0-0.8-0.1-1.1-0.4s-0.4-0.7-0.4-1.3v-3.8h-1v-0.9h1v-1.5H337.7z"/>
	<path fill="#979695" d="M341.9,380.7v1.5h1.2v0.9h-1.2v3.8c0,0.3,0.1,0.5,0.2,0.6s0.3,0.2,0.5,0.2c0.1,0,0.1,0,0.2,0s0.2,0,0.2-0.1
		l0.2,0.8c-0.1,0.1-0.2,0.1-0.4,0.2s-0.3,0.1-0.5,0.1c-0.5,0-0.8-0.1-1.1-0.4s-0.4-0.7-0.4-1.3v-3.8h-1v-0.9h1v-1.5H341.9z"/>
	<path fill="#979695" d="M347.1,388.7c-0.9,0-1.6-0.3-2.1-0.9s-0.8-1.4-0.8-2.3v-0.3c0-0.9,0.3-1.7,0.8-2.3s1.2-0.9,1.9-0.9
		c0.9,0,1.5,0.3,1.9,0.8s0.7,1.2,0.7,2.1v0.7h-4.1l0,0c0,0.6,0.2,1.1,0.5,1.5c0.3,0.4,0.7,0.6,1.2,0.6c0.4,0,0.7-0.1,1-0.2
		s0.6-0.3,0.8-0.5l0.5,0.8c-0.2,0.2-0.5,0.4-0.9,0.6C348.1,388.6,347.6,388.7,347.1,388.7z M346.9,383c-0.4,0-0.7,0.2-1,0.5
		c-0.3,0.3-0.4,0.7-0.5,1.2l0,0h2.9v-0.2c0-0.5-0.1-0.8-0.4-1.1C347.8,383.2,347.4,383,346.9,383z"/>
	<path fill="#979695" d="M351.9,382.2l0.1,0.9c0.2-0.3,0.5-0.6,0.8-0.8s0.7-0.3,1.1-0.3c0.7,0,1.2,0.2,1.6,0.6s0.6,1,0.6,1.9v4h-1.2
		v-4c0-0.6-0.1-1-0.3-1.2s-0.6-0.4-1-0.4c-0.3,0-0.6,0.1-0.9,0.2s-0.5,0.4-0.6,0.7v4.6h-1.2v-6.3H351.9z"/>
	<path fill="#979695" d="M359.2,380.7v1.5h1.2v0.9h-1.2v3.8c0,0.3,0.1,0.5,0.2,0.6s0.3,0.2,0.5,0.2c0.1,0,0.1,0,0.2,0s0.2,0,0.2-0.1
		l0.2,0.8c-0.1,0.1-0.2,0.1-0.4,0.2s-0.3,0.1-0.5,0.1c-0.5,0-0.8-0.1-1.1-0.4s-0.4-0.7-0.4-1.3v-3.8h-1v-0.9h1v-1.5H359.2z"/>
</g>
<g>
	<rect x="155.2" y="75.9" fill="#FFFFFF" width="60.8" height="17.5"/>
</g>
<g>
	<path fill="#0099FF" d="M163.8,85.8h-3.9l-0.9,2.4h-1.3l3.6-9.2h1.1l3.5,9.2h-1.3L163.8,85.8z M160.3,84.7h3.1l-1.5-4.2h0
		L160.3,84.7z"/>
	<path fill="#0099FF" d="M168.1,81.3l0.1,1c0.2-0.4,0.5-0.6,0.9-0.8c0.3-0.2,0.7-0.3,1.2-0.3c0.7,0,1.3,0.2,1.7,0.7
		c0.4,0.4,0.6,1.1,0.6,2v4.3h-1.3v-4.3c0-0.6-0.1-1-0.4-1.3c-0.2-0.3-0.6-0.4-1.1-0.4c-0.4,0-0.7,0.1-1,0.3
		c-0.3,0.2-0.5,0.4-0.7,0.7v5H167v-6.9H168.1z"/>
	<path fill="#0099FF" d="M174.1,84.9c0-1.1,0.2-2,0.7-2.7s1.1-1,2-1c0.4,0,0.8,0.1,1.1,0.3c0.3,0.2,0.6,0.4,0.8,0.8l0.2-0.9h1v6.9
		c0,0.9-0.3,1.6-0.8,2c-0.5,0.5-1.3,0.7-2.2,0.7c-0.3,0-0.7,0-1.1-0.1c-0.4-0.1-0.7-0.2-1-0.4l0.3-1c0.2,0.1,0.5,0.2,0.8,0.3
		c0.3,0.1,0.6,0.1,0.9,0.1c0.6,0,1.1-0.1,1.3-0.4c0.3-0.3,0.4-0.7,0.4-1.3v-0.8c-0.2,0.3-0.5,0.5-0.8,0.7c-0.3,0.1-0.7,0.2-1.1,0.2
		c-0.8,0-1.5-0.3-2-0.9s-0.7-1.4-0.7-2.4V84.9z M175.3,85c0,0.7,0.1,1.2,0.4,1.7s0.7,0.6,1.3,0.6c0.4,0,0.7-0.1,0.9-0.3
		c0.3-0.2,0.5-0.4,0.6-0.7v-3.2c-0.2-0.3-0.4-0.5-0.6-0.7c-0.3-0.2-0.6-0.3-0.9-0.3c-0.6,0-1,0.2-1.3,0.7s-0.4,1.1-0.4,1.9V85z"/>
	<path fill="#0099FF" d="M184.6,88.3c-1,0-1.7-0.3-2.3-1c-0.6-0.6-0.8-1.5-0.8-2.5v-0.3c0-1,0.3-1.8,0.9-2.4c0.6-0.6,1.3-1,2.1-1
		c0.9,0,1.6,0.3,2.1,0.8s0.7,1.3,0.7,2.2V85h-4.5l0,0c0,0.7,0.2,1.2,0.5,1.6c0.3,0.4,0.8,0.6,1.4,0.6c0.4,0,0.8-0.1,1.1-0.2
		c0.3-0.1,0.6-0.3,0.8-0.5l0.5,0.8c-0.2,0.2-0.6,0.4-1,0.6C185.6,88.2,185.2,88.3,184.6,88.3z M184.4,82.1c-0.4,0-0.8,0.2-1.1,0.5
		s-0.5,0.8-0.5,1.3l0,0h3.2v-0.2c0-0.5-0.1-0.9-0.4-1.2C185.3,82.3,184.9,82.1,184.4,82.1z"/>
	<path fill="#0099FF" d="M194.5,85c0,1-0.2,1.8-0.7,2.4c-0.5,0.6-1.1,0.9-2,0.9c-0.5,0-0.8-0.1-1.2-0.3c-0.3-0.2-0.6-0.4-0.8-0.8
		l-0.2,0.9h-1v-9.9h1.3v3.8c0.2-0.3,0.5-0.5,0.8-0.7c0.3-0.2,0.7-0.2,1.1-0.2c0.8,0,1.5,0.3,2,1s0.7,1.6,0.7,2.7V85z M193.2,84.9
		c0-0.8-0.1-1.4-0.4-1.9c-0.3-0.5-0.7-0.7-1.3-0.7c-0.4,0-0.7,0.1-1,0.3c-0.3,0.2-0.5,0.4-0.6,0.8v3c0.2,0.3,0.4,0.6,0.6,0.8
		c0.3,0.2,0.6,0.3,1,0.3c0.6,0,1-0.2,1.3-0.6s0.4-1,0.4-1.7V84.9z"/>
	<path fill="#0099FF" d="M195.7,84.7c0-1,0.3-1.9,0.8-2.5c0.6-0.7,1.3-1,2.2-1c1,0,1.7,0.3,2.3,1c0.6,0.7,0.8,1.5,0.8,2.5v0.1
		c0,1-0.3,1.9-0.8,2.5s-1.3,1-2.2,1s-1.7-0.3-2.2-1c-0.6-0.7-0.8-1.5-0.8-2.5V84.7z M197,84.8c0,0.7,0.2,1.3,0.5,1.8
		c0.3,0.5,0.8,0.7,1.4,0.7c0.6,0,1-0.2,1.4-0.7s0.5-1.1,0.5-1.8v-0.1c0-0.7-0.2-1.3-0.5-1.8c-0.3-0.5-0.8-0.7-1.4-0.7
		c-0.6,0-1,0.2-1.4,0.7c-0.3,0.5-0.5,1.1-0.5,1.8V84.8z"/>
	<path fill="#0099FF" d="M205,79.6v1.7h1.3v0.9H205v4.2c0,0.3,0.1,0.5,0.2,0.7c0.1,0.1,0.3,0.2,0.5,0.2c0.1,0,0.2,0,0.2,0
		c0.1,0,0.2,0,0.2-0.1l0.2,0.9c-0.1,0.1-0.2,0.1-0.4,0.2c-0.2,0-0.4,0.1-0.5,0.1c-0.5,0-0.9-0.2-1.2-0.5c-0.3-0.3-0.5-0.8-0.5-1.4
		v-4.2h-1.1v-0.9h1.1v-1.7H205z"/>
	<path fill="#0099FF" d="M210.7,88.3c-1,0-1.7-0.3-2.3-1c-0.6-0.6-0.8-1.5-0.8-2.5v-0.3c0-1,0.3-1.8,0.9-2.4c0.6-0.6,1.3-1,2.1-1
		c0.9,0,1.6,0.3,2.1,0.8s0.7,1.3,0.7,2.2V85h-4.5l0,0c0,0.7,0.2,1.2,0.5,1.6c0.3,0.4,0.8,0.6,1.4,0.6c0.4,0,0.8-0.1,1.1-0.2
		c0.3-0.1,0.6-0.3,0.8-0.5l0.5,0.8c-0.2,0.2-0.6,0.4-1,0.6C211.8,88.2,211.3,88.3,210.7,88.3z M210.5,82.1c-0.4,0-0.8,0.2-1.1,0.5
		s-0.5,0.8-0.5,1.3l0,0h3.2v-0.2c0-0.5-0.1-0.9-0.4-1.2C211.4,82.3,211.1,82.1,210.5,82.1z"/>
</g>
<g>
	<rect x="464.5" y="77.6" fill="#FFFFFF" width="58" height="12.1"/>
</g>
<g>
	<path fill="#00CC66" d="M473.8,85.6h-3.6l-0.8,2.2h-1.2l3.3-8.5h1l3.2,8.5h-1.2L473.8,85.6z M470.5,84.6h2.9l-1.4-3.9h0L470.5,84.6
		z"/>
	<path fill="#00CC66" d="M477.7,81.5l0.1,0.9c0.2-0.3,0.5-0.6,0.8-0.8s0.7-0.3,1.1-0.3c0.7,0,1.2,0.2,1.6,0.6s0.6,1,0.6,1.9v4h-1.2
		v-4c0-0.6-0.1-1-0.3-1.2s-0.6-0.4-1-0.4c-0.3,0-0.6,0.1-0.9,0.2s-0.5,0.4-0.6,0.7v4.6h-1.2v-6.3H477.7z"/>
	<path fill="#00CC66" d="M484,87.8v-5.5h-1v-0.9h1v-0.8c0-0.7,0.2-1.2,0.5-1.6s0.8-0.6,1.5-0.6c0.1,0,0.3,0,0.4,0s0.3,0.1,0.4,0.1
		l-0.1,0.9c-0.1,0-0.2,0-0.3,0s-0.2,0-0.3,0c-0.3,0-0.6,0.1-0.8,0.3s-0.2,0.5-0.2,0.9v0.8h1.3v0.9h-1.3v5.5H484z"/>
	<path fill="#00CC66" d="M490.6,82.5l-0.6,0c-0.3,0-0.6,0.1-0.8,0.2s-0.4,0.3-0.5,0.6v4.5h-1.2v-6.3h1l0.1,0.9
		c0.2-0.3,0.4-0.6,0.7-0.8s0.6-0.3,0.9-0.3c0.1,0,0.2,0,0.2,0s0.1,0,0.2,0L490.6,82.5z"/>
	<path fill="#00CC66" d="M495.7,87.8c0-0.2-0.1-0.4-0.1-0.5s0-0.3,0-0.4c-0.2,0.3-0.5,0.6-0.8,0.8s-0.7,0.3-1.1,0.3
		c-0.7,0-1.2-0.2-1.5-0.5s-0.5-0.8-0.5-1.4c0-0.6,0.2-1.1,0.7-1.4s1.2-0.5,2-0.5h1.3v-0.6c0-0.4-0.1-0.7-0.3-0.9s-0.5-0.3-1-0.3
		c-0.4,0-0.7,0.1-0.9,0.3S493,83,493,83.2h-1.1l0,0c0-0.5,0.2-0.9,0.7-1.3s1.1-0.6,1.8-0.6c0.7,0,1.3,0.2,1.7,0.5s0.7,0.9,0.7,1.6
		v3.1c0,0.2,0,0.4,0,0.7s0.1,0.4,0.1,0.6H495.7z M493.7,87c0.4,0,0.8-0.1,1.1-0.3s0.6-0.5,0.7-0.7v-1h-1.3c-0.5,0-0.8,0.1-1.1,0.4
		s-0.4,0.5-0.4,0.8c0,0.3,0.1,0.5,0.3,0.7C493.1,86.9,493.4,87,493.7,87z"/>
	<path fill="#00CC66" d="M498.1,84.8c0-1,0.2-1.8,0.7-2.5s1.1-0.9,1.8-0.9c0.4,0,0.8,0.1,1.1,0.2s0.6,0.4,0.8,0.7l0.1-0.8h0.9v6.4
		c0,0.8-0.2,1.4-0.7,1.9s-1.2,0.7-2,0.7c-0.3,0-0.6,0-1-0.1s-0.7-0.2-0.9-0.3l0.3-0.9c0.2,0.1,0.5,0.2,0.8,0.3s0.6,0.1,0.9,0.1
		c0.6,0,1-0.1,1.2-0.4s0.4-0.6,0.4-1.2v-0.7c-0.2,0.3-0.5,0.5-0.7,0.6s-0.6,0.2-1,0.2c-0.8,0-1.4-0.3-1.8-0.8s-0.7-1.3-0.7-2.2V84.8
		z M499.3,84.9c0,0.6,0.1,1.1,0.4,1.5s0.7,0.6,1.2,0.6c0.3,0,0.6-0.1,0.9-0.2s0.4-0.4,0.6-0.7v-2.9c-0.1-0.3-0.3-0.5-0.6-0.6
		s-0.5-0.2-0.9-0.2c-0.6,0-1,0.2-1.2,0.7s-0.4,1.1-0.4,1.8V84.9z"/>
	<path fill="#00CC66" d="M507.8,87.9c-0.9,0-1.6-0.3-2.1-0.9s-0.8-1.4-0.8-2.3v-0.3c0-0.9,0.3-1.7,0.8-2.3s1.2-0.9,1.9-0.9
		c0.9,0,1.5,0.3,1.9,0.8s0.7,1.2,0.7,2.1v0.7h-4.1l0,0c0,0.6,0.2,1.1,0.5,1.5c0.3,0.4,0.7,0.6,1.2,0.6c0.4,0,0.7-0.1,1-0.2
		s0.5-0.3,0.8-0.5l0.5,0.8c-0.2,0.2-0.5,0.4-0.9,0.6S508.3,87.9,507.8,87.9z M507.6,82.3c-0.4,0-0.7,0.2-1,0.5
		c-0.3,0.3-0.4,0.7-0.5,1.2l0,0h2.9v-0.2c0-0.5-0.1-0.8-0.4-1.1S508.1,82.3,507.6,82.3z"/>
	<path fill="#00CC66" d="M512.6,81.5l0.1,0.9c0.2-0.3,0.5-0.6,0.8-0.8s0.7-0.3,1.1-0.3c0.7,0,1.2,0.2,1.6,0.6s0.6,1,0.6,1.9v4h-1.2
		v-4c0-0.6-0.1-1-0.3-1.2s-0.6-0.4-1-0.4c-0.3,0-0.6,0.1-0.9,0.2s-0.5,0.4-0.6,0.7v4.6h-1.2v-6.3H512.6z"/>
</g>
</svg>
