<?xml version="1.0" encoding="utf-8"?>
<!-- Generator: Adobe Illustrator 18.1.0, SVG Export Plug-In . SVG Version: 6.00 Build 0)  -->
<svg version="1.1" baseProfile="basic" id="Layer_1"
	 xmlns="http://www.w3.org/2000/svg" xmlns:xlink="http://www.w3.org/1999/xlink" x="0px" y="0px" viewBox="0 0 500 500"
	 xml:space="preserve">
<g>
	<path fill="#FFFFFF" d="M61.8,226.7v-35.4h3.4L86,221h0.3v-29.7h3.4v35.4h-3.1L65.7,197h-0.3v29.7H61.8z"/>
	<path fill="#FFFFFF" d="M117.5,226.7H96.2v-35.4h21.3v3.1h-18v12.5h17.2v3.1H99.5v13.5h18V226.7z"/>
	<path fill="#FFFFFF" d="M132.6,226.7v-32.5h-12v-2.9h27.1v3.1h-12V227h-3.1V226.7z"/>
	<path fill="#FFFFFF" d="M180.5,209c0,11.2-6.2,18.2-16.1,18.2s-16.1-7-16.1-18.2c0-11.2,6.2-18.2,16.1-18.2
		C174.5,190.5,180.5,197.8,180.5,209z M151.8,209c0,9.4,4.9,15.1,12.7,15.1c7.8,0,12.7-6,12.7-15.1c0-9.4-4.9-15.1-12.7-15.1
		C156.8,193.7,151.8,199.6,151.8,209z"/>
	<path fill="#FFFFFF" d="M198.4,191.3c6.8,0,11.4,4.4,11.4,10.9c0,6.5-4.7,10.9-11.4,10.9h-9.1v13.3h-3.4v-35.1H198.4z M189,210.3
		h8.3c5.5,0,8.8-3.1,8.8-8.1c0-4.9-3.1-8.1-8.8-8.1H189V210.3z"/>
	<path fill="#FFFFFF" d="M230.9,215.8h-14.8l-3.9,10.9h-3.6l13.3-35.4h3.4l13.3,35.4h-3.6L230.9,215.8z M217.1,212.9h12.7l-6.2-17.4
		h-0.3L217.1,212.9z"/>
	<path fill="#FFFFFF" d="M247.6,226.7v-15.4l-12.7-20h3.9l10.4,16.9l0,0l10.4-16.9h3.9l-12.7,20v15.4H247.6z"/>
	<path fill="#FFFFFF" d="M277.2,208.7c0-11.2,6.2-18.2,15.9-18.2c7.5,0,13.5,4.9,14.3,11.7H304c-1-5.2-5.5-8.6-10.9-8.6
		c-7.5,0-12.2,6-12.2,15.1c0,9.4,4.9,15.4,12.5,15.4c5.7,0,9.9-3.1,10.9-7.8h3.4c-1.3,7-6.8,10.9-14.3,10.9
		C283.5,227.2,277.2,219.9,277.2,208.7z"/>
	<path fill="#FFFFFF" d="M315.7,226.7h-3.4v-35.4h12.7c7,0,11.4,4.2,11.4,10.4c0,4.9-2.9,8.8-7.5,10.1l8.6,15.1h-3.9l-8.1-14.6
		c-0.3,0-0.3,0-0.5,0H316v14.3H315.7z M315.7,209.3h9.1c5.2,0,8.1-2.9,8.1-7.5s-3.1-7.5-8.3-7.5h-8.8L315.7,209.3z"/>
	<path fill="#FFFFFF" d="M363.4,226.7H342v-35.4h21.3v3.1h-18v12.5h17.2v3.1h-17.2v13.5h18V226.7z"/>
	<path fill="#FFFFFF" d="M380.8,191.3c10.7,0,16.9,6.5,16.9,17.7c0,11.2-6.2,17.7-16.9,17.7h-11.7v-35.4H380.8z M372.5,223.6h8.1
		c8.8,0,13.5-5.2,13.5-14.6c0-9.4-4.9-14.6-13.5-14.6h-8.1V223.6z"/>
	<path fill="#FFFFFF" d="M402.7,226.7v-35.4h3.4v35.4H402.7z"/>
	<path fill="#FFFFFF" d="M422.2,226.7v-32.5h-12v-2.9h27.1v3.1h-11.7V227h-3.4V226.7z"/>
</g>
<g>
	<path fill="#D86A43" d="M522.4,409.2c0-6,3.3-9.9,8.6-9.9c4,0,7.2,2.5,7.8,6.2h-1.9c-0.6-2.6-3-4.5-5.9-4.5c-4.1,0-6.7,3.2-6.7,8.2
		c0,5.1,2.6,8.3,6.7,8.3c3,0,5.3-1.6,5.9-4.1h1.9c-0.7,3.6-3.7,5.8-7.8,5.8C525.7,419.2,522.4,415.3,522.4,409.2z"/>
	<path fill="#D86A43" d="M553.3,414.8c-0.4,2.5-2.8,4.2-5.9,4.2c-4,0-6.5-2.8-6.5-7.3c0-4.5,2.5-7.4,6.4-7.4c3.8,0,6.2,2.7,6.2,7
		v0.8h-10.8v0.1c0,3.3,1.9,5.2,4.7,5.2c2.2,0,3.7-1.1,4.1-2.7H553.3z M542.7,410.7h8.9c0-2.9-1.8-4.8-4.4-4.8
		C544.7,405.9,542.9,407.9,542.7,410.7z"/>
	<path fill="#D86A43" d="M569,411.7c0,4.4-2.5,7.3-6.1,7.3c-2.3,0-4.1-1.3-4.9-3.1h0v7.7h-1.8v-19.1h1.7v3h0c0.8-1.8,2.7-3.1,5-3.1
		C566.5,404.4,569,407.3,569,411.7z M567.2,411.7c0-3.5-1.9-5.8-4.6-5.8c-2.7,0-4.6,2.4-4.6,5.8c0,3.4,1.9,5.8,4.6,5.8
		C565.3,417.5,567.2,415.2,567.2,411.7z"/>
	<path fill="#D86A43" d="M571.7,404.6h5.8c2.7,0,4.3,1.4,4.3,3.6c0,1.6-1.1,2.9-2.5,3.2v0.1c1.8,0.2,3.2,1.5,3.2,3.4
		c0,2.6-1.9,4.1-5,4.1h-5.8V404.6z M573.4,406v4.7h3.6c2,0,3.1-0.9,3.1-2.4c0-1.5-1-2.3-2.8-2.3H573.4z M573.4,412.2v5.2h4.1
		c2.1,0,3.3-0.9,3.3-2.6c0-1.7-1.3-2.6-3.6-2.6H573.4z"/>
	<path fill="#D86A43" d="M585.1,400.5c0-0.7,0.5-1.2,1.2-1.2c0.7,0,1.2,0.5,1.2,1.2c0,0.6-0.5,1.2-1.2,1.2
		C585.6,401.7,585.1,401.2,585.1,400.5z M585.4,404.6h1.8v14.4h-1.8V404.6z"/>
	<path fill="#D86A43" d="M600.6,408.8c-0.4-1.6-1.9-2.8-4.1-2.8c-2.8,0-4.7,2.3-4.7,5.8c0,3.6,1.9,5.8,4.7,5.8c2.1,0,3.6-1,4.1-2.7
		h1.8c-0.5,2.5-2.8,4.3-5.8,4.3c-3.9,0-6.5-2.8-6.5-7.3c0-4.4,2.6-7.3,6.4-7.3c3.2,0,5.4,2,5.8,4.4H600.6z"/>
	<path fill="#D86A43" d="M611,418.9v-14.4h2.1l5.7,12h0.1l5.7-12h2v14.4h-1.8v-11.2h-0.1l-5.3,10.9H618l-5.3-10.9h-0.1v11.2H611z"/>
	<path fill="#D86A43" d="M629.8,400.5c0-0.7,0.5-1.2,1.2-1.2c0.7,0,1.2,0.5,1.2,1.2c0,0.6-0.5,1.2-1.2,1.2
		C630.3,401.7,629.8,401.2,629.8,400.5z M630.1,404.6h1.8v14.4h-1.8V404.6z"/>
	<path fill="#D86A43" d="M653.5,418.9h-2.3l-6.4-7h-0.1v7h-1.7v-7h-0.1l-6.4,7h-2.3l6.9-7.5l-6.7-6.9h2.2l6.3,6.5h0.1v-6.5h1.7v6.5
		h0.1l6.3-6.5h2.2l-6.7,6.8L653.5,418.9z"/>
	<path fill="#D86A43" d="M665.3,412.2h-8v6.7h-1.7v-14.4h1.7v6.2h8v-6.2h1.7v14.4h-1.7V412.2z"/>
	<path fill="#D86A43" d="M670,414.9c0-2.5,1.8-3.9,5.3-4.1l4.4-0.3v-1.2c0-2.1-1.3-3.3-3.6-3.3c-2,0-3.4,1-3.7,2.7h-1.7
		c0.1-2.5,2.4-4.3,5.4-4.3c3.3,0,5.4,1.8,5.4,4.7v9.8h-1.7v-2.7h0c-0.8,1.7-2.7,2.9-4.9,2.9C671.9,419.1,670,417.4,670,414.9z
		 M679.6,413.5v-1.6l-4.2,0.3c-2.4,0.2-3.7,1.1-3.7,2.7c0,1.5,1.4,2.6,3.4,2.6C677.7,417.5,679.6,415.8,679.6,413.5z"/>
	<path fill="#D86A43" d="M697.5,411.7c0,4.4-2.5,7.3-6.1,7.3c-2.3,0-4.1-1.3-4.9-3.1h0v7.7h-1.8v-19.1h1.7v3h0
		c0.8-1.8,2.7-3.1,5-3.1C695,404.4,697.5,407.3,697.5,411.7z M695.7,411.7c0-3.5-1.9-5.8-4.6-5.8c-2.7,0-4.6,2.4-4.6,5.8
		c0,3.4,1.9,5.8,4.6,5.8C693.8,417.5,695.7,415.2,695.7,411.7z"/>
	<path fill="#D86A43" d="M699.4,411.7c0-4.5,2.6-7.3,6.5-7.3c3.9,0,6.5,2.9,6.5,7.3s-2.6,7.3-6.5,7.3
		C702,419.1,699.4,416.2,699.4,411.7z M710.7,411.7c0-3.6-1.8-5.8-4.7-5.8c-2.9,0-4.7,2.2-4.7,5.8c0,3.6,1.8,5.8,4.7,5.8
		C708.9,417.5,710.7,415.3,710.7,411.7z"/>
	<path fill="#D86A43" d="M713.7,422.7v-5.3h1.2c1.1-0.7,1.6-2.6,1.7-4.8c0.1-0.8,0.5-7.3,0.6-8.1h9.6v12.9h2.3v5.3h-1.7v-3.8h-12
		v3.8H713.7z M725,406h-6.2c0,0.7-0.4,5.9-0.5,6.7c-0.2,1.9-0.5,3.7-1.3,4.6v0.1h8V406z"/>
	<path fill="#D86A43" d="M741,412.2h-8v6.7h-1.7v-14.4h1.7v6.2h8v-6.2h1.7v14.4H741V412.2z"/>
	<path fill="#D86A43" d="M745.5,411.7c0-4.5,2.6-7.3,6.5-7.3c3.9,0,6.5,2.9,6.5,7.3s-2.6,7.3-6.5,7.3
		C748.1,419.1,745.5,416.2,745.5,411.7z M756.7,411.7c0-3.6-1.8-5.8-4.7-5.8c-2.9,0-4.7,2.2-4.7,5.8c0,3.6,1.8,5.8,4.7,5.8
		C754.9,417.5,756.7,415.3,756.7,411.7z"/>
	<path fill="#D86A43" d="M758.7,400.9c0-0.7,0.6-1.2,1.2-1.2c0.7,0,1.2,0.6,1.2,1.2c0,0.7-0.6,1.2-1.2,1.2
		C759.2,402.1,758.7,401.6,758.7,400.9z M761.4,404.6h1.8v14.4h-1.8V404.6z M763.4,400.9c0-0.7,0.6-1.2,1.2-1.2
		c0.7,0,1.2,0.6,1.2,1.2c0,0.7-0.6,1.2-1.2,1.2C764,402.1,763.4,401.6,763.4,400.9z"/>
	<path fill="#D86A43" d="M772.8,404.6h5.8c2.7,0,4.3,1.4,4.3,3.6c0,1.6-1.1,2.9-2.5,3.2v0.1c1.8,0.2,3.2,1.5,3.2,3.4
		c0,2.6-1.9,4.1-5,4.1h-5.8V404.6z M774.5,406v4.7h3.6c2,0,3.1-0.9,3.1-2.4c0-1.5-1-2.3-2.8-2.3H774.5z M774.5,412.2v5.2h4.1
		c2.1,0,3.3-0.9,3.3-2.6c0-1.7-1.3-2.6-3.6-2.6H774.5z"/>
	<path fill="#D86A43" d="M785.4,415.2h1.8c0.3,1.4,1.7,2.4,3.8,2.4c2.3,0,3.6-1.1,3.6-2.8c0-1.8-1.3-2.7-3.7-2.7h-2.2v-1.5h2.2
		c2.1,0,3.2-0.9,3.2-2.5c0-1.4-1.1-2.4-3.1-2.4c-2,0-3.3,1-3.6,2.4h-1.7c0.3-2.3,2.3-3.9,5.3-3.9c3.1,0,4.8,1.5,4.8,3.8
		c0,1.6-1.1,2.9-2.6,3.2v0.1c1.9,0.3,3.1,1.5,3.1,3.4c0,2.7-2.2,4.4-5.4,4.4C787.9,419.2,785.7,417.6,785.4,415.2z"/>
	<path fill="#D86A43" d="M798.6,414.9c0-2.5,1.8-3.9,5.3-4.1l4.4-0.3v-1.2c0-2.1-1.3-3.3-3.6-3.3c-2,0-3.4,1-3.7,2.7h-1.7
		c0.1-2.5,2.4-4.3,5.4-4.3c3.3,0,5.4,1.8,5.4,4.7v9.8h-1.7v-2.7h0c-0.8,1.7-2.7,2.9-4.9,2.9C800.5,419.1,798.6,417.4,798.6,414.9z
		 M808.3,413.5v-1.6l-4.2,0.3c-2.4,0.2-3.7,1.1-3.7,2.7c0,1.5,1.4,2.6,3.4,2.6C806.3,417.5,808.3,415.8,808.3,413.5z"/>
	<path fill="#D86A43" d="M824.9,414.8c-0.5,2.5-2.8,4.3-5.8,4.3c-3.9,0-6.5-2.8-6.5-7.3c0-4.4,2.6-7.3,6.5-7.3c3.2,0,5.4,2,5.8,4.4
		h-1.8c-0.4-1.6-1.9-2.8-4.1-2.8c-2.5,0-4.3,1.8-4.6,4.7h7v1.5h-7c0.1,3.3,2,5.3,4.7,5.3c2.1,0,3.6-1,4.1-2.7H824.9z"/>
	<path fill="#D86A43" d="M827.6,418.9v-14.4h2.1l5.7,12h0.1l5.7-12h2v14.4h-1.8v-11.2h-0.1l-5.2,10.9h-1.4l-5.3-10.9h-0.1v11.2
		H827.6z"/>
	<path fill="#D86A43" d="M845.8,411.7c0-4.5,2.6-7.3,6.5-7.3c3.9,0,6.5,2.9,6.5,7.3s-2.6,7.3-6.5,7.3
		C848.4,419.1,845.8,416.2,845.8,411.7z M857,411.7c0-3.6-1.8-5.8-4.7-5.8c-2.9,0-4.7,2.2-4.7,5.8c0,3.6,1.8,5.8,4.7,5.8
		C855.2,417.5,857,415.3,857,411.7z"/>
	<path fill="#D86A43" d="M860.1,422.7v-5.3h1.2c1.1-0.7,1.6-2.6,1.7-4.8c0.1-0.8,0.5-7.3,0.6-8.1h9.6v12.9h2.3v5.3h-1.7v-3.8h-12
		v3.8H860.1z M871.4,406h-6.2c0,0.7-0.4,5.9-0.5,6.7c-0.2,1.9-0.5,3.7-1.3,4.6v0.1h8V406z"/>
	<path fill="#D86A43" d="M877.5,400.5c0-0.7,0.5-1.2,1.2-1.2c0.7,0,1.2,0.5,1.2,1.2c0,0.6-0.5,1.2-1.2,1.2
		C878,401.7,877.5,401.2,877.5,400.5z M877.8,404.6h1.8v14.4h-1.8V404.6z"/>
	<path fill="#D86A43" d="M880.6,400.9c0-0.7,0.6-1.2,1.2-1.2c0.7,0,1.2,0.6,1.2,1.2c0,0.7-0.6,1.2-1.2,1.2
		C881.1,402.1,880.6,401.6,880.6,400.9z M883.3,404.6h1.8v14.4h-1.8V404.6z M885.3,400.9c0-0.7,0.6-1.2,1.2-1.2
		c0.7,0,1.2,0.6,1.2,1.2c0,0.7-0.6,1.2-1.2,1.2C885.9,402.1,885.3,401.6,885.3,400.9z"/>
	<path fill="#D86A43" d="M554.4,443.4c0-8.3,2-11.6,7.5-11.7c0.3,0,1.3,0,1.5-0.1c1.2-0.1,2.4-0.3,3.1-0.7v1.5
		c-0.4,0.3-1.7,0.6-3.1,0.7c-0.2,0-1.2,0.1-1.5,0.1c-4.2,0.1-5.5,2.1-6.1,7.2h0.1c0.9-2,2.8-3,5.2-3c3.9,0,6.3,2.8,6.3,7.1
		c0,4.5-2.5,7.3-6.6,7.3C556.7,451.9,554.4,448.9,554.4,443.4z M565.7,444.6c0-3.5-1.8-5.5-4.8-5.5c-3,0-4.8,2.1-4.8,5.5
		c0,3.6,1.8,5.8,4.8,5.8C563.9,450.3,565.7,448.2,565.7,444.6z"/>
	<path fill="#D86A43" d="M570.1,433.3c0-0.7,0.5-1.2,1.2-1.2c0.7,0,1.2,0.5,1.2,1.2c0,0.6-0.5,1.2-1.2,1.2
		C570.6,434.5,570.1,433.9,570.1,433.3z M570.4,437.3h1.8v14.4h-1.8V437.3z"/>
	<path fill="#D86A43" d="M588.6,444.5c0,4.4-2.5,7.3-6.1,7.3c-2.3,0-4.1-1.3-4.9-3.1h0v7.7h-1.8v-19.1h1.7v3h0
		c0.8-1.8,2.7-3.1,5-3.1C586.1,437.1,588.6,440.1,588.6,444.5z M586.8,444.5c0-3.5-1.9-5.8-4.6-5.8c-2.7,0-4.6,2.4-4.6,5.8
		c0,3.4,1.9,5.8,4.6,5.8C584.9,450.2,586.8,447.9,586.8,444.5z"/>
	<path fill="#D86A43" d="M608.9,451.6h-2.3l-6.4-7H600v7h-1.7v-7h-0.1l-6.4,7h-2.3l6.9-7.5l-6.7-6.9h2.2l6.3,6.5h0.1v-6.5h1.7v6.5
		h0.1l6.3-6.5h2.2l-6.7,6.8L608.9,451.6z"/>
	<path fill="#D86A43" d="M617,451.6v-14.4h2.1l5.7,12h0.1l5.7-12h2v14.4h-1.8v-11.2h-0.1l-5.3,10.9h-1.4l-5.3-10.9h-0.1v11.2H617z"
		/>
	<path fill="#D86A43" d="M635.8,433.3c0-0.7,0.5-1.2,1.2-1.2c0.7,0,1.2,0.5,1.2,1.2c0,0.6-0.5,1.2-1.2,1.2
		C636.3,434.5,635.8,433.9,635.8,433.3z M636.1,437.3h1.8v14.4h-1.8V437.3z"/>
	<path fill="#D86A43" d="M652.7,451.6h-2.3l-7-7h-0.1v7h-1.7v-14.4h1.7v6.5h0.1l6.9-6.5h2.2l-7.3,6.8L652.7,451.6z"/>
	<path fill="#D86A43" d="M667.5,444.5c0,4.4-2.5,7.3-6.1,7.3c-2.3,0-4.1-1.3-4.9-3.1h0v7.7h-1.8v-19.1h1.7v3h0
		c0.8-1.8,2.7-3.1,5-3.1C665,437.1,667.5,440.1,667.5,444.5z M665.7,444.5c0-3.5-1.9-5.8-4.6-5.8c-2.7,0-4.6,2.4-4.6,5.8
		c0,3.4,1.9,5.8,4.6,5.8C663.9,450.2,665.7,447.9,665.7,444.5z"/>
	<path fill="#D86A43" d="M669.5,444.5c0-4.5,2.6-7.3,6.5-7.3c3.9,0,6.5,2.9,6.5,7.3s-2.6,7.3-6.5,7.3
		C672.1,451.8,669.5,448.9,669.5,444.5z M680.8,444.5c0-3.6-1.8-5.8-4.7-5.8c-2.9,0-4.7,2.2-4.7,5.8c0,3.6,1.8,5.8,4.7,5.8
		C679,450.2,680.8,448,680.8,444.5z"/>
	<path fill="#D86A43" d="M696.5,451.6h-2.3l-7-7H687v7h-1.7v-14.4h1.7v6.5h0.1l6.9-6.5h2.2l-7.3,6.8L696.5,451.6z"/>
	<path fill="#D86A43" d="M711.3,444.5c0,4.4-2.5,7.3-6.1,7.3c-2.3,0-4.1-1.3-4.9-3.1h0v7.7h-1.8v-19.1h1.7v3h0
		c0.8-1.8,2.7-3.1,5-3.1C708.8,437.1,711.3,440.1,711.3,444.5z M709.5,444.5c0-3.5-1.9-5.8-4.6-5.8c-2.7,0-4.6,2.4-4.6,5.8
		c0,3.4,1.9,5.8,4.6,5.8C707.7,450.2,709.5,447.9,709.5,444.5z"/>
	<path fill="#D86A43" d="M725.7,447.6c-0.4,2.5-2.8,4.2-5.9,4.2c-4,0-6.5-2.8-6.5-7.3c0-4.5,2.5-7.4,6.4-7.4c3.8,0,6.2,2.7,6.2,7
		v0.8h-10.8v0.1c0,3.3,1.9,5.2,4.7,5.2c2.2,0,3.7-1.1,4.1-2.7H725.7z M715.1,443.5h8.9c0-2.9-1.8-4.8-4.4-4.8
		C717.1,438.7,715.3,440.6,715.1,443.5z"/>
	<path fill="#D86A43" d="M727.1,455.4v-5.3h1.2c1.1-0.7,1.6-2.6,1.7-4.8c0.1-0.8,0.5-7.3,0.6-8.1h9.6v12.9h2.3v5.3h-1.7v-3.8h-12
		v3.8H727.1z M738.4,438.8h-6.2c0,0.7-0.4,5.9-0.5,6.7c-0.2,1.9-0.5,3.7-1.3,4.6v0.1h8V438.8z"/>
	<path fill="#D86A43" d="M744.6,451.6v-14.4h1.7v11.6h0.1l8.2-11.6h1.7v14.4h-1.7V440h-0.1l-8.1,11.6H744.6z"/>
	<path fill="#D86A43" d="M770.1,438.8h-4.9v12.9h-1.7v-12.9h-4.9v-1.5h11.6V438.8z"/>
	<path fill="#D86A43" d="M772.6,456.5V455c0.2,0.1,0.6,0.1,0.9,0.1c1.3,0,2-0.7,2.7-2.5l0.3-0.9l-5.4-14.4h1.9l4.4,12.6h0l4.4-12.6
		h1.9l-5.6,15c-1.3,3.4-2.3,4.3-4.6,4.3C773.2,456.6,772.8,456.6,772.6,456.5z"/>
	<path fill="#D86A43" d="M785.8,437.3h5.8c2.7,0,4.3,1.4,4.3,3.6c0,1.6-1.1,2.9-2.5,3.2v0.1c1.8,0.2,3.2,1.5,3.2,3.4
		c0,2.6-1.9,4.1-5,4.1h-5.8V437.3z M787.5,438.8v4.7h3.6c2,0,3.1-0.9,3.1-2.4c0-1.5-1-2.3-2.8-2.3H787.5z M787.5,445v5.2h4.1
		c2.1,0,3.3-0.9,3.3-2.6c0-1.7-1.3-2.6-3.6-2.6H787.5z"/>
	<path fill="#D86A43" d="M798.8,447.6c0-2.5,1.8-3.9,5.3-4.1l4.4-0.3V442c0-2.1-1.3-3.3-3.6-3.3c-2,0-3.4,1-3.7,2.7h-1.7
		c0.1-2.5,2.4-4.3,5.4-4.3c3.3,0,5.4,1.8,5.4,4.7v9.8h-1.7v-2.7h0c-0.8,1.7-2.7,2.9-4.9,2.9C800.7,451.8,798.8,450.1,798.8,447.6z
		 M808.5,446.2v-1.6l-4.2,0.3c-2.4,0.2-3.7,1.1-3.7,2.7c0,1.5,1.4,2.6,3.4,2.6C806.5,450.3,808.5,448.5,808.5,446.2z"/>
	<path fill="#D86A43" d="M823.3,444.9h-8v6.7h-1.7v-14.4h1.7v6.2h8v-6.2h1.7v14.4h-1.7V444.9z"/>
	<path fill="#D86A43" d="M838.2,444.9h-8v6.7h-1.7v-14.4h1.7v6.2h8v-6.2h1.7v14.4h-1.7V444.9z"/>
	<path fill="#D86A43" d="M851.5,446.2h-3.1l-3.9,5.4h-2.1l4.2-5.7c-2.2-0.5-3.6-2-3.6-4.1c0-2.8,2-4.6,5.2-4.6h5v14.4h-1.7V446.2z
		 M851.5,444.7v-6h-3.2c-2.1,0-3.5,1.2-3.5,3.1c0,1.7,1.4,2.9,3.5,2.9H851.5z"/>
</g>
<g>
	<path fill="#FFFFFF" d="M30.8,286.5c0.2,2.1,2.3,3.5,5.1,3.5c2.7,0,4.6-1.4,4.6-3.3c0-1.7-1.2-2.7-3.8-3.4l-2.5-0.7
		c-3.6-0.9-5.2-2.5-5.2-5.2c0-3.3,2.9-5.6,7-5.6c3.9,0,6.8,2.3,6.9,5.6h-2.5c-0.2-2.1-1.9-3.4-4.5-3.4c-2.6,0-4.3,1.3-4.3,3.3
		c0,1.5,1.1,2.4,3.8,3.1l2.1,0.5c4.1,1,5.7,2.6,5.7,5.4c0,3.6-2.8,5.9-7.4,5.9c-4.2,0-7.1-2.3-7.3-5.8H30.8z"/>
	<path fill="#FFFFFF" d="M57.7,287.7c-0.4,2.5-3,4.3-6.1,4.3c-4.1,0-6.8-2.9-6.8-7.5s2.6-7.6,6.6-7.6c3.9,0,6.4,2.8,6.4,7.2v0.9
		H47.3v0.1c0,2.8,1.7,4.6,4.3,4.6c1.8,0,3.3-0.9,3.7-2.3H57.7z M47.3,283.3h8.1c-0.1-2.5-1.6-4.2-4-4.2
		C49.2,279.2,47.5,280.8,47.3,283.3z"/>
	<path fill="#FFFFFF" d="M60.4,277.2h2.2v2.4h0.1c0.4-1.5,1.8-2.5,3.6-2.5c0.3,0,0.7,0,0.9,0.1v2.4c-0.2-0.1-0.8-0.2-1.2-0.2
		c-1.9,0-3.2,1.4-3.2,3.5v9.1h-2.4V277.2z"/>
	<path fill="#FFFFFF" d="M75.9,291.9h-2.4L68,277.2h2.5l4.1,12.2h0.1l4.1-12.2h2.5L75.9,291.9z"/>
	<path fill="#FFFFFF" d="M83.1,273.3c0-0.8,0.7-1.5,1.5-1.5c0.8,0,1.5,0.7,1.5,1.5c0,0.8-0.7,1.5-1.5,1.5
		C83.8,274.8,83.1,274.1,83.1,273.3z M83.4,277.2h2.4v14.7h-2.4V277.2z"/>
	<path fill="#FFFFFF" d="M99,282c-0.3-1.6-1.6-2.8-3.8-2.8c-2.6,0-4.3,2.1-4.3,5.4c0,3.3,1.8,5.4,4.3,5.4c2.1,0,3.4-1,3.8-2.7h2.3
		c-0.4,2.9-2.8,4.9-6.2,4.9c-4,0-6.8-2.9-6.8-7.5c0-4.5,2.7-7.5,6.7-7.5c3.7,0,5.9,2.4,6.2,4.9H99z"/>
	<path fill="#FFFFFF" d="M115.8,287.7c-0.4,2.5-3,4.3-6.1,4.3c-4.1,0-6.8-2.9-6.8-7.5s2.6-7.6,6.6-7.6c3.9,0,6.4,2.8,6.4,7.2v0.9
		h-10.6v0.1c0,2.8,1.7,4.6,4.3,4.6c1.8,0,3.3-0.9,3.7-2.3H115.8z M105.4,283.3h8.1c-0.1-2.5-1.6-4.2-4-4.2
		C107.2,279.2,105.5,280.8,105.4,283.3z"/>
	<path fill="#FFFFFF" d="M125.9,279.2h-2.1v-2h2.1v-1.4c0-2.7,1.2-3.9,3.9-3.9c0.5,0,0.9,0,1.3,0.1v2c-0.3-0.1-0.7-0.1-1.1-0.1
		c-1.2,0-1.8,0.6-1.8,2v1.4h2.9v2h-2.9v12.8h-2.4V279.2z"/>
	<path fill="#FFFFFF" d="M132.3,284.6c0-4.6,2.7-7.5,6.8-7.5s6.8,2.9,6.8,7.5c0,4.6-2.7,7.5-6.8,7.5S132.3,289.1,132.3,284.6z
		 M143.5,284.6c0-3.4-1.6-5.4-4.4-5.4s-4.4,2-4.4,5.4s1.6,5.4,4.4,5.4C141.9,290,143.5,287.9,143.5,284.6z"/>
	<path fill="#FFFFFF" d="M148.4,277.2h2.2v2.4h0.1c0.4-1.5,1.8-2.5,3.6-2.5c0.3,0,0.7,0,0.9,0.1v2.4c-0.2-0.1-0.8-0.2-1.2-0.2
		c-1.9,0-3.2,1.4-3.2,3.5v9.1h-2.4V277.2z"/>
	<path fill="#FFFFFF" d="M170.5,273.3c0-0.8,0.7-1.5,1.5-1.5c0.8,0,1.5,0.7,1.5,1.5c0,0.8-0.7,1.5-1.5,1.5
		C171.2,274.8,170.5,274.1,170.5,273.3z M170.8,277.2h2.4v14.7h-2.4V277.2z"/>
	<path fill="#FFFFFF" d="M176.6,277.2h2.2v2.4h0.1c0.9-1.7,2.5-2.5,4.8-2.5c3.2,0,5.2,2.1,5.2,5.4v9.4h-2.4v-9
		c0-2.4-1.3-3.7-3.6-3.7c-2.4,0-4,1.7-4,4.2v8.6h-2.4V277.2z"/>
	<path fill="#FFFFFF" d="M195.3,273.9v3.3h2.9v2h-2.9v8.8c0,1.4,0.6,2,1.8,2c0.3,0,0.9,0,1-0.1v2c-0.3,0.1-1,0.1-1.5,0.1
		c-2.7,0-3.7-1.1-3.7-3.9v-8.9h-2.1v-2h2.1v-3.3H195.3z"/>
	<path fill="#FFFFFF" d="M212.5,287.7c-0.4,2.5-3,4.3-6.1,4.3c-4.1,0-6.8-2.9-6.8-7.5s2.6-7.6,6.6-7.6c3.9,0,6.4,2.8,6.4,7.2v0.9
		h-10.6v0.1c0,2.8,1.7,4.6,4.3,4.6c1.8,0,3.3-0.9,3.7-2.3H212.5z M202.1,283.3h8.1c-0.1-2.5-1.6-4.2-4-4.2
		C203.9,279.2,202.3,280.8,202.1,283.3z"/>
	<path fill="#FFFFFF" d="M215.2,277.2h2.2v2.4h0.1c0.4-1.5,1.8-2.5,3.6-2.5c0.3,0,0.7,0,0.9,0.1v2.4c-0.2-0.1-0.8-0.2-1.2-0.2
		c-1.9,0-3.2,1.4-3.2,3.5v9.1h-2.4V277.2z"/>
	<path fill="#FFFFFF" d="M224,277.2h2.2v2.4h0.1c0.9-1.7,2.5-2.5,4.8-2.5c3.2,0,5.2,2.1,5.2,5.4v9.4H234v-9c0-2.4-1.3-3.7-3.6-3.7
		c-2.4,0-4,1.7-4,4.2v8.6H224V277.2z"/>
	<path fill="#FFFFFF" d="M238.9,287.7c0-2.5,1.9-4,5.5-4.2l4.1-0.2V282c0-1.8-1.2-2.8-3.4-2.8c-1.7,0-3,0.9-3.3,2.3h-2.3
		c0.1-2.5,2.5-4.4,5.6-4.4c3.5,0,5.7,1.9,5.7,4.8v10.1h-2.3v-2.6h-0.1c-0.8,1.6-2.7,2.7-4.7,2.7
		C240.9,292.1,238.9,290.3,238.9,287.7z M248.5,286.3v-1.2l-3.9,0.2c-2.2,0.1-3.4,0.9-3.4,2.4c0,1.4,1.2,2.3,3,2.3
		C246.8,290,248.5,288.4,248.5,286.3z"/>
	<path fill="#FFFFFF" d="M257.2,273.9v3.3h2.9v2h-2.9v8.8c0,1.4,0.6,2,1.8,2c0.3,0,0.9,0,1-0.1v2c-0.3,0.1-1,0.1-1.5,0.1
		c-2.7,0-3.7-1.1-3.7-3.9v-8.9h-2.1v-2h2.1v-3.3H257.2z"/>
	<path fill="#FFFFFF" d="M262.6,273.3c0-0.8,0.7-1.5,1.5-1.5c0.8,0,1.5,0.7,1.5,1.5c0,0.8-0.7,1.5-1.5,1.5
		C263.3,274.8,262.6,274.1,262.6,273.3z M262.9,277.2h2.4v14.7h-2.4V277.2z"/>
	<path fill="#FFFFFF" d="M267.9,284.6c0-4.6,2.7-7.5,6.8-7.5s6.8,2.9,6.8,7.5c0,4.6-2.7,7.5-6.8,7.5S267.9,289.1,267.9,284.6z
		 M279.1,284.6c0-3.4-1.6-5.4-4.4-5.4s-4.4,2-4.4,5.4s1.6,5.4,4.4,5.4C277.5,290,279.1,287.9,279.1,284.6z"/>
	<path fill="#FFFFFF" d="M284,277.2h2.2v2.4h0.1c0.9-1.7,2.5-2.5,4.8-2.5c3.2,0,5.2,2.1,5.2,5.4v9.4H294v-9c0-2.4-1.3-3.7-3.6-3.7
		c-2.4,0-4,1.7-4,4.2v8.6H284V277.2z"/>
	<path fill="#FFFFFF" d="M298.8,287.7c0-2.5,1.9-4,5.5-4.2l4.1-0.2V282c0-1.8-1.2-2.8-3.4-2.8c-1.7,0-3,0.9-3.3,2.3h-2.3
		c0.1-2.5,2.5-4.4,5.6-4.4c3.5,0,5.7,1.9,5.7,4.8v10.1h-2.3v-2.6h-0.1c-0.8,1.6-2.7,2.7-4.7,2.7
		C300.8,292.1,298.8,290.3,298.8,287.7z M308.5,286.3v-1.2l-3.9,0.2c-2.2,0.1-3.4,0.9-3.4,2.4c0,1.4,1.2,2.3,3,2.3
		C306.7,290,308.5,288.4,308.5,286.3z"/>
	<path fill="#FFFFFF" d="M314.2,271.3h2.4v20.6h-2.4V271.3z"/>
	<path fill="#FFFFFF" d="M326.4,273.3c0-0.8,0.7-1.5,1.5-1.5c0.8,0,1.5,0.7,1.5,1.5c0,0.8-0.7,1.5-1.5,1.5
		C327.1,274.8,326.4,274.1,326.4,273.3z M326.8,277.2h2.4v14.7h-2.4V277.2z"/>
	<path fill="#FFFFFF" d="M332.5,277.2h2.2v2.4h0.1c0.9-1.7,2.5-2.5,4.8-2.5c3.2,0,5.2,2.1,5.2,5.4v9.4h-2.4v-9
		c0-2.4-1.3-3.7-3.6-3.7c-2.4,0-4,1.7-4,4.2v8.6h-2.4V277.2z"/>
	<path fill="#FFFFFF" d="M351.2,273.9v3.3h2.9v2h-2.9v8.8c0,1.4,0.6,2,1.8,2c0.3,0,0.9,0,1-0.1v2c-0.3,0.1-1,0.1-1.5,0.1
		c-2.7,0-3.7-1.1-3.7-3.9v-8.9h-2.1v-2h2.1v-3.3H351.2z"/>
	<path fill="#FFFFFF" d="M368.4,287.7c-0.4,2.5-3,4.3-6.1,4.3c-4.1,0-6.8-2.9-6.8-7.5s2.6-7.6,6.6-7.6c3.9,0,6.4,2.8,6.4,7.2v0.9
		H358v0.1c0,2.8,1.7,4.6,4.3,4.6c1.8,0,3.3-0.9,3.7-2.3H368.4z M358,283.3h8.1c-0.1-2.5-1.6-4.2-4-4.2
		C359.8,279.2,358.2,280.8,358,283.3z"/>
	<path fill="#FFFFFF" d="M371.1,277.2h2.2v2.4h0.1c0.4-1.5,1.8-2.5,3.6-2.5c0.3,0,0.7,0,0.9,0.1v2.4c-0.2-0.1-0.8-0.2-1.2-0.2
		c-1.9,0-3.2,1.4-3.2,3.5v9.1h-2.4V277.2z"/>
	<path fill="#FFFFFF" d="M379.3,287.7c0-2.5,1.9-4,5.5-4.2l4.1-0.2V282c0-1.8-1.2-2.8-3.4-2.8c-1.7,0-3,0.9-3.3,2.3H380
		c0.1-2.5,2.5-4.4,5.6-4.4c3.5,0,5.7,1.9,5.7,4.8v10.1h-2.3v-2.6H389c-0.8,1.6-2.7,2.7-4.7,2.7C381.3,292.1,379.3,290.3,379.3,287.7
		z M388.9,286.3v-1.2l-3.9,0.2c-2.2,0.1-3.4,0.9-3.4,2.4c0,1.4,1.2,2.3,3,2.3C387.2,290,388.9,288.4,388.9,286.3z"/>
	<path fill="#FFFFFF" d="M404.3,282c-0.3-1.6-1.6-2.8-3.8-2.8c-2.6,0-4.3,2.1-4.3,5.4c0,3.3,1.8,5.4,4.3,5.4c2.1,0,3.4-1,3.8-2.7
		h2.3c-0.4,2.9-2.8,4.9-6.2,4.9c-4,0-6.8-2.9-6.8-7.5c0-4.5,2.7-7.5,6.7-7.5c3.7,0,5.9,2.4,6.2,4.9H404.3z"/>
	<path fill="#FFFFFF" d="M412.1,273.9v3.3h2.9v2h-2.9v8.8c0,1.4,0.6,2,1.8,2c0.3,0,0.9,0,1-0.1v2c-0.3,0.1-1,0.1-1.5,0.1
		c-2.7,0-3.7-1.1-3.7-3.9v-8.9h-2.1v-2h2.1v-3.3H412.1z"/>
	<path fill="#FFFFFF" d="M417.5,273.3c0-0.8,0.7-1.5,1.5-1.5c0.8,0,1.5,0.7,1.5,1.5c0,0.8-0.7,1.5-1.5,1.5
		C418.1,274.8,417.5,274.1,417.5,273.3z M417.8,277.2h2.4v14.7h-2.4V277.2z"/>
	<path fill="#FFFFFF" d="M422.8,284.6c0-4.6,2.7-7.5,6.8-7.5c4.1,0,6.8,2.9,6.8,7.5c0,4.6-2.7,7.5-6.8,7.5
		C425.4,292.1,422.8,289.1,422.8,284.6z M434,284.6c0-3.4-1.6-5.4-4.4-5.4s-4.4,2-4.4,5.4s1.6,5.4,4.4,5.4
		C432.3,290,434,287.9,434,284.6z"/>
	<path fill="#FFFFFF" d="M438.9,277.2h2.2v2.4h0.1c0.9-1.7,2.5-2.5,4.8-2.5c3.2,0,5.2,2.1,5.2,5.4v9.4h-2.4v-9
		c0-2.4-1.3-3.7-3.6-3.7c-2.4,0-4,1.7-4,4.2v8.6h-2.4V277.2z"/>
	<path fill="#FFFFFF" d="M460.4,284.6c0-4.6,2.7-7.5,6.8-7.5s6.8,2.9,6.8,7.5c0,4.6-2.7,7.5-6.8,7.5S460.4,289.1,460.4,284.6z
		 M471.5,284.6c0-3.4-1.6-5.4-4.4-5.4s-4.4,2-4.4,5.4s1.6,5.4,4.4,5.4C469.9,290,471.5,287.9,471.5,284.6z"/>
	<path fill="#FFFFFF" d="M477.3,279.2h-2.1v-2h2.1v-1.4c0-2.7,1.2-3.9,3.9-3.9c0.5,0,0.9,0,1.3,0.1v2c-0.3-0.1-0.7-0.1-1.1-0.1
		c-1.2,0-1.8,0.6-1.8,2v1.4h2.9v2h-2.9v12.8h-2.4V279.2z"/>
	<path fill="#FFFFFF" d="M97.8,310.8h2.2v2.4h0.1c0.7-1.6,2.3-2.5,4.2-2.5c2,0,3.5,1,4.1,2.8h0.1c0.8-1.8,2.6-2.8,4.6-2.8
		c2.9,0,4.8,1.9,4.8,4.8v10.1h-2.4V316c0-2-1.1-3.2-3.1-3.2s-3.4,1.5-3.4,3.5v9.3h-2.4v-9.8c0-1.8-1.2-3-3.1-3c-2,0-3.4,1.5-3.4,3.6
		v9.1h-2.4V310.8z"/>
	<path fill="#FFFFFF" d="M120.9,306.9c0-0.8,0.7-1.5,1.5-1.5c0.8,0,1.5,0.7,1.5,1.5c0,0.8-0.7,1.5-1.5,1.5
		C121.6,308.4,120.9,307.7,120.9,306.9z M121.2,310.8h2.4v14.7h-2.4V310.8z"/>
	<path fill="#FFFFFF" d="M136.8,315.6c-0.3-1.6-1.6-2.8-3.8-2.8c-2.6,0-4.3,2.1-4.3,5.4c0,3.3,1.8,5.4,4.3,5.4c2.1,0,3.4-1,3.8-2.7
		h2.3c-0.4,2.9-2.8,4.9-6.2,4.9c-4,0-6.8-2.9-6.8-7.5c0-4.5,2.7-7.5,6.7-7.5c3.7,0,5.9,2.4,6.2,4.9H136.8z"/>
	<path fill="#FFFFFF" d="M141.4,310.8h2.2v2.4h0.1c0.4-1.5,1.8-2.5,3.6-2.5c0.3,0,0.7,0,0.9,0.1v2.4c-0.2-0.1-0.8-0.2-1.2-0.2
		c-1.9,0-3.2,1.4-3.2,3.5v9.1h-2.4V310.8z"/>
	<path fill="#FFFFFF" d="M148.9,318.2c0-4.6,2.7-7.5,6.8-7.5s6.8,2.9,6.8,7.5c0,4.6-2.7,7.5-6.8,7.5S148.9,322.7,148.9,318.2z
		 M160.1,318.2c0-3.4-1.6-5.4-4.4-5.4s-4.4,2-4.4,5.4s1.6,5.4,4.4,5.4C158.4,323.6,160.1,321.5,160.1,318.2z"/>
	<path fill="#FFFFFF" d="M174.8,315.6c-0.3-1.6-1.6-2.8-3.8-2.8c-2.6,0-4.3,2.1-4.3,5.4c0,3.3,1.8,5.4,4.3,5.4c2.1,0,3.4-1,3.8-2.7
		h2.3c-0.4,2.9-2.8,4.9-6.2,4.9c-4,0-6.8-2.9-6.8-7.5c0-4.5,2.7-7.5,6.7-7.5c3.7,0,5.9,2.4,6.2,4.9H174.8z"/>
	<path fill="#FFFFFF" d="M179.5,310.8h2.2v2.4h0.1c0.4-1.5,1.8-2.5,3.6-2.5c0.3,0,0.7,0,0.9,0.1v2.4c-0.2-0.1-0.8-0.2-1.2-0.2
		c-1.9,0-3.2,1.4-3.2,3.5v9.1h-2.4V310.8z"/>
	<path fill="#FFFFFF" d="M199.8,321.3c-0.4,2.5-3,4.3-6.1,4.3c-4.1,0-6.8-2.9-6.8-7.5s2.6-7.6,6.6-7.6c3.9,0,6.4,2.8,6.4,7.2v0.9
		h-10.6v0.1c0,2.8,1.7,4.6,4.3,4.6c1.8,0,3.3-0.9,3.7-2.3H199.8z M189.4,316.9h8.1c-0.1-2.5-1.6-4.2-4-4.2
		C191.2,312.8,189.6,314.4,189.4,316.9z"/>
	<path fill="#FFFFFF" d="M201.8,318.2c0-4.5,2.6-7.5,6.3-7.5c2.1,0,3.8,0.9,4.7,2.5h0.1v-8.2h2.4v20.6h-2.3V323h0
		c-1,1.7-2.6,2.6-4.8,2.6C204.4,325.7,201.8,322.7,201.8,318.2z M204.2,318.2c0,3.3,1.7,5.4,4.3,5.4c2.6,0,4.3-2.2,4.3-5.4
		c0-3.2-1.7-5.4-4.3-5.4C205.9,312.8,204.2,314.9,204.2,318.2z"/>
	<path fill="#FFFFFF" d="M218.3,306.9c0-0.8,0.7-1.5,1.5-1.5c0.8,0,1.5,0.7,1.5,1.5c0,0.8-0.7,1.5-1.5,1.5
		C219,308.4,218.3,307.7,218.3,306.9z M218.7,310.8h2.4v14.7h-2.4V310.8z"/>
	<path fill="#FFFFFF" d="M227.6,307.5v3.3h2.9v2h-2.9v8.8c0,1.4,0.6,2,1.8,2c0.3,0,0.9,0,1-0.1v2c-0.3,0.1-1,0.1-1.5,0.1
		c-2.7,0-3.7-1.1-3.7-3.9v-8.9h-2.1v-2h2.1v-3.3H227.6z"/>
	<path fill="#FFFFFF" d="M232.9,306.9c0-0.8,0.7-1.5,1.5-1.5c0.8,0,1.5,0.7,1.5,1.5c0,0.8-0.7,1.5-1.5,1.5
		C233.6,308.4,232.9,307.7,232.9,306.9z M233.2,310.8h2.4v14.7h-2.4V310.8z"/>
	<path fill="#FFFFFF" d="M239,310.8h2.2v2.4h0.1c0.9-1.7,2.5-2.5,4.8-2.5c3.2,0,5.2,2.1,5.2,5.4v9.4h-2.4v-9c0-2.4-1.3-3.7-3.6-3.7
		c-2.4,0-4,1.7-4,4.2v8.6H239V310.8z"/>
	<path fill="#FFFFFF" d="M254.4,326.7h2.5c0.4,1.2,1.8,2,3.8,2c2.5,0,4.2-1.3,4.2-3.4V323h-0.1c-0.9,1.6-2.7,2.5-4.7,2.5
		c-3.7,0-6.2-3-6.2-7.4c0-4.5,2.5-7.5,6.3-7.5c2.1,0,3.8,0.9,4.8,2.5h0v-2.4h2.3v14.3c0,3.5-2.5,5.7-6.7,5.7
		C257.1,330.8,254.7,329.2,254.4,326.7z M264.8,318.1c0-3.2-1.8-5.3-4.3-5.3c-2.6,0-4.3,2.1-4.3,5.3c0,3.2,1.7,5.3,4.3,5.3
		C263,323.4,264.8,321.3,264.8,318.1z"/>
	<path fill="#FFFFFF" d="M289.2,321.3c-0.4,2.5-3,4.3-6.1,4.3c-4.1,0-6.8-2.9-6.8-7.5s2.6-7.6,6.6-7.6c3.9,0,6.4,2.8,6.4,7.2v0.9
		h-10.6v0.1c0,2.8,1.7,4.6,4.3,4.6c1.8,0,3.3-0.9,3.7-2.3H289.2z M278.8,316.9h8.1c-0.1-2.5-1.6-4.2-4-4.2
		C280.6,312.8,279,314.4,278.8,316.9z"/>
	<path fill="#FFFFFF" d="M296.7,319.9l-3.6,5.6h-2.7l5-7.4l-5-7.4h2.7l3.6,5.6h0.1l3.6-5.6h2.7l-5,7.3l4.9,7.5h-2.7L296.7,319.9
		L296.7,319.9z"/>
	<path fill="#FFFFFF" d="M314.7,315.6c-0.3-1.6-1.6-2.8-3.8-2.8c-2.6,0-4.3,2.1-4.3,5.4c0,3.3,1.8,5.4,4.3,5.4c2.1,0,3.4-1,3.8-2.7
		h2.3c-0.4,2.9-2.8,4.9-6.2,4.9c-4,0-6.8-2.9-6.8-7.5c0-4.5,2.7-7.5,6.7-7.5c3.7,0,5.9,2.4,6.2,4.9H314.7z"/>
	<path fill="#FFFFFF" d="M319.5,304.9h2.4v8.2h0.1c0.9-1.7,2.6-2.5,4.8-2.5c3.2,0,5.4,2.2,5.4,5.5v9.4h-2.4v-9
		c0-2.4-1.4-3.8-3.7-3.8c-2.5,0-4.2,1.7-4.2,4.3v8.5h-2.4V304.9z"/>
	<path fill="#FFFFFF" d="M334.7,321.3c0-2.5,1.9-4,5.5-4.2l4.1-0.2v-1.2c0-1.8-1.2-2.8-3.4-2.8c-1.7,0-3,0.9-3.3,2.3h-2.3
		c0.1-2.5,2.5-4.4,5.6-4.4c3.5,0,5.7,1.9,5.7,4.8v10.1h-2.3V323h-0.1c-0.8,1.6-2.7,2.7-4.7,2.7C336.6,325.7,334.7,323.9,334.7,321.3
		z M344.3,319.9v-1.2l-3.9,0.2c-2.2,0.1-3.4,0.9-3.4,2.4c0,1.4,1.2,2.3,3,2.3C342.5,323.6,344.3,322,344.3,319.9z"/>
	<path fill="#FFFFFF" d="M349.8,310.8h2.2v2.4h0.1c0.9-1.7,2.5-2.5,4.8-2.5c3.2,0,5.2,2.1,5.2,5.4v9.4h-2.4v-9
		c0-2.4-1.3-3.7-3.6-3.7c-2.4,0-4,1.7-4,4.2v8.6h-2.4V310.8z"/>
	<path fill="#FFFFFF" d="M365.3,326.7h2.5c0.4,1.2,1.8,2,3.8,2c2.5,0,4.2-1.3,4.2-3.4V323h-0.1c-0.9,1.6-2.7,2.5-4.7,2.5
		c-3.7,0-6.2-3-6.2-7.4c0-4.5,2.5-7.5,6.3-7.5c2.1,0,3.8,0.9,4.8,2.5h0v-2.4h2.3v14.3c0,3.5-2.5,5.7-6.7,5.7
		C368,330.8,365.6,329.2,365.3,326.7z M375.7,318.1c0-3.2-1.8-5.3-4.3-5.3c-2.6,0-4.3,2.1-4.3,5.3c0,3.2,1.7,5.3,4.3,5.3
		C373.9,323.4,375.7,321.3,375.7,318.1z"/>
	<path fill="#FFFFFF" d="M393.4,321.3c-0.4,2.5-3,4.3-6.1,4.3c-4.1,0-6.8-2.9-6.8-7.5s2.6-7.6,6.6-7.6c3.9,0,6.4,2.8,6.4,7.2v0.9
		H383v0.1c0,2.8,1.7,4.6,4.3,4.6c1.8,0,3.3-0.9,3.7-2.3H393.4z M383,316.9h8.1c-0.1-2.5-1.6-4.2-4-4.2
		C384.8,312.8,383.2,314.4,383,316.9z"/>
	<path fill="#FFFFFF" d="M401.3,310.7c3,0,5.3,1.8,5.4,4.2h-2.3c-0.2-1.4-1.4-2.2-3.2-2.2c-1.8,0-3,0.9-3,2.1c0,1,0.8,1.7,2.5,2.1
		l2.2,0.6c3,0.8,4,1.8,4,3.9c0,2.5-2.4,4.3-5.8,4.3c-3.2,0-5.5-1.7-5.7-4.3h2.4c0.2,1.5,1.5,2.3,3.5,2.3s3.3-0.8,3.3-2.2
		c0-1-0.6-1.6-2.3-2l-2.6-0.7c-2.6-0.7-3.8-2-3.8-3.9C395.8,312.4,398.1,310.7,401.3,310.7z"/>
</g>
<text transform="matrix(1 0 0 1 34.6463 561.334)"><tspan x="0" y="0" font-family="'SFUIDisplay-Regular'" font-size="28">Service for  international interaction of</tspan><tspan x="68.6" y="33.6" font-family="'SFUIDisplay-Regular'" font-size="28">microcrediting exchanges </tspan></text>
</svg>
