<svg version="1.1" id="Layer_1" xmlns="http://www.w3.org/2000/svg" xmlns:xlink="http://www.w3.org/1999/xlink" x="0px" y="0px"
	 viewBox="0 0 300 300" enable-background="new 0 0 300 300" xml:space="preserve">
<path fill="none" stroke="#E70025" stroke-width="3" stroke-miterlimit="10" d="M156.6,144.7c1.2,1.5,1.9,3.4,1.9,5.4
	c0,4.9-3.9,8.8-8.8,8.8c-4.9,0-8.8-3.9-8.8-8.8c0-4.9,3.9-8.8,8.8-8.8C152.5,141.3,155,142.6,156.6,144.7"/>
<path fill="none" stroke="#0C9ABD" stroke-width="3" stroke-miterlimit="10" d="M136.2,159.8c-2-2.7-3.1-6.1-3.1-9.7
	c0-9.2,7.5-16.7,16.7-16.7c9.2,0,16.7,7.5,16.7,16.7c0,9.2-7.5,16.7-16.7,16.7C144.1,166.8,139.2,164,136.2,159.8"/>
<path fill="none" stroke="#BDC747" stroke-width="3" stroke-miterlimit="10" d="M160.1,173.6c-3.2,1.4-6.7,2.2-10.4,2.2
	c-14.2,0-25.7-11.5-25.7-25.7c0-14.2,11.5-25.7,25.7-25.7c14.2,0,25.7,11.5,25.7,25.7C175.4,160.6,169.1,169.6,160.1,173.6"/>
<path fill="none" stroke="#E70025" stroke-width="3" stroke-miterlimit="10" d="M128.9,178.6c-8.8-6.4-14.5-16.8-14.5-28.5
	c0-19.5,15.8-35.2,35.2-35.2s35.2,15.8,35.2,35.2s-15.8,35.2-35.2,35.2C141.9,185.3,134.8,182.8,128.9,178.6"/>
<path fill="none" stroke="#0C9ABD" stroke-width="3" stroke-miterlimit="10" d="M158.7,193.8c-2.9,0.6-5.9,0.9-9,0.9
	c-24.6,0-44.6-20-44.6-44.6s20-44.6,44.6-44.6s44.6,20,44.6,44.6C194.3,171.7,179,189.7,158.7,193.8"/>
<path fill="none" stroke="#BDC747" stroke-width="3" stroke-miterlimit="10" d="M101.2,174.7c-3.7-7.4-5.9-15.7-5.9-24.6
	c0-30,24.4-54.4,54.4-54.4s54.4,24.4,54.4,54.4s-24.4,54.4-54.4,54.4C128.5,204.5,110.1,192.4,101.2,174.7"/>
<path fill="none" stroke="#E70025" stroke-width="3" stroke-miterlimit="10" d="M95.9,113.4C107.6,96.2,127.3,85,149.7,85
	c36,0,65.1,29.2,65.1,65.1s-29.2,65.1-65.1,65.1s-65.1-29.2-65.1-65.1C84.6,136.5,88.8,123.8,95.9,113.4"/>
<path fill="none" stroke="#0C9ABD" stroke-width="3" stroke-miterlimit="10" d="M72.1,150.1c0-42.8,34.7-77.6,77.6-77.6
	s77.6,34.7,77.6,77.6s-34.7,77.6-77.6,77.6S72.1,192.9,72.1,150.1"/>
</svg>
