<svg version="1.1" id="Layer_1" xmlns="http://www.w3.org/2000/svg" xmlns:xlink="http://www.w3.org/1999/xlink" x="0px" y="0px"
	 viewBox="0 0 50 50" enable-background="new 0 0 50 50" xml:space="preserve">
<path fill="none" stroke="#FFFFFF" stroke-miterlimit="10" d="M26.7,23.5c0.3,0.4,0.6,1,0.6,1.6c0,1.4-1.2,2.6-2.6,2.6
	s-2.6-1.2-2.6-2.6s1.2-2.6,2.6-2.6C25.5,22.5,26.3,22.9,26.7,23.5"/>
<path fill="none" stroke="#0C9ABD" stroke-miterlimit="10" d="M20.7,28c-0.6-0.8-0.9-1.8-0.9-2.9c0-2.7,2.2-4.9,4.9-4.9
	s4.9,2.2,4.9,4.9S27.4,30,24.7,30C23,30,21.6,29.2,20.7,28"/>
<path fill="none" stroke="#BDC747" stroke-miterlimit="10" d="M27.8,32.1c-0.9,0.4-2,0.7-3.1,0.7c-4.2,0-7.6-3.4-7.6-7.6
	s3.4-7.6,7.6-7.6s7.6,3.4,7.6,7.6C32.3,28.2,30.5,30.9,27.8,32.1"/>
<path fill="none" stroke="#FFFFFF" stroke-miterlimit="10" d="M18.5,33.6c-2.6-1.9-4.3-5-4.3-8.5c0-5.8,4.7-10.5,10.5-10.5
	s10.5,4.7,10.5,10.5s-4.7,10.5-10.5,10.5C22.4,35.6,20.3,34.8,18.5,33.6"/>
<path fill="none" stroke="#0C9ABD" stroke-miterlimit="10" d="M27.4,38.1c-0.9,0.2-1.8,0.3-2.7,0.3c-7.3,0-13.2-5.9-13.2-13.2
	s5.9-13.2,13.2-13.2s13.2,5.9,13.2,13.2C37.9,31.5,33.4,36.8,27.4,38.1"/>
<path fill="none" stroke="#BDC747" stroke-miterlimit="10" d="M10.3,32.4c-1.1-2.2-1.7-4.7-1.7-7.3c0-8.9,7.2-16.1,16.1-16.1
	s16.1,7.2,16.1,16.1s-7.2,16.1-16.1,16.1C18.4,41.2,12.9,37.6,10.3,32.4"/>
<path fill="none" stroke="#FFFFFF" stroke-miterlimit="10" d="M8.7,14.2c3.5-5.1,9.3-8.4,16-8.4C35.4,5.8,44,14.4,44,25.1
	s-8.7,19.3-19.3,19.3S5.4,35.8,5.4,25.1C5.4,21.1,6.6,17.3,8.7,14.2"/>
<path fill="none" stroke="#0C9ABD" stroke-miterlimit="10" d="M1.7,25.1c0-12.7,10.3-23,23-23s23,10.3,23,23s-10.3,23-23,23
	S1.7,37.8,1.7,25.1"/>
</svg>
