<?xml version="1.0" encoding="utf-8"?>
<!-- Generator: Adobe Illustrator 18.1.0, SVG Export Plug-In . SVG Version: 6.00 Build 0)  -->
<svg version="1.1" id="Layer_1" xmlns="http://www.w3.org/2000/svg" xmlns:xlink="http://www.w3.org/1999/xlink" x="0px" y="0px"
	 viewBox="0 0 500 680" enable-background="new 0 0 500 680" xml:space="preserve">
<path fill="#EEEEEE" d="M396.7,649.9H121.8c-40.1,0-72.6-32.5-72.6-72.6v-703.3c0-40.1,32.5-72.6,72.6-72.6h274.9
	c40.1,0,72.6,32.5,72.6,72.6v703.3C469.4,617.4,436.9,649.9,396.7,649.9z"/>
<path fill="#354459" stroke="#EEEEEE" stroke-miterlimit="10" d="M393.6,642.9H111.1c-38,0-68.9-30.8-68.9-68.9v-710.9
	c0-38,30.8-68.9,68.9-68.9h282.5c38,0,68.9,30.8,68.9,68.9V574C462.4,612.1,431.6,642.9,393.6,642.9z"/>
<rect x="57.1" y="-95.7" fill="#FBFBFB" stroke="#EEEEEE" stroke-miterlimit="10" width="391.7" height="625.9"/>
<circle fill="#354459" stroke="#192C3D" stroke-width="2" stroke-miterlimit="10" cx="251.1" cy="587.3" r="29.1"/>
</svg>
