<svg version="1.1" id="Layer_1" xmlns="http://www.w3.org/2000/svg" xmlns:xlink="http://www.w3.org/1999/xlink" x="0px" y="0px"
	 viewBox="0 0 500 500" enable-background="new 0 0 500 500" xml:space="preserve">
<g>
	<path fill="none" stroke="#FFFFFF" stroke-width="9" stroke-linecap="round" stroke-linejoin="round" stroke-miterlimit="10" d="
		M350.5,346.9c0.6-6.6,1.8-13,2.6-19.6c0.9-7.2,0.8-14.4,1.4-21.6c1.1-12.7,0.2-25.3-0.6-37.9c-0.8-11.7-2.6-23.4-4.7-35
		c-2.2-12.5-5.8-24.4-12.3-35.3c-15.9-27.1-39.4-43.9-70.3-49.2c-41.9-7.2-82.8,12.1-103.6,47.9c-8.5,14.6-13.2,30.1-13.9,47
		c-0.4,10.8,1.5,21.1,3,31.6c1.4,9.5,2.1,19.1,0.5,28.7c-0.4,2.6-0.1,5.3-0.1,7.9"/>
	<path fill="none" stroke="#FFFFFF" stroke-width="9" stroke-linecap="round" stroke-linejoin="round" stroke-miterlimit="10" d="
		M401,237.1c-3.2-20.5-7.7-40.6-17.5-59.1c-13.8-25.9-33.3-46.4-58.7-61.2c-18.2-10.6-37.9-16.9-58.7-19.4
		c-11.9-1.5-23.8-1-35.8,0.5c-17.8,2.3-34.4,7.5-50.3,15.6c-13.5,6.8-25.5,15.7-36.2,26.2c-17.5,17.2-30.1,37.5-37.8,60.8
		c-2.8,8.5-5.5,17.1-5.5,26.2"/>
	<path fill="none" stroke="#FFFFFF" stroke-width="9" stroke-linecap="round" stroke-linejoin="round" stroke-miterlimit="10" d="
		M227.8,444.3c14.9-19.3,26.5-40.4,35.1-63.2c6.6-17.5,11-35.6,13.8-54.1c2.4-16.1,2.9-32.2,2.2-48.3c-0.5-12.4-1.8-24.9-4.9-37
		c-3.2-12.4-13.3-20.2-25.3-19.5c-14.5,0.8-23.5,11.1-24.6,24.9c-0.2,2.7,0.4,5.4,1,7.9c2.4,9.8,3,19.7,3.5,29.6
		c0.9,15.4-0.4,30.7-3.7,45.8"/>
	<path fill="none" stroke="#FFFFFF" stroke-width="9" stroke-linecap="round" stroke-linejoin="round" stroke-miterlimit="10" d="
		M274.9,72.9c-3.8,0.5-7.5-0.4-11.2-0.8c-12.3-1.2-24.4-0.6-36.7,0.9c-31,3.7-58.8,15.2-83.6,33.9C116.7,127,97.3,153,85.2,184.2
		c-6.1,15.6-9.7,31.8-11.1,48.7c-0.6,7.8-0.8,15.6-0.5,23.3c0.3,7.5,1.2,15.1,2.7,22.5c3.6,17.2,1,33-10.8,46.6"/>
	<path fill="none" stroke="#FFFFFF" stroke-width="9" stroke-linecap="round" stroke-linejoin="round" stroke-miterlimit="10" d="
		M303.6,79.7c15.1,5.3,29.5,12,42.9,20.8c24.2,16.1,43.4,36.9,57.5,62.4c8.4,15.2,14.2,31.4,17.8,48.3c2,9.3,3.4,18.8,4.7,28.3
		c2.7,19.4,3.9,38.8,3.6,58.3c-0.2,12.6-1.2,25.3-2.1,37.9c-0.2,2.2-0.6,4.4-0.9,6.7"/>
	<path fill="none" stroke="#FFFFFF" stroke-width="9" stroke-linecap="round" stroke-linejoin="round" stroke-miterlimit="10" d="
		M288.2,182.6c16.4,9.9,27.7,23.9,33.4,42.3c2.6,8.6,3.8,17.4,5.1,26.2c2.3,15.6,3,31.3,2.8,47c-0.4,25.1-4,49.8-10.8,74.1
		c-7,25-16.7,48.8-30,71.2"/>
	<path fill="none" stroke="#FFFFFF" stroke-width="9" stroke-linecap="round" stroke-linejoin="round" stroke-miterlimit="10" d="
		M259.5,171.9c-4.2,0.1-8.3,0.2-12.5,0.2c-17.3,0.2-32.6,6.1-45.7,17.2c-15.1,12.8-24.4,29.1-26.7,49c-1.1,9.5-0.3,18.9,1.6,28.3
		c2.7,13.5,2.6,27.1,1.4,40.8c-1.1,12.3-3.9,24.2-8,35.8c-6,16.9-14.8,32-26.2,45.8c-4,4.9-8.8,9-12.9,13.8"/>
	<path fill="none" stroke="#FFFFFF" stroke-width="9" stroke-linecap="round" stroke-linejoin="round" stroke-miterlimit="10" d="
		M330.4,63.3c-16.5-7.7-33.9-12.2-51.7-15.1c-14-2.3-28.3-2.6-42.4-1.6c-29.2,2.1-57,10-82.8,24c-21.1,11.4-39.2,26.6-55.3,44.2
		c-3.7,4-6.7,8.6-10.1,12.8"/>
	<path fill="none" stroke="#FFFFFF" stroke-width="9" stroke-linecap="round" stroke-linejoin="round" stroke-miterlimit="10" d="
		M353.4,176.4c10.4,15.4,17.3,32.4,20.4,50.7c1.9,11,3.4,22.1,4.4,33.3c1.5,15.1,2,30.3,1.4,45.4c-0.5,11.1-1.5,22.2-3,33.3
		c-2.4,17.6-6.1,34.9-11,52c-2.3,8-4.9,15.9-7.9,23.7"/>
	<path fill="none" stroke="#FFFFFF" stroke-width="9" stroke-linecap="round" stroke-linejoin="round" stroke-miterlimit="10" d="
		M169.2,150.9c-14.7,11.9-25.9,26.4-33.8,43.6c-6.5,14.2-10.1,28.9-11.4,44.5c-1.1,13.4,1.3,26.1,3.4,39.2c2.7,17,0.4,33.8-5.8,49.9
		c-6,15.7-15.6,28.9-28.1,40.1"/>
	<path fill="none" stroke="#FFFFFF" stroke-width="9" stroke-linecap="round" stroke-linejoin="round" stroke-miterlimit="10" d="
		M249.5,242.5c-0.6,6.2,1.4,12.2,2.2,18.3c1.3,9.4,2.3,18.8,2.3,28.3c0.3,38-8.2,74-25.7,107.8c-8.4,16.3-18.8,31.2-30.8,44.9"/>
	<path fill="none" stroke="#FFFFFF" stroke-width="9" stroke-linecap="round" stroke-linejoin="round" stroke-miterlimit="10" d="
		M304.5,294.5c-0.3-16.9-1.5-33.7-4.4-50.4c-1.9-10.9-4.9-21-12.3-29.5c-9.4-10.9-21.4-17-35.8-17.4c-25.7-0.6-43.5,12.9-51.2,38.2"
		/>
	<path fill="none" stroke="#FFFFFF" stroke-width="9" stroke-linecap="round" stroke-linejoin="round" stroke-miterlimit="10" d="
		M366.5,83.5c12.8,9.8,24.8,20.6,35.5,32.8c12,13.7,21.7,28.7,29.4,45c8.2,17.2,13.6,35.2,16.8,54.1c1.7,10.4,2.3,20.8,2.8,31.2
		c0.2,3.6-0.2,7.2-0.4,10.8"/>
	<path fill="none" stroke="#FFFFFF" stroke-width="9" stroke-linecap="round" stroke-linejoin="round" stroke-miterlimit="10" d="
		M202.5,269.5c0.4,6,1,11.9,1.2,17.9c0.2,7.8-0.3,15.5-1.1,23.3c-1,9.8-3,19.2-5.5,28.7c-4.2,16.5-11.3,31.7-20.1,46.1
		c-7.9,12.9-17.6,24.5-28.7,35"/>
	<path fill="none" stroke="#FFFFFF" stroke-width="9" stroke-linecap="round" stroke-linejoin="round" stroke-miterlimit="10" d="
		M68.5,159.7C60,177.5,54,196.2,50.9,215.8c-2.4,14.7-2.8,29.4-2.2,44.1c0.5,11.4,2.3,22.7,5.2,33.7"/>
	<path fill="none" stroke="#FFFFFF" stroke-width="9" stroke-linecap="round" stroke-linejoin="round" stroke-miterlimit="10" d="
		M326.2,147.5c-16.8-12.2-35.1-20.8-55.8-24.1c-12.5-2-24.9-2.4-37.5-0.5c-11.9,1.7-23.3,4.6-34.1,9.6"/>
	<path fill="none" stroke="#FFFFFF" stroke-width="9" stroke-linecap="round" stroke-linejoin="round" stroke-miterlimit="10" d="
		M302.8,323.2c-3.2,23.8-8.5,47.1-17.4,69.5c-7.9,19.7-17.3,38.4-29.6,55.8"/>
	<path fill="none" stroke="#FFFFFF" stroke-width="9" stroke-linecap="round" stroke-linejoin="round" stroke-miterlimit="10" d="
		M404.4,266.2c0.1,9.2,0.3,18.3,0.4,27.5c0.2,14.1-0.9,28.1-2.4,42c-1.9,17.3-5.4,34.3-9.4,51.1"/>
	<path fill="none" stroke="#FFFFFF" stroke-width="9" stroke-linecap="round" stroke-linejoin="round" stroke-miterlimit="10" d="
		M98.4,247.5c0,11.4,2,22.5,3.7,33.7c2,12.6,0.8,25-3.7,37c-4.4,12-11.6,22.1-20.8,30.8"/>
	<path fill="none" stroke="#FFFFFF" stroke-width="9" stroke-linecap="round" stroke-linejoin="round" stroke-miterlimit="10" d="
		M215.2,363.6c-1.3,7.4-4.9,13.9-8.2,20.3c-7.2,14-16.1,27-26.1,39.2c-2.8,3.4-6.1,6.4-9.1,9.6"/>
	<path fill="none" stroke="#FFFFFF" stroke-width="9" stroke-linecap="round" stroke-linejoin="round" stroke-miterlimit="10" d="
		M343.6,371.5c-1,9.8-2.3,13.5-4.3,19.9c-4.6,14.6-10.3,28.7-16.9,42.5"/>
	<path fill="none" stroke="#FFFFFF" stroke-width="9" stroke-linecap="round" stroke-linejoin="round" stroke-miterlimit="10" d="
		M143.9,340.3c-7.5,18.8-19.7,34.3-34.6,47.9"/>
</g>
<circle fill="none" stroke="#FFFFFF" stroke-width="2" stroke-linecap="round" stroke-linejoin="round" stroke-miterlimit="10" cx="249.5" cy="245.5" r="237.4"/>
</svg>
